<svg width="540" height="410" viewBox="0 0 540 410" fill="none" xmlns="http://www.w3.org/2000/svg">
<rect width="540" height="410" fill="white"/>
<path d="M154.901 53.657H150.1L149.275 56H147.311L151.42 44.516H153.598L157.706 56H155.726L154.901 53.657ZM154.373 52.1225L152.509 46.793L150.628 52.1225H154.373ZM160.873 48.2285C161.148 47.7665 161.511 47.409 161.962 47.156C162.424 46.892 162.969 46.76 163.596 46.76V48.707H163.117C162.38 48.707 161.819 48.894 161.434 49.268C161.06 49.642 160.873 50.291 160.873 51.215V56H158.992V46.9085H160.873V48.2285ZM165.782 45.704C165.441 45.704 165.155 45.5885 164.924 45.3575C164.693 45.1265 164.577 44.8405 164.577 44.4995C164.577 44.1585 164.693 43.8725 164.924 43.6415C165.155 43.4105 165.441 43.295 165.782 43.295C166.112 43.295 166.392 43.4105 166.623 43.6415C166.854 43.8725 166.97 44.1585 166.97 44.4995C166.97 44.8405 166.854 45.1265 166.623 45.3575C166.392 45.5885 166.112 45.704 165.782 45.704ZM166.706 46.9085V56H164.825V46.9085H166.706ZM177.008 51.2315C177.008 51.5725 176.986 51.8805 176.942 52.1555H169.995C170.05 52.8815 170.32 53.4645 170.804 53.9045C171.288 54.3445 171.882 54.5645 172.586 54.5645C173.598 54.5645 174.313 54.141 174.731 53.294H176.76C176.485 54.13 175.985 54.8175 175.259 55.3565C174.544 55.8845 173.653 56.1485 172.586 56.1485C171.717 56.1485 170.936 55.956 170.243 55.571C169.561 55.175 169.022 54.625 168.626 53.921C168.241 53.206 168.048 52.381 168.048 51.446C168.048 50.511 168.235 49.6915 168.609 48.9875C168.994 48.2725 169.528 47.7225 170.21 47.3375C170.903 46.9525 171.695 46.76 172.586 46.76C173.444 46.76 174.208 46.947 174.879 47.321C175.55 47.695 176.073 48.223 176.447 48.905C176.821 49.576 177.008 50.3515 177.008 51.2315ZM175.044 50.6375C175.033 49.9445 174.786 49.389 174.302 48.971C173.818 48.553 173.218 48.344 172.503 48.344C171.854 48.344 171.299 48.553 170.837 48.971C170.375 49.378 170.1 49.9335 170.012 50.6375H175.044ZM180.24 43.79V56H178.359V43.79H180.24ZM198.074 44.5325V56H196.193V48.146L192.695 56H191.391L187.877 48.146V56H185.996V44.5325H188.025L192.051 53.525L196.061 44.5325H198.074ZM199.419 51.413C199.419 50.5 199.606 49.6915 199.98 48.9875C200.365 48.2835 200.882 47.739 201.531 47.354C202.191 46.958 202.917 46.76 203.709 46.76C204.424 46.76 205.046 46.903 205.574 47.189C206.113 47.464 206.542 47.8105 206.861 48.2285V46.9085H208.758V56H206.861V54.647C206.542 55.076 206.107 55.4335 205.557 55.7195C205.007 56.0055 204.38 56.1485 203.676 56.1485C202.895 56.1485 202.18 55.9505 201.531 55.5545C200.882 55.1475 200.365 54.5865 199.98 53.8715C199.606 53.1455 199.419 52.326 199.419 51.413ZM206.861 51.446C206.861 50.819 206.729 50.2745 206.465 49.8125C206.212 49.3505 205.876 48.9985 205.458 48.7565C205.04 48.5145 204.589 48.3935 204.105 48.3935C203.621 48.3935 203.17 48.5145 202.752 48.7565C202.334 48.9875 201.993 49.334 201.729 49.796C201.476 50.247 201.35 50.786 201.35 51.413C201.35 52.04 201.476 52.59 201.729 53.063C201.993 53.536 202.334 53.899 202.752 54.152C203.181 54.394 203.632 54.515 204.105 54.515C204.589 54.515 205.04 54.394 205.458 54.152C205.876 53.91 206.212 53.558 206.465 53.096C206.729 52.623 206.861 52.073 206.861 51.446ZM212.395 54.4655H216.52V56H210.217V54.4655L214.359 48.443H210.217V46.9085H216.52V48.443L212.395 54.4655ZM221.939 56.1485C221.081 56.1485 220.305 55.956 219.612 55.571C218.919 55.175 218.375 54.625 217.979 53.921C217.583 53.206 217.385 52.381 217.385 51.446C217.385 50.522 217.588 49.7025 217.995 48.9875C218.402 48.2725 218.958 47.7225 219.662 47.3375C220.366 46.9525 221.152 46.76 222.021 46.76C222.89 46.76 223.677 46.9525 224.381 47.3375C225.085 47.7225 225.64 48.2725 226.047 48.9875C226.454 49.7025 226.658 50.522 226.658 51.446C226.658 52.37 226.449 53.1895 226.031 53.9045C225.613 54.6195 225.041 55.175 224.315 55.571C223.6 55.956 222.808 56.1485 221.939 56.1485ZM221.939 54.515C222.423 54.515 222.874 54.3995 223.292 54.1685C223.721 53.9375 224.067 53.591 224.331 53.129C224.595 52.667 224.727 52.106 224.727 51.446C224.727 50.786 224.601 50.2305 224.348 49.7795C224.095 49.3175 223.759 48.971 223.341 48.74C222.923 48.509 222.472 48.3935 221.988 48.3935C221.504 48.3935 221.053 48.509 220.635 48.74C220.228 48.971 219.904 49.3175 219.662 49.7795C219.42 50.2305 219.299 50.786 219.299 51.446C219.299 52.425 219.546 53.184 220.041 53.723C220.547 54.251 221.18 54.515 221.939 54.515ZM229.898 48.2285C230.173 47.7665 230.536 47.409 230.987 47.156C231.449 46.892 231.994 46.76 232.621 46.76V48.707H232.142C231.405 48.707 230.844 48.894 230.459 49.268C230.085 49.642 229.898 50.291 229.898 51.215V56H228.017V46.9085H229.898V48.2285Z" fill="#1F8DF1"/>
<path d="M40.824 44.816V45.744H37.72V56H36.6V45.744H33.48V44.816H40.824ZM42.0805 51.616C42.0805 50.72 42.2565 49.936 42.6085 49.264C42.9712 48.5813 43.4672 48.0587 44.0965 47.696C44.7365 47.3227 45.4565 47.136 46.2565 47.136C47.0885 47.136 47.8032 47.328 48.4005 47.712C49.0085 48.096 49.4458 48.5867 49.7125 49.184V47.264H50.8325V56H49.7125V54.064C49.4352 54.6613 48.9925 55.1573 48.3845 55.552C47.7872 55.936 47.0725 56.128 46.2405 56.128C45.4512 56.128 44.7365 55.9413 44.0965 55.568C43.4672 55.1947 42.9712 54.6667 42.6085 53.984C42.2565 53.3013 42.0805 52.512 42.0805 51.616ZM49.7125 51.632C49.7125 50.928 49.5685 50.3093 49.2805 49.776C48.9925 49.2427 48.5978 48.832 48.0965 48.544C47.6058 48.256 47.0618 48.112 46.4645 48.112C45.8458 48.112 45.2912 48.2507 44.8005 48.528C44.3098 48.8053 43.9205 49.2107 43.6325 49.744C43.3552 50.2667 43.2165 50.8907 43.2165 51.616C43.2165 52.3307 43.3552 52.96 43.6325 53.504C43.9205 54.0373 44.3098 54.448 44.8005 54.736C45.2912 55.0133 45.8458 55.152 46.4645 55.152C47.0618 55.152 47.6058 55.008 48.0965 54.72C48.5978 54.432 48.9925 54.0213 49.2805 53.488C49.5685 52.9547 49.7125 52.336 49.7125 51.632ZM56.3974 56.128C55.3947 56.128 54.5734 55.8987 53.9334 55.44C53.304 54.9707 52.952 54.336 52.8774 53.536H54.0294C54.0827 54.0267 54.312 54.4267 54.7174 54.736C55.1334 55.0347 55.688 55.184 56.3814 55.184C56.9894 55.184 57.464 55.04 57.8054 54.752C58.1574 54.464 58.3334 54.1067 58.3334 53.68C58.3334 53.3813 58.2374 53.136 58.0454 52.944C57.8534 52.752 57.608 52.6027 57.3094 52.496C57.0214 52.3787 56.6267 52.256 56.1254 52.128C55.4747 51.9573 54.9467 51.7867 54.5414 51.616C54.136 51.4453 53.7894 51.1947 53.5014 50.864C53.224 50.5227 53.0854 50.0693 53.0854 49.504C53.0854 49.0773 53.2134 48.6827 53.4694 48.32C53.7254 47.9573 54.088 47.6693 54.5574 47.456C55.0267 47.2427 55.56 47.136 56.1574 47.136C57.096 47.136 57.8534 47.376 58.4294 47.856C59.0054 48.3253 59.3147 48.976 59.3574 49.808H58.2374C58.2054 49.296 58.0027 48.8853 57.6294 48.576C57.2667 48.256 56.7654 48.096 56.1254 48.096C55.56 48.096 55.1014 48.2293 54.7494 48.496C54.3974 48.7627 54.2214 49.0933 54.2214 49.488C54.2214 49.8293 54.3227 50.112 54.5254 50.336C54.7387 50.5493 55 50.72 55.3094 50.848C55.6187 50.9653 56.0347 51.0987 56.5574 51.248C57.1867 51.4187 57.688 51.584 58.0614 51.744C58.4347 51.904 58.7547 52.1387 59.0214 52.448C59.288 52.7573 59.4267 53.168 59.4374 53.68C59.4374 54.1493 59.3094 54.5707 59.0534 54.944C58.7974 55.3067 58.44 55.5947 57.9814 55.808C57.5227 56.0213 56.9947 56.128 56.3974 56.128ZM66.2656 56L62.6656 52.08V56H61.5456V44.16H62.6656V51.168L66.1856 47.264H67.7536L63.6096 51.616L67.7856 56H66.2656ZM81.9278 44.816V56H80.8078V50.768H74.7438V56H73.6238V44.816H74.7438V49.84H80.8078V44.816H81.9278ZM85.0431 45.616C84.8191 45.616 84.6271 45.536 84.4671 45.376C84.3071 45.216 84.2271 45.0187 84.2271 44.784C84.2271 44.5493 84.3071 44.3573 84.4671 44.208C84.6271 44.048 84.8191 43.968 85.0431 43.968C85.2671 43.968 85.4591 44.048 85.6191 44.208C85.7791 44.3573 85.8591 44.5493 85.8591 44.784C85.8591 45.0187 85.7791 45.216 85.6191 45.376C85.4591 45.536 85.2671 45.616 85.0431 45.616ZM85.6031 47.264V56H84.4831V47.264H85.6031ZM91.1474 56.128C90.1447 56.128 89.3234 55.8987 88.6834 55.44C88.054 54.9707 87.702 54.336 87.6274 53.536H88.7794C88.8327 54.0267 89.062 54.4267 89.4674 54.736C89.8834 55.0347 90.438 55.184 91.1314 55.184C91.7394 55.184 92.214 55.04 92.5554 54.752C92.9074 54.464 93.0834 54.1067 93.0834 53.68C93.0834 53.3813 92.9874 53.136 92.7954 52.944C92.6034 52.752 92.358 52.6027 92.0594 52.496C91.7714 52.3787 91.3767 52.256 90.8754 52.128C90.2247 51.9573 89.6967 51.7867 89.2914 51.616C88.886 51.4453 88.5394 51.1947 88.2514 50.864C87.974 50.5227 87.8354 50.0693 87.8354 49.504C87.8354 49.0773 87.9634 48.6827 88.2194 48.32C88.4754 47.9573 88.838 47.6693 89.3074 47.456C89.7767 47.2427 90.31 47.136 90.9074 47.136C91.846 47.136 92.6034 47.376 93.1794 47.856C93.7554 48.3253 94.0647 48.976 94.1074 49.808H92.9874C92.9554 49.296 92.7527 48.8853 92.3794 48.576C92.0167 48.256 91.5154 48.096 90.8754 48.096C90.31 48.096 89.8514 48.2293 89.4994 48.496C89.1474 48.7627 88.9714 49.0933 88.9714 49.488C88.9714 49.8293 89.0727 50.112 89.2754 50.336C89.4887 50.5493 89.75 50.72 90.0594 50.848C90.3687 50.9653 90.7847 51.0987 91.3074 51.248C91.9367 51.4187 92.438 51.584 92.8114 51.744C93.1847 51.904 93.5047 52.1387 93.7714 52.448C94.038 52.7573 94.1767 53.168 94.1874 53.68C94.1874 54.1493 94.0594 54.5707 93.8034 54.944C93.5474 55.3067 93.19 55.5947 92.7314 55.808C92.2727 56.0213 91.7447 56.128 91.1474 56.128ZM97.7516 48.208V53.632C97.7516 54.1653 97.853 54.5333 98.0556 54.736C98.2583 54.9387 98.6156 55.04 99.1276 55.04H100.152V56H98.9516C98.1623 56 97.5756 55.8187 97.1916 55.456C96.8076 55.0827 96.6156 54.4747 96.6156 53.632V48.208H95.3996V47.264H96.6156V45.072H97.7516V47.264H100.152V48.208H97.7516ZM105.823 56.128C105.001 56.128 104.26 55.9467 103.599 55.584C102.948 55.2107 102.431 54.688 102.047 54.016C101.673 53.3333 101.487 52.5387 101.487 51.632C101.487 50.7253 101.679 49.936 102.063 49.264C102.447 48.5813 102.969 48.0587 103.631 47.696C104.292 47.3227 105.033 47.136 105.855 47.136C106.676 47.136 107.417 47.3227 108.079 47.696C108.751 48.0587 109.273 48.5813 109.647 49.264C110.031 49.936 110.223 50.7253 110.223 51.632C110.223 52.528 110.031 53.3173 109.647 54C109.263 54.6827 108.735 55.2107 108.063 55.584C107.391 55.9467 106.644 56.128 105.823 56.128ZM105.823 55.152C106.399 55.152 106.932 55.024 107.423 54.768C107.913 54.5013 108.308 54.1067 108.607 53.584C108.916 53.0507 109.071 52.4 109.071 51.632C109.071 50.864 108.921 50.2187 108.623 49.696C108.324 49.1627 107.929 48.768 107.439 48.512C106.948 48.2453 106.415 48.112 105.839 48.112C105.263 48.112 104.729 48.2453 104.239 48.512C103.748 48.768 103.353 49.1627 103.055 49.696C102.767 50.2187 102.623 50.864 102.623 51.632C102.623 52.4 102.767 53.0507 103.055 53.584C103.353 54.1067 103.743 54.5013 104.223 54.768C104.713 55.024 105.247 55.152 105.823 55.152ZM113.384 48.816C113.63 48.272 114.003 47.8507 114.504 47.552C115.016 47.2533 115.64 47.104 116.376 47.104V48.272H116.072C115.262 48.272 114.611 48.4907 114.12 48.928C113.63 49.3653 113.384 50.096 113.384 51.12V56H112.264V47.264H113.384V48.816ZM125.261 47.264L120.077 60.112H118.909L120.605 55.952L117.021 47.264H118.253L121.229 54.72L124.109 47.264H125.261Z" fill="black"/>
<rect x="136" y="37" width="0.75" height="26" fill="black"/>
<rect x="31" y="76" width="467" height="1" fill="#FF5E1A"/>
<path d="M234.25 373.5L229.7 368.95L234.25 364.4" stroke="#CACACB" stroke-width="1.06167" stroke-linecap="round" stroke-linejoin="round"/>
<rect x="251" y="365.85" width="6.3" height="6.3" rx="3.15" fill="#6B6B6B"/>
<rect x="265.7" y="365.85" width="6.3" height="6.3" rx="3.15" fill="#AFADAD"/>
<path d="M285.7 373.5L290.25 368.95L285.7 364.4" stroke="black" stroke-width="1.06167" stroke-linecap="round" stroke-linejoin="round"/>
<g clip-path="url(#clip0_5616_1341)">
<rect x="33" y="121" width="422" height="55" rx="12" fill="#C9C9C9" fill-opacity="0.13"/>
<rect x="58" y="145" width="7" height="7" rx="3.5" fill="#FF7D1E"/>
<path d="M93.976 142.812V152.5H92.702V145.276L89.482 152.5H88.586L85.352 145.262V152.5H84.078V142.812H85.45L89.034 150.82L92.618 142.812H93.976ZM95.6606 148.636C95.6606 147.852 95.8193 147.166 96.1366 146.578C96.4539 145.981 96.8879 145.519 97.4386 145.192C97.9986 144.865 98.6193 144.702 99.3006 144.702C99.9726 144.702 100.556 144.847 101.051 145.136C101.545 145.425 101.914 145.789 102.157 146.228V144.828H103.445V152.5H102.157V151.072C101.905 151.52 101.527 151.893 101.023 152.192C100.528 152.481 99.9493 152.626 99.2866 152.626C98.6053 152.626 97.9893 152.458 97.4386 152.122C96.8879 151.786 96.4539 151.315 96.1366 150.708C95.8193 150.101 95.6606 149.411 95.6606 148.636ZM102.157 148.65C102.157 148.071 102.04 147.567 101.807 147.138C101.573 146.709 101.256 146.382 100.855 146.158C100.463 145.925 100.029 145.808 99.5526 145.808C99.0766 145.808 98.6426 145.92 98.2506 146.144C97.8586 146.368 97.5459 146.695 97.3126 147.124C97.0793 147.553 96.9626 148.057 96.9626 148.636C96.9626 149.224 97.0793 149.737 97.3126 150.176C97.5459 150.605 97.8586 150.937 98.2506 151.17C98.6426 151.394 99.0766 151.506 99.5526 151.506C100.029 151.506 100.463 151.394 100.855 151.17C101.256 150.937 101.573 150.605 101.807 150.176C102.04 149.737 102.157 149.229 102.157 148.65ZM112.206 144.828L107.586 156.112H106.27L107.782 152.416L104.688 144.828H106.102L108.51 151.044L110.89 144.828H112.206ZM116.855 151.478C118.04 150.526 118.969 149.747 119.641 149.14C120.313 148.524 120.877 147.885 121.335 147.222C121.801 146.55 122.035 145.892 122.035 145.248C122.035 144.641 121.885 144.165 121.587 143.82C121.297 143.465 120.826 143.288 120.173 143.288C119.538 143.288 119.043 143.489 118.689 143.89C118.343 144.282 118.157 144.809 118.129 145.472H116.897C116.934 144.427 117.251 143.619 117.849 143.05C118.446 142.481 119.216 142.196 120.159 142.196C121.12 142.196 121.881 142.462 122.441 142.994C123.01 143.526 123.295 144.259 123.295 145.192C123.295 145.967 123.061 146.723 122.595 147.46C122.137 148.188 121.615 148.832 121.027 149.392C120.439 149.943 119.687 150.587 118.773 151.324H123.589V152.388H116.855V151.478ZM124.753 150.246V149.28L129.667 142.476H131.193V149.14H132.593V150.246H131.193V152.5H129.933V150.246H124.753ZM129.989 143.806L126.223 149.14H129.989V143.806ZM135.392 150.736L133.824 154.502H132.97L133.992 150.736H135.392ZM140.22 151.478C141.405 150.526 142.334 149.747 143.006 149.14C143.678 148.524 144.243 147.885 144.7 147.222C145.167 146.55 145.4 145.892 145.4 145.248C145.4 144.641 145.251 144.165 144.952 143.82C144.663 143.465 144.191 143.288 143.538 143.288C142.903 143.288 142.409 143.489 142.054 143.89C141.709 144.282 141.522 144.809 141.494 145.472H140.262C140.299 144.427 140.617 143.619 141.214 143.05C141.811 142.481 142.581 142.196 143.524 142.196C144.485 142.196 145.246 142.462 145.806 142.994C146.375 143.526 146.66 144.259 146.66 145.192C146.66 145.967 146.427 146.723 145.96 147.46C145.503 148.188 144.98 148.832 144.392 149.392C143.804 149.943 143.053 150.587 142.138 151.324H146.954V152.388H140.22V151.478ZM148.427 147.334C148.427 145.729 148.688 144.478 149.211 143.582C149.733 142.677 150.648 142.224 151.955 142.224C153.252 142.224 154.162 142.677 154.685 143.582C155.207 144.478 155.469 145.729 155.469 147.334C155.469 148.967 155.207 150.237 154.685 151.142C154.162 152.047 153.252 152.5 151.955 152.5C150.648 152.5 149.733 152.047 149.211 151.142C148.688 150.237 148.427 148.967 148.427 147.334ZM154.209 147.334C154.209 146.522 154.153 145.836 154.041 145.276C153.938 144.707 153.719 144.249 153.383 143.904C153.056 143.559 152.58 143.386 151.955 143.386C151.32 143.386 150.835 143.559 150.499 143.904C150.172 144.249 149.953 144.707 149.841 145.276C149.738 145.836 149.687 146.522 149.687 147.334C149.687 148.174 149.738 148.879 149.841 149.448C149.953 150.017 150.172 150.475 150.499 150.82C150.835 151.165 151.32 151.338 151.955 151.338C152.58 151.338 153.056 151.165 153.383 150.82C153.719 150.475 153.938 150.017 154.041 149.448C154.153 148.879 154.209 148.174 154.209 147.334ZM157.064 151.478C158.249 150.526 159.178 149.747 159.85 149.14C160.522 148.524 161.086 147.885 161.544 147.222C162.01 146.55 162.244 145.892 162.244 145.248C162.244 144.641 162.094 144.165 161.796 143.82C161.506 143.465 161.035 143.288 160.382 143.288C159.747 143.288 159.252 143.489 158.898 143.89C158.552 144.282 158.366 144.809 158.338 145.472H157.106C157.143 144.427 157.46 143.619 158.058 143.05C158.655 142.481 159.425 142.196 160.368 142.196C161.329 142.196 162.09 142.462 162.65 142.994C163.219 143.526 163.504 144.259 163.504 145.192C163.504 145.967 163.27 146.723 162.804 147.46C162.346 148.188 161.824 148.832 161.236 149.392C160.648 149.943 159.896 150.587 158.982 151.324H163.798V152.388H157.064V151.478ZM170.912 144.786C170.707 143.75 170.068 143.232 168.994 143.232C168.164 143.232 167.543 143.554 167.132 144.198C166.722 144.833 166.521 145.883 166.53 147.348C166.745 146.863 167.1 146.485 167.594 146.214C168.098 145.934 168.658 145.794 169.274 145.794C170.236 145.794 171.001 146.093 171.57 146.69C172.149 147.287 172.438 148.113 172.438 149.168C172.438 149.803 172.312 150.372 172.06 150.876C171.818 151.38 171.444 151.781 170.94 152.08C170.446 152.379 169.844 152.528 169.134 152.528C168.173 152.528 167.422 152.313 166.88 151.884C166.339 151.455 165.961 150.862 165.746 150.106C165.532 149.35 165.424 148.417 165.424 147.306C165.424 143.881 166.619 142.168 169.008 142.168C169.923 142.168 170.642 142.415 171.164 142.91C171.687 143.405 171.995 144.03 172.088 144.786H170.912ZM169.008 146.872C168.607 146.872 168.229 146.956 167.874 147.124C167.52 147.283 167.23 147.53 167.006 147.866C166.792 148.193 166.684 148.594 166.684 149.07C166.684 149.779 166.89 150.358 167.3 150.806C167.711 151.245 168.299 151.464 169.064 151.464C169.718 151.464 170.236 151.263 170.618 150.862C171.01 150.451 171.206 149.901 171.206 149.21C171.206 148.482 171.02 147.913 170.646 147.502C170.273 147.082 169.727 146.872 169.008 146.872ZM177.553 143.54V142.378H180.185V152.5H178.897V143.54H177.553ZM182.066 150.246V149.28L186.98 142.476H188.506V149.14H189.906V150.246H188.506V152.5H187.246V150.246H182.066ZM187.302 143.806L183.536 149.14H187.302V143.806ZM191.795 152.584C191.552 152.584 191.347 152.5 191.179 152.332C191.011 152.164 190.927 151.959 190.927 151.716C190.927 151.473 191.011 151.268 191.179 151.1C191.347 150.932 191.552 150.848 191.795 150.848C192.028 150.848 192.224 150.932 192.383 151.1C192.551 151.268 192.635 151.473 192.635 151.716C192.635 151.959 192.551 152.164 192.383 152.332C192.224 152.5 192.028 152.584 191.795 152.584ZM191.795 146.592C191.552 146.592 191.347 146.508 191.179 146.34C191.011 146.172 190.927 145.967 190.927 145.724C190.927 145.481 191.011 145.276 191.179 145.108C191.347 144.94 191.552 144.856 191.795 144.856C192.028 144.856 192.224 144.94 192.383 145.108C192.551 145.276 192.635 145.481 192.635 145.724C192.635 145.967 192.551 146.172 192.383 146.34C192.224 146.508 192.028 146.592 191.795 146.592ZM194.131 144.926C194.196 144.067 194.528 143.395 195.125 142.91C195.722 142.425 196.497 142.182 197.449 142.182C198.084 142.182 198.63 142.299 199.087 142.532C199.554 142.756 199.904 143.064 200.137 143.456C200.38 143.848 200.501 144.291 200.501 144.786C200.501 145.365 200.333 145.864 199.997 146.284C199.67 146.704 199.241 146.975 198.709 147.096V147.166C199.316 147.315 199.796 147.609 200.151 148.048C200.506 148.487 200.683 149.061 200.683 149.77C200.683 150.302 200.562 150.783 200.319 151.212C200.076 151.632 199.712 151.963 199.227 152.206C198.742 152.449 198.158 152.57 197.477 152.57C196.488 152.57 195.676 152.313 195.041 151.8C194.406 151.277 194.052 150.54 193.977 149.588H195.209C195.274 150.148 195.503 150.605 195.895 150.96C196.287 151.315 196.81 151.492 197.463 151.492C198.116 151.492 198.611 151.324 198.947 150.988C199.292 150.643 199.465 150.199 199.465 149.658C199.465 148.958 199.232 148.454 198.765 148.146C198.298 147.838 197.594 147.684 196.651 147.684H196.329V146.62H196.665C197.524 146.611 198.172 146.471 198.611 146.2C199.05 145.92 199.269 145.491 199.269 144.912C199.269 144.417 199.106 144.021 198.779 143.722C198.462 143.423 198.004 143.274 197.407 143.274C196.828 143.274 196.362 143.423 196.007 143.722C195.652 144.021 195.442 144.422 195.377 144.926H194.131ZM202.403 147.334C202.403 145.729 202.664 144.478 203.187 143.582C203.71 142.677 204.624 142.224 205.931 142.224C207.228 142.224 208.138 142.677 208.661 143.582C209.184 144.478 209.445 145.729 209.445 147.334C209.445 148.967 209.184 150.237 208.661 151.142C208.138 152.047 207.228 152.5 205.931 152.5C204.624 152.5 203.71 152.047 203.187 151.142C202.664 150.237 202.403 148.967 202.403 147.334ZM208.185 147.334C208.185 146.522 208.129 145.836 208.017 145.276C207.914 144.707 207.695 144.249 207.359 143.904C207.032 143.559 206.556 143.386 205.931 143.386C205.296 143.386 204.811 143.559 204.475 143.904C204.148 144.249 203.929 144.707 203.817 145.276C203.714 145.836 203.663 146.522 203.663 147.334C203.663 148.174 203.714 148.879 203.817 149.448C203.929 150.017 204.148 150.475 204.475 150.82C204.811 151.165 205.296 151.338 205.931 151.338C206.556 151.338 207.032 151.165 207.359 150.82C207.695 150.475 207.914 150.017 208.017 149.448C208.129 148.879 208.185 148.174 208.185 147.334Z" fill="#494846"/>
<path d="M430 153.1L434.55 148.55L430 144" stroke="#FF7D1E" stroke-width="1.06167" stroke-linecap="round" stroke-linejoin="round"/>
<path d="M430 153.1L434.55 148.55L430 144" stroke="#FF7D1E" stroke-width="1.2" stroke-linecap="round" stroke-linejoin="round"/>
<rect x="33" y="186" width="422" height="55" rx="12" fill="#C9C9C9" fill-opacity="0.13"/>
<rect x="58" y="210" width="7" height="7" rx="3.5" fill="#FF7D1E"/>
<path d="M93.976 207.812V217.5H92.702V210.276L89.482 217.5H88.586L85.352 210.262V217.5H84.078V207.812H85.45L89.034 215.82L92.618 207.812H93.976ZM95.6606 213.636C95.6606 212.852 95.8193 212.166 96.1366 211.578C96.4539 210.981 96.8879 210.519 97.4386 210.192C97.9986 209.865 98.6193 209.702 99.3006 209.702C99.9726 209.702 100.556 209.847 101.051 210.136C101.545 210.425 101.914 210.789 102.157 211.228V209.828H103.445V217.5H102.157V216.072C101.905 216.52 101.527 216.893 101.023 217.192C100.528 217.481 99.9493 217.626 99.2866 217.626C98.6053 217.626 97.9893 217.458 97.4386 217.122C96.8879 216.786 96.4539 216.315 96.1366 215.708C95.8193 215.101 95.6606 214.411 95.6606 213.636ZM102.157 213.65C102.157 213.071 102.04 212.567 101.807 212.138C101.573 211.709 101.256 211.382 100.855 211.158C100.463 210.925 100.029 210.808 99.5526 210.808C99.0766 210.808 98.6426 210.92 98.2506 211.144C97.8586 211.368 97.5459 211.695 97.3126 212.124C97.0793 212.553 96.9626 213.057 96.9626 213.636C96.9626 214.224 97.0793 214.737 97.3126 215.176C97.5459 215.605 97.8586 215.937 98.2506 216.17C98.6426 216.394 99.0766 216.506 99.5526 216.506C100.029 216.506 100.463 216.394 100.855 216.17C101.256 215.937 101.573 215.605 101.807 215.176C102.04 214.737 102.157 214.229 102.157 213.65ZM112.206 209.828L107.586 221.112H106.27L107.782 217.416L104.688 209.828H106.102L108.51 216.044L110.89 209.828H112.206ZM116.855 216.478C118.04 215.526 118.969 214.747 119.641 214.14C120.313 213.524 120.877 212.885 121.335 212.222C121.801 211.55 122.035 210.892 122.035 210.248C122.035 209.641 121.885 209.165 121.587 208.82C121.297 208.465 120.826 208.288 120.173 208.288C119.538 208.288 119.043 208.489 118.689 208.89C118.343 209.282 118.157 209.809 118.129 210.472H116.897C116.934 209.427 117.251 208.619 117.849 208.05C118.446 207.481 119.216 207.196 120.159 207.196C121.12 207.196 121.881 207.462 122.441 207.994C123.01 208.526 123.295 209.259 123.295 210.192C123.295 210.967 123.061 211.723 122.595 212.46C122.137 213.188 121.615 213.832 121.027 214.392C120.439 214.943 119.687 215.587 118.773 216.324H123.589V217.388H116.855V216.478ZM124.753 215.246V214.28L129.667 207.476H131.193V214.14H132.593V215.246H131.193V217.5H129.933V215.246H124.753ZM129.989 208.806L126.223 214.14H129.989V208.806ZM135.392 215.736L133.824 219.502H132.97L133.992 215.736H135.392ZM140.22 216.478C141.405 215.526 142.334 214.747 143.006 214.14C143.678 213.524 144.243 212.885 144.7 212.222C145.167 211.55 145.4 210.892 145.4 210.248C145.4 209.641 145.251 209.165 144.952 208.82C144.663 208.465 144.191 208.288 143.538 208.288C142.903 208.288 142.409 208.489 142.054 208.89C141.709 209.282 141.522 209.809 141.494 210.472H140.262C140.299 209.427 140.617 208.619 141.214 208.05C141.811 207.481 142.581 207.196 143.524 207.196C144.485 207.196 145.246 207.462 145.806 207.994C146.375 208.526 146.66 209.259 146.66 210.192C146.66 210.967 146.427 211.723 145.96 212.46C145.503 213.188 144.98 213.832 144.392 214.392C143.804 214.943 143.053 215.587 142.138 216.324H146.954V217.388H140.22V216.478ZM148.427 212.334C148.427 210.729 148.688 209.478 149.211 208.582C149.733 207.677 150.648 207.224 151.955 207.224C153.252 207.224 154.162 207.677 154.685 208.582C155.207 209.478 155.469 210.729 155.469 212.334C155.469 213.967 155.207 215.237 154.685 216.142C154.162 217.047 153.252 217.5 151.955 217.5C150.648 217.5 149.733 217.047 149.211 216.142C148.688 215.237 148.427 213.967 148.427 212.334ZM154.209 212.334C154.209 211.522 154.153 210.836 154.041 210.276C153.938 209.707 153.719 209.249 153.383 208.904C153.056 208.559 152.58 208.386 151.955 208.386C151.32 208.386 150.835 208.559 150.499 208.904C150.172 209.249 149.953 209.707 149.841 210.276C149.738 210.836 149.687 211.522 149.687 212.334C149.687 213.174 149.738 213.879 149.841 214.448C149.953 215.017 150.172 215.475 150.499 215.82C150.835 216.165 151.32 216.338 151.955 216.338C152.58 216.338 153.056 216.165 153.383 215.82C153.719 215.475 153.938 215.017 154.041 214.448C154.153 213.879 154.209 213.174 154.209 212.334ZM157.064 216.478C158.249 215.526 159.178 214.747 159.85 214.14C160.522 213.524 161.086 212.885 161.544 212.222C162.01 211.55 162.244 210.892 162.244 210.248C162.244 209.641 162.094 209.165 161.796 208.82C161.506 208.465 161.035 208.288 160.382 208.288C159.747 208.288 159.252 208.489 158.898 208.89C158.552 209.282 158.366 209.809 158.338 210.472H157.106C157.143 209.427 157.46 208.619 158.058 208.05C158.655 207.481 159.425 207.196 160.368 207.196C161.329 207.196 162.09 207.462 162.65 207.994C163.219 208.526 163.504 209.259 163.504 210.192C163.504 210.967 163.27 211.723 162.804 212.46C162.346 213.188 161.824 213.832 161.236 214.392C160.648 214.943 159.896 215.587 158.982 216.324H163.798V217.388H157.064V216.478ZM170.912 209.786C170.707 208.75 170.068 208.232 168.994 208.232C168.164 208.232 167.543 208.554 167.132 209.198C166.722 209.833 166.521 210.883 166.53 212.348C166.745 211.863 167.1 211.485 167.594 211.214C168.098 210.934 168.658 210.794 169.274 210.794C170.236 210.794 171.001 211.093 171.57 211.69C172.149 212.287 172.438 213.113 172.438 214.168C172.438 214.803 172.312 215.372 172.06 215.876C171.818 216.38 171.444 216.781 170.94 217.08C170.446 217.379 169.844 217.528 169.134 217.528C168.173 217.528 167.422 217.313 166.88 216.884C166.339 216.455 165.961 215.862 165.746 215.106C165.532 214.35 165.424 213.417 165.424 212.306C165.424 208.881 166.619 207.168 169.008 207.168C169.923 207.168 170.642 207.415 171.164 207.91C171.687 208.405 171.995 209.03 172.088 209.786H170.912ZM169.008 211.872C168.607 211.872 168.229 211.956 167.874 212.124C167.52 212.283 167.23 212.53 167.006 212.866C166.792 213.193 166.684 213.594 166.684 214.07C166.684 214.779 166.89 215.358 167.3 215.806C167.711 216.245 168.299 216.464 169.064 216.464C169.718 216.464 170.236 216.263 170.618 215.862C171.01 215.451 171.206 214.901 171.206 214.21C171.206 213.482 171.02 212.913 170.646 212.502C170.273 212.082 169.727 211.872 169.008 211.872ZM177.553 208.54V207.378H180.185V217.5H178.897V208.54H177.553ZM182.374 212.334C182.374 210.729 182.635 209.478 183.158 208.582C183.681 207.677 184.595 207.224 185.902 207.224C187.199 207.224 188.109 207.677 188.632 208.582C189.155 209.478 189.416 210.729 189.416 212.334C189.416 213.967 189.155 215.237 188.632 216.142C188.109 217.047 187.199 217.5 185.902 217.5C184.595 217.5 183.681 217.047 183.158 216.142C182.635 215.237 182.374 213.967 182.374 212.334ZM188.156 212.334C188.156 211.522 188.1 210.836 187.988 210.276C187.885 209.707 187.666 209.249 187.33 208.904C187.003 208.559 186.527 208.386 185.902 208.386C185.267 208.386 184.782 208.559 184.446 208.904C184.119 209.249 183.9 209.707 183.788 210.276C183.685 210.836 183.634 211.522 183.634 212.334C183.634 213.174 183.685 213.879 183.788 214.448C183.9 215.017 184.119 215.475 184.446 215.82C184.782 216.165 185.267 216.338 185.902 216.338C186.527 216.338 187.003 216.165 187.33 215.82C187.666 215.475 187.885 215.017 187.988 214.448C188.1 213.879 188.156 213.174 188.156 212.334ZM191.781 217.584C191.538 217.584 191.333 217.5 191.165 217.332C190.997 217.164 190.913 216.959 190.913 216.716C190.913 216.473 190.997 216.268 191.165 216.1C191.333 215.932 191.538 215.848 191.781 215.848C192.014 215.848 192.21 215.932 192.369 216.1C192.537 216.268 192.621 216.473 192.621 216.716C192.621 216.959 192.537 217.164 192.369 217.332C192.21 217.5 192.014 217.584 191.781 217.584ZM191.781 211.592C191.538 211.592 191.333 211.508 191.165 211.34C190.997 211.172 190.913 210.967 190.913 210.724C190.913 210.481 190.997 210.276 191.165 210.108C191.333 209.94 191.538 209.856 191.781 209.856C192.014 209.856 192.21 209.94 192.369 210.108C192.537 210.276 192.621 210.481 192.621 210.724C192.621 210.967 192.537 211.172 192.369 211.34C192.21 211.508 192.014 211.592 191.781 211.592ZM194.145 212.334C194.145 210.729 194.407 209.478 194.929 208.582C195.452 207.677 196.367 207.224 197.673 207.224C198.971 207.224 199.881 207.677 200.403 208.582C200.926 209.478 201.187 210.729 201.187 212.334C201.187 213.967 200.926 215.237 200.403 216.142C199.881 217.047 198.971 217.5 197.673 217.5C196.367 217.5 195.452 217.047 194.929 216.142C194.407 215.237 194.145 213.967 194.145 212.334ZM199.927 212.334C199.927 211.522 199.871 210.836 199.759 210.276C199.657 209.707 199.437 209.249 199.101 208.904C198.775 208.559 198.299 208.386 197.673 208.386C197.039 208.386 196.553 208.559 196.217 208.904C195.891 209.249 195.671 209.707 195.559 210.276C195.457 210.836 195.405 211.522 195.405 212.334C195.405 213.174 195.457 213.879 195.559 214.448C195.671 215.017 195.891 215.475 196.217 215.82C196.553 216.165 197.039 216.338 197.673 216.338C198.299 216.338 198.775 216.165 199.101 215.82C199.437 215.475 199.657 215.017 199.759 214.448C199.871 213.879 199.927 213.174 199.927 212.334ZM202.936 212.334C202.936 210.729 203.198 209.478 203.72 208.582C204.243 207.677 205.158 207.224 206.464 207.224C207.762 207.224 208.672 207.677 209.194 208.582C209.717 209.478 209.978 210.729 209.978 212.334C209.978 213.967 209.717 215.237 209.194 216.142C208.672 217.047 207.762 217.5 206.464 217.5C205.158 217.5 204.243 217.047 203.72 216.142C203.198 215.237 202.936 213.967 202.936 212.334ZM208.718 212.334C208.718 211.522 208.662 210.836 208.55 210.276C208.448 209.707 208.228 209.249 207.892 208.904C207.566 208.559 207.09 208.386 206.464 208.386C205.83 208.386 205.344 208.559 205.008 208.904C204.682 209.249 204.462 209.707 204.35 210.276C204.248 210.836 204.196 211.522 204.196 212.334C204.196 213.174 204.248 213.879 204.35 214.448C204.462 215.017 204.682 215.475 205.008 215.82C205.344 216.165 205.83 216.338 206.464 216.338C207.09 216.338 207.566 216.165 207.892 215.82C208.228 215.475 208.448 215.017 208.55 214.448C208.662 213.879 208.718 213.174 208.718 212.334Z" fill="#494846"/>
<path d="M430 218.1L434.55 213.55L430 209" stroke="#FF7D1E" stroke-width="1.2" stroke-linecap="round" stroke-linejoin="round"/>
<rect x="33" y="251" width="422" height="55" rx="12" fill="#C9C9C9" fill-opacity="0.13"/>
<path d="M68.688 279.488H63.84V284.456H61.296V279.488H56.448V277.184H61.296V272.216H63.84V277.184H68.688V279.488Z" fill="#FF7D1E"/>
<path d="M89.916 281.012H85.842L85.142 283H83.476L86.962 273.256H88.81L92.296 283H90.616L89.916 281.012ZM89.468 279.71L87.886 275.188L86.29 279.71H89.468ZM93.276 279.108C93.276 278.333 93.437 277.647 93.759 277.05C94.081 276.453 94.5197 275.988 95.075 275.657C95.6303 275.326 96.2487 275.16 96.93 275.16C97.434 275.16 97.931 275.27 98.421 275.489C98.911 275.708 99.3007 276 99.59 276.364V272.64H101.2V283H99.59V281.838C99.3287 282.211 98.967 282.519 98.505 282.762C98.043 283.005 97.5133 283.126 96.916 283.126C96.244 283.126 95.6303 282.956 95.075 282.615C94.5197 282.274 94.081 281.798 93.759 281.187C93.437 280.576 93.276 279.883 93.276 279.108ZM99.59 279.136C99.59 278.604 99.4803 278.142 99.261 277.75C99.0417 277.358 98.7547 277.059 98.4 276.854C98.0453 276.649 97.6627 276.546 97.252 276.546C96.8413 276.546 96.4587 276.646 96.104 276.847C95.7493 277.048 95.4623 277.342 95.243 277.729C95.0237 278.116 94.914 278.576 94.914 279.108C94.914 279.64 95.0237 280.107 95.243 280.508C95.4623 280.909 95.7517 281.215 96.111 281.425C96.4703 281.635 96.8507 281.74 97.252 281.74C97.6627 281.74 98.0453 281.637 98.4 281.432C98.7547 281.227 99.0417 280.926 99.261 280.529C99.4803 280.132 99.59 279.668 99.59 279.136ZM102.768 279.108C102.768 278.333 102.929 277.647 103.251 277.05C103.573 276.453 104.012 275.988 104.567 275.657C105.122 275.326 105.741 275.16 106.422 275.16C106.926 275.16 107.423 275.27 107.913 275.489C108.403 275.708 108.793 276 109.082 276.364V272.64H110.692V283H109.082V281.838C108.821 282.211 108.459 282.519 107.997 282.762C107.535 283.005 107.005 283.126 106.408 283.126C105.736 283.126 105.122 282.956 104.567 282.615C104.012 282.274 103.573 281.798 103.251 281.187C102.929 280.576 102.768 279.883 102.768 279.108ZM109.082 279.136C109.082 278.604 108.972 278.142 108.753 277.75C108.534 277.358 108.247 277.059 107.892 276.854C107.537 276.649 107.155 276.546 106.744 276.546C106.333 276.546 105.951 276.646 105.596 276.847C105.241 277.048 104.954 277.342 104.735 277.729C104.516 278.116 104.406 278.576 104.406 279.108C104.406 279.64 104.516 280.107 104.735 280.508C104.954 280.909 105.244 281.215 105.603 281.425C105.962 281.635 106.343 281.74 106.744 281.74C107.155 281.74 107.537 281.637 107.892 281.432C108.247 281.227 108.534 280.926 108.753 280.529C108.972 280.132 109.082 279.668 109.082 279.136ZM123.418 275.286V283H121.822V282.09C121.57 282.407 121.241 282.657 120.835 282.839C120.429 283.021 119.997 283.112 119.54 283.112C118.933 283.112 118.39 282.986 117.909 282.734C117.428 282.482 117.05 282.109 116.775 281.614C116.5 281.119 116.362 280.522 116.362 279.822V275.286H117.944V279.584C117.944 280.275 118.117 280.804 118.462 281.173C118.807 281.542 119.279 281.726 119.876 281.726C120.473 281.726 120.947 281.542 121.297 281.173C121.647 280.804 121.822 280.275 121.822 279.584V275.286H123.418ZM127.114 276.42C127.385 276.065 127.753 275.767 128.22 275.524C128.687 275.281 129.214 275.16 129.802 275.16C130.474 275.16 131.088 275.326 131.643 275.657C132.198 275.988 132.635 276.453 132.952 277.05C133.269 277.647 133.428 278.333 133.428 279.108C133.428 279.883 133.269 280.576 132.952 281.187C132.635 281.798 132.198 282.274 131.643 282.615C131.088 282.956 130.474 283.126 129.802 283.126C129.214 283.126 128.691 283.007 128.234 282.769C127.777 282.531 127.403 282.235 127.114 281.88V286.668H125.518V275.286H127.114V276.42ZM131.804 279.108C131.804 278.576 131.694 278.116 131.475 277.729C131.256 277.342 130.966 277.048 130.607 276.847C130.248 276.646 129.863 276.546 129.452 276.546C129.051 276.546 128.67 276.649 128.311 276.854C127.952 277.059 127.662 277.358 127.443 277.75C127.224 278.142 127.114 278.604 127.114 279.136C127.114 279.668 127.224 280.132 127.443 280.529C127.662 280.926 127.952 281.227 128.311 281.432C128.67 281.637 129.051 281.74 129.452 281.74C129.863 281.74 130.248 281.635 130.607 281.425C130.966 281.215 131.256 280.909 131.475 280.508C131.694 280.107 131.804 279.64 131.804 279.108ZM134.478 279.108C134.478 278.333 134.639 277.647 134.961 277.05C135.283 276.453 135.722 275.988 136.277 275.657C136.832 275.326 137.451 275.16 138.132 275.16C138.636 275.16 139.133 275.27 139.623 275.489C140.113 275.708 140.503 276 140.792 276.364V272.64H142.402V283H140.792V281.838C140.531 282.211 140.169 282.519 139.707 282.762C139.245 283.005 138.715 283.126 138.118 283.126C137.446 283.126 136.832 282.956 136.277 282.615C135.722 282.274 135.283 281.798 134.961 281.187C134.639 280.576 134.478 279.883 134.478 279.108ZM140.792 279.136C140.792 278.604 140.682 278.142 140.463 277.75C140.244 277.358 139.957 277.059 139.602 276.854C139.247 276.649 138.865 276.546 138.454 276.546C138.043 276.546 137.661 276.646 137.306 276.847C136.951 277.048 136.664 277.342 136.445 277.729C136.226 278.116 136.116 278.576 136.116 279.108C136.116 279.64 136.226 280.107 136.445 280.508C136.664 280.909 136.954 281.215 137.313 281.425C137.672 281.635 138.053 281.74 138.454 281.74C138.865 281.74 139.247 281.637 139.602 281.432C139.957 281.227 140.244 280.926 140.463 280.529C140.682 280.132 140.792 279.668 140.792 279.136ZM143.97 279.108C143.97 278.333 144.131 277.647 144.453 277.05C144.775 276.453 145.214 275.988 145.769 275.657C146.324 275.326 146.938 275.16 147.61 275.16C148.217 275.16 148.746 275.279 149.199 275.517C149.652 275.755 150.013 276.051 150.284 276.406V275.286H151.894V283H150.284V281.852C150.013 282.216 149.645 282.519 149.178 282.762C148.711 283.005 148.179 283.126 147.582 283.126C146.919 283.126 146.313 282.956 145.762 282.615C145.211 282.274 144.775 281.798 144.453 281.187C144.131 280.576 143.97 279.883 143.97 279.108ZM150.284 279.136C150.284 278.604 150.174 278.142 149.955 277.75C149.736 277.358 149.449 277.059 149.094 276.854C148.739 276.649 148.357 276.546 147.946 276.546C147.535 276.546 147.153 276.646 146.798 276.847C146.443 277.048 146.156 277.342 145.937 277.729C145.718 278.116 145.608 278.576 145.608 279.108C145.608 279.64 145.718 280.107 145.937 280.508C146.156 280.909 146.446 281.215 146.805 281.425C147.164 281.635 147.545 281.74 147.946 281.74C148.357 281.74 148.739 281.637 149.094 281.432C149.449 281.227 149.736 280.926 149.955 280.529C150.174 280.132 150.284 279.668 150.284 279.136ZM155.856 276.588V280.858C155.856 281.147 155.924 281.355 156.059 281.481C156.194 281.607 156.425 281.67 156.752 281.67H157.732V283H156.472C155.753 283 155.203 282.832 154.82 282.496C154.437 282.16 154.246 281.614 154.246 280.858V276.588H153.336V275.286H154.246V273.368H155.856V275.286H157.732V276.588H155.856ZM166.272 278.954C166.272 279.243 166.253 279.505 166.216 279.738H160.322C160.369 280.354 160.597 280.849 161.008 281.222C161.419 281.595 161.923 281.782 162.52 281.782C163.379 281.782 163.985 281.423 164.34 280.704H166.062C165.829 281.413 165.406 281.994 164.795 282.447C164.184 282.9 163.425 283.126 162.52 283.126C161.783 283.126 161.122 282.96 160.539 282.629C159.956 282.298 159.498 281.831 159.167 281.229C158.836 280.627 158.67 279.929 158.67 279.136C158.67 278.343 158.831 277.645 159.153 277.043C159.475 276.441 159.928 275.977 160.511 275.65C161.094 275.323 161.764 275.16 162.52 275.16C163.248 275.16 163.897 275.319 164.466 275.636C165.035 275.953 165.479 276.399 165.796 276.973C166.113 277.547 166.272 278.207 166.272 278.954ZM164.606 278.45C164.597 277.862 164.387 277.391 163.976 277.036C163.565 276.681 163.057 276.504 162.45 276.504C161.899 276.504 161.428 276.679 161.036 277.029C160.644 277.379 160.411 277.853 160.336 278.45H164.606Z" fill="#8C5000"/>
<path d="M430 283.1L434.55 278.55L430 274" stroke="#FF7D1E" stroke-width="1.2" stroke-linecap="round" stroke-linejoin="round"/>
</g>
<defs>
<clipPath id="clip0_5616_1341">
<rect width="422" height="185" fill="white" transform="translate(33 121)"/>
</clipPath>
</defs>
</svg>
