<svg fill="none" height="410" viewBox="0 0 540 410" width="540" xmlns="http://www.w3.org/2000/svg" xmlns:xlink="http://www.w3.org/1999/xlink"><clipPath id="a"><path d="m0 0h540v410h-540z"/></clipPath><g clip-path="url(#a)"><path d="m0 0h540v410h-540z" fill="#fcf7f4"/><path d="m0 0h165v416h-165z" fill="#f3f3f4"/><path d="m0 59.59h128c1.657 0 3 1.3431 3 3v.09c0 1.6568-1.343 3-3 3h-128z" fill="#d9d9d9"/><path d="m0 137.745h128c1.657 0 3 1.343 3 3v.09c0 1.657-1.343 3-3 3h-128z" fill="#d9d9d9"/><path d="m74 219.915c0-1.657 1.3431-3 3-3h51c1.657 0 3 1.343 3 3v.09c0 1.657-1.343 3-3 3h-51c-1.6569 0-3-1.343-3-3z" fill="#bfc3c4"/><g fill="#e4e5e6"><path d="m198 247.035c0-1.657 1.343-3 3-3h49c1.657 0 3 1.343 3 3v.09c0 1.657-1.343 3-3 3h-49c-1.657 0-3-1.343-3-3z"/><path d="m198 322.145c0-1.657 1.343-3 3-3h84c1.657 0 3 1.343 3 3v.09c0 1.657-1.343 3-3 3h-84c-1.657 0-3-1.343-3-3z"/><path d="m357 247.035c0-1.657 1.343-3 3-3h44c1.657 0 3 1.343 3 3v.09c0 1.657-1.343 3-3 3h-44c-1.657 0-3-1.343-3-3z"/><path d="m198 171.925c0-1.657 1.343-3 3-3h65c1.657 0 3 1.343 3 3v.09c0 1.657-1.343 3-3 3h-65c-1.657 0-3-1.343-3-3z"/><path d="m198 141.52h304v3.045h-304z"/><path d="m198 28.08c0-1.6569 1.343-3 3-3h65c1.657 0 3 1.3431 3 3v.09c0 1.6568-1.343 3-3 3h-65c-1.657 0-3-1.3432-3-3z"/></g><path d="m279 28.08c0-1.6569 1.343-3 3-3h46c1.657 0 3 1.3431 3 3v.09c0 1.6568-1.343 3-3 3h-46c-1.657 0-3-1.3432-3-3z" fill="#bfc3c4"/><rect height="32.495" rx="4.5" stroke="#e2e4e5" width="301" x="198.5" y="333.855"/><rect height="34.525" rx="4.5" stroke="#e2e4e5" width="144" x="198.5" y="258.745"/><rect height="34.525" rx="4.5" stroke="#e2e4e5" width="144" x="357.5" y="257.5"/><rect height="34.525" rx="4.5" stroke="#e2e4e5" width="301" x="198.5" y="182.5"/><rect fill="#f48228" height="38" rx="5" width="305" x="198" y="74"/><path clip-rule="evenodd" d="m337.592 87.997c-.487.5914-1.266 1.0578-2.045.9911-.098-.7996.283-1.649.73-2.1737.487-.608 1.339-1.0411 2.029-1.0744.081.8329-.235 1.6491-.714 2.257zm.706 1.1494c-.687-.0405-1.313.2118-1.819.4157-.325.1312-.601.2423-.811.2423-.235 0-.522-.1171-.844-.2485-.423-.1721-.906-.3689-1.412-.3596-1.16.0168-2.24.6914-2.832 1.7657-1.218 2.1489-.317 5.3303.86 7.0794.576.8661 1.266 1.8156 2.175 1.7822.4-.0154.687-.1407.985-.2703.343-.1493.699-.3043 1.255-.3043.537 0 .877.151 1.204.2959.311.1379.609.2702 1.052.2621.942-.0166 1.534-.8661 2.11-1.7324.622-.9296.895-1.8369.937-1.9745l.005-.016s-.009-.0046-.023-.011c-.208-.0977-1.796-.8441-1.812-2.8457-.015-1.68 1.261-2.5312 1.461-2.6653.013-.0082.021-.0137.025-.0165-.812-1.2326-2.078-1.3659-2.516-1.3992zm6.517 10.569v-12.9843h4.747c2.451 0 4.164 1.7323 4.164 4.2643 0 2.5318-1.745 4.2808-4.228 4.2808h-2.719v4.4392zm1.964-11.2853h2.264c1.704 0 2.678.9328 2.678 2.5736s-.974 2.5819-2.686 2.5819h-2.256zm13.431 9.7278c-.519 1.0161-1.663 1.6574-2.897 1.6574-1.826 0-3.1-1.116-3.1-2.7984 0-1.6657 1.233-2.6234 3.514-2.7651l2.451-.1499v-.7162c0-1.0578-.674-1.6325-1.875-1.6325-.99 0-1.712.5248-1.858 1.3243h-1.77c.057-1.6824 1.599-2.9067 3.685-2.9067 2.248 0 3.709 1.2077 3.709 3.0816v6.463h-1.818v-1.5575zm-2.369.1167c-1.047 0-1.713-.5164-1.713-1.3077 0-.8161.641-1.2909 1.867-1.3658l2.183-.1416v.7329c0 1.216-1.007 2.0822-2.337 2.0822zm10.258 1.9494c-.787 2.273-1.688 3.023-3.604 3.023-.146 0-.633-.017-.746-.05v-1.558c.122.017.422.034.576.034.868 0 1.355-.375 1.656-1.35l.178-.5743-3.327-9.453h2.053l2.313 7.6707h.041l2.313-7.6707h1.996z" fill="#fff" fill-rule="evenodd"/><path d="m224.719 271.475v11.815h-1.938v-8.092l-3.604 8.092h-1.343l-3.621-8.092v8.092h-1.938v-11.815h2.091l4.148 9.265 4.131-9.265zm14.991 0v11.815h-1.938v-8.092l-3.604 8.092h-1.343l-3.621-8.092v8.092h-1.938v-11.815h2.091l4.148 9.265 4.131-9.265zm13.253-4.233-4.624 19.023h-1.904l4.607-19.023zm15.614 4.233-3.91 7.531v4.284h-1.938v-4.284l-3.927-7.531h2.159l2.737 5.797 2.737-5.797zm10.293 0-3.91 7.531v4.284h-1.938v-4.284l-3.927-7.531h2.159l2.737 5.797 2.737-5.797zm10.293 0-3.91 7.531v4.284h-1.938v-4.284l-3.927-7.531h2.159l2.737 5.797 2.737-5.797zm10.293 0-3.91 7.531v4.284h-1.938v-4.284l-3.927-7.531h2.159l2.737 5.797 2.737-5.797z" fill="#b6b8b9"/><path d="m370.629 276.342c0-1.156.266-2.193.799-3.111.544-.918 1.275-1.632 2.193-2.142.929-.521 1.944-.782 3.043-.782 1.258 0 2.374.312 3.349.935.986.612 1.7 1.485 2.142 2.618h-2.329c-.306-.623-.731-1.088-1.275-1.394s-1.173-.459-1.887-.459c-.782 0-1.479.176-2.091.527s-1.094.856-1.445 1.513c-.34.657-.51 1.422-.51 2.295s.17 1.638.51 2.295c.351.657.833 1.167 1.445 1.53.612.351 1.309.527 2.091.527.714 0 1.343-.153 1.887-.459s.969-.771 1.275-1.394h2.329c-.442 1.133-1.156 2.006-2.142 2.618-.975.612-2.091.918-3.349.918-1.111 0-2.125-.255-3.043-.765-.918-.521-1.649-1.241-2.193-2.159-.533-.918-.799-1.955-.799-3.111zm23.977-5.882-4.437 11.815h-2.244l-4.454-11.815h2.074l3.502 9.826 3.519-9.826zm11.804 0-4.437 11.815h-2.244l-4.454-11.815h2.074l3.502 9.826 3.519-9.826z" fill="#b6b8b9"/><path d="m468 271c0-3.771 0-5.657 1.172-6.828 1.171-1.172 3.057-1.172 6.828-1.172h4c3.771 0 5.657 0 6.828 1.172 1.172 1.171 1.172 3.057 1.172 6.828s0 5.657-1.172 6.828c-1.171 1.172-3.057 1.172-6.828 1.172h-4c-3.771 0-5.657 0-6.828-1.172-1.172-1.171-1.172-3.057-1.172-6.828z" stroke="#e2e4e5" stroke-width="1.5"/><path d="m476 275h-4" opacity=".5" stroke="#e2e4e5" stroke-linecap="round" stroke-width="1.5"/><path d="m480 275h-1.5" opacity=".5" stroke="#e2e4e5" stroke-linecap="round" stroke-width="1.5"/><path d="m468 269h20" opacity=".5" stroke="#e2e4e5" stroke-linecap="round" stroke-width="1.5"/><path d="m59 286.905c0-1.657 1.3431-3 3-3h67c1.657 0 3 1.343 3 3v.09c0 1.657-1.343 3-3 3h-67c-1.6569 0-3-1.343-3-3z" fill="#bfc3c4"/><path d="m85 254.425c0-1.657 1.3431-3 3-3h41c1.657 0 3 1.343 3 3v.09c0 1.657-1.343 3-3 3h-41c-1.6569 0-3-1.343-3-3z" fill="#bfc3c4"/><path d="m212.287 201.257 3.026 4.743h-2.193l-2.023-3.179-1.904 3.179h-2.023l3.026-4.607-3.026-4.76h2.193l2.023 3.179 1.904-3.179h2.023zm8.483 0 3.026 4.743h-2.193l-2.023-3.179-1.904 3.179h-2.023l3.026-4.607-3.026-4.76h2.193l2.023 3.179 1.904-3.179h2.023zm8.484 0 3.026 4.743h-2.193l-2.023-3.179-1.904 3.179h-2.023l3.026-4.607-3.026-4.76h2.193l2.023 3.179 1.904-3.179h2.023zm8.483 0 3.026 4.743h-2.193l-2.023-3.179-1.904 3.179h-2.023l3.026-4.607-3.026-4.76h2.193l2.023 3.179 1.904-3.179h2.023zm12.9 0 3.026 4.743h-2.193l-2.023-3.179-1.904 3.179h-2.023l3.026-4.607-3.026-4.76h2.193l2.023 3.179 1.904-3.179h2.023zm8.483 0 3.026 4.743h-2.193l-2.023-3.179-1.904 3.179h-2.023l3.026-4.607-3.026-4.76h2.193l2.023 3.179 1.904-3.179h2.023zm8.483 0 3.026 4.743h-2.193l-2.023-3.179-1.904 3.179h-2.023l3.026-4.607-3.026-4.76h2.193l2.023 3.179 1.904-3.179h2.023zm8.484 0 3.026 4.743h-2.193l-2.023-3.179-1.904 3.179h-2.023l3.026-4.607-3.026-4.76h2.193l2.023 3.179 1.904-3.179h2.023zm8.483 0 3.026 4.743h-2.193l-2.023-3.179-1.904 3.179h-2.023l3.026-4.607-3.026-4.76h2.193l2.023 3.179 1.904-3.179h2.023zm12.9 0 3.026 4.743h-2.193l-2.023-3.179-1.904 3.179h-2.023l3.026-4.607-3.026-4.76h2.193l2.023 3.179 1.904-3.179h2.023zm8.483 0 3.026 4.743h-2.193l-2.023-3.179-1.904 3.179h-2.023l3.026-4.607-3.026-4.76h2.193l2.023 3.179 1.904-3.179h2.023zm8.483 0 3.026 4.743h-2.193l-2.023-3.179-1.904 3.179h-2.023l3.026-4.607-3.026-4.76h2.193l2.023 3.179 1.904-3.179h2.023zm8.484 0 3.026 4.743h-2.193l-2.023-3.179-1.904 3.179h-2.023l3.026-4.607-3.026-4.76h2.193l2.023 3.179 1.904-3.179h2.023zm12.899 0 3.026 4.743h-2.193l-2.023-3.179-1.904 3.179h-2.023l3.026-4.607-3.026-4.76h2.193l2.023 3.179 1.904-3.179h2.023zm8.484 0 3.026 4.743h-2.193l-2.023-3.179-1.904 3.179h-2.023l3.026-4.607-3.026-4.76h2.193l2.023 3.179 1.904-3.179h2.023zm8.483 0 3.026 4.743h-2.193l-2.023-3.179-1.904 3.179h-2.023l3.026-4.607-3.026-4.76h2.193l2.023 3.179 1.904-3.179h2.023zm8.483 0 3.026 4.743h-2.193l-2.023-3.179-1.904 3.179h-2.023l3.026-4.607-3.026-4.76h2.193l2.023 3.179 1.904-3.179h2.023z" fill="#b6b8b9"/><path clip-rule="evenodd" d="m476.858 191.451h4.284c1.914 0 3.43 0 4.617.162 1.221.167 2.21.518 2.989 1.309.78.791 1.126 1.795 1.29 3.034.094.712.133 1.54.149 2.499.007.043.011.088.011.133 0 .037-.003.074-.008.11.008.598.008 1.245.008 1.945v.119c0 1.943 0 3.482-.16 4.687-.164 1.239-.51 2.243-1.29 3.034-.779.791-1.768 1.142-2.989 1.309-1.187.162-2.703.162-4.617.162h-4.284c-1.915 0-3.431 0-4.618-.162-1.221-.167-2.209-.518-2.989-1.309s-1.126-1.795-1.29-3.034c-.159-1.205-.159-2.744-.159-4.687v-.119c0-.7 0-1.347.007-1.945-.005-.036-.007-.073-.007-.11 0-.045.003-.09.011-.133.015-.959.054-1.787.148-2.499.164-1.239.51-2.243 1.29-3.034s1.768-1.142 2.989-1.309c1.187-.162 2.703-.162 4.618-.162zm-7.492 7.93c-.002.411-.002.85-.002 1.321 0 2.017.002 3.449.146 4.535.141 1.064.405 1.677.846 2.124.441.448 1.044.716 2.092.859 1.071.146 2.482.148 4.468.148h4.167c1.986 0 3.397-.002 4.468-.148 1.048-.143 1.652-.411 2.093-.859.44-.447.705-1.06.845-2.124.144-1.086.146-2.518.146-4.535 0-.471 0-.91-.002-1.321zm19.242-1.586h-19.217c.021-.62.056-1.156.119-1.627.141-1.064.405-1.677.846-2.124.441-.448 1.044-.716 2.092-.859 1.071-.146 2.482-.148 4.468-.148h4.167c1.986 0 3.397.002 4.468.148 1.048.143 1.652.411 2.093.859.44.447.705 1.06.845 2.124.063.471.099 1.007.119 1.627zm-5.488 3.172h.093c.451 0 .864 0 1.2.046.371.05.762.169 1.084.496.322.326.439.724.489 1.1.045.341.045.76.045 1.218v.095c0 .457 0 .877-.045 1.218-.05.376-.167.773-.489 1.1s-.713.446-1.084.496c-.336.046-.749.046-1.2.046h-.093c-.451 0-.864 0-1.201-.046-.37-.05-.761-.169-1.083-.496s-.439-.724-.489-1.1c-.045-.341-.045-.761-.045-1.218v-.095c0-.458 0-.877.045-1.218.05-.376.167-.774.489-1.1.322-.327.713-.446 1.083-.496.337-.046.75-.046 1.201-.046zm-1.177 1.662-.002.001-.002.003c-.001.002-.003.005-.005.011-.009.023-.025.074-.039.176-.029.223-.031.534-.031 1.054 0 .521.002.832.031 1.055.014.102.03.153.039.176.001.002.002.004.003.006s.002.004.002.005l.002.003.002.001c.002.001.006.003.011.005.022.009.073.026.173.039.22.03.526.032 1.039.032s.82-.002 1.039-.032c.101-.013.151-.03.174-.039.005-.002.009-.004.011-.005l.002-.001.002-.003c.001-.002.002-.006.004-.011.01-.023.026-.074.039-.176.03-.223.031-.534.031-1.055 0-.52-.001-.831-.031-1.054-.013-.102-.029-.153-.039-.176-.001-.004-.002-.006-.003-.008 0-.001-.001-.002-.001-.003l-.002-.003-.002-.001c-.002-.001-.006-.003-.011-.005-.023-.01-.073-.026-.174-.04-.219-.03-.526-.031-1.039-.031s-.819.001-1.039.031c-.1.014-.151.03-.173.04-.005.002-.009.004-.011.005zm-9.975-.341c0-.438.35-.793.782-.793h2.083c.431 0 .781.355.781.793s-.35.793-.781.793h-2.083c-.432 0-.782-.355-.782-.793zm9.973 2.831c-.001-.001-.001-.001 0 0zm-9.973.341c0-.438.35-.793.782-.793h4.166c.432 0 .782.355.782.793s-.35.793-.782.793h-4.166c-.432 0-.782-.355-.782-.793z" fill="#e2e4e5" fill-rule="evenodd"/></g></svg>