<svg width="540" height="410" viewBox="0 0 540 410" fill="none" xmlns="http://www.w3.org/2000/svg">
<g clip-path="url(#clip0_5616_1495)">
<rect width="540" height="410" fill="#FCF7F4"/>
<rect width="165" height="416" fill="#F3F3F4"/>
<path d="M0 59.59H128C129.657 59.59 131 60.9331 131 62.59V62.68C131 64.3368 129.657 65.68 128 65.68H0V59.59Z" fill="#D9D9D9"/>
<path d="M0 137.745H128C129.657 137.745 131 139.088 131 140.745V140.835C131 142.492 129.657 143.835 128 143.835H0V137.745Z" fill="#D9D9D9"/>
<path d="M74 219.915C74 218.258 75.3431 216.915 77 216.915H128C129.657 216.915 131 218.258 131 219.915V220.005C131 221.662 129.657 223.005 128 223.005H77C75.3431 223.005 74 221.662 74 220.005V219.915Z" fill="#BFC3C4"/>
<path d="M198 247.035C198 245.378 199.343 244.035 201 244.035H250C251.657 244.035 253 245.378 253 247.035V247.125C253 248.782 251.657 250.125 250 250.125H201C199.343 250.125 198 248.782 198 247.125V247.035Z" fill="#E4E5E6"/>
<path d="M198 322.145C198 320.488 199.343 319.145 201 319.145H285C286.657 319.145 288 320.488 288 322.145V322.235C288 323.892 286.657 325.235 285 325.235H201C199.343 325.235 198 323.892 198 322.235V322.145Z" fill="#E4E5E6"/>
<path d="M357 247.035C357 245.378 358.343 244.035 360 244.035H404C405.657 244.035 407 245.378 407 247.035V247.125C407 248.782 405.657 250.125 404 250.125H360C358.343 250.125 357 248.782 357 247.125V247.035Z" fill="#E4E5E6"/>
<path d="M198 171.925C198 170.268 199.343 168.925 201 168.925H266C267.657 168.925 269 170.268 269 171.925V172.015C269 173.672 267.657 175.015 266 175.015H201C199.343 175.015 198 173.672 198 172.015V171.925Z" fill="#E4E5E6"/>
<path d="M198 141.52H502V144.565H198V141.52Z" fill="#E4E5E6"/>
<path d="M198 28.08C198 26.4231 199.343 25.08 201 25.08H266C267.657 25.08 269 26.4231 269 28.08V28.17C269 29.8268 267.657 31.17 266 31.17H201C199.343 31.17 198 29.8268 198 28.17V28.08Z" fill="#E4E5E6"/>
<path d="M279 28.08C279 26.4231 280.343 25.08 282 25.08H328C329.657 25.08 331 26.4231 331 28.08V28.17C331 29.8268 329.657 31.17 328 31.17H282C280.343 31.17 279 29.8268 279 28.17V28.08Z" fill="#BFC3C4"/>
<rect x="198.5" y="333.855" width="301" height="32.495" rx="4.5" stroke="#E2E4E5"/>
<rect x="198.5" y="258.745" width="144" height="34.525" rx="4.5" stroke="#E2E4E5"/>
<rect x="357.5" y="257.5" width="144" height="34.525" rx="4.5" stroke="#E2E4E5"/>
<rect x="198.5" y="182.5" width="301" height="34.525" rx="4.5" stroke="#E2E4E5"/>
<rect x="198" y="74" width="305" height="38" rx="5" fill="#F48228"/>
<path fill-rule="evenodd" clip-rule="evenodd" d="M337.592 87.997C337.105 88.5884 336.326 89.0548 335.547 88.9881C335.449 88.1885 335.83 87.3391 336.277 86.8144C336.764 86.2064 337.616 85.7733 338.306 85.74C338.387 86.5729 338.071 87.3891 337.592 87.997ZM338.298 89.1464C337.611 89.1059 336.985 89.3582 336.479 89.5621C336.154 89.6933 335.878 89.8044 335.668 89.8044C335.433 89.8044 335.146 89.6873 334.824 89.5559C334.401 89.3838 333.918 89.187 333.412 89.1963C332.252 89.2131 331.172 89.8877 330.58 90.962C329.362 93.1109 330.263 96.2923 331.44 98.0414C332.016 98.9075 332.706 99.857 333.615 99.8236C334.015 99.8082 334.302 99.6829 334.6 99.5533C334.943 99.404 335.299 99.249 335.855 99.249C336.392 99.249 336.732 99.4 337.059 99.5449C337.37 99.6828 337.668 99.8151 338.111 99.807C339.053 99.7904 339.645 98.9409 340.221 98.0746C340.843 97.145 341.116 96.2377 341.158 96.1001L341.163 96.0841C341.163 96.0841 341.154 96.0795 341.14 96.0731C340.932 95.9754 339.344 95.229 339.328 93.2274C339.313 91.5474 340.589 90.6962 340.789 90.5621C340.802 90.5539 340.81 90.5484 340.814 90.5456C340.002 89.313 338.736 89.1797 338.298 89.1464ZM344.815 99.7154V86.7311H349.562C352.013 86.7311 353.726 88.4634 353.726 90.9954C353.726 93.5272 351.981 95.2762 349.498 95.2762H346.779V99.7154H344.815ZM346.779 88.4301H349.043C350.747 88.4301 351.721 89.3629 351.721 91.0037C351.721 92.6445 350.747 93.5856 349.035 93.5856H346.779V88.4301ZM360.21 98.1579C359.691 99.174 358.547 99.8153 357.313 99.8153C355.487 99.8153 354.213 98.6993 354.213 97.0169C354.213 95.3512 355.446 94.3935 357.727 94.2518L360.178 94.1019V93.3857C360.178 92.3279 359.504 91.7532 358.303 91.7532C357.313 91.7532 356.591 92.278 356.445 93.0775H354.675C354.732 91.3951 356.274 90.1708 358.36 90.1708C360.608 90.1708 362.069 91.3785 362.069 93.2524V99.7154H360.251V98.1579H360.21ZM357.841 98.2746C356.794 98.2746 356.128 97.7582 356.128 96.9669C356.128 96.1508 356.769 95.676 357.995 95.6011L360.178 95.4595V96.1924C360.178 97.4084 359.171 98.2746 357.841 98.2746ZM368.099 100.224C367.312 102.497 366.411 103.247 364.495 103.247C364.349 103.247 363.862 103.23 363.749 103.197V101.639C363.871 101.656 364.171 101.673 364.325 101.673C365.193 101.673 365.68 101.298 365.981 100.323L366.159 99.7487L362.832 90.2957H364.885L367.198 97.9664H367.239L369.552 90.2957H371.548L368.099 100.224Z" fill="white"/>
<path d="M224.719 271.475V283.29H222.781V275.198L219.177 283.29H217.834L214.213 275.198V283.29H212.275V271.475H214.366L218.514 280.74L222.645 271.475H224.719ZM239.71 271.475V283.29H237.772V275.198L234.168 283.29H232.825L229.204 275.198V283.29H227.266V271.475H229.357L233.505 280.74L237.636 271.475H239.71ZM252.963 267.242L248.339 286.265H246.435L251.042 267.242H252.963ZM268.577 271.475L264.667 279.006V283.29H262.729V279.006L258.802 271.475H260.961L263.698 277.272L266.435 271.475H268.577ZM278.87 271.475L274.96 279.006V283.29H273.022V279.006L269.095 271.475H271.254L273.991 277.272L276.728 271.475H278.87ZM289.163 271.475L285.253 279.006V283.29H283.315V279.006L279.388 271.475H281.547L284.284 277.272L287.021 271.475H289.163ZM299.456 271.475L295.546 279.006V283.29H293.608V279.006L289.681 271.475H291.84L294.577 277.272L297.314 271.475H299.456Z" fill="#B6B8B9"/>
<path d="M370.629 276.342C370.629 275.186 370.895 274.149 371.428 273.231C371.972 272.313 372.703 271.599 373.621 271.089C374.55 270.568 375.565 270.307 376.664 270.307C377.922 270.307 379.038 270.619 380.013 271.242C380.999 271.854 381.713 272.727 382.155 273.86H379.826C379.52 273.237 379.095 272.772 378.551 272.466C378.007 272.16 377.378 272.007 376.664 272.007C375.882 272.007 375.185 272.183 374.573 272.534C373.961 272.885 373.479 273.39 373.128 274.047C372.788 274.704 372.618 275.469 372.618 276.342C372.618 277.215 372.788 277.98 373.128 278.637C373.479 279.294 373.961 279.804 374.573 280.167C375.185 280.518 375.882 280.694 376.664 280.694C377.378 280.694 378.007 280.541 378.551 280.235C379.095 279.929 379.52 279.464 379.826 278.841H382.155C381.713 279.974 380.999 280.847 380.013 281.459C379.038 282.071 377.922 282.377 376.664 282.377C375.553 282.377 374.539 282.122 373.621 281.612C372.703 281.091 371.972 280.371 371.428 279.453C370.895 278.535 370.629 277.498 370.629 276.342ZM394.606 270.46L390.169 282.275H387.925L383.471 270.46H385.545L389.047 280.286L392.566 270.46H394.606ZM406.41 270.46L401.973 282.275H399.729L395.275 270.46H397.349L400.851 280.286L404.37 270.46H406.41Z" fill="#B6B8B9"/>
<path d="M468 271C468 267.229 468 265.343 469.172 264.172C470.343 263 472.229 263 476 263H480C483.771 263 485.657 263 486.828 264.172C488 265.343 488 267.229 488 271C488 274.771 488 276.657 486.828 277.828C485.657 279 483.771 279 480 279H476C472.229 279 470.343 279 469.172 277.828C468 276.657 468 274.771 468 271Z" stroke="#E2E4E5" stroke-width="1.5"/>
<path opacity="0.5" d="M476 275H472" stroke="#E2E4E5" stroke-width="1.5" stroke-linecap="round"/>
<path opacity="0.5" d="M480 275H478.5" stroke="#E2E4E5" stroke-width="1.5" stroke-linecap="round"/>
<path opacity="0.5" d="M468 269H488" stroke="#E2E4E5" stroke-width="1.5" stroke-linecap="round"/>
<path d="M59 286.905C59 285.248 60.3431 283.905 62 283.905H129C130.657 283.905 132 285.248 132 286.905V286.995C132 288.652 130.657 289.995 129 289.995H62C60.3431 289.995 59 288.652 59 286.995V286.905Z" fill="#BFC3C4"/>
<path d="M85 254.425C85 252.768 86.3431 251.425 88 251.425H129C130.657 251.425 132 252.768 132 254.425V254.515C132 256.172 130.657 257.515 129 257.515H88C86.3431 257.515 85 256.172 85 254.515V254.425Z" fill="#BFC3C4"/>
<path d="M212.287 201.257L215.313 206H213.12L211.097 202.821L209.193 206H207.17L210.196 201.393L207.17 196.633H209.363L211.386 199.812L213.29 196.633H215.313L212.287 201.257ZM220.77 201.257L223.796 206H221.603L219.58 202.821L217.676 206H215.653L218.679 201.393L215.653 196.633H217.846L219.869 199.812L221.773 196.633H223.796L220.77 201.257ZM229.254 201.257L232.28 206H230.087L228.064 202.821L226.16 206H224.137L227.163 201.393L224.137 196.633H226.33L228.353 199.812L230.257 196.633H232.28L229.254 201.257ZM237.737 201.257L240.763 206H238.57L236.547 202.821L234.643 206H232.62L235.646 201.393L232.62 196.633H234.813L236.836 199.812L238.74 196.633H240.763L237.737 201.257ZM250.637 201.257L253.663 206H251.47L249.447 202.821L247.543 206H245.52L248.546 201.393L245.52 196.633H247.713L249.736 199.812L251.64 196.633H253.663L250.637 201.257ZM259.12 201.257L262.146 206H259.953L257.93 202.821L256.026 206H254.003L257.029 201.393L254.003 196.633H256.196L258.219 199.812L260.123 196.633H262.146L259.12 201.257ZM267.603 201.257L270.629 206H268.436L266.413 202.821L264.509 206H262.486L265.512 201.393L262.486 196.633H264.679L266.702 199.812L268.606 196.633H270.629L267.603 201.257ZM276.087 201.257L279.113 206H276.92L274.897 202.821L272.993 206H270.97L273.996 201.393L270.97 196.633H273.163L275.186 199.812L277.09 196.633H279.113L276.087 201.257ZM284.57 201.257L287.596 206H285.403L283.38 202.821L281.476 206H279.453L282.479 201.393L279.453 196.633H281.646L283.669 199.812L285.573 196.633H287.596L284.57 201.257ZM297.47 201.257L300.496 206H298.303L296.28 202.821L294.376 206H292.353L295.379 201.393L292.353 196.633H294.546L296.569 199.812L298.473 196.633H300.496L297.47 201.257ZM305.953 201.257L308.979 206H306.786L304.763 202.821L302.859 206H300.836L303.862 201.393L300.836 196.633H303.029L305.052 199.812L306.956 196.633H308.979L305.953 201.257ZM314.436 201.257L317.462 206H315.269L313.246 202.821L311.342 206H309.319L312.345 201.393L309.319 196.633H311.512L313.535 199.812L315.439 196.633H317.462L314.436 201.257ZM322.92 201.257L325.946 206H323.753L321.73 202.821L319.826 206H317.803L320.829 201.393L317.803 196.633H319.996L322.019 199.812L323.923 196.633H325.946L322.92 201.257ZM335.819 201.257L338.845 206H336.652L334.629 202.821L332.725 206H330.702L333.728 201.393L330.702 196.633H332.895L334.918 199.812L336.822 196.633H338.845L335.819 201.257ZM344.303 201.257L347.329 206H345.136L343.113 202.821L341.209 206H339.186L342.212 201.393L339.186 196.633H341.379L343.402 199.812L345.306 196.633H347.329L344.303 201.257ZM352.786 201.257L355.812 206H353.619L351.596 202.821L349.692 206H347.669L350.695 201.393L347.669 196.633H349.862L351.885 199.812L353.789 196.633H355.812L352.786 201.257ZM361.269 201.257L364.295 206H362.102L360.079 202.821L358.175 206H356.152L359.178 201.393L356.152 196.633H358.345L360.368 199.812L362.272 196.633H364.295L361.269 201.257Z" fill="#B6B8B9"/>
<path fill-rule="evenodd" clip-rule="evenodd" d="M476.858 191.451H481.142C483.056 191.451 484.572 191.451 485.759 191.613C486.98 191.78 487.969 192.131 488.748 192.922C489.528 193.713 489.874 194.717 490.038 195.956C490.132 196.668 490.171 197.496 490.187 198.455C490.194 198.498 490.198 198.543 490.198 198.588C490.198 198.625 490.195 198.662 490.19 198.698C490.198 199.296 490.198 199.943 490.198 200.643V200.762C490.198 202.705 490.198 204.244 490.038 205.449C489.874 206.688 489.528 207.692 488.748 208.483C487.969 209.274 486.98 209.625 485.759 209.792C484.572 209.954 483.056 209.954 481.142 209.954H476.858C474.943 209.954 473.427 209.954 472.24 209.792C471.019 209.625 470.031 209.274 469.251 208.483C468.471 207.692 468.125 206.688 467.961 205.449C467.802 204.244 467.802 202.705 467.802 200.762V200.643C467.802 199.943 467.802 199.296 467.809 198.698C467.804 198.662 467.802 198.625 467.802 198.588C467.802 198.543 467.805 198.498 467.813 198.455C467.828 197.496 467.867 196.668 467.961 195.956C468.125 194.717 468.471 193.713 469.251 192.922C470.031 192.131 471.019 191.78 472.24 191.613C473.427 191.451 474.943 191.451 476.858 191.451ZM469.366 199.381C469.364 199.792 469.364 200.231 469.364 200.702C469.364 202.719 469.366 204.151 469.51 205.237C469.651 206.301 469.915 206.914 470.356 207.361C470.797 207.809 471.4 208.077 472.448 208.22C473.519 208.366 474.93 208.368 476.916 208.368H481.083C483.069 208.368 484.48 208.366 485.551 208.22C486.599 208.077 487.203 207.809 487.644 207.361C488.084 206.914 488.349 206.301 488.489 205.237C488.633 204.151 488.635 202.719 488.635 200.702C488.635 200.231 488.635 199.792 488.633 199.381H469.366ZM488.608 197.795H469.391C469.412 197.175 469.447 196.639 469.51 196.168C469.651 195.104 469.915 194.491 470.356 194.044C470.797 193.596 471.4 193.328 472.448 193.185C473.519 193.039 474.93 193.037 476.916 193.037H481.083C483.069 193.037 484.48 193.039 485.551 193.185C486.599 193.328 487.203 193.596 487.644 194.044C488.084 194.491 488.349 195.104 488.489 196.168C488.552 196.639 488.588 197.175 488.608 197.795ZM483.12 200.967H483.213C483.664 200.967 484.077 200.967 484.413 201.013C484.784 201.063 485.175 201.182 485.497 201.509C485.819 201.835 485.936 202.233 485.986 202.609C486.031 202.95 486.031 203.369 486.031 203.827V203.922C486.031 204.379 486.031 204.799 485.986 205.14C485.936 205.516 485.819 205.913 485.497 206.24C485.175 206.567 484.784 206.686 484.413 206.736C484.077 206.782 483.664 206.782 483.213 206.782H483.12C482.669 206.782 482.256 206.782 481.919 206.736C481.549 206.686 481.158 206.567 480.836 206.24C480.514 205.913 480.397 205.516 480.347 205.14C480.302 204.799 480.302 204.379 480.302 203.922V203.827C480.302 203.369 480.302 202.95 480.347 202.609C480.397 202.233 480.514 201.835 480.836 201.509C481.158 201.182 481.549 201.063 481.919 201.013C482.256 200.967 482.669 200.967 483.12 200.967ZM481.943 202.629L481.941 202.63L481.939 202.633C481.938 202.635 481.936 202.638 481.934 202.644C481.925 202.667 481.909 202.718 481.895 202.82C481.866 203.043 481.864 203.354 481.864 203.874C481.864 204.395 481.866 204.706 481.895 204.929C481.909 205.031 481.925 205.082 481.934 205.105C481.935 205.107 481.936 205.109 481.937 205.111C481.938 205.113 481.939 205.115 481.939 205.116L481.941 205.119L481.943 205.12C481.945 205.121 481.949 205.123 481.954 205.125C481.976 205.134 482.027 205.151 482.127 205.164C482.347 205.194 482.653 205.196 483.166 205.196C483.679 205.196 483.986 205.194 484.205 205.164C484.306 205.151 484.356 205.134 484.379 205.125C484.384 205.123 484.388 205.121 484.39 205.12L484.392 205.119L484.394 205.116C484.395 205.114 484.396 205.11 484.398 205.105C484.408 205.082 484.424 205.031 484.437 204.929C484.467 204.706 484.468 204.395 484.468 203.874C484.468 203.354 484.467 203.043 484.437 202.82C484.424 202.718 484.408 202.667 484.398 202.644C484.397 202.64 484.396 202.638 484.395 202.636C484.395 202.635 484.394 202.634 484.394 202.633L484.392 202.63L484.39 202.629C484.388 202.628 484.384 202.626 484.379 202.624C484.356 202.614 484.306 202.598 484.205 202.584C483.986 202.554 483.679 202.553 483.166 202.553C482.653 202.553 482.347 202.554 482.127 202.584C482.027 202.598 481.976 202.614 481.954 202.624C481.949 202.626 481.945 202.628 481.943 202.629ZM471.968 202.288C471.968 201.85 472.318 201.495 472.75 201.495H474.833C475.264 201.495 475.614 201.85 475.614 202.288C475.614 202.726 475.264 203.081 474.833 203.081H472.75C472.318 203.081 471.968 202.726 471.968 202.288ZM481.941 205.119C481.94 205.118 481.94 205.118 481.941 205.119C481.941 205.119 481.941 205.119 481.941 205.119ZM484.392 205.119C484.392 205.119 484.392 205.119 484.392 205.119V205.119ZM471.968 205.46C471.968 205.022 472.318 204.667 472.75 204.667H476.916C477.348 204.667 477.698 205.022 477.698 205.46C477.698 205.898 477.348 206.253 476.916 206.253H472.75C472.318 206.253 471.968 205.898 471.968 205.46Z" fill="#E2E4E5"/>
</g>
<defs>
<clipPath id="clip0_5616_1495">
<rect width="540" height="410" fill="white"/>
</clipPath>
</defs>
</svg>
