<svg width="540" height="410" viewBox="0 0 540 410" fill="none" xmlns="http://www.w3.org/2000/svg">
<g clip-path="url(#clip0_5616_1495)">
<rect width="540" height="410" fill="white"/>
<rect width="165" height="416" fill="#F3F3F4"/>
<path d="M0 59.59H128C129.657 59.59 131 60.9331 131 62.59V62.68C131 64.3368 129.657 65.68 128 65.68H0V59.59Z" fill="#D9D9D9"/>
<path d="M0 137.745H128C129.657 137.745 131 139.088 131 140.745V140.835C131 142.492 129.657 143.835 128 143.835H0V137.745Z" fill="#D9D9D9"/>
<path d="M74 219.915C74 218.258 75.3431 216.915 77 216.915H128C129.657 216.915 131 218.258 131 219.915V220.005C131 221.662 129.657 223.005 128 223.005H77C75.3431 223.005 74 221.662 74 220.005V219.915Z" fill="#BFC3C4"/>
<path d="M198 228.035C198 226.378 199.343 225.035 201 225.035H250C251.657 225.035 253 226.378 253 228.035V228.125C253 229.782 251.657 231.125 250 231.125H201C199.343 231.125 198 229.782 198 228.125V228.035Z" fill="#E4E5E6"/>
<path d="M198 303.145C198 301.488 199.343 300.145 201 300.145H285C286.657 300.145 288 301.488 288 303.145V303.235C288 304.892 286.657 306.235 285 306.235H201C199.343 306.235 198 304.892 198 303.235V303.145Z" fill="#E4E5E6"/>
<path d="M357 228.035C357 226.378 358.343 225.035 360 225.035H404C405.657 225.035 407 226.378 407 228.035V228.125C407 229.782 405.657 231.125 404 231.125H360C358.343 231.125 357 229.782 357 228.125V228.035Z" fill="#E4E5E6"/>
<path d="M198 152.925C198 151.268 199.343 149.925 201 149.925H266C267.657 149.925 269 151.268 269 152.925V153.015C269 154.672 267.657 156.015 266 156.015H201C199.343 156.015 198 154.672 198 153.015V152.925Z" fill="#E4E5E6"/>
<path d="M198 122.52H502V125.565H198V122.52Z" fill="#E4E5E6"/>
<path d="M198 28.08C198 26.4231 199.343 25.08 201 25.08H266C267.657 25.08 269 26.4231 269 28.08V28.17C269 29.8268 267.657 31.17 266 31.17H201C199.343 31.17 198 29.8268 198 28.17V28.08Z" fill="#E4E5E6"/>
<path d="M279 28.08C279 26.4231 280.343 25.08 282 25.08H328C329.657 25.08 331 26.4231 331 28.08V28.17C331 29.8268 329.657 31.17 328 31.17H282C280.343 31.17 279 29.8268 279 28.17V28.08Z" fill="#BFC3C4"/>
<rect x="198" y="379.315" width="306" height="38.57" rx="9" fill="#1E2526"/>
<path d="M314.537 394.079C314.537 394.68 314.395 395.246 314.112 395.779C313.829 396.312 313.375 396.748 312.752 397.088C312.129 397.417 311.33 397.581 310.355 397.581H308.213V402.375H306.275V390.56H310.355C311.262 390.56 312.027 390.719 312.65 391.036C313.285 391.342 313.755 391.761 314.061 392.294C314.378 392.827 314.537 393.422 314.537 394.079ZM310.355 396C311.092 396 311.641 395.836 312.004 395.507C312.367 395.167 312.548 394.691 312.548 394.079C312.548 392.787 311.817 392.141 310.355 392.141H308.213V396H310.355ZM314.739 397.649C314.739 396.708 314.932 395.875 315.317 395.15C315.714 394.425 316.247 393.864 316.915 393.467C317.595 393.059 318.343 392.855 319.159 392.855C319.896 392.855 320.536 393.002 321.08 393.297C321.636 393.58 322.078 393.937 322.406 394.368V393.008H324.361V402.375H322.406V400.981C322.078 401.423 321.63 401.791 321.063 402.086C320.497 402.381 319.851 402.528 319.125 402.528C318.321 402.528 317.584 402.324 316.915 401.916C316.247 401.497 315.714 400.919 315.317 400.182C314.932 399.434 314.739 398.59 314.739 397.649ZM322.406 397.683C322.406 397.037 322.27 396.476 321.998 396C321.738 395.524 321.392 395.161 320.961 394.912C320.531 394.663 320.066 394.538 319.567 394.538C319.069 394.538 318.604 394.663 318.173 394.912C317.743 395.15 317.391 395.507 317.119 395.983C316.859 396.448 316.728 397.003 316.728 397.649C316.728 398.295 316.859 398.862 317.119 399.349C317.391 399.836 317.743 400.21 318.173 400.471C318.615 400.72 319.08 400.845 319.567 400.845C320.066 400.845 320.531 400.72 320.961 400.471C321.392 400.222 321.738 399.859 321.998 399.383C322.27 398.896 322.406 398.329 322.406 397.683ZM334.339 393.008L328.593 406.778H326.587L328.491 402.222L324.802 393.008H326.961L329.596 400.148L332.333 393.008H334.339ZM340.155 394.402C340.484 393.949 340.932 393.58 341.498 393.297C342.076 393.002 342.717 392.855 343.419 392.855C344.247 392.855 344.995 393.053 345.663 393.45C346.332 393.847 346.859 394.413 347.244 395.15C347.63 395.875 347.822 396.708 347.822 397.649C347.822 398.59 347.63 399.434 347.244 400.182C346.859 400.919 346.326 401.497 345.646 401.916C344.978 402.324 344.235 402.528 343.419 402.528C342.694 402.528 342.048 402.386 341.481 402.103C340.926 401.82 340.484 401.457 340.155 401.015V402.375H338.217V389.795H340.155V394.402ZM345.85 397.649C345.85 397.003 345.714 396.448 345.442 395.983C345.182 395.507 344.83 395.15 344.388 394.912C343.958 394.663 343.493 394.538 342.994 394.538C342.507 394.538 342.042 394.663 341.6 394.912C341.17 395.161 340.818 395.524 340.546 396C340.286 396.476 340.155 397.037 340.155 397.683C340.155 398.329 340.286 398.896 340.546 399.383C340.818 399.859 341.17 400.222 341.6 400.471C342.042 400.72 342.507 400.845 342.994 400.845C343.493 400.845 343.958 400.72 344.388 400.471C344.83 400.21 345.182 399.836 345.442 399.349C345.714 398.862 345.85 398.295 345.85 397.649ZM357.171 393.008L351.425 406.778H349.419L351.323 402.222L347.634 393.008H349.793L352.428 400.148L355.165 393.008H357.171ZM360.403 397.683C360.403 396.72 360.596 395.875 360.981 395.15C361.378 394.413 361.922 393.847 362.613 393.45C363.305 393.053 364.098 392.855 364.993 392.855C366.127 392.855 367.062 393.127 367.798 393.671C368.546 394.204 369.051 394.969 369.311 395.966H367.22C367.05 395.501 366.778 395.139 366.404 394.878C366.03 394.617 365.56 394.487 364.993 394.487C364.2 394.487 363.565 394.77 363.089 395.337C362.625 395.892 362.392 396.674 362.392 397.683C362.392 398.692 362.625 399.479 363.089 400.046C363.565 400.613 364.2 400.896 364.993 400.896C366.115 400.896 366.858 400.403 367.22 399.417H369.311C369.039 400.369 368.529 401.128 367.781 401.695C367.033 402.25 366.104 402.528 364.993 402.528C364.098 402.528 363.305 402.33 362.613 401.933C361.922 401.525 361.378 400.958 360.981 400.233C360.596 399.496 360.403 398.646 360.403 397.683ZM369.597 397.649C369.597 396.708 369.789 395.875 370.175 395.15C370.571 394.425 371.104 393.864 371.773 393.467C372.453 393.059 373.201 392.855 374.017 392.855C374.753 392.855 375.394 393.002 375.938 393.297C376.493 393.58 376.935 393.937 377.264 394.368V393.008H379.219V402.375H377.264V400.981C376.935 401.423 376.487 401.791 375.921 402.086C375.354 402.381 374.708 402.528 373.983 402.528C373.178 402.528 372.441 402.324 371.773 401.916C371.104 401.497 370.571 400.919 370.175 400.182C369.789 399.434 369.597 398.59 369.597 397.649ZM377.264 397.683C377.264 397.037 377.128 396.476 376.856 396C376.595 395.524 376.249 395.161 375.819 394.912C375.388 394.663 374.923 394.538 374.425 394.538C373.926 394.538 373.461 394.663 373.031 394.912C372.6 395.15 372.249 395.507 371.977 395.983C371.716 396.448 371.586 397.003 371.586 397.649C371.586 398.295 371.716 398.862 371.977 399.349C372.249 399.836 372.6 400.21 373.031 400.471C373.473 400.72 373.937 400.845 374.425 400.845C374.923 400.845 375.388 400.72 375.819 400.471C376.249 400.222 376.595 399.859 376.856 399.383C377.128 398.896 377.264 398.329 377.264 397.683ZM382.702 394.368C382.986 393.892 383.36 393.524 383.824 393.263C384.3 392.991 384.861 392.855 385.507 392.855V394.861H385.014C384.255 394.861 383.677 395.054 383.28 395.439C382.895 395.824 382.702 396.493 382.702 397.445V402.375H380.764V393.008H382.702V394.368ZM385.643 397.649C385.643 396.708 385.835 395.875 386.221 395.15C386.617 394.425 387.15 393.864 387.819 393.467C388.499 393.059 389.252 392.855 390.08 392.855C390.692 392.855 391.292 392.991 391.882 393.263C392.482 393.524 392.958 393.875 393.31 394.317V389.795H395.265V402.375H393.31V400.964C392.992 401.417 392.55 401.791 391.984 402.086C391.428 402.381 390.788 402.528 390.063 402.528C389.247 402.528 388.499 402.324 387.819 401.916C387.15 401.497 386.617 400.919 386.221 400.182C385.835 399.434 385.643 398.59 385.643 397.649ZM393.31 397.683C393.31 397.037 393.174 396.476 392.902 396C392.641 395.524 392.295 395.161 391.865 394.912C391.434 394.663 390.969 394.538 390.471 394.538C389.972 394.538 389.507 394.663 389.077 394.912C388.646 395.15 388.295 395.507 388.023 395.983C387.762 396.448 387.632 397.003 387.632 397.649C387.632 398.295 387.762 398.862 388.023 399.349C388.295 399.836 388.646 400.21 389.077 400.471C389.519 400.72 389.983 400.845 390.471 400.845C390.969 400.845 391.434 400.72 391.865 400.471C392.295 400.222 392.641 399.859 392.902 399.383C393.174 398.896 393.31 398.329 393.31 397.683Z" fill="white"/>
<rect x="198.5" y="314.855" width="301" height="32.495" rx="4.5" stroke="#E2E4E5"/>
<rect x="198.5" y="239.745" width="144" height="34.525" rx="4.5" stroke="#E2E4E5"/>
<rect x="357.5" y="238.5" width="144" height="34.525" rx="4.5" stroke="#E2E4E5"/>
<rect x="198.5" y="163.5" width="301" height="34.525" rx="4.5" stroke="#E2E4E5"/>
<rect x="198" y="55" width="305" height="38" rx="5" fill="#F48228"/>
<path fill-rule="evenodd" clip-rule="evenodd" d="M337.592 68.997C337.105 69.5884 336.326 70.0548 335.547 69.9881C335.449 69.1885 335.83 68.3391 336.277 67.8144C336.764 67.2064 337.616 66.7733 338.306 66.74C338.387 67.5729 338.071 68.3891 337.592 68.997ZM338.298 70.1464C337.611 70.1059 336.985 70.3582 336.479 70.5621C336.154 70.6933 335.878 70.8044 335.668 70.8044C335.433 70.8044 335.146 70.6873 334.824 70.5559C334.401 70.3838 333.918 70.187 333.412 70.1963C332.252 70.2131 331.172 70.8877 330.58 71.962C329.362 74.1109 330.263 77.2923 331.44 79.0414C332.016 79.9075 332.706 80.857 333.615 80.8236C334.015 80.8082 334.302 80.6829 334.6 80.5533C334.943 80.404 335.299 80.249 335.855 80.249C336.392 80.249 336.732 80.4 337.059 80.5449C337.37 80.6828 337.668 80.8151 338.111 80.807C339.053 80.7904 339.645 79.9409 340.221 79.0746C340.843 78.145 341.116 77.2377 341.158 77.1001L341.163 77.0841C341.163 77.0841 341.154 77.0795 341.14 77.0731C340.932 76.9754 339.344 76.229 339.328 74.2274C339.313 72.5474 340.589 71.6962 340.789 71.5621C340.802 71.5539 340.81 71.5484 340.814 71.5456C340.002 70.313 338.736 70.1797 338.298 70.1464ZM344.815 80.7154V67.7311H349.562C352.013 67.7311 353.726 69.4634 353.726 71.9954C353.726 74.5272 351.981 76.2762 349.498 76.2762H346.779V80.7154H344.815ZM346.779 69.4301H349.043C350.747 69.4301 351.721 70.3629 351.721 72.0037C351.721 73.6445 350.747 74.5856 349.035 74.5856H346.779V69.4301ZM360.21 79.1579C359.691 80.174 358.547 80.8153 357.313 80.8153C355.487 80.8153 354.213 79.6993 354.213 78.0169C354.213 76.3512 355.446 75.3935 357.727 75.2518L360.178 75.1019V74.3857C360.178 73.3279 359.504 72.7532 358.303 72.7532C357.313 72.7532 356.591 73.278 356.445 74.0775H354.675C354.732 72.3951 356.274 71.1708 358.36 71.1708C360.608 71.1708 362.069 72.3785 362.069 74.2524V80.7154H360.251V79.1579H360.21ZM357.841 79.2746C356.794 79.2746 356.128 78.7582 356.128 77.9669C356.128 77.1508 356.769 76.676 357.995 76.6011L360.178 76.4595V77.1924C360.178 78.4084 359.171 79.2746 357.841 79.2746ZM368.099 81.2235C367.312 83.4971 366.411 84.2467 364.495 84.2467C364.349 84.2467 363.862 84.2301 363.749 84.1968V82.6393C363.871 82.656 364.171 82.6726 364.325 82.6726C365.193 82.6726 365.68 82.2978 365.981 81.3234L366.159 80.7487L362.832 71.2957H364.885L367.198 78.9664H367.239L369.552 71.2957H371.548L368.099 81.2235Z" fill="white"/>
<path d="M224.719 252.475V264.29H222.781V256.198L219.177 264.29H217.834L214.213 256.198V264.29H212.275V252.475H214.366L218.514 261.74L222.645 252.475H224.719ZM239.71 252.475V264.29H237.772V256.198L234.168 264.29H232.825L229.204 256.198V264.29H227.266V252.475H229.357L233.505 261.74L237.636 252.475H239.71ZM252.963 248.242L248.339 267.265H246.435L251.042 248.242H252.963ZM268.577 252.475L264.667 260.006V264.29H262.729V260.006L258.802 252.475H260.961L263.698 258.272L266.435 252.475H268.577ZM278.87 252.475L274.96 260.006V264.29H273.022V260.006L269.095 252.475H271.254L273.991 258.272L276.728 252.475H278.87ZM289.163 252.475L285.253 260.006V264.29H283.315V260.006L279.388 252.475H281.547L284.284 258.272L287.021 252.475H289.163ZM299.456 252.475L295.546 260.006V264.29H293.608V260.006L289.681 252.475H291.84L294.577 258.272L297.314 252.475H299.456Z" fill="#B6B8B9"/>
<path d="M370.629 257.342C370.629 256.186 370.895 255.149 371.428 254.231C371.972 253.313 372.703 252.599 373.621 252.089C374.55 251.568 375.565 251.307 376.664 251.307C377.922 251.307 379.038 251.619 380.013 252.242C380.999 252.854 381.713 253.727 382.155 254.86H379.826C379.52 254.237 379.095 253.772 378.551 253.466C378.007 253.16 377.378 253.007 376.664 253.007C375.882 253.007 375.185 253.183 374.573 253.534C373.961 253.885 373.479 254.39 373.128 255.047C372.788 255.704 372.618 256.469 372.618 257.342C372.618 258.215 372.788 258.98 373.128 259.637C373.479 260.294 373.961 260.804 374.573 261.167C375.185 261.518 375.882 261.694 376.664 261.694C377.378 261.694 378.007 261.541 378.551 261.235C379.095 260.929 379.52 260.464 379.826 259.841H382.155C381.713 260.974 380.999 261.847 380.013 262.459C379.038 263.071 377.922 263.377 376.664 263.377C375.553 263.377 374.539 263.122 373.621 262.612C372.703 262.091 371.972 261.371 371.428 260.453C370.895 259.535 370.629 258.498 370.629 257.342ZM394.606 251.46L390.169 263.275H387.925L383.471 251.46H385.545L389.047 261.286L392.566 251.46H394.606ZM406.41 251.46L401.973 263.275H399.729L395.275 251.46H397.349L400.851 261.286L404.37 251.46H406.41Z" fill="#B6B8B9"/>
<path d="M468 252C468 248.229 468 246.343 469.172 245.172C470.343 244 472.229 244 476 244H480C483.771 244 485.657 244 486.828 245.172C488 246.343 488 248.229 488 252C488 255.771 488 257.657 486.828 258.828C485.657 260 483.771 260 480 260H476C472.229 260 470.343 260 469.172 258.828C468 257.657 468 255.771 468 252Z" stroke="#E2E4E5" stroke-width="1.5"/>
<path opacity="0.5" d="M476 256H472" stroke="#E2E4E5" stroke-width="1.5" stroke-linecap="round"/>
<path opacity="0.5" d="M480 256H478.5" stroke="#E2E4E5" stroke-width="1.5" stroke-linecap="round"/>
<path opacity="0.5" d="M468 250H488" stroke="#E2E4E5" stroke-width="1.5" stroke-linecap="round"/>
<path d="M59 286.905C59 285.248 60.3431 283.905 62 283.905H129C130.657 283.905 132 285.248 132 286.905V286.995C132 288.652 130.657 289.995 129 289.995H62C60.3431 289.995 59 288.652 59 286.995V286.905Z" fill="#BFC3C4"/>
<path d="M85 254.425C85 252.768 86.3431 251.425 88 251.425H129C130.657 251.425 132 252.768 132 254.425V254.515C132 256.172 130.657 257.515 129 257.515H88C86.3431 257.515 85 256.172 85 254.515V254.425Z" fill="#BFC3C4"/>
<path d="M212.287 182.257L215.313 187H213.12L211.097 183.821L209.193 187H207.17L210.196 182.393L207.17 177.633H209.363L211.386 180.812L213.29 177.633H215.313L212.287 182.257ZM220.77 182.257L223.796 187H221.603L219.58 183.821L217.676 187H215.653L218.679 182.393L215.653 177.633H217.846L219.869 180.812L221.773 177.633H223.796L220.77 182.257ZM229.254 182.257L232.28 187H230.087L228.064 183.821L226.16 187H224.137L227.163 182.393L224.137 177.633H226.33L228.353 180.812L230.257 177.633H232.28L229.254 182.257ZM237.737 182.257L240.763 187H238.57L236.547 183.821L234.643 187H232.62L235.646 182.393L232.62 177.633H234.813L236.836 180.812L238.74 177.633H240.763L237.737 182.257ZM250.637 182.257L253.663 187H251.47L249.447 183.821L247.543 187H245.52L248.546 182.393L245.52 177.633H247.713L249.736 180.812L251.64 177.633H253.663L250.637 182.257ZM259.12 182.257L262.146 187H259.953L257.93 183.821L256.026 187H254.003L257.029 182.393L254.003 177.633H256.196L258.219 180.812L260.123 177.633H262.146L259.12 182.257ZM267.603 182.257L270.629 187H268.436L266.413 183.821L264.509 187H262.486L265.512 182.393L262.486 177.633H264.679L266.702 180.812L268.606 177.633H270.629L267.603 182.257ZM276.087 182.257L279.113 187H276.92L274.897 183.821L272.993 187H270.97L273.996 182.393L270.97 177.633H273.163L275.186 180.812L277.09 177.633H279.113L276.087 182.257ZM284.57 182.257L287.596 187H285.403L283.38 183.821L281.476 187H279.453L282.479 182.393L279.453 177.633H281.646L283.669 180.812L285.573 177.633H287.596L284.57 182.257ZM297.47 182.257L300.496 187H298.303L296.28 183.821L294.376 187H292.353L295.379 182.393L292.353 177.633H294.546L296.569 180.812L298.473 177.633H300.496L297.47 182.257ZM305.953 182.257L308.979 187H306.786L304.763 183.821L302.859 187H300.836L303.862 182.393L300.836 177.633H303.029L305.052 180.812L306.956 177.633H308.979L305.953 182.257ZM314.436 182.257L317.462 187H315.269L313.246 183.821L311.342 187H309.319L312.345 182.393L309.319 177.633H311.512L313.535 180.812L315.439 177.633H317.462L314.436 182.257ZM322.92 182.257L325.946 187H323.753L321.73 183.821L319.826 187H317.803L320.829 182.393L317.803 177.633H319.996L322.019 180.812L323.923 177.633H325.946L322.92 182.257ZM335.819 182.257L338.845 187H336.652L334.629 183.821L332.725 187H330.702L333.728 182.393L330.702 177.633H332.895L334.918 180.812L336.822 177.633H338.845L335.819 182.257ZM344.303 182.257L347.329 187H345.136L343.113 183.821L341.209 187H339.186L342.212 182.393L339.186 177.633H341.379L343.402 180.812L345.306 177.633H347.329L344.303 182.257ZM352.786 182.257L355.812 187H353.619L351.596 183.821L349.692 187H347.669L350.695 182.393L347.669 177.633H349.862L351.885 180.812L353.789 177.633H355.812L352.786 182.257ZM361.269 182.257L364.295 187H362.102L360.079 183.821L358.175 187H356.152L359.178 182.393L356.152 177.633H358.345L360.368 180.812L362.272 177.633H364.295L361.269 182.257Z" fill="#B6B8B9"/>
<path fill-rule="evenodd" clip-rule="evenodd" d="M476.858 172.451H481.142C483.056 172.451 484.572 172.451 485.759 172.613C486.98 172.78 487.969 173.131 488.748 173.922C489.528 174.713 489.874 175.717 490.038 176.956C490.132 177.668 490.171 178.496 490.187 179.455C490.194 179.498 490.198 179.543 490.198 179.588C490.198 179.625 490.195 179.662 490.19 179.698C490.198 180.296 490.198 180.943 490.198 181.643V181.762C490.198 183.705 490.198 185.244 490.038 186.449C489.874 187.688 489.528 188.692 488.748 189.483C487.969 190.274 486.98 190.625 485.759 190.792C484.572 190.954 483.056 190.954 481.142 190.954H476.858C474.943 190.954 473.427 190.954 472.24 190.792C471.019 190.625 470.031 190.274 469.251 189.483C468.471 188.692 468.125 187.688 467.961 186.449C467.802 185.244 467.802 183.705 467.802 181.762V181.643C467.802 180.943 467.802 180.296 467.809 179.698C467.804 179.662 467.802 179.625 467.802 179.588C467.802 179.543 467.805 179.498 467.813 179.455C467.828 178.496 467.867 177.668 467.961 176.956C468.125 175.717 468.471 174.713 469.251 173.922C470.031 173.131 471.019 172.78 472.24 172.613C473.427 172.451 474.943 172.451 476.858 172.451ZM469.366 180.381C469.364 180.792 469.364 181.231 469.364 181.702C469.364 183.719 469.366 185.151 469.51 186.237C469.651 187.301 469.915 187.914 470.356 188.361C470.797 188.809 471.4 189.077 472.448 189.22C473.519 189.366 474.93 189.368 476.916 189.368H481.083C483.069 189.368 484.48 189.366 485.551 189.22C486.599 189.077 487.203 188.809 487.644 188.361C488.084 187.914 488.349 187.301 488.489 186.237C488.633 185.151 488.635 183.719 488.635 181.702C488.635 181.231 488.635 180.792 488.633 180.381H469.366ZM488.608 178.795H469.391C469.412 178.175 469.447 177.639 469.51 177.168C469.651 176.104 469.915 175.491 470.356 175.044C470.797 174.596 471.4 174.328 472.448 174.185C473.519 174.039 474.93 174.037 476.916 174.037H481.083C483.069 174.037 484.48 174.039 485.551 174.185C486.599 174.328 487.203 174.596 487.644 175.044C488.084 175.491 488.349 176.104 488.489 177.168C488.552 177.639 488.588 178.175 488.608 178.795ZM483.12 181.967H483.213C483.664 181.967 484.077 181.967 484.413 182.013C484.784 182.063 485.175 182.182 485.497 182.509C485.819 182.835 485.936 183.233 485.986 183.609C486.031 183.95 486.031 184.369 486.031 184.827V184.922C486.031 185.379 486.031 185.799 485.986 186.14C485.936 186.516 485.819 186.913 485.497 187.24C485.175 187.567 484.784 187.686 484.413 187.736C484.077 187.782 483.664 187.782 483.213 187.782H483.12C482.669 187.782 482.256 187.782 481.919 187.736C481.549 187.686 481.158 187.567 480.836 187.24C480.514 186.913 480.397 186.516 480.347 186.14C480.302 185.799 480.302 185.379 480.302 184.922V184.827C480.302 184.369 480.302 183.95 480.347 183.609C480.397 183.233 480.514 182.835 480.836 182.509C481.158 182.182 481.549 182.063 481.919 182.013C482.256 181.967 482.669 181.967 483.12 181.967ZM481.943 183.629L481.941 183.63L481.939 183.633C481.938 183.635 481.936 183.638 481.934 183.644C481.925 183.667 481.909 183.718 481.895 183.82C481.866 184.043 481.864 184.354 481.864 184.874C481.864 185.395 481.866 185.706 481.895 185.929C481.909 186.031 481.925 186.082 481.934 186.105C481.935 186.107 481.936 186.109 481.937 186.111C481.938 186.113 481.939 186.115 481.939 186.116L481.941 186.119L481.943 186.12C481.945 186.121 481.949 186.123 481.954 186.125C481.976 186.134 482.027 186.151 482.127 186.164C482.347 186.194 482.653 186.196 483.166 186.196C483.679 186.196 483.986 186.194 484.205 186.164C484.306 186.151 484.356 186.134 484.379 186.125C484.384 186.123 484.388 186.121 484.39 186.12L484.392 186.119L484.394 186.116C484.395 186.114 484.396 186.11 484.398 186.105C484.408 186.082 484.424 186.031 484.437 185.929C484.467 185.706 484.468 185.395 484.468 184.874C484.468 184.354 484.467 184.043 484.437 183.82C484.424 183.718 484.408 183.667 484.398 183.644C484.397 183.64 484.396 183.638 484.395 183.636C484.395 183.635 484.394 183.634 484.394 183.633L484.392 183.63L484.39 183.629C484.388 183.628 484.384 183.626 484.379 183.624C484.356 183.614 484.306 183.598 484.205 183.584C483.986 183.554 483.679 183.553 483.166 183.553C482.653 183.553 482.347 183.554 482.127 183.584C482.027 183.598 481.976 183.614 481.954 183.624C481.949 183.626 481.945 183.628 481.943 183.629ZM471.968 183.288C471.968 182.85 472.318 182.495 472.75 182.495H474.833C475.264 182.495 475.614 182.85 475.614 183.288C475.614 183.726 475.264 184.081 474.833 184.081H472.75C472.318 184.081 471.968 183.726 471.968 183.288ZM481.941 186.119C481.94 186.118 481.94 186.118 481.941 186.119C481.941 186.119 481.941 186.119 481.941 186.119ZM484.392 186.119C484.392 186.119 484.392 186.119 484.392 186.119ZM471.968 186.46C471.968 186.022 472.318 185.667 472.75 185.667H476.916C477.348 185.667 477.698 186.022 477.698 186.46C477.698 186.898 477.348 187.253 476.916 187.253H472.75C472.318 187.253 471.968 186.898 471.968 186.46Z" fill="#E2E4E5"/>
</g>
<defs>
<clipPath id="clip0_5616_1495">
<rect width="540" height="410" fill="white"/>
</clipPath>
</defs>
</svg>
