<svg fill="none" height="410" viewBox="0 0 540 410" width="540" xmlns="http://www.w3.org/2000/svg"><path d="m0 0h540v410h-540z" fill="#fcf7f4"/><path d="m165.901 53.657h-4.801l-.825 2.343h-1.964l4.109-11.484h2.178l4.108 11.484h-1.98zm-.528-1.5345-1.864-5.3295-1.881 5.3295zm6.5-3.894c.275-.462.638-.8195 1.089-1.0725.462-.264 1.007-.396 1.634-.396v1.947h-.479c-.737 0-1.298.187-1.683.561-.374.374-.561 1.023-.561 1.947v4.785h-1.881v-9.0915h1.881zm4.909-2.5245c-.341 0-.627-.1155-.858-.3465s-.347-.517-.347-.858.116-.627.347-.858.517-.3465.858-.3465c.33 0 .61.1155.841.3465s.347.517.347.858-.116.627-.347.858-.511.3465-.841.3465zm.924 1.2045v9.0915h-1.881v-9.0915zm10.302 4.323c0 .341-.022.649-.066.924h-6.947c.055.726.325 1.309.809 1.749s1.078.66 1.782.66c1.012 0 1.727-.4235 2.145-1.2705h2.029c-.275.836-.775 1.5235-1.501 2.0625-.715.528-1.606.792-2.673.792-.869 0-1.65-.1925-2.343-.5775-.682-.396-1.221-.946-1.617-1.65-.385-.715-.578-1.54-.578-2.475s.187-1.7545.561-2.4585c.385-.715.919-1.265 1.601-1.65.693-.385 1.485-.5775 2.376-.5775.858 0 1.622.187 2.293.561s1.194.902 1.568 1.584c.374.671.561 1.4465.561 2.3265zm-1.964-.594c-.011-.693-.258-1.2485-.742-1.6665s-1.084-.627-1.799-.627c-.649 0-1.204.209-1.666.627-.462.407-.737.9625-.825 1.6665zm5.196-6.8475v12.21h-1.881v-12.21zm17.834.7425v11.4675h-1.881v-7.854l-3.498 7.854h-1.304l-3.514-7.854v7.854h-1.881v-11.4675h2.029l4.026 8.9925 4.01-8.9925zm1.345 6.8805c0-.913.187-1.7215.561-2.4255.385-.704.902-1.2485 1.551-1.6335.66-.396 1.386-.594 2.178-.594.715 0 1.337.143 1.865.429.539.275.968.6215 1.287 1.0395v-1.32h1.897v9.0915h-1.897v-1.353c-.319.429-.754.7865-1.304 1.0725s-1.177.429-1.881.429c-.781 0-1.496-.198-2.145-.594-.649-.407-1.166-.968-1.551-1.683-.374-.726-.561-1.5455-.561-2.4585zm7.442.033c0-.627-.132-1.1715-.396-1.6335-.253-.462-.589-.814-1.007-1.056s-.869-.363-1.353-.363-.935.121-1.353.363c-.418.231-.759.5775-1.023 1.0395-.253.451-.379.99-.379 1.617s.126 1.177.379 1.65c.264.473.605.836 1.023 1.089.429.242.88.363 1.353.363.484 0 .935-.121 1.353-.363s.754-.594 1.007-1.056c.264-.473.396-1.023.396-1.65zm5.534 3.0195h4.125v1.5345h-6.303v-1.5345l4.142-6.0225h-4.142v-1.5345h6.303v1.5345zm9.544 1.683c-.858 0-1.634-.1925-2.327-.5775-.693-.396-1.237-.946-1.633-1.65-.396-.715-.594-1.54-.594-2.475 0-.924.203-1.7435.61-2.4585s.963-1.265 1.667-1.65 1.49-.5775 2.359-.5775 1.656.1925 2.36.5775 1.259.935 1.666 1.65.611 1.5345.611 2.4585-.209 1.7435-.627 2.4585-.99 1.2705-1.716 1.6665c-.715.385-1.507.5775-2.376.5775zm0-1.6335c.484 0 .935-.1155 1.353-.3465.429-.231.775-.5775 1.039-1.0395s.396-1.023.396-1.683-.126-1.2155-.379-1.6665c-.253-.462-.589-.8085-1.007-1.0395s-.869-.3465-1.353-.3465-.935.1155-1.353.3465c-.407.231-.731.5775-.973 1.0395-.242.451-.363 1.0065-.363 1.6665 0 .979.247 1.738.742 2.277.506.528 1.139.792 1.898.792zm7.959-6.2865c.275-.462.638-.8195 1.089-1.0725.462-.264 1.007-.396 1.634-.396v1.947h-.479c-.737 0-1.298.187-1.683.561-.374.374-.561 1.023-.561 1.947v4.785h-1.881v-9.0915h1.881z" fill="#1f8df1"/><path d="m40.824 44.816v.928h-3.104v10.256h-1.12v-10.256h-3.12v-.928zm1.2565 6.8c0-.896.176-1.68.528-2.352.3627-.6827.8587-1.2053 1.488-1.568.64-.3733 1.36-.56 2.16-.56.832 0 1.5467.192 2.144.576.608.384 1.0453.8747 1.312 1.472v-1.92h1.12v8.736h-1.12v-1.936c-.2773.5973-.72 1.0933-1.328 1.488-.5973.384-1.312.576-2.144.576-.7893 0-1.504-.1867-2.144-.56-.6293-.3733-1.1253-.9013-1.488-1.584-.352-.6827-.528-1.472-.528-2.368zm7.632.016c0-.704-.144-1.3227-.432-1.856s-.6827-.944-1.184-1.232c-.4907-.288-1.0347-.432-1.632-.432-.6187 0-1.1733.1387-1.664.416s-.88.6827-1.168 1.216c-.2773.5227-.416 1.1467-.416 1.872 0 .7147.1387 1.344.416 1.888.288.5333.6773.944 1.168 1.232.4907.2773 1.0453.416 1.664.416.5973 0 1.1413-.144 1.632-.432.5013-.288.896-.6987 1.184-1.232s.432-1.152.432-1.856zm6.6849 4.496c-1.0027 0-1.824-.2293-2.464-.688-.6294-.4693-.9814-1.104-1.056-1.904h1.152c.0533.4907.2826.8907.688 1.2.416.2987.9706.448 1.664.448.608 0 1.0826-.144 1.424-.432.352-.288.528-.6453.528-1.072 0-.2987-.096-.544-.288-.736s-.4374-.3413-.736-.448c-.288-.1173-.6827-.24-1.184-.368-.6507-.1707-1.1787-.3413-1.584-.512-.4054-.1707-.752-.4213-1.04-.752-.2774-.3413-.416-.7947-.416-1.36 0-.4267.128-.8213.384-1.184s.6186-.6507 1.088-.864c.4693-.2133 1.0026-.32 1.6-.32.9386 0 1.696.24 2.272.72.576.4693.8853 1.12.928 1.952h-1.12c-.032-.512-.2347-.9227-.608-1.232-.3627-.32-.864-.48-1.504-.48-.5654 0-1.024.1333-1.376.4s-.528.5973-.528.992c0 .3413.1013.624.304.848.2133.2133.4746.384.784.512.3093.1173.7253.2507 1.248.4.6293.1707 1.1306.336 1.504.496.3733.16.6933.3947.96.704.2666.3093.4053.72.416 1.232 0 .4693-.128.8907-.384 1.264-.256.3627-.6134.6507-1.072.864-.4587.2133-.9867.32-1.584.32zm9.8682-.128-3.6-3.92v3.92h-1.12v-11.84h1.12v7.008l3.52-3.904h1.568l-4.144 4.352 4.176 4.384zm13.3102 0-2.768-4.672h-2.064v4.672h-1.12v-11.184h3.36c1.248 0 2.192.2987 2.832.896.6506.5973.9759 1.3813.9759 2.352 0 .8107-.2346 1.504-.7039 2.08-.4587.5653-1.1414.9333-2.048 1.104l2.88 4.752zm-4.832-5.584h2.256c.8746 0 1.5306-.2133 1.968-.64.448-.4267.672-.9973.672-1.712 0-.736-.2134-1.3013-.64-1.696-.4267-.4053-1.0987-.608-2.016-.608h-2.24zm16.1746.768c0 .384-.0107.6773-.032.88h-7.248c.032.6613.192 1.2267.48 1.696s.6666.8267 1.136 1.072c.4693.2347.9813.352 1.536.352.7253 0 1.3333-.176 1.824-.528.5013-.352.832-.8267.992-1.424h1.184c-.2134.8533-.672 1.552-1.376 2.096-.6934.5333-1.568.8-2.624.8-.8214 0-1.5574-.1813-2.208-.544-.6507-.3733-1.1627-.896-1.536-1.568-.3627-.6827-.544-1.4773-.544-2.384s.1813-1.7013.544-2.384c.3626-.6827.8693-1.2053 1.52-1.568.6506-.3627 1.392-.544 2.224-.544s1.5573.1813 2.176.544c.6293.3627 1.1093.8533 1.44 1.472.3413.608.512 1.2853.512 2.032zm-1.136-.032c.0106-.6507-.1227-1.2053-.4-1.664-.2667-.4587-.6347-.8053-1.104-1.04-.4694-.2347-.9814-.352-1.536-.352-.832 0-1.5414.2667-2.128.8-.5867.5333-.912 1.2853-.976 2.256zm2.6731.464c0-.896.1813-1.68.544-2.352.3627-.6827.8587-1.2053 1.488-1.568.64-.3733 1.36-.56 2.16-.56.8213 0 1.536.1973 2.144.592.608.384 1.04.8693 1.2965 1.456v-1.92h1.12v12.864h-1.12v-6.048c-.2565.5867-.6938 1.0773-1.3125 1.472-.608.384-1.328.576-2.16.576-.7893 0-1.504-.1867-2.144-.56-.6293-.3733-1.1253-.9013-1.488-1.584-.352-.6827-.528-1.472-.528-2.368zm7.6325.016c0-.704-.1445-1.3227-.4325-1.856s-.6827-.944-1.184-1.232c-.4907-.288-1.0347-.432-1.632-.432-.6187 0-1.1733.1387-1.664.416s-.88.6827-1.168 1.216c-.2773.5227-.416 1.1467-.416 1.872 0 .7147.1387 1.344.416 1.888.288.5333.6773.944 1.168 1.232.4907.2773 1.0453.416 1.664.416.5973 0 1.1413-.144 1.632-.432.5013-.288.896-.6987 1.184-1.232s.4325-1.152.4325-1.856zm11.244-4.368v8.736h-1.12v-1.536c-.256.544-.65.96-1.184 1.248-.533.288-1.13.432-1.792.432-1.045 0-1.898-.32-2.56-.96-.661-.6507-.992-1.5893-.992-2.816v-5.104h1.104v4.976c0 .9493.235 1.6747.704 2.176.48.5013 1.131.752 1.952.752.843 0 1.515-.2667 2.016-.8.502-.5333.752-1.3173.752-2.352v-4.752zm10.461 3.92c0 .384-.01.6773-.032.88h-7.248c.032.6613.192 1.2267.48 1.696s.667.8267 1.136 1.072c.47.2347.982.352 1.536.352.726 0 1.334-.176 1.824-.528.502-.352.832-.8267.992-1.424h1.184c-.213.8533-.672 1.552-1.376 2.096-.693.5333-1.568.8-2.624.8-.821 0-1.557-.1813-2.208-.544-.65-.3733-1.162-.896-1.536-1.568-.362-.6827-.544-1.4773-.544-2.384s.182-1.7013.544-2.384c.363-.6827.87-1.2053 1.52-1.568.651-.3627 1.392-.544 2.224-.544s1.558.1813 2.176.544c.63.3627 1.11.8533 1.44 1.472.342.608.512 1.2853.512 2.032zm-1.136-.032c.011-.6507-.122-1.2053-.4-1.664-.266-.4587-.634-.8053-1.104-1.04-.469-.2347-.981-.352-1.536-.352-.832 0-1.541.2667-2.128.8-.586.5333-.912 1.2853-.976 2.256zm6.194 4.976c-1.003 0-1.824-.2293-2.464-.688-.63-.4693-.982-1.104-1.056-1.904h1.152c.053.4907.282.8907.688 1.2.416.2987.97.448 1.664.448.608 0 1.082-.144 1.424-.432.352-.288.528-.6453.528-1.072 0-.2987-.096-.544-.288-.736s-.438-.3413-.736-.448c-.288-.1173-.683-.24-1.184-.368-.651-.1707-1.179-.3413-1.584-.512-.406-.1707-.752-.4213-1.04-.752-.278-.3413-.416-.7947-.416-1.36 0-.4267.128-.8213.384-1.184s.618-.6507 1.088-.864c.469-.2133 1.002-.32 1.6-.32.938 0 1.696.24 2.272.72.576.4693.885 1.12.928 1.952h-1.12c-.032-.512-.235-.9227-.608-1.232-.363-.32-.864-.48-1.504-.48-.566 0-1.024.1333-1.376.4s-.529.5973-.529.992c0 .3413.102.624.305.848.213.2133.474.384.784.512.309.1173.725.2507 1.248.4.629.1707 1.13.336 1.504.496.373.16.693.3947.96.704.266.3093.405.72.416 1.232 0 .4693-.128.8907-.384 1.264-.256.3627-.614.6507-1.072.864-.459.2133-.987.32-1.584.32zm6.604-7.92v5.424c0 .5333.101.9013.304 1.104.202.2027.56.304 1.072.304h1.024v.96h-1.2c-.79 0-1.376-.1813-1.76-.544-.384-.3733-.576-.9813-.576-1.824v-5.424h-1.216v-.944h1.216v-2.192h1.136v2.192h2.4v.944z" fill="#000"/><path d="m147 37h.75v26h-.75z" fill="#000"/><path d="m31 76h467v1h-467z" fill="#ff5e1a"/><path d="m41.55 123.117v11.883h-1.19v-11.883zm11.7118 2.431c1.1107 0 2.0173.346 2.72 1.037.7027.68 1.054 1.672 1.054 2.975v5.44h-1.173v-5.304c0-1.009-.255-1.779-.765-2.312-.4987-.533-1.1843-.799-2.057-.799-.8953 0-1.6093.283-2.142.85s-.799 1.4-.799 2.499v5.066h-1.19v-9.282h1.19v1.581c.2947-.567.7197-.997 1.275-1.292.5553-.306 1.1843-.459 1.887-.459zm14.8038 4.335c0 .408-.0113.72-.034.935h-7.701c.034.703.204 1.303.51 1.802s.7084.878 1.207 1.139c.4987.249 1.0427.374 1.632.374.7707 0 1.4167-.187 1.938-.561.5327-.374.884-.878 1.054-1.513h1.258c-.2266.907-.714 1.649-1.462 2.227-.7366.567-1.666.85-2.788.85-.8726 0-1.6546-.193-2.346-.578-.6913-.397-1.2353-.952-1.632-1.666-.3853-.725-.578-1.57-.578-2.533s.1927-1.808.578-2.533c.3854-.725.9237-1.281 1.615-1.666.6914-.385 1.479-.578 2.363-.578s1.6547.193 2.312.578c.6687.385 1.1787.907 1.53 1.564.3627.646.544 1.366.544 2.159zm-1.207-.034c.0114-.691-.1303-1.281-.425-1.768-.2833-.487-.6743-.856-1.173-1.105-.4986-.249-1.0426-.374-1.632-.374-.884 0-1.6376.283-2.261.85-.6233.567-.969 1.366-1.037 2.397zm11.7822.034c0 .408-.0113.72-.034.935h-7.701c.034.703.204 1.303.51 1.802s.7083.878 1.207 1.139c.4987.249 1.0427.374 1.632.374.7707 0 1.4167-.187 1.938-.561.5327-.374.884-.878 1.054-1.513h1.258c-.2267.907-.714 1.649-1.462 2.227-.7367.567-1.666.85-2.788.85-.8727 0-1.6547-.193-2.346-.578-.6913-.397-1.2353-.952-1.632-1.666-.3853-.725-.578-1.57-.578-2.533s.1927-1.808.578-2.533.9237-1.281 1.615-1.666 1.479-.578 2.363-.578 1.6547.193 2.312.578c.6687.385 1.1787.907 1.53 1.564.3627.646.544 1.366.544 2.159zm-1.207-.034c.0113-.691-.1303-1.281-.425-1.768-.2833-.487-.6743-.856-1.173-1.105s-1.0427-.374-1.632-.374c-.884 0-1.6377.283-2.261.85s-.969 1.366-1.037 2.397zm2.8402.493c0-.952.1927-1.785.578-2.499.3853-.725.9123-1.281 1.581-1.666.68-.397 1.445-.595 2.295-.595.816 0 1.5527.198 2.21.595s1.139.912 1.445 1.547v-5.304h1.19v12.58h-1.19v-2.074c-.2833.646-.748 1.179-1.394 1.598-.646.408-1.4053.612-2.278.612-.85 0-1.615-.198-2.295-.595-.6687-.397-1.1957-.958-1.581-1.683-.374-.725-.561-1.564-.561-2.516zm8.109.017c0-.748-.153-1.405-.459-1.972s-.7253-1.003-1.258-1.309c-.5213-.306-1.0993-.459-1.734-.459-.6573 0-1.2467.147-1.768.442s-.935.725-1.241 1.292c-.2947.555-.442 1.218-.442 1.989 0 .759.1473 1.428.442 2.006.306.567.7197 1.003 1.241 1.309.5213.295 1.1107.442 1.768.442.6347 0 1.2127-.153 1.734-.459.5327-.306.952-.742 1.258-1.309s.459-1.224.459-1.972zm12.992-4.811c.702 0 1.331.147 1.887.442.566.295 1.008.748 1.326 1.36.328.601.493 1.337.493 2.21v5.44h-1.173v-5.304c0-1.009-.255-1.779-.765-2.312-.499-.533-1.185-.799-2.057-.799-.896 0-1.6096.283-2.1423.85-.5326.567-.799 1.4-.799 2.499v5.066h-1.19v-12.58h1.19v4.879c.2947-.555.7254-.986 1.292-1.292.5783-.306 1.2243-.459 1.9383-.459zm14.736 4.335c0 .408-.012.72-.034.935h-7.701c.034.703.204 1.303.51 1.802s.708.878 1.207 1.139c.498.249 1.042.374 1.632.374.77 0 1.416-.187 1.938-.561.532-.374.884-.878 1.054-1.513h1.258c-.227.907-.714 1.649-1.462 2.227-.737.567-1.666.85-2.788.85-.873 0-1.655-.193-2.346-.578-.692-.397-1.236-.952-1.632-1.666-.386-.725-.578-1.57-.578-2.533s.192-1.808.578-2.533c.385-.725.923-1.281 1.615-1.666.691-.385 1.479-.578 2.363-.578s1.654.193 2.312.578c.668.385 1.178.907 1.53 1.564.362.646.544 1.366.544 2.159zm-1.207-.034c.011-.691-.131-1.281-.425-1.768-.284-.487-.675-.856-1.173-1.105-.499-.249-1.043-.374-1.632-.374-.884 0-1.638.283-2.261.85-.624.567-.969 1.366-1.037 2.397zm4.574-7.429v12.58h-1.19v-12.58zm3.868 5.338c.294-.623.759-1.139 1.394-1.547.646-.419 1.411-.629 2.295-.629.838 0 1.592.198 2.261.595.68.385 1.207.941 1.581 1.666.385.714.578 1.547.578 2.499s-.193 1.791-.578 2.516c-.374.725-.901 1.286-1.581 1.683-.669.397-1.423.595-2.261.595-.873 0-1.632-.204-2.278-.612-.646-.419-1.117-.941-1.411-1.564v6.426h-1.173v-13.668h1.173zm6.902 2.584c0-.771-.153-1.434-.46-1.989-.294-.567-.702-.997-1.223-1.292-.522-.295-1.111-.442-1.768-.442-.635 0-1.219.153-1.751.459-.522.306-.935.742-1.241 1.309s-.459 1.224-.459 1.972.153 1.405.459 1.972.719 1.003 1.241 1.309c.532.306 1.116.459 1.751.459.657 0 1.246-.147 1.768-.442.521-.306.929-.742 1.223-1.309.307-.578.46-1.247.46-2.006zm20.301-4.624-2.907 9.282h-1.19l-2.567-7.786-2.567 7.786h-1.207l-2.907-9.282h1.207l2.312 8.075 2.601-8.075h1.19l2.567 8.092 2.295-8.092zm2.218-1.751c-.238 0-.442-.085-.612-.255s-.255-.38-.255-.629.085-.453.255-.612c.17-.17.374-.255.612-.255s.442.085.612.255c.17.159.255.363.255.612s-.085.459-.255.629-.374.255-.612.255zm.595 1.751v9.282h-1.19v-9.282zm4.241 1.003v5.763c0 .567.108.958.323 1.173.216.215.595.323 1.139.323h1.088v1.02h-1.275c-.838 0-1.462-.193-1.87-.578-.408-.397-.612-1.043-.612-1.938v-5.763h-1.292v-1.003h1.292v-2.329h1.207v2.329h2.55v1.003zm8.933-1.173c.703 0 1.332.147 1.887.442.567.295 1.009.748 1.326 1.36.329.601.493 1.337.493 2.21v5.44h-1.173v-5.304c0-1.009-.255-1.779-.765-2.312-.499-.533-1.184-.799-2.057-.799-.895 0-1.609.283-2.142.85s-.799 1.4-.799 2.499v5.066h-1.19v-12.58h1.19v4.879c.295-.555.725-.986 1.292-1.292.578-.306 1.224-.459 1.938-.459zm10.459 4.811c0-.963.192-1.802.578-2.516.385-.725.918-1.281 1.598-1.666.68-.397 1.456-.595 2.329-.595 1.144 0 2.085.283 2.822.85.748.567 1.229 1.337 1.445 2.312h-1.275c-.159-.669-.505-1.19-1.037-1.564-.522-.385-1.173-.578-1.955-.578-.624 0-1.185.142-1.683.425-.499.283-.896.708-1.19 1.275-.284.555-.425 1.241-.425 2.057s.141 1.507.425 2.074c.294.567.691.992 1.19 1.275.498.283 1.059.425 1.683.425.782 0 1.433-.187 1.955-.561.532-.385.878-.918 1.037-1.598h1.275c-.216.952-.697 1.717-1.445 2.295s-1.689.867-2.822.867c-.873 0-1.649-.193-2.329-.578-.68-.397-1.213-.952-1.598-1.666-.386-.725-.578-1.57-.578-2.533zm10.425-.017c0-.952.187-1.785.561-2.499.386-.725.913-1.281 1.581-1.666.68-.397 1.445-.595 2.295-.595.884 0 1.644.204 2.278.612.646.408 1.111.929 1.394 1.564v-2.04h1.19v9.282h-1.19v-2.057c-.294.635-.765 1.162-1.411 1.581-.634.408-1.394.612-2.278.612-.838 0-1.598-.198-2.278-.595-.668-.397-1.195-.958-1.581-1.683-.374-.725-.561-1.564-.561-2.516zm8.109.017c0-.748-.153-1.405-.459-1.972s-.725-1.003-1.258-1.309c-.521-.306-1.099-.459-1.734-.459-.657 0-1.246.147-1.768.442-.521.295-.935.725-1.241 1.292-.294.555-.442 1.218-.442 1.989 0 .759.148 1.428.442 2.006.306.567.72 1.003 1.241 1.309.522.295 1.111.442 1.768.442.635 0 1.213-.153 1.734-.459.533-.306.952-.742 1.258-1.309s.459-1.224.459-1.972zm5.097-7.939v12.58h-1.19v-12.58zm2.151 7.939c0-.963.193-1.802.578-2.516.385-.725.918-1.281 1.598-1.666.68-.397 1.456-.595 2.329-.595 1.145 0 2.085.283 2.822.85.748.567 1.23 1.337 1.445 2.312h-1.275c-.159-.669-.504-1.19-1.037-1.564-.521-.385-1.173-.578-1.955-.578-.623 0-1.184.142-1.683.425s-.895.708-1.19 1.275c-.283.555-.425 1.241-.425 2.057s.142 1.507.425 2.074c.295.567.691.992 1.19 1.275s1.06.425 1.683.425c.782 0 1.434-.187 1.955-.561.533-.385.878-.918 1.037-1.598h1.275c-.215.952-.697 1.717-1.445 2.295s-1.689.867-2.822.867c-.873 0-1.649-.193-2.329-.578-.68-.397-1.213-.952-1.598-1.666-.385-.725-.578-1.57-.578-2.533zm19.011-4.641v9.282h-1.19v-1.632c-.272.578-.692 1.02-1.258 1.326-.567.306-1.202.459-1.904.459-1.111 0-2.018-.34-2.72-1.02-.703-.691-1.054-1.689-1.054-2.992v-5.423h1.173v5.287c0 1.009.249 1.779.748 2.312.51.533 1.201.799 2.074.799.895 0 1.609-.283 2.142-.85.532-.567.799-1.4.799-2.499v-5.049zm3.907-3.298v12.58h-1.19v-12.58zm10.735 3.298v9.282h-1.19v-1.632c-.272.578-.691 1.02-1.258 1.326-.566.306-1.201.459-1.904.459-1.11 0-2.017-.34-2.72-1.02-.702-.691-1.054-1.689-1.054-2.992v-5.423h1.173v5.287c0 1.009.25 1.779.748 2.312.51.533 1.202.799 2.074.799.896 0 1.61-.283 2.142-.85.533-.567.799-1.4.799-2.499v-5.049zm5.913 9.418c-1.065 0-1.938-.244-2.618-.731-.669-.499-1.043-1.173-1.122-2.023h1.224c.057.521.3.946.731 1.275.442.317 1.031.476 1.768.476.646 0 1.15-.153 1.513-.459.374-.306.561-.686.561-1.139 0-.317-.102-.578-.306-.782s-.465-.363-.782-.476c-.306-.125-.725-.255-1.258-.391-.691-.181-1.252-.363-1.683-.544s-.799-.448-1.105-.799c-.295-.363-.442-.844-.442-1.445 0-.453.136-.873.408-1.258s.657-.691 1.156-.918 1.065-.34 1.7-.34c.997 0 1.802.255 2.414.765.612.499.941 1.19.986 2.074h-1.19c-.034-.544-.249-.98-.646-1.309-.385-.34-.918-.51-1.598-.51-.601 0-1.088.142-1.462.425s-.561.635-.561 1.054c0 .363.108.663.323.901.227.227.504.408.833.544.329.125.771.266 1.326.425.669.181 1.201.357 1.598.527s.737.419 1.02.748.431.765.442 1.309c0 .499-.136.946-.408 1.343-.272.385-.652.691-1.139.918s-1.048.34-1.683.34zm6.558-2.108-1.768 4.454h-.816l1.258-4.454zm9.712 2.108c-1.066 0-1.938-.244-2.618-.731-.669-.499-1.043-1.173-1.122-2.023h1.224c.056.521.3.946.731 1.275.442.317 1.031.476 1.768.476.646 0 1.15-.153 1.513-.459.374-.306.561-.686.561-1.139 0-.317-.102-.578-.306-.782s-.465-.363-.782-.476c-.306-.125-.726-.255-1.258-.391-.692-.181-1.253-.363-1.683-.544-.431-.181-.799-.448-1.105-.799-.295-.363-.442-.844-.442-1.445 0-.453.136-.873.408-1.258s.657-.691 1.156-.918c.498-.227 1.065-.34 1.7-.34.997 0 1.802.255 2.414.765.612.499.94 1.19.986 2.074h-1.19c-.034-.544-.25-.98-.646-1.309-.386-.34-.918-.51-1.598-.51-.601 0-1.088.142-1.462.425s-.561.635-.561 1.054c0 .363.107.663.323.901.226.227.504.408.833.544.328.125.77.266 1.326.425.668.181 1.201.357 1.598.527.396.17.736.419 1.02.748.283.329.43.765.442 1.309 0 .499-.136.946-.408 1.343-.272.385-.652.691-1.139.918-.488.227-1.049.34-1.683.34zm6.643-7.378c.294-.623.759-1.139 1.394-1.547.646-.419 1.411-.629 2.295-.629.838 0 1.592.198 2.261.595.68.385 1.207.941 1.581 1.666.385.714.578 1.547.578 2.499s-.193 1.791-.578 2.516c-.374.725-.901 1.286-1.581 1.683-.669.397-1.423.595-2.261.595-.873 0-1.632-.204-2.278-.612-.646-.419-1.117-.941-1.411-1.564v6.426h-1.173v-13.668h1.173zm6.902 2.584c0-.771-.153-1.434-.459-1.989-.295-.567-.703-.997-1.224-1.292-.522-.295-1.111-.442-1.768-.442-.635 0-1.219.153-1.751.459-.522.306-.935.742-1.241 1.309s-.459 1.224-.459 1.972.153 1.405.459 1.972.719 1.003 1.241 1.309c.532.306 1.116.459 1.751.459.657 0 1.246-.147 1.768-.442.521-.306.929-.742 1.224-1.309.306-.578.459-1.247.459-2.006zm11.794-.459c0 .408-.011.72-.034.935h-7.701c.034.703.204 1.303.51 1.802s.709.878 1.207 1.139c.499.249 1.043.374 1.632.374.771 0 1.417-.187 1.938-.561.533-.374.884-.878 1.054-1.513h1.258c-.226.907-.714 1.649-1.462 2.227-.736.567-1.666.85-2.788.85-.872 0-1.654-.193-2.346-.578-.691-.397-1.235-.952-1.632-1.666-.385-.725-.578-1.57-.578-2.533s.193-1.808.578-2.533c.386-.725.924-1.281 1.615-1.666.692-.385 1.479-.578 2.363-.578s1.655.193 2.312.578c.669.385 1.179.907 1.53 1.564.363.646.544 1.366.544 2.159zm-1.207-.034c.012-.691-.13-1.281-.425-1.768-.283-.487-.674-.856-1.173-1.105-.498-.249-1.042-.374-1.632-.374-.884 0-1.637.283-2.261.85-.623.567-.969 1.366-1.037 2.397zm2.841.51c0-.963.192-1.802.578-2.516.385-.725.918-1.281 1.598-1.666.68-.397 1.456-.595 2.329-.595 1.144 0 2.085.283 2.822.85.748.567 1.229 1.337 1.445 2.312h-1.275c-.159-.669-.505-1.19-1.037-1.564-.522-.385-1.173-.578-1.955-.578-.624 0-1.185.142-1.683.425-.499.283-.896.708-1.19 1.275-.284.555-.425 1.241-.425 2.057s.141 1.507.425 2.074c.294.567.691.992 1.19 1.275.498.283 1.059.425 1.683.425.782 0 1.433-.187 1.955-.561.532-.385.878-.918 1.037-1.598h1.275c-.216.952-.697 1.717-1.445 2.295s-1.689.867-2.822.867c-.873 0-1.649-.193-2.329-.578-.68-.397-1.213-.952-1.598-1.666-.386-.725-.578-1.57-.578-2.533zm11.564-6.392c-.238 0-.442-.085-.612-.255s-.255-.38-.255-.629.085-.453.255-.612c.17-.17.374-.255.612-.255s.442.085.612.255c.17.159.255.363.255.612s-.085.459-.255.629-.374.255-.612.255zm.595 1.751v9.282h-1.19v-9.282zm6.35 1.003h-2.159v8.279h-1.19v-8.279h-1.292v-1.003h1.292v-.646c0-1.009.255-1.751.765-2.227.521-.476 1.36-.714 2.516-.714v1.02c-.771 0-1.315.147-1.632.442-.306.295-.459.788-.459 1.479v.646h2.159zm2.468-2.754c-.238 0-.442-.085-.612-.255s-.255-.38-.255-.629.085-.453.255-.612c.17-.17.374-.255.612-.255s.442.085.612.255c.17.159.255.363.255.612s-.085.459-.255.629-.374.255-.612.255zm.595 1.751v9.282h-1.19v-9.282zm2.151 4.641c0-.963.193-1.802.578-2.516.385-.725.918-1.281 1.598-1.666.68-.397 1.456-.595 2.329-.595 1.145 0 2.085.283 2.822.85.748.567 1.23 1.337 1.445 2.312h-1.275c-.159-.669-.504-1.19-1.037-1.564-.521-.385-1.173-.578-1.955-.578-.623 0-1.184.142-1.683.425s-.895.708-1.19 1.275c-.283.555-.425 1.241-.425 2.057s.142 1.507.425 2.074c.295.567.691.992 1.19 1.275s1.06.425 1.683.425c.782 0 1.434-.187 1.955-.561.533-.385.878-.918 1.037-1.598h1.275c-.215.952-.697 1.717-1.445 2.295s-1.689.867-2.822.867c-.873 0-1.649-.193-2.329-.578-.68-.397-1.213-.952-1.598-1.666-.385-.725-.578-1.57-.578-2.533zm10.426-.017c0-.952.187-1.785.561-2.499.385-.725.912-1.281 1.581-1.666.68-.397 1.445-.595 2.295-.595.884 0 1.643.204 2.278.612.646.408 1.111.929 1.394 1.564v-2.04h1.19v9.282h-1.19v-2.057c-.295.635-.765 1.162-1.411 1.581-.635.408-1.394.612-2.278.612-.839 0-1.598-.198-2.278-.595-.669-.397-1.196-.958-1.581-1.683-.374-.725-.561-1.564-.561-2.516zm8.109.017c0-.748-.153-1.405-.459-1.972s-.725-1.003-1.258-1.309c-.521-.306-1.099-.459-1.734-.459-.657 0-1.247.147-1.768.442s-.935.725-1.241 1.292c-.295.555-.442 1.218-.442 1.989 0 .759.147 1.428.442 2.006.306.567.72 1.003 1.241 1.309.521.295 1.111.442 1.768.442.635 0 1.213-.153 1.734-.459.533-.306.952-.742 1.258-1.309s.459-1.224.459-1.972zm5.097-7.939v12.58h-1.19v-12.58zm3.884 0v12.58h-1.19v-12.58zm10.345 3.298-5.508 13.651h-1.241l1.802-4.42-3.808-9.231h1.309l3.162 7.922 3.06-7.922zm7.826 1.003v5.763c0 .567.108.958.323 1.173s.595.323 1.139.323h1.088v1.02h-1.275c-.839 0-1.462-.193-1.87-.578-.408-.397-.612-1.043-.612-1.938v-5.763h-1.292v-1.003h1.292v-2.329h1.207v2.329h2.55v1.003zm8.932-1.173c.703 0 1.332.147 1.887.442.567.295 1.009.748 1.326 1.36.329.601.493 1.337.493 2.21v5.44h-1.173v-5.304c0-1.009-.255-1.779-.765-2.312-.498-.533-1.184-.799-2.057-.799-.895 0-1.609.283-2.142.85-.532.567-.799 1.4-.799 2.499v5.066h-1.19v-12.58h1.19v4.879c.295-.555.726-.986 1.292-1.292.578-.306 1.224-.459 1.938-.459zm14.736 4.335c0 .408-.011.72-.034.935h-7.701c.034.703.204 1.303.51 1.802s.709.878 1.207 1.139c.499.249 1.043.374 1.632.374.771 0 1.417-.187 1.938-.561.533-.374.884-.878 1.054-1.513h1.258c-.226.907-.714 1.649-1.462 2.227-.736.567-1.666.85-2.788.85-.872 0-1.654-.193-2.346-.578-.691-.397-1.235-.952-1.632-1.666-.385-.725-.578-1.57-.578-2.533s.193-1.808.578-2.533c.386-.725.924-1.281 1.615-1.666.692-.385 1.479-.578 2.363-.578s1.655.193 2.312.578c.669.385 1.179.907 1.53 1.564.363.646.544 1.366.544 2.159zm-1.207-.034c.012-.691-.13-1.281-.425-1.768-.283-.487-.674-.856-1.173-1.105-.498-.249-1.042-.374-1.632-.374-.884 0-1.637.283-2.261.85-.623.567-.969 1.366-1.037 2.397zm7.505.51c0-.963.193-1.802.578-2.516.386-.725.918-1.281 1.598-1.666.68-.397 1.457-.595 2.329-.595 1.145 0 2.086.283 2.822.85.748.567 1.23 1.337 1.445 2.312h-1.275c-.158-.669-.504-1.19-1.037-1.564-.521-.385-1.173-.578-1.955-.578-.623 0-1.184.142-1.683.425-.498.283-.895.708-1.19 1.275-.283.555-.425 1.241-.425 2.057s.142 1.507.425 2.074c.295.567.692.992 1.19 1.275.499.283 1.06.425 1.683.425.782 0 1.434-.187 1.955-.561.533-.385.879-.918 1.037-1.598h1.275c-.215.952-.697 1.717-1.445 2.295s-1.688.867-2.822.867c-.872 0-1.649-.193-2.329-.578-.68-.397-1.212-.952-1.598-1.666-.385-.725-.578-1.57-.578-2.533zm15.39-4.811c.703 0 1.332.147 1.887.442.567.295 1.009.748 1.326 1.36.329.601.493 1.337.493 2.21v5.44h-1.173v-5.304c0-1.009-.255-1.779-.765-2.312-.498-.533-1.184-.799-2.057-.799-.895 0-1.609.283-2.142.85-.532.567-.799 1.4-.799 2.499v5.066h-1.19v-12.58h1.19v4.879c.295-.555.726-.986 1.292-1.292.578-.306 1.224-.459 1.938-.459zm5.794 4.794c0-.952.187-1.785.561-2.499.385-.725.912-1.281 1.581-1.666.68-.397 1.445-.595 2.295-.595.884 0 1.643.204 2.278.612.646.408 1.111.929 1.394 1.564v-2.04h1.19v9.282h-1.19v-2.057c-.295.635-.765 1.162-1.411 1.581-.635.408-1.394.612-2.278.612-.839 0-1.598-.198-2.278-.595-.669-.397-1.196-.958-1.581-1.683-.374-.725-.561-1.564-.561-2.516zm8.109.017c0-.748-.153-1.405-.459-1.972s-.725-1.003-1.258-1.309c-.521-.306-1.099-.459-1.734-.459-.657 0-1.247.147-1.768.442s-.935.725-1.241 1.292c-.295.555-.442 1.218-.442 1.989 0 .759.147 1.428.442 2.006.306.567.72 1.003 1.241 1.309.521.295 1.111.442 1.768.442.635 0 1.213-.153 1.734-.459.533-.306.952-.742 1.258-1.309s.459-1.224.459-1.972zm4.502-6.392c-.238 0-.442-.085-.612-.255s-.255-.38-.255-.629.085-.453.255-.612c.17-.17.374-.255.612-.255s.442.085.612.255c.17.159.255.363.255.612s-.085.459-.255.629-.374.255-.612.255zm.595 1.751v9.282h-1.19v-9.282zm7.047-.17c1.11 0 2.017.346 2.72 1.037.702.68 1.054 1.672 1.054 2.975v5.44h-1.173v-5.304c0-1.009-.255-1.779-.765-2.312-.499-.533-1.185-.799-2.057-.799-.896 0-1.61.283-2.142.85-.533.567-.799 1.4-.799 2.499v5.066h-1.19v-9.282h1.19v1.581c.294-.567.719-.997 1.275-1.292.555-.306 1.184-.459 1.887-.459zm12.26 1.819c.261-.578.658-1.026 1.19-1.343.544-.317 1.207-.476 1.989-.476v1.241h-.323c-.861 0-1.552.232-2.074.697-.521.465-.782 1.241-.782 2.329v5.185h-1.19v-9.282h1.19zm13.011-1.649v9.282h-1.19v-1.632c-.272.578-.692 1.02-1.258 1.326-.567.306-1.202.459-1.904.459-1.111 0-2.018-.34-2.72-1.02-.703-.691-1.054-1.689-1.054-2.992v-5.423h1.173v5.287c0 1.009.249 1.779.748 2.312.51.533 1.201.799 2.074.799.895 0 1.609-.283 2.142-.85.532-.567.799-1.4.799-2.499v-5.049zm3.906-3.298v12.58h-1.19v-12.58zm11.093 7.463c0 .408-.011.72-.034.935h-7.701c.034.703.204 1.303.51 1.802s.708.878 1.207 1.139c.499.249 1.043.374 1.632.374.771 0 1.417-.187 1.938-.561.533-.374.884-.878 1.054-1.513h1.258c-.227.907-.714 1.649-1.462 2.227-.737.567-1.666.85-2.788.85-.873 0-1.655-.193-2.346-.578-.691-.397-1.235-.952-1.632-1.666-.385-.725-.578-1.57-.578-2.533s.193-1.808.578-2.533.924-1.281 1.615-1.666 1.479-.578 2.363-.578 1.655.193 2.312.578c.669.385 1.179.907 1.53 1.564.363.646.544 1.366.544 2.159zm-1.207-.034c.011-.691-.13-1.281-.425-1.768-.283-.487-.674-.856-1.173-1.105s-1.043-.374-1.632-.374c-.884 0-1.638.283-2.261.85s-.969 1.366-1.037 2.397zm-425.646 26.493c0-.952.187-1.785.561-2.499.3853-.725.9123-1.281 1.581-1.666.68-.397 1.445-.595 2.295-.595.884 0 1.6433.204 2.278.612.646.408 1.1107.929 1.394 1.564v-2.04h1.19v9.282h-1.19v-2.057c-.2947.635-.765 1.162-1.411 1.581-.6347.408-1.394.612-2.278.612-.8387 0-1.598-.198-2.278-.595-.6687-.397-1.1957-.958-1.581-1.683-.374-.725-.561-1.564-.561-2.516zm8.109.017c0-.748-.153-1.405-.459-1.972s-.7253-1.003-1.258-1.309c-.5213-.306-1.0993-.459-1.734-.459-.6573 0-1.2467.147-1.768.442s-.935.725-1.241 1.292c-.2947.555-.442 1.218-.442 1.989 0 .759.1473 1.428.442 2.006.306.567.7197 1.003 1.241 1.309.5213.295 1.1107.442 1.768.442.6347 0 1.2127-.153 1.734-.459.5327-.306.952-.742 1.258-1.309s.459-1.224.459-1.972zm8.2587-4.811c1.1106 0 2.0173.346 2.72 1.037.7026.68 1.054 1.672 1.054 2.975v5.44h-1.173v-5.304c0-1.009-.255-1.779-.765-2.312-.4987-.533-1.1844-.799-2.057-.799-.8954 0-1.6094.283-2.142.85-.5327.567-.799 1.4-.799 2.499v5.066h-1.19v-9.282h1.19v1.581c.2946-.567.7196-.997 1.275-1.292.5553-.306 1.1843-.459 1.887-.459zm5.8618 4.794c0-.952.1927-1.785.578-2.499.3853-.725.9123-1.281 1.581-1.666.68-.397 1.445-.595 2.295-.595.816 0 1.5527.198 2.21.595s1.139.912 1.445 1.547v-5.304h1.19v12.58h-1.19v-2.074c-.2833.646-.748 1.179-1.394 1.598-.646.408-1.4053.612-2.278.612-.85 0-1.615-.198-2.295-.595-.6687-.397-1.1957-.958-1.581-1.683-.374-.725-.561-1.564-.561-2.516zm8.109.017c0-.748-.153-1.405-.459-1.972s-.7253-1.003-1.258-1.309c-.5213-.306-1.0993-.459-1.734-.459-.6573 0-1.2467.147-1.768.442s-.935.725-1.241 1.292c-.2947.555-.442 1.218-.442 1.989 0 .759.1473 1.428.442 2.006.306.567.7197 1.003 1.241 1.309.5213.295 1.1107.442 1.768.442.6347 0 1.2127-.153 1.734-.459.5327-.306.952-.742 1.258-1.309s.459-1.224.459-1.972zm9.1667-6.392c-.238 0-.442-.085-.612-.255s-.255-.38-.255-.629.085-.453.255-.612c.17-.17.374-.255.612-.255s.442.085.612.255c.17.159.255.363.255.612s-.085.459-.255.629-.374.255-.612.255zm.595 1.751v9.282h-1.19v-9.282zm7.0468-.17c1.1106 0 2.0173.346 2.72 1.037.7026.68 1.054 1.672 1.054 2.975v5.44h-1.173v-5.304c0-1.009-.255-1.779-.765-2.312-.4987-.533-1.1844-.799-2.057-.799-.8954 0-1.6094.283-2.142.85-.5327.567-.799 1.4-.799 2.499v5.066h-1.19v-9.282h1.19v1.581c.2946-.567.7196-.997 1.275-1.292.5553-.306 1.1843-.459 1.887-.459zm7.9528 1.173v5.763c0 .567.1077.958.323 1.173s.595.323 1.139.323h1.088v1.02h-1.275c-.8387 0-1.462-.193-1.87-.578-.408-.397-.612-1.043-.612-1.938v-5.763h-1.292v-1.003h1.292v-2.329h1.207v2.329h2.55v1.003zm12.9102 3.162c0 .408-.011.72-.034.935h-7.701c.034.703.204 1.303.51 1.802s.709.878 1.207 1.139c.499.249 1.043.374 1.632.374.771 0 1.417-.187 1.938-.561.533-.374.884-.878 1.054-1.513h1.258c-.226.907-.714 1.649-1.462 2.227-.736.567-1.666.85-2.788.85-.872 0-1.654-.193-2.346-.578-.691-.397-1.235-.952-1.6316-1.666-.3854-.725-.578-1.57-.578-2.533s.1926-1.808.578-2.533c.3853-.725.9236-1.281 1.6146-1.666.692-.385 1.479-.578 2.363-.578s1.655.193 2.312.578c.669.385 1.179.907 1.53 1.564.363.646.544 1.366.544 2.159zm-1.207-.034c.012-.691-.13-1.281-.425-1.768-.283-.487-.674-.856-1.173-1.105-.498-.249-1.042-.374-1.632-.374-.884 0-1.637.283-2.261.85-.623.567-.969 1.366-1.037 2.397zm7.278-4.267c.872 0 1.632.204 2.278.612s1.11.924 1.394 1.547v-2.023h1.19v9.52c0 .85-.187 1.604-.561 2.261-.363.657-.873 1.162-1.53 1.513-.658.363-1.406.544-2.244.544-1.19 0-2.182-.283-2.975-.85-.782-.567-1.27-1.337-1.462-2.312h1.173c.204.646.589 1.162 1.156 1.547.578.385 1.28.578 2.108.578.6 0 1.139-.13 1.615-.391.476-.249.85-.623 1.122-1.122s.408-1.088.408-1.768v-2.295c-.295.635-.765 1.162-1.411 1.581-.635.408-1.389.612-2.261.612-.85 0-1.615-.198-2.295-.595-.669-.397-1.196-.958-1.581-1.683-.374-.725-.561-1.564-.561-2.516s.187-1.785.561-2.499c.385-.725.912-1.281 1.581-1.666.68-.397 1.445-.595 2.295-.595zm3.672 4.777c0-.748-.153-1.405-.459-1.972s-.726-1.003-1.258-1.309c-.522-.306-1.1-.459-1.734-.459-.658 0-1.247.147-1.768.442-.522.295-.935.725-1.241 1.292-.295.555-.442 1.218-.442 1.989 0 .759.147 1.428.442 2.006.306.567.719 1.003 1.241 1.309.521.295 1.11.442 1.768.442.634 0 1.212-.153 1.734-.459.532-.306.952-.742 1.258-1.309s.459-1.224.459-1.972zm5.096-2.992c.261-.578.658-1.026 1.19-1.343.544-.317 1.207-.476 1.989-.476v1.241h-.323c-.861 0-1.552.232-2.074.697-.521.465-.782 1.241-.782 2.329v5.185h-1.19v-9.282h1.19zm4.425 2.975c0-.952.187-1.785.561-2.499.386-.725.913-1.281 1.581-1.666.68-.397 1.445-.595 2.295-.595.884 0 1.644.204 2.278.612.646.408 1.111.929 1.394 1.564v-2.04h1.19v9.282h-1.19v-2.057c-.294.635-.765 1.162-1.411 1.581-.634.408-1.394.612-2.278.612-.838 0-1.598-.198-2.278-.595-.668-.397-1.195-.958-1.581-1.683-.374-.725-.561-1.564-.561-2.516zm8.109.017c0-.748-.153-1.405-.459-1.972s-.725-1.003-1.258-1.309c-.521-.306-1.099-.459-1.734-.459-.657 0-1.246.147-1.768.442-.521.295-.935.725-1.241 1.292-.294.555-.442 1.218-.442 1.989 0 .759.148 1.428.442 2.006.306.567.72 1.003 1.241 1.309.522.295 1.111.442 1.768.442.635 0 1.213-.153 1.734-.459.533-.306.952-.742 1.258-1.309s.459-1.224.459-1.972zm5.454-3.638v5.763c0 .567.108.958.323 1.173s.595.323 1.139.323h1.088v1.02h-1.275c-.839 0-1.462-.193-1.87-.578-.408-.397-.612-1.043-.612-1.938v-5.763h-1.292v-1.003h1.292v-2.329h1.207v2.329h2.55v1.003zm5.108-2.754c-.238 0-.442-.085-.612-.255s-.255-.38-.255-.629.085-.453.255-.612c.17-.17.374-.255.612-.255s.442.085.612.255c.17.159.255.363.255.612s-.085.459-.255.629-.374.255-.612.255zm.595 1.751v9.282h-1.19v-9.282zm6.757 9.418c-.872 0-1.66-.193-2.363-.578-.691-.397-1.241-.952-1.649-1.666-.396-.725-.595-1.57-.595-2.533s.204-1.802.612-2.516c.408-.725.964-1.281 1.666-1.666.703-.397 1.491-.595 2.363-.595.873 0 1.661.198 2.363.595.714.385 1.27.941 1.666 1.666.408.714.612 1.553.612 2.516 0 .952-.204 1.791-.612 2.516s-.969 1.286-1.683 1.683c-.714.385-1.507.578-2.38.578zm0-1.037c.612 0 1.179-.136 1.7-.408.522-.283.941-.703 1.258-1.258.329-.567.493-1.258.493-2.074s-.158-1.502-.476-2.057c-.317-.567-.736-.986-1.258-1.258-.521-.283-1.088-.425-1.7-.425s-1.178.142-1.7.425c-.521.272-.94.691-1.258 1.258-.306.555-.459 1.241-.459 2.057s.153 1.507.459 2.074c.318.555.731.975 1.241 1.258.522.272 1.088.408 1.7.408zm11.197-8.551c1.11 0 2.017.346 2.72 1.037.702.68 1.054 1.672 1.054 2.975v5.44h-1.173v-5.304c0-1.009-.255-1.779-.765-2.312-.499-.533-1.185-.799-2.057-.799-.896 0-1.61.283-2.142.85-.533.567-.799 1.4-.799 2.499v5.066h-1.19v-9.282h1.19v1.581c.294-.567.719-.997 1.275-1.292.555-.306 1.184-.459 1.887-.459zm12.244 2.227c.306-.646.776-1.173 1.411-1.581.646-.408 1.405-.612 2.278-.612.85 0 1.609.198 2.278.595.668.385 1.19.941 1.564 1.666.385.714.578 1.547.578 2.499s-.193 1.791-.578 2.516c-.374.725-.901 1.286-1.581 1.683-.669.397-1.423.595-2.261.595-.884 0-1.649-.198-2.295-.595-.635-.408-1.1-.935-1.394-1.581v2.04h-1.173v-12.58h1.173zm6.902 2.567c0-.771-.153-1.434-.459-1.989-.295-.567-.703-.997-1.224-1.292-.522-.295-1.111-.442-1.768-.442-.635 0-1.219.153-1.751.459-.522.306-.935.742-1.241 1.309s-.459 1.224-.459 1.972.153 1.405.459 1.972.719 1.003 1.241 1.309c.532.306 1.116.459 1.751.459.657 0 1.246-.147 1.768-.442.521-.306.929-.742 1.224-1.309.306-.578.459-1.247.459-2.006zm11.046-4.624-5.508 13.651h-1.241l1.802-4.42-3.808-9.231h1.309l3.162 7.922 3.06-7.922zm7.452 2.04c.295-.623.759-1.139 1.394-1.547.646-.419 1.411-.629 2.295-.629.839 0 1.592.198 2.261.595.68.385 1.207.941 1.581 1.666.385.714.578 1.547.578 2.499s-.193 1.791-.578 2.516c-.374.725-.901 1.286-1.581 1.683-.669.397-1.422.595-2.261.595-.873 0-1.632-.204-2.278-.612-.646-.419-1.116-.941-1.411-1.564v6.426h-1.173v-13.668h1.173zm6.902 2.584c0-.771-.153-1.434-.459-1.989-.295-.567-.703-.997-1.224-1.292s-1.111-.442-1.768-.442c-.635 0-1.218.153-1.751.459-.521.306-.935.742-1.241 1.309s-.459 1.224-.459 1.972.153 1.405.459 1.972.72 1.003 1.241 1.309c.533.306 1.116.459 1.751.459.657 0 1.247-.147 1.768-.442.521-.306.929-.742 1.224-1.309.306-.578.459-1.247.459-2.006zm2.853 0c0-.952.187-1.785.561-2.499.385-.725.912-1.281 1.581-1.666.68-.397 1.445-.595 2.295-.595.884 0 1.643.204 2.278.612.646.408 1.11.929 1.394 1.564v-2.04h1.19v9.282h-1.19v-2.057c-.295.635-.765 1.162-1.411 1.581-.635.408-1.394.612-2.278.612-.839 0-1.598-.198-2.278-.595-.669-.397-1.196-.958-1.581-1.683-.374-.725-.561-1.564-.561-2.516zm8.109.017c0-.748-.153-1.405-.459-1.972s-.726-1.003-1.258-1.309c-.522-.306-1.1-.459-1.734-.459-.658 0-1.247.147-1.768.442-.522.295-.935.725-1.241 1.292-.295.555-.442 1.218-.442 1.989 0 .759.147 1.428.442 2.006.306.567.719 1.003 1.241 1.309.521.295 1.11.442 1.768.442.634 0 1.212-.153 1.734-.459.532-.306.952-.742 1.258-1.309s.459-1.224.459-1.972zm5.096-2.992c.261-.578.658-1.026 1.19-1.343.544-.317 1.207-.476 1.989-.476v1.241h-.323c-.861 0-1.552.232-2.074.697-.521.465-.782 1.241-.782 2.329v5.185h-1.19v-9.282h1.19zm6.516-.646v5.763c0 .567.108.958.323 1.173.216.215.595.323 1.139.323h1.088v1.02h-1.275c-.838 0-1.462-.193-1.87-.578-.408-.397-.612-1.043-.612-1.938v-5.763h-1.292v-1.003h1.292v-2.329h1.207v2.329h2.55v1.003zm7.709 8.415c-1.065 0-1.938-.244-2.618-.731-.669-.499-1.043-1.173-1.122-2.023h1.224c.057.521.3.946.731 1.275.442.317 1.031.476 1.768.476.646 0 1.15-.153 1.513-.459.374-.306.561-.686.561-1.139 0-.317-.102-.578-.306-.782s-.465-.363-.782-.476c-.306-.125-.725-.255-1.258-.391-.691-.181-1.252-.363-1.683-.544s-.799-.448-1.105-.799c-.295-.363-.442-.844-.442-1.445 0-.453.136-.873.408-1.258s.657-.691 1.156-.918 1.065-.34 1.7-.34c.997 0 1.802.255 2.414.765.612.499.941 1.19.986 2.074h-1.19c-.034-.544-.249-.98-.646-1.309-.385-.34-.918-.51-1.598-.51-.601 0-1.088.142-1.462.425s-.561.635-.561 1.054c0 .363.108.663.323.901.227.227.504.408.833.544.329.125.771.266 1.326.425.669.181 1.201.357 1.598.527s.737.419 1.02.748.431.765.442 1.309c0 .499-.136.946-.408 1.343-.272.385-.652.691-1.139.918s-1.048.34-1.683.34zm5.674-.051c-.249 0-.459-.085-.629-.255-.159-.17-.238-.38-.238-.629s.079-.453.238-.612c.17-.17.38-.255.629-.255.238 0 .436.085.595.255.17.159.255.363.255.612s-.085.459-.255.629c-.159.17-.357.255-.595.255zm7.005-6.035c0-1.167.255-2.21.765-3.128.51-.929 1.207-1.649 2.091-2.159.884-.521 1.87-.782 2.958-.782 1.326 0 2.459.317 3.4.952.952.623 1.643 1.507 2.074 2.652h-1.394c-.34-.805-.861-1.434-1.564-1.887-.691-.453-1.53-.68-2.516-.68-.873 0-1.66.204-2.363.612-.691.408-1.235.997-1.632 1.768-.397.759-.595 1.643-.595 2.652s.198 1.893.595 2.652.941 1.343 1.632 1.751c.703.408 1.49.612 2.363.612.986 0 1.825-.221 2.516-.663.703-.453 1.224-1.077 1.564-1.87h1.394c-.431 1.133-1.122 2.012-2.074 2.635s-2.085.935-3.4.935c-1.088 0-2.074-.255-2.958-.765-.884-.521-1.581-1.241-2.091-2.159s-.765-1.961-.765-3.128zm13.115 1.292c0-.952.187-1.785.561-2.499.386-.725.913-1.281 1.581-1.666.68-.397 1.445-.595 2.295-.595.884 0 1.644.204 2.278.612.646.408 1.111.929 1.394 1.564v-2.04h1.19v9.282h-1.19v-2.057c-.294.635-.765 1.162-1.411 1.581-.634.408-1.394.612-2.278.612-.838 0-1.598-.198-2.278-.595-.668-.397-1.195-.958-1.581-1.683-.374-.725-.561-1.564-.561-2.516zm8.109.017c0-.748-.153-1.405-.459-1.972s-.725-1.003-1.258-1.309c-.521-.306-1.099-.459-1.734-.459-.657 0-1.246.147-1.768.442-.521.295-.935.725-1.241 1.292-.294.555-.442 1.218-.442 1.989 0 .759.148 1.428.442 2.006.306.567.72 1.003 1.241 1.309.522.295 1.111.442 1.768.442.635 0 1.213-.153 1.734-.459.533-.306.952-.742 1.258-1.309s.459-1.224.459-1.972zm8.259-4.811c1.111 0 2.017.346 2.72 1.037.703.68 1.054 1.672 1.054 2.975v5.44h-1.173v-5.304c0-1.009-.255-1.779-.765-2.312-.499-.533-1.184-.799-2.057-.799-.895 0-1.609.283-2.142.85s-.799 1.4-.799 2.499v5.066h-1.19v-9.282h1.19v1.581c.295-.567.72-.997 1.275-1.292.555-.306 1.184-.459 1.887-.459zm23.311.17-2.907 9.282h-1.19l-2.567-7.786-2.567 7.786h-1.207l-2.907-9.282h1.207l2.312 8.075 2.601-8.075h1.19l2.567 8.092 2.295-8.092zm10.02 4.165c0 .408-.011.72-.034.935h-7.701c.034.703.204 1.303.51 1.802s.708.878 1.207 1.139c.499.249 1.043.374 1.632.374.771 0 1.417-.187 1.938-.561.533-.374.884-.878 1.054-1.513h1.258c-.227.907-.714 1.649-1.462 2.227-.737.567-1.666.85-2.788.85-.873 0-1.655-.193-2.346-.578-.691-.397-1.235-.952-1.632-1.666-.385-.725-.578-1.57-.578-2.533s.193-1.808.578-2.533.924-1.281 1.615-1.666 1.479-.578 2.363-.578 1.655.193 2.312.578c.669.385 1.179.907 1.53 1.564.363.646.544 1.366.544 2.159zm-1.207-.034c.011-.691-.13-1.281-.425-1.768-.283-.487-.674-.856-1.173-1.105s-1.043-.374-1.632-.374c-.884 0-1.638.283-2.261.85s-.969 1.366-1.037 2.397zm11.942-4.267c.873 0 1.632.204 2.278.612s1.111.924 1.394 1.547v-2.023h1.19v9.52c0 .85-.187 1.604-.561 2.261-.362.657-.872 1.162-1.53 1.513-.657.363-1.405.544-2.244.544-1.19 0-2.181-.283-2.975-.85-.782-.567-1.269-1.337-1.462-2.312h1.173c.204.646.59 1.162 1.156 1.547.578.385 1.281.578 2.108.578.601 0 1.139-.13 1.615-.391.476-.249.85-.623 1.122-1.122s.408-1.088.408-1.768v-2.295c-.294.635-.765 1.162-1.411 1.581-.634.408-1.388.612-2.261.612-.85 0-1.615-.198-2.295-.595-.668-.397-1.195-.958-1.581-1.683-.374-.725-.561-1.564-.561-2.516s.187-1.785.561-2.499c.386-.725.913-1.281 1.581-1.666.68-.397 1.445-.595 2.295-.595zm3.672 4.777c0-.748-.153-1.405-.459-1.972s-.725-1.003-1.258-1.309c-.521-.306-1.099-.459-1.734-.459-.657 0-1.246.147-1.768.442-.521.295-.935.725-1.241 1.292-.294.555-.442 1.218-.442 1.989 0 .759.148 1.428.442 2.006.306.567.72 1.003 1.241 1.309.522.295 1.111.442 1.768.442.635 0 1.213-.153 1.734-.459.533-.306.952-.742 1.258-1.309s.459-1.224.459-1.972zm7.97 4.777c-.873 0-1.66-.193-2.363-.578-.691-.397-1.241-.952-1.649-1.666-.397-.725-.595-1.57-.595-2.533s.204-1.802.612-2.516c.408-.725.963-1.281 1.666-1.666.703-.397 1.49-.595 2.363-.595s1.66.198 2.363.595c.714.385 1.269.941 1.666 1.666.408.714.612 1.553.612 2.516 0 .952-.204 1.791-.612 2.516s-.969 1.286-1.683 1.683c-.714.385-1.507.578-2.38.578zm0-1.037c.612 0 1.179-.136 1.7-.408.521-.283.941-.703 1.258-1.258.329-.567.493-1.258.493-2.074s-.159-1.502-.476-2.057c-.317-.567-.737-.986-1.258-1.258-.521-.283-1.088-.425-1.7-.425s-1.179.142-1.7.425c-.521.272-.941.691-1.258 1.258-.306.555-.459 1.241-.459 2.057s.153 1.507.459 2.074c.317.555.731.975 1.241 1.258.521.272 1.088.408 1.7.408zm13.056-7.378v5.763c0 .567.108.958.323 1.173.216.215.595.323 1.139.323h1.088v1.02h-1.275c-.838 0-1.462-.193-1.87-.578-.408-.397-.612-1.043-.612-1.938v-5.763h-1.292v-1.003h1.292v-2.329h1.207v2.329h2.55v1.003zm8.933-1.173c.702 0 1.331.147 1.887.442.566.295 1.008.748 1.326 1.36.328.601.493 1.337.493 2.21v5.44h-1.173v-5.304c0-1.009-.255-1.779-.765-2.312-.499-.533-1.185-.799-2.057-.799-.896 0-1.61.283-2.142.85-.533.567-.799 1.4-.799 2.499v5.066h-1.19v-12.58h1.19v4.879c.294-.555.725-.986 1.292-1.292.578-.306 1.224-.459 1.938-.459zm7.528 1.819c.26-.578.657-1.026 1.19-1.343.544-.317 1.207-.476 1.989-.476v1.241h-.323c-.862 0-1.553.232-2.074.697-.522.465-.782 1.241-.782 2.329v5.185h-1.19v-9.282h1.19zm9.032 7.769c-.873 0-1.661-.193-2.363-.578-.692-.397-1.241-.952-1.649-1.666-.397-.725-.595-1.57-.595-2.533s.204-1.802.612-2.516c.408-.725.963-1.281 1.666-1.666.702-.397 1.49-.595 2.363-.595.872 0 1.66.198 2.363.595.714.385 1.269.941 1.666 1.666.408.714.612 1.553.612 2.516 0 .952-.204 1.791-.612 2.516s-.969 1.286-1.683 1.683c-.714.385-1.508.578-2.38.578zm0-1.037c.612 0 1.178-.136 1.7-.408.521-.283.94-.703 1.258-1.258.328-.567.493-1.258.493-2.074s-.159-1.502-.476-2.057c-.318-.567-.737-.986-1.258-1.258-.522-.283-1.088-.425-1.7-.425s-1.179.142-1.7.425c-.522.272-.941.691-1.258 1.258-.306.555-.459 1.241-.459 2.057s.153 1.507.459 2.074c.317.555.731.975 1.241 1.258.521.272 1.088.408 1.7.408zm14.885-8.381v9.282h-1.19v-1.632c-.272.578-.691 1.02-1.258 1.326s-1.201.459-1.904.459c-1.111 0-2.017-.34-2.72-1.02-.703-.691-1.054-1.689-1.054-2.992v-5.423h1.173v5.287c0 1.009.249 1.779.748 2.312.51.533 1.201.799 2.074.799.895 0 1.609-.283 2.142-.85s.799-1.4.799-2.499v-5.049zm6.61-.136c.872 0 1.632.204 2.278.612s1.11.924 1.394 1.547v-2.023h1.19v9.52c0 .85-.187 1.604-.561 2.261-.363.657-.873 1.162-1.53 1.513-.658.363-1.406.544-2.244.544-1.19 0-2.182-.283-2.975-.85-.782-.567-1.27-1.337-1.462-2.312h1.173c.204.646.589 1.162 1.156 1.547.578.385 1.28.578 2.108.578.6 0 1.139-.13 1.615-.391.476-.249.85-.623 1.122-1.122s.408-1.088.408-1.768v-2.295c-.295.635-.765 1.162-1.411 1.581-.635.408-1.389.612-2.261.612-.85 0-1.615-.198-2.295-.595-.669-.397-1.196-.958-1.581-1.683-.374-.725-.561-1.564-.561-2.516s.187-1.785.561-2.499c.385-.725.912-1.281 1.581-1.666.68-.397 1.445-.595 2.295-.595zm3.672 4.777c0-.748-.153-1.405-.459-1.972s-.726-1.003-1.258-1.309c-.522-.306-1.1-.459-1.734-.459-.658 0-1.247.147-1.768.442-.522.295-.935.725-1.241 1.292-.295.555-.442 1.218-.442 1.989 0 .759.147 1.428.442 2.006.306.567.719 1.003 1.241 1.309.521.295 1.11.442 1.768.442.634 0 1.212-.153 1.734-.459.532-.306.952-.742 1.258-1.309s.459-1.224.459-1.972zm8.326-4.811c.703 0 1.332.147 1.887.442.567.295 1.009.748 1.326 1.36.329.601.493 1.337.493 2.21v5.44h-1.173v-5.304c0-1.009-.255-1.779-.765-2.312-.498-.533-1.184-.799-2.057-.799-.895 0-1.609.283-2.142.85-.532.567-.799 1.4-.799 2.499v5.066h-1.19v-12.58h1.19v4.879c.295-.555.726-.986 1.292-1.292.578-.306 1.224-.459 1.938-.459zm14.199 9.588c-1.065 0-1.938-.244-2.618-.731-.668-.499-1.042-1.173-1.122-2.023h1.224c.057.521.301.946.731 1.275.442.317 1.032.476 1.768.476.646 0 1.151-.153 1.513-.459.374-.306.561-.686.561-1.139 0-.317-.102-.578-.306-.782s-.464-.363-.782-.476c-.306-.125-.725-.255-1.258-.391-.691-.181-1.252-.363-1.683-.544-.43-.181-.799-.448-1.105-.799-.294-.363-.442-.844-.442-1.445 0-.453.136-.873.408-1.258s.658-.691 1.156-.918c.499-.227 1.066-.34 1.7-.34.998 0 1.802.255 2.414.765.612.499.941 1.19.986 2.074h-1.19c-.034-.544-.249-.98-.646-1.309-.385-.34-.918-.51-1.598-.51-.6 0-1.088.142-1.462.425s-.561.635-.561 1.054c0 .363.108.663.323.901.227.227.505.408.833.544.329.125.771.266 1.326.425.669.181 1.202.357 1.598.527.397.17.737.419 1.02.748.284.329.431.765.442 1.309 0 .499-.136.946-.408 1.343-.272.385-.651.691-1.139.918-.487.227-1.048.34-1.683.34zm9.533 0c-.872 0-1.66-.193-2.363-.578-.691-.397-1.241-.952-1.649-1.666-.396-.725-.595-1.57-.595-2.533s.204-1.802.612-2.516c.408-.725.964-1.281 1.666-1.666.703-.397 1.491-.595 2.363-.595.873 0 1.661.198 2.363.595.714.385 1.27.941 1.666 1.666.408.714.612 1.553.612 2.516 0 .952-.204 1.791-.612 2.516s-.969 1.286-1.683 1.683c-.714.385-1.507.578-2.38.578zm0-1.037c.612 0 1.179-.136 1.7-.408.522-.283.941-.703 1.258-1.258.329-.567.493-1.258.493-2.074s-.158-1.502-.476-2.057c-.317-.567-.736-.986-1.258-1.258-.521-.283-1.088-.425-1.7-.425s-1.178.142-1.7.425c-.521.272-.94.691-1.258 1.258-.306.555-.459 1.241-.459 2.057s.153 1.507.459 2.074c.318.555.731.975 1.241 1.258.522.272 1.088.408 1.7.408zm17.895-8.551c1.088 0 1.972.346 2.652 1.037.691.68 1.037 1.672 1.037 2.975v5.44h-1.173v-5.304c0-1.009-.244-1.779-.731-2.312-.488-.533-1.151-.799-1.989-.799-.873 0-1.57.289-2.091.867-.522.578-.782 1.417-.782 2.516v5.032h-1.173v-5.304c0-1.009-.244-1.779-.731-2.312-.488-.533-1.156-.799-2.006-.799-.873 0-1.57.289-2.091.867-.522.578-.782 1.417-.782 2.516v5.032h-1.19v-9.282h1.19v1.598c.294-.578.714-1.014 1.258-1.309.544-.306 1.15-.459 1.819-.459.804 0 1.507.193 2.108.578.612.385 1.054.952 1.326 1.7.249-.737.674-1.298 1.275-1.683.612-.397 1.303-.595 2.074-.595zm14.729 4.335c0 .408-.011.72-.034.935h-7.701c.034.703.204 1.303.51 1.802s.709.878 1.207 1.139c.499.249 1.043.374 1.632.374.771 0 1.417-.187 1.938-.561.533-.374.884-.878 1.054-1.513h1.258c-.226.907-.714 1.649-1.462 2.227-.736.567-1.666.85-2.788.85-.872 0-1.654-.193-2.346-.578-.691-.397-1.235-.952-1.632-1.666-.385-.725-.578-1.57-.578-2.533s.193-1.808.578-2.533c.386-.725.924-1.281 1.615-1.666.692-.385 1.479-.578 2.363-.578s1.655.193 2.312.578c.669.385 1.179.907 1.53 1.564.363.646.544 1.366.544 2.159zm-1.207-.034c.012-.691-.13-1.281-.425-1.768-.283-.487-.674-.856-1.173-1.105-.498-.249-1.042-.374-1.632-.374-.884 0-1.637.283-2.261.85-.623.567-.969 1.366-1.037 2.397zm-422.667 23.909c.2947-.623.7593-1.139 1.394-1.547.646-.419 1.411-.629 2.295-.629.8387 0 1.5923.198 2.261.595.68.385 1.207.941 1.581 1.666.3853.714.578 1.547.578 2.499s-.1927 1.791-.578 2.516c-.374.725-.901 1.286-1.581 1.683-.6687.397-1.4223.595-2.261.595-.8727 0-1.632-.204-2.278-.612-.646-.419-1.1163-.941-1.411-1.564v6.426h-1.173v-13.668h1.173zm6.902 2.584c0-.771-.153-1.434-.459-1.989-.2947-.567-.7027-.997-1.224-1.292s-1.1107-.442-1.768-.442c-.6347 0-1.2183.153-1.751.459-.5213.306-.935.742-1.241 1.309s-.459 1.224-.459 1.972.153 1.405.459 1.972.7197 1.003 1.241 1.309c.5327.306 1.1163.459 1.751.459.6573 0 1.2467-.147 1.768-.442.5213-.306.9293-.742 1.224-1.309.306-.578.459-1.247.459-2.006zm4.5867-2.975c.2606-.578.6573-1.026 1.19-1.343.544-.317 1.207-.476 1.989-.476v1.241h-.323c-.8614 0-1.5527.232-2.074.697-.5214.465-.782 1.241-.782 2.329v5.185h-1.19v-9.282h1.19zm4.4252 2.975c0-.952.187-1.785.561-2.499.3853-.725.9123-1.281 1.581-1.666.68-.397 1.445-.595 2.295-.595.884 0 1.6433.204 2.278.612.646.408 1.1106.929 1.394 1.564v-2.04h1.19v9.282h-1.19v-2.057c-.2947.635-.765 1.162-1.411 1.581-.6347.408-1.394.612-2.278.612-.8387 0-1.598-.198-2.278-.595-.6687-.397-1.1957-.958-1.581-1.683-.374-.725-.561-1.564-.561-2.516zm8.109.017c0-.748-.153-1.405-.459-1.972s-.7254-1.003-1.258-1.309c-.5214-.306-1.0994-.459-1.734-.459-.6574 0-1.2467.147-1.768.442-.5214.295-.935.725-1.241 1.292-.2947.555-.442 1.218-.442 1.989 0 .759.1473 1.428.442 2.006.306.567.7196 1.003 1.241 1.309.5213.295 1.1106.442 1.768.442.6346 0 1.2126-.153 1.734-.459.5326-.306.952-.742 1.258-1.309s.459-1.224.459-1.972zm3.3626 0c0-.963.1927-1.802.578-2.516.3854-.725.918-1.281 1.598-1.666.68-.397 1.4564-.595 2.329-.595 1.1447 0 2.0854.283 2.822.85.748.567 1.2297 1.337 1.445 2.312h-1.275c-.1586-.669-.5043-1.19-1.037-1.564-.5213-.385-1.173-.578-1.955-.578-.6233 0-1.1843.142-1.683.425-.4986.283-.8953.708-1.19 1.275-.2833.555-.425 1.241-.425 2.057s.1417 1.507.425 2.074c.2947.567.6914.992 1.19 1.275.4987.283 1.0597.425 1.683.425.782 0 1.4337-.187 1.955-.561.5327-.385.8784-.918 1.037-1.598h1.275c-.2153.952-.697 1.717-1.445 2.295s-1.6886.867-2.822.867c-.8726 0-1.649-.193-2.329-.578-.68-.397-1.2126-.952-1.598-1.666-.3853-.725-.578-1.57-.578-2.533zm12.5168-3.638v5.763c0 .567.1077.958.323 1.173.2154.215.595.323 1.139.323h1.088v1.02h-1.275c-.8386 0-1.462-.193-1.87-.578-.408-.397-.612-1.043-.612-1.938v-5.763h-1.292v-1.003h1.292v-2.329h1.207v2.329h2.55v1.003zm5.1076-2.754c-.238 0-.442-.085-.612-.255s-.255-.38-.255-.629.085-.453.255-.612c.17-.17.374-.255.612-.255s.442.085.612.255c.17.159.255.363.255.612s-.085.459-.255.629-.374.255-.612.255zm.595 1.751v9.282h-1.19v-9.282zm2.1508 4.641c0-.963.1926-1.802.578-2.516.3853-.725.918-1.281 1.598-1.666.68-.397 1.4563-.595 2.329-.595 1.1446 0 2.0853.283 2.822.85.748.567 1.2296 1.337 1.445 2.312h-1.275c-.1587-.669-.5044-1.19-1.037-1.564-.5214-.385-1.173-.578-1.955-.578-.6234 0-1.1844.142-1.683.425-.4987.283-.8954.708-1.19 1.275-.2834.555-.425 1.241-.425 2.057s.1416 1.507.425 2.074c.2946.567.6913.992 1.19 1.275.4986.283 1.0596.425 1.683.425.782 0 1.4336-.187 1.955-.561.5326-.385.8783-.918 1.037-1.598h1.275c-.2154.952-.697 1.717-1.445 2.295s-1.6887.867-2.822.867c-.8727 0-1.649-.193-2.329-.578-.68-.397-1.2127-.952-1.598-1.666-.3854-.725-.578-1.57-.578-2.533zm19.3673-.476c0 .408-.011.72-.034.935h-7.701c.034.703.204 1.303.51 1.802s.709.878 1.207 1.139c.499.249 1.043.374 1.632.374.771 0 1.417-.187 1.938-.561.533-.374.884-.878 1.054-1.513h1.258c-.226.907-.714 1.649-1.462 2.227-.736.567-1.666.85-2.788.85-.872 0-1.654-.193-2.346-.578-.691-.397-1.235-.952-1.632-1.666-.3849-.725-.5776-1.57-.5776-2.533s.1927-1.808.5776-2.533c.386-.725.924-1.281 1.615-1.666.692-.385 1.479-.578 2.363-.578s1.655.193 2.312.578c.669.385 1.179.907 1.53 1.564.363.646.544 1.366.544 2.159zm-1.207-.034c.012-.691-.13-1.281-.425-1.768-.283-.487-.674-.856-1.173-1.105-.498-.249-1.042-.374-1.632-.374-.884 0-1.637.283-2.261.85-.623.567-.969 1.366-1.037 2.397zm9.223-2.091c.294-.623.759-1.139 1.394-1.547.646-.419 1.411-.629 2.295-.629.838 0 1.592.198 2.261.595.68.385 1.207.941 1.581 1.666.385.714.578 1.547.578 2.499s-.193 1.791-.578 2.516c-.374.725-.901 1.286-1.581 1.683-.669.397-1.423.595-2.261.595-.873 0-1.632-.204-2.278-.612-.646-.419-1.117-.941-1.411-1.564v6.426h-1.173v-13.668h1.173zm6.902 2.584c0-.771-.153-1.434-.459-1.989-.295-.567-.703-.997-1.224-1.292-.522-.295-1.111-.442-1.768-.442-.635 0-1.219.153-1.751.459-.522.306-.935.742-1.241 1.309s-.459 1.224-.459 1.972.153 1.405.459 1.972.719 1.003 1.241 1.309c.532.306 1.116.459 1.751.459.657 0 1.246-.147 1.768-.442.521-.306.929-.742 1.224-1.309.306-.578.459-1.247.459-2.006zm4.586-2.975c.261-.578.658-1.026 1.19-1.343.544-.317 1.207-.476 1.989-.476v1.241h-.323c-.861 0-1.552.232-2.074.697-.521.465-.782 1.241-.782 2.329v5.185h-1.19v-9.282h1.19zm9.033 7.769c-.873 0-1.661-.193-2.363-.578-.692-.397-1.241-.952-1.649-1.666-.397-.725-.595-1.57-.595-2.533s.204-1.802.612-2.516c.408-.725.963-1.281 1.666-1.666.702-.397 1.49-.595 2.363-.595.872 0 1.66.198 2.363.595.714.385 1.269.941 1.666 1.666.408.714.612 1.553.612 2.516 0 .952-.204 1.791-.612 2.516s-.969 1.286-1.683 1.683c-.714.385-1.508.578-2.38.578zm0-1.037c.612 0 1.178-.136 1.7-.408.521-.283.94-.703 1.258-1.258.328-.567.493-1.258.493-2.074s-.159-1.502-.476-2.057c-.318-.567-.737-.986-1.258-1.258-.522-.283-1.088-.425-1.7-.425s-1.179.142-1.7.425c-.522.272-.941.691-1.258 1.258-.306.555-.459 1.241-.459 2.057s.153 1.507.459 2.074c.317.555.731.975 1.241 1.258.521.272 1.088.408 1.7.408zm8.017-6.324c.306-.646.776-1.173 1.411-1.581.646-.408 1.405-.612 2.278-.612.85 0 1.609.198 2.278.595.668.385 1.19.941 1.564 1.666.385.714.578 1.547.578 2.499s-.193 1.791-.578 2.516c-.374.725-.901 1.286-1.581 1.683-.669.397-1.423.595-2.261.595-.884 0-1.649-.198-2.295-.595-.635-.408-1.1-.935-1.394-1.581v2.04h-1.173v-12.58h1.173zm6.902 2.567c0-.771-.153-1.434-.459-1.989-.295-.567-.703-.997-1.224-1.292-.522-.295-1.111-.442-1.768-.442-.635 0-1.219.153-1.751.459-.522.306-.935.742-1.241 1.309s-.459 1.224-.459 1.972.153 1.405.459 1.972.719 1.003 1.241 1.309c.532.306 1.116.459 1.751.459.657 0 1.246-.147 1.768-.442.521-.306.929-.742 1.224-1.309.306-.578.459-1.247.459-2.006zm4.586-7.922v12.58h-1.19v-12.58zm11.093 7.463c0 .408-.011.72-.034.935h-7.701c.034.703.204 1.303.51 1.802s.709.878 1.207 1.139c.499.249 1.043.374 1.632.374.771 0 1.417-.187 1.938-.561.533-.374.884-.878 1.054-1.513h1.258c-.226.907-.714 1.649-1.462 2.227-.736.567-1.666.85-2.788.85-.872 0-1.654-.193-2.346-.578-.691-.397-1.235-.952-1.632-1.666-.385-.725-.578-1.57-.578-2.533s.193-1.808.578-2.533c.386-.725.924-1.281 1.615-1.666.692-.385 1.479-.578 2.363-.578s1.655.193 2.312.578c.669.385 1.179.907 1.53 1.564.363.646.544 1.366.544 2.159zm-1.207-.034c.012-.691-.13-1.281-.425-1.768-.283-.487-.674-.856-1.173-1.105-.498-.249-1.042-.374-1.632-.374-.884 0-1.637.283-2.261.85-.623.567-.969 1.366-1.037 2.397zm14.434-4.301c1.088 0 1.972.346 2.652 1.037.692.68 1.037 1.672 1.037 2.975v5.44h-1.173v-5.304c0-1.009-.243-1.779-.731-2.312-.487-.533-1.15-.799-1.989-.799-.872 0-1.569.289-2.091.867-.521.578-.782 1.417-.782 2.516v5.032h-1.173v-5.304c0-1.009-.243-1.779-.731-2.312-.487-.533-1.156-.799-2.006-.799-.872 0-1.569.289-2.091.867-.521.578-.782 1.417-.782 2.516v5.032h-1.19v-9.282h1.19v1.598c.295-.578.714-1.014 1.258-1.309.544-.306 1.151-.459 1.819-.459.805 0 1.508.193 2.108.578.612.385 1.054.952 1.326 1.7.25-.737.675-1.298 1.275-1.683.612-.397 1.304-.595 2.074-.595zm9.528 9.588c-1.065 0-1.938-.244-2.618-.731-.668-.499-1.042-1.173-1.122-2.023h1.224c.057.521.301.946.731 1.275.442.317 1.032.476 1.768.476.646 0 1.151-.153 1.513-.459.374-.306.561-.686.561-1.139 0-.317-.102-.578-.306-.782s-.464-.363-.782-.476c-.306-.125-.725-.255-1.258-.391-.691-.181-1.252-.363-1.683-.544-.43-.181-.799-.448-1.105-.799-.294-.363-.442-.844-.442-1.445 0-.453.136-.873.408-1.258s.658-.691 1.156-.918c.499-.227 1.066-.34 1.7-.34.998 0 1.802.255 2.414.765.612.499.941 1.19.986 2.074h-1.19c-.034-.544-.249-.98-.646-1.309-.385-.34-.918-.51-1.598-.51-.6 0-1.088.142-1.462.425s-.561.635-.561 1.054c0 .363.108.663.323.901.227.227.505.408.833.544.329.125.771.266 1.326.425.669.181 1.202.357 1.598.527.397.17.737.419 1.02.748.284.329.431.765.442 1.309 0 .499-.136.946-.408 1.343-.272.385-.651.691-1.139.918-.487.227-1.048.34-1.683.34zm8.343-12.172c.726 0 1.366.142 1.921.425.567.283 1.003.691 1.309 1.224.318.521.476 1.128.476 1.819 0 1.224-.379 2.125-1.139 2.703-.748.567-1.773.85-3.077.85l-.051 1.87h-1.02l-.068-2.72h.442c1.168 0 2.086-.181 2.754-.544.68-.374 1.02-1.094 1.02-2.159 0-.748-.238-1.343-.714-1.785-.464-.442-1.082-.663-1.853-.663-.77 0-1.382.21-1.836.629-.453.419-.68.992-.68 1.717h-1.139c0-.68.153-1.269.459-1.768.318-.51.748-.901 1.292-1.173.556-.283 1.19-.425 1.904-.425zm-1.071 12.121c-.249 0-.459-.085-.629-.255-.158-.17-.238-.38-.238-.629s.08-.453.238-.612c.17-.17.38-.255.629-.255.238 0 .437.085.595.255.17.159.255.363.255.612s-.085.459-.255.629c-.158.17-.357.255-.595.255z" fill="#000"/><path d="m234.25 373.5-4.55-4.55 4.55-4.55" stroke="#cacacb" stroke-linecap="round" stroke-linejoin="round" stroke-width="1.06167"/><rect fill="#6b6b6b" height="6.3" rx="3.15" width="6.3" x="251" y="365.85"/><rect fill="#afadad" height="6.3" rx="3.15" width="6.3" x="265.7" y="365.85"/><path d="m285.7 373.5 4.55-4.55-4.55-4.55" stroke="#000" stroke-linecap="round" stroke-linejoin="round" stroke-width="1.06167"/><rect fill="#fdf3ec" height="36.6675" rx="6.9448" width="186.074" x="39.463" y="225.463"/><rect height="36.6675" rx="6.9448" stroke="#e1be9a" stroke-width=".925974" width="186.074" x="39.463" y="225.463"/><path d="m62.9641 241.561-5.2178-5.218h-5.2179c-.8228 0-1.4908.668-1.4908 1.491v11.926c0 .823.668 1.491 1.4908 1.491h8.9449c.8228 0 1.4908-.668 1.4908-1.491zm-5.2178-5.218v5.218h5.2178" stroke="#a06f45" stroke-linecap="round" stroke-linejoin="round" stroke-width="1.14678"/><path d="m70.9325 243.783c0-.887.2-1.682.5999-2.387.3999-.712.9432-1.269 1.63-1.669.6955-.4 1.4648-.6 2.3081-.6.991 0 1.856.24 2.5949.718.739.478 1.2779 1.156 1.617 2.034h-1.4214c-.2521-.548-.6172-.969-1.0953-1.265-.4695-.296-1.0345-.443-1.6952-.443-.6346 0-1.2041.147-1.7083.443s-.8997.717-1.1866 1.265c-.2869.539-.4303 1.174-.4303 1.904 0 .721.1434 1.356.4303 1.904.2869.539.6824.956 1.1866 1.251.5042.296 1.0737.444 1.7083.444.6607 0 1.2257-.144 1.6952-.43.4781-.296.8432-.718 1.0953-1.265h1.4214c-.3391.869-.878 1.543-1.617 2.021-.7389.469-1.6039.704-2.5949.704-.8433 0-1.6126-.196-2.3081-.587-.6868-.4-1.2301-.952-1.63-1.656s-.5999-1.499-.5999-2.386zm10.0729.952c0-.731.1478-1.369.4434-1.917.2956-.557.6998-.987 1.2127-1.291.5216-.304 1.0997-.457 1.7343-.457.626 0 1.1693.135 1.63.405.4608.269.8042.608 1.0302 1.017v-1.304h1.1997v7.146h-1.1997v-1.33c-.2347.417-.5868.765-1.0562 1.043-.4608.269-.9998.404-1.617.404-.6346 0-1.2084-.156-1.7213-.469s-.9171-.752-1.2127-1.317-.4434-1.209-.4434-1.93zm6.0506.013c0-.539-.1087-1.009-.326-1.409-.2173-.399-.5129-.704-.8867-.912-.3651-.218-.7694-.326-1.2127-.326-.4434 0-.8476.104-1.2128.313-.3651.208-.6563.512-.8736.912-.2174.4-.326.87-.326 1.409 0 .547.1086 1.026.326 1.434.2173.4.5085.709.8736.926.3652.209.7694.313 1.2128.313.4433 0 .8476-.104 1.2127-.313.3738-.217.6694-.526.8867-.926.2173-.408.326-.882.326-1.421zm4.3916-6.064v9.65h-1.1866v-9.65zm1.5791 6.064c0-.739.1478-1.382.4433-1.93.2956-.557.7042-.987 1.2258-1.291.5303-.304 1.1345-.457 1.8126-.457.878 0 1.5995.213 2.1646.639.5738.426.9519 1.018 1.1345 1.774h-1.2779c-.1217-.435-.3608-.778-.7172-1.03-.3478-.252-.7824-.378-1.304-.378-.6781 0-1.2258.234-1.6431.704-.4173.46-.6259 1.117-.6259 1.969 0 .86.2086 1.525.6259 1.995.4173.469.965.704 1.6431.704.5216 0 .9562-.122 1.304-.365.3477-.244.5868-.591.7172-1.043h1.2779c-.1913.73-.5738 1.317-1.1475 1.76-.5738.435-1.291.652-2.1516.652-.6781 0-1.2823-.152-1.8126-.456-.5216-.305-.9302-.735-1.2258-1.291-.2955-.557-.4433-1.209-.4433-1.956zm15.3873-3.691c.539 0 1.026.118 1.461.353.434.226.773.569 1.017 1.03.252.46.378 1.021.378 1.682v4.212h-1.174v-4.043c0-.713-.178-1.256-.534-1.63-.357-.382-.844-.573-1.461-.573-.626 0-1.126.195-1.499.586-.365.392-.548.961-.548 1.709v3.951h-1.187v-9.65h1.187v3.521c.235-.365.556-.648.965-.848.417-.2.882-.3 1.395-.3zm7.911 7.394c-.67 0-1.278-.152-1.826-.456-.539-.305-.965-.735-1.278-1.291-.304-.565-.456-1.217-.456-1.956 0-.731.156-1.374.469-1.93.322-.565.757-.996 1.304-1.291.548-.304 1.161-.457 1.839-.457s1.291.153 1.839.457c.547.295.978.721 1.291 1.278.321.556.482 1.204.482 1.943s-.165 1.391-.495 1.956c-.322.556-.761.986-1.317 1.291-.557.304-1.174.456-1.852.456zm0-1.043c.426 0 .826-.1 1.2-.3.373-.2.673-.5.899-.9.235-.4.352-.886.352-1.46s-.113-1.061-.339-1.461-.521-.695-.886-.886c-.365-.2-.761-.3-1.187-.3-.435 0-.835.1-1.2.3-.356.191-.643.486-.86.886-.218.4-.326.887-.326 1.461 0 .582.104 1.073.313 1.473.217.4.504.7.86.9.357.191.748.287 1.174.287zm13.818-6.351c.556 0 1.052.118 1.486.353.435.226.778.569 1.03 1.03.253.46.379 1.021.379 1.682v4.212h-1.174v-4.043c0-.713-.178-1.256-.535-1.63-.347-.382-.821-.573-1.421-.573-.617 0-1.108.2-1.474.599-.365.392-.547.961-.547 1.709v3.938h-1.174v-4.043c0-.713-.178-1.256-.534-1.63-.348-.382-.822-.573-1.422-.573-.617 0-1.108.2-1.473.599-.365.392-.548.961-.548 1.709v3.938h-1.187v-7.146h1.187v1.03c.235-.374.548-.661.939-.861.4-.2.839-.3 1.317-.3.6 0 1.13.135 1.591.405.461.269.804.665 1.03 1.186.2-.504.53-.895.991-1.173s.974-.418 1.539-.418zm11.361 3.43c0 .226-.013.465-.039.717h-5.712c.044.704.283 1.256.718 1.656.443.391.978.587 1.604.587.512 0 .938-.117 1.278-.352.347-.243.591-.565.73-.965h1.278c-.192.687-.574 1.247-1.148 1.682-.574.426-1.286.639-2.138.639-.678 0-1.287-.152-1.826-.456-.53-.305-.948-.735-1.252-1.291-.304-.565-.456-1.217-.456-1.956s.148-1.387.443-1.943c.296-.557.709-.983 1.239-1.278.539-.304 1.156-.457 1.852-.457.678 0 1.278.148 1.799.444.522.295.922.704 1.2 1.226.287.512.43 1.095.43 1.747zm-1.226-.248c0-.452-.1-.839-.3-1.16-.2-.331-.473-.578-.821-.744-.339-.174-.717-.26-1.135-.26-.599 0-1.112.191-1.538.573-.418.383-.657.913-.717 1.591zm15.788-3.051-2.23 7.146h-1.225l-1.722-5.673-1.721 5.673h-1.226l-2.243-7.146h1.213l1.643 5.998 1.774-5.998h1.212l1.735 6.011 1.617-6.011zm4.294 7.263c-.669 0-1.278-.152-1.825-.456-.539-.305-.965-.735-1.278-1.291-.304-.565-.457-1.217-.457-1.956 0-.731.157-1.374.47-1.93.322-.565.756-.996 1.304-1.291.548-.304 1.16-.457 1.839-.457.678 0 1.29.153 1.838.457.548.295.978.721 1.291 1.278.322.556.483 1.204.483 1.943s-.166 1.391-.496 1.956c-.322.556-.761.986-1.317 1.291-.556.304-1.174.456-1.852.456zm0-1.043c.426 0 .826-.1 1.2-.3s.674-.5.9-.9c.235-.4.352-.886.352-1.46s-.113-1.061-.339-1.461-.522-.695-.887-.886c-.365-.2-.761-.3-1.187-.3-.434 0-.834.1-1.199.3-.357.191-.644.486-.861.886s-.326.887-.326 1.461c0 .582.104 1.073.313 1.473.217.4.504.7.861.9.356.191.747.287 1.173.287zm6.411-5.06c.209-.408.505-.726.887-.952.391-.226.865-.339 1.422-.339v1.226h-.313c-1.331 0-1.996.722-1.996 2.165v3.886h-1.186v-7.146h1.186zm7.669 5.986-2.804-3.156v3.156h-1.187v-9.65h1.187v5.673l2.751-3.169h1.657l-3.365 3.56 3.378 3.586zm3.099.078c-.227 0-.418-.078-.574-.235-.157-.156-.235-.347-.235-.573 0-.227.078-.418.235-.574.156-.157.347-.235.574-.235.217 0 .399.078.547.235.157.156.235.347.235.574 0 .226-.078.417-.235.573-.148.157-.33.235-.547.235zm3.546-5.907c.235-.409.582-.748 1.043-1.017.47-.278 1.013-.418 1.63-.418.635 0 1.208.153 1.721.457.522.304.931.734 1.226 1.291.296.548.443 1.186.443 1.917 0 .721-.147 1.365-.443 1.93-.295.565-.704 1.004-1.226 1.317-.513.313-1.086.469-1.721.469-.608 0-1.147-.135-1.617-.404-.461-.278-.813-.622-1.056-1.03v4.707h-1.187v-10.536h1.187zm4.851 2.23c0-.539-.109-1.009-.326-1.409-.218-.4-.513-.704-.887-.912-.365-.209-.769-.313-1.213-.313-.434 0-.839.108-1.212.326-.366.208-.661.517-.887.925-.217.4-.326.865-.326 1.396 0 .539.109 1.013.326 1.421.226.4.521.709.887.926.373.209.778.313 1.212.313.444 0 .848-.104 1.213-.313.374-.217.669-.526.887-.926.217-.408.326-.887.326-1.434zm2.331 0c0-.731.148-1.369.443-1.917.296-.557.7-.987 1.213-1.291.522-.304 1.104-.457 1.748-.457.556 0 1.073.131 1.551.392.478.252.844.586 1.096 1.004v-3.782h1.199v9.65h-1.199v-1.343c-.235.426-.583.778-1.044 1.056-.46.269-.999.404-1.617.404-.634 0-1.212-.156-1.734-.469-.513-.313-.917-.752-1.213-1.317-.295-.565-.443-1.209-.443-1.93zm6.051.013c0-.539-.109-1.009-.326-1.409-.218-.399-.513-.704-.887-.912-.365-.218-.769-.326-1.213-.326-.443 0-.847.104-1.213.313-.365.208-.656.512-.873.912-.218.4-.326.87-.326 1.409 0 .547.108 1.026.326 1.434.217.4.508.709.873.926.366.209.77.313 1.213.313.444 0 .848-.104 1.213-.313.374-.217.669-.526.887-.926.217-.408.326-.882.326-1.421zm6.113-2.582h-1.5v6.168h-1.187v-6.168h-.926v-.978h.926v-.509c0-.8.205-1.382.613-1.747.417-.374 1.083-.561 1.995-.561v.991c-.521 0-.891.105-1.108.313-.209.2-.313.535-.313 1.004v.509h1.5z" fill="#a06f45"/></svg>