<svg fill="none" height="410" viewBox="0 0 540 410" width="540" xmlns="http://www.w3.org/2000/svg" xmlns:xlink="http://www.w3.org/1999/xlink"><clipPath id="a"><path d="m33 121h422v185h-422z"/></clipPath><path d="m0 0h540v410h-540z" fill="#fcf7f4"/><path d="m154.901 53.657h-4.801l-.825 2.343h-1.964l4.109-11.484h2.178l4.108 11.484h-1.98zm-.528-1.5345-1.864-5.3295-1.881 5.3295zm6.5-3.894c.275-.462.638-.8195 1.089-1.0725.462-.264 1.007-.396 1.634-.396v1.947h-.479c-.737 0-1.298.187-1.683.561-.374.374-.561 1.023-.561 1.947v4.785h-1.881v-9.0915h1.881zm4.909-2.5245c-.341 0-.627-.1155-.858-.3465s-.347-.517-.347-.858.116-.627.347-.858.517-.3465.858-.3465c.33 0 .61.1155.841.3465s.347.517.347.858-.116.627-.347.858-.511.3465-.841.3465zm.924 1.2045v9.0915h-1.881v-9.0915zm10.302 4.323c0 .341-.022.649-.066.924h-6.947c.055.726.325 1.309.809 1.749s1.078.66 1.782.66c1.012 0 1.727-.4235 2.145-1.2705h2.029c-.275.836-.775 1.5235-1.501 2.0625-.715.528-1.606.792-2.673.792-.869 0-1.65-.1925-2.343-.5775-.682-.396-1.221-.946-1.617-1.65-.385-.715-.578-1.54-.578-2.475s.187-1.7545.561-2.4585c.385-.715.919-1.265 1.601-1.65.693-.385 1.485-.5775 2.376-.5775.858 0 1.622.187 2.293.561s1.194.902 1.568 1.584c.374.671.561 1.4465.561 2.3265zm-1.964-.594c-.011-.693-.258-1.2485-.742-1.6665s-1.084-.627-1.799-.627c-.649 0-1.204.209-1.666.627-.462.407-.737.9625-.825 1.6665zm5.196-6.8475v12.21h-1.881v-12.21zm17.834.7425v11.4675h-1.881v-7.854l-3.498 7.854h-1.304l-3.514-7.854v7.854h-1.881v-11.4675h2.029l4.026 8.9925 4.01-8.9925zm1.345 6.8805c0-.913.187-1.7215.561-2.4255.385-.704.902-1.2485 1.551-1.6335.66-.396 1.386-.594 2.178-.594.715 0 1.337.143 1.865.429.539.275.968.6215 1.287 1.0395v-1.32h1.897v9.0915h-1.897v-1.353c-.319.429-.754.7865-1.304 1.0725s-1.177.429-1.881.429c-.781 0-1.496-.198-2.145-.594-.649-.407-1.166-.968-1.551-1.683-.374-.726-.561-1.5455-.561-2.4585zm7.442.033c0-.627-.132-1.1715-.396-1.6335-.253-.462-.589-.814-1.007-1.056s-.869-.363-1.353-.363-.935.121-1.353.363c-.418.231-.759.5775-1.023 1.0395-.253.451-.379.99-.379 1.617s.126 1.177.379 1.65c.264.473.605.836 1.023 1.089.429.242.88.363 1.353.363.484 0 .935-.121 1.353-.363s.754-.594 1.007-1.056c.264-.473.396-1.023.396-1.65zm5.534 3.0195h4.125v1.5345h-6.303v-1.5345l4.142-6.0225h-4.142v-1.5345h6.303v1.5345zm9.544 1.683c-.858 0-1.634-.1925-2.327-.5775-.693-.396-1.237-.946-1.633-1.65-.396-.715-.594-1.54-.594-2.475 0-.924.203-1.7435.61-2.4585s.963-1.265 1.667-1.65 1.49-.5775 2.359-.5775 1.656.1925 2.36.5775 1.259.935 1.666 1.65.611 1.5345.611 2.4585-.209 1.7435-.627 2.4585-.99 1.2705-1.716 1.6665c-.715.385-1.507.5775-2.376.5775zm0-1.6335c.484 0 .935-.1155 1.353-.3465.429-.231.775-.5775 1.039-1.0395s.396-1.023.396-1.683-.126-1.2155-.379-1.6665c-.253-.462-.589-.8085-1.007-1.0395s-.869-.3465-1.353-.3465-.935.1155-1.353.3465c-.407.231-.731.5775-.973 1.0395-.242.451-.363 1.0065-.363 1.6665 0 .979.247 1.738.742 2.277.506.528 1.139.792 1.898.792zm7.959-6.2865c.275-.462.638-.8195 1.089-1.0725.462-.264 1.007-.396 1.634-.396v1.947h-.479c-.737 0-1.298.187-1.683.561-.374.374-.561 1.023-.561 1.947v4.785h-1.881v-9.0915h1.881z" fill="#1f8df1"/><path d="m40.824 44.816v.928h-3.104v10.256h-1.12v-10.256h-3.12v-.928zm1.2565 6.8c0-.896.176-1.68.528-2.352.3627-.6827.8587-1.2053 1.488-1.568.64-.3733 1.36-.56 2.16-.56.832 0 1.5467.192 2.144.576.608.384 1.0453.8747 1.312 1.472v-1.92h1.12v8.736h-1.12v-1.936c-.2773.5973-.72 1.0933-1.328 1.488-.5973.384-1.312.576-2.144.576-.7893 0-1.504-.1867-2.144-.56-.6293-.3733-1.1253-.9013-1.488-1.584-.352-.6827-.528-1.472-.528-2.368zm7.632.016c0-.704-.144-1.3227-.432-1.856s-.6827-.944-1.184-1.232c-.4907-.288-1.0347-.432-1.632-.432-.6187 0-1.1733.1387-1.664.416s-.88.6827-1.168 1.216c-.2773.5227-.416 1.1467-.416 1.872 0 .7147.1387 1.344.416 1.888.288.5333.6773.944 1.168 1.232.4907.2773 1.0453.416 1.664.416.5973 0 1.1413-.144 1.632-.432.5013-.288.896-.6987 1.184-1.232s.432-1.152.432-1.856zm6.6849 4.496c-1.0027 0-1.824-.2293-2.464-.688-.6294-.4693-.9814-1.104-1.056-1.904h1.152c.0533.4907.2826.8907.688 1.2.416.2987.9706.448 1.664.448.608 0 1.0826-.144 1.424-.432.352-.288.528-.6453.528-1.072 0-.2987-.096-.544-.288-.736s-.4374-.3413-.736-.448c-.288-.1173-.6827-.24-1.184-.368-.6507-.1707-1.1787-.3413-1.584-.512-.4054-.1707-.752-.4213-1.04-.752-.2774-.3413-.416-.7947-.416-1.36 0-.4267.128-.8213.384-1.184s.6186-.6507 1.088-.864c.4693-.2133 1.0026-.32 1.6-.32.9386 0 1.696.24 2.272.72.576.4693.8853 1.12.928 1.952h-1.12c-.032-.512-.2347-.9227-.608-1.232-.3627-.32-.864-.48-1.504-.48-.5654 0-1.024.1333-1.376.4s-.528.5973-.528.992c0 .3413.1013.624.304.848.2133.2133.4746.384.784.512.3093.1173.7253.2507 1.248.4.6293.1707 1.1306.336 1.504.496.3733.16.6933.3947.96.704.2666.3093.4053.72.416 1.232 0 .4693-.128.8907-.384 1.264-.256.3627-.6134.6507-1.072.864-.4587.2133-.9867.32-1.584.32zm9.8682-.128-3.6-3.92v3.92h-1.12v-11.84h1.12v7.008l3.52-3.904h1.568l-4.144 4.352 4.176 4.384zm15.6622-11.184v11.184h-1.12v-5.232h-6.064v5.232h-1.12v-11.184h1.12v5.024h6.064v-5.024zm3.1153.8c-.224 0-.416-.08-.576-.24s-.24-.3573-.24-.592.08-.4267.24-.576c.16-.16.352-.24.576-.24s.416.08.576.24c.16.1493.24.3413.24.576s-.08.432-.24.592-.352.24-.576.24zm.56 1.648v8.736h-1.12v-8.736zm5.5443 8.864c-1.0027 0-1.824-.2293-2.464-.688-.6294-.4693-.9814-1.104-1.056-1.904h1.152c.0533.4907.2826.8907.688 1.2.416.2987.9706.448 1.664.448.608 0 1.0826-.144 1.424-.432.352-.288.528-.6453.528-1.072 0-.2987-.096-.544-.288-.736s-.4374-.3413-.736-.448c-.288-.1173-.6827-.24-1.184-.368-.6507-.1707-1.1787-.3413-1.584-.512-.4054-.1707-.752-.4213-1.04-.752-.2774-.3413-.416-.7947-.416-1.36 0-.4267.128-.8213.384-1.184s.6186-.6507 1.088-.864c.4693-.2133 1.0026-.32 1.6-.32.9386 0 1.696.24 2.272.72.576.4693.8853 1.12.928 1.952h-1.12c-.032-.512-.2347-.9227-.608-1.232-.3627-.32-.864-.48-1.504-.48-.5654 0-1.024.1333-1.376.4s-.528.5973-.528.992c0 .3413.1013.624.304.848.2133.2133.4746.384.784.512.3093.1173.7253.2507 1.248.4.6293.1707 1.1306.336 1.504.496.3733.16.6933.3947.96.704.2666.3093.4053.72.416 1.232 0 .4693-.128.8907-.384 1.264-.256.3627-.6134.6507-1.072.864-.4587.2133-.9867.32-1.584.32zm6.6042-7.92v5.424c0 .5333.1014.9013.304 1.104.2027.2027.56.304 1.072.304h1.0244v.96h-1.2004c-.7893 0-1.376-.1813-1.76-.544-.384-.3733-.576-.9813-.576-1.824v-5.424h-1.216v-.944h1.216v-2.192h1.136v2.192h2.4004v.944zm8.0714 7.92c-.822 0-1.563-.1813-2.224-.544-.651-.3733-1.168-.896-1.552-1.568-.374-.6827-.56-1.4773-.56-2.384s.192-1.696.576-2.368c.384-.6827.906-1.2053 1.568-1.568.661-.3733 1.402-.56 2.224-.56.821 0 1.562.1867 2.224.56.672.3627 1.194.8853 1.568 1.568.384.672.576 1.4613.576 2.368 0 .896-.192 1.6853-.576 2.368s-.912 1.2107-1.584 1.584c-.672.3627-1.419.544-2.24.544zm0-.976c.576 0 1.109-.128 1.6-.384.49-.2667.885-.6613 1.184-1.184.309-.5333.464-1.184.464-1.952s-.15-1.4133-.448-1.936c-.299-.5333-.694-.928-1.184-1.184-.491-.2667-1.024-.4-1.6-.4s-1.11.1333-1.6.4c-.491.256-.886.6507-1.184 1.184-.288.5227-.432 1.168-.432 1.936s.144 1.4187.432 1.952c.298.5227.688.9173 1.168 1.184.49.256 1.024.384 1.6.384zm7.561-6.336c.246-.544.619-.9653 1.12-1.264.512-.2987 1.136-.448 1.872-.448v1.168h-.304c-.81 0-1.461.2187-1.952.656-.49.4373-.736 1.168-.736 2.192v4.88h-1.12v-8.736h1.12zm11.877-1.552-5.184 12.848h-1.168l1.696-4.16-3.584-8.688h1.232l2.976 7.456 2.88-7.456z" fill="#000"/><path d="m136 37h.75v26h-.75z" fill="#000"/><path d="m31 76h467v1h-467z" fill="#ff5e1a"/><path d="m234.25 373.5-4.55-4.55 4.55-4.55" stroke="#cacacb" stroke-linecap="round" stroke-linejoin="round" stroke-width="1.06167"/><rect fill="#6b6b6b" height="6.3" rx="3.15" width="6.3" x="251" y="365.85"/><rect fill="#afadad" height="6.3" rx="3.15" width="6.3" x="265.7" y="365.85"/><path d="m285.7 373.5 4.55-4.55-4.55-4.55" stroke="#000" stroke-linecap="round" stroke-linejoin="round" stroke-width="1.06167"/><g clip-path="url(#a)"><rect fill="#c9c9c9" fill-opacity=".13" height="55" rx="12" width="422" x="33" y="121"/><rect fill="#ff7d1e" height="7" rx="3.5" width="7" x="58" y="145"/><path d="m93.976 142.812v9.688h-1.274v-7.224l-3.22 7.224h-.896l-3.234-7.238v7.238h-1.274v-9.688h1.372l3.584 8.008 3.584-8.008zm1.6846 5.824c0-.784.1587-1.47.476-2.058.3173-.597.7513-1.059 1.302-1.386.56-.327 1.1807-.49 1.862-.49.672 0 1.2554.145 1.7504.434.494.289.863.653 1.106 1.092v-1.4h1.288v7.672h-1.288v-1.428c-.252.448-.63.821-1.134 1.12-.495.289-1.0737.434-1.7364.434-.6813 0-1.2973-.168-1.848-.504s-.9847-.807-1.302-1.414-.476-1.297-.476-2.072zm6.4964.014c0-.579-.117-1.083-.35-1.512-.234-.429-.551-.756-.952-.98-.392-.233-.826-.35-1.3024-.35-.476 0-.91.112-1.302.336s-.7047.551-.938.98-.35.933-.35 1.512c0 .588.1167 1.101.35 1.54.2333.429.546.761.938.994.392.224.826.336 1.302.336.4764 0 .9104-.112 1.3024-.336.401-.233.718-.565.952-.994.233-.439.35-.947.35-1.526zm10.049-3.822-4.62 11.284h-1.316l1.512-3.696-3.094-7.588h1.414l2.408 6.216 2.38-6.216zm4.649 6.65c1.185-.952 2.114-1.731 2.786-2.338.672-.616 1.236-1.255 1.694-1.918.466-.672.7-1.33.7-1.974 0-.607-.15-1.083-.448-1.428-.29-.355-.761-.532-1.414-.532-.635 0-1.13.201-1.484.602-.346.392-.532.919-.56 1.582h-1.232c.037-1.045.354-1.853.952-2.422.597-.569 1.367-.854 2.31-.854.961 0 1.722.266 2.282.798.569.532.854 1.265.854 2.198 0 .775-.234 1.531-.7 2.268-.458.728-.98 1.372-1.568 1.932-.588.551-1.34 1.195-2.254 1.932h4.816v1.064h-6.734zm7.898-1.232v-.966l4.914-6.804h1.526v6.664h1.4v1.106h-1.4v2.254h-1.26v-2.254zm5.236-6.44-3.766 5.334h3.766zm5.403 6.93-1.568 3.766h-.854l1.022-3.766zm4.828.742c1.185-.952 2.114-1.731 2.786-2.338.672-.616 1.237-1.255 1.694-1.918.467-.672.7-1.33.7-1.974 0-.607-.149-1.083-.448-1.428-.289-.355-.761-.532-1.414-.532-.635 0-1.129.201-1.484.602-.345.392-.532.919-.56 1.582h-1.232c.037-1.045.355-1.853.952-2.422s1.367-.854 2.31-.854c.961 0 1.722.266 2.282.798.569.532.854 1.265.854 2.198 0 .775-.233 1.531-.7 2.268-.457.728-.98 1.372-1.568 1.932-.588.551-1.339 1.195-2.254 1.932h4.816v1.064h-6.734zm8.207-4.144c0-1.605.261-2.856.784-3.752.522-.905 1.437-1.358 2.744-1.358 1.297 0 2.207.453 2.73 1.358.522.896.784 2.147.784 3.752 0 1.633-.262 2.903-.784 3.808-.523.905-1.433 1.358-2.73 1.358-1.307 0-2.222-.453-2.744-1.358-.523-.905-.784-2.175-.784-3.808zm5.782 0c0-.812-.056-1.498-.168-2.058-.103-.569-.322-1.027-.658-1.372-.327-.345-.803-.518-1.428-.518-.635 0-1.12.173-1.456.518-.327.345-.546.803-.658 1.372-.103.56-.154 1.246-.154 2.058 0 .84.051 1.545.154 2.114.112.569.331 1.027.658 1.372.336.345.821.518 1.456.518.625 0 1.101-.173 1.428-.518.336-.345.555-.803.658-1.372.112-.569.168-1.274.168-2.114zm2.855 4.144c1.185-.952 2.114-1.731 2.786-2.338.672-.616 1.236-1.255 1.694-1.918.466-.672.7-1.33.7-1.974 0-.607-.15-1.083-.448-1.428-.29-.355-.761-.532-1.414-.532-.635 0-1.13.201-1.484.602-.346.392-.532.919-.56 1.582h-1.232c.037-1.045.354-1.853.952-2.422.597-.569 1.367-.854 2.31-.854.961 0 1.722.266 2.282.798.569.532.854 1.265.854 2.198 0 .775-.234 1.531-.7 2.268-.458.728-.98 1.372-1.568 1.932-.588.551-1.34 1.195-2.254 1.932h4.816v1.064h-6.734zm13.848-6.692c-.205-1.036-.844-1.554-1.918-1.554-.83 0-1.451.322-1.862.966-.41.635-.611 1.685-.602 3.15.215-.485.57-.863 1.064-1.134.504-.28 1.064-.42 1.68-.42.962 0 1.727.299 2.296.896.579.597.868 1.423.868 2.478 0 .635-.126 1.204-.378 1.708-.242.504-.616.905-1.12 1.204-.494.299-1.096.448-1.806.448-.961 0-1.712-.215-2.254-.644-.541-.429-.919-1.022-1.134-1.778-.214-.756-.322-1.689-.322-2.8 0-3.425 1.195-5.138 3.584-5.138.915 0 1.634.247 2.156.742.523.495.831 1.12.924 1.876zm-1.904 2.086c-.401 0-.779.084-1.134.252-.354.159-.644.406-.868.742-.214.327-.322.728-.322 1.204 0 .709.206 1.288.616 1.736.411.439.999.658 1.764.658.654 0 1.172-.201 1.554-.602.392-.411.588-.961.588-1.652 0-.728-.186-1.297-.56-1.708-.373-.42-.919-.63-1.638-.63zm8.545-3.332v-1.162h2.632v10.122h-1.288v-8.96zm4.513 6.706v-.966l4.914-6.804h1.526v6.664h1.4v1.106h-1.4v2.254h-1.26v-2.254zm5.236-6.44-3.766 5.334h3.766zm4.493 8.778c-.243 0-.448-.084-.616-.252s-.252-.373-.252-.616.084-.448.252-.616.373-.252.616-.252c.233 0 .429.084.588.252.168.168.252.373.252.616s-.084.448-.252.616c-.159.168-.355.252-.588.252zm0-5.992c-.243 0-.448-.084-.616-.252s-.252-.373-.252-.616.084-.448.252-.616.373-.252.616-.252c.233 0 .429.084.588.252.168.168.252.373.252.616s-.084.448-.252.616c-.159.168-.355.252-.588.252zm2.336-1.666c.065-.859.397-1.531.994-2.016s1.372-.728 2.324-.728c.635 0 1.181.117 1.638.35.467.224.817.532 1.05.924.243.392.364.835.364 1.33 0 .579-.168 1.078-.504 1.498-.327.42-.756.691-1.288.812v.07c.607.149 1.087.443 1.442.882s.532 1.013.532 1.722c0 .532-.121 1.013-.364 1.442-.243.42-.607.751-1.092.994s-1.069.364-1.75.364c-.989 0-1.801-.257-2.436-.77-.635-.523-.989-1.26-1.064-2.212h1.232c.065.56.294 1.017.686 1.372s.915.532 1.568.532 1.148-.168 1.484-.504c.345-.345.518-.789.518-1.33 0-.7-.233-1.204-.7-1.512s-1.171-.462-2.114-.462h-.322v-1.064h.336c.859-.009 1.507-.149 1.946-.42.439-.28.658-.709.658-1.288 0-.495-.163-.891-.49-1.19-.317-.299-.775-.448-1.372-.448-.579 0-1.045.149-1.4.448s-.565.7-.63 1.204zm8.272 2.408c0-1.605.261-2.856.784-3.752.523-.905 1.437-1.358 2.744-1.358 1.297 0 2.207.453 2.73 1.358.523.896.784 2.147.784 3.752 0 1.633-.261 2.903-.784 3.808s-1.433 1.358-2.73 1.358c-1.307 0-2.221-.453-2.744-1.358s-.784-2.175-.784-3.808zm5.782 0c0-.812-.056-1.498-.168-2.058-.103-.569-.322-1.027-.658-1.372-.327-.345-.803-.518-1.428-.518-.635 0-1.12.173-1.456.518-.327.345-.546.803-.658 1.372-.103.56-.154 1.246-.154 2.058 0 .84.051 1.545.154 2.114.112.569.331 1.027.658 1.372.336.345.821.518 1.456.518.625 0 1.101-.173 1.428-.518.336-.345.555-.803.658-1.372.112-.569.168-1.274.168-2.114z" fill="#494846"/><path d="m430 153.1 4.55-4.55-4.55-4.55" stroke="#ff7d1e" stroke-linecap="round" stroke-linejoin="round" stroke-width="1.06167"/><path d="m430 153.1 4.55-4.55-4.55-4.55" stroke="#ff7d1e" stroke-linecap="round" stroke-linejoin="round" stroke-width="1.2"/><rect fill="#c9c9c9" fill-opacity=".13" height="55" rx="12" width="422" x="33" y="186"/><rect fill="#ff7d1e" height="7" rx="3.5" width="7" x="58" y="210"/><path d="m93.976 207.812v9.688h-1.274v-7.224l-3.22 7.224h-.896l-3.234-7.238v7.238h-1.274v-9.688h1.372l3.584 8.008 3.584-8.008zm1.6846 5.824c0-.784.1587-1.47.476-2.058.3173-.597.7513-1.059 1.302-1.386.56-.327 1.1807-.49 1.862-.49.672 0 1.2554.145 1.7504.434.494.289.863.653 1.106 1.092v-1.4h1.288v7.672h-1.288v-1.428c-.252.448-.63.821-1.134 1.12-.495.289-1.0737.434-1.7364.434-.6813 0-1.2973-.168-1.848-.504s-.9847-.807-1.302-1.414-.476-1.297-.476-2.072zm6.4964.014c0-.579-.117-1.083-.35-1.512-.234-.429-.551-.756-.952-.98-.392-.233-.826-.35-1.3024-.35-.476 0-.91.112-1.302.336s-.7047.551-.938.98-.35.933-.35 1.512c0 .588.1167 1.101.35 1.54.2333.429.546.761.938.994.392.224.826.336 1.302.336.4764 0 .9104-.112 1.3024-.336.401-.233.718-.565.952-.994.233-.439.35-.947.35-1.526zm10.049-3.822-4.62 11.284h-1.316l1.512-3.696-3.094-7.588h1.414l2.408 6.216 2.38-6.216zm4.649 6.65c1.185-.952 2.114-1.731 2.786-2.338.672-.616 1.236-1.255 1.694-1.918.466-.672.7-1.33.7-1.974 0-.607-.15-1.083-.448-1.428-.29-.355-.761-.532-1.414-.532-.635 0-1.13.201-1.484.602-.346.392-.532.919-.56 1.582h-1.232c.037-1.045.354-1.853.952-2.422.597-.569 1.367-.854 2.31-.854.961 0 1.722.266 2.282.798.569.532.854 1.265.854 2.198 0 .775-.234 1.531-.7 2.268-.458.728-.98 1.372-1.568 1.932-.588.551-1.34 1.195-2.254 1.932h4.816v1.064h-6.734zm7.898-1.232v-.966l4.914-6.804h1.526v6.664h1.4v1.106h-1.4v2.254h-1.26v-2.254zm5.236-6.44-3.766 5.334h3.766zm5.403 6.93-1.568 3.766h-.854l1.022-3.766zm4.828.742c1.185-.952 2.114-1.731 2.786-2.338.672-.616 1.237-1.255 1.694-1.918.467-.672.7-1.33.7-1.974 0-.607-.149-1.083-.448-1.428-.289-.355-.761-.532-1.414-.532-.635 0-1.129.201-1.484.602-.345.392-.532.919-.56 1.582h-1.232c.037-1.045.355-1.853.952-2.422s1.367-.854 2.31-.854c.961 0 1.722.266 2.282.798.569.532.854 1.265.854 2.198 0 .775-.233 1.531-.7 2.268-.457.728-.98 1.372-1.568 1.932-.588.551-1.339 1.195-2.254 1.932h4.816v1.064h-6.734zm8.207-4.144c0-1.605.261-2.856.784-3.752.522-.905 1.437-1.358 2.744-1.358 1.297 0 2.207.453 2.73 1.358.522.896.784 2.147.784 3.752 0 1.633-.262 2.903-.784 3.808-.523.905-1.433 1.358-2.73 1.358-1.307 0-2.222-.453-2.744-1.358-.523-.905-.784-2.175-.784-3.808zm5.782 0c0-.812-.056-1.498-.168-2.058-.103-.569-.322-1.027-.658-1.372-.327-.345-.803-.518-1.428-.518-.635 0-1.12.173-1.456.518-.327.345-.546.803-.658 1.372-.103.56-.154 1.246-.154 2.058 0 .84.051 1.545.154 2.114.112.569.331 1.027.658 1.372.336.345.821.518 1.456.518.625 0 1.101-.173 1.428-.518.336-.345.555-.803.658-1.372.112-.569.168-1.274.168-2.114zm2.855 4.144c1.185-.952 2.114-1.731 2.786-2.338.672-.616 1.236-1.255 1.694-1.918.466-.672.7-1.33.7-1.974 0-.607-.15-1.083-.448-1.428-.29-.355-.761-.532-1.414-.532-.635 0-1.13.201-1.484.602-.346.392-.532.919-.56 1.582h-1.232c.037-1.045.354-1.853.952-2.422.597-.569 1.367-.854 2.31-.854.961 0 1.722.266 2.282.798.569.532.854 1.265.854 2.198 0 .775-.234 1.531-.7 2.268-.458.728-.98 1.372-1.568 1.932-.588.551-1.34 1.195-2.254 1.932h4.816v1.064h-6.734zm13.848-6.692c-.205-1.036-.844-1.554-1.918-1.554-.83 0-1.451.322-1.862.966-.41.635-.611 1.685-.602 3.15.215-.485.57-.863 1.064-1.134.504-.28 1.064-.42 1.68-.42.962 0 1.727.299 2.296.896.579.597.868 1.423.868 2.478 0 .635-.126 1.204-.378 1.708-.242.504-.616.905-1.12 1.204-.494.299-1.096.448-1.806.448-.961 0-1.712-.215-2.254-.644-.541-.429-.919-1.022-1.134-1.778-.214-.756-.322-1.689-.322-2.8 0-3.425 1.195-5.138 3.584-5.138.915 0 1.634.247 2.156.742.523.495.831 1.12.924 1.876zm-1.904 2.086c-.401 0-.779.084-1.134.252-.354.159-.644.406-.868.742-.214.327-.322.728-.322 1.204 0 .709.206 1.288.616 1.736.411.439.999.658 1.764.658.654 0 1.172-.201 1.554-.602.392-.411.588-.961.588-1.652 0-.728-.186-1.297-.56-1.708-.373-.42-.919-.63-1.638-.63zm8.545-3.332v-1.162h2.632v10.122h-1.288v-8.96zm4.821 3.794c0-1.605.261-2.856.784-3.752.523-.905 1.437-1.358 2.744-1.358 1.297 0 2.207.453 2.73 1.358.523.896.784 2.147.784 3.752 0 1.633-.261 2.903-.784 3.808s-1.433 1.358-2.73 1.358c-1.307 0-2.221-.453-2.744-1.358s-.784-2.175-.784-3.808zm5.782 0c0-.812-.056-1.498-.168-2.058-.103-.569-.322-1.027-.658-1.372-.327-.345-.803-.518-1.428-.518-.635 0-1.12.173-1.456.518-.327.345-.546.803-.658 1.372-.103.56-.154 1.246-.154 2.058 0 .84.051 1.545.154 2.114.112.569.331 1.027.658 1.372.336.345.821.518 1.456.518.625 0 1.101-.173 1.428-.518.336-.345.555-.803.658-1.372.112-.569.168-1.274.168-2.114zm3.625 5.25c-.243 0-.448-.084-.616-.252s-.252-.373-.252-.616.084-.448.252-.616.373-.252.616-.252c.233 0 .429.084.588.252.168.168.252.373.252.616s-.084.448-.252.616c-.159.168-.355.252-.588.252zm0-5.992c-.243 0-.448-.084-.616-.252s-.252-.373-.252-.616.084-.448.252-.616.373-.252.616-.252c.233 0 .429.084.588.252.168.168.252.373.252.616s-.084.448-.252.616c-.159.168-.355.252-.588.252zm2.364.742c0-1.605.262-2.856.784-3.752.523-.905 1.438-1.358 2.744-1.358 1.298 0 2.208.453 2.73 1.358.523.896.784 2.147.784 3.752 0 1.633-.261 2.903-.784 3.808-.522.905-1.432 1.358-2.73 1.358-1.306 0-2.221-.453-2.744-1.358-.522-.905-.784-2.175-.784-3.808zm5.782 0c0-.812-.056-1.498-.168-2.058-.102-.569-.322-1.027-.658-1.372-.326-.345-.802-.518-1.428-.518-.634 0-1.12.173-1.456.518-.326.345-.546.803-.658 1.372-.102.56-.154 1.246-.154 2.058 0 .84.052 1.545.154 2.114.112.569.332 1.027.658 1.372.336.345.822.518 1.456.518.626 0 1.102-.173 1.428-.518.336-.345.556-.803.658-1.372.112-.569.168-1.274.168-2.114zm3.009 0c0-1.605.262-2.856.784-3.752.523-.905 1.438-1.358 2.744-1.358 1.298 0 2.208.453 2.73 1.358.523.896.784 2.147.784 3.752 0 1.633-.261 2.903-.784 3.808-.522.905-1.432 1.358-2.73 1.358-1.306 0-2.221-.453-2.744-1.358-.522-.905-.784-2.175-.784-3.808zm5.782 0c0-.812-.056-1.498-.168-2.058-.102-.569-.322-1.027-.658-1.372-.326-.345-.802-.518-1.428-.518-.634 0-1.12.173-1.456.518-.326.345-.546.803-.658 1.372-.102.56-.154 1.246-.154 2.058 0 .84.052 1.545.154 2.114.112.569.332 1.027.658 1.372.336.345.822.518 1.456.518.626 0 1.102-.173 1.428-.518.336-.345.556-.803.658-1.372.112-.569.168-1.274.168-2.114z" fill="#494846"/><path d="m430 218.1 4.55-4.55-4.55-4.55" stroke="#ff7d1e" stroke-linecap="round" stroke-linejoin="round" stroke-width="1.2"/><rect fill="#c9c9c9" fill-opacity=".13" height="55" rx="12" width="422" x="33" y="251"/><path d="m68.688 279.488h-4.848v4.968h-2.544v-4.968h-4.848v-2.304h4.848v-4.968h2.544v4.968h4.848z" fill="#ff7d1e"/><path d="m89.916 281.012h-4.074l-.7 1.988h-1.666l3.486-9.744h1.848l3.486 9.744h-1.68zm-.448-1.302-1.582-4.522-1.596 4.522zm3.808-.602c0-.775.161-1.461.483-2.058s.7607-1.062 1.316-1.393 1.1737-.497 1.855-.497c.504 0 1.001.11 1.491.329s.8797.511 1.169.875v-3.724h1.61v10.36h-1.61v-1.162c-.2613.373-.623.681-1.085.924s-.9917.364-1.589.364c-.672 0-1.2857-.17-1.841-.511s-.994-.817-1.316-1.428-.483-1.304-.483-2.079zm6.314.028c0-.532-.1097-.994-.329-1.386s-.5063-.691-.861-.896-.7373-.308-1.148-.308-.7933.1-1.148.301-.6417.495-.861.882-.329.847-.329 1.379.1097.999.329 1.4.5087.707.868.917.7397.315 1.141.315c.4107 0 .7933-.103 1.148-.308s.6417-.506.861-.903.329-.861.329-1.393zm3.178-.028c0-.775.161-1.461.483-2.058s.761-1.062 1.316-1.393 1.174-.497 1.855-.497c.504 0 1.001.11 1.491.329s.88.511 1.169.875v-3.724h1.61v10.36h-1.61v-1.162c-.261.373-.623.681-1.085.924s-.992.364-1.589.364c-.672 0-1.286-.17-1.841-.511s-.994-.817-1.316-1.428-.483-1.304-.483-2.079zm6.314.028c0-.532-.11-.994-.329-1.386s-.506-.691-.861-.896-.737-.308-1.148-.308-.793.1-1.148.301-.642.495-.861.882-.329.847-.329 1.379.11.999.329 1.4.509.707.868.917.74.315 1.141.315c.411 0 .793-.103 1.148-.308s.642-.506.861-.903.329-.861.329-1.393zm14.336-3.85v7.714h-1.596v-.91c-.252.317-.581.567-.987.749s-.838.273-1.295.273c-.607 0-1.15-.126-1.631-.378s-.859-.625-1.134-1.12-.413-1.092-.413-1.792v-4.536h1.582v4.298c0 .691.173 1.22.518 1.589s.817.553 1.414.553 1.071-.184 1.421-.553.525-.898.525-1.589v-4.298zm3.696 1.134c.271-.355.639-.653 1.106-.896s.994-.364 1.582-.364c.672 0 1.286.166 1.841.497s.992.796 1.309 1.393.476 1.283.476 2.058-.159 1.468-.476 2.079-.754 1.087-1.309 1.428-1.169.511-1.841.511c-.588 0-1.111-.119-1.568-.357s-.831-.534-1.12-.889v4.788h-1.596v-11.382h1.596zm4.69 2.688c0-.532-.11-.992-.329-1.379s-.509-.681-.868-.882-.744-.301-1.155-.301c-.401 0-.782.103-1.141.308s-.649.504-.868.896-.329.854-.329 1.386.11.996.329 1.393.509.698.868.903.74.308 1.141.308c.411 0 .796-.105 1.155-.315s.649-.516.868-.917.329-.868.329-1.4zm2.674 0c0-.775.161-1.461.483-2.058s.761-1.062 1.316-1.393 1.174-.497 1.855-.497c.504 0 1.001.11 1.491.329s.88.511 1.169.875v-3.724h1.61v10.36h-1.61v-1.162c-.261.373-.623.681-1.085.924s-.992.364-1.589.364c-.672 0-1.286-.17-1.841-.511s-.994-.817-1.316-1.428-.483-1.304-.483-2.079zm6.314.028c0-.532-.11-.994-.329-1.386s-.506-.691-.861-.896-.737-.308-1.148-.308-.793.1-1.148.301-.642.495-.861.882-.329.847-.329 1.379.11.999.329 1.4.509.707.868.917.74.315 1.141.315c.411 0 .793-.103 1.148-.308s.642-.506.861-.903.329-.861.329-1.393zm3.178-.028c0-.775.161-1.461.483-2.058s.761-1.062 1.316-1.393 1.169-.497 1.841-.497c.607 0 1.136.119 1.589.357s.814.534 1.085.889v-1.12h1.61v7.714h-1.61v-1.148c-.271.364-.639.667-1.106.91s-.999.364-1.596.364c-.663 0-1.269-.17-1.82-.511s-.987-.817-1.309-1.428-.483-1.304-.483-2.079zm6.314.028c0-.532-.11-.994-.329-1.386s-.506-.691-.861-.896-.737-.308-1.148-.308-.793.1-1.148.301-.642.495-.861.882-.329.847-.329 1.379.11.999.329 1.4.509.707.868.917.74.315 1.141.315c.411 0 .793-.103 1.148-.308s.642-.506.861-.903.329-.861.329-1.393zm5.572-2.548v4.27c0 .289.068.497.203.623s.366.189.693.189h.98v1.33h-1.26c-.719 0-1.269-.168-1.652-.504s-.574-.882-.574-1.638v-4.27h-.91v-1.302h.91v-1.918h1.61v1.918h1.876v1.302zm10.416 2.366c0 .289-.019.551-.056.784h-5.894c.047.616.275 1.111.686 1.484s.915.56 1.512.56c.859 0 1.465-.359 1.82-1.078h1.722c-.233.709-.656 1.29-1.267 1.743s-1.37.679-2.275.679c-.737 0-1.398-.166-1.981-.497s-1.041-.798-1.372-1.4-.497-1.3-.497-2.093.161-1.491.483-2.093.775-1.066 1.358-1.393 1.253-.49 2.009-.49c.728 0 1.377.159 1.946.476s1.013.763 1.33 1.337.476 1.234.476 1.981zm-1.666-.504c-.009-.588-.219-1.059-.63-1.414s-.919-.532-1.526-.532c-.551 0-1.022.175-1.414.525s-.625.824-.7 1.421z" fill="#8c5000"/><path d="m430 283.1 4.55-4.55-4.55-4.55" stroke="#ff7d1e" stroke-linecap="round" stroke-linejoin="round" stroke-width="1.2"/></g></svg>