<svg width="161" height="147" viewBox="0 0 161 147" fill="none" xmlns="http://www.w3.org/2000/svg">
<path d="M1.13745 0H0.953459C0.426878 0 0 0.42688 0 0.953461C0 1.48004 0.426878 1.90692 0.953459 1.90692H1.13745C1.66403 1.90692 2.09091 1.48004 2.09091 0.953461C2.09091 0.42688 1.66403 0 1.13745 0Z" fill="#A7A7A7"/>
<path d="M1.13745 7.62793H0.953459C0.426878 7.62793 0 8.05479 0 8.58138V8.58139C0 9.10797 0.426878 9.53485 0.953459 9.53485H1.13745C1.66403 9.53485 2.09091 9.10797 2.09091 8.58139V8.58138C2.09091 8.05479 1.66403 7.62793 1.13745 7.62793Z" fill="#A7A7A7"/>
<path d="M1.13745 15.2549H0.953459C0.426878 15.2549 0 15.6818 0 16.2083C0 16.7349 0.426878 17.1618 0.953459 17.1618H1.13745C1.66403 17.1618 2.09091 16.7349 2.09091 16.2083C2.09091 15.6818 1.66403 15.2549 1.13745 15.2549Z" fill="#A7A7A7"/>
<path d="M1.13745 22.8828H0.953459C0.426878 22.8828 0 23.3097 0 23.8363C0 24.3629 0.426878 24.7897 0.953459 24.7897H1.13745C1.66403 24.7897 2.09091 24.3629 2.09091 23.8363C2.09091 23.3097 1.66403 22.8828 1.13745 22.8828Z" fill="#A7A7A7"/>
<path d="M1.13745 30.5107H0.953459C0.426878 30.5107 0 30.9376 0 31.4642C0 31.9908 0.426878 32.4177 0.953459 32.4177H1.13745C1.66403 32.4177 2.09091 31.9908 2.09091 31.4642C2.09091 30.9376 1.66403 30.5107 1.13745 30.5107Z" fill="#A7A7A7"/>
<path d="M11.592 0H11.408C10.8815 0 10.4546 0.42688 10.4546 0.953461C10.4546 1.48004 10.8815 1.90692 11.408 1.90692H11.592C12.1186 1.90692 12.5455 1.48004 12.5455 0.953461C12.5455 0.42688 12.1186 0 11.592 0Z" fill="#A7A7A7"/>
<path d="M11.592 7.62793H11.408C10.8815 7.62793 10.4546 8.05479 10.4546 8.58138V8.58139C10.4546 9.10797 10.8815 9.53485 11.408 9.53485H11.592C12.1186 9.53485 12.5455 9.10797 12.5455 8.58139V8.58138C12.5455 8.05479 12.1186 7.62793 11.592 7.62793Z" fill="#A7A7A7"/>
<path d="M11.592 15.2549H11.408C10.8815 15.2549 10.4546 15.6818 10.4546 16.2083C10.4546 16.7349 10.8815 17.1618 11.408 17.1618H11.592C12.1186 17.1618 12.5455 16.7349 12.5455 16.2083C12.5455 15.6818 12.1186 15.2549 11.592 15.2549Z" fill="#A7A7A7"/>
<path d="M11.592 22.8828H11.408C10.8815 22.8828 10.4546 23.3097 10.4546 23.8363C10.4546 24.3629 10.8815 24.7897 11.408 24.7897H11.592C12.1186 24.7897 12.5455 24.3629 12.5455 23.8363C12.5455 23.3097 12.1186 22.8828 11.592 22.8828Z" fill="#A7A7A7"/>
<path d="M11.592 30.5107H11.408C10.8815 30.5107 10.4546 30.9376 10.4546 31.4642C10.4546 31.9908 10.8815 32.4177 11.408 32.4177H11.592C12.1186 32.4177 12.5455 31.9908 12.5455 31.4642C12.5455 30.9376 12.1186 30.5107 11.592 30.5107Z" fill="#A7A7A7"/>
<path d="M22.0466 0H21.8626C21.3361 0 20.9092 0.42688 20.9092 0.953461C20.9092 1.48004 21.3361 1.90692 21.8626 1.90692H22.0466C22.5732 1.90692 23.0001 1.48004 23.0001 0.953461C23.0001 0.42688 22.5732 0 22.0466 0Z" fill="#A7A7A7"/>
<path d="M22.0466 7.62793H21.8626C21.3361 7.62793 20.9092 8.05479 20.9092 8.58138V8.58139C20.9092 9.10797 21.3361 9.53485 21.8626 9.53485H22.0466C22.5732 9.53485 23.0001 9.10797 23.0001 8.58139V8.58138C23.0001 8.05479 22.5732 7.62793 22.0466 7.62793Z" fill="#A7A7A7"/>
<path d="M22.0466 15.2549H21.8626C21.3361 15.2549 20.9092 15.6818 20.9092 16.2083C20.9092 16.7349 21.3361 17.1618 21.8626 17.1618H22.0466C22.5732 17.1618 23.0001 16.7349 23.0001 16.2083C23.0001 15.6818 22.5732 15.2549 22.0466 15.2549Z" fill="#A7A7A7"/>
<path d="M22.0466 22.8828H21.8626C21.3361 22.8828 20.9092 23.3097 20.9092 23.8363C20.9092 24.3629 21.3361 24.7897 21.8626 24.7897H22.0466C22.5732 24.7897 23.0001 24.3629 23.0001 23.8363C23.0001 23.3097 22.5732 22.8828 22.0466 22.8828Z" fill="#A7A7A7"/>
<path d="M22.0466 30.5107H21.8626C21.3361 30.5107 20.9092 30.9376 20.9092 31.4642C20.9092 31.9908 21.3361 32.4177 21.8626 32.4177H22.0466C22.5732 32.4177 23.0001 31.9908 23.0001 31.4642C23.0001 30.9376 22.5732 30.5107 22.0466 30.5107Z" fill="#A7A7A7"/>
<path d="M32.5007 15.2549H32.3167C31.7902 15.2549 31.3633 15.6818 31.3633 16.2083C31.3633 16.7349 31.7902 17.1618 32.3167 17.1618H32.5007C33.0273 17.1618 33.4542 16.7349 33.4542 16.2083C33.4542 15.6818 33.0273 15.2549 32.5007 15.2549Z" fill="#A7A7A7"/>
<path d="M32.5007 22.8828H32.3167C31.7902 22.8828 31.3633 23.3097 31.3633 23.8363C31.3633 24.3629 31.7902 24.7897 32.3167 24.7897H32.5007C33.0273 24.7897 33.4542 24.3629 33.4542 23.8363C33.4542 23.3097 33.0273 22.8828 32.5007 22.8828Z" fill="#A7A7A7"/>
<path d="M32.5007 30.5107H32.3167C31.7902 30.5107 31.3633 30.9376 31.3633 31.4642C31.3633 31.9908 31.7902 32.4177 32.3167 32.4177H32.5007C33.0273 32.4177 33.4542 31.9908 33.4542 31.4642C33.4542 30.9376 33.0273 30.5107 32.5007 30.5107Z" fill="#A7A7A7"/>
<path d="M32.5007 7.62793H32.3167C31.7902 7.62793 31.3633 8.05479 31.3633 8.58138V8.58139C31.3633 9.10797 31.7902 9.53485 32.3167 9.53485H32.5007C33.0273 9.53485 33.4542 9.10797 33.4542 8.58139V8.58138C33.4542 8.05479 33.0273 7.62793 32.5007 7.62793Z" fill="#A7A7A7"/>
<path d="M32.5007 0H32.3167C31.7902 0 31.3633 0.42688 31.3633 0.953461C31.3633 1.48004 31.7902 1.90692 32.3167 1.90692H32.5007C33.0273 1.90692 33.4542 1.48004 33.4542 0.953461C33.4542 0.42688 33.0273 0 32.5007 0Z" fill="#A7A7A7"/>
<path d="M86.865 0H86.681C86.1544 0 85.7275 0.42688 85.7275 0.953461C85.7275 1.48004 86.1544 1.90692 86.681 1.90692H86.865C87.3916 1.90692 87.8185 1.48004 87.8185 0.953461C87.8185 0.42688 87.3916 0 86.865 0Z" fill="#A7A7A7"/>
<path d="M86.8645 7.62793H86.6805C86.1539 7.62793 85.7271 8.05479 85.7271 8.58138V8.58139C85.7271 9.10797 86.1539 9.53485 86.6805 9.53485H86.8645C87.3911 9.53485 87.818 9.10797 87.818 8.58139V8.58138C87.818 8.05479 87.3911 7.62793 86.8645 7.62793Z" fill="#A7A7A7"/>
<path d="M86.8645 15.2549H86.6805C86.1539 15.2549 85.7271 15.6818 85.7271 16.2083C85.7271 16.7349 86.1539 17.1618 86.6805 17.1618H86.8645C87.3911 17.1618 87.818 16.7349 87.818 16.2083C87.818 15.6818 87.3911 15.2549 86.8645 15.2549Z" fill="#A7A7A7"/>
<path d="M86.8645 22.8828H86.6805C86.1539 22.8828 85.7271 23.3097 85.7271 23.8363C85.7271 24.3629 86.1539 24.7897 86.6805 24.7897H86.8645C87.3911 24.7897 87.818 24.3629 87.818 23.8363C87.818 23.3097 87.3911 22.8828 86.8645 22.8828Z" fill="#A7A7A7"/>
<path d="M86.8645 30.5107H86.6805C86.1539 30.5107 85.7271 30.9376 85.7271 31.4642C85.7271 31.9908 86.1539 32.4177 86.6805 32.4177H86.8645C87.3911 32.4177 87.818 31.9908 87.818 31.4642C87.818 30.9376 87.3911 30.5107 86.8645 30.5107Z" fill="#A7A7A7"/>
<path d="M97.3191 0H97.1351C96.6085 0 96.1816 0.42688 96.1816 0.953461C96.1816 1.48004 96.6085 1.90692 97.1351 1.90692H97.3191C97.8457 1.90692 98.2725 1.48004 98.2725 0.953461C98.2725 0.42688 97.8457 0 97.3191 0Z" fill="#A7A7A7"/>
<path d="M97.3191 7.62793H97.1351C96.6085 7.62793 96.1816 8.05479 96.1816 8.58138V8.58139C96.1816 9.10797 96.6085 9.53485 97.1351 9.53485H97.3191C97.8457 9.53485 98.2725 9.10797 98.2725 8.58139V8.58138C98.2725 8.05479 97.8457 7.62793 97.3191 7.62793Z" fill="#A7A7A7"/>
<path d="M97.3191 15.2549H97.1351C96.6085 15.2549 96.1816 15.6818 96.1816 16.2083C96.1816 16.7349 96.6085 17.1618 97.1351 17.1618H97.3191C97.8457 17.1618 98.2725 16.7349 98.2725 16.2083C98.2725 15.6818 97.8457 15.2549 97.3191 15.2549Z" fill="#A7A7A7"/>
<path d="M97.3191 22.8828H97.1351C96.6085 22.8828 96.1816 23.3097 96.1816 23.8363C96.1816 24.3629 96.6085 24.7897 97.1351 24.7897H97.3191C97.8457 24.7897 98.2725 24.3629 98.2725 23.8363C98.2725 23.3097 97.8457 22.8828 97.3191 22.8828Z" fill="#A7A7A7"/>
<path d="M97.3191 30.5107H97.1351C96.6085 30.5107 96.1816 30.9376 96.1816 31.4642C96.1816 31.9908 96.6085 32.4177 97.1351 32.4177H97.3191C97.8457 32.4177 98.2725 31.9908 98.2725 31.4642C98.2725 30.9376 97.8457 30.5107 97.3191 30.5107Z" fill="#A7A7A7"/>
<path d="M107.773 0H107.589C107.063 0 106.636 0.42688 106.636 0.953461C106.636 1.48004 107.063 1.90692 107.589 1.90692H107.773C108.3 1.90692 108.727 1.48004 108.727 0.953461C108.727 0.42688 108.3 0 107.773 0Z" fill="#A7A7A7"/>
<path d="M107.773 7.62793H107.589C107.063 7.62793 106.636 8.05479 106.636 8.58138V8.58139C106.636 9.10797 107.063 9.53485 107.589 9.53485H107.773C108.3 9.53485 108.727 9.10797 108.727 8.58139V8.58138C108.727 8.05479 108.3 7.62793 107.773 7.62793Z" fill="#A7A7A7"/>
<path d="M107.773 15.2549H107.589C107.063 15.2549 106.636 15.6818 106.636 16.2083C106.636 16.7349 107.063 17.1618 107.589 17.1618H107.773C108.3 17.1618 108.727 16.7349 108.727 16.2083C108.727 15.6818 108.3 15.2549 107.773 15.2549Z" fill="#A7A7A7"/>
<path d="M107.773 22.8828H107.589C107.063 22.8828 106.636 23.3097 106.636 23.8363C106.636 24.3629 107.063 24.7897 107.589 24.7897H107.773C108.3 24.7897 108.727 24.3629 108.727 23.8363C108.727 23.3097 108.3 22.8828 107.773 22.8828Z" fill="#A7A7A7"/>
<path d="M107.773 30.5107H107.589C107.063 30.5107 106.636 30.9376 106.636 31.4642C106.636 31.9908 107.063 32.4177 107.589 32.4177H107.773C108.3 32.4177 108.727 31.9908 108.727 31.4642C108.727 30.9376 108.3 30.5107 107.773 30.5107Z" fill="#A7A7A7"/>
<path d="M118.229 15.2549H118.045C117.518 15.2549 117.091 15.6818 117.091 16.2083C117.091 16.7349 117.518 17.1618 118.045 17.1618H118.229C118.755 17.1618 119.182 16.7349 119.182 16.2083C119.182 15.6818 118.755 15.2549 118.229 15.2549Z" fill="#A7A7A7"/>
<path d="M118.229 22.8828H118.045C117.518 22.8828 117.091 23.3097 117.091 23.8363C117.091 24.3629 117.518 24.7897 118.045 24.7897H118.229C118.755 24.7897 119.182 24.3629 119.182 23.8363C119.182 23.3097 118.755 22.8828 118.229 22.8828Z" fill="#A7A7A7"/>
<path d="M118.229 30.5107H118.045C117.518 30.5107 117.091 30.9376 117.091 31.4642C117.091 31.9908 117.518 32.4177 118.045 32.4177H118.229C118.755 32.4177 119.182 31.9908 119.182 31.4642C119.182 30.9376 118.755 30.5107 118.229 30.5107Z" fill="#A7A7A7"/>
<path d="M118.229 7.62793H118.045C117.518 7.62793 117.091 8.05479 117.091 8.58138V8.58139C117.091 9.10797 117.518 9.53485 118.045 9.53485H118.229C118.755 9.53485 119.182 9.10797 119.182 8.58139V8.58138C119.182 8.05479 118.755 7.62793 118.229 7.62793Z" fill="#A7A7A7"/>
<path d="M118.229 0H118.045C117.518 0 117.091 0.42688 117.091 0.953461C117.091 1.48004 117.518 1.90692 118.045 1.90692H118.229C118.755 1.90692 119.182 1.48004 119.182 0.953461C119.182 0.42688 118.755 0 118.229 0Z" fill="#A7A7A7"/>
<path d="M44.0017 0H43.8177C43.2911 0 42.8643 0.42688 42.8643 0.953461C42.8643 1.48004 43.2911 1.90692 43.8177 1.90692H44.0017C44.5283 1.90692 44.9552 1.48004 44.9552 0.953461C44.9552 0.42688 44.5283 0 44.0017 0Z" fill="#A7A7A7"/>
<path d="M44.0012 7.62793H43.8172C43.2906 7.62793 42.8638 8.05479 42.8638 8.58138V8.58139C42.8638 9.10797 43.2906 9.53485 43.8172 9.53485H44.0012C44.5278 9.53485 44.9547 9.10797 44.9547 8.58139V8.58138C44.9547 8.05479 44.5278 7.62793 44.0012 7.62793Z" fill="#A7A7A7"/>
<path d="M44.0012 15.2549H43.8172C43.2906 15.2549 42.8638 15.6818 42.8638 16.2083C42.8638 16.7349 43.2906 17.1618 43.8172 17.1618H44.0012C44.5278 17.1618 44.9547 16.7349 44.9547 16.2083C44.9547 15.6818 44.5278 15.2549 44.0012 15.2549Z" fill="#A7A7A7"/>
<path d="M44.0012 22.8828H43.8172C43.2906 22.8828 42.8638 23.3097 42.8638 23.8363C42.8638 24.3629 43.2906 24.7897 43.8172 24.7897H44.0012C44.5278 24.7897 44.9547 24.3629 44.9547 23.8363C44.9547 23.3097 44.5278 22.8828 44.0012 22.8828Z" fill="#A7A7A7"/>
<path d="M44.0012 30.5107H43.8172C43.2906 30.5107 42.8638 30.9376 42.8638 31.4642C42.8638 31.9908 43.2906 32.4177 43.8172 32.4177H44.0012C44.5278 32.4177 44.9547 31.9908 44.9547 31.4642C44.9547 30.9376 44.5278 30.5107 44.0012 30.5107Z" fill="#A7A7A7"/>
<path d="M54.4558 0H54.2718C53.7452 0 53.3184 0.42688 53.3184 0.953461C53.3184 1.48004 53.7452 1.90692 54.2718 1.90692H54.4558C54.9824 1.90692 55.4093 1.48004 55.4093 0.953461C55.4093 0.42688 54.9824 0 54.4558 0Z" fill="#A7A7A7"/>
<path d="M54.4558 7.62793H54.2718C53.7452 7.62793 53.3184 8.05479 53.3184 8.58138V8.58139C53.3184 9.10797 53.7452 9.53485 54.2718 9.53485H54.4558C54.9824 9.53485 55.4093 9.10797 55.4093 8.58139V8.58138C55.4093 8.05479 54.9824 7.62793 54.4558 7.62793Z" fill="#A7A7A7"/>
<path d="M54.4558 15.2549H54.2718C53.7452 15.2549 53.3184 15.6818 53.3184 16.2083C53.3184 16.7349 53.7452 17.1618 54.2718 17.1618H54.4558C54.9824 17.1618 55.4093 16.7349 55.4093 16.2083C55.4093 15.6818 54.9824 15.2549 54.4558 15.2549Z" fill="#A7A7A7"/>
<path d="M54.4558 22.8828H54.2718C53.7452 22.8828 53.3184 23.3097 53.3184 23.8363C53.3184 24.3629 53.7452 24.7897 54.2718 24.7897H54.4558C54.9824 24.7897 55.4093 24.3629 55.4093 23.8363C55.4093 23.3097 54.9824 22.8828 54.4558 22.8828Z" fill="#A7A7A7"/>
<path d="M54.4558 30.5107H54.2718C53.7452 30.5107 53.3184 30.9376 53.3184 31.4642C53.3184 31.9908 53.7452 32.4177 54.2718 32.4177H54.4558C54.9824 32.4177 55.4093 31.9908 55.4093 31.4642C55.4093 30.9376 54.9824 30.5107 54.4558 30.5107Z" fill="#A7A7A7"/>
<path d="M64.9104 0H64.7264C64.1998 0 63.7729 0.42688 63.7729 0.953461C63.7729 1.48004 64.1998 1.90692 64.7264 1.90692H64.9104C65.437 1.90692 65.8639 1.48004 65.8639 0.953461C65.8639 0.42688 65.437 0 64.9104 0Z" fill="#A7A7A7"/>
<path d="M64.9104 7.62793H64.7264C64.1998 7.62793 63.7729 8.05479 63.7729 8.58138V8.58139C63.7729 9.10797 64.1998 9.53485 64.7264 9.53485H64.9104C65.437 9.53485 65.8639 9.10797 65.8639 8.58139V8.58138C65.8639 8.05479 65.437 7.62793 64.9104 7.62793Z" fill="#A7A7A7"/>
<path d="M64.9104 15.2549H64.7264C64.1998 15.2549 63.7729 15.6818 63.7729 16.2083C63.7729 16.7349 64.1998 17.1618 64.7264 17.1618H64.9104C65.437 17.1618 65.8639 16.7349 65.8639 16.2083C65.8639 15.6818 65.437 15.2549 64.9104 15.2549Z" fill="#A7A7A7"/>
<path d="M64.9104 22.8828H64.7264C64.1998 22.8828 63.7729 23.3097 63.7729 23.8363C63.7729 24.3629 64.1998 24.7897 64.7264 24.7897H64.9104C65.437 24.7897 65.8639 24.3629 65.8639 23.8363C65.8639 23.3097 65.437 22.8828 64.9104 22.8828Z" fill="#A7A7A7"/>
<path d="M64.9104 30.5107H64.7264C64.1998 30.5107 63.7729 30.9376 63.7729 31.4642C63.7729 31.9908 64.1998 32.4177 64.7264 32.4177H64.9104C65.437 32.4177 65.8639 31.9908 65.8639 31.4642C65.8639 30.9376 65.437 30.5107 64.9104 30.5107Z" fill="#A7A7A7"/>
<path d="M75.3645 15.2549H75.1805C74.6539 15.2549 74.2271 15.6818 74.2271 16.2083C74.2271 16.7349 74.6539 17.1618 75.1805 17.1618H75.3645C75.8911 17.1618 76.318 16.7349 76.318 16.2083C76.318 15.6818 75.8911 15.2549 75.3645 15.2549Z" fill="#A7A7A7"/>
<path d="M75.3645 22.8828H75.1805C74.6539 22.8828 74.2271 23.3097 74.2271 23.8363C74.2271 24.3629 74.6539 24.7897 75.1805 24.7897H75.3645C75.8911 24.7897 76.318 24.3629 76.318 23.8363C76.318 23.3097 75.8911 22.8828 75.3645 22.8828Z" fill="#A7A7A7"/>
<path d="M75.3645 30.5107H75.1805C74.6539 30.5107 74.2271 30.9376 74.2271 31.4642C74.2271 31.9908 74.6539 32.4177 75.1805 32.4177H75.3645C75.8911 32.4177 76.318 31.9908 76.318 31.4642C76.318 30.9376 75.8911 30.5107 75.3645 30.5107Z" fill="#A7A7A7"/>
<path d="M75.3645 7.62793H75.1805C74.6539 7.62793 74.2271 8.05479 74.2271 8.58138V8.58139C74.2271 9.10797 74.6539 9.53485 75.1805 9.53485H75.3645C75.8911 9.53485 76.318 9.10797 76.318 8.58139V8.58138C76.318 8.05479 75.8911 7.62793 75.3645 7.62793Z" fill="#A7A7A7"/>
<path d="M75.3645 0H75.1805C74.6539 0 74.2271 0.42688 74.2271 0.953461C74.2271 1.48004 74.6539 1.90692 75.1805 1.90692H75.3645C75.8911 1.90692 76.318 1.48004 76.318 0.953461C76.318 0.42688 75.8911 0 75.3645 0Z" fill="#A7A7A7"/>
<path d="M128.683 0H128.499C127.973 0 127.546 0.42688 127.546 0.953461C127.546 1.48004 127.973 1.90692 128.499 1.90692H128.683C129.21 1.90692 129.637 1.48004 129.637 0.953461C129.637 0.42688 129.21 0 128.683 0Z" fill="#A7A7A7"/>
<path d="M128.682 7.62793H128.498C127.972 7.62793 127.545 8.05479 127.545 8.58138V8.58139C127.545 9.10797 127.972 9.53485 128.498 9.53485H128.682C129.209 9.53485 129.636 9.10797 129.636 8.58139V8.58138C129.636 8.05479 129.209 7.62793 128.682 7.62793Z" fill="#A7A7A7"/>
<path d="M128.682 15.2549H128.498C127.972 15.2549 127.545 15.6818 127.545 16.2083C127.545 16.7349 127.972 17.1618 128.498 17.1618H128.682C129.209 17.1618 129.636 16.7349 129.636 16.2083C129.636 15.6818 129.209 15.2549 128.682 15.2549Z" fill="#A7A7A7"/>
<path d="M128.682 22.8828H128.498C127.972 22.8828 127.545 23.3097 127.545 23.8363C127.545 24.3629 127.972 24.7897 128.498 24.7897H128.682C129.209 24.7897 129.636 24.3629 129.636 23.8363C129.636 23.3097 129.209 22.8828 128.682 22.8828Z" fill="#A7A7A7"/>
<path d="M128.682 30.5107H128.498C127.972 30.5107 127.545 30.9376 127.545 31.4642C127.545 31.9908 127.972 32.4177 128.498 32.4177H128.682C129.209 32.4177 129.636 31.9908 129.636 31.4642C129.636 30.9376 129.209 30.5107 128.682 30.5107Z" fill="#A7A7A7"/>
<path d="M139.137 0H138.953C138.427 0 138 0.42688 138 0.953461C138 1.48004 138.427 1.90692 138.953 1.90692H139.137C139.664 1.90692 140.091 1.48004 140.091 0.953461C140.091 0.42688 139.664 0 139.137 0Z" fill="#A7A7A7"/>
<path d="M139.137 7.62793H138.953C138.427 7.62793 138 8.05479 138 8.58138V8.58139C138 9.10797 138.427 9.53485 138.953 9.53485H139.137C139.664 9.53485 140.091 9.10797 140.091 8.58139V8.58138C140.091 8.05479 139.664 7.62793 139.137 7.62793Z" fill="#A7A7A7"/>
<path d="M139.137 15.2549H138.953C138.427 15.2549 138 15.6818 138 16.2083C138 16.7349 138.427 17.1618 138.953 17.1618H139.137C139.664 17.1618 140.091 16.7349 140.091 16.2083C140.091 15.6818 139.664 15.2549 139.137 15.2549Z" fill="#A7A7A7"/>
<path d="M139.137 22.8828H138.953C138.427 22.8828 138 23.3097 138 23.8363C138 24.3629 138.427 24.7897 138.953 24.7897H139.137C139.664 24.7897 140.091 24.3629 140.091 23.8363C140.091 23.3097 139.664 22.8828 139.137 22.8828Z" fill="#A7A7A7"/>
<path d="M139.137 30.5107H138.953C138.427 30.5107 138 30.9376 138 31.4642C138 31.9908 138.427 32.4177 138.953 32.4177H139.137C139.664 32.4177 140.091 31.9908 140.091 31.4642C140.091 30.9376 139.664 30.5107 139.137 30.5107Z" fill="#A7A7A7"/>
<path d="M149.593 0H149.409C148.882 0 148.455 0.42688 148.455 0.953461C148.455 1.48004 148.882 1.90692 149.409 1.90692H149.593C150.119 1.90692 150.546 1.48004 150.546 0.953461C150.546 0.42688 150.119 0 149.593 0Z" fill="#A7A7A7"/>
<path d="M149.593 7.62793H149.409C148.882 7.62793 148.455 8.05479 148.455 8.58138V8.58139C148.455 9.10797 148.882 9.53485 149.409 9.53485H149.593C150.119 9.53485 150.546 9.10797 150.546 8.58139V8.58138C150.546 8.05479 150.119 7.62793 149.593 7.62793Z" fill="#A7A7A7"/>
<path d="M149.593 15.2549H149.409C148.882 15.2549 148.455 15.6818 148.455 16.2083C148.455 16.7349 148.882 17.1618 149.409 17.1618H149.593C150.119 17.1618 150.546 16.7349 150.546 16.2083C150.546 15.6818 150.119 15.2549 149.593 15.2549Z" fill="#A7A7A7"/>
<path d="M149.593 22.8828H149.409C148.882 22.8828 148.455 23.3097 148.455 23.8363C148.455 24.3629 148.882 24.7897 149.409 24.7897H149.593C150.119 24.7897 150.546 24.3629 150.546 23.8363C150.546 23.3097 150.119 22.8828 149.593 22.8828Z" fill="#A7A7A7"/>
<path d="M149.593 30.5107H149.409C148.882 30.5107 148.455 30.9376 148.455 31.4642C148.455 31.9908 148.882 32.4177 149.409 32.4177H149.593C150.119 32.4177 150.546 31.9908 150.546 31.4642C150.546 30.9376 150.119 30.5107 149.593 30.5107Z" fill="#A7A7A7"/>
<path d="M160.046 15.2549H159.862C159.336 15.2549 158.909 15.6818 158.909 16.2083C158.909 16.7349 159.336 17.1618 159.862 17.1618H160.046C160.573 17.1618 161 16.7349 161 16.2083C161 15.6818 160.573 15.2549 160.046 15.2549Z" fill="#A7A7A7"/>
<path d="M160.046 22.8828H159.862C159.336 22.8828 158.909 23.3097 158.909 23.8363C158.909 24.3629 159.336 24.7897 159.862 24.7897H160.046C160.573 24.7897 161 24.3629 161 23.8363C161 23.3097 160.573 22.8828 160.046 22.8828Z" fill="#A7A7A7"/>
<path d="M160.046 30.5107H159.862C159.336 30.5107 158.909 30.9376 158.909 31.4642C158.909 31.9908 159.336 32.4177 159.862 32.4177H160.046C160.573 32.4177 161 31.9908 161 31.4642C161 30.9376 160.573 30.5107 160.046 30.5107Z" fill="#A7A7A7"/>
<path d="M160.046 7.62793H159.862C159.336 7.62793 158.909 8.05479 158.909 8.58138V8.58139C158.909 9.10797 159.336 9.53485 159.862 9.53485H160.046C160.573 9.53485 161 9.10797 161 8.58139V8.58138C161 8.05479 160.573 7.62793 160.046 7.62793Z" fill="#A7A7A7"/>
<path d="M160.046 0H159.862C159.336 0 158.909 0.42688 158.909 0.953461C158.909 1.48004 159.336 1.90692 159.862 1.90692H160.046C160.573 1.90692 161 1.48004 161 0.953461C161 0.42688 160.573 0 160.046 0Z" fill="#A7A7A7"/>
<path d="M1.13745 39.0918H0.953459C0.426878 39.0918 0 39.5187 0 40.0453C0 40.5718 0.426878 40.9987 0.953459 40.9987H1.13745C1.66403 40.9987 2.09091 40.5718 2.09091 40.0453C2.09091 39.5187 1.66403 39.0918 1.13745 39.0918Z" fill="#A7A7A7"/>
<path d="M1.13745 46.7188H0.953459C0.426878 46.7188 0 47.1456 0 47.6722C0 48.1988 0.426878 48.6257 0.953459 48.6257H1.13745C1.66403 48.6257 2.09091 48.1988 2.09091 47.6722C2.09091 47.1456 1.66403 46.7188 1.13745 46.7188Z" fill="#A7A7A7"/>
<path d="M1.13745 54.3467H0.953459C0.426878 54.3467 0 54.7736 0 55.3001C0 55.8267 0.426878 56.2536 0.953459 56.2536H1.13745C1.66403 56.2536 2.09091 55.8267 2.09091 55.3001C2.09091 54.7736 1.66403 54.3467 1.13745 54.3467Z" fill="#A7A7A7"/>
<path d="M1.13745 61.9746H0.953459C0.426878 61.9746 0 62.4015 0 62.9281V62.9281C0 63.4547 0.426878 63.8815 0.953459 63.8815H1.13745C1.66403 63.8815 2.09091 63.4547 2.09091 62.9281V62.9281C2.09091 62.4015 1.66403 61.9746 1.13745 61.9746Z" fill="#A7A7A7"/>
<path d="M1.13745 69.6025H0.953459C0.426878 69.6025 0 70.0294 0 70.556C0 71.0826 0.426878 71.5095 0.953459 71.5095H1.13745C1.66403 71.5095 2.09091 71.0826 2.09091 70.556C2.09091 70.0294 1.66403 69.6025 1.13745 69.6025Z" fill="#A7A7A7"/>
<path d="M11.592 39.0918H11.408C10.8815 39.0918 10.4546 39.5187 10.4546 40.0453C10.4546 40.5718 10.8815 40.9987 11.408 40.9987H11.592C12.1186 40.9987 12.5455 40.5718 12.5455 40.0453C12.5455 39.5187 12.1186 39.0918 11.592 39.0918Z" fill="#A7A7A7"/>
<path d="M11.592 46.7188H11.408C10.8815 46.7188 10.4546 47.1456 10.4546 47.6722C10.4546 48.1988 10.8815 48.6257 11.408 48.6257H11.592C12.1186 48.6257 12.5455 48.1988 12.5455 47.6722C12.5455 47.1456 12.1186 46.7188 11.592 46.7188Z" fill="#A7A7A7"/>
<path d="M11.592 54.3467H11.408C10.8815 54.3467 10.4546 54.7736 10.4546 55.3001C10.4546 55.8267 10.8815 56.2536 11.408 56.2536H11.592C12.1186 56.2536 12.5455 55.8267 12.5455 55.3001C12.5455 54.7736 12.1186 54.3467 11.592 54.3467Z" fill="#A7A7A7"/>
<path d="M11.592 61.9746H11.408C10.8815 61.9746 10.4546 62.4015 10.4546 62.9281V62.9281C10.4546 63.4547 10.8815 63.8815 11.408 63.8815H11.592C12.1186 63.8815 12.5455 63.4547 12.5455 62.9281V62.9281C12.5455 62.4015 12.1186 61.9746 11.592 61.9746Z" fill="#A7A7A7"/>
<path d="M11.592 69.6025H11.408C10.8815 69.6025 10.4546 70.0294 10.4546 70.556C10.4546 71.0826 10.8815 71.5095 11.408 71.5095H11.592C12.1186 71.5095 12.5455 71.0826 12.5455 70.556C12.5455 70.0294 12.1186 69.6025 11.592 69.6025Z" fill="#A7A7A7"/>
<path d="M22.0466 39.0918H21.8626C21.3361 39.0918 20.9092 39.5187 20.9092 40.0453C20.9092 40.5718 21.3361 40.9987 21.8626 40.9987H22.0466C22.5732 40.9987 23.0001 40.5718 23.0001 40.0453C23.0001 39.5187 22.5732 39.0918 22.0466 39.0918Z" fill="#A7A7A7"/>
<path d="M22.0466 46.7188H21.8626C21.3361 46.7188 20.9092 47.1456 20.9092 47.6722C20.9092 48.1988 21.3361 48.6257 21.8626 48.6257H22.0466C22.5732 48.6257 23.0001 48.1988 23.0001 47.6722C23.0001 47.1456 22.5732 46.7188 22.0466 46.7188Z" fill="#A7A7A7"/>
<path d="M22.0466 54.3467H21.8626C21.3361 54.3467 20.9092 54.7736 20.9092 55.3001C20.9092 55.8267 21.3361 56.2536 21.8626 56.2536H22.0466C22.5732 56.2536 23.0001 55.8267 23.0001 55.3001C23.0001 54.7736 22.5732 54.3467 22.0466 54.3467Z" fill="#A7A7A7"/>
<path d="M22.0466 61.9746H21.8626C21.3361 61.9746 20.9092 62.4015 20.9092 62.9281V62.9281C20.9092 63.4547 21.3361 63.8815 21.8626 63.8815H22.0466C22.5732 63.8815 23.0001 63.4547 23.0001 62.9281V62.9281C23.0001 62.4015 22.5732 61.9746 22.0466 61.9746Z" fill="#A7A7A7"/>
<path d="M22.0466 69.6025H21.8626C21.3361 69.6025 20.9092 70.0294 20.9092 70.556C20.9092 71.0826 21.3361 71.5095 21.8626 71.5095H22.0466C22.5732 71.5095 23.0001 71.0826 23.0001 70.556C23.0001 70.0294 22.5732 69.6025 22.0466 69.6025Z" fill="#A7A7A7"/>
<path d="M32.5007 54.3467H32.3167C31.7902 54.3467 31.3633 54.7736 31.3633 55.3001C31.3633 55.8267 31.7902 56.2536 32.3167 56.2536H32.5007C33.0273 56.2536 33.4542 55.8267 33.4542 55.3001C33.4542 54.7736 33.0273 54.3467 32.5007 54.3467Z" fill="#A7A7A7"/>
<path d="M32.5007 61.9746H32.3167C31.7902 61.9746 31.3633 62.4015 31.3633 62.9281V62.9281C31.3633 63.4547 31.7902 63.8815 32.3167 63.8815H32.5007C33.0273 63.8815 33.4542 63.4547 33.4542 62.9281V62.9281C33.4542 62.4015 33.0273 61.9746 32.5007 61.9746Z" fill="#A7A7A7"/>
<path d="M32.5007 69.6025H32.3167C31.7902 69.6025 31.3633 70.0294 31.3633 70.556C31.3633 71.0826 31.7902 71.5095 32.3167 71.5095H32.5007C33.0273 71.5095 33.4542 71.0826 33.4542 70.556C33.4542 70.0294 33.0273 69.6025 32.5007 69.6025Z" fill="#A7A7A7"/>
<path d="M32.5007 46.7188H32.3167C31.7902 46.7188 31.3633 47.1456 31.3633 47.6722C31.3633 48.1988 31.7902 48.6257 32.3167 48.6257H32.5007C33.0273 48.6257 33.4542 48.1988 33.4542 47.6722C33.4542 47.1456 33.0273 46.7188 32.5007 46.7188Z" fill="#A7A7A7"/>
<path d="M32.5007 39.0918H32.3167C31.7902 39.0918 31.3633 39.5187 31.3633 40.0453C31.3633 40.5718 31.7902 40.9987 32.3167 40.9987H32.5007C33.0273 40.9987 33.4542 40.5718 33.4542 40.0453C33.4542 39.5187 33.0273 39.0918 32.5007 39.0918Z" fill="#A7A7A7"/>
<path d="M86.8645 39.0918H86.6805C86.1539 39.0918 85.7271 39.5187 85.7271 40.0453C85.7271 40.5718 86.1539 40.9987 86.6805 40.9987H86.8645C87.3911 40.9987 87.818 40.5718 87.818 40.0453C87.818 39.5187 87.3911 39.0918 86.8645 39.0918Z" fill="#A7A7A7"/>
<path d="M86.8645 46.7188H86.6805C86.1539 46.7188 85.7271 47.1456 85.7271 47.6722C85.7271 48.1988 86.1539 48.6257 86.6805 48.6257H86.8645C87.3911 48.6257 87.818 48.1988 87.818 47.6722C87.818 47.1456 87.3911 46.7188 86.8645 46.7188Z" fill="#A7A7A7"/>
<path d="M86.8645 54.3467H86.6805C86.1539 54.3467 85.7271 54.7736 85.7271 55.3001C85.7271 55.8267 86.1539 56.2536 86.6805 56.2536H86.8645C87.3911 56.2536 87.818 55.8267 87.818 55.3001C87.818 54.7736 87.3911 54.3467 86.8645 54.3467Z" fill="#A7A7A7"/>
<path d="M86.8645 61.9746H86.6805C86.1539 61.9746 85.7271 62.4015 85.7271 62.9281V62.9281C85.7271 63.4547 86.1539 63.8815 86.6805 63.8815H86.8645C87.3911 63.8815 87.818 63.4547 87.818 62.9281V62.9281C87.818 62.4015 87.3911 61.9746 86.8645 61.9746Z" fill="#A7A7A7"/>
<path d="M86.8645 69.6016H86.6805C86.1539 69.6016 85.7271 70.0284 85.7271 70.555C85.7271 71.0816 86.1539 71.5085 86.6805 71.5085H86.8645C87.3911 71.5085 87.818 71.0816 87.818 70.555C87.818 70.0284 87.3911 69.6016 86.8645 69.6016Z" fill="#A7A7A7"/>
<path d="M97.3191 39.0918H97.1351C96.6085 39.0918 96.1816 39.5187 96.1816 40.0453C96.1816 40.5718 96.6085 40.9987 97.1351 40.9987H97.3191C97.8457 40.9987 98.2725 40.5718 98.2725 40.0453C98.2725 39.5187 97.8457 39.0918 97.3191 39.0918Z" fill="#A7A7A7"/>
<path d="M97.3191 46.7188H97.1351C96.6085 46.7188 96.1816 47.1456 96.1816 47.6722C96.1816 48.1988 96.6085 48.6257 97.1351 48.6257H97.3191C97.8457 48.6257 98.2725 48.1988 98.2725 47.6722C98.2725 47.1456 97.8457 46.7188 97.3191 46.7188Z" fill="#A7A7A7"/>
<path d="M97.3191 54.3467H97.1351C96.6085 54.3467 96.1816 54.7736 96.1816 55.3001C96.1816 55.8267 96.6085 56.2536 97.1351 56.2536H97.3191C97.8457 56.2536 98.2725 55.8267 98.2725 55.3001C98.2725 54.7736 97.8457 54.3467 97.3191 54.3467Z" fill="#A7A7A7"/>
<path d="M97.3191 61.9746H97.1351C96.6085 61.9746 96.1816 62.4015 96.1816 62.9281V62.9281C96.1816 63.4547 96.6085 63.8815 97.1351 63.8815H97.3191C97.8457 63.8815 98.2725 63.4547 98.2725 62.9281V62.9281C98.2725 62.4015 97.8457 61.9746 97.3191 61.9746Z" fill="#A7A7A7"/>
<path d="M97.3191 69.6025H97.1351C96.6085 69.6025 96.1816 70.0294 96.1816 70.556C96.1816 71.0826 96.6085 71.5095 97.1351 71.5095H97.3191C97.8457 71.5095 98.2725 71.0826 98.2725 70.556C98.2725 70.0294 97.8457 69.6025 97.3191 69.6025Z" fill="#A7A7A7"/>
<path d="M107.773 39.0918H107.589C107.063 39.0918 106.636 39.5187 106.636 40.0453C106.636 40.5718 107.063 40.9987 107.589 40.9987H107.773C108.3 40.9987 108.727 40.5718 108.727 40.0453C108.727 39.5187 108.3 39.0918 107.773 39.0918Z" fill="#A7A7A7"/>
<path d="M107.773 46.7188H107.589C107.063 46.7188 106.636 47.1456 106.636 47.6722C106.636 48.1988 107.063 48.6257 107.589 48.6257H107.773C108.3 48.6257 108.727 48.1988 108.727 47.6722C108.727 47.1456 108.3 46.7188 107.773 46.7188Z" fill="#A7A7A7"/>
<path d="M107.773 54.3467H107.589C107.063 54.3467 106.636 54.7736 106.636 55.3001C106.636 55.8267 107.063 56.2536 107.589 56.2536H107.773C108.3 56.2536 108.727 55.8267 108.727 55.3001C108.727 54.7736 108.3 54.3467 107.773 54.3467Z" fill="#A7A7A7"/>
<path d="M107.773 61.9746H107.589C107.063 61.9746 106.636 62.4015 106.636 62.9281V62.9281C106.636 63.4547 107.063 63.8815 107.589 63.8815H107.773C108.3 63.8815 108.727 63.4547 108.727 62.9281V62.9281C108.727 62.4015 108.3 61.9746 107.773 61.9746Z" fill="#A7A7A7"/>
<path d="M107.773 69.6025H107.589C107.063 69.6025 106.636 70.0294 106.636 70.556C106.636 71.0826 107.063 71.5095 107.589 71.5095H107.773C108.3 71.5095 108.727 71.0826 108.727 70.556C108.727 70.0294 108.3 69.6025 107.773 69.6025Z" fill="#A7A7A7"/>
<path d="M118.229 54.3467H118.045C117.518 54.3467 117.091 54.7736 117.091 55.3001C117.091 55.8267 117.518 56.2536 118.045 56.2536H118.229C118.755 56.2536 119.182 55.8267 119.182 55.3001C119.182 54.7736 118.755 54.3467 118.229 54.3467Z" fill="#A7A7A7"/>
<path d="M118.229 61.9746H118.045C117.518 61.9746 117.091 62.4015 117.091 62.9281V62.9281C117.091 63.4547 117.518 63.8815 118.045 63.8815H118.229C118.755 63.8815 119.182 63.4547 119.182 62.9281V62.9281C119.182 62.4015 118.755 61.9746 118.229 61.9746Z" fill="#A7A7A7"/>
<path d="M118.229 69.6025H118.045C117.518 69.6025 117.091 70.0294 117.091 70.556C117.091 71.0826 117.518 71.5095 118.045 71.5095H118.229C118.755 71.5095 119.182 71.0826 119.182 70.556C119.182 70.0294 118.755 69.6025 118.229 69.6025Z" fill="#A7A7A7"/>
<path d="M118.229 46.7188H118.045C117.518 46.7188 117.091 47.1456 117.091 47.6722C117.091 48.1988 117.518 48.6257 118.045 48.6257H118.229C118.755 48.6257 119.182 48.1988 119.182 47.6722C119.182 47.1456 118.755 46.7188 118.229 46.7188Z" fill="#A7A7A7"/>
<path d="M118.229 39.0918H118.045C117.518 39.0918 117.091 39.5187 117.091 40.0453C117.091 40.5718 117.518 40.9987 118.045 40.9987H118.229C118.755 40.9987 119.182 40.5718 119.182 40.0453C119.182 39.5187 118.755 39.0918 118.229 39.0918Z" fill="#A7A7A7"/>
<path d="M45.0466 39.0918H44.8626C44.3361 39.0918 43.9092 39.5187 43.9092 40.0453C43.9092 40.5718 44.3361 40.9987 44.8626 40.9987H45.0466C45.5732 40.9987 46.0001 40.5718 46.0001 40.0453C46.0001 39.5187 45.5732 39.0918 45.0466 39.0918Z" fill="#A7A7A7"/>
<path d="M45.0466 46.7188H44.8626C44.3361 46.7188 43.9092 47.1456 43.9092 47.6722C43.9092 48.1988 44.3361 48.6257 44.8626 48.6257H45.0466C45.5732 48.6257 46.0001 48.1988 46.0001 47.6722C46.0001 47.1456 45.5732 46.7188 45.0466 46.7188Z" fill="#A7A7A7"/>
<path d="M45.0466 54.3467H44.8626C44.3361 54.3467 43.9092 54.7736 43.9092 55.3001C43.9092 55.8267 44.3361 56.2536 44.8626 56.2536H45.0466C45.5732 56.2536 46.0001 55.8267 46.0001 55.3001C46.0001 54.7736 45.5732 54.3467 45.0466 54.3467Z" fill="#A7A7A7"/>
<path d="M45.0466 61.9746H44.8626C44.3361 61.9746 43.9092 62.4015 43.9092 62.9281V62.9281C43.9092 63.4547 44.3361 63.8815 44.8626 63.8815H45.0466C45.5732 63.8815 46.0001 63.4547 46.0001 62.9281V62.9281C46.0001 62.4015 45.5732 61.9746 45.0466 61.9746Z" fill="#A7A7A7"/>
<path d="M45.0466 69.6025H44.8626C44.3361 69.6025 43.9092 70.0294 43.9092 70.556C43.9092 71.0826 44.3361 71.5095 44.8626 71.5095H45.0466C45.5732 71.5095 46.0001 71.0826 46.0001 70.556C46.0001 70.0294 45.5732 69.6025 45.0466 69.6025Z" fill="#A7A7A7"/>
<path d="M55.5012 39.0918H55.3172C54.7906 39.0918 54.3638 39.5187 54.3638 40.0453C54.3638 40.5718 54.7906 40.9987 55.3172 40.9987H55.5012C56.0278 40.9987 56.4547 40.5718 56.4547 40.0453C56.4547 39.5187 56.0278 39.0918 55.5012 39.0918Z" fill="#A7A7A7"/>
<path d="M55.5012 46.7188H55.3172C54.7906 46.7188 54.3638 47.1456 54.3638 47.6722C54.3638 48.1988 54.7906 48.6257 55.3172 48.6257H55.5012C56.0278 48.6257 56.4547 48.1988 56.4547 47.6722C56.4547 47.1456 56.0278 46.7188 55.5012 46.7188Z" fill="#A7A7A7"/>
<path d="M55.5012 54.3467H55.3172C54.7906 54.3467 54.3638 54.7736 54.3638 55.3001C54.3638 55.8267 54.7906 56.2536 55.3172 56.2536H55.5012C56.0278 56.2536 56.4547 55.8267 56.4547 55.3001C56.4547 54.7736 56.0278 54.3467 55.5012 54.3467Z" fill="#A7A7A7"/>
<path d="M55.5012 61.9746H55.3172C54.7906 61.9746 54.3638 62.4015 54.3638 62.9281V62.9281C54.3638 63.4547 54.7906 63.8815 55.3172 63.8815H55.5012C56.0278 63.8815 56.4547 63.4547 56.4547 62.9281V62.9281C56.4547 62.4015 56.0278 61.9746 55.5012 61.9746Z" fill="#A7A7A7"/>
<path d="M55.5012 69.6025H55.3172C54.7906 69.6025 54.3638 70.0294 54.3638 70.556C54.3638 71.0826 54.7906 71.5095 55.3172 71.5095H55.5012C56.0278 71.5095 56.4547 71.0826 56.4547 70.556C56.4547 70.0294 56.0278 69.6025 55.5012 69.6025Z" fill="#A7A7A7"/>
<path d="M65.9558 39.0918H65.7718C65.2452 39.0918 64.8184 39.5187 64.8184 40.0453C64.8184 40.5718 65.2452 40.9987 65.7718 40.9987H65.9558C66.4824 40.9987 66.9093 40.5718 66.9093 40.0453C66.9093 39.5187 66.4824 39.0918 65.9558 39.0918Z" fill="#A7A7A7"/>
<path d="M65.9558 46.7188H65.7718C65.2452 46.7188 64.8184 47.1456 64.8184 47.6722C64.8184 48.1988 65.2452 48.6257 65.7718 48.6257H65.9558C66.4824 48.6257 66.9093 48.1988 66.9093 47.6722C66.9093 47.1456 66.4824 46.7188 65.9558 46.7188Z" fill="#A7A7A7"/>
<path d="M65.9558 54.3467H65.7718C65.2452 54.3467 64.8184 54.7736 64.8184 55.3001C64.8184 55.8267 65.2452 56.2536 65.7718 56.2536H65.9558C66.4824 56.2536 66.9093 55.8267 66.9093 55.3001C66.9093 54.7736 66.4824 54.3467 65.9558 54.3467Z" fill="#A7A7A7"/>
<path d="M65.9558 61.9746H65.7718C65.2452 61.9746 64.8184 62.4015 64.8184 62.9281V62.9281C64.8184 63.4547 65.2452 63.8815 65.7718 63.8815H65.9558C66.4824 63.8815 66.9093 63.4547 66.9093 62.9281V62.9281C66.9093 62.4015 66.4824 61.9746 65.9558 61.9746Z" fill="#A7A7A7"/>
<path d="M65.9558 69.6025H65.7718C65.2452 69.6025 64.8184 70.0294 64.8184 70.556C64.8184 71.0826 65.2452 71.5095 65.7718 71.5095H65.9558C66.4824 71.5095 66.9093 71.0826 66.9093 70.556C66.9093 70.0294 66.4824 69.6025 65.9558 69.6025Z" fill="#A7A7A7"/>
<path d="M76.4104 54.3467H76.2264C75.6998 54.3467 75.2729 54.7736 75.2729 55.3001C75.2729 55.8267 75.6998 56.2536 76.2264 56.2536H76.4104C76.937 56.2536 77.3639 55.8267 77.3639 55.3001C77.3639 54.7736 76.937 54.3467 76.4104 54.3467Z" fill="#A7A7A7"/>
<path d="M76.4104 61.9746H76.2264C75.6998 61.9746 75.2729 62.4015 75.2729 62.9281V62.9281C75.2729 63.4547 75.6998 63.8815 76.2264 63.8815H76.4104C76.937 63.8815 77.3639 63.4547 77.3639 62.9281V62.9281C77.3639 62.4015 76.937 61.9746 76.4104 61.9746Z" fill="#A7A7A7"/>
<path d="M76.4104 69.6025H76.2264C75.6998 69.6025 75.2729 70.0294 75.2729 70.556C75.2729 71.0826 75.6998 71.5095 76.2264 71.5095H76.4104C76.937 71.5095 77.3639 71.0826 77.3639 70.556C77.3639 70.0294 76.937 69.6025 76.4104 69.6025Z" fill="#A7A7A7"/>
<path d="M76.4104 46.7188H76.2264C75.6998 46.7188 75.2729 47.1456 75.2729 47.6722C75.2729 48.1988 75.6998 48.6257 76.2264 48.6257H76.4104C76.937 48.6257 77.3639 48.1988 77.3639 47.6722C77.3639 47.1456 76.937 46.7188 76.4104 46.7188Z" fill="#A7A7A7"/>
<path d="M76.4104 39.0918H76.2264C75.6998 39.0918 75.2729 39.5187 75.2729 40.0453C75.2729 40.5718 75.6998 40.9987 76.2264 40.9987H76.4104C76.937 40.9987 77.3639 40.5718 77.3639 40.0453C77.3639 39.5187 76.937 39.0918 76.4104 39.0918Z" fill="#A7A7A7"/>
<path d="M128.683 39.0918H128.499C127.973 39.0918 127.546 39.5187 127.546 40.0453C127.546 40.5718 127.973 40.9987 128.499 40.9987H128.683C129.21 40.9987 129.637 40.5718 129.637 40.0453C129.637 39.5187 129.21 39.0918 128.683 39.0918Z" fill="#A7A7A7"/>
<path d="M128.682 46.7188H128.498C127.972 46.7188 127.545 47.1456 127.545 47.6722C127.545 48.1988 127.972 48.6257 128.498 48.6257H128.682C129.209 48.6257 129.636 48.1988 129.636 47.6722C129.636 47.1456 129.209 46.7188 128.682 46.7188Z" fill="#A7A7A7"/>
<path d="M128.682 54.3467H128.498C127.972 54.3467 127.545 54.7736 127.545 55.3001C127.545 55.8267 127.972 56.2536 128.498 56.2536H128.682C129.209 56.2536 129.636 55.8267 129.636 55.3001C129.636 54.7736 129.209 54.3467 128.682 54.3467Z" fill="#A7A7A7"/>
<path d="M128.682 61.9746H128.498C127.972 61.9746 127.545 62.4015 127.545 62.9281V62.9281C127.545 63.4547 127.972 63.8815 128.498 63.8815H128.682C129.209 63.8815 129.636 63.4547 129.636 62.9281V62.9281C129.636 62.4015 129.209 61.9746 128.682 61.9746Z" fill="#A7A7A7"/>
<path d="M128.682 69.6025H128.498C127.972 69.6025 127.545 70.0294 127.545 70.556C127.545 71.0826 127.972 71.5095 128.498 71.5095H128.682C129.209 71.5095 129.636 71.0826 129.636 70.556C129.636 70.0294 129.209 69.6025 128.682 69.6025Z" fill="#A7A7A7"/>
<path d="M139.137 39.0918H138.953C138.427 39.0918 138 39.5187 138 40.0453C138 40.5718 138.427 40.9987 138.953 40.9987H139.137C139.664 40.9987 140.091 40.5718 140.091 40.0453C140.091 39.5187 139.664 39.0918 139.137 39.0918Z" fill="#A7A7A7"/>
<path d="M139.137 46.7188H138.953C138.427 46.7188 138 47.1456 138 47.6722C138 48.1988 138.427 48.6257 138.953 48.6257H139.137C139.664 48.6257 140.091 48.1988 140.091 47.6722C140.091 47.1456 139.664 46.7188 139.137 46.7188Z" fill="#A7A7A7"/>
<path d="M139.137 54.3467H138.953C138.427 54.3467 138 54.7736 138 55.3001C138 55.8267 138.427 56.2536 138.953 56.2536H139.137C139.664 56.2536 140.091 55.8267 140.091 55.3001C140.091 54.7736 139.664 54.3467 139.137 54.3467Z" fill="#A7A7A7"/>
<path d="M139.137 61.9746H138.953C138.427 61.9746 138 62.4015 138 62.9281V62.9281C138 63.4547 138.427 63.8815 138.953 63.8815H139.137C139.664 63.8815 140.091 63.4547 140.091 62.9281V62.9281C140.091 62.4015 139.664 61.9746 139.137 61.9746Z" fill="#A7A7A7"/>
<path d="M139.137 69.6025H138.953C138.427 69.6025 138 70.0294 138 70.556C138 71.0826 138.427 71.5095 138.953 71.5095H139.137C139.664 71.5095 140.091 71.0826 140.091 70.556C140.091 70.0294 139.664 69.6025 139.137 69.6025Z" fill="#A7A7A7"/>
<path d="M149.593 39.0918H149.409C148.882 39.0918 148.455 39.5187 148.455 40.0453C148.455 40.5718 148.882 40.9987 149.409 40.9987H149.593C150.119 40.9987 150.546 40.5718 150.546 40.0453C150.546 39.5187 150.119 39.0918 149.593 39.0918Z" fill="#A7A7A7"/>
<path d="M149.593 46.7188H149.409C148.882 46.7188 148.455 47.1456 148.455 47.6722C148.455 48.1988 148.882 48.6257 149.409 48.6257H149.593C150.119 48.6257 150.546 48.1988 150.546 47.6722C150.546 47.1456 150.119 46.7188 149.593 46.7188Z" fill="#A7A7A7"/>
<path d="M149.593 54.3467H149.409C148.882 54.3467 148.455 54.7736 148.455 55.3001C148.455 55.8267 148.882 56.2536 149.409 56.2536H149.593C150.119 56.2536 150.546 55.8267 150.546 55.3001C150.546 54.7736 150.119 54.3467 149.593 54.3467Z" fill="#A7A7A7"/>
<path d="M149.593 61.9746H149.409C148.882 61.9746 148.455 62.4015 148.455 62.9281V62.9281C148.455 63.4547 148.882 63.8815 149.409 63.8815H149.593C150.119 63.8815 150.546 63.4547 150.546 62.9281V62.9281C150.546 62.4015 150.119 61.9746 149.593 61.9746Z" fill="#A7A7A7"/>
<path d="M149.593 69.6025H149.409C148.882 69.6025 148.455 70.0294 148.455 70.556C148.455 71.0826 148.882 71.5095 149.409 71.5095H149.593C150.119 71.5095 150.546 71.0826 150.546 70.556C150.546 70.0294 150.119 69.6025 149.593 69.6025Z" fill="#A7A7A7"/>
<path d="M160.046 54.3467H159.862C159.336 54.3467 158.909 54.7736 158.909 55.3001C158.909 55.8267 159.336 56.2536 159.862 56.2536H160.046C160.573 56.2536 161 55.8267 161 55.3001C161 54.7736 160.573 54.3467 160.046 54.3467Z" fill="#A7A7A7"/>
<path d="M160.046 61.9746H159.862C159.336 61.9746 158.909 62.4015 158.909 62.9281V62.9281C158.909 63.4547 159.336 63.8815 159.862 63.8815H160.046C160.573 63.8815 161 63.4547 161 62.9281V62.9281C161 62.4015 160.573 61.9746 160.046 61.9746Z" fill="#A7A7A7"/>
<path d="M160.046 69.6025H159.862C159.336 69.6025 158.909 70.0294 158.909 70.556C158.909 71.0826 159.336 71.5095 159.862 71.5095H160.046C160.573 71.5095 161 71.0826 161 70.556C161 70.0294 160.573 69.6025 160.046 69.6025Z" fill="#A7A7A7"/>
<path d="M160.046 46.7188H159.862C159.336 46.7188 158.909 47.1456 158.909 47.6722C158.909 48.1988 159.336 48.6257 159.862 48.6257H160.046C160.573 48.6257 161 48.1988 161 47.6722C161 47.1456 160.573 46.7188 160.046 46.7188Z" fill="#A7A7A7"/>
<path d="M160.046 39.0918H159.862C159.336 39.0918 158.909 39.5187 158.909 40.0453C158.909 40.5718 159.336 40.9987 159.862 40.9987H160.046C160.573 40.9987 161 40.5718 161 40.0453C161 39.5187 160.573 39.0918 160.046 39.0918Z" fill="#A7A7A7"/>
<path d="M1.13745 77.2314H0.953459C0.426878 77.2314 0 77.6583 0 78.1849C0 78.7115 0.426878 79.1384 0.953459 79.1384H1.13745C1.66403 79.1384 2.09091 78.7115 2.09091 78.1849C2.09091 77.6583 1.66403 77.2314 1.13745 77.2314Z" fill="#A7A7A7"/>
<path d="M1.13745 84.8584H0.953459C0.426878 84.8584 0 85.2853 0 85.8119C0 86.3384 0.426878 86.7653 0.953459 86.7653H1.13745C1.66403 86.7653 2.09091 86.3384 2.09091 85.8119C2.09091 85.2853 1.66403 84.8584 1.13745 84.8584Z" fill="#A7A7A7"/>
<path d="M1.13745 92.4863H0.953459C0.426878 92.4863 0 92.9132 0 93.4398V93.4398C0 93.9664 0.426878 94.3932 0.953459 94.3932H1.13745C1.66403 94.3932 2.09091 93.9664 2.09091 93.4398V93.4398C2.09091 92.9132 1.66403 92.4863 1.13745 92.4863Z" fill="#A7A7A7"/>
<path d="M1.13745 100.113H0.953459C0.426878 100.113 0 100.54 0 101.067V101.067C0 101.593 0.426878 102.02 0.953459 102.02H1.13745C1.66403 102.02 2.09091 101.593 2.09091 101.067V101.067C2.09091 100.54 1.66403 100.113 1.13745 100.113Z" fill="#A7A7A7"/>
<path d="M1.13745 107.741H0.953459C0.426878 107.741 0 108.168 0 108.695C0 109.221 0.426878 109.648 0.953459 109.648H1.13745C1.66403 109.648 2.09091 109.221 2.09091 108.695C2.09091 108.168 1.66403 107.741 1.13745 107.741Z" fill="#A7A7A7"/>
<path d="M11.592 77.2305H11.408C10.8815 77.2305 10.4546 77.6573 10.4546 78.1839C10.4546 78.7105 10.8815 79.1374 11.408 79.1374H11.592C12.1186 79.1374 12.5455 78.7105 12.5455 78.1839C12.5455 77.6573 12.1186 77.2305 11.592 77.2305Z" fill="#A7A7A7"/>
<path d="M11.592 84.8584H11.408C10.8815 84.8584 10.4546 85.2853 10.4546 85.8119C10.4546 86.3384 10.8815 86.7653 11.408 86.7653H11.592C12.1186 86.7653 12.5455 86.3384 12.5455 85.8119C12.5455 85.2853 12.1186 84.8584 11.592 84.8584Z" fill="#A7A7A7"/>
<path d="M11.592 92.4863H11.408C10.8815 92.4863 10.4546 92.9132 10.4546 93.4398V93.4398C10.4546 93.9664 10.8815 94.3932 11.408 94.3932H11.592C12.1186 94.3932 12.5455 93.9664 12.5455 93.4398V93.4398C12.5455 92.9132 12.1186 92.4863 11.592 92.4863Z" fill="#A7A7A7"/>
<path d="M11.592 100.113H11.408C10.8815 100.113 10.4546 100.54 10.4546 101.067V101.067C10.4546 101.593 10.8815 102.02 11.408 102.02H11.592C12.1186 102.02 12.5455 101.593 12.5455 101.067V101.067C12.5455 100.54 12.1186 100.113 11.592 100.113Z" fill="#A7A7A7"/>
<path d="M11.592 107.741H11.408C10.8815 107.741 10.4546 108.168 10.4546 108.695C10.4546 109.221 10.8815 109.648 11.408 109.648H11.592C12.1186 109.648 12.5455 109.221 12.5455 108.695C12.5455 108.168 12.1186 107.741 11.592 107.741Z" fill="#A7A7A7"/>
<path d="M22.0466 77.2305H21.8626C21.3361 77.2305 20.9092 77.6573 20.9092 78.1839C20.9092 78.7105 21.3361 79.1374 21.8626 79.1374H22.0466C22.5732 79.1374 23.0001 78.7105 23.0001 78.1839C23.0001 77.6573 22.5732 77.2305 22.0466 77.2305Z" fill="#A7A7A7"/>
<path d="M22.0466 84.8584H21.8626C21.3361 84.8584 20.9092 85.2853 20.9092 85.8119C20.9092 86.3384 21.3361 86.7653 21.8626 86.7653H22.0466C22.5732 86.7653 23.0001 86.3384 23.0001 85.8119C23.0001 85.2853 22.5732 84.8584 22.0466 84.8584Z" fill="#A7A7A7"/>
<path d="M22.0466 92.4863H21.8626C21.3361 92.4863 20.9092 92.9132 20.9092 93.4398V93.4398C20.9092 93.9664 21.3361 94.3932 21.8626 94.3932H22.0466C22.5732 94.3932 23.0001 93.9664 23.0001 93.4398V93.4398C23.0001 92.9132 22.5732 92.4863 22.0466 92.4863Z" fill="#A7A7A7"/>
<path d="M22.0466 100.113H21.8626C21.3361 100.113 20.9092 100.54 20.9092 101.067V101.067C20.9092 101.593 21.3361 102.02 21.8626 102.02H22.0466C22.5732 102.02 23.0001 101.593 23.0001 101.067V101.067C23.0001 100.54 22.5732 100.113 22.0466 100.113Z" fill="#A7A7A7"/>
<path d="M22.0466 107.741H21.8626C21.3361 107.741 20.9092 108.168 20.9092 108.695C20.9092 109.221 21.3361 109.648 21.8626 109.648H22.0466C22.5732 109.648 23.0001 109.221 23.0001 108.695C23.0001 108.168 22.5732 107.741 22.0466 107.741Z" fill="#A7A7A7"/>
<path d="M32.5007 92.4863H32.3167C31.7902 92.4863 31.3633 92.9132 31.3633 93.4398V93.4398C31.3633 93.9664 31.7902 94.3932 32.3167 94.3932H32.5007C33.0273 94.3932 33.4542 93.9664 33.4542 93.4398V93.4398C33.4542 92.9132 33.0273 92.4863 32.5007 92.4863Z" fill="#A7A7A7"/>
<path d="M32.5007 100.113H32.3167C31.7902 100.113 31.3633 100.54 31.3633 101.067V101.067C31.3633 101.593 31.7902 102.02 32.3167 102.02H32.5007C33.0273 102.02 33.4542 101.593 33.4542 101.067V101.067C33.4542 100.54 33.0273 100.113 32.5007 100.113Z" fill="#A7A7A7"/>
<path d="M32.5007 107.741H32.3167C31.7902 107.741 31.3633 108.168 31.3633 108.695C31.3633 109.221 31.7902 109.648 32.3167 109.648H32.5007C33.0273 109.648 33.4542 109.221 33.4542 108.695C33.4542 108.168 33.0273 107.741 32.5007 107.741Z" fill="#A7A7A7"/>
<path d="M32.5007 84.8584H32.3167C31.7902 84.8584 31.3633 85.2853 31.3633 85.8119C31.3633 86.3384 31.7902 86.7653 32.3167 86.7653H32.5007C33.0273 86.7653 33.4542 86.3384 33.4542 85.8119C33.4542 85.2853 33.0273 84.8584 32.5007 84.8584Z" fill="#A7A7A7"/>
<path d="M32.5007 77.2305H32.3167C31.7902 77.2305 31.3633 77.6573 31.3633 78.1839C31.3633 78.7105 31.7902 79.1374 32.3167 79.1374H32.5007C33.0273 79.1374 33.4542 78.7105 33.4542 78.1839C33.4542 77.6573 33.0273 77.2305 32.5007 77.2305Z" fill="#A7A7A7"/>
<path d="M86.8645 77.2305H86.6805C86.1539 77.2305 85.7271 77.6573 85.7271 78.1839C85.7271 78.7105 86.1539 79.1374 86.6805 79.1374H86.8645C87.3911 79.1374 87.818 78.7105 87.818 78.1839C87.818 77.6573 87.3911 77.2305 86.8645 77.2305Z" fill="#A7A7A7"/>
<path d="M86.5803 85.0088H86.3963C85.8698 85.0088 85.4429 85.4357 85.4429 85.9622C85.4429 86.4888 85.8698 86.9157 86.3963 86.9157H86.5803C87.1069 86.9157 87.5338 86.4888 87.5338 85.9622C87.5338 85.4357 87.1069 85.0088 86.5803 85.0088Z" fill="#A7A7A7"/>
<path d="M86.864 92.4863H86.68C86.1534 92.4863 85.7266 92.9132 85.7266 93.4398V93.4398C85.7266 93.9664 86.1534 94.3932 86.68 94.3932H86.864C87.3906 94.3932 87.8175 93.9664 87.8175 93.4398V93.4398C87.8175 92.9132 87.3906 92.4863 86.864 92.4863Z" fill="#A7A7A7"/>
<path d="M86.864 100.113H86.68C86.1534 100.113 85.7266 100.54 85.7266 101.067V101.067C85.7266 101.593 86.1534 102.02 86.68 102.02H86.864C87.3906 102.02 87.8175 101.593 87.8175 101.067V101.067C87.8175 100.54 87.3906 100.113 86.864 100.113Z" fill="#A7A7A7"/>
<path d="M86.864 107.741H86.68C86.1534 107.741 85.7266 108.168 85.7266 108.695C85.7266 109.221 86.1534 109.648 86.68 109.648H86.864C87.3906 109.648 87.8175 109.221 87.8175 108.695C87.8175 108.168 87.3906 107.741 86.864 107.741Z" fill="#A7A7A7"/>
<path d="M97.3186 77.2305H97.1346C96.608 77.2305 96.1812 77.6573 96.1812 78.1839C96.1812 78.7105 96.608 79.1374 97.1346 79.1374H97.3186C97.8452 79.1374 98.2721 78.7105 98.2721 78.1839C98.2721 77.6573 97.8452 77.2305 97.3186 77.2305Z" fill="#A7A7A7"/>
<path d="M97.3186 84.8584H97.1346C96.608 84.8584 96.1812 85.2853 96.1812 85.8119C96.1812 86.3384 96.608 86.7653 97.1346 86.7653H97.3186C97.8452 86.7653 98.2721 86.3384 98.2721 85.8119C98.2721 85.2853 97.8452 84.8584 97.3186 84.8584Z" fill="#A7A7A7"/>
<path d="M97.3186 92.4863H97.1346C96.608 92.4863 96.1812 92.9132 96.1812 93.4398V93.4398C96.1812 93.9664 96.608 94.3932 97.1346 94.3932H97.3186C97.8452 94.3932 98.2721 93.9664 98.2721 93.4398V93.4398C98.2721 92.9132 97.8452 92.4863 97.3186 92.4863Z" fill="#A7A7A7"/>
<path d="M97.3186 100.113H97.1346C96.608 100.113 96.1812 100.54 96.1812 101.067V101.067C96.1812 101.593 96.608 102.02 97.1346 102.02H97.3186C97.8452 102.02 98.2721 101.593 98.2721 101.067V101.067C98.2721 100.54 97.8452 100.113 97.3186 100.113Z" fill="#A7A7A7"/>
<path d="M97.3186 107.741H97.1346C96.608 107.741 96.1812 108.168 96.1812 108.695C96.1812 109.221 96.608 109.648 97.1346 109.648H97.3186C97.8452 109.648 98.2721 109.221 98.2721 108.695C98.2721 108.168 97.8452 107.741 97.3186 107.741Z" fill="#A7A7A7"/>
<path d="M107.773 77.2305H107.589C107.063 77.2305 106.636 77.6573 106.636 78.1839C106.636 78.7105 107.063 79.1374 107.589 79.1374H107.773C108.3 79.1374 108.727 78.7105 108.727 78.1839C108.727 77.6573 108.3 77.2305 107.773 77.2305Z" fill="#A7A7A7"/>
<path d="M107.773 84.8584H107.589C107.063 84.8584 106.636 85.2853 106.636 85.8119C106.636 86.3384 107.063 86.7653 107.589 86.7653H107.773C108.3 86.7653 108.727 86.3384 108.727 85.8119C108.727 85.2853 108.3 84.8584 107.773 84.8584Z" fill="#A7A7A7"/>
<path d="M107.773 92.4863H107.589C107.063 92.4863 106.636 92.9132 106.636 93.4398V93.4398C106.636 93.9664 107.063 94.3932 107.589 94.3932H107.773C108.3 94.3932 108.727 93.9664 108.727 93.4398V93.4398C108.727 92.9132 108.3 92.4863 107.773 92.4863Z" fill="#A7A7A7"/>
<path d="M107.773 100.113H107.589C107.063 100.113 106.636 100.54 106.636 101.067V101.067C106.636 101.593 107.063 102.02 107.589 102.02H107.773C108.3 102.02 108.727 101.593 108.727 101.067V101.067C108.727 100.54 108.3 100.113 107.773 100.113Z" fill="#A7A7A7"/>
<path d="M107.773 107.741H107.589C107.063 107.741 106.636 108.168 106.636 108.695C106.636 109.221 107.063 109.648 107.589 109.648H107.773C108.3 109.648 108.727 109.221 108.727 108.695C108.727 108.168 108.3 107.741 107.773 107.741Z" fill="#A7A7A7"/>
<path d="M118.228 92.4863H118.044C117.517 92.4863 117.09 92.9132 117.09 93.4398V93.4398C117.09 93.9664 117.517 94.3932 118.044 94.3932H118.228C118.754 94.3932 119.181 93.9664 119.181 93.4398V93.4398C119.181 92.9132 118.754 92.4863 118.228 92.4863Z" fill="#A7A7A7"/>
<path d="M118.228 100.113H118.044C117.517 100.113 117.09 100.54 117.09 101.067V101.067C117.09 101.593 117.517 102.02 118.044 102.02H118.228C118.754 102.02 119.181 101.593 119.181 101.067V101.067C119.181 100.54 118.754 100.113 118.228 100.113Z" fill="#A7A7A7"/>
<path d="M118.228 107.741H118.044C117.517 107.741 117.09 108.168 117.09 108.695C117.09 109.221 117.517 109.648 118.044 109.648H118.228C118.754 109.648 119.181 109.221 119.181 108.695C119.181 108.168 118.754 107.741 118.228 107.741Z" fill="#A7A7A7"/>
<path d="M118.228 84.8584H118.044C117.517 84.8584 117.09 85.2853 117.09 85.8119C117.09 86.3384 117.517 86.7653 118.044 86.7653H118.228C118.754 86.7653 119.181 86.3384 119.181 85.8119C119.181 85.2853 118.754 84.8584 118.228 84.8584Z" fill="#A7A7A7"/>
<path d="M118.228 77.2305H118.044C117.517 77.2305 117.09 77.6573 117.09 78.1839C117.09 78.7105 117.517 79.1374 118.044 79.1374H118.228C118.754 79.1374 119.181 78.7105 119.181 78.1839C119.181 77.6573 118.754 77.2305 118.228 77.2305Z" fill="#A7A7A7"/>
<path d="M44.0017 77.2305H43.8177C43.2911 77.2305 42.8643 77.6573 42.8643 78.1839C42.8643 78.7105 43.2911 79.1374 43.8177 79.1374H44.0017C44.5283 79.1374 44.9552 78.7105 44.9552 78.1839C44.9552 77.6573 44.5283 77.2305 44.0017 77.2305Z" fill="#A7A7A7"/>
<path d="M44.0012 84.8584H43.8172C43.2906 84.8584 42.8638 85.2853 42.8638 85.8119C42.8638 86.3384 43.2906 86.7653 43.8172 86.7653H44.0012C44.5278 86.7653 44.9547 86.3384 44.9547 85.8119C44.9547 85.2853 44.5278 84.8584 44.0012 84.8584Z" fill="#A7A7A7"/>
<path d="M44.0012 92.4863H43.8172C43.2906 92.4863 42.8638 92.9132 42.8638 93.4398V93.4398C42.8638 93.9664 43.2906 94.3932 43.8172 94.3932H44.0012C44.5278 94.3932 44.9547 93.9664 44.9547 93.4398V93.4398C44.9547 92.9132 44.5278 92.4863 44.0012 92.4863Z" fill="#A7A7A7"/>
<path d="M44.0012 100.113H43.8172C43.2906 100.113 42.8638 100.54 42.8638 101.067V101.067C42.8638 101.593 43.2906 102.02 43.8172 102.02H44.0012C44.5278 102.02 44.9547 101.593 44.9547 101.067V101.067C44.9547 100.54 44.5278 100.113 44.0012 100.113Z" fill="#A7A7A7"/>
<path d="M44.0012 107.741H43.8172C43.2906 107.741 42.8638 108.168 42.8638 108.695C42.8638 109.221 43.2906 109.648 43.8172 109.648H44.0012C44.5278 109.648 44.9547 109.221 44.9547 108.695C44.9547 108.168 44.5278 107.741 44.0012 107.741Z" fill="#A7A7A7"/>
<path d="M54.4558 77.2305H54.2718C53.7452 77.2305 53.3184 77.6573 53.3184 78.1839C53.3184 78.7105 53.7452 79.1374 54.2718 79.1374H54.4558C54.9824 79.1374 55.4093 78.7105 55.4093 78.1839C55.4093 77.6573 54.9824 77.2305 54.4558 77.2305Z" fill="#A7A7A7"/>
<path d="M54.4558 84.8584H54.2718C53.7452 84.8584 53.3184 85.2853 53.3184 85.8119C53.3184 86.3384 53.7452 86.7653 54.2718 86.7653H54.4558C54.9824 86.7653 55.4093 86.3384 55.4093 85.8119C55.4093 85.2853 54.9824 84.8584 54.4558 84.8584Z" fill="#A7A7A7"/>
<path d="M54.4558 92.4863H54.2718C53.7452 92.4863 53.3184 92.9132 53.3184 93.4398V93.4398C53.3184 93.9664 53.7452 94.3932 54.2718 94.3932H54.4558C54.9824 94.3932 55.4093 93.9664 55.4093 93.4398V93.4398C55.4093 92.9132 54.9824 92.4863 54.4558 92.4863Z" fill="#A7A7A7"/>
<path d="M54.4558 100.113H54.2718C53.7452 100.113 53.3184 100.54 53.3184 101.067V101.067C53.3184 101.593 53.7452 102.02 54.2718 102.02H54.4558C54.9824 102.02 55.4093 101.593 55.4093 101.067V101.067C55.4093 100.54 54.9824 100.113 54.4558 100.113Z" fill="#A7A7A7"/>
<path d="M54.4558 107.741H54.2718C53.7452 107.741 53.3184 108.168 53.3184 108.695C53.3184 109.221 53.7452 109.648 54.2718 109.648H54.4558C54.9824 109.648 55.4093 109.221 55.4093 108.695C55.4093 108.168 54.9824 107.741 54.4558 107.741Z" fill="#A7A7A7"/>
<path d="M64.9104 77.2305H64.7264C64.1998 77.2305 63.7729 77.6573 63.7729 78.1839C63.7729 78.7105 64.1998 79.1374 64.7264 79.1374H64.9104C65.437 79.1374 65.8639 78.7105 65.8639 78.1839C65.8639 77.6573 65.437 77.2305 64.9104 77.2305Z" fill="#A7A7A7"/>
<path d="M64.9104 84.8584H64.7264C64.1998 84.8584 63.7729 85.2853 63.7729 85.8119C63.7729 86.3384 64.1998 86.7653 64.7264 86.7653H64.9104C65.437 86.7653 65.8639 86.3384 65.8639 85.8119C65.8639 85.2853 65.437 84.8584 64.9104 84.8584Z" fill="#A7A7A7"/>
<path d="M64.9104 92.4863H64.7264C64.1998 92.4863 63.7729 92.9132 63.7729 93.4398V93.4398C63.7729 93.9664 64.1998 94.3932 64.7264 94.3932H64.9104C65.437 94.3932 65.8639 93.9664 65.8639 93.4398V93.4398C65.8639 92.9132 65.437 92.4863 64.9104 92.4863Z" fill="#A7A7A7"/>
<path d="M64.9104 100.113H64.7264C64.1998 100.113 63.7729 100.54 63.7729 101.067V101.067C63.7729 101.593 64.1998 102.02 64.7264 102.02H64.9104C65.437 102.02 65.8639 101.593 65.8639 101.067V101.067C65.8639 100.54 65.437 100.113 64.9104 100.113Z" fill="#A7A7A7"/>
<path d="M64.9104 107.741H64.7264C64.1998 107.741 63.7729 108.168 63.7729 108.695C63.7729 109.221 64.1998 109.648 64.7264 109.648H64.9104C65.437 109.648 65.8639 109.221 65.8639 108.695C65.8639 108.168 65.437 107.741 64.9104 107.741Z" fill="#A7A7A7"/>
<path d="M75.3645 92.4863H75.1805C74.6539 92.4863 74.2271 92.9132 74.2271 93.4398V93.4398C74.2271 93.9664 74.6539 94.3932 75.1805 94.3932H75.3645C75.8911 94.3932 76.318 93.9664 76.318 93.4398V93.4398C76.318 92.9132 75.8911 92.4863 75.3645 92.4863Z" fill="#A7A7A7"/>
<path d="M75.3645 100.113H75.1805C74.6539 100.113 74.2271 100.54 74.2271 101.067V101.067C74.2271 101.593 74.6539 102.02 75.1805 102.02H75.3645C75.8911 102.02 76.318 101.593 76.318 101.067V101.067C76.318 100.54 75.8911 100.113 75.3645 100.113Z" fill="#A7A7A7"/>
<path d="M75.3645 107.741H75.1805C74.6539 107.741 74.2271 108.168 74.2271 108.695C74.2271 109.221 74.6539 109.648 75.1805 109.648H75.3645C75.8911 109.648 76.318 109.221 76.318 108.695C76.318 108.168 75.8911 107.741 75.3645 107.741Z" fill="#A7A7A7"/>
<path d="M75.3645 84.8584H75.1805C74.6539 84.8584 74.2271 85.2853 74.2271 85.8119C74.2271 86.3384 74.6539 86.7653 75.1805 86.7653H75.3645C75.8911 86.7653 76.318 86.3384 76.318 85.8119C76.318 85.2853 75.8911 84.8584 75.3645 84.8584Z" fill="#A7A7A7"/>
<path d="M75.3645 77.2305H75.1805C74.6539 77.2305 74.2271 77.6573 74.2271 78.1839C74.2271 78.7105 74.6539 79.1374 75.1805 79.1374H75.3645C75.8911 79.1374 76.318 78.7105 76.318 78.1839C76.318 77.6573 75.8911 77.2305 75.3645 77.2305Z" fill="#A7A7A7"/>
<path d="M128.683 77.2305H128.499C127.973 77.2305 127.546 77.6573 127.546 78.1839C127.546 78.7105 127.973 79.1374 128.499 79.1374H128.683C129.21 79.1374 129.637 78.7105 129.637 78.1839C129.637 77.6573 129.21 77.2305 128.683 77.2305Z" fill="#A7A7A7"/>
<path d="M128.682 84.8584H128.498C127.972 84.8584 127.545 85.2853 127.545 85.8119C127.545 86.3384 127.972 86.7653 128.498 86.7653H128.682C129.209 86.7653 129.636 86.3384 129.636 85.8119C129.636 85.2853 129.209 84.8584 128.682 84.8584Z" fill="#A7A7A7"/>
<path d="M128.682 92.4863H128.498C127.972 92.4863 127.545 92.9132 127.545 93.4398V93.4398C127.545 93.9664 127.972 94.3932 128.498 94.3932H128.682C129.209 94.3932 129.636 93.9664 129.636 93.4398V93.4398C129.636 92.9132 129.209 92.4863 128.682 92.4863Z" fill="#A7A7A7"/>
<path d="M128.682 100.113H128.498C127.972 100.113 127.545 100.54 127.545 101.067V101.067C127.545 101.593 127.972 102.02 128.498 102.02H128.682C129.209 102.02 129.636 101.593 129.636 101.067V101.067C129.636 100.54 129.209 100.113 128.682 100.113Z" fill="#A7A7A7"/>
<path d="M128.682 107.741H128.498C127.972 107.741 127.545 108.168 127.545 108.695C127.545 109.221 127.972 109.648 128.498 109.648H128.682C129.209 109.648 129.636 109.221 129.636 108.695C129.636 108.168 129.209 107.741 128.682 107.741Z" fill="#A7A7A7"/>
<path d="M139.137 77.2305H138.953C138.427 77.2305 138 77.6573 138 78.1839C138 78.7105 138.427 79.1374 138.953 79.1374H139.137C139.664 79.1374 140.091 78.7105 140.091 78.1839C140.091 77.6573 139.664 77.2305 139.137 77.2305Z" fill="#A7A7A7"/>
<path d="M139.137 84.8584H138.953C138.427 84.8584 138 85.2853 138 85.8119C138 86.3384 138.427 86.7653 138.953 86.7653H139.137C139.664 86.7653 140.091 86.3384 140.091 85.8119C140.091 85.2853 139.664 84.8584 139.137 84.8584Z" fill="#A7A7A7"/>
<path d="M139.137 92.4863H138.953C138.427 92.4863 138 92.9132 138 93.4398V93.4398C138 93.9664 138.427 94.3932 138.953 94.3932H139.137C139.664 94.3932 140.091 93.9664 140.091 93.4398V93.4398C140.091 92.9132 139.664 92.4863 139.137 92.4863Z" fill="#A7A7A7"/>
<path d="M139.137 100.113H138.953C138.427 100.113 138 100.54 138 101.067V101.067C138 101.593 138.427 102.02 138.953 102.02H139.137C139.664 102.02 140.091 101.593 140.091 101.067V101.067C140.091 100.54 139.664 100.113 139.137 100.113Z" fill="#A7A7A7"/>
<path d="M139.137 107.741H138.953C138.427 107.741 138 108.168 138 108.695C138 109.221 138.427 109.648 138.953 109.648H139.137C139.664 109.648 140.091 109.221 140.091 108.695C140.091 108.168 139.664 107.741 139.137 107.741Z" fill="#A7A7A7"/>
<path d="M149.593 77.2305H149.409C148.882 77.2305 148.455 77.6573 148.455 78.1839C148.455 78.7105 148.882 79.1374 149.409 79.1374H149.593C150.119 79.1374 150.546 78.7105 150.546 78.1839C150.546 77.6573 150.119 77.2305 149.593 77.2305Z" fill="#A7A7A7"/>
<path d="M149.593 84.8584H149.409C148.882 84.8584 148.455 85.2853 148.455 85.8119C148.455 86.3384 148.882 86.7653 149.409 86.7653H149.593C150.119 86.7653 150.546 86.3384 150.546 85.8119C150.546 85.2853 150.119 84.8584 149.593 84.8584Z" fill="#A7A7A7"/>
<path d="M149.593 92.4863H149.409C148.882 92.4863 148.455 92.9132 148.455 93.4398V93.4398C148.455 93.9664 148.882 94.3932 149.409 94.3932H149.593C150.119 94.3932 150.546 93.9664 150.546 93.4398V93.4398C150.546 92.9132 150.119 92.4863 149.593 92.4863Z" fill="#A7A7A7"/>
<path d="M149.593 100.113H149.409C148.882 100.113 148.455 100.54 148.455 101.067V101.067C148.455 101.593 148.882 102.02 149.409 102.02H149.593C150.119 102.02 150.546 101.593 150.546 101.067V101.067C150.546 100.54 150.119 100.113 149.593 100.113Z" fill="#A7A7A7"/>
<path d="M149.593 107.741H149.409C148.882 107.741 148.455 108.168 148.455 108.695C148.455 109.221 148.882 109.648 149.409 109.648H149.593C150.119 109.648 150.546 109.221 150.546 108.695C150.546 108.168 150.119 107.741 149.593 107.741Z" fill="#A7A7A7"/>
<path d="M160.046 92.4863H159.862C159.336 92.4863 158.909 92.9132 158.909 93.4398V93.4398C158.909 93.9664 159.336 94.3932 159.862 94.3932H160.046C160.573 94.3932 161 93.9664 161 93.4398V93.4398C161 92.9132 160.573 92.4863 160.046 92.4863Z" fill="#A7A7A7"/>
<path d="M160.046 100.113H159.862C159.336 100.113 158.909 100.54 158.909 101.067V101.067C158.909 101.593 159.336 102.02 159.862 102.02H160.046C160.573 102.02 161 101.593 161 101.067V101.067C161 100.54 160.573 100.113 160.046 100.113Z" fill="#A7A7A7"/>
<path d="M160.046 107.741H159.862C159.336 107.741 158.909 108.168 158.909 108.695C158.909 109.221 159.336 109.648 159.862 109.648H160.046C160.573 109.648 161 109.221 161 108.695C161 108.168 160.573 107.741 160.046 107.741Z" fill="#A7A7A7"/>
<path d="M160.046 84.8584H159.862C159.336 84.8584 158.909 85.2853 158.909 85.8119C158.909 86.3384 159.336 86.7653 159.862 86.7653H160.046C160.573 86.7653 161 86.3384 161 85.8119C161 85.2853 160.573 84.8584 160.046 84.8584Z" fill="#A7A7A7"/>
<path d="M160.046 77.2305H159.862C159.336 77.2305 158.909 77.6573 158.909 78.1839C158.909 78.7105 159.336 79.1374 159.862 79.1374H160.046C160.573 79.1374 161 78.7105 161 78.1839C161 77.6573 160.573 77.2305 160.046 77.2305Z" fill="#A7A7A7"/>
<path d="M1.13745 114.583H0.953459C0.426878 114.583 0 115.01 0 115.536C0 116.063 0.426878 116.49 0.953459 116.49H1.13745C1.66403 116.49 2.09091 116.063 2.09091 115.536C2.09091 115.01 1.66403 114.583 1.13745 114.583Z" fill="#A7A7A7"/>
<path d="M1.13745 122.21H0.953459C0.426878 122.21 0 122.637 0 123.163C0 123.69 0.426878 124.117 0.953459 124.117H1.13745C1.66403 124.117 2.09091 123.69 2.09091 123.163C2.09091 122.637 1.66403 122.21 1.13745 122.21Z" fill="#A7A7A7"/>
<path d="M1.13745 129.838H0.953459C0.426878 129.838 0 130.265 0 130.791C0 131.318 0.426878 131.745 0.953459 131.745H1.13745C1.66403 131.745 2.09091 131.318 2.09091 130.791C2.09091 130.265 1.66403 129.838 1.13745 129.838Z" fill="#A7A7A7"/>
<path d="M1.13745 137.466H0.953459C0.426878 137.466 0 137.893 0 138.419C0 138.946 0.426878 139.373 0.953459 139.373H1.13745C1.66403 139.373 2.09091 138.946 2.09091 138.419C2.09091 137.893 1.66403 137.466 1.13745 137.466Z" fill="#A7A7A7"/>
<path d="M1.13745 145.093H0.953459C0.426878 145.093 0 145.52 0 146.046C0 146.573 0.426878 147 0.953459 147H1.13745C1.66403 147 2.09091 146.573 2.09091 146.046C2.09091 145.52 1.66403 145.093 1.13745 145.093Z" fill="#A7A7A7"/>
<path d="M11.592 114.583H11.408C10.8815 114.583 10.4546 115.01 10.4546 115.536C10.4546 116.063 10.8815 116.49 11.408 116.49H11.592C12.1186 116.49 12.5455 116.063 12.5455 115.536C12.5455 115.01 12.1186 114.583 11.592 114.583Z" fill="#A7A7A7"/>
<path d="M11.592 122.21H11.408C10.8815 122.21 10.4546 122.637 10.4546 123.163C10.4546 123.69 10.8815 124.117 11.408 124.117H11.592C12.1186 124.117 12.5455 123.69 12.5455 123.163C12.5455 122.637 12.1186 122.21 11.592 122.21Z" fill="#A7A7A7"/>
<path d="M11.592 129.838H11.408C10.8815 129.838 10.4546 130.265 10.4546 130.791C10.4546 131.318 10.8815 131.745 11.408 131.745H11.592C12.1186 131.745 12.5455 131.318 12.5455 130.791C12.5455 130.265 12.1186 129.838 11.592 129.838Z" fill="#A7A7A7"/>
<path d="M11.592 137.466H11.408C10.8815 137.466 10.4546 137.893 10.4546 138.419C10.4546 138.946 10.8815 139.373 11.408 139.373H11.592C12.1186 139.373 12.5455 138.946 12.5455 138.419C12.5455 137.893 12.1186 137.466 11.592 137.466Z" fill="#A7A7A7"/>
<path d="M11.592 145.093H11.408C10.8815 145.093 10.4546 145.52 10.4546 146.046C10.4546 146.573 10.8815 147 11.408 147H11.592C12.1186 147 12.5455 146.573 12.5455 146.046C12.5455 145.52 12.1186 145.093 11.592 145.093Z" fill="#A7A7A7"/>
<path d="M22.0466 114.583H21.8626C21.3361 114.583 20.9092 115.01 20.9092 115.536C20.9092 116.063 21.3361 116.49 21.8626 116.49H22.0466C22.5732 116.49 23.0001 116.063 23.0001 115.536C23.0001 115.01 22.5732 114.583 22.0466 114.583Z" fill="#A7A7A7"/>
<path d="M22.0466 122.21H21.8626C21.3361 122.21 20.9092 122.637 20.9092 123.163C20.9092 123.69 21.3361 124.117 21.8626 124.117H22.0466C22.5732 124.117 23.0001 123.69 23.0001 123.163C23.0001 122.637 22.5732 122.21 22.0466 122.21Z" fill="#A7A7A7"/>
<path d="M22.0466 129.838H21.8626C21.3361 129.838 20.9092 130.265 20.9092 130.791C20.9092 131.318 21.3361 131.745 21.8626 131.745H22.0466C22.5732 131.745 23.0001 131.318 23.0001 130.791C23.0001 130.265 22.5732 129.838 22.0466 129.838Z" fill="#A7A7A7"/>
<path d="M22.0466 137.466H21.8626C21.3361 137.466 20.9092 137.893 20.9092 138.419C20.9092 138.946 21.3361 139.373 21.8626 139.373H22.0466C22.5732 139.373 23.0001 138.946 23.0001 138.419C23.0001 137.893 22.5732 137.466 22.0466 137.466Z" fill="#A7A7A7"/>
<path d="M22.0466 145.093H21.8626C21.3361 145.093 20.9092 145.52 20.9092 146.046C20.9092 146.573 21.3361 147 21.8626 147H22.0466C22.5732 147 23.0001 146.573 23.0001 146.046C23.0001 145.52 22.5732 145.093 22.0466 145.093Z" fill="#A7A7A7"/>
<path d="M32.5007 129.838H32.3167C31.7902 129.838 31.3633 130.265 31.3633 130.791C31.3633 131.318 31.7902 131.745 32.3167 131.745H32.5007C33.0273 131.745 33.4542 131.318 33.4542 130.791C33.4542 130.265 33.0273 129.838 32.5007 129.838Z" fill="#A7A7A7"/>
<path d="M32.5007 137.466H32.3167C31.7902 137.466 31.3633 137.893 31.3633 138.419C31.3633 138.946 31.7902 139.373 32.3167 139.373H32.5007C33.0273 139.373 33.4542 138.946 33.4542 138.419C33.4542 137.893 33.0273 137.466 32.5007 137.466Z" fill="#A7A7A7"/>
<path d="M32.5007 145.093H32.3167C31.7902 145.093 31.3633 145.52 31.3633 146.046C31.3633 146.573 31.7902 147 32.3167 147H32.5007C33.0273 147 33.4542 146.573 33.4542 146.046C33.4542 145.52 33.0273 145.093 32.5007 145.093Z" fill="#A7A7A7"/>
<path d="M32.5007 122.21H32.3167C31.7902 122.21 31.3633 122.637 31.3633 123.163C31.3633 123.69 31.7902 124.117 32.3167 124.117H32.5007C33.0273 124.117 33.4542 123.69 33.4542 123.163C33.4542 122.637 33.0273 122.21 32.5007 122.21Z" fill="#A7A7A7"/>
<path d="M32.5007 114.583H32.3167C31.7902 114.583 31.3633 115.01 31.3633 115.536C31.3633 116.063 31.7902 116.49 32.3167 116.49H32.5007C33.0273 116.49 33.4542 116.063 33.4542 115.536C33.4542 115.01 33.0273 114.583 32.5007 114.583Z" fill="#A7A7A7"/>
<path d="M86.8645 114.583H86.6805C86.1539 114.583 85.7271 115.01 85.7271 115.536C85.7271 116.063 86.1539 116.49 86.6805 116.49H86.8645C87.3911 116.49 87.818 116.063 87.818 115.536C87.818 115.01 87.3911 114.583 86.8645 114.583Z" fill="#A7A7A7"/>
<path d="M86.5803 122.361H86.3963C85.8698 122.361 85.4429 122.788 85.4429 123.315C85.4429 123.841 85.8698 124.268 86.3963 124.268H86.5803C87.1069 124.268 87.5338 123.841 87.5338 123.315C87.5338 122.788 87.1069 122.361 86.5803 122.361Z" fill="#A7A7A7"/>
<path d="M86.864 129.838H86.68C86.1534 129.838 85.7266 130.265 85.7266 130.791C85.7266 131.318 86.1534 131.745 86.68 131.745H86.864C87.3906 131.745 87.8175 131.318 87.8175 130.791C87.8175 130.265 87.3906 129.838 86.864 129.838Z" fill="#A7A7A7"/>
<path d="M86.864 137.466H86.68C86.1534 137.466 85.7266 137.893 85.7266 138.419C85.7266 138.946 86.1534 139.373 86.68 139.373H86.864C87.3906 139.373 87.8175 138.946 87.8175 138.419C87.8175 137.893 87.3906 137.466 86.864 137.466Z" fill="#A7A7A7"/>
<path d="M86.864 145.093H86.68C86.1534 145.093 85.7266 145.52 85.7266 146.046C85.7266 146.573 86.1534 147 86.68 147H86.864C87.3906 147 87.8175 146.573 87.8175 146.046C87.8175 145.52 87.3906 145.093 86.864 145.093Z" fill="#A7A7A7"/>
<path d="M97.3186 114.583H97.1346C96.608 114.583 96.1812 115.01 96.1812 115.536C96.1812 116.063 96.608 116.49 97.1346 116.49H97.3186C97.8452 116.49 98.2721 116.063 98.2721 115.536C98.2721 115.01 97.8452 114.583 97.3186 114.583Z" fill="#A7A7A7"/>
<path d="M97.3186 122.21H97.1346C96.608 122.21 96.1812 122.637 96.1812 123.163C96.1812 123.69 96.608 124.117 97.1346 124.117H97.3186C97.8452 124.117 98.2721 123.69 98.2721 123.163C98.2721 122.637 97.8452 122.21 97.3186 122.21Z" fill="#A7A7A7"/>
<path d="M97.3186 129.838H97.1346C96.608 129.838 96.1812 130.265 96.1812 130.791C96.1812 131.318 96.608 131.745 97.1346 131.745H97.3186C97.8452 131.745 98.2721 131.318 98.2721 130.791C98.2721 130.265 97.8452 129.838 97.3186 129.838Z" fill="#A7A7A7"/>
<path d="M97.3186 137.466H97.1346C96.608 137.466 96.1812 137.893 96.1812 138.419C96.1812 138.946 96.608 139.373 97.1346 139.373H97.3186C97.8452 139.373 98.2721 138.946 98.2721 138.419C98.2721 137.893 97.8452 137.466 97.3186 137.466Z" fill="#A7A7A7"/>
<path d="M97.3186 145.093H97.1346C96.608 145.093 96.1812 145.52 96.1812 146.046C96.1812 146.573 96.608 147 97.1346 147H97.3186C97.8452 147 98.2721 146.573 98.2721 146.046C98.2721 145.52 97.8452 145.093 97.3186 145.093Z" fill="#A7A7A7"/>
<path d="M107.773 114.583H107.589C107.063 114.583 106.636 115.01 106.636 115.536C106.636 116.063 107.063 116.49 107.589 116.49H107.773C108.3 116.49 108.727 116.063 108.727 115.536C108.727 115.01 108.3 114.583 107.773 114.583Z" fill="#A7A7A7"/>
<path d="M107.773 122.21H107.589C107.063 122.21 106.636 122.637 106.636 123.163C106.636 123.69 107.063 124.117 107.589 124.117H107.773C108.3 124.117 108.727 123.69 108.727 123.163C108.727 122.637 108.3 122.21 107.773 122.21Z" fill="#A7A7A7"/>
<path d="M107.773 129.838H107.589C107.063 129.838 106.636 130.265 106.636 130.791C106.636 131.318 107.063 131.745 107.589 131.745H107.773C108.3 131.745 108.727 131.318 108.727 130.791C108.727 130.265 108.3 129.838 107.773 129.838Z" fill="#A7A7A7"/>
<path d="M107.773 137.466H107.589C107.063 137.466 106.636 137.893 106.636 138.419C106.636 138.946 107.063 139.373 107.589 139.373H107.773C108.3 139.373 108.727 138.946 108.727 138.419C108.727 137.893 108.3 137.466 107.773 137.466Z" fill="#A7A7A7"/>
<path d="M107.773 145.093H107.589C107.063 145.093 106.636 145.52 106.636 146.046C106.636 146.573 107.063 147 107.589 147H107.773C108.3 147 108.727 146.573 108.727 146.046C108.727 145.52 108.3 145.093 107.773 145.093Z" fill="#A7A7A7"/>
<path d="M118.228 129.838H118.044C117.517 129.838 117.09 130.265 117.09 130.791C117.09 131.318 117.517 131.745 118.044 131.745H118.228C118.754 131.745 119.181 131.318 119.181 130.791C119.181 130.265 118.754 129.838 118.228 129.838Z" fill="#A7A7A7"/>
<path d="M118.228 137.466H118.044C117.517 137.466 117.09 137.893 117.09 138.419C117.09 138.946 117.517 139.373 118.044 139.373H118.228C118.754 139.373 119.181 138.946 119.181 138.419C119.181 137.893 118.754 137.466 118.228 137.466Z" fill="#A7A7A7"/>
<path d="M118.228 145.093H118.044C117.517 145.093 117.09 145.52 117.09 146.046C117.09 146.573 117.517 147 118.044 147H118.228C118.754 147 119.181 146.573 119.181 146.046C119.181 145.52 118.754 145.093 118.228 145.093Z" fill="#A7A7A7"/>
<path d="M118.228 122.21H118.044C117.517 122.21 117.09 122.637 117.09 123.163C117.09 123.69 117.517 124.117 118.044 124.117H118.228C118.754 124.117 119.181 123.69 119.181 123.163C119.181 122.637 118.754 122.21 118.228 122.21Z" fill="#A7A7A7"/>
<path d="M118.228 114.583H118.044C117.517 114.583 117.09 115.01 117.09 115.536C117.09 116.063 117.517 116.49 118.044 116.49H118.228C118.754 116.49 119.181 116.063 119.181 115.536C119.181 115.01 118.754 114.583 118.228 114.583Z" fill="#A7A7A7"/>
<path d="M44.0012 114.583H43.8172C43.2906 114.583 42.8638 115.01 42.8638 115.536C42.8638 116.063 43.2906 116.49 43.8172 116.49H44.0012C44.5278 116.49 44.9547 116.063 44.9547 115.536C44.9547 115.01 44.5278 114.583 44.0012 114.583Z" fill="#A7A7A7"/>
<path d="M44.0012 122.21H43.8172C43.2906 122.21 42.8638 122.637 42.8638 123.163C42.8638 123.69 43.2906 124.117 43.8172 124.117H44.0012C44.5278 124.117 44.9547 123.69 44.9547 123.163C44.9547 122.637 44.5278 122.21 44.0012 122.21Z" fill="#A7A7A7"/>
<path d="M44.0012 129.838H43.8172C43.2906 129.838 42.8638 130.265 42.8638 130.791C42.8638 131.318 43.2906 131.745 43.8172 131.745H44.0012C44.5278 131.745 44.9547 131.318 44.9547 130.791C44.9547 130.265 44.5278 129.838 44.0012 129.838Z" fill="#A7A7A7"/>
<path d="M44.0012 137.466H43.8172C43.2906 137.466 42.8638 137.893 42.8638 138.419C42.8638 138.946 43.2906 139.373 43.8172 139.373H44.0012C44.5278 139.373 44.9547 138.946 44.9547 138.419C44.9547 137.893 44.5278 137.466 44.0012 137.466Z" fill="#A7A7A7"/>
<path d="M44.0012 145.093H43.8172C43.2906 145.093 42.8638 145.52 42.8638 146.046C42.8638 146.573 43.2906 147 43.8172 147H44.0012C44.5278 147 44.9547 146.573 44.9547 146.046C44.9547 145.52 44.5278 145.093 44.0012 145.093Z" fill="#A7A7A7"/>
<path d="M54.4558 114.583H54.2718C53.7452 114.583 53.3184 115.01 53.3184 115.536C53.3184 116.063 53.7452 116.49 54.2718 116.49H54.4558C54.9824 116.49 55.4093 116.063 55.4093 115.536C55.4093 115.01 54.9824 114.583 54.4558 114.583Z" fill="#A7A7A7"/>
<path d="M54.4558 122.21H54.2718C53.7452 122.21 53.3184 122.637 53.3184 123.163C53.3184 123.69 53.7452 124.117 54.2718 124.117H54.4558C54.9824 124.117 55.4093 123.69 55.4093 123.163C55.4093 122.637 54.9824 122.21 54.4558 122.21Z" fill="#A7A7A7"/>
<path d="M54.4558 129.838H54.2718C53.7452 129.838 53.3184 130.265 53.3184 130.791C53.3184 131.318 53.7452 131.745 54.2718 131.745H54.4558C54.9824 131.745 55.4093 131.318 55.4093 130.791C55.4093 130.265 54.9824 129.838 54.4558 129.838Z" fill="#A7A7A7"/>
<path d="M54.4558 137.466H54.2718C53.7452 137.466 53.3184 137.893 53.3184 138.419C53.3184 138.946 53.7452 139.373 54.2718 139.373H54.4558C54.9824 139.373 55.4093 138.946 55.4093 138.419C55.4093 137.893 54.9824 137.466 54.4558 137.466Z" fill="#A7A7A7"/>
<path d="M54.4558 145.093H54.2718C53.7452 145.093 53.3184 145.52 53.3184 146.046C53.3184 146.573 53.7452 147 54.2718 147H54.4558C54.9824 147 55.4093 146.573 55.4093 146.046C55.4093 145.52 54.9824 145.093 54.4558 145.093Z" fill="#A7A7A7"/>
<path d="M64.9104 114.583H64.7264C64.1998 114.583 63.7729 115.01 63.7729 115.536C63.7729 116.063 64.1998 116.49 64.7264 116.49H64.9104C65.437 116.49 65.8639 116.063 65.8639 115.536C65.8639 115.01 65.437 114.583 64.9104 114.583Z" fill="#A7A7A7"/>
<path d="M64.9104 122.21H64.7264C64.1998 122.21 63.7729 122.637 63.7729 123.163C63.7729 123.69 64.1998 124.117 64.7264 124.117H64.9104C65.437 124.117 65.8639 123.69 65.8639 123.163C65.8639 122.637 65.437 122.21 64.9104 122.21Z" fill="#A7A7A7"/>
<path d="M64.9104 129.838H64.7264C64.1998 129.838 63.7729 130.265 63.7729 130.791C63.7729 131.318 64.1998 131.745 64.7264 131.745H64.9104C65.437 131.745 65.8639 131.318 65.8639 130.791C65.8639 130.265 65.437 129.838 64.9104 129.838Z" fill="#A7A7A7"/>
<path d="M64.9104 137.466H64.7264C64.1998 137.466 63.7729 137.893 63.7729 138.419C63.7729 138.946 64.1998 139.373 64.7264 139.373H64.9104C65.437 139.373 65.8639 138.946 65.8639 138.419C65.8639 137.893 65.437 137.466 64.9104 137.466Z" fill="#A7A7A7"/>
<path d="M64.9104 145.093H64.7264C64.1998 145.093 63.7729 145.52 63.7729 146.046C63.7729 146.573 64.1998 147 64.7264 147H64.9104C65.437 147 65.8639 146.573 65.8639 146.046C65.8639 145.52 65.437 145.093 64.9104 145.093Z" fill="#A7A7A7"/>
<path d="M75.3645 129.838H75.1805C74.6539 129.838 74.2271 130.265 74.2271 130.791C74.2271 131.318 74.6539 131.745 75.1805 131.745H75.3645C75.8911 131.745 76.318 131.318 76.318 130.791C76.318 130.265 75.8911 129.838 75.3645 129.838Z" fill="#A7A7A7"/>
<path d="M75.3645 137.466H75.1805C74.6539 137.466 74.2271 137.893 74.2271 138.419C74.2271 138.946 74.6539 139.373 75.1805 139.373H75.3645C75.8911 139.373 76.318 138.946 76.318 138.419C76.318 137.893 75.8911 137.466 75.3645 137.466Z" fill="#A7A7A7"/>
<path d="M75.3645 145.093H75.1805C74.6539 145.093 74.2271 145.52 74.2271 146.046C74.2271 146.573 74.6539 147 75.1805 147H75.3645C75.8911 147 76.318 146.573 76.318 146.046C76.318 145.52 75.8911 145.093 75.3645 145.093Z" fill="#A7A7A7"/>
<path d="M75.3645 122.21H75.1805C74.6539 122.21 74.2271 122.637 74.2271 123.163C74.2271 123.69 74.6539 124.117 75.1805 124.117H75.3645C75.8911 124.117 76.318 123.69 76.318 123.163C76.318 122.637 75.8911 122.21 75.3645 122.21Z" fill="#A7A7A7"/>
<path d="M75.3645 114.583H75.1805C74.6539 114.583 74.2271 115.01 74.2271 115.536C74.2271 116.063 74.6539 116.49 75.1805 116.49H75.3645C75.8911 116.49 76.318 116.063 76.318 115.536C76.318 115.01 75.8911 114.583 75.3645 114.583Z" fill="#A7A7A7"/>
<path d="M128.683 114.583H128.499C127.973 114.583 127.546 115.01 127.546 115.536C127.546 116.063 127.973 116.49 128.499 116.49H128.683C129.21 116.49 129.637 116.063 129.637 115.536C129.637 115.01 129.21 114.583 128.683 114.583Z" fill="#A7A7A7"/>
<path d="M128.682 122.21H128.498C127.972 122.21 127.545 122.637 127.545 123.163C127.545 123.69 127.972 124.117 128.498 124.117H128.682C129.209 124.117 129.636 123.69 129.636 123.163C129.636 122.637 129.209 122.21 128.682 122.21Z" fill="#A7A7A7"/>
<path d="M128.682 129.838H128.498C127.972 129.838 127.545 130.265 127.545 130.791C127.545 131.318 127.972 131.745 128.498 131.745H128.682C129.209 131.745 129.636 131.318 129.636 130.791C129.636 130.265 129.209 129.838 128.682 129.838Z" fill="#A7A7A7"/>
<path d="M128.682 137.466H128.498C127.972 137.466 127.545 137.893 127.545 138.419C127.545 138.946 127.972 139.373 128.498 139.373H128.682C129.209 139.373 129.636 138.946 129.636 138.419C129.636 137.893 129.209 137.466 128.682 137.466Z" fill="#A7A7A7"/>
<path d="M128.682 145.093H128.498C127.972 145.093 127.545 145.52 127.545 146.046C127.545 146.573 127.972 147 128.498 147H128.682C129.209 147 129.636 146.573 129.636 146.046C129.636 145.52 129.209 145.093 128.682 145.093Z" fill="#A7A7A7"/>
<path d="M139.137 114.583H138.953C138.427 114.583 138 115.01 138 115.536C138 116.063 138.427 116.49 138.953 116.49H139.137C139.664 116.49 140.091 116.063 140.091 115.536C140.091 115.01 139.664 114.583 139.137 114.583Z" fill="#A7A7A7"/>
<path d="M139.137 122.21H138.953C138.427 122.21 138 122.637 138 123.163C138 123.69 138.427 124.117 138.953 124.117H139.137C139.664 124.117 140.091 123.69 140.091 123.163C140.091 122.637 139.664 122.21 139.137 122.21Z" fill="#A7A7A7"/>
<path d="M139.137 129.838H138.953C138.427 129.838 138 130.265 138 130.791C138 131.318 138.427 131.745 138.953 131.745H139.137C139.664 131.745 140.091 131.318 140.091 130.791C140.091 130.265 139.664 129.838 139.137 129.838Z" fill="#A7A7A7"/>
<path d="M139.137 137.466H138.953C138.427 137.466 138 137.893 138 138.419C138 138.946 138.427 139.373 138.953 139.373H139.137C139.664 139.373 140.091 138.946 140.091 138.419C140.091 137.893 139.664 137.466 139.137 137.466Z" fill="#A7A7A7"/>
<path d="M139.137 145.093H138.953C138.427 145.093 138 145.52 138 146.046C138 146.573 138.427 147 138.953 147H139.137C139.664 147 140.091 146.573 140.091 146.046C140.091 145.52 139.664 145.093 139.137 145.093Z" fill="#A7A7A7"/>
<path d="M149.593 114.583H149.409C148.882 114.583 148.455 115.01 148.455 115.536C148.455 116.063 148.882 116.49 149.409 116.49H149.593C150.119 116.49 150.546 116.063 150.546 115.536C150.546 115.01 150.119 114.583 149.593 114.583Z" fill="#A7A7A7"/>
<path d="M149.593 122.21H149.409C148.882 122.21 148.455 122.637 148.455 123.163C148.455 123.69 148.882 124.117 149.409 124.117H149.593C150.119 124.117 150.546 123.69 150.546 123.163C150.546 122.637 150.119 122.21 149.593 122.21Z" fill="#A7A7A7"/>
<path d="M149.593 129.838H149.409C148.882 129.838 148.455 130.265 148.455 130.791C148.455 131.318 148.882 131.745 149.409 131.745H149.593C150.119 131.745 150.546 131.318 150.546 130.791C150.546 130.265 150.119 129.838 149.593 129.838Z" fill="#A7A7A7"/>
<path d="M149.593 137.466H149.409C148.882 137.466 148.455 137.893 148.455 138.419C148.455 138.946 148.882 139.373 149.409 139.373H149.593C150.119 139.373 150.546 138.946 150.546 138.419C150.546 137.893 150.119 137.466 149.593 137.466Z" fill="#A7A7A7"/>
<path d="M149.593 145.093H149.409C148.882 145.093 148.455 145.52 148.455 146.046C148.455 146.573 148.882 147 149.409 147H149.593C150.119 147 150.546 146.573 150.546 146.046C150.546 145.52 150.119 145.093 149.593 145.093Z" fill="#A7A7A7"/>
<path d="M160.046 129.838H159.862C159.336 129.838 158.909 130.265 158.909 130.791C158.909 131.318 159.336 131.745 159.862 131.745H160.046C160.573 131.745 161 131.318 161 130.791C161 130.265 160.573 129.838 160.046 129.838Z" fill="#A7A7A7"/>
<path d="M160.046 137.466H159.862C159.336 137.466 158.909 137.893 158.909 138.419C158.909 138.946 159.336 139.373 159.862 139.373H160.046C160.573 139.373 161 138.946 161 138.419C161 137.893 160.573 137.466 160.046 137.466Z" fill="#A7A7A7"/>
<path d="M160.046 145.093H159.862C159.336 145.093 158.909 145.52 158.909 146.046C158.909 146.573 159.336 147 159.862 147H160.046C160.573 147 161 146.573 161 146.046C161 145.52 160.573 145.093 160.046 145.093Z" fill="#A7A7A7"/>
<path d="M160.046 122.21H159.862C159.336 122.21 158.909 122.637 158.909 123.163C158.909 123.69 159.336 124.117 159.862 124.117H160.046C160.573 124.117 161 123.69 161 123.163C161 122.637 160.573 122.21 160.046 122.21Z" fill="#A7A7A7"/>
<path d="M160.046 114.583H159.862C159.336 114.583 158.909 115.01 158.909 115.536C158.909 116.063 159.336 116.49 159.862 116.49H160.046C160.573 116.49 161 116.063 161 115.536C161 115.01 160.573 114.583 160.046 114.583Z" fill="#A7A7A7"/>
</svg>
