<svg width="116" height="116" viewBox="0 0 116 116" fill="none" xmlns="http://www.w3.org/2000/svg">
<g clip-path="url(#clip0_4976_534)">
<mask id="mask0_4976_534" style="mask-type:alpha" maskUnits="userSpaceOnUse" x="0" y="0" width="116" height="116">
<ellipse cx="58" cy="58.0742" rx="57.5" ry="57.5" fill="#D9D9D9"/>
</mask>
<g mask="url(#mask0_4976_534)">
<path d="M48.9067 96.0876C48.4585 96.5193 47.9578 96.9614 47.3984 97.4172V115.717H70.2924V98.1751C69.9518 97.918 69.6296 97.6656 69.3248 97.4172C68.7654 96.9614 68.2647 96.5193 67.8166 96.0876C63.3376 91.7728 64.0999 88.4877 63.8516 82.7773H52.8717C52.6234 88.4877 53.3856 91.7728 48.9067 96.0876Z" fill="#FFD5BE" stroke="black" stroke-width="0.609995" stroke-linecap="round"/>
<path d="M47.4098 97.4156C47.9692 96.9598 48.4699 96.5177 48.9181 96.0859L58.373 102.296L67.8279 96.0859C68.2761 96.5177 68.7768 96.9598 69.3362 97.4156C69.641 97.6639 69.9632 97.9164 70.3038 98.1734V115.715H69.3362H67.3906H65.998H63.863H62.5896H60.813H59.638H58.373H57.9514H56.3905H54.4081H52.8831H51.3581H48.9181H47.4098V97.4156Z" fill="white"/>
<path d="M26.9531 115.717H40.678C39.1903 114.294 36.7528 109.617 38.904 102.297C29.1143 108.004 27.5573 113.473 26.9531 115.717Z" fill="#F4BA13"/>
<path fill-rule="evenodd" clip-rule="evenodd" d="M77.8318 102.297C79.983 109.617 77.5454 114.294 76.0577 115.717H89.7826C89.1784 113.473 87.6215 108.004 77.8318 102.297Z" fill="#F4BA13"/>
<path d="M77.8318 102.297C76.091 101.282 74.09 100.26 71.7878 99.2472C71.2559 98.8804 70.7603 98.5235 70.2987 98.1751V115.717H76.0577C77.5454 114.294 79.983 109.617 77.8318 102.297Z" fill="#F4BA13"/>
<path d="M44.948 99.2472C42.6457 100.26 40.6447 101.282 38.904 102.297C36.7528 109.617 39.1903 114.294 40.678 115.717H47.4047V97.4172C46.6869 98.0021 45.8724 98.6097 44.948 99.2472Z" fill="#F4BA13"/>
<path d="M52.8779 82.7773C52.6296 88.4877 53.3919 91.7728 48.913 96.0876M40.678 115.717H26.9531C27.5573 113.473 29.1143 108.004 38.904 102.297M40.678 115.717C39.1903 114.294 36.7528 109.617 38.904 102.297M40.678 115.717H47.4047M38.904 102.297C40.6447 101.282 42.6457 100.26 44.948 99.2472C45.8724 98.6097 46.6869 98.0021 47.4047 97.4172M47.4047 97.4172C47.9641 96.9614 48.4648 96.5193 48.913 96.0876M47.4047 97.4172L48.913 98.5082L51.3529 100.273L52.8779 101.376L54.4029 102.479L56.3854 103.913L57.9462 105.042L58.3679 105.347L59.6329 104.432L60.8079 103.582L62.5845 102.297L63.8578 101.376L65.9928 99.8319L67.3855 98.8245L69.3311 97.4172M47.4047 97.4172V115.717M47.4047 115.717H48.913H51.3529H52.8779H54.4029H56.3854H57.9462H58.3679H59.6329H60.8079H62.5845H63.8578H65.9928H67.3855H69.3311H70.2987M48.913 96.0876L58.3679 102.297L67.8228 96.0876M76.0577 115.717H89.7826C89.1784 113.473 87.6215 108.004 77.8318 102.297M76.0577 115.717C77.5454 114.294 79.983 109.617 77.8318 102.297M76.0577 115.717H70.2987M77.8318 102.297C76.091 101.282 74.09 100.26 71.7878 99.2472C71.2559 98.8804 70.7603 98.5235 70.2987 98.1751M69.3311 97.4172C68.7717 96.9614 68.271 96.5193 67.8228 96.0876M69.3311 97.4172C69.6358 97.6656 69.958 97.918 70.2987 98.1751M67.8228 96.0876C63.3439 91.7728 64.1061 88.4877 63.8578 82.7773M70.2987 98.1751V115.717" stroke="black" stroke-width="0.609995" stroke-linecap="round"/>
<path d="M59.6307 104.424V115.709H60.8057V103.574L59.6307 104.424Z" fill="black"/>
<path d="M62.5823 102.289V115.709H63.8557V101.368L62.5823 102.289Z" fill="black"/>
<path d="M65.9906 99.8238V115.709H67.3833V98.8164L65.9906 99.8238Z" fill="black"/>
<path d="M56.3833 103.905V115.709H57.9441V105.034L56.3833 103.905Z" fill="black"/>
<path d="M54.4008 115.709V102.471L52.8758 101.368V115.709H54.4008Z" fill="black"/>
<path d="M51.3509 115.709V100.265L49.8281 99.1698V115.709H51.3509Z" fill="black"/>
<path d="M51.3509 100.265V115.709M51.3509 100.265L49.8281 99.1698V115.709H51.3509M51.3509 100.265L52.8758 101.368M51.3509 115.709H52.8758M54.4008 102.471V115.709M54.4008 102.471L52.8758 101.368M54.4008 102.471L56.3833 103.905M54.4008 115.709H52.8758M54.4008 115.709H56.3833M52.8758 101.368V115.709M56.3833 103.905V115.709M56.3833 103.905L57.9441 105.034M56.3833 115.709H57.9441M57.9441 105.034L58.3657 105.339L59.6307 104.424M57.9441 105.034V115.709M57.9441 115.709H58.3657H59.6307M59.6307 104.424V115.709M59.6307 104.424L60.8057 103.574M59.6307 115.709H60.8057M60.8057 103.574V115.709M60.8057 103.574L62.5823 102.289M60.8057 115.709H62.5823M62.5823 102.289V115.709M62.5823 102.289L63.8557 101.368M62.5823 115.709H63.8557M63.8557 101.368V115.709M63.8557 101.368L65.9906 99.8238M63.8557 115.709H65.9906M65.9906 99.8238V115.709M65.9906 99.8238L67.3833 98.8164V115.709H65.9906" stroke="black" stroke-width="0.609995" stroke-linecap="round"/>
<path d="M34.2866 59.8937C35.8298 59.8937 34.8875 62.3337 33.9816 62.6387L34.2866 65.3896L85.2197 64.1696C85.3214 63.2546 85.2197 61.2417 83.9997 60.5097C82.7797 59.7777 83.0847 59.188 83.3897 58.9847C86.5617 56.7887 85.5247 55.223 84.6097 54.7147C85.5247 53.1897 88.8797 46.6054 86.4397 47.0838C85.2197 47.323 85.1181 45.9675 85.2197 45.2598C87.4157 41.5998 85.8297 38.5498 83.9997 37.6348C85.7077 33.4869 83.6947 32.1449 81.5598 30.6199C81.5598 27.4479 80.6448 26.3499 78.2048 24.2149C79.1808 20.555 76.0698 20.555 74.2398 20.555C73.9348 16.895 70.2748 17.81 68.7498 18.725C67.5299 19.457 67.2249 18.6233 67.2249 18.115C66.3099 15.675 61.4299 17.5049 61.1249 18.4199C60.8809 19.1519 60.2099 18.7237 59.9049 18.4181C57.1599 14.1499 54.415 19.0281 54.11 19.3324C53.866 19.5759 53.6016 19.4339 53.5 19.3324C49.84 15.6725 48.01 19.0274 47.705 19.9424C47.461 20.6744 46.9933 20.4513 46.79 20.2482C42.642 18.2962 41.6051 21.4683 41.6051 23.2984C35.5051 22.0784 35.4034 26.2437 36.1151 28.4789C33.0651 27.5639 29.2478 32.6257 30.6253 33.6639C31.8451 34.5833 31.0282 34.8839 30.3148 34.8839C27.2703 36.1039 28.1819 39.7639 30.0098 40.0689C31.2347 40.2732 30.5171 40.9838 30.0098 41.2888C27.5698 43.4848 29.0974 46.7512 30.3148 47.0838C31.4323 47.3888 33.1185 48.1208 30.9225 48.6088C28.1775 49.2188 29.0925 53.1838 30.9225 53.1838C32.3865 53.1838 31.9453 54.4037 31.5416 55.0137C28.7967 56.5387 31.5331 59.8937 34.2866 59.8937Z" fill="#253B5A" stroke="black" stroke-width="0.609995" stroke-linecap="round"/>
<path d="M39.1585 73.9333C45.8684 83.9982 49.8334 85.5232 58.6783 85.8282C69.9092 86.3211 75.1394 78.5021 77.8844 73.9333C91.9143 69.9745 84.5944 58.0673 81.8494 62.3372C81.3054 63.1835 80.7311 63.5572 80.3244 63.5572C78.4127 62.3624 79.4654 54.4391 80.2737 50.3881C80.3029 50.2418 80.2207 50.0991 80.0857 50.0358C77.3666 48.7619 77.9241 44.7964 78.6594 42.5997C78.7249 42.4039 78.5885 42.1956 78.3838 42.1683C74.4595 41.6436 72.8199 36.9238 72.4354 34.2853C72.4105 34.1141 72.252 33.9953 72.0799 34.0122C69.4205 34.2748 67.7748 32.544 67.1035 31.331C66.9984 31.1411 66.7346 31.091 66.5619 31.2225C65.0278 32.3911 63.0493 31.7297 61.9938 31.0994C61.8419 31.0087 61.6415 31.054 61.5422 31.2004C58.9086 35.0825 53.1874 33.3206 51.6388 30.9062C51.4982 30.6868 51.1331 30.6532 50.9677 30.8546C49.502 32.6393 46.9719 32.9065 45.5651 32.7879C45.3923 32.7733 45.2354 32.8975 45.2162 33.0699C44.9826 35.1671 44.6098 36.0484 43.3184 36.631C43.1983 36.6851 43.1211 36.8078 43.1245 36.9395C43.2111 40.2911 40.427 42.0284 38.553 42.6444C38.3078 42.725 38.2321 43.0656 38.4089 43.2537C39.489 44.4034 39.7665 46.0093 39.7268 47.356C39.6915 48.554 38.8218 49.5036 37.7265 49.9904C37.1213 50.2594 36.7604 50.8899 36.8349 51.548L38.2075 63.6729C38.3087 64.5664 37.1953 65.0546 36.6066 64.3748L34.5835 62.0384C27.8633 61.7274 31.5248 73.3172 39.1585 73.9333Z" fill="#FFD5BE" stroke="black" stroke-width="0.609995" stroke-linecap="round"/>
<circle cx="69.9475" cy="57.8498" r="2.13498" fill="black"/>
<circle cx="46.7756" cy="57.8498" r="2.13498" fill="black"/>
<path d="M42.0482 48.5881C43.6108 47.4322 47.2987 46.502 49.5326 46.07C49.6882 46.04 49.6996 45.8249 49.5473 45.7811C44.6954 44.3863 42.4705 46.6522 41.7721 48.412C41.7131 48.5606 41.9197 48.6832 42.0482 48.5881Z" fill="black" stroke="black" stroke-width="0.609995" stroke-linecap="round"/>
<path d="M74.6784 48.5881C73.1157 47.4322 69.4279 46.502 67.1939 46.07C67.0384 46.04 67.027 45.8249 67.1792 45.7811C72.0312 44.3863 74.256 46.6522 74.9545 48.412C75.0135 48.5606 74.8069 48.6832 74.6784 48.5881Z" fill="black" stroke="black" stroke-width="0.609995" stroke-linecap="round"/>
<path d="M58.0547 50.832C58.4614 54.187 60.0677 61.6289 63.2396 64.5569C62.528 65.0653 60.5557 66.1429 58.3597 66.3869" stroke="black" stroke-width="0.609995" stroke-linecap="round"/>
<path d="M63.5574 70.6641C62.2358 72.0874 58.3115 74.08 53.1875 70.6641" stroke="black" stroke-width="0.609995" stroke-linecap="round"/>
<path d="M33.0391 66.0898C33.9541 66.6998 35.296 67.3098 35.784 69.7498" stroke="black" stroke-width="0.609995" stroke-linecap="round"/>
<path d="M84.2969 65.7852C83.3819 66.3952 81.7349 67.6151 81.2469 70.0551" stroke="black" stroke-width="0.609995" stroke-linecap="round"/>
</g>
</g>
<defs>
<clipPath id="clip0_4976_534">
<rect width="115" height="115" fill="white" transform="translate(0.5 0.574219)"/>
</clipPath>
</defs>
</svg>
