<svg width="116" height="116" viewBox="0 0 116 116" fill="none" xmlns="http://www.w3.org/2000/svg">
<g clip-path="url(#clip0_5117_359)">
<mask id="mask0_5117_359" style="mask-type:luminance" maskUnits="userSpaceOnUse" x="0" y="0" width="116" height="116">
<path d="M116 0H0V116H116V0Z" fill="white"/>
</mask>
<g mask="url(#mask0_5117_359)">
<mask id="mask1_5117_359" style="mask-type:alpha" maskUnits="userSpaceOnUse" x="-1" y="-1" width="116" height="116">
<path d="M57 115C89.0325 115 115 89.0325 115 57C115 24.9675 89.0325 -1 57 -1C24.9675 -1 -1 24.9675 -1 57C-1 89.0325 24.9675 115 57 115Z" fill="#D9D9D9"/>
</mask>
<g mask="url(#mask1_5117_359)">
<path d="M64.0785 85.8625C62.8628 85.8625 61.8834 86.5379 61.5457 86.8756C61.9678 87.3822 60.6338 88.1927 51.9212 87.3822C43.2085 86.5717 37.991 84.1741 36.4714 83.0765C36.674 84.4949 37.7378 86.0314 38.2443 86.6224C33.1788 86.0145 28.8731 83.3298 27.3535 82.0634C27.3535 83.0765 28.1978 84.3429 28.62 84.8495C19.2488 79.2774 21.275 70.1595 24.061 62.308C26.8471 54.4564 25.3274 58.0023 26.3405 43.5656C27.151 32.0163 32.9255 25.8348 36.4715 23.8101C51.1286 16.7671 65.5173 20.0499 69.516 24.673C69.9499 25.1746 70.6093 25.4836 71.2666 25.3947C86.6542 23.3143 87.374 44.9134 87.1265 48.3778C86.9239 51.2145 88.0552 55.4695 88.6462 57.2425C89.6593 58.4244 91.7681 64.5874 91.9388 72.439C92.1414 81.7595 82.2299 86.4535 77.2488 87.6355C78.0593 87.0276 78.093 85.0183 78.0086 84.0896C75.1719 86.7237 72.2677 87.8887 71.1702 88.142C71.9807 87.9394 72.6898 86.5379 72.9431 85.8625H64.0785Z" fill="#732800"/>
<path d="M47.2423 94.3488C47.2423 94.3488 46.7596 95.051 45.9987 95.6711C45.369 96.1842 44.6623 96.7154 43.8691 97.2698C43.7042 97.3851 43.5279 97.483 43.344 97.5649C43.0193 97.7094 42.7009 97.8541 42.3887 97.9989C40.6694 98.7965 39.137 99.598 37.7703 100.395C34.4641 102.322 32.128 104.221 30.4627 105.97C27.3547 109.233 26.5829 111.971 26.2021 113.385H87.0194C86.6118 111.871 85.7561 108.84 82.0658 105.272C80.4618 103.72 78.3224 102.068 75.4513 100.395C74.0846 99.598 72.5522 98.7965 70.8329 97.9989C70.5207 97.8541 70.2023 97.7094 69.8776 97.5649C69.6937 97.483 69.5174 97.3851 69.3523 97.2698C68.9308 96.9751 68.5337 96.6869 68.1596 96.4046C67.8298 96.1557 67.5179 95.9114 67.2229 95.6711C67.0267 95.5112 66.8095 95.3484 66.5917 95.186L66.5481 95.1534C66.1794 94.8785 65.8127 94.6052 65.5466 94.3488C61.2112 90.1723 62.1653 87.0275 61.9249 81.5H51.2967C51.0563 87.0275 51.5778 90.1723 47.2423 94.3488Z" fill="#FFDAC6"/>
<path d="M43.8691 97.2698C44.6623 96.7154 45.369 96.1842 45.9987 95.6711C46.7596 95.051 47.2423 94.3488 47.2423 94.3488C51.5778 90.1723 51.0563 87.0275 51.2967 81.5H61.9249C62.1653 87.0275 61.2112 90.1723 65.5466 94.3488C65.8127 94.6052 66.1794 94.8785 66.5481 95.1534C66.5626 95.1642 66.5772 95.1751 66.5917 95.186C66.8095 95.3484 67.0267 95.5112 67.2229 95.6711C67.5179 95.9114 67.8298 96.1557 68.1596 96.4046C68.5337 96.6869 68.9308 96.9751 69.3523 97.2698M43.8691 97.2698C43.7042 97.3851 43.5279 97.483 43.344 97.5649ZM43.8691 97.2698C43.7042 97.3851 43.5279 97.483 43.344 97.5649ZM69.3523 97.2698C69.5174 97.3851 69.6937 97.483 69.8776 97.5649ZM69.3523 97.2698C69.5174 97.3851 69.6937 97.483 69.8776 97.5649ZM69.8776 97.5649C70.2023 97.7094 70.5207 97.8541 70.8329 97.9989C72.5522 98.7965 74.0846 99.598 75.4513 100.395C78.3224 102.068 80.4618 103.72 82.0658 105.272C85.7561 108.84 86.6118 111.871 87.0194 113.385H26.2021C26.5829 111.971 27.3547 109.233 30.4627 105.97C32.128 104.221 34.4641 102.322 37.7703 100.395C39.137 99.598 40.6694 98.7965 42.3887 97.9989C42.7009 97.8541 43.0193 97.7094 43.344 97.5649" stroke="black" stroke-width="0.59046" stroke-linecap="round"/>
<path d="M45.9987 95.6695C46.7596 95.0494 47.2423 94.3473 47.2423 94.3473L49.8952 91.4316L63.5721 92.1915L65.5466 94.3473C65.8127 94.6036 66.1794 94.877 66.5481 95.1519L66.5917 95.1844C66.8095 95.3469 67.0267 95.5096 67.2229 95.6695C67.5179 95.9098 67.8298 96.1543 68.1595 96.4031C68.5337 96.6854 68.9308 96.9736 69.3523 97.2683C69.5174 97.3837 69.6937 97.4815 69.8776 97.5633C70.2023 97.7078 70.5207 97.8526 70.8329 97.9974C72.5522 98.795 74.0846 99.5965 75.4513 100.393C78.3224 102.066 80.4618 103.72 82.0658 105.27C85.756 108.839 86.6118 114.189 87.0194 115.703H26.2021C26.5829 114.289 27.3547 109.231 30.4627 105.968C32.128 104.22 34.4641 102.321 37.7703 100.393C39.137 99.5965 40.6694 98.795 42.3887 97.9974C42.7009 97.8526 43.0193 97.7078 43.344 97.5633C43.5279 97.4815 43.7042 97.3837 43.8691 97.2684C44.6623 96.7139 45.369 96.1826 45.9987 95.6695Z" fill="#001E5B"/>
<path fill-rule="evenodd" clip-rule="evenodd" d="M49.0198 92.3464C48.9277 92.4719 48.8316 92.5979 48.7313 92.7244H64.0786C63.9816 92.5979 63.889 92.4719 63.8007 92.3464C63.4307 91.8204 63.1362 91.3026 62.9018 90.7851H49.9802C49.7215 91.3026 49.4058 91.8204 49.0198 92.3464Z" fill="#D8D8D8"/>
<path d="M51.2967 81.5C51.1282 85.3734 51.3339 88.0768 49.9802 90.7851M66.5917 95.186C66.8095 95.3484 67.0267 95.5112 67.2229 95.6711C67.5179 95.9114 67.8298 96.1557 68.1596 96.4046C68.5337 96.6869 68.9308 96.9751 69.3523 97.2698C69.5174 97.3851 69.6937 97.483 69.8776 97.5649C70.2023 97.7094 70.5207 97.8541 70.8329 97.9989C72.5522 98.7965 74.0846 99.598 75.4513 100.395C78.3224 102.068 80.4618 103.72 82.0658 105.272C85.756 108.84 86.6118 111.871 87.0194 113.385L82.0658 116.865H79.7591H70.8329H42.3887H33.8531H30.4627L26.2021 113.385C26.5829 111.971 27.3547 109.233 30.4627 105.97C32.128 104.221 34.4641 102.322 37.7703 100.395C39.137 99.598 40.6694 98.7965 42.3887 97.9989C42.7009 97.8541 43.0193 97.7094 43.344 97.5649C43.5279 97.483 43.7042 97.3851 43.8691 97.2698C44.6623 96.7154 45.369 96.1842 45.9987 95.6711C46.7596 95.051 47.2423 94.3488 47.2423 94.3488C47.8206 93.7917 48.3125 93.2529 48.7313 92.7244M66.5917 95.186C66.5772 95.1751 66.5626 95.1642 66.5481 95.1534M66.5917 95.186L66.5481 95.1534M61.9249 81.5C62.0933 85.3734 61.6752 88.0768 62.9018 90.7851M66.5481 95.1534C66.1794 94.8785 65.8127 94.6052 65.5466 94.3488C64.9683 93.7917 64.4841 93.2529 64.0786 92.7244M49.9802 90.7851H62.9018M49.9802 90.7851C49.7215 91.3026 49.4058 91.8204 49.0198 92.3464C48.9277 92.4719 48.8316 92.5979 48.7313 92.7244M62.9018 90.7851C63.1362 91.3026 63.4307 91.8204 63.8007 92.3464C63.889 92.4719 63.9816 92.5979 64.0786 92.7244M64.0786 92.7244H48.7313" stroke="black" stroke-width="0.59046" stroke-linecap="round"/>
<path d="M74.7157 72.6905C70.2581 82.6189 60.7012 84.9321 56.4799 84.8477H56.381C52.1597 84.9321 42.6028 82.6189 38.1452 72.6905C35.9501 72.7749 31.3574 71.4748 30.5469 65.5988C30.0323 61.8678 30.8901 60.947 31.8588 61.0436C33.4388 61.2013 34.7368 63.0407 36.1393 63.7853C36.1671 63.8001 36.1934 63.8136 36.2179 63.8259C34.1917 58.7604 34.8671 49.2204 35.4581 45.0836C36.6738 41.4364 42.5498 37.6542 45.3358 36.2189C45.1332 37.6373 43.0563 41.0312 42.0432 42.5508C48.3245 41.9429 55.298 37.7386 57.9996 35.7124C57.7969 37.9412 56.0578 41.7066 55.2135 43.3106C65.7498 40.0687 71.0854 35.7124 72.4362 33.9395C73.2467 36.7761 75.8132 44.0705 76.9952 47.363C79.8319 56.6836 77.3329 63.2349 75.7288 65.3456C75.9827 65.2187 76.8463 64.4886 77.6843 63.7534C78.5425 63.0005 79.2305 61.8446 80.2342 61.3004C81.4216 60.6565 82.9646 60.8819 82.314 65.5988C81.5035 71.4748 76.9108 72.7749 74.7157 72.6905Z" fill="#FFDAC6" stroke="black" stroke-width="0.50655"/>
<circle cx="67.687" cy="57.9898" r="2.01515" fill="black"/>
<circle cx="45.0171" cy="57.9898" r="2.01515" fill="black"/>
<path d="M64.4131 45.8991C66.1763 45.8151 70.2066 46.2014 72.2218 48.418" stroke="black" stroke-width="0.503787" stroke-linecap="round"/>
<path d="M48.291 45.8991C46.5278 45.8151 42.4975 46.2014 40.4823 48.418" stroke="black" stroke-width="0.503787" stroke-linecap="round"/>
<path d="M56.4806 55.2148C56.227 57.7476 56.7955 60.7781 58.1379 61.0222C60.3191 61.4188 59.773 64.586 57.4935 65.0926" stroke="black" stroke-width="0.503787" stroke-linecap="round"/>
<path d="M58.8715 57.2342H54.0856M77.0079 57.4861C77.0079 62.4944 72.9479 66.5543 67.9397 66.5543C62.9315 66.5543 58.8715 62.4944 58.8715 57.4861C58.8715 52.4779 62.9315 48.418 67.9397 48.418C72.9479 48.418 77.0079 52.4779 77.0079 57.4861ZM54.0856 57.4861C54.0856 62.4944 50.0256 66.5543 45.0174 66.5543C40.0092 66.5543 35.9492 62.4944 35.9492 57.4861C35.9492 52.4779 40.0092 48.418 45.0174 48.418C50.0256 48.418 54.0856 52.4779 54.0856 57.4861Z" stroke="black" stroke-width="0.759825"/>
<path d="M79.7782 65.2949C78.6027 66.3025 76.3021 68.6199 76.5036 69.829" stroke="black" stroke-width="0.503787" stroke-linecap="round"/>
<path d="M32.9259 65.2949C34.1014 66.3025 36.402 68.6199 36.2005 69.829" stroke="black" stroke-width="0.503787" stroke-linecap="round"/>
<path d="M56.7335 71.6772C58.2531 71.6772 59.7728 70.9174 61.2924 69.9043H57.2096H51.668C53.1876 70.9174 54.7073 71.6772 56.7335 71.6772Z" fill="black" stroke="black" stroke-width="0.503787" stroke-linecap="round"/>
</g>
</g>
</g>
<defs>
<clipPath id="clip0_5117_359">
<rect width="116" height="116" fill="white"/>
</clipPath>
</defs>
</svg>
