<svg width="116" height="116" viewBox="0 0 116 116" fill="none" xmlns="http://www.w3.org/2000/svg">
<g clip-path="url(#clip0_4990_376)">
<mask id="mask0_4990_376" style="mask-type:alpha" maskUnits="userSpaceOnUse" x="0" y="0" width="116" height="116">
<circle cx="58" cy="57.9258" r="57.5" fill="#D9D9D9"/>
</mask>
<g mask="url(#mask0_4990_376)">
<path d="M57.9556 81.7054C53.9554 81.3011 50.5962 80.078 47.7855 78.2862C45.1116 79.1184 37.9008 79.9715 29.8502 77.009C29.5102 76.8838 29.4806 76.4027 29.7856 76.207C31.0293 75.4086 32.7885 73.9381 33.5958 72.0544C32.3814 72.4188 29.4178 73.0992 26.241 73.273C25.8197 73.296 25.6482 72.7419 25.9902 72.4949C27.0872 71.7025 28.3191 70.6676 28.5567 69.9548C26.9099 70.0814 23.2224 70.3228 20.5446 70.3675C20.205 70.3732 20.0036 69.9934 20.1942 69.7122C22.2706 66.6475 25.8337 60.7854 26.4571 57.357C25.6757 58.2686 23.2951 59.5921 19.7209 58.1489C19.39 58.0153 19.3961 57.5574 19.7123 57.3921C22.6348 55.8644 26.8663 51.8286 31.0763 33.8412C35.6954 14.1054 49.553 15.7844 57.9515 17.4641C66.35 15.7844 80.2075 14.1062 84.8267 33.8421C89.0366 51.8295 93.2681 55.8653 96.1906 57.3929C96.5069 57.5582 96.5129 58.0161 96.182 58.1497C92.6078 59.593 90.2272 58.2695 89.4458 57.3579C90.0692 60.7862 93.6323 66.6484 95.7087 69.713C95.8993 69.9943 95.698 70.374 95.3583 70.3683C92.6805 70.3236 88.993 70.0823 87.3462 69.9556C87.5838 70.6684 88.8157 71.7033 89.9127 72.4957C90.2547 72.7428 90.0832 73.2968 89.662 73.2738C86.4851 73.1 83.5216 72.4196 82.3071 72.0553C83.1144 73.9389 84.8737 75.4094 86.1174 76.2078C86.4223 76.4036 86.3927 76.8847 86.0527 77.0098C78.0021 79.9723 70.7913 79.1193 68.1174 78.2871C65.3087 80.0776 61.9521 81.3002 57.9556 81.7054Z" fill="#9D2E71"/>
<path d="M58.0292 81.7127C53.9967 81.316 50.6134 80.089 47.7855 78.2862C45.1116 79.1184 37.9008 79.9715 29.8502 77.009C29.5102 76.8838 29.4806 76.4027 29.7856 76.207C31.0293 75.4086 32.7885 73.9381 33.5958 72.0544C32.3814 72.4188 29.4178 73.0992 26.241 73.273C25.8197 73.296 25.6482 72.7419 25.9902 72.4949C27.0872 71.7025 28.3191 70.6676 28.5567 69.9548C26.9099 70.0814 23.2224 70.3228 20.5446 70.3675C20.205 70.3732 20.0036 69.9934 20.1942 69.7122C22.2706 66.6475 25.8337 60.7854 26.4571 57.357C25.6757 58.2686 23.2951 59.5921 19.7209 58.1489C19.39 58.0153 19.3961 57.5574 19.7123 57.3921C22.6348 55.8644 26.8663 51.8286 31.0763 33.8412C35.6954 14.1054 49.553 15.7844 57.9515 17.4641C66.35 15.7844 80.2075 14.1062 84.8267 33.8421C89.0366 51.8295 93.2681 55.8653 96.1906 57.3929C96.5069 57.5582 96.5129 58.0161 96.182 58.1497C92.6079 59.593 90.2272 58.2695 89.4458 57.3579C90.0692 60.7862 93.6323 66.6484 95.7087 69.713C95.8993 69.9943 95.698 70.374 95.3583 70.3683C92.6805 70.3236 88.993 70.0823 87.3462 69.9556C87.5838 70.6684 88.8157 71.7033 89.9127 72.4957C90.2547 72.7428 90.0832 73.2968 89.662 73.2738C86.4851 73.1 83.5216 72.4196 82.3071 72.0553C83.1144 73.9389 84.8737 75.4094 86.1174 76.2078C86.4223 76.4036 86.3927 76.8847 86.0527 77.0098C78.0021 79.9723 70.7913 79.1193 68.1174 78.2871C65.2895 80.0898 61.9063 81.3169 57.8737 81.7135" stroke="#9D2E71" stroke-width="0.83985"/>
<path d="M64.6567 89.6876C67.4143 89.6876 70.4281 89.9748 72.8499 90.4791C72.1373 94.3548 71.2524 98.4534 70.9579 102.285C70.4898 108.377 70.4507 114.213 70.5357 116.983C63.9576 117.543 49.7093 118.326 45.3402 116.983C45.6538 112.278 45.6069 106.8 45.4082 102.285C45.1813 97.1275 44.7595 92.6804 44.4609 90.2833C45.6493 89.9385 48.2145 89.748 51.2191 89.6539L52.8988 75.8301L64.2368 74.5703L64.6567 89.6876Z" fill="#FFD5BE"/>
<path d="M70.9582 102.285C70.49 108.378 70.306 113.803 70.391 116.573C63.813 117.133 49.5646 117.916 45.1955 116.573C45.5091 111.868 45.6071 106.8 45.4085 102.285C56.2111 105.643 66.9427 103.684 70.9582 102.285Z" fill="white" stroke="black" stroke-width="0.882769"/>
<path d="M45.3498 116.559C40.8706 115.999 29.4766 113.283 19.7344 106.901C22.5156 101.943 30.9588 92.7018 44.4682 90.2781C44.7668 92.6752 45.1886 97.1223 45.4155 102.28C56.2181 105.638 66.9498 103.679 70.9652 102.28C71.2596 98.4482 71.7247 94.3496 72.4373 90.4739C85.3578 93.1643 93.4495 102.067 96.1607 106.901C86.4185 113.283 75.0245 115.999 70.5453 116.559C70.4603 113.789 70.4971 108.372 70.9652 102.28C66.9498 103.679 56.2181 105.638 45.4155 102.28C45.6142 106.795 45.6634 111.854 45.3498 116.559Z" fill="#A29CCC"/>
<path d="M51.2288 89.6836C33.7599 89.6836 22.9538 101.162 19.7344 106.901C29.4766 113.283 40.8706 115.999 45.3498 116.559C45.6634 111.854 45.6142 106.795 45.4155 102.28M64.6664 89.6836C67.4239 89.6836 70.0154 89.9696 72.4373 90.4739M72.4373 90.4739C85.3578 93.1643 93.4495 102.067 96.1607 106.901C86.4185 113.283 75.0245 115.999 70.5453 116.559C70.4603 113.789 70.4971 108.372 70.9652 102.28M72.4373 90.4739C71.7247 94.3496 71.2596 98.4482 70.9652 102.28M44.4682 90.2781C44.7668 92.6752 45.1886 97.1223 45.4155 102.28M70.9652 102.28C66.9498 103.679 56.2181 105.638 45.4155 102.28" stroke="black" stroke-width="0.83985"/>
<path d="M51.25 90.1153L52.5098 77.5176M64.6876 90.1153L64.2677 77.0977" stroke="black" stroke-width="0.83985"/>
<path d="M86.5122 57.688C87.3528 52.2268 83.2928 52.0904 81.0532 53.4901L78.9536 63.1482C81.7531 63.9885 85.6718 63.1483 86.5122 57.688Z" fill="#FFD5BE"/>
<path d="M29.4019 57.7661C28.5613 52.3049 32.6213 52.1685 34.8609 53.5682L36.9605 63.2263C34.161 64.0666 30.2423 63.2265 29.4019 57.7661Z" fill="#FFD5BE"/>
<path d="M58.0005 81.7056C37.5419 79.6644 33.8237 56.2267 34.5231 44.756C36.3431 44.0561 40.403 41.8165 42.0827 38.4571C42.3626 39.5769 42.8386 42.0684 42.5026 43.0763C44.6022 41.9565 49.1374 38.877 50.4812 35.5176C50.7611 36.4974 51.2371 38.793 50.9011 40.1368C52.7031 38.7501 56.6202 35.0007 58.0005 31.0115C59.3807 35.0007 63.2978 38.7501 65.0998 40.1368C64.7639 38.793 65.2398 36.4974 65.5198 35.5176C66.8635 38.877 71.3987 41.9565 73.4983 43.0763C73.1624 42.0684 73.6383 39.5769 73.9183 38.4571C75.598 41.8165 79.6579 44.0561 81.4779 44.756C82.1773 56.2267 78.4591 79.6644 58.0005 81.7056Z" fill="#FFD5BE"/>
<path d="M58.0389 81.7094C37.5465 79.6937 33.8232 56.2339 34.5231 44.756C36.3431 44.0561 40.403 41.8165 42.0827 38.4571C42.3626 39.5769 42.8386 42.0684 42.5026 43.0763C44.6022 41.9565 49.1374 38.877 50.4812 35.5176C50.7611 36.4974 51.2371 38.793 50.9011 40.1368C52.7202 38.737 56.6944 34.9297 58.0389 30.8984M57.9621 81.7094C78.4544 79.6937 82.1777 56.2339 81.4779 44.756C79.6579 44.0561 75.598 41.8165 73.9183 38.4571C73.6383 39.5769 73.1624 42.0684 73.4983 43.0763C71.3987 41.9565 66.8635 38.877 65.5198 35.5176C65.2398 36.4974 64.7639 38.793 65.0998 40.1368C63.2808 38.737 59.3066 34.9297 57.9621 30.8984" stroke="black" stroke-width="0.83985"/>
<path d="M62.5684 71.2109C61.0287 73.3106 57.1094 76.25 53.75 71.2109" stroke="black" stroke-width="0.83985" stroke-linecap="round"/>
<path d="M60.0371 64.9121C57.955 66.5918 52.9217 62.3926 60.0706 61.1328" stroke="black" stroke-width="0.83985" stroke-linecap="round"/>
<circle cx="46.2031" cy="55.2578" r="1.6797" fill="black"/>
<circle cx="69.7188" cy="55.2578" r="1.6797" fill="black"/>
<path d="M48.711 49.375C47.5912 49.515 44.6797 50.0469 43.6719 51.0547" stroke="black" stroke-width="1.6797" stroke-linecap="round"/>
<path d="M67.1953 49.375C68.3151 49.515 71.2266 50.0469 72.2344 51.0547" stroke="black" stroke-width="1.6797" stroke-linecap="round"/>
<path d="M31.0859 56.0994C31.9739 56.0106 32.9376 56.2382 33.6592 57.3591M34.0254 60.2996C34.2711 58.9484 34.0751 58.0052 33.6592 57.3591M33.6592 57.3591C32.9414 57.7791 31.9258 57.947 31.9258 58.6189" stroke="black" stroke-width="0.629888" stroke-linecap="round"/>
<path d="M84.8359 56.0017C83.948 55.9129 82.9843 56.1405 82.2627 57.2615M81.8965 60.2019C81.6508 58.8508 81.8468 57.9076 82.2627 57.2615M82.2627 57.2615C82.9805 57.6814 83.9961 57.8494 83.9961 58.5213" stroke="black" stroke-width="0.629888" stroke-linecap="round"/>
</g>
</g>
<defs>
<clipPath id="clip0_4990_376">
<rect width="115" height="115" fill="white" transform="translate(0.5 0.425781)"/>
</clipPath>
</defs>
</svg>
