<svg width="116" height="116" viewBox="0 0 116 116" fill="none" xmlns="http://www.w3.org/2000/svg">
<g clip-path="url(#clip0_5116_312)">
<mask id="mask0_5116_312" style="mask-type:luminance" maskUnits="userSpaceOnUse" x="0" y="0" width="116" height="116">
<path d="M116 0H0V116H116V0Z" fill="white"/>
</mask>
<g mask="url(#mask0_5116_312)">
<mask id="mask1_5116_312" style="mask-type:alpha" maskUnits="userSpaceOnUse" x="1" y="0" width="117" height="117">
<path d="M59.0908 116.102C91.1233 116.102 117.091 90.1341 117.091 58.1016C117.091 26.069 91.1233 0.101562 59.0908 0.101562C27.0583 0.101562 1.09082 26.069 1.09082 58.1016C1.09082 90.1341 27.0583 116.102 59.0908 116.102Z" fill="#D9D9D9"/>
</mask>
<g mask="url(#mask1_5116_312)">
<path d="M58.1894 115.993H79.2905V107.858C79.2905 107.173 78.7348 106.617 78.0493 106.617H37.7088L36.1572 115.993H58.1894Z" fill="#FFDAC6"/>
<path d="M42.3217 72.6934C28.5794 83.249 32.1146 96.676 35.6 102.07H79.914C83.3993 96.676 86.9345 83.249 73.1922 72.6934H42.3217Z" fill="#880E0E" stroke="black" stroke-width="0.497909" stroke-linecap="round"/>
<path d="M28.6297 54.7694C28.0322 69.5075 40.1646 76.8434 46.3055 78.669H69.2095C75.3504 76.8434 87.4828 69.5075 86.8853 54.7694C86.1384 36.3467 86.1383 19.4178 57.7575 19.6668C29.3767 19.4178 29.3765 36.3467 28.6297 54.7694Z" fill="#880E0E" stroke="black" stroke-width="0.497909" stroke-linecap="round"/>
<path d="M81.8207 101.032C79.8923 99.5329 77.6101 98.2199 74.9449 97.308C71.18 96.02 68.6079 93.8325 66.8894 91.4121H49.4868C47.7683 93.8325 45.1962 96.02 41.4314 97.308C39.3378 98.0242 37.4807 98.988 35.8457 100.095L41.4314 102.583C49.8097 106.618 79.5996 105.996 81.8207 101.032Z" fill="#FFDAC6"/>
<path d="M63.7732 81.1699H58.1876H52.6021C52.7264 83.594 52.0738 87.766 49.4863 91.4102H66.8889C64.3014 87.766 63.6489 83.594 63.7732 81.1699Z" fill="#FFDAC6"/>
<path d="M90.4787 115.994C89.6624 113.322 86.7173 104.838 81.8203 101.032C79.5991 105.997 49.8092 106.619 41.4309 102.584L35.8452 100.096C30.1128 103.977 27.1109 113.096 26.2256 115.994H36.1555L37.7071 106.619H78.0475C78.733 106.619 79.2887 107.174 79.2887 107.859V115.994H90.4787Z" fill="#FFDAC6"/>
<path d="M81.8203 101.03C86.7173 104.836 89.6624 113.32 90.4787 115.992H79.2887M81.8203 101.03C79.8918 99.531 77.6097 98.218 74.9444 97.3061C71.1795 96.0181 68.6074 93.8306 66.8889 91.4102C64.3014 87.766 63.6489 83.594 63.7732 81.1699H58.1876H52.6021C52.7263 83.594 52.0738 87.766 49.4863 91.4102C47.7678 93.8306 45.1957 96.0181 41.4309 97.3061C39.3373 98.0223 37.4802 98.9861 35.8452 100.093M81.8203 101.03C79.5991 105.995 49.8092 106.616 41.4309 102.581L35.8452 100.093M79.2887 115.992H58.1876H36.1555M79.2887 115.992V107.857C79.2887 107.172 78.733 106.616 78.0475 106.616H37.7071L36.1555 115.992M35.8452 100.093C30.1128 103.974 27.1109 113.094 26.2256 115.992H36.1555" stroke="black" stroke-width="0.620622"/>
<path d="M58.1894 116.53L79.2905 115.998L79.2876 107.858C79.2874 107.172 78.7317 106.617 78.0464 106.617H37.7056L36.1572 115.998L58.1894 116.53Z" fill="#767676"/>
<path d="M81.817 101.03C86.714 104.836 89.3333 113.326 90.1497 115.997H79.2887M81.817 101.03C79.8886 99.531 77.6064 98.218 74.9411 97.3061C71.1762 96.0181 68.6042 93.8306 66.8856 91.4102C64.2982 87.766 63.6456 83.594 63.7699 81.1699H58.1843H52.5987C52.723 83.594 52.0705 87.766 49.483 91.4102C47.7645 93.8306 45.1924 96.0181 41.4275 97.3061C39.3341 98.0223 37.477 98.9861 35.842 100.093M81.817 101.03C79.5958 105.995 49.806 106.616 41.4275 102.581L35.842 100.093M79.2887 115.997L58.1876 116.529L36.1555 115.997M79.2887 115.997L79.2859 107.857C79.2857 107.171 78.73 106.616 78.0447 106.616H37.7038L36.1555 115.997M35.842 100.093C30.1095 103.974 27.1109 113.1 26.2256 115.997H36.1555" stroke="black" stroke-width="0.620622"/>
<path d="M90.4766 116C89.6603 113.328 86.7152 104.838 81.8182 101.032C79.5969 105.997 49.8071 106.619 41.4287 102.584L35.8431 100.096C30.1107 103.977 26.4018 113.103 25.5166 116H36.1534L37.705 106.619H78.0454C78.731 106.619 79.2866 107.174 79.2866 107.859V116H90.4766Z" fill="black"/>
<path d="M81.8182 101.03C86.7152 104.836 89.6603 113.326 90.4766 115.997H79.2866M81.8182 101.03C79.8897 99.531 77.6076 98.218 74.9423 97.3061C71.1774 96.0181 68.6054 93.8306 66.8869 91.4102C64.2993 87.766 63.6468 83.594 63.7711 81.1699H58.1855H52.5999C52.7242 83.594 52.0716 87.766 49.4841 91.4102C47.7656 93.8306 45.1935 96.0181 41.4287 97.3061C39.3352 98.0223 37.4781 98.9861 35.8431 100.093M81.8182 101.03C79.5969 105.995 49.8071 106.616 41.4287 102.581L35.8431 100.093M79.2866 115.997L58.1855 116.529L36.1534 115.997M79.2866 115.997V107.857C79.2866 107.172 78.731 106.616 78.0455 106.616H37.705L36.1534 115.997M35.8431 100.093C30.1107 103.974 26.4018 113.1 25.5166 115.997H36.1534" stroke="black" stroke-width="0.620622"/>
<path fill-rule="evenodd" clip-rule="evenodd" d="M76.5013 97.9012L76.7586 107.188C76.7877 108.236 75.9459 109.101 74.8975 109.101H73.7085C72.6803 109.101 71.8467 108.268 71.8467 107.239V95.9082C72.7809 96.448 73.8061 96.9174 74.9516 97.3093C75.4918 97.4941 75.9924 97.6852 76.5013 97.9012ZM74.3291 107.239C74.8433 107.239 75.2601 106.822 75.2601 106.308C75.2601 105.795 74.8433 105.377 74.3291 105.377C73.8149 105.377 73.3982 105.795 73.3982 106.308C73.3982 106.822 73.8149 107.239 74.3291 107.239Z" fill="#929292"/>
<path d="M75.2584 106.306C75.2584 106.82 74.8416 107.237 74.3274 107.237C73.8133 107.237 73.3965 106.82 73.3965 106.306C73.3965 105.793 73.8133 105.375 74.3274 105.375C74.8416 105.375 75.2584 105.793 75.2584 106.306Z" fill="#929292"/>
<path fill-rule="evenodd" clip-rule="evenodd" d="M76.5013 97.9012L76.7586 107.188C76.7877 108.236 75.9459 109.101 74.8975 109.101H73.7085C72.6803 109.101 71.8467 108.268 71.8467 107.239V95.9082C72.7809 96.448 73.8061 96.9174 74.9516 97.3093C75.4918 97.4941 75.9924 97.6852 76.5013 97.9012ZM74.3291 107.239C74.8433 107.239 75.2601 106.822 75.2601 106.308C75.2601 105.795 74.8433 105.377 74.3291 105.377C73.8149 105.377 73.3982 105.795 73.3982 106.308C73.3982 106.822 73.8149 107.239 74.3291 107.239Z" stroke="black" stroke-width="0.620622"/>
<path d="M75.2584 106.306C75.2584 106.82 74.8416 107.237 74.3274 107.237C73.8133 107.237 73.3965 106.82 73.3965 106.306C73.3965 105.793 73.8133 105.375 74.3274 105.375C74.8416 105.375 75.2584 105.793 75.2584 106.306Z" stroke="black" stroke-width="0.620622"/>
<path fill-rule="evenodd" clip-rule="evenodd" d="M40.7067 97.9012L40.4494 107.188C40.4203 108.236 41.2621 109.101 42.3105 109.101H43.4995C44.5277 109.101 45.3613 108.268 45.3613 107.239V95.9082C44.4271 96.448 43.4019 96.9174 42.2564 97.3093C41.7162 97.4941 41.2156 97.6852 40.7067 97.9012ZM42.8789 107.239C42.3647 107.239 41.9479 106.822 41.9479 106.308C41.9479 105.795 42.3647 105.377 42.8789 105.377C43.3931 105.377 43.8099 105.795 43.8099 106.308C43.8099 106.822 43.3931 107.239 42.8789 107.239Z" fill="#929292"/>
<path d="M41.9486 106.306C41.9486 106.82 42.3654 107.237 42.8796 107.237C43.3938 107.237 43.8105 106.82 43.8105 106.306C43.8105 105.793 43.3938 105.375 42.8796 105.375C42.3654 105.375 41.9486 105.793 41.9486 106.306Z" fill="#929292"/>
<path fill-rule="evenodd" clip-rule="evenodd" d="M40.7067 97.9012L40.4494 107.188C40.4203 108.236 41.2621 109.101 42.3105 109.101H43.4995C44.5277 109.101 45.3613 108.268 45.3613 107.239V95.9082C44.4271 96.448 43.4019 96.9174 42.2564 97.3093C41.7162 97.4941 41.2156 97.6852 40.7067 97.9012ZM42.8789 107.239C42.3647 107.239 41.9479 106.822 41.9479 106.308C41.9479 105.795 42.3647 105.377 42.8789 105.377C43.3931 105.377 43.8099 105.795 43.8099 106.308C43.8099 106.822 43.3931 107.239 42.8789 107.239Z" stroke="black" stroke-width="0.620622"/>
<path d="M41.9486 106.306C41.9486 106.82 42.3654 107.237 42.8796 107.237C43.3938 107.237 43.8105 106.82 43.8105 106.306C43.8105 105.793 43.3938 105.375 42.8796 105.375C42.3654 105.375 41.9486 105.793 41.9486 106.306Z" stroke="black" stroke-width="0.620622"/>
<path d="M43.9175 106.306C43.9175 106.82 43.5007 107.237 42.9866 107.237C42.4725 107.237 42.0557 106.82 42.0557 106.306C42.0557 105.793 42.4725 105.375 42.9866 105.375C43.5007 105.375 43.9175 105.793 43.9175 106.306Z" fill="#929292"/>
<path d="M43.9175 106.306C43.9175 106.82 43.5007 107.237 42.9866 107.237C42.4725 107.237 42.0557 106.82 42.0557 106.306C42.0557 105.793 42.4725 105.375 42.9866 105.375C43.5007 105.375 43.9175 105.793 43.9175 106.306Z" stroke="black" stroke-width="0.620622"/>
</g>
</g>
<path d="M58.5034 82.6507C69.8557 82.6507 72.4449 75.431 75.9302 71.1988C78.4198 70.7012 83.5966 68.5182 83.8968 63.7311C84.1466 59.7478 82.8139 57.3505 77.6737 62.4863C78.6194 61.5415 80.1008 57.638 78.8887 50.2655C78.7587 49.4744 78.3367 48.7595 77.6965 48.2769C72.6819 44.4969 62.1931 38.5328 58.0059 27.1359C53.8187 38.5328 43.3299 44.4969 38.3153 48.2769C37.6751 48.7595 37.2541 49.4718 37.1219 50.2626C36.1418 56.1278 36.7717 59.7403 37.592 61.4905C35.5179 58.8081 31.5373 58.3584 31.985 63.7311C32.3833 68.511 37.462 70.7012 39.9516 71.1988C43.4369 75.431 46.0261 82.6507 57.3784 82.6507H58.5034Z" fill="#FFDAC6"/>
<path d="M58.0055 27.1348C62.1923 38.5324 72.6818 44.4968 77.6965 48.2769C78.3367 48.7595 78.7587 49.4744 78.8887 50.2655C80.1008 57.638 78.6194 61.5415 77.6737 62.4863C82.8139 57.3505 84.1466 59.7478 83.8968 63.7311C83.5966 68.5182 78.4198 70.7012 75.9302 71.1988C72.4449 75.431 69.8557 82.6507 58.5034 82.6507H57.3784C46.0261 82.6507 43.4369 75.431 39.9516 71.1988C37.462 70.7012 32.3833 68.511 31.985 63.7311C31.5373 58.3584 35.5179 58.8081 37.592 61.4905M37.592 61.4905C37.8245 61.7912 38.0332 62.135 38.2089 62.4863M37.592 61.4905C36.7717 59.7403 36.1418 56.1278 37.1219 50.2626C37.2541 49.4718 37.6751 48.7595 38.3153 48.2769C43.33 44.4968 53.8194 38.5324 58.0063 27.1348" stroke="black" stroke-width="0.497909" stroke-linecap="round"/>
<circle cx="69.2094" cy="56.2631" r="1.99164" fill="black"/>
<circle cx="46.8032" cy="56.2631" r="1.99164" fill="black"/>
<path d="M65.9727 44.313C67.7153 44.2301 71.6986 44.6118 73.6903 46.8026" stroke="black" stroke-width="0.497909" stroke-linecap="round"/>
<path d="M50.04 44.313C48.2974 44.2301 44.3141 44.6118 42.3224 46.8026" stroke="black" stroke-width="0.497909" stroke-linecap="round"/>
<path d="M56.7627 55.5156C56.4308 56.5944 56.4559 58.2889 59.0033 58.752C61.1591 59.144 60.5376 61.8505 59.2038 62.9843" stroke="black" stroke-width="0.497909" stroke-linecap="round"/>
<path d="M60.4957 55.5161H55.7656M78.4204 55.7651C78.4204 60.7149 74.4078 64.7275 69.4581 64.7275C64.5083 64.7275 60.4957 60.7149 60.4957 55.7651C60.4957 50.8153 64.5083 46.8027 69.4581 46.8027C74.4078 46.8027 78.4204 50.8153 78.4204 55.7651ZM55.7656 55.7651C55.7656 60.7149 51.753 64.7275 46.8032 64.7275C41.8534 64.7275 37.8408 60.7149 37.8408 55.7651C37.8408 50.8153 41.8534 46.8027 46.8032 46.8027C51.753 46.8027 55.7656 50.8153 55.7656 55.7651Z" stroke="black" stroke-width="0.497909"/>
<path d="M81.1598 63.4824C79.998 64.4782 77.7242 66.7686 77.9234 67.9636" stroke="black" stroke-width="0.497909" stroke-linecap="round"/>
<path d="M34.8539 63.4824C36.0156 64.4782 38.2894 66.7686 38.0903 67.9636" stroke="black" stroke-width="0.497909" stroke-linecap="round"/>
<path d="M58.0064 72.1973C60.4959 72.1973 62.4876 70.1227 63.2344 68.9609H58.2553H52.7783C53.5252 70.1227 55.6081 72.1973 58.0064 72.1973Z" stroke="black" stroke-width="0.497909" stroke-linecap="round"/>
</g>
<defs>
<clipPath id="clip0_5116_312">
<rect width="116" height="116" fill="white"/>
</clipPath>
</defs>
</svg>
