<svg width="116" height="116" viewBox="0 0 116 116" fill="none" xmlns="http://www.w3.org/2000/svg">
<mask id="mask0_5077_468" style="mask-type:alpha" maskUnits="userSpaceOnUse" x="0" y="0" width="116" height="116">
<path d="M58 115.426C89.7564 115.426 115.5 89.6822 115.5 57.9258C115.5 26.1694 89.7564 0.425781 58 0.425781C26.2436 0.425781 0.5 26.1694 0.5 57.9258C0.5 89.6822 26.2436 115.426 58 115.426Z" fill="#D9D9D9"/>
</mask>
<g mask="url(#mask0_5077_468)">
<path d="M83.5464 43.4512C86.3884 49.9103 83.8694 60.9983 82.2546 65.7349H34.7816C32.7997 63.7532 31.9576 58.477 31.6728 54.426C31.5302 52.3984 30.4468 50.4397 29.9578 48.4668C28.2688 41.6526 33.7315 26.7866 40.5937 25.6885C39.6359 24.156 39.5658 21.7003 39.7252 19.8747C39.7422 19.6804 40.157 19.6779 40.2064 19.8665C40.4953 20.9698 40.9591 22.1504 41.2398 22.782C41.0173 19.889 42.3761 17.587 43.3763 16.4539C43.4873 16.3282 43.6704 16.4455 43.6218 16.606C42.8145 19.2681 42.9774 22.0046 43.1775 23.1051C46.5362 16.646 51.6819 16.5384 53.8349 17.2919C55.7726 18.4761 60.746 20.909 65.1382 21.1674C69.0992 21.4004 72.8326 19.1993 74.6328 17.7385C74.7651 17.6311 74.9693 17.7729 74.9095 17.9324L73.212 22.4592C74.8647 22.2526 76.7653 21.0685 77.9559 20.162C78.1009 20.0516 78.3187 20.2344 78.2293 20.3932L75.7956 24.7198C80.4169 24.9509 83.3161 22.0994 84.4932 20.1852C84.5835 20.0382 84.8278 20.1046 84.818 20.2768C84.4976 25.9258 80.4462 27.9622 78.3792 28.2723C80.7654 28.2723 84.0697 30.8435 85.7482 32.4238C85.8645 32.5334 85.7627 32.7241 85.605 32.6983C83.2853 32.3183 81.5642 32.5934 80.9628 32.7938C86.5622 36.76 86.7892 42.2537 86.0671 45.1844C86.0241 45.3589 85.6693 45.3405 85.5863 45.181C85.1397 44.3229 84.1227 43.6982 83.5464 43.4512Z" fill="#253B5A"/>
<path d="M74.828 100.937C81.287 101.97 86.3466 110.41 88.069 114.501H28C29.7224 110.41 34.782 101.97 41.241 100.937C49.3148 99.6447 52.5443 92.8627 52.5443 85.7578H63.5247C63.5247 92.8627 66.7542 99.6447 74.828 100.937Z" fill="#FFDAC6" stroke="black" stroke-width="0.645903"/>
<path d="M74.828 100.937C81.287 101.971 86.3466 110.41 88.069 114.501L57.5 116.5L28 114.501C29.7224 110.41 34.782 101.971 41.241 100.937C42.3306 100.763 43.332 100.489 44.2491 100.127C46.4082 102.552 51.3817 105.459 58.3574 105.459C65.3332 105.459 70.0852 102.711 72.2444 100.286C73.0354 100.565 73.9155 100.791 74.828 100.937Z" fill="#FF841B" stroke="black" stroke-width="0.645903"/>
<path d="M76.1189 75.4235C71.7268 84.7245 62.232 86.8345 58.0336 86.7268C53.8353 86.8345 44.3408 84.7248 39.9487 75.4238C37.7957 75.3162 32.8438 73.6377 32.8438 67.673C32.8438 62.5061 35.1044 63.1517 37.0419 64.7664C34.2 46.1644 39.5178 38.2844 42.532 36.6697C42.094 38.8594 42.7078 40.8945 43.2328 41.9884C43.303 42.1347 43.5111 42.0827 43.5235 41.921C43.687 39.7903 44.6984 37.0515 45.316 35.6499C45.3678 35.5324 45.5301 35.5234 45.6004 35.6308C49.184 41.1056 55.5731 42.6572 59.0739 42.8003C59.2538 42.8077 59.3058 42.5337 59.1459 42.4509C57.392 41.542 55.5477 39.68 54.4271 38.3658C54.3093 38.2277 54.4879 38.0206 54.6501 38.1018C58.8758 40.2161 66.1474 39.9344 70.226 39.4053C70.4095 39.3815 70.4219 39.0506 70.2488 38.9851C67.5882 37.979 65.3529 34.7707 64.4927 33.1172C78.7025 33.6339 79.3484 52.8172 78.3796 65.412C80.2097 63.6896 83.2239 62.5058 83.2239 67.6727C83.2239 73.6374 78.2719 75.3159 76.1189 75.4235Z" fill="#FFD5BE" stroke="black" stroke-width="0.645903"/>
<path d="M35.4277 68.3184C35.966 68.3184 37.3009 69.0934 38.3343 72.1938" stroke="black" stroke-width="0.645903" stroke-linecap="round"/>
<path d="M80.6406 68.3184C80.1024 68.3184 78.7675 69.0934 77.7341 72.1938" stroke="black" stroke-width="0.645903" stroke-linecap="round"/>
<path d="M62.879 72.5176C60.8336 73.917 56.0324 75.8763 53.1904 72.5176" stroke="black" stroke-width="0.645903" stroke-linecap="round"/>
<circle cx="47.3762" cy="60.5686" r="1.93771" fill="black"/>
<circle cx="68.6916" cy="60.5686" r="1.93771" fill="black"/>
<path d="M43.546 51.6403C45.2301 50.8654 48.048 50.0244 50.0341 49.4966C50.3297 49.4181 50.3571 49.0178 50.0698 48.9129C46.109 47.466 43.8555 49.2129 42.8133 51.0204C42.6373 51.3256 43.226 51.7876 43.546 51.6403Z" fill="black"/>
<path d="M72.8446 51.6403C71.1605 50.8654 68.3426 50.0244 66.3565 49.4966C66.061 49.4181 66.0336 49.0178 66.3208 48.9129C70.2816 47.466 72.5351 49.2129 73.5774 51.0204C73.7534 51.3256 73.1647 51.7876 72.8446 51.6403Z" fill="black"/>
<path d="M57.3887 57.3379C60.0799 61.5363 63.8477 69.4163 57.3887 67.3494" stroke="black" stroke-width="0.645903" stroke-linecap="round"/>
</g>
</svg>
