<svg width="116" height="116" viewBox="0 0 116 116" fill="none" xmlns="http://www.w3.org/2000/svg">
<g clip-path="url(#clip0_4994_549)">
<mask id="mask0_4994_549" style="mask-type:alpha" maskUnits="userSpaceOnUse" x="0" y="0" width="116" height="116">
<circle cx="58" cy="58.0742" r="57.5" fill="#D9D9D9"/>
</mask>
<g mask="url(#mask0_4994_549)">
<path d="M73.5549 22.0645C91.8855 21.4223 85.4592 51.6672 79.2437 62.202V64.404L37.5303 66.6163C16.9767 26.7948 39.4177 21.4221 46.6912 21.1063C52.064 10.9927 62.8095 16.6795 73.5549 22.0645Z" fill="#253B5A" stroke="#253B5A" stroke-width="0.632087" stroke-linecap="round"/>
<path d="M47.3354 94.1091C47.3354 94.1091 46.8568 94.8053 46.1025 95.42C45.4782 95.9287 44.7776 96.4553 43.9913 97.005C43.8278 97.1193 43.653 97.2163 43.4707 97.2975C43.1488 97.4408 42.8331 97.5842 42.5236 97.7278C40.8191 98.5185 39.2999 99.3131 37.945 100.103C34.6673 102.014 32.3514 103.896 30.7004 105.63C27.6192 108.865 26.8541 111.579 26.4766 112.981H86.7696C86.3655 111.48 85.5171 108.475 81.8587 104.938C80.2685 103.4 78.1475 101.762 75.3012 100.103C73.9463 99.3131 72.4271 98.5185 70.7226 97.7278C70.4131 97.5842 70.0974 97.4408 69.7755 97.2975C69.5932 97.2163 69.4184 97.1193 69.2548 97.005C68.8369 96.7128 68.4432 96.4271 68.0723 96.1472C67.7454 95.9005 67.4362 95.6583 67.1437 95.42C66.9492 95.2615 66.7339 95.1001 66.518 94.9391L66.4747 94.9068C66.1092 94.6343 65.7457 94.3633 65.4819 94.1091C61.1838 89.9686 62.1297 86.8509 61.8914 81.3711H51.3548C51.1165 86.8509 51.6335 89.9686 47.3354 94.1091Z" fill="#FFD5BE"/>
<path d="M43.9913 97.005C44.7776 96.4553 45.4782 95.9287 46.1025 95.42C46.8568 94.8053 47.3354 94.1091 47.3354 94.1091C51.6335 89.9686 51.1165 86.8509 51.3548 81.3711H61.8914C62.1297 86.8509 61.1838 89.9686 65.4819 94.1091C65.7457 94.3633 66.1092 94.6343 66.4747 94.9068C66.4891 94.9175 66.5036 94.9283 66.518 94.9391C66.7339 95.1001 66.9492 95.2615 67.1437 95.42C67.4362 95.6583 67.7454 95.9005 68.0723 96.1472C68.4432 96.4271 68.8369 96.7128 69.2548 97.005M43.9913 97.005C43.8278 97.1193 43.653 97.2163 43.4707 97.2975M43.9913 97.005V97.005C43.8278 97.1193 43.653 97.2163 43.4707 97.2975V97.2975M69.2548 97.005C69.4184 97.1193 69.5932 97.2163 69.7755 97.2975M69.2548 97.005V97.005C69.4184 97.1193 69.5932 97.2163 69.7755 97.2975V97.2975M69.7755 97.2975C70.0974 97.4408 70.4131 97.5842 70.7226 97.7278C72.4271 98.5185 73.9463 99.3131 75.3012 100.103C78.1475 101.762 80.2685 103.4 81.8587 104.938C85.5171 108.475 86.3655 111.48 86.7696 112.981H26.4766C26.8541 111.579 27.6192 108.865 30.7004 105.63C32.3514 103.896 34.6673 102.014 37.945 100.103C39.2999 99.3131 40.8191 98.5185 42.5236 97.7278C42.8331 97.5842 43.1488 97.4408 43.4707 97.2975" stroke="black" stroke-width="0.58537" stroke-linecap="round"/>
<path d="M47.3354 94.1094C47.3354 94.1094 46.8568 94.8055 46.1025 95.4202C45.4782 95.9289 44.7776 96.4556 43.9913 97.0053C43.8278 97.1196 43.653 97.2166 43.4707 97.2977C43.1488 97.441 42.8331 97.5845 42.5236 97.7281C40.8191 98.5188 39.2999 99.3134 37.945 100.103C34.6673 102.014 32.3514 103.897 30.7004 105.63C27.6192 108.865 26.8541 113.879 26.4766 115.281H86.7696C86.3655 113.78 85.5171 108.476 81.8587 104.938C80.2685 103.401 78.1475 101.762 75.3012 100.103C73.9463 99.3134 72.4271 98.5188 70.7226 97.7281C70.4131 97.5845 70.0974 97.441 69.7755 97.2977C69.5932 97.2166 69.4184 97.1196 69.2548 97.0052C68.8369 96.7131 68.4432 96.4274 68.0723 96.1475C67.7454 95.9008 67.4362 95.6585 67.1437 95.4202C66.9492 95.2617 66.7339 95.1004 66.518 94.9393L66.4747 94.9071L66.4747 94.907C66.1092 94.6345 65.7457 94.3635 65.4819 94.1094L60.0182 96.2966L55.9111 96.9812L53.8575 96.2966H51.8039L50.4349 95.6121L49.1334 95.4202L48.3813 94.9276L47.3354 94.1094Z" fill="#235819"/>
<path fill-rule="evenodd" clip-rule="evenodd" d="M67.1437 95.42C59.3451 100.43 50.8119 99.4819 46.1025 95.42C45.4782 95.9287 44.7776 96.4553 43.9913 97.005C43.8278 97.1193 43.653 97.2163 43.4707 97.2975C43.1488 97.4408 42.8331 97.5842 42.5236 97.7278V116.431H70.7226V97.7278C70.4131 97.5842 70.0974 97.4408 69.7755 97.2975C69.5932 97.2163 69.4184 97.1193 69.2548 97.005C68.8369 96.7128 68.4432 96.4271 68.0723 96.1472C67.7454 95.9005 67.4362 95.6583 67.1437 95.42Z" fill="#88C57E"/>
<path d="M51.3548 81.3711C51.1165 86.8509 51.6335 89.9686 47.3354 94.1091M37.945 100.103C34.6673 102.014 32.3514 103.896 30.7004 105.63M37.945 100.103L34.3776 106.435L40.0664 108.331L34.0616 116.431M37.945 100.103C39.2999 99.3131 40.8191 98.5185 42.5236 97.7278M46.1025 95.42C46.8568 94.8053 47.3354 94.1091 47.3354 94.1091M46.1025 95.42C50.8119 99.4819 59.3451 100.43 67.1437 95.42M46.1025 95.42C45.4782 95.9287 44.7776 96.4553 43.9913 97.005M47.3354 94.1091C51.1403 97.1412 59.1306 97.8668 65.4819 94.1091M75.3012 100.103C78.1475 101.762 80.2685 103.4 81.8587 104.938M75.3012 100.103L78.6237 106.435L73.567 108.647L79.5719 116.431M75.3012 100.103C73.9463 99.3131 72.4271 98.5185 70.7226 97.7278M67.1437 95.42C67.4362 95.6583 67.7454 95.9005 68.0723 96.1472C68.4432 96.4271 68.8369 96.7128 69.2548 97.005M67.1437 95.42C66.9492 95.2615 66.7339 95.1001 66.518 94.9391M65.4819 94.1091C61.1838 89.9686 62.1297 86.8509 61.8914 81.3711M65.4819 94.1091C65.7457 94.3633 66.1092 94.6343 66.4747 94.9068M81.8587 104.938C85.5171 108.475 86.3655 111.48 86.7696 112.981L81.8587 116.431M81.8587 104.938V116.431M30.7004 105.63C27.6192 108.865 26.8541 111.579 26.4766 112.981L30.7004 116.431M30.7004 105.63V116.431M70.7226 97.7278C70.4131 97.5842 70.0974 97.4408 69.7755 97.2975M70.7226 97.7278V116.431M42.5236 97.7278C42.8331 97.5842 43.1488 97.4408 43.4707 97.2975M42.5236 97.7278V116.431M43.9913 97.005C43.8278 97.1193 43.653 97.2163 43.4707 97.2975M43.9913 97.005V97.005C43.8278 97.1193 43.653 97.2163 43.4707 97.2975V97.2975M69.2548 97.005C69.4184 97.1193 69.5932 97.2163 69.7755 97.2975M69.2548 97.005V97.005C69.4184 97.1193 69.5932 97.2163 69.7755 97.2975V97.2975M66.4747 94.9068C66.4891 94.9175 66.5036 94.9283 66.518 94.9391M66.4747 94.9068L66.518 94.9391M34.0616 116.431H30.7004M34.0616 116.431H42.5236M79.5719 116.431H81.8587M79.5719 116.431H70.7226M42.5236 116.431H70.7226" stroke="black" stroke-width="0.58537" stroke-linecap="round"/>
<path d="M38.0269 73.0817C44.466 82.7403 48.2709 84.2037 56.7588 84.4964C67.5363 84.9694 72.5553 77.4661 75.1895 73.0817C88.653 69.2827 81.6286 57.8562 78.9944 61.9538L77.6643 63.1412C76.4001 49.8674 81.9625 35.2662 65.0226 33.7492C65.0226 34.592 66.1603 36.5936 70.7114 37.8578C67.7616 38.2791 60.7876 38.1738 56.4894 34.3813C56.4894 35.3294 57.7536 37.6049 62.8103 39.1219C58.9124 39.6487 50.927 38.4898 50.1685 29.6406C38.4441 32.0821 37.9274 33.2269 36.1977 61.3044C36.128 62.4351 34.7206 62.9188 33.9791 62.0624L33.6367 61.667C27.1878 61.3686 30.7014 72.4904 38.0269 73.0817Z" fill="#FFD5BE" stroke="black" stroke-width="0.58537" stroke-linecap="round"/>
<circle cx="67.7363" cy="57.455" r="2.04879" fill="black"/>
<circle cx="45.4863" cy="57.455" r="2.04879" fill="black"/>
<path d="M40.967 48.5706C42.4666 47.4614 46.0055 46.5686 48.1493 46.1542C48.2986 46.1253 48.3095 45.9189 48.1634 45.8769C43.5074 44.5384 41.3723 46.7128 40.7021 48.4016C40.6455 48.5442 40.8437 48.6619 40.967 48.5706Z" fill="black" stroke="black" stroke-width="0.58537" stroke-linecap="round"/>
<path d="M72.2517 48.5706C70.7522 47.4614 67.2132 46.5686 65.0694 46.1542C64.9202 46.1253 64.9092 45.9189 65.0553 45.8769C69.7114 44.5384 71.8464 46.7128 72.5167 48.4016C72.5733 48.5442 72.3751 48.6619 72.2517 48.5706Z" fill="black" stroke="black" stroke-width="0.58537" stroke-linecap="round"/>
<path d="M61.5919 69.75C60.3236 71.1159 56.5577 73.0281 51.6406 69.75" stroke="black" stroke-width="0.58537" stroke-linecap="round"/>
<path d="M32.3203 65.3594C33.1984 65.9447 34.4862 66.5301 34.9545 68.8716" stroke="black" stroke-width="0.58537" stroke-linecap="round"/>
<path d="M56.3243 50.7266C57.4452 58.7165 58.0773 61.2449 59.9736 64.4053C58.7094 65.6695 55.865 66.6176 53.9688 65.0374" stroke="black" stroke-width="0.58537" stroke-linecap="round"/>
<path d="M81.4922 65.0664C80.6141 65.6518 79.0336 66.8225 78.5653 69.164" stroke="black" stroke-width="0.58537" stroke-linecap="round"/>
<path d="M68.5498 48.6055C73.3991 48.6056 77.3475 52.4168 77.3477 57.1387C77.3477 61.8607 73.3993 65.6717 68.5498 65.6719C63.8089 65.6719 59.9313 62.03 59.7598 57.4551H53.8496C53.678 62.0299 49.8013 65.6718 45.0605 65.6719C40.2109 65.6719 36.2617 61.8608 36.2617 57.1387C36.2619 52.4167 40.2111 48.6055 45.0605 48.6055C49.8014 48.6056 53.6782 52.2483 53.8496 56.8232H59.7598C59.9312 52.2482 63.8088 48.6055 68.5498 48.6055Z" stroke="black" stroke-width="0.632087"/>
</g>
</g>
<defs>
<clipPath id="clip0_4994_549">
<rect width="115" height="115" fill="white" transform="translate(0.5 0.574219)"/>
</clipPath>
</defs>
</svg>
