<svg width="116" height="116" viewBox="0 0 116 116" fill="none" xmlns="http://www.w3.org/2000/svg">
<mask id="mask0_5082_592" style="mask-type:alpha" maskUnits="userSpaceOnUse" x="3" y="6" width="110" height="110">
<path d="M58 115.426C88.2171 115.426 112.713 90.93 112.713 60.7129C112.713 30.4958 88.2171 6 58 6C27.7829 6 3.28711 30.4958 3.28711 60.7129C3.28711 90.93 27.7829 115.426 58 115.426Z" fill="#D9D9D9"/>
</mask>
<g mask="url(#mask0_5082_592)">
<path d="M91.6368 119.777H26.1094C27.22 115.983 31.8982 108.13 41.1029 105.061C53.5976 100.897 53.3199 90.0679 53.0423 85.3477H64.7039C64.4263 90.0679 64.1486 100.897 76.6433 105.061C85.848 108.13 90.5262 115.983 91.6368 119.777Z" fill="#000033" stroke="black" stroke-width="0.555317" stroke-linecap="round"/>
<path d="M88.5812 57.3047C86.1378 58.8596 83.3057 64.061 82.1951 66.4674C73.0324 70.6323 51.8195 77.8512 38.0476 67.8556C20.8328 55.3611 28.0519 44.2546 27.4966 43.6993C27.0523 43.255 24.9051 45.9205 23.887 47.3088C23.054 43.144 27.2189 40.9227 26.9412 40.3675C26.7191 39.9234 24.0721 39.2568 22.7764 38.9791C23.6093 37.5906 29.1625 37.8684 29.1625 37.5908C29.1625 37.3687 26.2008 36.3876 24.72 35.9248C25.8306 35.9248 28.1444 35.1844 29.1625 34.8142C28.4961 33.9257 24.6274 32.4078 22.7764 31.7599C28.5517 32.2042 38.1401 26.392 42.2125 23.4303C45.5444 21.4867 53.7631 17.4884 59.9826 17.0442C66.2022 16.5999 71.6443 21.1165 73.5879 23.4303C73.5879 22.3286 74.6806 20.7716 75.2401 20.1142C75.2447 20.1081 75.2492 20.1029 75.2536 20.0984C75.2491 20.1036 75.2446 20.1089 75.2401 20.1142C74.9584 20.4902 74.4251 23.9768 74.6983 23.4303C74.9089 23.0091 76.7171 21.7891 77.4569 21.2245C77.5978 21.0413 77.7031 20.9314 77.7525 20.9314C77.8196 20.9314 77.6923 21.0447 77.4569 21.2245C76.964 21.8647 76.035 23.3997 75.5313 24.2633C79.7517 24.4854 83.2131 27.8729 84.4163 29.5388C84.8791 31.8526 86.6931 37.2577 90.2472 40.3675C94.6897 44.2547 91.6355 55.3611 88.5812 57.3047Z" fill="#BA773D"/>
<path d="M49.7505 99.2306C49.7514 99.2321 49.7523 99.2335 49.7533 99.235C53.4328 94.4271 53.2283 88.518 53.0418 85.3477H64.7034C64.517 88.517 64.3156 94.425 67.9927 99.2332C67.9934 99.2323 67.9941 99.2315 67.9947 99.2306C68.3566 99.7054 68.7708 100.184 69.2114 100.634C64.4798 105.866 52.136 105.894 48.1415 101.019C48.7467 100.446 49.2803 99.8475 49.7505 99.2306Z" fill="#FFDAC6"/>
<path d="M69.2114 100.634C68.7708 100.184 68.3566 99.7054 67.9947 99.2306C64.9811 103.118 52.2088 103.118 49.7505 99.2306C49.2803 99.8475 48.7467 100.446 48.1415 101.019M69.2114 100.634C64.4798 105.866 52.136 105.894 48.1415 101.019M69.2114 100.634C64.2753 95.6297 64.4984 88.8328 64.7034 85.3477H53.0418C53.2521 88.9238 53.4854 95.9845 48.1415 101.019M48.1415 101.019C48.1084 100.978 48.1735 101.06 48.1415 101.019Z" stroke="black" stroke-width="0.555317" stroke-linecap="round"/>
<mask id="mask1_5082_592" style="mask-type:alpha" maskUnits="userSpaceOnUse" x="25" y="85" width="68" height="36">
<path d="M91.6368 119.777H26.1094C27.22 115.983 31.8982 108.13 41.1029 105.061C53.5976 100.897 53.3199 90.0679 53.0423 85.3477H64.7039C64.4263 90.0679 64.1486 100.897 76.6433 105.061C85.848 108.13 90.5262 115.983 91.6368 119.777Z" fill="white" stroke="black" stroke-width="0.555317" stroke-linecap="round"/>
</mask>
<g mask="url(#mask1_5082_592)">
<path d="M27.4963 109.227H88.3035M89.1365 113.391H23.8867M25.275 117.834H96.6333" stroke="white" stroke-width="0.555317" stroke-linecap="round"/>
</g>
<path d="M77.7539 77.0198C74.422 87.2376 64.704 89.5144 59.4285 89.5144H58.4751C53.1996 89.5144 43.4815 87.2376 40.1496 77.0198C30.1539 77.0184 26.5443 60.0809 36.2624 66.1911L37.4932 67.0224V49.2523C37.9375 42.8106 45.0826 38.2385 48.5996 36.7576C48.5996 38.0904 47.3038 39.7193 46.656 40.3672C56.8738 39.7008 63.1304 34.3512 64.9814 31.7598C64.7593 33.0925 62.8527 35.8321 61.9272 37.0353C63.7042 36.591 66.925 34.2587 68.3133 33.1481C68.3133 35.3693 66.2772 38.1459 65.2591 39.2565C67.9246 38.8123 70.9974 35.5544 72.2006 33.981H72.4782C72.5708 36.1098 72.2006 39.8119 74.9771 41.7555C76.6549 42.9299 77.9388 49.8076 78.8644 52.5842C79.142 51.1959 79.2346 50.0852 79.4197 49.2523C80.9746 50.3629 81.5485 61.0076 81.6412 66.1911C91.3592 60.0809 87.7496 77.0184 77.7539 77.0198Z" fill="#FFDAC6"/>
<path d="M81.6412 66.1905C91.3592 60.0804 87.7496 77.0178 77.7539 77.0192C74.422 87.237 64.704 89.5138 59.4285 89.5138H58.4751C53.1996 89.5138 43.4815 87.237 40.1496 77.0192C30.1539 77.0178 26.5443 60.0804 36.2624 66.1905L37.4932 67.0219" stroke="black" stroke-width="0.555317" stroke-linecap="round"/>
<path d="M53.3193 73.4082C55.0778 75.3518 59.761 78.0729 64.4257 73.4082" stroke="black" stroke-width="0.555317" stroke-linecap="round"/>
<circle cx="46.9338" cy="60.9124" r="1.94361" fill="black"/>
<circle cx="70.8118" cy="60.9124" r="1.94361" fill="black"/>
<path d="M59.433 58.1367C61.7468 61.8388 65.0972 69.1875 59.9883 68.9654C59.0395 68.9654 58.0742 68.9475 57.5801 68.6877" stroke="black" stroke-width="0.555317" stroke-linecap="round"/>
<path d="M42.0345 54.085C42.12 54.9968 43.7728 54.3503 44.5886 53.913C45.2849 53.6447 47.1335 53.0654 48.9572 52.8943C50.2304 52.7749 50.775 52.526 50.966 52.3196C51.0762 52.2007 50.9597 52.0523 50.8081 51.995C46.6404 50.4193 41.9295 52.9665 42.0345 54.085Z" fill="black" stroke="black" stroke-width="0.555317"/>
<path d="M76.8208 54.8222C76.6981 55.7298 75.073 55.0164 74.2758 54.5462C73.591 54.2498 71.7675 53.5956 69.9523 53.3503C68.685 53.179 68.1511 52.9082 67.9686 52.6942C67.8634 52.5709 67.9858 52.4273 68.1396 52.3762C72.3681 50.9717 76.9712 53.7089 76.8208 54.8222Z" fill="black" stroke="black" stroke-width="0.555317"/>
<path d="M84.1387 69.2068C83.1206 68.9291 81.0844 71.4361 80.5291 73.4616" stroke="black" stroke-width="0.555317" stroke-linecap="round"/>
<path d="M33.8838 69.2068C34.9019 68.9291 36.938 71.4361 37.4934 73.4616" stroke="black" stroke-width="0.555317" stroke-linecap="round"/>
</g>
</svg>
