<svg width="116" height="116" viewBox="0 0 116 116" fill="none" xmlns="http://www.w3.org/2000/svg">
<mask id="mask0_5077_408" style="mask-type:luminance" maskUnits="userSpaceOnUse" x="0" y="0" width="116" height="116">
<path d="M115.5 0.574219H0.5V115.574H115.5V0.574219Z" fill="white"/>
</mask>
<g mask="url(#mask0_5077_408)">
<mask id="mask1_5077_408" style="mask-type:alpha" maskUnits="userSpaceOnUse" x="0" y="0" width="116" height="116">
<path d="M58 115.574C89.7564 115.574 115.5 89.8306 115.5 58.0742C115.5 26.3178 89.7564 0.574219 58 0.574219C26.2436 0.574219 0.5 26.3178 0.5 58.0742C0.5 89.8306 26.2436 115.574 58 115.574Z" fill="#D9D9D9"/>
</mask>
<g mask="url(#mask1_5077_408)">
<path d="M48.8588 93.738C48.8588 93.738 48.3802 94.4342 47.6259 95.0489C47.0016 95.5576 46.301 96.0842 45.5147 96.6339C45.3512 96.7482 45.1764 96.8452 44.9941 96.9264C44.6722 97.0697 44.3565 97.2131 44.047 97.3567C42.3425 98.1474 40.8233 98.942 39.4684 99.7319C36.1907 101.643 33.8748 103.525 32.2238 105.259C29.1426 108.494 28.3775 111.208 28 112.61H88.293C87.8889 111.109 87.0405 108.104 83.3821 104.567C81.7919 103.029 79.6709 101.391 76.8246 99.7319C75.4697 98.942 73.9505 98.1474 72.246 97.3567C71.9365 97.2131 71.6208 97.0697 71.2989 96.9264C71.1166 96.8452 70.9418 96.7482 70.7782 96.6339C70.3603 96.3417 69.9666 96.056 69.5957 95.7761C69.2688 95.5294 68.9596 95.2872 68.6671 95.0489C68.4726 94.8904 68.2573 94.729 68.0414 94.568L67.9981 94.5357C67.6326 94.2632 67.2691 93.9922 67.0053 93.738C62.7072 89.5975 63.6531 86.4798 63.4148 81H52.8782C52.6399 86.4798 53.1569 89.5975 48.8588 93.738Z" fill="#FFDAC6"/>
<path d="M45.5147 96.6339C46.301 96.0842 47.0016 95.5576 47.6259 95.0489C48.3802 94.4342 48.8588 93.738 48.8588 93.738C53.1569 89.5975 52.6399 86.4798 52.8782 81H63.4148C63.6531 86.4798 62.7072 89.5975 67.0053 93.738C67.2691 93.9922 67.6326 94.2632 67.9981 94.5357C68.0125 94.5464 68.027 94.5572 68.0414 94.568C68.2573 94.729 68.4726 94.8904 68.6671 95.0489C68.9596 95.2872 69.2688 95.5294 69.5957 95.7761C69.9666 96.056 70.3603 96.3417 70.7782 96.6339M45.5147 96.6339C45.3512 96.7482 45.1764 96.8452 44.9941 96.9264ZM45.5147 96.6339C45.3512 96.7482 45.1764 96.8452 44.9941 96.9264ZM70.7782 96.6339C70.9418 96.7482 71.1166 96.8452 71.2989 96.9264ZM70.7782 96.6339C70.9418 96.7482 71.1166 96.8452 71.2989 96.9264ZM71.2989 96.9264C71.6208 97.0697 71.9365 97.2131 72.246 97.3567C73.9505 98.1474 75.4697 98.942 76.8246 99.7319C79.6709 101.391 81.7919 103.029 83.3821 104.567C87.0405 108.104 87.8889 111.109 88.293 112.61H28C28.3775 111.208 29.1426 108.494 32.2238 105.259C33.8748 103.525 36.1907 101.643 39.4684 99.7319C40.8233 98.942 42.3425 98.1474 44.047 97.3567C44.3565 97.2131 44.6722 97.0697 44.9941 96.9264" stroke="black" stroke-width="0.58537" stroke-linecap="round"/>
<path d="M48.8588 93.7383C48.8588 93.7383 48.3802 94.4344 47.6259 95.0491C47.0016 95.5578 46.301 96.0845 45.5147 96.6342C45.3512 96.7485 45.1764 96.8455 44.9941 96.9266C44.6722 97.0699 44.3565 97.2134 44.047 97.357C42.3425 98.1477 40.8233 98.9423 39.4684 99.7319C36.1907 101.643 33.8748 103.526 32.2238 105.259C29.1426 108.494 28.3775 113.508 28 114.91H88.293C87.8889 113.409 87.0405 108.105 83.3821 104.567C81.7919 103.03 79.6709 101.391 76.8246 99.7319C75.4697 98.9423 73.9505 98.1477 72.246 97.357C71.9365 97.2134 71.6208 97.0699 71.2989 96.9266C71.1166 96.8455 70.9418 96.7485 70.7782 96.6341C70.3603 96.342 69.9666 96.0563 69.5957 95.7764C69.2688 95.5297 68.9596 95.2874 68.6671 95.0491C68.4726 94.8906 68.2573 94.7293 68.0414 94.5682L67.9981 94.536C67.6326 94.2635 67.2691 93.9924 67.0053 93.7383L61.5416 95.9255L57.4345 96.6101L55.3809 95.9255H53.3273L51.9583 95.241L50.6568 95.0491L49.9047 94.5565L48.8588 93.7383Z" fill="#187CA3"/>
<path fill-rule="evenodd" clip-rule="evenodd" d="M68.667 95.0488C60.8684 100.059 52.3352 99.1107 47.6258 95.0488C47.0015 95.5575 46.3009 96.0841 45.5146 96.6338C45.3511 96.7481 45.1763 96.8451 44.994 96.9263C44.6721 97.0696 44.3564 97.213 44.0469 97.3566V116.06H72.2459V97.3566C71.9364 97.213 71.6207 97.0696 71.2988 96.9263C71.1165 96.8451 70.9417 96.7481 70.7781 96.6338C70.3602 96.3416 69.9665 96.0559 69.5956 95.776C69.2687 95.5293 68.9595 95.2871 68.667 95.0488Z" fill="#EAEAEF"/>
<path d="M52.8782 81C52.6399 86.4798 53.1569 89.5975 48.8588 93.738M48.8588 93.738C48.8588 93.738 48.3802 94.4342 47.6259 95.0489M48.8588 93.738C52.6637 96.7701 60.654 97.4957 67.0053 93.738M47.6259 95.0489C52.3353 99.1108 60.8685 100.059 68.6671 95.0489M47.6259 95.0489C47.0016 95.5576 46.301 96.0842 45.5147 96.6339C45.3512 96.7482 45.1764 96.8452 44.9941 96.9264C44.6722 97.0697 44.3565 97.2131 44.047 97.3567C42.3425 98.1474 40.8233 98.942 39.4684 99.7319C36.1907 101.643 33.8748 103.525 32.2238 105.259C29.1426 108.494 28.3775 111.208 28 112.61L32.2238 116.06H35.585H44.047H72.246H81.0953H83.3821L88.293 112.61C87.8889 111.109 87.0405 108.104 83.3821 104.567C81.7919 103.029 79.6709 101.391 76.8246 99.7319C75.4697 98.942 73.9505 98.1474 72.246 97.3567C71.9365 97.2131 71.6208 97.0697 71.2989 96.9264C71.1166 96.8452 70.9418 96.7482 70.7782 96.6339C70.3603 96.3417 69.9666 96.056 69.5957 95.7761C69.2688 95.5294 68.9596 95.2872 68.6671 95.0489M68.6671 95.0489C68.4726 94.8904 68.2573 94.729 68.0414 94.568M67.0053 93.738C62.7072 89.5975 63.6531 86.4798 63.4148 81M67.0053 93.738C67.2691 93.9922 67.6326 94.2632 67.9981 94.5357M68.0414 94.568C68.027 94.5572 68.0125 94.5464 67.9981 94.5357M68.0414 94.568L67.9981 94.5357" stroke="black" stroke-width="0.58537" stroke-linecap="round"/>
<path d="M57.5603 18C92.5845 18 86.2096 58.2045 81.0515 62.9916L33.9874 62.913C28.8451 57.7817 22.7208 18 57.5603 18Z" fill="#253B5A"/>
<path d="M34.0691 62.9916C34.0419 62.9664 34.0147 62.9402 33.9874 62.913M33.9874 62.913C28.8451 57.7817 22.7208 18 57.5603 18C92.5845 18 86.2096 58.2045 81.0515 62.9916L33.9874 62.913Z" stroke="black" stroke-width="0.796312"/>
<path d="M39.0075 72.791C44.741 83.9393 53.353 84.8571 57.7326 84.8571C62.9087 84.8571 71.1107 83.9393 76.8441 72.791C85.9936 73.583 87.5825 55.6634 78.4368 63.2353C78.0451 57.2661 79.1173 31.8148 71.2339 34.0575C70.4271 34.287 69.658 34.6785 68.8441 34.8816C66.1043 35.5656 61.459 36.5173 57.9258 36.5514C54.3926 36.5173 49.7473 35.5656 47.0074 34.8816C46.1936 34.6785 45.4245 34.287 44.6176 34.0575C36.7343 31.8148 37.8065 57.2661 37.4148 63.2353C28.2691 55.6634 29.858 73.583 39.0075 72.791Z" fill="#FFDAC6"/>
<path d="M58.119 36.5523C54.5635 36.5523 49.7975 35.5781 47.0074 34.8816C46.1936 34.6785 45.4245 34.287 44.6176 34.0575C36.7343 31.8148 37.8065 57.2661 37.4148 63.2353C28.2691 55.6634 29.858 73.583 39.0075 72.791C44.741 83.9393 53.353 84.8571 57.7326 84.8571C62.9087 84.8571 71.1107 83.9393 76.8441 72.791C85.9936 73.583 87.5825 55.6634 78.4368 63.2353C78.0451 57.2661 79.1173 31.8148 71.2339 34.0575C70.4271 34.287 69.658 34.6785 68.8441 34.8816C66.0541 35.5781 61.2881 36.5523 57.7326 36.5523" stroke="black" stroke-width="0.796312" stroke-linecap="round"/>
<path d="M78.8096 68.9274L81.1985 65.7422" stroke="black" stroke-width="1.19447" stroke-linecap="round"/>
<path d="M37.0256 68.9274L34.6367 65.7422" stroke="black" stroke-width="1.19447" stroke-linecap="round"/>
<path d="M46.0289 59.3995C47.1284 59.3995 48.0197 58.5082 48.0197 57.4088C48.0197 56.3093 47.1284 55.418 46.0289 55.418C44.9294 55.418 44.0381 56.3093 44.0381 57.4088C44.0381 58.5082 44.9294 59.3995 46.0289 59.3995Z" fill="black"/>
<path d="M69.1158 59.3995C70.2153 59.3995 71.1066 58.5082 71.1066 57.4088C71.1066 56.3093 70.2153 55.418 69.1158 55.418C68.0163 55.418 67.125 56.3093 67.125 57.4088C67.125 58.5082 68.0163 59.3995 69.1158 59.3995Z" fill="black"/>
<path d="M57.1738 50.6387V59C59.5628 60.9908 63.1462 65.3705 58.3683 65.3705" stroke="black" stroke-width="0.796312" stroke-linecap="round"/>
<path d="M62.3406 69.7559C61.0134 71.4812 57.1646 73.8967 52.3867 69.7559" stroke="black" stroke-width="0.796312" stroke-linecap="round"/>
<path d="M65.542 46.3706C67.1346 45.707 70.8773 45.1761 73.107 48.3613" stroke="black" stroke-width="1.19447" stroke-linecap="round"/>
<path d="M49.2056 46.3706C47.613 45.707 43.8703 45.1761 41.6406 48.3613" stroke="black" stroke-width="1.19447" stroke-linecap="round"/>
</g>
</g>
</svg>
