<svg width="116" height="116" viewBox="0 0 116 116" fill="none" xmlns="http://www.w3.org/2000/svg">
<g clip-path="url(#clip0_4976_570)">
<mask id="mask0_4976_570" style="mask-type:alpha" maskUnits="userSpaceOnUse" x="0" y="0" width="116" height="116">
<circle cx="58" cy="57.9258" r="57.5" fill="#D9D9D9"/>
</mask>
<g mask="url(#mask0_4976_570)">
<path d="M58.1865 115.42H79.1057V107.355C79.1057 106.676 78.5548 106.125 77.8752 106.125H37.8825L36.3443 115.42H58.1865Z" fill="#FFD5BE"/>
<path d="M81.6154 100.587C79.7036 99.1012 77.4411 97.7995 74.7988 96.8955C71.0664 95.6186 68.5165 93.4499 66.8128 91.0504H49.5602C47.8565 93.4499 45.3066 95.6186 41.5742 96.8955C39.4987 97.6055 37.6576 98.561 36.0367 99.6583L41.5742 102.125C49.8803 106.125 79.4134 105.509 81.6154 100.587Z" fill="#FFD5BE"/>
<path d="M63.7239 80.8984H58.1865H52.6491C52.7723 83.3016 52.1254 87.4376 49.5602 91.0504H66.8128C64.2476 87.4376 63.6007 83.3016 63.7239 80.8984Z" fill="#FFD5BE"/>
<path d="M90.1992 115.42C89.3899 112.771 86.4702 104.36 81.6154 100.587C79.4134 105.509 49.8803 106.125 41.5742 102.125L36.0367 99.6583C30.3537 103.506 27.3777 112.547 26.5 115.42H36.3443L37.8825 106.125H77.8752C78.5548 106.125 79.1057 106.676 79.1057 107.355V115.42H90.1992Z" fill="#FFD5BE"/>
<path d="M81.6154 100.587C86.4702 104.36 89.3899 112.771 90.1992 115.42H79.1057M81.6154 100.587C79.7036 99.1012 77.4411 97.7995 74.7988 96.8955C71.0664 95.6186 68.5165 93.4499 66.8128 91.0504M81.6154 100.587C79.4134 105.509 49.8803 106.125 41.5742 102.125L36.0367 99.6583M36.0367 99.6583C30.3537 103.506 27.3777 112.547 26.5 115.42H36.3443M36.0367 99.6583C37.6576 98.561 39.4987 97.6055 41.5742 96.8955C45.3066 95.6186 47.8565 93.4499 49.5602 91.0504M49.5602 91.0504C52.1254 87.4376 52.7723 83.3016 52.6491 80.8984H58.1865H63.7239C63.6007 83.3016 64.2476 87.4376 66.8128 91.0504M49.5602 91.0504H66.8128M79.1057 115.42H58.1865H36.3443M79.1057 115.42V107.355C79.1057 106.676 78.5548 106.125 77.8752 106.125H37.8825L36.3443 115.42" stroke="black" stroke-width="0.615272"/>
<path d="M58.1865 115.425H79.1057L79.1029 107.355C79.1027 106.675 78.5518 106.125 77.8724 106.125H37.8793L36.3443 115.425H58.1865Z" fill="#D9D9D9"/>
<path d="M81.6122 100.587C86.467 104.36 89.0637 112.777 89.873 115.425H79.1057M81.6122 100.587C79.7004 99.1012 77.4379 97.7995 74.7956 96.8955C71.0631 95.6186 68.5133 93.4499 66.8095 91.0504M81.6122 100.587C79.4101 105.509 49.8771 106.125 41.5709 102.125L36.0335 99.6583M36.0335 99.6583C30.3504 103.506 27.3777 112.553 26.5 115.425H36.3443M36.0335 99.6583C37.6544 98.561 39.4955 97.6055 41.5709 96.8955C45.3033 95.6186 47.8532 93.4499 49.5569 91.0504M49.5569 91.0504C52.1221 87.4376 52.769 83.3016 52.6458 80.8984H58.1832H63.7207C63.5974 83.3016 64.2444 87.4376 66.8095 91.0504M49.5569 91.0504H66.8095M79.1057 115.425H58.1865H36.3443M79.1057 115.425L79.1029 107.355C79.1027 106.675 78.5518 106.125 77.8724 106.125H37.8793L36.3443 115.425" stroke="black" stroke-width="0.615272"/>
<path d="M90.1969 115.425C89.3876 112.777 86.4679 104.36 81.6131 100.587C79.411 105.509 49.878 106.125 41.5718 102.125L36.0344 99.6583C30.3514 103.506 26.6745 112.553 25.7969 115.425H36.342L37.8802 106.125H77.8729C78.5525 106.125 79.1034 106.676 79.1034 107.355V115.425H90.1969Z" fill="#929292"/>
<path d="M81.6131 100.587C86.4679 104.36 89.3876 112.777 90.1969 115.425H79.1034M81.6131 100.587C79.7013 99.1012 77.4388 97.7995 74.7965 96.8955C71.0641 95.6186 68.5142 93.4499 66.8105 91.0504M81.6131 100.587C79.411 105.509 49.878 106.125 41.5718 102.125L36.0344 99.6583M36.0344 99.6583C30.3514 103.506 26.6745 112.553 25.7969 115.425H36.342M36.0344 99.6583C37.6553 98.561 39.4964 97.6055 41.5718 96.8955C45.3042 95.6186 47.8541 93.4499 49.5578 91.0504M49.5578 91.0504C52.123 87.4376 52.7699 83.3016 52.6467 80.8984H58.1842H63.7216C63.5984 83.3016 64.2453 87.4376 66.8105 91.0504M49.5578 91.0504H66.8105M79.1034 115.425H58.1842H36.342M79.1034 115.425V107.355C79.1034 106.676 78.5525 106.125 77.8729 106.125H37.8802L36.342 115.425" stroke="black" stroke-width="0.615272"/>
<path fill-rule="evenodd" clip-rule="evenodd" d="M76.3411 97.4836L76.5962 106.69C76.625 107.729 75.7905 108.587 74.7511 108.587H73.5724C72.553 108.587 71.7266 107.761 71.7266 106.741V95.5078C72.6528 96.0429 73.6691 96.5083 74.8048 96.8968C75.3403 97.08 75.8366 97.2695 76.3411 97.4836ZM74.1876 106.741C74.6974 106.741 75.1106 106.328 75.1106 105.818C75.1106 105.309 74.6974 104.895 74.1876 104.895C73.6779 104.895 73.2647 105.309 73.2647 105.818C73.2647 106.328 73.6779 106.741 74.1876 106.741Z" fill="#929292"/>
<path d="M75.1106 105.818C75.1106 106.328 74.6974 106.741 74.1876 106.741C73.6779 106.741 73.2647 106.328 73.2647 105.818C73.2647 105.309 73.6779 104.895 74.1876 104.895C74.6974 104.895 75.1106 105.309 75.1106 105.818Z" fill="#929292"/>
<path fill-rule="evenodd" clip-rule="evenodd" d="M76.3411 97.4836L76.5962 106.69C76.625 107.729 75.7905 108.587 74.7511 108.587H73.5724C72.553 108.587 71.7266 107.761 71.7266 106.741V95.5078C72.6528 96.0429 73.6691 96.5083 74.8048 96.8968C75.3403 97.08 75.8366 97.2695 76.3411 97.4836ZM74.1876 106.741C74.6974 106.741 75.1106 106.328 75.1106 105.818C75.1106 105.309 74.6974 104.895 74.1876 104.895C73.6779 104.895 73.2647 105.309 73.2647 105.818C73.2647 106.328 73.6779 106.741 74.1876 106.741Z" stroke="black" stroke-width="0.615272"/>
<path d="M75.1106 105.818C75.1106 106.328 74.6974 106.741 74.1876 106.741C73.6779 106.741 73.2647 106.328 73.2647 105.818C73.2647 105.309 73.6779 104.895 74.1876 104.895C74.6974 104.895 75.1106 105.309 75.1106 105.818Z" stroke="black" stroke-width="0.615272"/>
<path fill-rule="evenodd" clip-rule="evenodd" d="M45.2708 97.4836L45.5259 106.69C45.5547 107.729 44.7202 108.587 43.6808 108.587H42.5021C41.4826 108.587 40.6562 107.761 40.6562 106.741V95.5078C41.5825 96.0429 42.5988 96.5083 43.7345 96.8968C44.2699 97.08 44.7663 97.2695 45.2708 97.4836ZM43.1173 106.741C43.627 106.741 44.0402 106.328 44.0402 105.818C44.0402 105.309 43.627 104.895 43.1173 104.895C42.6076 104.895 42.1944 105.309 42.1944 105.818C42.1944 106.328 42.6076 106.741 43.1173 106.741Z" fill="#929292"/>
<path d="M44.0402 105.818C44.0402 106.328 43.627 106.741 43.1173 106.741C42.6076 106.741 42.1944 106.328 42.1944 105.818C42.1944 105.309 42.6076 104.895 43.1173 104.895C43.627 104.895 44.0402 105.309 44.0402 105.818Z" fill="#929292"/>
<path fill-rule="evenodd" clip-rule="evenodd" d="M45.2708 97.4836L45.5259 106.69C45.5547 107.729 44.7202 108.587 43.6808 108.587H42.5021C41.4826 108.587 40.6562 107.761 40.6562 106.741V95.5078C41.5825 96.0429 42.5988 96.5083 43.7345 96.8968C44.2699 97.08 44.7663 97.2695 45.2708 97.4836ZM43.1173 106.741C43.627 106.741 44.0402 106.328 44.0402 105.818C44.0402 105.309 43.627 104.895 43.1173 104.895C42.6076 104.895 42.1944 105.309 42.1944 105.818C42.1944 106.328 42.6076 106.741 43.1173 106.741Z" stroke="black" stroke-width="0.615272"/>
<path d="M44.0402 105.818C44.0402 106.328 43.627 106.741 43.1173 106.741C42.6076 106.741 42.1944 106.328 42.1944 105.818C42.1944 105.309 42.6076 104.895 43.1173 104.895C43.627 104.895 44.0402 105.309 44.0402 105.818Z" stroke="black" stroke-width="0.615272"/>
<path d="M88.5838 54.4447C88.5838 67.2128 78.5807 73.8974 73.5445 75.6595C73.5208 75.6678 73.4977 75.6698 73.4729 75.666C65.4809 74.4356 49.1407 72.9062 47.4205 76.5921C45.6978 80.2838 46.2926 84.4881 46.8053 86.1289C49.4924 98.0987 42.9051 106.815 39.1971 109.752C39.1462 109.792 39.0752 109.792 39.0205 109.757C26.4854 101.734 32.228 91.6746 36.8089 87.4963C36.8853 87.4266 36.8671 87.3022 36.7794 87.2476C27.064 81.2041 31.4203 74.1092 34.9632 71.1765C35.0398 71.113 35.0362 70.9954 34.9583 70.9335C25.2868 63.2459 26.5073 45.9096 28.3417 38.1508C28.3438 38.1417 28.345 38.1327 28.3455 38.1234C29.3373 19.1854 45.5758 15.3739 59.3583 15.375C89.7916 16.5494 88.5838 38.4477 88.5838 54.4447Z" fill="#614270"/>
<circle cx="58.1788" cy="92.8976" r="1.53818" fill="black"/>
<path d="M58.802 82.4393C67.6619 82.4393 74.4914 75.6713 77.2601 69.8262C80.9517 69.8262 88.2119 64.5964 85.2586 58.4436C82.4899 55.9815 79.1059 60.9037 79.1059 60.9037C79.1059 60.9037 83.4128 54.751 80.6441 46.4448C74.2863 42.6506 61.0169 32.6627 58.802 23.0645L58.4919 22.4492L57.9511 23.0645C55.7362 32.6627 42.4668 42.6506 36.109 46.4448C33.3812 54.6284 37.5216 60.7216 37.6444 60.8997C37.535 60.7424 34.2172 56.0224 31.4945 58.4436C28.5412 64.5964 35.8014 69.8262 39.493 69.8262C42.2617 75.6713 49.0912 82.4393 57.9511 82.4393H58.802Z" fill="#FFD5BE"/>
<path d="M37.6444 60.8997C37.535 60.7424 34.2172 56.0224 31.4945 58.4436C28.5412 64.5964 35.8014 69.8262 39.493 69.8262C42.2617 75.6713 49.0912 82.4392 57.9511 82.4392H58.802C67.6619 82.4392 74.4914 75.6713 77.2601 69.8262C80.9517 69.8262 88.2119 64.5964 85.2586 58.4436C82.4899 55.9815 79.1059 60.9037 79.1059 60.9037C79.1059 60.9037 83.4128 54.751 80.6441 46.4448C74.2863 42.6506 61.0169 32.6627 58.802 23.0645L58.4919 22.4492L57.9511 23.0645C55.7362 32.6627 42.4668 42.6506 36.109 46.4448C33.3812 54.6284 37.5216 60.7216 37.6444 60.8997ZM37.6444 60.8997C37.6462 60.9024 37.6472 60.9037 37.6472 60.9037" stroke="black" stroke-width="0.615272"/>
<path d="M82.4982 61.8242C81.4728 62.7471 79.4219 65.0236 79.4219 66.7464" stroke="black" stroke-width="0.615272" stroke-linecap="round"/>
<path d="M33.8846 61.8242C34.91 62.7471 36.9609 65.0236 36.9609 66.7464" stroke="black" stroke-width="0.615272" stroke-linecap="round"/>
<path d="M63.4235 66.4375H52.6562C53.169 67.1553 54.9943 68.591 58.1937 68.591C61.3931 68.591 63.0133 67.1553 63.4235 66.4375Z" fill="black" stroke="black" stroke-width="0.615272" stroke-linecap="round"/>
<path d="M56.9609 53.8281V56.2892C60.0373 56.2892 63.6674 59.2425 58.4991 62.4419" stroke="black" stroke-width="0.615272" stroke-linecap="round"/>
<circle cx="69.8722" cy="54.1339" r="2.15345" fill="black"/>
<circle cx="46.4972" cy="54.1339" r="2.15345" fill="black"/>
<path d="M67.4352 47.0923C70.4805 46.9835 72.8567 48.1229 74.1335 49.0585C74.2726 49.1604 74.4741 48.9977 74.3811 48.8526C72.557 46.0078 69.3799 46.1713 67.3713 46.8215C67.2055 46.8751 67.2612 47.0985 67.4352 47.0923Z" fill="black" stroke="black" stroke-width="0.615272" stroke-linecap="round"/>
<path d="M48.6351 47.0923C45.5898 46.9835 43.2136 48.1229 41.9368 49.0585C41.7978 49.1604 41.5962 48.9977 41.6892 48.8526C43.5133 46.0078 46.6904 46.1713 48.6991 46.8215C48.8648 46.8751 48.8091 47.0985 48.6351 47.0923Z" fill="black" stroke="black" stroke-width="0.615272" stroke-linecap="round"/>
</g>
</g>
<defs>
<clipPath id="clip0_4976_570">
<rect width="115" height="115" fill="white" transform="translate(0.5 0.425781)"/>
</clipPath>
</defs>
</svg>
