<svg width="116" height="116" viewBox="0 0 116 116" fill="none" xmlns="http://www.w3.org/2000/svg">
<g clip-path="url(#clip0_5091_388)">
<mask id="mask0_5091_388" style="mask-type:alpha" maskUnits="userSpaceOnUse" x="3" y="7" width="110" height="110">
<path d="M57.7129 116.426C87.93 116.426 112.426 91.93 112.426 61.7129C112.426 31.4958 87.93 7 57.7129 7C27.4958 7 3 31.4958 3 61.7129C3 91.93 27.4958 116.426 57.7129 116.426Z" fill="#D9D9D9"/>
</mask>
<g mask="url(#mask0_5091_388)">
<path d="M43.0745 22.9456C22.6024 30.8936 27.7204 54.9583 32.8384 65.9972H81.309C92.6289 33.001 78.5995 25.6551 68.6645 22.3435L70.7899 17.6023C71.1911 16.7072 70.0785 15.9042 69.3554 16.567L65.3529 20.236C65.1571 18.8654 65.3944 17.4679 66.0317 16.2388L67.2978 13.7971C67.855 12.7225 66.6471 11.5945 65.6131 12.2239C63.4623 13.5331 61.6473 15.3268 60.3129 17.4619L59.3317 19.0318L59.624 15.9623C59.6973 15.1921 58.5219 14.7652 58.0067 15.3424C53.4682 20.4264 46.2808 22.5989 43.0745 22.9456Z" fill="black"/>
<path d="M77.3901 107.456C85.0301 108.678 91.0147 118.661 93.0521 123.5H22C24.0373 118.661 30.022 108.678 37.662 107.456C47.212 105.928 51.032 97.906 51.032 89.502H64.02C64.02 97.906 67.84 105.928 77.3901 107.456Z" fill="#FFDAC6" stroke="black" stroke-width="0.764001"/>
<path d="M77.3901 107.455C85.0301 108.678 91.0147 118.661 93.0521 123.499H22C24.0373 118.661 30.022 108.678 37.662 107.455C41.6983 106.81 44.711 105.004 46.8443 102.499L50.5 104.499L60.5 104.999L67.5 101.6C69.6553 104.569 72.8852 106.735 77.3901 107.455Z" fill="#9F9F9F" stroke="black" stroke-width="0.764001"/>
<mask id="mask1_5091_388" style="mask-type:alpha" maskUnits="userSpaceOnUse" x="22" y="89" width="72" height="35">
<path d="M77.3901 107.456C85.0301 108.678 91.0147 118.661 93.0521 123.5H22C24.0373 118.661 30.022 108.678 37.662 107.456C47.212 105.928 51.032 97.906 51.032 89.502H64.02C64.02 97.906 67.8401 105.928 77.3901 107.456Z" fill="#F5F5F5"/>
</mask>
<g mask="url(#mask1_5091_388)">
<path d="M93.0497 118.683H19.29M23.8059 114.167H97.2646M88.5338 109.049H22.6017" stroke="#3B3B3B" stroke-width="1.20424"/>
<path d="M56.3712 104.534C61.0542 104.534 65.2473 102.664 68.0621 99.7168L68.6642 101.824C65.8494 104.772 61.0542 106.942 56.3712 106.942C51.9586 106.942 47.0778 104.783 44.2783 102.125L45.1815 100.216C47.9809 102.874 51.9586 104.534 56.3712 104.534Z" fill="#777777" stroke="black" stroke-width="0.60212"/>
</g>
<path d="M79.2092 77.5033C74.014 88.5049 62.7831 91.0006 57.8171 90.8733C52.8511 91.0006 41.6207 88.5053 36.4255 77.5036C33.8788 77.3763 28.0215 75.391 28.0215 68.3356C28.0215 62.224 30.6955 62.9876 32.9873 64.8976C32.2329 57.4751 31.6342 50.0417 34.6448 47.6332C37.6554 45.2247 37.9565 44.9236 38.5586 37.6982C39.1607 30.4728 43.9777 31.677 47.5904 33.4834C51.2031 35.2897 60.536 35.5897 68.0625 32.2781C74.0837 29.6287 75.7897 36.1918 75.89 39.8046C75.89 41.912 76.4921 46.5483 78.9006 48.2342C81.3091 49.9202 81.8925 60.5547 81.8832 65.6613C84.0478 63.6239 87.6132 62.2236 87.6132 68.3353C87.6132 75.3906 81.7558 77.3759 79.2092 77.5033Z" fill="#FFDAC6" stroke="black" stroke-width="0.764001"/>
<path d="M30.7852 68.5117C31.4218 68.5117 33.0008 69.4285 34.2232 73.0957" stroke="black" stroke-width="0.764001" stroke-linecap="round"/>
<path d="M84.2656 68.5117C83.629 68.5117 82.05 69.4285 80.8276 73.0957" stroke="black" stroke-width="0.764001" stroke-linecap="round"/>
<path d="M63.2559 73.4785C60.8366 75.1339 55.1575 77.4513 51.7959 73.4785" stroke="black" stroke-width="0.764001" stroke-linecap="round"/>
<circle cx="44.919" cy="59.3447" r="2.292" fill="black"/>
<circle cx="70.1309" cy="59.3447" r="2.292" fill="black"/>
<path d="M40.3891 48.7838C42.3811 47.8673 45.7143 46.8725 48.0635 46.2482C48.4131 46.1553 48.4455 45.6819 48.1058 45.5578C43.4208 43.8463 40.7552 45.9127 39.5224 48.0506C39.3142 48.4116 40.0105 48.958 40.3891 48.7838Z" fill="black"/>
<path d="M75.0435 48.7838C73.0515 47.8673 69.7183 46.8725 67.3691 46.2482C67.0195 46.1553 66.9871 45.6819 67.3269 45.5578C72.0119 43.8463 74.6774 45.9127 75.9102 48.0506C76.1184 48.4116 75.4221 48.958 75.0435 48.7838Z" fill="black"/>
<path d="M56.7607 55.5234C59.9441 60.4894 64.4008 69.8103 56.7607 67.3655" stroke="black" stroke-width="0.764001" stroke-linecap="round"/>
</g>
</g>
<defs>
<clipPath id="clip0_5091_388">
<rect width="116" height="116" fill="white"/>
</clipPath>
</defs>
</svg>
