<svg width="116" height="116" viewBox="0 0 116 116" fill="none" xmlns="http://www.w3.org/2000/svg">
<g clip-path="url(#clip0_5107_375)">
<mask id="mask0_5107_375" style="mask-type:luminance" maskUnits="userSpaceOnUse" x="0" y="0" width="116" height="116">
<path d="M116 0H0V116H116V0Z" fill="white"/>
</mask>
<g mask="url(#mask0_5107_375)">
<mask id="mask1_5107_375" style="mask-type:alpha" maskUnits="userSpaceOnUse" x="0" y="0" width="116" height="116">
<path d="M58 116C90.0325 116 116 90.0325 116 58C116 25.9675 90.0325 0 58 0C25.9675 0 0 25.9675 0 58C0 90.0325 25.9675 116 58 116Z" fill="#D9D9D9"/>
</mask>
<g mask="url(#mask1_5107_375)">
<path d="M72.8094 94.0068C68.3976 98.143 62.4011 97.5915 61.0224 97.5915L51.9592 94.0068C42.2531 96.6532 37.253 91.2497 35.9662 88.2172C27.9697 87.6657 27.694 81.0479 27.4182 80.7721C27.1976 80.5515 26.7747 81.5994 26.5909 82.1508C22.179 77.5184 24.3849 71.5802 26.0394 69.1901C27.694 67.2602 29.6242 61.4702 29.3487 60.0915C28.769 57.1893 28.6134 46.3038 29.073 41.0643C29.7348 18.5637 53.614 14.5934 62.4377 20.3839C74.3498 19.2809 79.5558 27.645 81.6698 31.965C82.9566 36.9283 85.0693 43.9824 86.6995 49.4824C87.8749 53.448 88.5267 61.1936 87.148 65.054C86.4847 66.9112 86.586 70.8152 86.912 73.6526C87.1392 75.6302 87.6176 78.4889 86.8479 80.3246C86.0497 82.2285 84.9272 83.9609 84.5693 84.0802C81.9222 84.9625 82.3685 87.7567 82.4604 89.0435C82.2398 94.3377 78.3243 96.5804 76.3941 97.04C77.2765 96.5988 76.9456 94.8341 76.6698 94.0068C75.7875 95.1098 72.0741 96.4885 70.3278 97.04C71.6513 96.5988 72.5337 94.8341 72.8094 94.0068Z" fill="black"/>
<path d="M47.2423 94.3488C47.2423 94.3488 46.7596 95.051 45.9987 95.6711C45.369 96.1842 44.6623 96.7154 43.8692 97.2698C43.7042 97.3851 43.5279 97.483 43.344 97.5649C43.0193 97.7094 42.7009 97.8541 42.3887 97.9989C40.6694 98.7965 39.137 99.598 37.7703 100.395C34.4641 102.322 32.128 104.221 30.4627 105.97C27.3547 109.233 26.5829 111.971 26.2021 113.385H87.0194C86.6118 111.871 85.7561 108.84 82.0658 105.272C80.4618 103.72 78.3224 102.068 75.4513 100.395C74.0846 99.598 72.5522 98.7965 70.8329 97.9989C70.5207 97.8541 70.2023 97.7094 69.8776 97.5649C69.6937 97.483 69.5174 97.3851 69.3523 97.2698C68.9308 96.9751 68.5337 96.6869 68.1596 96.4046C67.8298 96.1557 67.5179 95.9114 67.2229 95.6711C67.0267 95.5112 66.8095 95.3484 66.5917 95.186L66.5481 95.1534C66.1794 94.8785 65.8127 94.6052 65.5466 94.3488C61.2112 90.1723 62.1653 87.0275 61.9249 81.5H51.2967C51.0563 87.0275 51.5778 90.1723 47.2423 94.3488Z" fill="#FFDAC6"/>
<path d="M43.8691 97.2698C44.6623 96.7154 45.369 96.1842 45.9987 95.6711C46.7596 95.051 47.2423 94.3488 47.2423 94.3488C51.5778 90.1723 51.0563 87.0275 51.2967 81.5H61.9249C62.1653 87.0275 61.2112 90.1723 65.5466 94.3488C65.8127 94.6052 66.1794 94.8785 66.5481 95.1534C66.5626 95.1642 66.5772 95.1751 66.5917 95.186C66.8095 95.3484 67.0267 95.5112 67.2229 95.6711C67.5179 95.9114 67.8298 96.1557 68.1596 96.4046C68.5337 96.6869 68.9308 96.9751 69.3523 97.2698M43.8691 97.2698C43.7042 97.3851 43.5279 97.483 43.344 97.5649ZM43.8691 97.2698C43.7042 97.3851 43.5279 97.483 43.344 97.5649ZM69.3523 97.2698C69.5174 97.3851 69.6937 97.483 69.8776 97.5649ZM69.3523 97.2698C69.5174 97.3851 69.6937 97.483 69.8776 97.5649ZM69.8776 97.5649C70.2023 97.7094 70.5207 97.8541 70.8329 97.9989C72.5522 98.7965 74.0846 99.598 75.4513 100.395C78.3224 102.068 80.4618 103.72 82.0658 105.272C85.7561 108.84 86.6118 111.871 87.0194 113.385H26.2021C26.5829 111.971 27.3547 109.233 30.4627 105.97C32.128 104.221 34.4641 102.322 37.7703 100.395C39.137 99.598 40.6694 98.7965 42.3887 97.9989C42.7009 97.8541 43.0193 97.7094 43.344 97.5649" stroke="black" stroke-width="0.59046" stroke-linecap="round"/>
<path d="M47.2423 94.3477C47.2423 94.3477 46.7596 95.0498 45.9987 95.6699C45.369 96.183 44.6623 96.7143 43.8692 97.2687C43.7042 97.384 43.5279 97.4819 43.344 97.5637C43.0193 97.7082 42.7009 97.853 42.3887 97.9978C40.6694 98.7954 39.137 99.5969 37.7703 100.393C34.4641 102.321 32.128 104.22 30.4627 105.968C27.3547 109.232 26.5829 114.289 26.2021 115.703H87.0194C86.6118 114.189 85.7561 108.839 82.0658 105.27C80.4618 103.72 78.3224 102.067 75.4513 100.393C74.0846 99.5969 72.5522 98.7954 70.8329 97.9978C70.5207 97.853 70.2023 97.7082 69.8776 97.5637C69.6937 97.4819 69.5174 97.384 69.3523 97.2686C68.9308 96.974 68.5337 96.6858 68.1596 96.4035C67.8298 96.1546 67.5179 95.9102 67.2229 95.6699C67.0267 95.51 66.8095 95.3473 66.5917 95.1848L66.5481 95.1523C66.1794 94.8774 65.8127 94.604 65.5466 94.3477L60.0354 96.5539L55.8926 97.2444L53.8211 96.5539H51.7497L50.3688 95.8634L49.056 95.6699L48.2973 95.173L47.2423 94.3477Z" fill="black"/>
<path d="M47.2423 94.3488C47.2423 94.3488 46.7596 95.051 45.9987 95.6711C50.7491 99.7683 59.3565 100.725 67.2229 95.6711C67.0267 95.5112 66.8095 95.3484 66.5917 95.186L66.5481 95.1534C66.1794 94.8785 65.8127 94.6052 65.5466 94.3488C59.1401 98.1391 51.0803 97.4072 47.2423 94.3488Z" fill="#D9D9D9"/>
<path d="M51.2967 81.5C51.0563 87.0275 51.5778 90.1723 47.2423 94.3488M47.2423 94.3488C47.2423 94.3488 46.7596 95.051 45.9987 95.6711M47.2423 94.3488C51.0803 97.4072 59.1401 98.1391 65.5466 94.3488M45.9987 95.6711C50.7491 99.7683 59.3565 100.725 67.2229 95.6711M45.9987 95.6711C45.369 96.1842 44.6623 96.7154 43.8691 97.2698C43.7042 97.3851 43.5279 97.483 43.344 97.5649C43.0193 97.7094 42.7009 97.8541 42.3887 97.9989C40.6694 98.7965 39.137 99.598 37.7703 100.395C34.4641 102.322 32.128 104.221 30.4627 105.97C27.3547 109.233 26.5829 111.971 26.2021 113.385L30.4627 116.865H33.8531H42.3887H70.8329H79.7591H82.0658L87.0194 113.385C86.6118 111.871 85.7561 108.84 82.0658 105.272C80.4618 103.72 78.3224 102.068 75.4513 100.395C74.0846 99.598 72.5522 98.7965 70.8329 97.9989C70.5207 97.8541 70.2023 97.7094 69.8776 97.5649C69.6937 97.483 69.5174 97.3851 69.3523 97.2698C68.9308 96.9751 68.5337 96.6869 68.1596 96.4046C67.8298 96.1557 67.5179 95.9114 67.2229 95.6711M67.2229 95.6711C67.0267 95.5112 66.8095 95.3484 66.5917 95.186M65.5466 94.3488C61.2112 90.1723 62.1653 87.0275 61.9249 81.5M65.5466 94.3488C65.8127 94.6052 66.1794 94.8785 66.5481 95.1534M66.5917 95.186C66.5772 95.1751 66.5626 95.1642 66.5481 95.1534M66.5917 95.186L66.5481 95.1534M66.5481 95.1534C66.5481 95.1534 66.548 95.1534 66.5481 95.1534Z" stroke="black" stroke-width="0.59046" stroke-linecap="round"/>
<path d="M56.4121 84.2854C47.8504 83.9902 44.0124 82.5141 37.5173 72.7715C30.4892 72.2042 26.9395 62.0277 32.2065 61.2934C32.7805 61.2133 33.3589 61.3843 33.8836 61.6307L34.7581 62.0415C33.5259 48.5853 38.2128 38.7873 40.7103 35.5703C41.3721 43.2911 45.2141 45.7728 47.0524 46.0485C45.9494 43.8426 45.6737 39.7984 45.6737 38.052C49.6444 44.008 60.0122 46.9676 64.6999 47.7029C60.0674 44.394 58.174 38.9711 57.8063 36.6733C61.777 41.5263 64.1484 41.9124 71.5934 43.8426C77.5494 45.6073 78.7627 49.9089 77.4994 62.7446C81.8955 57.3539 88.5836 68.9395 75.0031 72.7715C72.3459 77.194 67.2833 84.7626 56.4121 84.2854Z" fill="#FFDAC6" stroke="black" stroke-width="0.59046" stroke-linecap="round"/>
<path d="M56.0973 58.457C55.7326 61.0104 55.8745 65.9341 59.3236 65.3651C59.3621 65.3588 59.3979 65.392 59.3892 65.4301C59.1732 66.3776 58.3028 68.2306 56.373 68.6595" stroke="black" stroke-width="0.551483" stroke-linecap="round"/>
<path d="M40.7926 52.878C42.983 51.1967 46.1741 50.5967 48.3375 50.2977C48.4932 50.2762 48.4943 50.0643 48.3385 50.0433C43.7005 49.4161 41.4037 51.273 40.6005 52.7322C40.5319 52.857 40.6796 52.9647 40.7926 52.878Z" fill="black"/>
<path d="M73.0574 52.878C70.8669 51.1967 67.6759 50.5967 65.5124 50.2977C65.3568 50.2762 65.3557 50.0643 65.5114 50.0433C70.1495 49.4161 72.4463 51.273 73.2494 52.7322C73.3181 52.857 73.1704 52.9647 73.0574 52.878Z" fill="black"/>
<path d="M67.8205 58.8871C68.9619 58.8871 69.8871 57.9619 69.8871 56.8205C69.8871 55.6792 68.9619 54.7539 67.8205 54.7539C66.6792 54.7539 65.7539 55.6792 65.7539 56.8205C65.7539 57.9619 66.6792 58.8871 67.8205 58.8871Z" fill="black"/>
<path d="M45.3772 58.8871C46.5185 58.8871 47.4438 57.9619 47.4438 56.8205C47.4438 55.6792 46.5185 54.7539 45.3772 54.7539C44.2358 54.7539 43.3105 55.6792 43.3105 56.8205C43.3105 57.9619 44.2358 58.8871 45.3772 58.8871Z" fill="black"/>
<path d="M61.6238 73.6367C60.3444 75.0145 56.5458 76.9433 51.5859 73.6367" stroke="black" stroke-width="0.59046" stroke-linecap="round"/>
<path d="M32.5381 65.0742C33.4238 65.6646 34.7228 66.2551 35.1952 68.617" stroke="black" stroke-width="0.59046" stroke-linecap="round"/>
<path d="M80.7111 65.0742C79.8254 65.6647 78.2312 66.8456 77.7588 69.2075" stroke="black" stroke-width="0.59046" stroke-linecap="round"/>
</g>
</g>
</g>
<defs>
<clipPath id="clip0_5107_375">
<rect width="116" height="116" fill="white"/>
</clipPath>
</defs>
</svg>
