<svg width="154" height="208" viewBox="0 0 154 208" fill="none" xmlns="http://www.w3.org/2000/svg">
<path d="M113.003 50.5964C109.803 74.9964 113.67 87.4297 116.003 90.5964L39.5 92.0957C41.1673 84.5957 44.0019 67.7957 42.0019 60.5957C40.0019 53.3957 40.5019 40.2624 41.0019 34.5957C42.0019 26.0959 47.9019 7.69636 63.5019 2.09636C79.1019 -3.50364 94.6686 3.42969 100.502 7.59636C106.002 11.763 116.203 26.1964 113.003 50.5964Z" fill="#606060"/>
<path d="M77.8556 87.6639C70 88.5957 55.7183 70.9417 51.6934 60.3003C47.1482 60.3003 46.0073 53.1297 46 47.4642C45.9976 45.567 47.8758 44.3239 49.6809 44.9082C50.8884 30.3143 59.911 26.2857 64.2714 26.0957L102.509 48.3287L103.289 47.1501C104.402 45.4685 106.884 45.3633 107.525 47.2754C109.405 52.8883 105.288 58.0954 102.509 60.3003C98.9867 67.9013 89.6189 86.2687 77.8556 87.6639Z" fill="#EEEEEE"/>
<path d="M95.5 82.5957C95.5 86.9957 99.8333 90.7624 102 92.0957C99 95.7624 90.3 103.096 77.5 103.096C64.7 103.096 55.5 95.7624 52.5 92.0957C54.6667 90.7624 59 86.9957 59 82.5957C61.2165 85.3048 66.108 89.8518 71.577 91.5579C75.372 92.7418 79.638 92.7645 83.4176 91.5324C88.7106 89.8068 93.2944 85.2914 95.5 82.5957Z" fill="#F4F4F4"/>
<path d="M13.034 110.87L11.5 117.596H143.5L141.966 110.87C139.061 98.1315 127.732 89.0957 114.667 89.0957H100.566C100.215 89.0957 99.8942 89.2786 99.6958 89.5685C97.3271 93.0285 90.1026 99.2138 77.5 99.5957C64.8974 99.2138 57.6729 93.0285 55.3042 89.5685C55.1058 89.2786 54.7851 89.0957 54.4338 89.0957H40.333C27.2678 89.0957 15.9392 98.1315 13.034 110.87Z" fill="#A6A2A2"/>
<rect x="24" y="201.096" width="108" height="4" fill="#8C8C8C"/>
<path d="M2.60526 132.251L13.1936 189.781C14.2416 195.475 19.2033 199.596 24.993 199.596H130.262C136.16 199.596 141.184 195.31 142.113 189.486L151.284 131.986C152.447 124.697 146.816 118.096 139.434 118.096H14.4101C6.91276 118.096 1.24816 124.877 2.60526 132.251Z" fill="#606060" stroke="black" stroke-width="3"/>
<path d="M136.5 205.096H22" stroke="black" stroke-width="5" stroke-linecap="round"/>
<circle cx="77" cy="158.596" r="5.5" fill="#FF7F69"/>
</svg>
