<svg width="112" height="90" viewBox="0 0 112 90" fill="none" xmlns="http://www.w3.org/2000/svg">
<path d="M110.982 44.9359C114 17 94.1936 -0.653469 72.39 0.0185312C67.3123 0.00562454 62.3489 1.64125 58.1483 4.71176C48.4358 12.1784 47.5043 27.4852 38.2279 35.0372C28.3172 43.1225 13.9862 41.3092 5.0071 51.2399C3.06195 53.4739 1.62099 56.1601 0.796016 59.0902C-0.0289624 62.0202 -0.215781 65.1155 0.249971 68.1359C0.737371 71.1908 1.85715 74.0886 3.52643 76.6146C5.1957 79.1406 7.37167 81.2298 9.89308 82.7278C16.4341 86.4611 23.6988 85.2024 30.4876 84.0824C39.328 82.6424 47.0384 82.3651 55.5418 86.2158C82.0133 98.3331 109.734 75.8477 110.923 44.9464C110.972 45.0104 110.992 44.9679 110.982 44.9359Z" fill="#D5D5D5"/>
<path d="M100.029 47.5137C101.069 32.5893 95.643 13.0185 74.5211 13.0196C70.8137 13.0106 63.5 15.5027 60.8235 19.4942C53.7322 24.6779 51.3054 37.811 44.5324 43.054C37.2599 50.3045 24.7748 48.0316 18.219 54.926C16.7988 56.4769 16.1835 56.951 15.5812 58.9853C14.9789 61.0194 14.8425 63.1683 15.1825 65.2652C15.5384 67.3861 16.356 69.3979 17.5747 71.1516C18.7935 72.9052 20.3823 74.3557 22.2232 75.3956C26.999 75.6848 32.3032 74.811 37.2599 74.0335C43.7145 73.0337 49.3441 72.8412 55.5527 75.5145C76.1748 84.3941 100.072 67.797 100.029 47.5137C101.201 47.5137 100.065 47.5581 100.029 47.5137Z" fill="#EDCA95"/>
</svg>
