<svg width="115" height="109" viewBox="0 0 115 109" fill="none" xmlns="http://www.w3.org/2000/svg">
<path d="M50.4747 108.208C74.9745 105.258 95.0342 93.5028 106.193 75.6186C114.058 62.9418 117.686 44.3422 111.809 25.8557C108.915 16.9771 98.1076 3.04322 81.4294 0.395612C64.7515 -2.25209 54.0167 8.92342 48.5493 18.0327C43.082 27.1419 36.6589 44.4551 21.9496 53.9643C10.5645 63.5747 -0.394983 72.4308 0.0109363 83.1556C0.484042 94.1788 19.9226 112.055 50.4747 108.208Z" fill="#3F3E3E"/>
<path d="M48.3485 100.693C64.5492 98.6698 83.8095 84.7626 92.5155 74.8041C100.014 66.2271 106.508 49.9683 103.041 33.6505C101.994 28.7231 97.8403 15.5722 79.7645 11.1144C65.7814 9.40017 55.9357 27.4171 52.1646 33.6505C48.3935 39.8839 44.0301 49.2992 35.2187 56.63C27.7157 64.6881 10.7234 72.9515 11.0034 80.2904C11.0034 88.3682 27.2752 103.326 48.3485 100.693Z" fill="#4B4A4A"/>
</svg>
