<svg width="171" height="181" viewBox="0 0 171 181" fill="none" xmlns="http://www.w3.org/2000/svg">
<path d="M156 159.5H157.5V158V55.5V54H156H3H1.5V55.5V158V159.5H3H156Z" fill="#F4F4F4" stroke="black" stroke-width="3"/>
<path d="M1.5 55.5V57H3H156H157.5V55.5V28C157.5 22.7533 153.247 18.5 148 18.5H11C5.7533 18.5 1.5 22.7533 1.5 28V55.5Z" fill="#FFC024" stroke="black" stroke-width="3"/>
<path d="M54 45H60.5M71 45H104.5" stroke="#F4F4F4" stroke-width="6" stroke-linecap="round"/>
<rect x="53" y="69" width="21" height="17" fill="#FFC024" stroke="black" stroke-width="3"/>
<rect x="86" y="69" width="21" height="17" fill="#F4F4F4" stroke="black" stroke-width="3"/>
<rect x="119" y="69" width="21" height="17" fill="#F4F4F4" stroke="black" stroke-width="3"/>
<rect x="86" y="97" width="21" height="17" fill="#F4F4F4" stroke="black" stroke-width="3"/>
<rect x="53" y="97" width="21" height="17" fill="#F4F4F4" stroke="black" stroke-width="3"/>
<rect x="20" y="97" width="21" height="17" fill="#F4F4F4" stroke="black" stroke-width="3"/>
<rect x="53" y="125" width="21" height="17" fill="#F4F4F4" stroke="black" stroke-width="3"/>
<rect x="20" y="125" width="21" height="17" fill="#F4F4F4" stroke="black" stroke-width="3"/>
<path d="M45.5 8V28C45.5 31.5899 42.5899 34.5 39 34.5C35.4101 34.5 32.5 31.5899 32.5 28V8C32.5 4.41015 35.4101 1.5 39 1.5C42.5899 1.5 45.5 4.41015 45.5 8ZM84.5 8V28C84.5 31.5899 81.5899 34.5 78 34.5C74.4101 34.5 71.5 31.5899 71.5 28V8C71.5 4.41015 74.4101 1.5 78 1.5C81.5899 1.5 84.5 4.41015 84.5 8ZM123.5 8V28C123.5 31.5899 120.59 34.5 117 34.5C113.41 34.5 110.5 31.5899 110.5 28V8C110.5 4.41015 113.41 1.5 117 1.5C120.59 1.5 123.5 4.41015 123.5 8Z" fill="#F4F4F4" stroke="black" stroke-width="3"/>
<path d="M169.5 140C169.5 161.798 151.609 179.5 129.5 179.5C107.391 179.5 89.5 161.798 89.5 140C89.5 118.202 107.391 100.5 129.5 100.5C151.609 100.5 169.5 118.202 169.5 140Z" fill="#FF7F69" stroke="black" stroke-width="3"/>
<path d="M98.5357 142H107C107.828 142 108.5 141.328 108.5 140.5C108.5 139.672 107.828 139 107 139H98.5357C99.2945 123.073 112.073 110.294 128 109.536V118C128 118.828 128.672 119.5 129.5 119.5C130.328 119.5 131 118.828 131 118V109.536C146.927 110.294 159.706 123.073 160.464 139H153C152.172 139 151.5 139.672 151.5 140.5C151.5 141.328 152.172 142 153 142H160.464C159.706 157.927 146.927 170.706 131 171.464V163C131 162.172 130.328 161.5 129.5 161.5C128.672 161.5 128 162.172 128 163V171.464C112.073 170.706 99.2945 157.927 98.5357 142Z" fill="#F4F4F4" stroke="black" stroke-width="3" stroke-linecap="round"/>
<path d="M143 138L132.387 148.613C132.179 148.821 131.838 148.805 131.649 148.579L117 131" stroke="black" stroke-width="3" stroke-linecap="round"/>
</svg>
