<svg width="99" height="96" viewBox="0 0 99 96" fill="none" xmlns="http://www.w3.org/2000/svg">
<g clip-path="url(#clip0_1275_8)">
<path d="M2.35862 35.9095C6.35862 20.1995 18.2787 1.06951 38.7887 0.0395118C59.2987 -0.990488 63.3387 17.3795 65.5087 31.6395C67.6787 45.8995 83.7987 53.2895 92.7787 60.6395C102.219 68.3495 102.089 87.1595 79.3386 87.0595C56.5886 86.9595 48.8186 90.6395 36.3386 94.1095C25.3386 97.1095 14.3387 95.6195 6.23863 82.7695C-1.86137 69.9195 -0.811374 48.5495 2.35862 35.9095Z" fill="#EFC685"/>
<path d="M11.8613 39.5024C15.0231 27.9085 24.4452 13.7907 40.6572 13.0306C56.8692 12.2705 60.0626 25.8274 61.7779 36.3512C63.4931 46.875 76.2351 52.3288 83.3333 57.753C90.7951 63.4429 90.6923 77.3246 72.7096 77.2508C54.727 77.177 48.5853 79.8928 38.7205 82.4536C30.0256 84.6676 21.3308 83.568 14.9282 74.0848C8.52561 64.6016 9.35557 48.8307 11.8613 39.5024Z" fill="#CEAE7D"/>
<path d="M61.2695 43.5917L64.407 46.3358L69.9058 39.9043" stroke="#F3B85B" stroke-width="1.3" stroke-miterlimit="10" stroke-linecap="square"/>
<path d="M77.7893 31.0044C77.9487 31.0039 78.1068 31.0382 78.2539 31.1051C78.4009 31.172 78.5344 31.2702 78.6459 31.3939C78.8734 31.6423 79.0009 31.9784 79.0005 32.3287V51.7834C79.0005 52.1306 78.8754 52.4641 78.6523 52.7124C78.4288 52.9608 78.1248 53.1042 77.8052 53.1122H72.9124C72.5932 53.1121 72.2866 53.2481 72.0587 53.4908C71.8307 53.7336 71.6995 54.0638 71.6932 54.4106V59.0676C71.7008 59.0914 71.7008 59.1173 71.6932 59.1411C71.6824 59.1647 71.664 59.1832 71.6414 59.1931C71.6182 59.2017 71.593 59.2017 71.5697 59.1931C71.5457 59.1888 71.5235 59.1768 71.506 59.1585L65.8322 53.4714C65.6077 53.2493 65.3152 53.1259 65.0115 53.1251H52.4926C52.3325 53.1261 52.1738 53.0922 52.0259 53.0252C51.8781 52.9583 51.7442 52.8598 51.6321 52.7356C51.405 52.4866 51.2764 52.1512 51.2734 51.8007V32.3244C51.2764 31.974 51.405 31.6386 51.6321 31.3896C51.7442 31.2653 51.8781 31.1668 52.0259 31.0999C52.1738 31.033 52.3325 30.999 52.4926 31L77.7893 31.0044Z" stroke="#F3B85B" stroke-width="1.3" stroke-miterlimit="10" stroke-linecap="square"/>
<path d="M60.818 53.4934V58.8763C60.818 59.1966 60.7028 59.5039 60.4977 59.7308C60.2925 59.9577 60.0141 60.0858 59.7234 60.0869H51.6098C51.3356 60.0869 51.0712 60.1994 50.8683 60.4025L45.7679 65.5909C45.752 65.6089 45.7314 65.621 45.709 65.6255C45.6885 65.6317 45.6668 65.6317 45.6462 65.6255C45.6261 65.6159 45.6096 65.5991 45.5992 65.5779C45.5933 65.5553 45.5933 65.5313 45.5992 65.5087V61.2932C45.6001 61.1324 45.5718 60.973 45.5159 60.8245C45.4599 60.676 45.3775 60.5413 45.2735 60.4285C45.1712 60.3141 45.049 60.2236 44.9141 60.1627C44.7793 60.1018 44.6346 60.0716 44.4888 60.074H40.0907C39.8014 60.0717 39.5246 59.9437 39.3204 59.7179C39.1161 59.492 39.001 59.1865 39 58.8677V41.1106C39.001 40.7917 39.1161 40.4862 39.3204 40.2603C39.5246 40.0345 39.8014 39.9065 40.0907 39.9043H51.1076" stroke="#F3B85B" stroke-width="1.3" stroke-miterlimit="10" stroke-linecap="square"/>
</g>
<defs>
<clipPath id="clip0_1275_8">
<rect width="99" height="96" fill="white"/>
</clipPath>
</defs>
</svg>
