<svg width="207" height="190" viewBox="0 0 207 190" fill="none" xmlns="http://www.w3.org/2000/svg">
<path d="M2 141V3.5C2 2.39543 2.89543 1.5 4 1.5H203.5C204.605 1.5 205.5 2.39543 205.5 3.5V141C205.5 142.105 204.605 143 203.5 143H4C2.89543 143 2 142.105 2 141Z" fill="#F4F4F4" stroke="black" stroke-width="3"/>
<path d="M111.5 70V104.5M132.5 56.5V104.5M154.5 81V104.5" stroke="black" stroke-width="9"/>
<path d="M114.5 59.5L127.39 44.2969C130.75 40.3328 136.94 40.5754 139.98 44.7903L152.984 62.8184C154.512 64.9372 157.628 65.0461 159.301 63.0391L178.5 40" stroke="black" stroke-width="4" stroke-linecap="round"/>
<path d="M78.5 101H34M78.5 111H34" stroke="black" stroke-width="4" stroke-linecap="round"/>
<path d="M25.5 55.5C25.5 72.3447 39.1553 86 56 86C66.5508 86 75.8503 80.6427 81.3267 72.5L53.5 57.5V25.101C37.8247 26.3727 25.5 39.497 25.5 55.5Z" fill="#FFC024"/>
<path d="M83.5 68.7077C85.4227 64.7116 86.5 60.2319 86.5 55.5006C86.5 39.4976 74.1753 26.3733 58.5 25.1016V54.0006L83.5 68.7077Z" fill="#F37D62"/>
<path d="M125.5 144.5H126L85 142L79 144.5H79.5C83.366 144.5 86.5 147.634 86.5 151.5V157.5C86.5 170.755 75.7548 181.5 62.5 181.5H59V190H102.5H146V181.5H142.5C129.245 181.5 118.5 170.755 118.5 157.5V151.5C118.5 147.634 121.634 144.5 125.5 144.5Z" fill="black"/>
</svg>
