<svg width="161" height="180" viewBox="0 0 161 180" fill="none" xmlns="http://www.w3.org/2000/svg">
<rect x="2" y="2" width="139" height="176" rx="10" fill="white" stroke="black" stroke-width="3"/>
<path d="M45.001 59.5L44.001 47.5C36.307 50.431 30.263 57.7806 27.6364 61.9411C27.2963 62.4798 26.5516 62.6005 26.0755 62.1773L22.501 59C20.7722 58.3084 16.926 62.4243 14.1925 65.5984C13.675 66.1993 14.0226 67.2317 14.7491 67.5497C18.2021 69.061 23.8393 73.2497 27.3325 76.0498C27.8906 76.4972 28.7678 76.2555 29.1274 75.6371C31.7257 71.1691 40.5055 63.2462 45.001 59.5Z" fill="#FFC024"/>
<path d="M45.001 29L44.001 17C36.307 19.931 30.263 27.2806 27.6364 31.4411C27.2963 31.9798 26.5516 32.1005 26.0755 31.6773L22.501 28.5C20.7722 27.8084 16.926 31.9243 14.1925 35.0984C13.675 35.6993 14.0226 36.7317 14.7491 37.0497C18.2021 38.561 23.8393 42.7497 27.3325 45.5498C27.8906 45.9972 28.7678 45.7555 29.1274 45.1371C31.7257 40.6691 40.5055 32.7462 45.001 29Z" fill="#FFC024"/>
<path d="M45.001 90L44.001 78C36.307 80.931 30.263 88.2807 27.6364 92.4411C27.2963 92.9798 26.5516 93.1005 26.0755 92.6773L22.501 89.5C20.7722 88.8084 16.926 92.9243 14.1925 96.0984C13.675 96.6993 14.0226 97.7317 14.7491 98.0497C18.2021 99.561 23.8393 103.75 27.3325 106.55C27.8906 106.997 28.7678 106.755 29.1274 106.137C31.7257 101.669 40.5055 93.7462 45.001 90Z" fill="#FFC024"/>
<path d="M58 39H123M58 69H123M58 98H116" stroke="black" stroke-width="5" stroke-linecap="round"/>
<path d="M74.1184 137.659L137.642 93.5457C141.378 90.9508 146.464 91.5523 149.492 94.9474L153.92 99.9117C157.517 103.945 156.773 110.216 152.334 113.297L89.1061 157.169C88.3835 157.67 87.3819 157.056 87.413 156.177C87.7578 146.434 80.0543 141.44 74.4559 139.604C73.618 139.329 73.3941 138.162 74.1184 137.659Z" fill="#FF7F69"/>
<path d="M78.6868 159C78.6868 155.4 72.6868 150.167 69.6868 148C64.8868 150.4 64.6868 158.333 65.1868 162C66.7868 161.6 74.8535 159.833 78.6868 159Z" fill="#0773D1"/>
</svg>
