<svg width="218" height="234" viewBox="0 0 218 234" fill="none" xmlns="http://www.w3.org/2000/svg">
<path d="M83.9545 203.038H15C7.8203 203.038 2 197.218 2 190.038V176.77V81.0215C2 73.8418 7.8203 68.0215 15 68.0215H125.5L188.618 160.502V176.77V190.038C188.618 197.218 182.798 203.038 175.618 203.038H164.11H137.354H109.362L116.781 231.818H77.9962L83.9545 203.038Z" fill="#F4F4F4"/>
<path d="M83.9545 203.038H15C7.8203 203.038 2 197.218 2 190.038V176.77M83.9545 203.038L77.9962 231.818M83.9545 203.038H109.362M77.9962 231.818H62.707M77.9962 231.818H116.781M130.047 231.818H116.781M116.781 231.818L109.362 203.038M109.362 203.038H137.354H164.11H175.618C182.798 203.038 188.618 197.218 188.618 190.038V176.77M188.618 176.77V160.502L125.5 68.0215H15C7.8203 68.0215 2 73.8418 2 81.0215V176.77M188.618 176.77H2" stroke="black" stroke-width="3" stroke-linecap="round" stroke-linejoin="round"/>
<circle cx="98.2321" cy="188.535" r="5.39618" fill="#616161"/>
<path d="M17 131H95M17 138.841H95M17 148.127H95M17 157H95" stroke="#455A64" stroke-width="4" stroke-linejoin="round"/>
<path d="M92.8378 116.361V92.3027H17.0664V116.361H92.8378Z" fill="#FFC92A"/>
<path d="M211 160.54H133C130.239 160.54 128 158.302 128 155.54V130.304V34.2476V7.22461C128 4.46319 130.239 2.22461 133 2.22461H211C213.761 2.22461 216 4.46319 216 7.22461V34.2476V130.304V155.54C216 158.302 213.761 160.54 211 160.54Z" fill="#F4F4F4"/>
<path d="M128 34.2476V7.22461C128 4.46319 130.239 2.22461 133 2.22461H211C213.761 2.22461 216 4.46319 216 7.22461V34.2476M128 34.2476H216M128 34.2476V130.304M216 34.2476V130.304M216 130.304V155.54C216 158.302 213.761 160.54 211 160.54H133C130.239 160.54 128 158.302 128 155.54V130.304M216 130.304H128" stroke="black" stroke-width="3" stroke-linecap="round" stroke-linejoin="round"/>
<circle cx="172" cy="145" r="5" fill="#616161"/>
<path d="M152 17H192" stroke="black" stroke-width="3" stroke-linecap="round" stroke-linejoin="round"/>
<path d="M139 81.5V49.5C139 47.8431 140.343 46.5 142 46.5H194.5C196.157 46.5 197.5 47.8431 197.5 49.5V81.5C197.5 83.1569 196.157 84.5 194.5 84.5H142C140.343 84.5 139 83.1569 139 81.5Z" fill="#FF7F69"/>
</svg>
