<svg width="107" height="112" viewBox="0 0 107 112" fill="none" xmlns="http://www.w3.org/2000/svg">
<g filter="url(#filter0_d_1474_32)">
<path d="M42.1655 103.347C60.7255 102.247 76.8754 93.8469 86.4254 83.9669C99.8854 70.0569 105.295 51.1269 101.585 31.5069C96.9654 7.04688 75.3554 -2.39312 65.3254 0.506875C55.2954 3.40688 50.0154 14.5069 44.2354 26.1569C37.7754 39.1569 25.0954 50.3969 18.2354 57.3669C11.3754 64.3369 3.83536 75.9569 10.7254 87.8769C17.6154 99.7969 33.2655 103.867 42.1655 103.347Z" fill="#555555"/>
</g>
<path d="M6 30C6 29.4477 6.44772 29 7 29V29C7.55228 29 8 29.4477 8 30V34C8 34.5523 7.55228 35 7 35V35C6.44772 35 6 34.5523 6 34V30Z" fill="#F3B85B"/>
<path d="M6 38C6 37.4477 6.44772 37 7 37V37C7.55228 37 8 37.4477 8 38V46C8 46.5523 7.55228 47 7 47V47C6.44772 47 6 46.5523 6 46V38Z" fill="#F3B85B"/>
<path d="M46 39C46 38.4477 46.4477 38 47 38V38C47.5523 38 48 38.4477 48 39V42C48 42.5523 47.5523 43 47 43V43C46.4477 43 46 42.5523 46 42V39Z" fill="#F3B85B"/>
<path d="M46 46C46 45.4477 46.4477 45 47 45V45C47.5523 45 48 45.4477 48 46V54C48 54.5523 47.5523 55 47 55V55C46.4477 55 46 54.5523 46 54V46Z" fill="#F3B85B"/>
<path d="M34 57C34 58.1046 33.1046 59 32 59C30.8954 59 30 58.1046 30 57C30 55.8954 30.8954 55 32 55C33.1046 55 34 55.8954 34 57Z" fill="#F3B85B"/>
<path d="M60 66C60 67.1046 59.1046 68 58 68C56.8954 68 56 67.1046 56 66C56 64.8954 56.8954 64 58 64C59.1046 64 60 64.8954 60 66Z" fill="#F3B85B"/>
<path d="M1 52V60C1 61.6569 2.34315 63 4 63H26.5M1 52V22C1 19.7909 2.79086 18 5 18H57C59.2091 18 61 19.7909 61 22V26.5M1 52H41.5M41.5 52V59.5M41.5 52V32.5M41.5 63V70.5C41.5 71.6046 42.3954 72.5 43.5 72.5H62H72C73.1046 72.5 74 71.6046 74 70.5V59.5M41.5 63V59.5M41.5 63H26.5M41.5 59.5H74M26.5 63C26.1667 66.1667 23.9 72.5 17.5 72.5M17.5 72.5H17M17.5 72.5H37.5M41.5 32.5V28.5C41.5 27.3954 42.3954 26.5 43.5 26.5H61M41.5 32.5H74M74 32.5V28.5C74 27.3954 73.1046 26.5 72 26.5H61M74 32.5V39V59.5" stroke="#F3B85B" stroke-width="2" stroke-linecap="round"/>
<defs>
<filter id="filter0_d_1474_32" x="4" y="0" width="102.727" height="111.391" filterUnits="userSpaceOnUse" color-interpolation-filters="sRGB">
<feFlood flood-opacity="0" result="BackgroundImageFix"/>
<feColorMatrix in="SourceAlpha" type="matrix" values="0 0 0 0 0 0 0 0 0 0 0 0 0 0 0 0 0 0 127 0" result="hardAlpha"/>
<feOffset dy="4"/>
<feGaussianBlur stdDeviation="2"/>
<feComposite in2="hardAlpha" operator="out"/>
<feColorMatrix type="matrix" values="0 0 0 0 0 0 0 0 0 0 0 0 0 0 0 0 0 0 0.25 0"/>
<feBlend mode="normal" in2="BackgroundImageFix" result="effect1_dropShadow_1474_32"/>
<feBlend mode="normal" in="SourceGraphic" in2="effect1_dropShadow_1474_32" result="shape"/>
</filter>
</defs>
</svg>
