<svg width="92" height="85" viewBox="0 0 92 85" fill="none" xmlns="http://www.w3.org/2000/svg">
<g filter="url(#filter0_d_1476_10)">
<path d="M8.68184 27.5713C10.9135 23.877 13.7773 20.5373 17.1635 17.6807C18.8171 16.2831 20.6132 15.0354 22.5271 13.9548C30.5293 9.51422 39.8353 7.47357 49.1551 8.11579C52.7721 8.37334 56.3343 9.08157 59.7441 10.221C61.7565 10.897 63.699 11.7371 65.5482 12.7314C66.1355 13.0412 66.7228 13.3749 67.2756 13.7244C70.1362 15.4243 72.856 17.3176 75.4117 19.3887C80.8297 23.7678 84.8313 29.4356 86.9767 35.7697C87.7989 37.8395 88.1323 40.0468 87.9527 42.2443C87.8188 43.4137 87.4224 44.5446 86.7867 45.565C86.1562 46.5875 85.3037 47.4798 84.2819 48.1866C82.3766 49.4737 80.2389 50.4417 77.9683 51.0465C75.6976 51.6908 73.3915 52.2212 71.0586 52.6354C69.1939 52.9787 67.3628 53.4596 65.5827 54.0733C59.2172 56.2818 54.5359 60.2221 50.8997 67.1336C49.1933 70.7314 46.1239 73.6365 42.2627 75.3083C39.022 76.5565 35.5201 77.1263 32.0105 76.9766C27.9761 76.8499 24.0408 75.7928 20.5664 73.9021C18.0093 72.5303 15.7085 70.7895 13.7518 68.7463C12.0846 66.994 10.6361 65.0754 9.43326 63.0265C8.23556 61.0181 7.22148 58.9215 6.40165 56.7585C4.32505 51.5393 3.58036 45.951 4.22512 40.4251C4.77633 35.9124 6.29093 31.5443 8.68184 27.5713Z" fill="#747474"/>
</g>
<path d="M1 14.3776V43C1 45.2091 2.79086 47 5 47H45C47.2091 47 49 45.2091 49 43V14.3776M1 14.3776V8.75949C1 6.55035 2.79086 4.75949 5 4.75949H8.61315H13.2553H22.5397H27.1818H36.0948H40.7369H45C47.2091 4.75949 49 6.55035 49 8.75949V14.3776M1 14.3776H49M10.9342 8.92405V0M24.8607 8.92405V0M38.4159 8.92405V0" stroke="#F3B85B" stroke-width="2"/>
<path d="M9.72656 24.834H17.5811M32.4175 24.834H40.272M21.072 24.834H28.9266M9.72656 36.7911H17.5811M32.4175 36.7911H40.272M21.072 36.7911H28.9266" stroke="#F3B85B" stroke-width="2"/>
<defs>
<filter id="filter0_d_1476_10" x="0" y="8" width="92" height="77" filterUnits="userSpaceOnUse" color-interpolation-filters="sRGB">
<feFlood flood-opacity="0" result="BackgroundImageFix"/>
<feColorMatrix in="SourceAlpha" type="matrix" values="0 0 0 0 0 0 0 0 0 0 0 0 0 0 0 0 0 0 127 0" result="hardAlpha"/>
<feOffset dy="4"/>
<feGaussianBlur stdDeviation="2"/>
<feComposite in2="hardAlpha" operator="out"/>
<feColorMatrix type="matrix" values="0 0 0 0 0 0 0 0 0 0 0 0 0 0 0 0 0 0 0.25 0"/>
<feBlend mode="normal" in2="BackgroundImageFix" result="effect1_dropShadow_1476_10"/>
<feBlend mode="normal" in="SourceGraphic" in2="effect1_dropShadow_1476_10" result="shape"/>
</filter>
</defs>
</svg>
