<svg width="110" height="101" viewBox="0 0 110 101" fill="none" xmlns="http://www.w3.org/2000/svg">
<g filter="url(#filter0_d_1474_26)">
<path d="M105.788 53.8614C106.616 33.0419 90.3905 14.662 70.3932 15.2398C65.7361 15.2287 61.1839 16.6351 57.3313 19.2752C48.4234 25.6954 47.569 38.8567 39.0611 45.3502C29.9714 52.3022 16.8276 50.7431 8.59231 59.2818C6.8083 61.2027 5.48671 63.5124 4.73007 66.0318C3.97344 68.5512 3.80209 71.2126 4.22926 73.8096C4.67629 76.4364 5.7033 78.928 7.2343 81.0999C8.76528 83.2719 10.761 85.0683 13.0735 86.3563C19.0727 89.5663 25.7356 88.4841 31.962 87.5211C40.07 86.2829 47.1417 86.0444 54.9407 89.3554C79.2193 99.7743 104.643 80.4406 105.734 53.8705C105.779 53.9255 105.798 53.8889 105.788 53.8614Z" fill="#555555"/>
<path d="M48.3876 58.8261L48.3802 57.6711L46.0703 57.6859L46.0776 58.8409L48.3876 58.8261ZM31.6263 67.5934L31.6254 68.7484H31.6263V67.5934ZM28.3466 66.3959L27.6062 67.2824L27.6063 67.2825L28.3466 66.3959ZM26.5228 63.3365L27.6536 63.1014L27.6533 63.0997L26.5228 63.3365ZM24.275 52.608L25.4055 52.3712L25.4036 52.3626L24.275 52.608ZM23.8111 51.5992L22.89 52.296L22.8914 52.2979L23.8111 51.5992ZM22.9632 50.8938L22.4475 51.9273L22.4483 51.9277L22.9632 50.8938ZM19.3796 49.1057L19.8952 48.0722L19.8865 48.0679L19.3796 49.1057ZM18.1601 47.736L17.0733 48.127L17.0733 48.127L18.1601 47.736ZM18.2197 45.8823L19.2789 46.3428L19.283 46.3333L18.2197 45.8823ZM21.7473 37.5652L20.6849 37.1122L20.684 37.1143L21.7473 37.5652ZM22.7552 33.0458L21.601 33.0033L21.601 33.0037L22.7552 33.0458ZM50.1603 2.00057L50.1539 0.845591L50.1533 0.845595L50.1603 2.00057ZM72.8699 14.066L73.8597 13.4708L73.8593 13.4701L72.8699 14.066ZM75.4936 42.4701L76.5247 42.9907L76.5248 42.9905L75.4936 42.4701ZM65.6595 75V76.155H67.9695V75H65.6595ZM47.2326 58.8335C46.0776 58.8409 46.0776 58.8405 46.0776 58.8401C46.0776 58.84 46.0776 58.8396 46.0776 58.8395C46.0776 58.8391 46.0776 58.8389 46.0776 58.8388C46.0776 58.8386 46.0776 58.839 46.0776 58.8398C46.0776 58.8416 46.0776 58.8453 46.0776 58.851C46.0775 58.8624 46.0773 58.8817 46.0768 58.9083C46.0757 58.9614 46.0732 59.0437 46.0677 59.1509C46.0568 59.3657 46.0337 59.6783 45.9854 60.0558C45.8882 60.8168 45.6923 61.8106 45.305 62.7879C44.9167 63.7675 44.3576 64.677 43.5646 65.3369C42.792 65.9799 41.7362 66.4384 40.2334 66.4384V68.7484C42.2582 68.7484 43.8411 68.112 45.0422 67.1125C46.2231 66.1299 46.9728 64.8494 47.4525 63.639C47.933 62.4263 48.1641 61.2302 48.2768 60.3487C48.3335 59.9049 48.3612 59.5332 48.3747 59.2689C48.3815 59.1366 48.3847 59.0306 48.3863 58.9555C48.387 58.9179 48.3874 58.888 48.3875 58.8662C48.3876 58.8554 48.3876 58.8466 48.3876 58.8398C48.3876 58.8365 48.3876 58.8337 48.3876 58.8314C48.3876 58.8302 48.3876 58.8292 48.3876 58.8283C48.3876 58.8279 48.3876 58.8273 48.3876 58.8271C48.3876 58.8266 48.3876 58.8261 47.2326 58.8335ZM40.2334 66.4384H31.6263V68.7484H40.2334V66.4384ZM31.6271 66.4384C30.7055 66.4377 29.8083 66.1118 29.0869 65.5094L27.6063 67.2825C28.738 68.2275 30.1572 68.7473 31.6254 68.7484L31.6271 66.4384ZM29.087 65.5094C28.3596 64.9019 27.8516 64.0534 27.6536 63.1014L25.392 63.5716C25.6943 65.0258 26.4732 66.3361 27.6062 67.2824L29.087 65.5094ZM27.6533 63.0997L25.4055 52.3712L23.1446 52.8449L25.3923 63.5733L27.6533 63.0997ZM25.4036 52.3626C25.2883 51.8321 25.059 51.3326 24.7308 50.9005L22.8914 52.2979C23.0143 52.4596 23.102 52.6493 23.1464 52.8535L25.4036 52.3626ZM24.7322 50.9023C24.3998 50.463 23.9713 50.1055 23.478 49.8599L22.4483 51.9277C22.6185 52.0125 22.7702 52.1377 22.89 52.296L24.7322 50.9023ZM23.4788 49.8603L19.8952 48.0722L18.8639 50.1392L22.4475 51.9273L23.4788 49.8603ZM19.8865 48.0679C19.5966 47.9263 19.3638 47.6697 19.2469 47.3449L17.0733 48.127C17.3898 49.0066 18.0323 49.733 18.8726 50.1435L19.8865 48.0679ZM19.2469 47.3449C19.1297 47.0192 19.1415 46.6587 19.2789 46.3428L17.1605 45.4217C16.788 46.2784 16.7571 47.2481 17.0733 48.127L19.2469 47.3449ZM19.283 46.3333L22.8106 38.0162L20.684 37.1143L17.1564 45.4313L19.283 46.3333ZM22.8097 38.0183C23.4746 36.4592 23.8474 34.7868 23.9094 33.088L21.601 33.0037C21.5492 34.4208 21.2383 35.8145 20.6849 37.1122L22.8097 38.0183ZM23.9094 33.0884C24.043 29.4625 24.7963 21.9537 28.4393 15.3695C32.037 8.86743 38.4618 3.22653 50.1673 3.15555L50.1533 0.845595C37.5094 0.92226 30.3677 7.11301 26.4181 14.2512C22.514 21.3072 21.7394 29.2473 21.601 33.0033L23.9094 33.0884ZM50.1667 3.15556C61.6168 3.09243 68.1145 8.40832 71.8805 14.6618L73.8593 13.4701C69.7221 6.60013 62.5093 0.777479 50.1539 0.845592L50.1667 3.15556ZM71.8801 14.6612C76.9125 23.0294 78.7447 33.4634 74.4625 41.9498L76.5248 42.9905C81.2816 33.5634 79.1462 22.2616 73.8597 13.4708L71.8801 14.6612ZM74.4626 41.9496C73.9778 42.9097 73.2416 43.8378 72.3427 44.8319C71.5119 45.7507 70.3736 46.8979 69.4509 47.9525C67.4951 50.1879 65.6595 52.9016 65.6595 56.6599H67.9695C67.9695 53.7417 69.3616 51.5627 71.1894 49.4736C72.1586 48.3658 73.051 47.4928 74.0561 46.3812C74.993 45.3451 75.8975 44.2328 76.5247 42.9907L74.4626 41.9496ZM65.6595 56.6599V75H67.9695V56.6599H65.6595ZM42.8567 67.1602V76.6602H45.1667V67.1602H42.8567Z" fill="#F3B85B"/>
</g>
<defs>
<filter id="filter0_d_1474_26" x="0" y="0.845703" width="109.82" height="99.3809" filterUnits="userSpaceOnUse" color-interpolation-filters="sRGB">
<feFlood flood-opacity="0" result="BackgroundImageFix"/>
<feColorMatrix in="SourceAlpha" type="matrix" values="0 0 0 0 0 0 0 0 0 0 0 0 0 0 0 0 0 0 127 0" result="hardAlpha"/>
<feOffset dy="4"/>
<feGaussianBlur stdDeviation="2"/>
<feComposite in2="hardAlpha" operator="out"/>
<feColorMatrix type="matrix" values="0 0 0 0 0 0 0 0 0 0 0 0 0 0 0 0 0 0 0.25 0"/>
<feBlend mode="normal" in2="BackgroundImageFix" result="effect1_dropShadow_1474_26"/>
<feBlend mode="normal" in="SourceGraphic" in2="effect1_dropShadow_1474_26" result="shape"/>
</filter>
</defs>
</svg>
