<svg fill="none" height="64" viewBox="0 0 32 33" width="50" xmlns="http://www.w3.org/2000/svg" xmlns:xlink="http://www.w3.org/1999/xlink"><linearGradient id="a" gradientUnits="userSpaceOnUse" x1="31.7037" x2="-.296307" y1="32.8906" y2=".890625"><stop offset="0" stop-color="#fff" stop-opacity=".15"/><stop offset="1" stop-opacity="0"/></linearGradient><linearGradient id="b" gradientUnits="userSpaceOnUse" x1="34.1426" x2="13.4109" y1="1.50446" y2="22.9461"><stop offset="0" stop-color="#fff" stop-opacity="0"/><stop offset=".333333" stop-color="#fff" stop-opacity="0"/><stop offset=".666667" stop-color="#fff" stop-opacity="0"/><stop offset="1" stop-color="#fff" stop-opacity=".3"/></linearGradient><linearGradient id="c" gradientUnits="userSpaceOnUse" x1="24.7499" x2="11.8819" y1="10.1073" y2="24.9549"><stop offset="0" stop-color="#fff"/><stop offset="1" stop-color="#fff" stop-opacity=".6"/></linearGradient><linearGradient id="d" gradientUnits="userSpaceOnUse" x1="31.7037" x2="16" y1=".890625" y2="32.8906"><stop offset="0" stop-color="#fff" stop-opacity=".3"/><stop offset="1" stop-color="#fff" stop-opacity="0"/></linearGradient><clipPath id="e"><path d="m0 .890625h32v32h-32z"/></clipPath><g clip-path="url(#e)"><path d="m31.625 16.8906c0-8.62942-6.9956-15.62498-15.625-15.62498-8.62945 0-15.625 6.99556-15.625 15.62498 0 8.6295 6.99555 15.625 15.625 15.625 8.6294 0 15.625-6.9955 15.625-15.625z" fill="url(#a)"/><g stroke-width=".75"><path d="m12.875 14.3906v-.375h-.375-3-.375v.375 8.5.375h.375 3 .375v-.375zm5.625 8.875h.375v-.375-4.704c0-.4889.1577-.8209.3616-1.029.2069-.2111.4836-.318.7634-.318s.5565.1069.7634.318c.2039.2081.3616.5401.3616 1.029v4.704.375h.375 2.9998.375v-.375-5c0-1.4187-.3948-2.5206-1.1021-3.2702-.7089-.7513-1.6902-1.1048-2.7727-1.1048-.8333 0-1.4417.2526-1.896.603-.0817.063-.1579.1288-.229.1961v-.2991h-.375-3-.375v.375 8.5.375h.375zm-7.5-10c1.0355 0 1.875-.8395 1.875-1.875s-.8395-1.87498-1.875-1.87498c-1.03553 0-1.875.83948-1.875 1.87498s.83947 1.875 1.875 1.875z" fill="url(#b)" stroke="url(#c)"/><path d="m31.625 16.8906c0-8.62942-6.9956-15.62498-15.625-15.62498-8.62945 0-15.625 6.99556-15.625 15.62498 0 8.6295 6.99555 15.625 15.625 15.625 8.6294 0 15.625-6.9955 15.625-15.625z" stroke="url(#d)"/></g></g></svg>