<svg width="134" height="39" viewBox="0 0 134 39" fill="none" xmlns="http://www.w3.org/2000/svg">
<path d="M46.6016 9.39961C46.6016 10.1996 46.4016 10.8996 45.9016 11.3996C45.3016 11.9996 44.6016 12.2996 43.7016 12.2996C42.8016 12.2996 42.1016 11.9996 41.5016 11.3996C40.9016 10.7996 40.6016 10.0996 40.6016 9.19961C40.6016 8.29961 40.9016 7.59961 41.5016 6.99961C42.1016 6.39961 42.8016 6.09961 43.7016 6.09961C44.1016 6.09961 44.5016 6.19961 44.9016 6.39961C45.3016 6.59961 45.6016 6.79961 45.8016 7.09961L45.3016 7.59961C44.9016 7.09961 44.4016 6.89961 43.7016 6.89961C43.0016 6.79961 42.5016 6.99961 42.0016 7.49961C41.5016 7.89961 41.3016 8.49961 41.3016 9.19961C41.3016 9.89961 41.5016 10.4996 42.0016 10.8996C42.5016 11.2996 43.0016 11.5996 43.6016 11.5996C44.3016 11.5996 44.8016 11.3996 45.3016 10.8996C45.6016 10.5996 45.8016 10.1996 45.8016 9.69961H43.6016V8.99961H46.5016C46.6016 9.09961 46.6016 9.29961 46.6016 9.39961Z" fill="#E9E9E9" stroke="white" stroke-width="0.2" stroke-miterlimit="10"/>
<path d="M51.1992 6.89961H48.4992V8.79961H50.9992V9.49961H48.4992V11.3996H51.1992V12.0996H47.6992V6.09961H51.1992V6.89961Z" fill="#E9E9E9" stroke="white" stroke-width="0.2" stroke-miterlimit="10"/>
<path d="M54.5 12.1992H53.7V6.89922H52V6.19922H56.1V6.89922H54.4V12.1992H54.5Z" fill="#E9E9E9" stroke="white" stroke-width="0.2" stroke-miterlimit="10"/>
<path d="M59.1016 12.1992V6.19922H59.9016V12.1992H59.1016Z" fill="#E9E9E9" stroke="white" stroke-width="0.2" stroke-miterlimit="10"/>
<path d="M63.3008 12.1992H62.5008V6.89922H60.8008V6.19922H65.0008V6.89922H63.3008V12.1992Z" fill="#E9E9E9" stroke="white" stroke-width="0.2" stroke-miterlimit="10"/>
<path d="M72.8 11.3996C72.2 11.9996 71.5 12.2996 70.6 12.2996C69.7 12.2996 69 11.9996 68.4 11.3996C67.8 10.7996 67.5 10.0996 67.5 9.19961C67.5 8.29961 67.8 7.59961 68.4 6.99961C69 6.39961 69.7 6.09961 70.6 6.09961C71.5 6.09961 72.2 6.39961 72.8 6.99961C73.4 7.59961 73.7 8.29961 73.7 9.19961C73.7 10.0996 73.4 10.7996 72.8 11.3996ZM69 10.8996C69.4 11.2996 70 11.5996 70.6 11.5996C71.2 11.5996 71.8 11.3996 72.2 10.8996C72.6 10.4996 72.9 9.89961 72.9 9.19961C72.9 8.49961 72.7 7.89961 72.2 7.49961C71.8 7.09961 71.2 6.79961 70.6 6.79961C70 6.79961 69.4 6.99961 69 7.49961C68.6 7.89961 68.3 8.49961 68.3 9.19961C68.3 9.89961 68.5 10.4996 69 10.8996Z" fill="#E9E9E9" stroke="white" stroke-width="0.2" stroke-miterlimit="10"/>
<path d="M74.8008 12.1992V6.19922H75.7008L78.6008 10.8992V9.69922V6.19922H79.4008V12.1992H78.6008L75.5008 7.29922V8.49922V12.1992H74.8008Z" fill="#E9E9E9" stroke="white" stroke-width="0.2" stroke-miterlimit="10"/>
<path d="M67.3008 21.0008C64.9008 21.0008 63.0008 22.8008 63.0008 25.3008C63.0008 27.7008 64.9008 29.6008 67.3008 29.6008C69.7008 29.6008 71.6008 27.8008 71.6008 25.3008C71.6008 22.7008 69.7008 21.0008 67.3008 21.0008ZM67.3008 27.8008C66.0008 27.8008 64.9008 26.7008 64.9008 25.2008C64.9008 23.7008 66.0008 22.6008 67.3008 22.6008C68.6008 22.6008 69.7008 23.6008 69.7008 25.2008C69.7008 26.7008 68.6008 27.8008 67.3008 27.8008ZM58.0008 21.0008C55.6008 21.0008 53.7008 22.8008 53.7008 25.3008C53.7008 27.7008 55.6008 29.6008 58.0008 29.6008C60.4008 29.6008 62.3008 27.8008 62.3008 25.3008C62.3008 22.7008 60.4008 21.0008 58.0008 21.0008ZM58.0008 27.8008C56.7008 27.8008 55.6008 26.7008 55.6008 25.2008C55.6008 23.7008 56.7008 22.6008 58.0008 22.6008C59.3008 22.6008 60.4008 23.6008 60.4008 25.2008C60.4008 26.7008 59.3008 27.8008 58.0008 27.8008ZM46.9008 22.3008V24.1008H51.2008C51.1008 25.1008 50.7008 25.9008 50.2008 26.4008C49.6008 27.0008 48.6008 27.7008 46.9008 27.7008C44.2008 27.7008 42.2008 25.6008 42.2008 22.9008C42.2008 20.2008 44.3008 18.1008 46.9008 18.1008C48.3008 18.1008 49.4008 18.7008 50.2008 19.4008L51.5008 18.1008C50.4008 17.1008 49.0008 16.3008 47.0008 16.3008C43.4008 16.3008 40.3008 19.3008 40.3008 22.9008C40.3008 26.5008 43.4008 29.5008 47.0008 29.5008C49.0008 29.5008 50.4008 28.9008 51.6008 27.6008C52.8008 26.4008 53.2008 24.7008 53.2008 23.4008C53.2008 23.0008 53.2008 22.6008 53.1008 22.3008H46.9008ZM92.3008 23.7008C91.9008 22.7008 90.9008 21.0008 88.7008 21.0008C86.5008 21.0008 84.7008 22.7008 84.7008 25.3008C84.7008 27.7008 86.5008 29.6008 88.9008 29.6008C90.8008 29.6008 92.0008 28.4008 92.4008 27.7008L91.0008 26.7008C90.5008 27.4008 89.9008 27.9008 88.9008 27.9008C87.9008 27.9008 87.3008 27.5008 86.8008 26.6008L92.5008 24.2008L92.3008 23.7008ZM86.5008 25.1008C86.5008 23.5008 87.8008 22.6008 88.7008 22.6008C89.4008 22.6008 90.1008 23.0008 90.3008 23.5008L86.5008 25.1008ZM81.8008 29.2008H83.7008V16.7008H81.8008V29.2008ZM78.8008 21.9008C78.3008 21.4008 77.5008 20.9008 76.5008 20.9008C74.4008 20.9008 72.4008 22.8008 72.4008 25.2008C72.4008 27.6008 74.3008 29.4008 76.5008 29.4008C77.5008 29.4008 78.3008 28.9008 78.7008 28.4008H78.8008V29.0008C78.8008 30.6008 77.9008 31.5008 76.5008 31.5008C75.4008 31.5008 74.6008 30.7008 74.4008 30.0008L72.8008 30.7008C73.3008 31.8008 74.5008 33.2008 76.6008 33.2008C78.8008 33.2008 80.6008 31.9008 80.6008 28.8008V21.2008H78.8008V21.9008ZM76.6008 27.8008C75.3008 27.8008 74.2008 26.7008 74.2008 25.2008C74.2008 23.7008 75.3008 22.6008 76.6008 22.6008C77.9008 22.6008 78.9008 23.7008 78.9008 25.2008C78.9008 26.7008 77.9008 27.8008 76.6008 27.8008ZM101.001 16.7008H96.5008V29.2008H98.4008V24.5008H101.001C103.101 24.5008 105.101 23.0008 105.101 20.6008C105.101 18.2008 103.101 16.7008 101.001 16.7008ZM101.101 22.7008H98.4008V18.4008H101.101C102.501 18.4008 103.301 19.6008 103.301 20.5008C103.201 21.6008 102.401 22.7008 101.101 22.7008ZM112.601 20.9008C111.201 20.9008 109.801 21.5008 109.301 22.8008L111.001 23.5008C111.401 22.8008 112.001 22.6008 112.701 22.6008C113.701 22.6008 114.601 23.2008 114.701 24.2008V24.3008C114.401 24.1008 113.601 23.8008 112.801 23.8008C111.001 23.8008 109.201 24.8008 109.201 26.6008C109.201 28.3008 110.701 29.4008 112.301 29.4008C113.601 29.4008 114.201 28.8008 114.701 28.2008H114.801V29.2008H116.601V24.4008C116.401 22.2008 114.701 20.9008 112.601 20.9008ZM112.401 27.8008C111.801 27.8008 110.901 27.5008 110.901 26.7008C110.901 25.7008 112.001 25.4008 112.901 25.4008C113.701 25.4008 114.101 25.6008 114.601 25.8008C114.401 27.0008 113.401 27.8008 112.401 27.8008ZM122.901 21.2008L120.801 26.6008H120.701L118.501 21.2008H116.501L119.801 28.8008L117.901 33.0008H119.801L124.901 21.2008H122.901ZM106.101 29.2008H108.001V16.7008H106.101V29.2008Z" fill="#E9E9E9"/>
<path d="M9.59922 6.69922C9.29922 6.99922 9.19922 7.49922 9.19922 8.09922V30.1992C9.19922 30.7992 9.39922 31.2992 9.69922 31.5992L9.79922 31.6992L22.1992 19.2992V19.1992V19.0992L9.59922 6.69922Z" fill="url(#paint0_linear_1642_26)"/>
<path d="M26.2016 23.4996L22.1016 19.3996V19.2996V19.1996L26.2016 15.0996L26.3016 15.1996L31.2016 17.9996C32.6016 18.7996 32.6016 20.0996 31.2016 20.8996L26.2016 23.4996Z" fill="url(#paint1_linear_1642_26)"/>
<path d="M26.3016 23.3992L22.1016 19.1992L9.60156 31.6992C10.1016 32.1992 10.8016 32.1992 11.7016 31.7992L26.3016 23.3992Z" fill="url(#paint2_linear_1642_26)"/>
<path d="M26.3016 14.9998L11.7016 6.69982C10.8016 6.19982 10.1016 6.29982 9.60156 6.79982L22.1016 19.2998L26.3016 14.9998Z" fill="url(#paint3_linear_1642_26)"/>
<path opacity="0.2" d="M26.2016 23.3008L11.7016 31.5008C10.9016 32.0008 10.2016 31.9008 9.70156 31.5008L9.60156 31.6008L9.70156 31.7008C10.2016 32.1008 10.9016 32.2008 11.7016 31.7008L26.2016 23.3008Z" fill="black"/>
<path opacity="0.12" d="M9.60156 31.4996C9.30156 31.1996 9.10156 30.6996 9.10156 30.0996V30.1996C9.10156 30.7996 9.30156 31.2996 9.60156 31.5996V31.4996Z" fill="black"/>
<path opacity="0.12" d="M31.1992 20.4992L26.1992 23.2992L26.2992 23.3992L31.1992 20.5992C31.8992 20.1992 32.1992 19.6992 32.1992 19.1992C32.1992 19.6992 31.7992 20.0992 31.1992 20.4992Z" fill="black"/>
<path opacity="0.25" d="M11.6992 6.79959L31.1992 17.8996C31.7992 18.2996 32.1992 18.6996 32.1992 19.1996C32.1992 18.6996 31.8992 18.1996 31.1992 17.7996L11.6992 6.69959C10.2992 5.89959 9.19922 6.59959 9.19922 8.19959V8.29959C9.19922 6.69959 10.2992 5.99959 11.6992 6.79959Z" fill="black"/>
<defs>
<linearGradient id="paint0_linear_1642_26" x1="20.9988" y1="7.90902" x2="4.21642" y2="24.6914" gradientUnits="userSpaceOnUse">
<stop stop-color="#00A0FF"/>
<stop offset="0.00657445" stop-color="#00A1FF"/>
<stop offset="0.2601" stop-color="#00BEFF"/>
<stop offset="0.5122" stop-color="#00D2FF"/>
<stop offset="0.7604" stop-color="#00DFFF"/>
<stop offset="1" stop-color="#00E3FF"/>
</linearGradient>
<linearGradient id="paint1_linear_1642_26" x1="33.0359" y1="19.2011" x2="8.83896" y2="19.2011" gradientUnits="userSpaceOnUse">
<stop stop-color="#FFE000"/>
<stop offset="0.4087" stop-color="#FFBD00"/>
<stop offset="0.7754" stop-color="#FFA500"/>
<stop offset="1" stop-color="#FF9C00"/>
</linearGradient>
<linearGradient id="paint2_linear_1642_26" x1="24.0285" y1="21.4954" x2="1.27016" y2="44.2537" gradientUnits="userSpaceOnUse">
<stop stop-color="#FF3A44"/>
<stop offset="1"/>
</linearGradient>
<linearGradient id="paint3_linear_1642_26" x1="6.49876" y1="-0.62388" x2="16.6614" y2="9.53862" gradientUnits="userSpaceOnUse">
<stop stop-color="#32A071"/>
<stop offset="0.0685" stop-color="#2DA771"/>
<stop offset="0.4762" stop-color="#15CF74"/>
<stop offset="0.8009" stop-color="#06E775"/>
<stop offset="1" stop-color="#00F076"/>
</linearGradient>
</defs>
</svg>
