<svg width="118" height="38" viewBox="0 0 118 38" fill="none" xmlns="http://www.w3.org/2000/svg">
<path d="M23.7998 19.2994C23.7998 17.5994 24.6998 15.9994 26.1998 15.0994C25.2998 13.7994 23.7998 12.9994 22.1998 12.8994C20.4998 12.6994 18.8998 13.8994 17.9998 13.8994C17.0998 13.8994 15.7998 12.8994 14.3998 12.8994C12.4998 12.9994 10.7998 13.9994 9.89984 15.5994C7.99984 18.8994 9.39984 23.8994 11.2998 26.5994C12.1998 27.8994 13.2998 29.3994 14.6998 29.3994C16.0998 29.2994 16.5998 28.4994 18.2998 28.4994C19.9998 28.4994 20.3998 29.3994 21.8998 29.3994C23.3998 29.3994 24.2998 28.0994 25.1998 26.6994C25.8998 25.7994 26.3998 24.6994 26.6998 23.5994C24.8998 22.9994 23.7998 21.1994 23.7998 19.2994Z" fill="#EFECEC"/>
<path d="M21.0003 11.1992C21.8003 10.1992 22.2003 8.99922 22.1003 7.69922C20.9003 7.79922 19.7003 8.39922 18.9003 9.39922C18.1003 10.2992 17.7003 11.4992 17.8003 12.7992C19.1003 12.7992 20.2003 12.1992 21.0003 11.1992Z" fill="#EFECEC"/>
<path d="M41.3 26.0996H36.6L35.5 29.4996H33.5L38 17.0996H40L44.5 29.4996H42.5L41.3 26.0996ZM37.1 24.5996H40.9L39 19.0996H38.9L37.1 24.5996Z" fill="#EFECEC"/>
<path d="M54.1992 25.0003C54.1992 27.8003 52.6992 29.6003 50.3992 29.6003C49.1992 29.7003 48.0992 29.0003 47.5992 28.0003V32.5003H45.6992V20.5003H47.4992V22.0003C48.0992 21.0003 49.1992 20.4003 50.3992 20.4003C52.5992 20.3003 54.1992 22.2003 54.1992 25.0003ZM52.1992 25.0003C52.1992 23.2003 51.2992 22.0003 49.7992 22.0003C48.3992 22.0003 47.3992 23.2003 47.3992 25.0003C47.3992 26.8003 48.3992 28.0003 49.7992 28.0003C51.2992 28.0003 52.1992 26.8003 52.1992 25.0003Z" fill="#EFECEC"/>
<path d="M64.1016 25.0003C64.1016 27.8003 62.6016 29.6003 60.3016 29.6003C59.1016 29.7003 58.0016 29.0003 57.5016 28.0003V32.5003H55.6016V20.5003H57.4016V22.0003C58.0016 21.0003 59.1016 20.4003 60.3016 20.4003C62.6016 20.3003 64.1016 22.2003 64.1016 25.0003ZM62.2016 25.0003C62.2016 23.2003 61.3016 22.0003 59.8016 22.0003C58.4016 22.0003 57.4016 23.2003 57.4016 25.0003C57.4016 26.8003 58.4016 28.0003 59.8016 28.0003C61.3016 28.0003 62.2016 26.8003 62.2016 25.0003Z" fill="#EFECEC"/>
<path d="M70.7 26.0004C70.8 27.2004 72 28.0004 73.7 28.0004C75.3 28.0004 76.4 27.2004 76.4 26.1004C76.4 25.1004 75.7 24.6004 74.1 24.2004L72.5 23.8004C70.2 23.2004 69.2 22.2004 69.2 20.5004C69.2 18.4004 71.1 16.9004 73.7 16.9004C76.3 16.9004 78.1 18.4004 78.2 20.5004H76.3C76.2 19.3004 75.2 18.5004 73.7 18.5004C72.2 18.5004 71.2 19.3004 71.2 20.4004C71.2 21.3004 71.9 21.8004 73.5 22.2004L74.9 22.5004C77.4 23.1004 78.5 24.1004 78.5 25.9004C78.5 28.2004 76.6 29.7004 73.7 29.7004C70.9 29.7004 69.1 28.3004 69 26.0004H70.7Z" fill="#EFECEC"/>
<path d="M82.2992 18.3008V20.4008H83.9992V21.9008H82.2992V26.9008C82.2992 27.7008 82.5992 28.0008 83.3992 28.0008H83.9992V29.5008C83.6992 29.6008 83.2992 29.6008 82.9992 29.6008C81.1992 29.6008 80.4992 28.9008 80.4992 27.2008V22.0008H79.1992V20.5008H80.4992V18.4008H82.2992V18.3008Z" fill="#EFECEC"/>
<path d="M85.1016 25.0004C85.1016 22.2004 86.8016 20.4004 89.4016 20.4004C92.0016 20.4004 93.7016 22.2004 93.7016 25.0004C93.7016 27.9004 92.0016 29.6004 89.4016 29.6004C86.7016 29.6004 85.1016 27.8004 85.1016 25.0004ZM91.8016 25.0004C91.8016 23.0004 90.9016 21.9004 89.4016 21.9004C87.9016 21.9004 87.0016 23.0004 87.0016 25.0004C87.0016 27.0004 87.9016 28.1004 89.4016 28.1004C90.9016 28.1004 91.8016 26.9004 91.8016 25.0004Z" fill="#EFECEC"/>
<path d="M95.1992 20.4001H96.9992V22.0001C97.1992 21.0001 98.1992 20.3001 99.1992 20.4001C99.3992 20.4001 99.5992 20.4001 99.7992 20.5001V22.2001C99.4992 22.1001 99.2992 22.0001 98.9992 22.0001C97.9992 22.0001 97.0992 22.8001 97.0992 23.8001V24.1001V29.5001H95.1992V20.4001Z" fill="#EFECEC"/>
<path d="M108.399 26.8008C108.199 28.4008 106.499 29.6008 104.499 29.6008C101.899 29.6008 100.199 27.8008 100.199 25.0008C100.199 22.2008 101.799 20.3008 104.399 20.3008C106.899 20.3008 108.499 22.0008 108.499 24.8008V25.4008H102.099V25.5008C101.999 26.8008 102.899 27.9008 104.199 28.1008H104.499C105.399 28.2008 106.299 27.7008 106.599 26.8008H108.399ZM102.099 24.1008H106.599C106.699 22.9008 105.699 21.9008 104.499 21.8008C104.399 21.8008 104.399 21.8008 104.299 21.8008C103.099 21.8008 102.099 22.8008 102.099 24.1008Z" fill="#EFECEC"/>
<path d="M36.8016 7.69961C38.3016 7.59961 39.5016 8.69961 39.6016 10.0996V10.5996C39.6016 12.4996 38.6016 13.5996 36.8016 13.5996H34.6016V7.59961H36.8016V7.69961ZM35.6016 12.8996H36.7016C37.7016 12.9996 38.6016 12.1996 38.7016 11.0996C38.7016 10.9996 38.7016 10.7996 38.7016 10.6996C38.8016 9.69961 38.1016 8.69961 37.1016 8.59961C37.0016 8.59961 36.9016 8.59961 36.7016 8.59961H35.6016V12.8996Z" fill="#EFECEC"/>
<path d="M40.6998 11.4002C40.5998 10.2002 41.3998 9.20022 42.5998 9.10022C43.7998 9.00022 44.7998 9.80022 44.8998 11.0002V11.4002C44.9998 12.6002 44.1998 13.6002 42.9998 13.7002C41.7998 13.8002 40.7998 13.0002 40.6998 11.8002C40.6998 11.7002 40.6998 11.6002 40.6998 11.4002ZM43.9998 11.4002C43.9998 10.4002 43.5998 9.90022 42.7998 9.90022C41.9998 9.90022 41.5998 10.5002 41.5998 11.4002C41.5998 12.4002 41.9998 13.0002 42.7998 13.0002C43.5998 13.0002 43.9998 12.4002 43.9998 11.4002Z" fill="#EFECEC"/>
<path d="M50.5992 13.6992H49.6992L48.7992 10.3992H48.6992L47.7992 13.6992H46.8992L45.6992 9.19922H46.5992L47.3992 12.5992H47.4992L48.3992 9.19922H49.2992L50.1992 12.5992H50.2992L51.0992 9.19922H51.9992L50.5992 13.6992Z" fill="#EFECEC"/>
<path d="M52.8984 9.20071H53.7984V9.90071H53.8984C54.0984 9.40071 54.6984 9.10071 55.1984 9.10071C55.9984 9.00071 56.6984 9.60071 56.7984 10.5007V10.8007V13.7007H55.8984V11.0007C55.8984 10.3007 55.5984 9.90071 54.8984 9.90071C54.2984 9.90071 53.7984 10.3007 53.7984 10.9007V11.1007V13.7007H52.8984V9.20071Z" fill="#EFECEC"/>
<path d="M58.1016 7.40039H59.0016V13.7004H58.1016V7.40039Z" fill="#EFECEC"/>
<path d="M60.1998 11.4002C60.0998 10.2002 60.8998 9.20022 62.0998 9.10022C63.2998 9.00022 64.2998 9.80022 64.3998 11.0002V11.4002C64.4998 12.6002 63.6998 13.6002 62.4998 13.7002C61.2998 13.8002 60.2998 13.0002 60.1998 11.8002C60.1998 11.7002 60.1998 11.6002 60.1998 11.4002ZM63.4998 11.4002C63.4998 10.4002 63.0998 9.90022 62.2998 9.90022C61.4998 9.90022 61.0998 10.5002 61.0998 11.4002C61.0998 12.4002 61.4998 13.0002 62.2998 13.0002C63.0998 13.0002 63.4998 12.4002 63.4998 11.4002Z" fill="#EFECEC"/>
<path d="M65.4008 12.3996C65.4008 11.5996 66.0008 11.0996 67.1008 11.0996L68.3008 10.9996V10.5996C68.3008 10.0996 68.0008 9.89961 67.4008 9.89961C66.9008 9.89961 66.6008 10.0996 66.5008 10.3996H65.6008C65.7008 9.59961 66.4008 9.09961 67.4008 9.09961C68.5008 9.09961 69.2008 9.69961 69.2008 10.5996V13.6996H68.3008V13.0996H68.2008C67.9008 13.5996 67.4008 13.7996 66.8008 13.7996C66.1008 13.8996 65.4008 13.2996 65.3008 12.5996C65.4008 12.4996 65.4008 12.4996 65.4008 12.3996ZM68.3008 11.9996V11.5996L67.2008 11.6996C66.6008 11.6996 66.3008 11.9996 66.3008 12.2996C66.3008 12.6996 66.7008 12.8996 67.1008 12.8996C67.7008 13.0996 68.2008 12.6996 68.3008 11.9996C68.3008 12.0996 68.3008 12.0996 68.3008 11.9996Z" fill="#EFECEC"/>
<path d="M70.3008 11.4004C70.3008 10.0004 71.0008 9.10039 72.2008 9.10039C72.8008 9.10039 73.3008 9.40039 73.6008 9.90039H73.7008V7.40039H74.6008V13.7004H73.7008V13.0004H73.6008C73.3008 13.5004 72.8008 13.8004 72.2008 13.8004C71.1008 13.8004 70.3008 12.9004 70.3008 11.4004ZM71.3008 11.4004C71.3008 12.4004 71.8008 12.9004 72.5008 12.9004C73.2008 12.9004 73.7008 12.3004 73.7008 11.4004C73.7008 10.5004 73.2008 9.90039 72.5008 9.90039C71.7008 9.90039 71.3008 10.5004 71.3008 11.4004Z" fill="#EFECEC"/>
<path d="M78.1998 11.4002C78.0998 10.2002 78.8998 9.20022 80.0998 9.10022C81.2998 9.00022 82.2998 9.80022 82.3998 11.0002V11.4002C82.4998 12.6002 81.6998 13.6002 80.4998 13.7002C79.2998 13.8002 78.2998 13.0002 78.1998 11.8002C78.1998 11.7002 78.1998 11.6002 78.1998 11.4002ZM81.5998 11.4002C81.5998 10.4002 81.1998 9.90022 80.3998 9.90022C79.5998 9.90022 79.1998 10.5002 79.1998 11.4002C79.1998 12.4002 79.5998 13.0002 80.3998 13.0002C81.0998 13.0002 81.5998 12.4002 81.5998 11.4002Z" fill="#EFECEC"/>
<path d="M83.6992 9.20071H84.5992V9.90071H84.6992C84.8992 9.40071 85.4992 9.10071 85.9992 9.10071C86.7992 9.00071 87.4992 9.60071 87.5992 10.5007V10.8007V13.7007H86.6992V11.0007C86.6992 10.3007 86.3992 9.90071 85.6992 9.90071C85.0992 9.90071 84.5992 10.3007 84.5992 10.9007V11.1007V13.7007H83.6992V9.20071Z" fill="#EFECEC"/>
<path d="M92.5008 8.09961V9.19961H93.5008V9.99961H92.5008V12.2996C92.5008 12.7996 92.7008 12.9996 93.1008 12.9996H93.4008V13.6996C93.2008 13.6996 93.1008 13.6996 92.9008 13.6996C91.9008 13.6996 91.5008 13.3996 91.5008 12.4996V9.99961H90.8008V9.19961H91.5008V8.09961H92.5008Z" fill="#EFECEC"/>
<path d="M94.6992 7.40039H95.5992V9.90039H95.6992C95.8992 9.40039 96.4992 9.00039 97.0992 9.10039C97.8992 9.10039 98.5992 9.70039 98.6992 10.5004V10.8004V13.7004H97.7992V11.0004C97.7992 10.3004 97.4992 9.90039 96.7992 9.90039C96.1992 9.90039 95.6992 10.3004 95.6992 10.9004V11.1004V13.7004H94.7992L94.6992 7.40039Z" fill="#EFECEC"/>
<path d="M103.799 12.4992C103.599 13.2992 102.699 13.8992 101.799 13.7992C100.699 13.7992 99.6986 12.8992 99.6986 11.7992C99.6986 11.6992 99.6986 11.5992 99.6986 11.4992C99.4986 10.3992 100.299 9.29922 101.499 9.19922H101.799C103.099 9.19922 103.799 10.0992 103.799 11.4992V11.7992H100.599C100.499 12.4992 100.999 12.9992 101.699 13.0992H101.799C102.199 13.1992 102.699 12.8992 102.899 12.5992L103.799 12.4992ZM100.599 10.9992H102.899C102.899 10.3992 102.499 9.89922 101.899 9.79922H101.799C101.199 9.89922 100.599 10.3992 100.599 10.9992Z" fill="#EFECEC"/>
</svg>
