<svg width="512" height="512" viewBox="0 0 512 512" fill="none" xmlns="http://www.w3.org/2000/svg">
<g clip-path="url(#clip0_4683_350)">
<mask id="mask0_4683_350" style="mask-type:luminance" maskUnits="userSpaceOnUse" x="0" y="0" width="512" height="512">
<path d="M512 0H0V512H512V0Z" fill="white"/>
</mask>
<g mask="url(#mask0_4683_350)">
<path d="M467.039 0H44.9606C20.1296 0 0 20.1296 0 44.9606V467.039C0 491.87 20.1296 512 44.9606 512H467.039C491.87 512 512 491.87 512 467.039V44.9606C512 20.1296 491.87 0 467.039 0Z" fill="url(#paint0_linear_4683_350)"/>
<path d="M246.36 135.671L387.472 216.575L244.479 103.686L69.5 241.035L218.138 405.845L376.183 274.901C373.439 283.134 372.571 301.372 372.439 311.659C372.417 313.301 371.34 314.75 369.782 315.268C317.163 332.765 289.859 368.519 281.418 386.888C280.676 388.502 278.973 389.442 277.198 389.345C268.857 388.891 259.677 391.76 255.768 393.435C258.778 393.435 275.837 403.47 283.99 408.487C317.104 357.311 368.03 331.973 389.353 325.702C386.565 315.943 392.171 280.68 396.003 260.58C396.448 258.247 394.664 256.087 392.289 256.087H375.519C374.728 256.087 373.956 256.336 373.315 256.8L218.138 368.975L101.485 241.035L246.36 135.671Z" fill="white"/>
<path d="M238.834 256.086C226.364 256.086 216.256 246.82 216.256 235.39C216.256 223.959 226.364 214.693 238.834 214.693C247.607 214.693 255.212 219.281 258.95 225.982H385.855C396.866 225.982 408.223 227.654 416.521 234.891C427.521 244.485 438.652 261.093 438.33 285.852C442.867 288.944 445.798 293.844 445.798 299.36C445.798 306.304 441.154 312.272 434.509 314.885C434.509 332.737 441.182 349.944 453.219 363.127L462.515 373.308C466.926 378.139 463.499 385.909 456.957 385.909H442.035C427.487 385.909 415.694 374.116 415.694 359.568V312.908C411.124 309.819 408.168 304.9 408.168 299.36C408.168 293.004 412.059 287.465 417.815 284.569C420.119 267.937 416.482 257.52 411.754 251.489C407.009 245.435 398.625 244.797 390.933 244.797H258.95C255.212 251.498 247.607 256.086 238.834 256.086Z" fill="white"/>
</g>
</g>
<defs>
<linearGradient id="paint0_linear_4683_350" x1="256" y1="0" x2="256" y2="512" gradientUnits="userSpaceOnUse">
<stop stop-color="#3EC0FF"/>
<stop offset="1" stop-color="#2887B6"/>
</linearGradient>
<clipPath id="clip0_4683_350">
<rect width="512" height="512" fill="white"/>
</clipPath>
</defs>
</svg>
