<svg fill="none" height="410" viewBox="0 0 540 410" width="540" xmlns="http://www.w3.org/2000/svg"><path d="m0 0h540v410h-540z" fill="#fcf7f4"/><path d="m171.901 53.657h-4.801l-.825 2.343h-1.964l4.109-11.484h2.178l4.108 11.484h-1.98zm-.528-1.5345-1.864-5.3295-1.881 5.3295zm6.5-3.894c.275-.462.638-.8195 1.089-1.0725.462-.264 1.007-.396 1.634-.396v1.947h-.479c-.737 0-1.298.187-1.683.561-.374.374-.561 1.023-.561 1.947v4.785h-1.881v-9.0915h1.881zm4.909-2.5245c-.341 0-.627-.1155-.858-.3465s-.347-.517-.347-.858.116-.627.347-.858.517-.3465.858-.3465c.33 0 .61.1155.841.3465s.347.517.347.858-.116.627-.347.858-.511.3465-.841.3465zm.924 1.2045v9.0915h-1.881v-9.0915zm10.302 4.323c0 .341-.022.649-.066.924h-6.947c.055.726.325 1.309.809 1.749s1.078.66 1.782.66c1.012 0 1.727-.4235 2.145-1.2705h2.029c-.275.836-.775 1.5235-1.501 2.0625-.715.528-1.606.792-2.673.792-.869 0-1.65-.1925-2.343-.5775-.682-.396-1.221-.946-1.617-1.65-.385-.715-.578-1.54-.578-2.475s.187-1.7545.561-2.4585c.385-.715.919-1.265 1.601-1.65.693-.385 1.485-.5775 2.376-.5775.858 0 1.622.187 2.293.561s1.194.902 1.568 1.584c.374.671.561 1.4465.561 2.3265zm-1.964-.594c-.011-.693-.258-1.2485-.742-1.6665s-1.084-.627-1.799-.627c-.649 0-1.204.209-1.666.627-.462.407-.737.9625-.825 1.6665zm5.196-6.8475v12.21h-1.881v-12.21zm17.834.7425v11.4675h-1.881v-7.854l-3.498 7.854h-1.304l-3.514-7.854v7.854h-1.881v-11.4675h2.029l4.026 8.9925 4.01-8.9925zm1.345 6.8805c0-.913.187-1.7215.561-2.4255.385-.704.902-1.2485 1.551-1.6335.66-.396 1.386-.594 2.178-.594.715 0 1.337.143 1.865.429.539.275.968.6215 1.287 1.0395v-1.32h1.897v9.0915h-1.897v-1.353c-.319.429-.754.7865-1.304 1.0725s-1.177.429-1.881.429c-.781 0-1.496-.198-2.145-.594-.649-.407-1.166-.968-1.551-1.683-.374-.726-.561-1.5455-.561-2.4585zm7.442.033c0-.627-.132-1.1715-.396-1.6335-.253-.462-.589-.814-1.007-1.056s-.869-.363-1.353-.363-.935.121-1.353.363c-.418.231-.759.5775-1.023 1.0395-.253.451-.379.99-.379 1.617s.126 1.177.379 1.65c.264.473.605.836 1.023 1.089.429.242.88.363 1.353.363.484 0 .935-.121 1.353-.363s.754-.594 1.007-1.056c.264-.473.396-1.023.396-1.65zm5.534 3.0195h4.125v1.5345h-6.303v-1.5345l4.142-6.0225h-4.142v-1.5345h6.303v1.5345zm9.544 1.683c-.858 0-1.634-.1925-2.327-.5775-.693-.396-1.237-.946-1.633-1.65-.396-.715-.594-1.54-.594-2.475 0-.924.203-1.7435.61-2.4585s.963-1.265 1.667-1.65 1.49-.5775 2.359-.5775 1.656.1925 2.36.5775 1.259.935 1.666 1.65.611 1.5345.611 2.4585-.209 1.7435-.627 2.4585-.99 1.2705-1.716 1.6665c-.715.385-1.507.5775-2.376.5775zm0-1.6335c.484 0 .935-.1155 1.353-.3465.429-.231.775-.5775 1.039-1.0395s.396-1.023.396-1.683-.126-1.2155-.379-1.6665c-.253-.462-.589-.8085-1.007-1.0395s-.869-.3465-1.353-.3465-.935.1155-1.353.3465c-.407.231-.731.5775-.973 1.0395-.242.451-.363 1.0065-.363 1.6665 0 .979.247 1.738.742 2.277.506.528 1.139.792 1.898.792zm7.959-6.2865c.275-.462.638-.8195 1.089-1.0725.462-.264 1.007-.396 1.634-.396v1.947h-.479c-.737 0-1.298.187-1.683.561-.374.374-.561 1.023-.561 1.947v4.785h-1.881v-9.0915h1.881z" fill="#1f8df1"/><path d="m33.768 50.4c0-1.0987.24-2.08.72-2.944.48-.8747 1.136-1.552 1.968-2.032.832-.4907 1.76-.736 2.784-.736 1.248 0 2.3147.2987 3.2.896.896.5867 1.5467 1.4187 1.952 2.496h-1.312c-.32-.7573-.8107-1.3493-1.472-1.776-.6507-.4267-1.44-.64-2.368-.64-.8213 0-1.5627.192-2.224.576-.6507.384-1.1627.9387-1.536 1.664-.3733.7147-.56 1.5467-.56 2.496s.1867 1.7813.56 2.496.8853 1.264 1.536 1.648c.6613.384 1.4027.576 2.224.576.928 0 1.7173-.208 2.368-.624.6613-.4267 1.152-1.0133 1.472-1.76h1.312c-.4053 1.0667-1.056 1.8933-1.952 2.48s-1.9627.88-3.2.88c-1.024 0-1.952-.24-2.784-.72-.832-.4907-1.488-1.168-1.968-2.032s-.72-1.8453-.72-2.944zm13.9758-1.584c.2453-.544.6186-.9653 1.12-1.264.512-.2987 1.136-.448 1.872-.448v1.168h-.304c-.8107 0-1.4614.2187-1.952.656-.4907.4373-.736 1.168-.736 2.192v4.88h-1.12v-8.736h1.12zm12.5808 2.368c0 .384-.0106.6773-.032.88h-7.248c.032.6613.192 1.2267.48 1.696s.6667.8267 1.136 1.072c.4694.2347.9814.352 1.536.352.7254 0 1.3334-.176 1.824-.528.5014-.352.832-.8267.992-1.424h1.184c-.2133.8533-.672 1.552-1.376 2.096-.6933.5333-1.568.8-2.624.8-.8213 0-1.5573-.1813-2.208-.544-.6506-.3733-1.1626-.896-1.536-1.568-.3626-.6827-.544-1.4773-.544-2.384s.1814-1.7013.544-2.384c.3627-.6827.8694-1.2053 1.52-1.568.6507-.3627 1.392-.544 2.224-.544s1.5574.1813 2.176.544c.6294.3627 1.1094.8533 1.44 1.472.3414.608.512 1.2853.512 2.032zm-1.136-.032c.0107-.6507-.1226-1.2053-.4-1.664-.2666-.4587-.6346-.8053-1.104-1.04-.4693-.2347-.9813-.352-1.536-.352-.832 0-1.5413.2667-2.128.8-.5866.5333-.912 1.2853-.976 2.256zm2.6732.464c0-.896.176-1.68.528-2.352.3626-.6827.8586-1.2053 1.488-1.568.64-.3733 1.36-.56 2.16-.56.832 0 1.5466.192 2.144.576.608.384 1.0453.8747 1.312 1.472v-1.92h1.12v8.736h-1.12v-1.936c-.2774.5973-.72 1.0933-1.328 1.488-.5974.384-1.312.576-2.144.576-.7894 0-1.504-.1867-2.144-.56-.6294-.3733-1.1254-.9013-1.488-1.584-.352-.6827-.528-1.472-.528-2.368zm7.632.016c0-.704-.144-1.3227-.432-1.856s-.6827-.944-1.184-1.232c-.4907-.288-1.0347-.432-1.632-.432-.6187 0-1.1734.1387-1.664.416-.4907.2773-.88.6827-1.168 1.216-.2774.5227-.416 1.1467-.416 1.872 0 .7147.1386 1.344.416 1.888.288.5333.6773.944 1.168 1.232.4906.2773 1.0453.416 1.664.416.5973 0 1.1413-.144 1.632-.432.5013-.288.896-.6987 1.184-1.232s.432-1.152.432-1.856zm5.1328-3.424v5.424c0 .5333.1014.9013.304 1.104.2027.2027.56.304 1.072.304h1.024v.96h-1.2c-.7893 0-1.376-.1813-1.76-.544-.384-.3733-.576-.9813-.576-1.824v-5.424h-1.216v-.944h1.216v-2.192h1.136v2.192h2.4v.944zm12.1512 2.976c0 .384-.0107.6773-.032.88h-7.248c.032.6613.192 1.2267.48 1.696s.6666.8267 1.136 1.072c.4693.2347.9813.352 1.536.352.7253 0 1.3333-.176 1.824-.528.5013-.352.832-.8267.992-1.424h1.184c-.2134.8533-.672 1.552-1.376 2.096-.6934.5333-1.568.8-2.624.8-.8214 0-1.5574-.1813-2.208-.544-.6507-.3733-1.1627-.896-1.536-1.568-.3627-.6827-.544-1.4773-.544-2.384s.1813-1.7013.544-2.384c.3626-.6827.8693-1.2053 1.52-1.568.6506-.3627 1.392-.544 2.224-.544s1.5573.1813 2.176.544c.6293.3627 1.1093.8533 1.44 1.472.3413.608.512 1.2853.512 2.032zm-1.136-.032c.0106-.6507-.1227-1.2053-.4-1.664-.2667-.4587-.6347-.8053-1.104-1.04-.4694-.2347-.9814-.352-1.536-.352-.832 0-1.5414.2667-2.128.8-.5867.5333-.912 1.2853-.976 2.256zm8.6957-6.992v11.84h-1.12v-11.84zm10.4405 7.024c0 .384-.011.6773-.032.88h-7.2482c.032.6613.192 1.2267.48 1.696s.6666.8267 1.136 1.072c.4693.2347.9812.352 1.5362.352.725 0 1.333-.176 1.824-.528.501-.352.832-.8267.992-1.424h1.184c-.214.8533-.672 1.552-1.376 2.096-.694.5333-1.568.8-2.624.8-.8216 0-1.5576-.1813-2.2082-.544-.6507-.3733-1.1627-.896-1.536-1.568-.3627-.6827-.544-1.4773-.544-2.384s.1813-1.7013.544-2.384c.3626-.6827.8693-1.2053 1.52-1.568.6506-.3627 1.392-.544 2.2242-.544.832 0 1.557.1813 2.176.544.629.3627 1.109.8533 1.44 1.472.341.608.512 1.2853.512 2.032zm-1.136-.032c.01-.6507-.123-1.2053-.4-1.664-.267-.4587-.635-.8053-1.104-1.04-.47-.2347-.982-.352-1.536-.352-.8322 0-1.5416.2667-2.1282.8-.5867.5333-.912 1.2853-.976 2.256zm6.193 4.976c-1.003 0-1.824-.2293-2.464-.688-.629-.4693-.981-1.104-1.056-1.904h1.152c.053.4907.283.8907.688 1.2.416.2987.971.448 1.664.448.608 0 1.083-.144 1.424-.432.352-.288.528-.6453.528-1.072 0-.2987-.096-.544-.288-.736s-.437-.3413-.736-.448c-.288-.1173-.683-.24-1.184-.368-.651-.1707-1.179-.3413-1.584-.512s-.752-.4213-1.04-.752c-.277-.3413-.416-.7947-.416-1.36 0-.4267.128-.8213.384-1.184s.619-.6507 1.088-.864 1.003-.32 1.6-.32c.939 0 1.696.24 2.272.72.576.4693.885 1.12.928 1.952h-1.12c-.032-.512-.235-.9227-.608-1.232-.363-.32-.864-.48-1.504-.48-.565 0-1.024.1333-1.376.4s-.528.5973-.528.992c0 .3413.101.624.304.848.213.2133.475.384.784.512.309.1173.725.2507 1.248.4.629.1707 1.131.336 1.504.496s.693.3947.96.704.405.72.416 1.232c0 .4693-.128.8907-.384 1.264-.256.3627-.613.6507-1.072.864s-.987.32-1.584.32zm8.156 0c-1.003 0-1.824-.2293-2.464-.688-.629-.4693-.981-1.104-1.056-1.904h1.152c.053.4907.283.8907.688 1.2.416.2987.971.448 1.664.448.608 0 1.083-.144 1.424-.432.352-.288.528-.6453.528-1.072 0-.2987-.096-.544-.288-.736s-.437-.3413-.736-.448c-.288-.1173-.683-.24-1.184-.368-.651-.1707-1.179-.3413-1.584-.512s-.752-.4213-1.04-.752c-.277-.3413-.416-.7947-.416-1.36 0-.4267.128-.8213.384-1.184s.619-.6507 1.088-.864 1.003-.32 1.6-.32c.939 0 1.696.24 2.272.72.576.4693.885 1.12.928 1.952h-1.12c-.032-.512-.235-.9227-.608-1.232-.363-.32-.864-.48-1.504-.48-.565 0-1.024.1333-1.376.4s-.528.5973-.528.992c0 .3413.101.624.304.848.213.2133.475.384.784.512.309.1173.725.2507 1.248.4.629.1707 1.131.336 1.504.496s.693.3947.96.704.405.72.416 1.232c0 .4693-.128.8907-.384 1.264-.256.3627-.613.6507-1.072.864s-.987.32-1.584.32zm8.972 0c-.821 0-1.562-.1813-2.224-.544-.65-.3733-1.168-.896-1.552-1.568-.373-.6827-.56-1.4773-.56-2.384s.192-1.696.576-2.368c.384-.6827.907-1.2053 1.568-1.568.662-.3733 1.403-.56 2.224-.56.822 0 1.563.1867 2.224.56.672.3627 1.195.8853 1.568 1.568.384.672.576 1.4613.576 2.368 0 .896-.192 1.6853-.576 2.368s-.912 1.2107-1.584 1.584c-.672.3627-1.418.544-2.24.544zm0-.976c.576 0 1.11-.128 1.6-.384.491-.2667.886-.6613 1.184-1.184.31-.5333.464-1.184.464-1.952s-.149-1.4133-.448-1.936c-.298-.5333-.693-.928-1.184-1.184-.49-.2667-1.024-.4-1.6-.4s-1.109.1333-1.6.4c-.49.256-.885.6507-1.184 1.184-.288.5227-.432 1.168-.432 1.936s.144 1.4187.432 1.952c.299.5227.688.9173 1.168 1.184.491.256 1.024.384 1.6.384zm10.538-8.048c1.045 0 1.899.3253 2.56.976.661.64.992 1.5733.992 2.8v5.12h-1.104v-4.992c0-.9493-.24-1.6747-.72-2.176-.469-.5013-1.115-.752-1.936-.752-.843 0-1.515.2667-2.016.8s-.752 1.3173-.752 2.352v4.768h-1.12v-8.736h1.12v1.488c.277-.5333.677-.9387 1.2-1.216.523-.288 1.115-.432 1.776-.432z" fill="#000"/><path d="m153 37h.75v26h-.75z" fill="#000"/><path d="m31 76h467v1h-467z" fill="#ff5e1a"/><g opacity=".4"><path d="m128.243 121.656c-.418 0-.794-.073-1.127-.218-.328-.152-.585-.358-.773-.618-.188-.267-.285-.573-.291-.919h.882c.03.297.151.549.364.755.218.2.533.3.945.3.394 0 .703-.097.927-.291.231-.2.346-.455.346-.764 0-.242-.067-.439-.2-.591-.133-.151-.3-.266-.5-.345s-.47-.164-.809-.255c-.419-.109-.755-.218-1.009-.327-.249-.109-.464-.279-.646-.509-.176-.236-.264-.552-.264-.946 0-.345.088-.651.264-.918.176-.266.421-.473.736-.618.322-.145.688-.218 1.101-.218.594 0 1.078.148 1.454.445.382.297.597.691.646 1.182h-.909c-.031-.242-.158-.454-.382-.636-.225-.188-.522-.282-.891-.282-.346 0-.628.091-.846.273-.218.175-.327.424-.327.745 0 .23.064.418.191.564.133.145.294.257.482.336.194.073.463.158.809.255.418.115.754.23 1.009.345.255.109.473.282.655.518.181.231.272.546.272.946 0 .309-.082.6-.245.873-.164.273-.406.494-.727.663-.322.17-.701.255-1.137.255zm7.745-5.046v4.982h-.827v-.736c-.158.255-.379.455-.664.6-.279.139-.588.209-.927.209-.388 0-.736-.079-1.046-.236-.309-.164-.554-.406-.736-.728-.176-.321-.264-.712-.264-1.172v-2.919h.819v2.81c0 .49.124.869.372 1.136.249.261.588.391 1.019.391.442 0 .791-.136 1.045-.409.255-.273.382-.67.382-1.191v-2.737zm3.825-.091c.606 0 1.097.185 1.472.555.376.364.564.891.564 1.582v2.936h-.818v-2.818c0-.497-.124-.876-.373-1.136-.248-.267-.588-.4-1.018-.4-.437 0-.785.136-1.046.409-.254.272-.381.669-.381 1.191v2.754h-.828v-4.982h.828v.709c.163-.254.384-.451.663-.591.285-.139.597-.209.937-.209z" fill="#999"/><path d="m126.519 147.78c1.155-.927 2.059-1.686 2.714-2.277.654-.6 1.204-1.223 1.65-1.869.454-.654.682-1.295.682-1.923 0-.591-.146-1.054-.437-1.391-.281-.345-.741-.518-1.377-.518-.618 0-1.1.196-1.446.587-.336.381-.518.895-.545 1.541h-1.2c.036-1.019.345-1.805.927-2.36.582-.554 1.332-.832 2.25-.832.937 0 1.678.26 2.223.778.555.518.832 1.232.832 2.141 0 .754-.227 1.491-.682 2.209-.445.709-.954 1.337-1.527 1.882-.573.536-1.305 1.164-2.196 1.882h4.692v1.036h-6.56zm7.694-1.2v-.941l4.787-6.628h1.486v6.492h1.364v1.077h-1.364v2.196h-1.227v-2.196zm5.1-6.273-3.668 5.196h3.668z" fill="#000"/></g><g opacity=".4"><path d="m176.619 115.301v6.291h-.827v-4.691l-2.091 4.691h-.582l-2.1-4.7v4.7h-.827v-6.291h.89l2.328 5.2 2.327-5.2zm3.576 6.373c-.467 0-.891-.106-1.273-.318-.375-.212-.672-.512-.891-.9-.212-.394-.318-.849-.318-1.364 0-.509.109-.957.327-1.345.225-.394.528-.694.91-.9.381-.213.809-.319 1.282-.319.472 0 .9.106 1.281.319.382.206.682.503.9.891.225.388.337.839.337 1.354s-.115.97-.346 1.364c-.224.388-.53.688-.918.9s-.818.318-1.291.318zm0-.727c.297 0 .576-.07.837-.209.26-.14.469-.349.627-.628.164-.278.245-.618.245-1.018s-.078-.739-.236-1.018-.364-.485-.618-.618c-.255-.14-.531-.209-.828-.209-.303 0-.581.069-.836.209-.248.133-.448.339-.6.618s-.227.618-.227 1.018c0 .406.072.749.218 1.028.151.278.351.487.6.627.248.133.521.2.818.2zm6.07-4.428c.606 0 1.097.185 1.473.555.376.364.564.891.564 1.582v2.936h-.819v-2.818c0-.497-.124-.876-.372-1.136-.249-.267-.588-.4-1.019-.4-.436 0-.785.136-1.045.409-.255.272-.382.669-.382 1.191v2.754h-.827v-4.982h.827v.709c.164-.254.385-.451.664-.591.285-.139.597-.209.936-.209z" fill="#999"/><path d="m171.983 147.78c1.155-.927 2.06-1.686 2.714-2.277.655-.6 1.205-1.223 1.65-1.869.455-.654.682-1.295.682-1.923 0-.591-.145-1.054-.436-1.391-.282-.345-.741-.518-1.378-.518-.618 0-1.1.196-1.445.587-.337.381-.518.895-.546 1.541h-1.2c.037-1.019.346-1.805.928-2.36.581-.554 1.331-.832 2.25-.832.936 0 1.677.26 2.223.778.554.518.831 1.232.831 2.141 0 .754-.227 1.491-.681 2.209-.446.709-.955 1.337-1.528 1.882-.573.536-1.304 1.164-2.195 1.882h4.691v1.036h-6.56zm14.281-7.787h-4.787v3.109c.21-.291.519-.527.928-.709.409-.191.85-.286 1.323-.286.754 0 1.368.159 1.841.477.472.309.809.714 1.009 1.214.209.491.313 1.014.313 1.568 0 .655-.122 1.241-.368 1.759-.245.519-.622.928-1.132 1.228-.5.3-1.122.45-1.868.45-.955 0-1.727-.246-2.318-.737s-.95-1.145-1.078-1.963h1.214c.118.518.368.922.75 1.213s.864.437 1.446.437c.718 0 1.259-.214 1.623-.641.363-.437.545-1.009.545-1.719 0-.709-.182-1.254-.545-1.636-.364-.391-.901-.586-1.61-.586-.481 0-.904.118-1.268.354-.354.227-.614.541-.777.941h-1.173v-5.564h5.932z" fill="#000"/></g><path d="m221.049 115.256v.672h-1.727v5.664h-.827v-5.664h-1.737v-.672zm5.437 1.354v4.982h-.827v-.736c-.158.255-.379.455-.664.6-.279.139-.588.209-.927.209-.388 0-.736-.079-1.046-.236-.309-.164-.554-.406-.736-.728-.176-.321-.264-.712-.264-1.172v-2.919h.819v2.81c0 .49.124.869.372 1.136.249.261.588.391 1.019.391.442 0 .791-.136 1.045-.409.255-.273.382-.67.382-1.191v-2.737zm5.943 2.3c0 .158-.009.325-.027.5h-3.982c.03.491.197.876.5 1.155.309.273.681.409 1.118.409.357 0 .654-.082.891-.245.242-.17.412-.394.509-.673h.891c-.133.479-.4.87-.8 1.173-.4.297-.897.445-1.491.445-.473 0-.897-.106-1.273-.318-.37-.212-.661-.512-.873-.9-.212-.394-.318-.849-.318-1.364s.103-.966.309-1.354.494-.685.864-.891c.376-.213.806-.319 1.291-.319.473 0 .891.103 1.255.31.363.206.642.49.836.854.2.358.3.764.3 1.218zm-.855-.172c0-.316-.069-.585-.209-.809-.139-.231-.33-.404-.573-.519-.236-.121-.5-.182-.79-.182-.419 0-.776.134-1.073.401-.291.266-.458.636-.5 1.109z" fill="#999"/><rect fill="#ff9b59" height="28.7898" rx="14.3949" width="30.3051" x="209.797" y="129.381"/><path d="m217.394 147.78c1.155-.927 2.06-1.686 2.714-2.277.655-.6 1.205-1.223 1.65-1.869.455-.654.682-1.295.682-1.923 0-.591-.145-1.054-.436-1.391-.282-.345-.741-.518-1.378-.518-.618 0-1.1.196-1.445.587-.337.381-.518.895-.546 1.541h-1.2c.037-1.019.346-1.805.928-2.36.581-.554 1.331-.832 2.25-.832.936 0 1.677.26 2.223.778.554.518.831 1.232.831 2.141 0 .754-.227 1.491-.681 2.209-.446.709-.955 1.337-1.528 1.882-.573.536-1.304 1.164-2.195 1.882h4.691v1.036h-6.56zm13.49-6.519c-.2-1.009-.823-1.513-1.868-1.513-.809 0-1.414.313-1.814.941-.4.618-.595 1.641-.586 3.068.209-.473.554-.841 1.036-1.105.491-.272 1.037-.409 1.637-.409.936 0 1.682.291 2.236.873.564.582.846 1.386.846 2.414 0 .618-.123 1.173-.368 1.664-.237.491-.601.881-1.091 1.172-.482.291-1.069.437-1.76.437-.936 0-1.668-.209-2.195-.628-.528-.418-.896-.995-1.105-1.731-.209-.737-.314-1.646-.314-2.728 0-3.337 1.164-5.005 3.492-5.005.891 0 1.591.241 2.1.723s.809 1.091.9 1.827zm-1.854 2.032c-.391 0-.76.082-1.105.246-.346.154-.627.395-.846.723-.209.318-.313.709-.313 1.172 0 .691.2 1.255.6 1.691.4.428.973.641 1.718.641.637 0 1.141-.195 1.514-.586.382-.4.573-.936.573-1.609 0-.709-.182-1.264-.546-1.664-.364-.409-.895-.614-1.595-.614z" fill="#fff"/><path d="m268.571 115.256-1.837 6.336h-.927l-1.473-5.1-1.527 5.1-.918.009-1.773-6.345h.882l1.382 5.373 1.527-5.373h.927l1.455 5.355 1.391-5.355zm5.451 3.654c0 .158-.009.325-.027.5h-3.982c.03.491.197.876.5 1.155.309.273.682.409 1.118.409.358 0 .655-.082.891-.245.242-.17.412-.394.509-.673h.891c-.133.479-.4.87-.8 1.173-.4.297-.897.445-1.491.445-.473 0-.897-.106-1.273-.318-.369-.212-.66-.512-.873-.9-.212-.394-.318-.849-.318-1.364s.103-.966.309-1.354.494-.685.864-.891c.376-.213.806-.319 1.291-.319.473 0 .891.103 1.255.31.363.206.642.49.836.854.2.358.3.764.3 1.218zm-.854-.172c0-.316-.07-.585-.21-.809-.139-.231-.33-.404-.572-.519-.237-.121-.5-.182-.791-.182-.419 0-.776.134-1.073.401-.291.266-.458.636-.5 1.109zm1.637.345c0-.509.103-.954.309-1.336.206-.388.488-.688.846-.9.363-.213.769-.319 1.218-.319.388 0 .748.091 1.082.273.333.176.588.409.764.7v-2.636h.836v6.727h-.836v-.936c-.164.297-.407.542-.728.736-.321.188-.697.282-1.127.282-.443 0-.846-.109-1.209-.327-.358-.218-.64-.524-.846-.918s-.309-.843-.309-1.346zm4.219.009c0-.376-.076-.703-.228-.982-.151-.278-.357-.491-.618-.636-.255-.152-.536-.227-.846-.227-.309 0-.59.072-.845.218-.255.145-.458.357-.609.636-.152.279-.227.606-.227.982 0 .382.075.715.227 1 .151.279.354.494.609.646.255.145.536.218.845.218.31 0 .591-.073.846-.218.261-.152.467-.367.618-.646.152-.285.228-.615.228-.991z" fill="#999"/><path d="m263.458 147.78c1.155-.927 2.059-1.686 2.714-2.277.654-.6 1.204-1.223 1.65-1.869.454-.654.682-1.295.682-1.923 0-.591-.146-1.054-.437-1.391-.282-.345-.741-.518-1.377-.518-.618 0-1.1.196-1.446.587-.336.381-.518.895-.545 1.541h-1.2c.036-1.019.345-1.805.927-2.36.582-.554 1.332-.832 2.25-.832.937 0 1.678.26 2.223.778.555.518.832 1.232.832 2.141 0 .754-.227 1.491-.682 2.209-.445.709-.954 1.337-1.527 1.882-.573.536-1.305 1.164-2.196 1.882h4.691v1.036h-6.559zm14.063-7.896-3.792 8.892h-1.254l3.846-8.769h-5.264v-1.064h6.464z" fill="#000"/><path d="m311.965 115.256v.672h-1.728v5.664h-.827v-5.664h-1.737v-.672zm3.491 1.263c.376 0 .715.082 1.018.246.303.157.54.397.709.718.176.321.264.712.264 1.173v2.936h-.818v-2.818c0-.497-.124-.876-.373-1.136-.248-.267-.588-.4-1.018-.4-.437 0-.785.136-1.046.409-.254.272-.382.669-.382 1.191v2.754h-.827v-6.727h.827v2.454c.164-.254.388-.451.673-.591.291-.139.615-.209.973-.209zm7.761.091v4.982h-.827v-.736c-.158.255-.379.455-.664.6-.279.139-.588.209-.927.209-.388 0-.737-.079-1.046-.236-.309-.164-.555-.406-.736-.728-.176-.321-.264-.712-.264-1.172v-2.919h.818v2.81c0 .49.124.869.373 1.136.248.261.588.391 1.018.391.443 0 .791-.136 1.046-.409.254-.273.382-.67.382-1.191v-2.737z" fill="#999"/><path d="m308.336 147.78c1.155-.927 2.059-1.686 2.714-2.277.655-.6 1.205-1.223 1.65-1.869.455-.654.682-1.295.682-1.923 0-.591-.145-1.054-.436-1.391-.282-.345-.741-.518-1.378-.518-.618 0-1.1.196-1.445.587-.337.381-.519.895-.546 1.541h-1.2c.037-1.019.346-1.805.927-2.36.582-.554 1.332-.832 2.251-.832.936 0 1.677.26 2.223.778.554.518.831 1.232.831 2.141 0 .754-.227 1.491-.681 2.209-.446.709-.955 1.337-1.528 1.882-.573.536-1.304 1.164-2.195 1.882h4.691v1.036h-6.56zm9.794-4.132c-.509-.2-.9-.491-1.172-.873-.273-.382-.409-.845-.409-1.391 0-.491.122-.932.368-1.323.245-.4.609-.713 1.091-.941.491-.236 1.082-.354 1.773-.354s1.277.118 1.759.354c.491.228.859.541 1.104.941.255.391.382.832.382 1.323 0 .527-.141.991-.423 1.391-.281.391-.668.682-1.159.873.564.173 1.009.477 1.337.914.336.427.504.945.504 1.554 0 .591-.145 1.109-.436 1.555-.291.436-.705.777-1.241 1.023-.527.236-1.136.354-1.827.354s-1.301-.118-1.828-.354c-.518-.246-.923-.587-1.214-1.023-.29-.446-.436-.964-.436-1.555 0-.609.164-1.132.491-1.568s.773-.736 1.336-.9zm3.696-2.114c0-.554-.182-.982-.545-1.282-.364-.3-.864-.45-1.5-.45-.628 0-1.123.15-1.487.45s-.545.732-.545 1.296c0 .509.186.918.559 1.227.382.309.873.464 1.473.464.609 0 1.1-.155 1.472-.464.382-.318.573-.732.573-1.241zm-2.045 2.659c-.673 0-1.223.159-1.651.478-.427.309-.64.777-.64 1.404 0 .582.204 1.05.613 1.405.418.355.978.532 1.678.532s1.254-.177 1.663-.532.614-.823.614-1.405c0-.609-.209-1.072-.627-1.391-.419-.327-.969-.491-1.65-.491z" fill="#000"/><path d="m360.104 115.256v.672h-2.755v2.137h2.237v.673h-2.237v2.854h-.827v-6.336zm1.827 2.163c.145-.284.351-.506.618-.663.273-.158.603-.237.991-.237v.855h-.218c-.928 0-1.391.503-1.391 1.509v2.709h-.828v-4.982h.828zm2.991-1.618c-.157 0-.291-.054-.4-.164-.109-.109-.163-.242-.163-.4 0-.157.054-.29.163-.4.109-.109.243-.163.4-.163.152 0 .279.054.382.163.109.11.164.243.164.4 0 .158-.055.291-.164.4-.103.11-.23.164-.382.164zm.4.809v4.982h-.827v-4.982z" fill="#999"/><path d="m353.801 147.78c1.154-.927 2.059-1.686 2.713-2.277.655-.6 1.205-1.223 1.65-1.869.455-.654.682-1.295.682-1.923 0-.591-.145-1.054-.436-1.391-.282-.345-.741-.518-1.377-.518-.619 0-1.101.196-1.446.587-.336.381-.518.895-.545 1.541h-1.201c.037-1.019.346-1.805.928-2.36.582-.554 1.332-.832 2.25-.832.936 0 1.677.26 2.223.778.554.518.832 1.232.832 2.141 0 .754-.228 1.491-.682 2.209-.446.709-.955 1.337-1.528 1.882-.572.536-1.304 1.164-2.195 1.882h4.691v1.036h-6.559zm9.589-1.65c.091.518.3.918.628 1.2.336.282.786.423 1.35.423.754 0 1.309-.296 1.663-.887.364-.591.537-1.586.519-2.986-.191.409-.51.732-.955.968-.446.227-.941.341-1.486.341-.61 0-1.155-.123-1.637-.368-.473-.255-.845-.623-1.118-1.105s-.409-1.064-.409-1.745c0-.973.281-1.755.845-2.346.564-.6 1.364-.9 2.4-.9 1.273 0 2.164.413 2.673 1.241.518.827.778 2.059.778 3.696 0 1.145-.105 2.091-.314 2.836-.2.746-.546 1.314-1.037 1.705-.481.391-1.145.586-1.991.586-.927 0-1.65-.25-2.168-.75s-.814-1.136-.886-1.909zm1.923-1.991c.609 0 1.109-.187 1.5-.559.391-.382.587-.896.587-1.541 0-.682-.191-1.232-.573-1.65-.382-.419-.918-.628-1.609-.628-.637 0-1.146.2-1.528.6-.373.4-.559.928-.559 1.582 0 .664.186 1.196.559 1.596s.914.6 1.623.6z" fill="#000"/><path d="m401.989 121.656c-.418 0-.794-.073-1.128-.218-.327-.152-.584-.358-.772-.618-.188-.267-.285-.573-.291-.919h.882c.03.297.151.549.363.755.218.2.534.3.946.3.394 0 .703-.097.927-.291.23-.2.346-.455.346-.764 0-.242-.067-.439-.2-.591-.134-.151-.3-.266-.5-.345s-.47-.164-.81-.255c-.418-.109-.754-.218-1.009-.327-.248-.109-.463-.279-.645-.509-.176-.236-.264-.552-.264-.946 0-.345.088-.651.264-.918.176-.266.421-.473.736-.618.321-.145.688-.218 1.1-.218.594 0 1.079.148 1.455.445.382.297.597.691.645 1.182h-.909c-.03-.242-.157-.454-.382-.636-.224-.188-.521-.282-.891-.282-.345 0-.627.091-.845.273-.218.175-.327.424-.327.745 0 .23.063.418.191.564.133.145.294.257.481.336.194.073.464.158.81.255.418.115.754.23 1.009.345.254.109.472.282.654.518.182.231.273.546.273.946 0 .309-.082.6-.245.873-.164.273-.407.494-.728.663-.321.17-.7.255-1.136.255zm3.017-2.573c0-.509.103-.954.31-1.336.206-.388.487-.688.845-.9.364-.213.767-.319 1.209-.319.437 0 .815.094 1.137.282.321.188.56.425.718.709v-.909h.836v4.982h-.836v-.927c-.164.291-.409.533-.737.727-.321.188-.697.282-1.127.282-.442 0-.842-.109-1.2-.327s-.639-.524-.845-.918c-.207-.394-.31-.843-.31-1.346zm4.219.009c0-.376-.076-.703-.227-.982-.152-.278-.358-.491-.619-.636-.254-.152-.536-.227-.845-.227s-.591.072-.846.218c-.254.145-.457.357-.609.636-.151.279-.227.606-.227.982 0 .382.076.715.227 1 .152.279.355.494.609.646.255.145.537.218.846.218s.591-.073.845-.218c.261-.152.467-.367.619-.646.151-.285.227-.615.227-.991zm3.244-1.8v2.937c0 .242.051.415.154.518.103.097.282.145.537.145h.609v.7h-.746c-.46 0-.806-.106-1.036-.318-.231-.212-.346-.56-.346-1.045v-2.937h-.645v-.682h.645v-1.254h.828v1.254h1.3v.682z" fill="#999"/><path d="m399.301 141.398c.064-.837.386-1.491.968-1.964s1.337-.709 2.264-.709c.618 0 1.15.113 1.595.341.455.218.796.518 1.023.9.237.382.355.814.355 1.295 0 .564-.164 1.05-.491 1.46-.318.409-.737.672-1.255.791v.068c.591.145 1.059.432 1.405.859.345.427.518.986.518 1.677 0 .518-.118.987-.354 1.405-.237.409-.591.732-1.064.968-.473.237-1.041.355-1.705.355-.964 0-1.754-.25-2.373-.75-.618-.509-.963-1.228-1.036-2.155h1.2c.064.545.286.991.668 1.336.382.346.891.519 1.528.519.636 0 1.118-.164 1.445-.491.336-.337.505-.769.505-1.296 0-.682-.228-1.173-.682-1.473-.455-.3-1.141-.45-2.059-.45h-.314v-1.036h.327c.837-.009 1.469-.146 1.896-.409.427-.273.641-.691.641-1.255 0-.482-.159-.868-.478-1.159-.309-.291-.754-.436-1.336-.436-.564 0-1.018.145-1.364.436-.345.291-.55.682-.613 1.173zm8.058 2.345c0-1.563.254-2.782.763-3.654.51-.882 1.4-1.323 2.673-1.323 1.264 0 2.15.441 2.66 1.323.509.872.763 2.091.763 3.654 0 1.591-.254 2.828-.763 3.71-.51.882-1.396 1.323-2.66 1.323-1.273 0-2.163-.441-2.673-1.323-.509-.882-.763-2.119-.763-3.71zm5.632 0c0-.791-.055-1.459-.164-2.004-.1-.555-.313-1-.641-1.337-.318-.336-.782-.504-1.391-.504-.618 0-1.091.168-1.418.504-.318.337-.532.782-.641 1.337-.1.545-.15 1.213-.15 2.004 0 .819.05 1.505.15 2.06.109.554.323 1 .641 1.336.327.336.8.505 1.418.505.609 0 1.073-.169 1.391-.505.328-.336.541-.782.641-1.336.109-.555.164-1.241.164-2.06z" fill="#000"/><rect height="33.3356" rx="8.71271" stroke="#60c7ff" stroke-width=".757627" width="164.026" x="100.319" y="195.658"/><path d="m167.537 211.633c0-1.303.212-2.319.637-3.046.424-.735 1.166-1.102 2.227-1.102 1.053 0 1.792.367 2.216 1.102.424.727.637 1.743.637 3.046 0 1.326-.213 2.356-.637 3.091s-1.163 1.102-2.216 1.102c-1.061 0-1.803-.367-2.227-1.102-.425-.735-.637-1.765-.637-3.091zm4.694 0c0-.659-.046-1.216-.137-1.671-.083-.462-.261-.833-.534-1.113-.265-.281-.651-.421-1.159-.421-.515 0-.909.14-1.182.421-.265.28-.443.651-.534 1.113-.083.455-.125 1.012-.125 1.671 0 .682.042 1.254.125 1.716.091.462.269.833.534 1.114.273.28.667.42 1.182.42.508 0 .894-.14 1.159-.42.273-.281.451-.652.534-1.114.091-.462.137-1.034.137-1.716zm3.772 1.989c.076.431.25.765.523 1 .28.235.655.352 1.125.352.629 0 1.091-.246 1.386-.739.303-.492.447-1.322.432-2.489-.159.341-.424.61-.795.807-.372.19-.785.284-1.239.284-.508 0-.962-.102-1.364-.306-.394-.213-.704-.519-.932-.921-.227-.401-.341-.886-.341-1.455 0-.81.235-1.462.705-1.954.47-.5 1.136-.75 2-.75 1.061 0 1.803.344 2.227 1.034.432.689.648 1.716.648 3.08 0 .954-.087 1.742-.261 2.363-.167.622-.455 1.095-.864 1.421-.401.326-.954.489-1.659.489-.773 0-1.375-.209-1.807-.625-.432-.417-.678-.947-.739-1.591zm1.602-1.66c.508 0 .925-.155 1.25-.466.326-.318.489-.746.489-1.284 0-.568-.159-1.026-.477-1.375-.318-.348-.765-.523-1.341-.523-.531 0-.955.167-1.273.5-.311.334-.466.773-.466 1.319 0 .553.155.996.466 1.329.311.334.761.5 1.352.5zm4.727 3.932c-.197 0-.364-.068-.5-.204-.137-.136-.205-.303-.205-.5s.068-.364.205-.5c.136-.137.303-.205.5-.205.189 0 .348.068.477.205.136.136.204.303.204.5s-.068.364-.204.5c-.129.136-.288.204-.477.204zm0-4.863c-.197 0-.364-.069-.5-.205-.137-.136-.205-.303-.205-.5s.068-.364.205-.5c.136-.136.303-.205.5-.205.189 0 .348.069.477.205.136.136.204.303.204.5s-.068.364-.204.5c-.129.136-.288.205-.477.205zm1.919.602c0-1.303.212-2.319.636-3.046.425-.735 1.167-1.102 2.228-1.102 1.053 0 1.792.367 2.216 1.102.424.727.636 1.743.636 3.046 0 1.326-.212 2.356-.636 3.091s-1.163 1.102-2.216 1.102c-1.061 0-1.803-.367-2.228-1.102-.424-.735-.636-1.765-.636-3.091zm4.693 0c0-.659-.045-1.216-.136-1.671-.083-.462-.261-.833-.534-1.113-.265-.281-.652-.421-1.159-.421-.515 0-.909.14-1.182.421-.265.28-.443.651-.534 1.113-.084.455-.125 1.012-.125 1.671 0 .682.041 1.254.125 1.716.091.462.269.833.534 1.114.273.28.667.42 1.182.42.507 0 .894-.14 1.159-.42.273-.281.451-.652.534-1.114.091-.462.136-1.034.136-1.716zm2.443 0c0-1.303.212-2.319.636-3.046.425-.735 1.167-1.102 2.228-1.102 1.053 0 1.792.367 2.216 1.102.424.727.636 1.743.636 3.046 0 1.326-.212 2.356-.636 3.091s-1.163 1.102-2.216 1.102c-1.061 0-1.803-.367-2.228-1.102-.424-.735-.636-1.765-.636-3.091zm4.693 0c0-.659-.045-1.216-.136-1.671-.083-.462-.261-.833-.534-1.113-.265-.281-.652-.421-1.159-.421-.515 0-.909.14-1.182.421-.265.28-.443.651-.534 1.113-.084.455-.125 1.012-.125 1.671 0 .682.041 1.254.125 1.716.091.462.269.833.534 1.114.273.28.667.42 1.182.42.507 0 .894-.14 1.159-.42.273-.281.451-.652.534-1.114.091-.462.136-1.034.136-1.716z" fill="#000"/><rect height="33.3356" rx="8.71271" stroke="#60c7ff" stroke-width=".757627" width="164.026" x="276.468" y="195.658"/><path d="m345.413 208.553v-.943h2.136v8.216h-1.045v-7.273zm3.788 6.444c.962-.773 1.716-1.406 2.261-1.898.546-.5 1.004-1.019 1.375-1.557.379-.546.569-1.08.569-1.602 0-.493-.122-.879-.364-1.16-.235-.288-.618-.431-1.148-.431-.515 0-.917.162-1.205.488-.28.318-.431.746-.454 1.284h-1c.03-.848.288-1.504.773-1.966.484-.462 1.109-.693 1.875-.693.78 0 1.398.216 1.852.648.462.432.693 1.026.693 1.784 0 .629-.189 1.243-.568 1.841-.371.591-.795 1.114-1.273 1.568-.477.447-1.087.97-1.829 1.569h3.909v.863h-5.466zm7.161.897c-.196 0-.363-.068-.5-.204-.136-.136-.204-.303-.204-.5s.068-.364.204-.5c.137-.137.304-.205.5-.205.19 0 .349.068.478.205.136.136.204.303.204.5s-.068.364-.204.5c-.129.136-.288.204-.478.204zm0-4.863c-.196 0-.363-.069-.5-.205-.136-.136-.204-.303-.204-.5s.068-.364.204-.5c.137-.136.304-.205.5-.205.19 0 .349.069.478.205.136.136.204.303.204.5s-.068.364-.204.5c-.129.136-.288.205-.478.205zm1.92.602c0-1.303.212-2.319.636-3.046.425-.735 1.167-1.102 2.228-1.102 1.053 0 1.791.367 2.216 1.102.424.727.636 1.743.636 3.046 0 1.326-.212 2.356-.636 3.091-.425.735-1.163 1.102-2.216 1.102-1.061 0-1.803-.367-2.228-1.102-.424-.735-.636-1.765-.636-3.091zm4.693 0c0-.659-.045-1.216-.136-1.671-.083-.462-.261-.833-.534-1.113-.265-.281-.652-.421-1.159-.421-.516 0-.909.14-1.182.421-.265.28-.443.651-.534 1.113-.084.455-.125 1.012-.125 1.671 0 .682.041 1.254.125 1.716.091.462.269.833.534 1.114.273.28.666.42 1.182.42.507 0 .894-.14 1.159-.42.273-.281.451-.652.534-1.114.091-.462.136-1.034.136-1.716zm2.443 0c0-1.303.212-2.319.636-3.046.425-.735 1.167-1.102 2.228-1.102 1.053 0 1.792.367 2.216 1.102.424.727.636 1.743.636 3.046 0 1.326-.212 2.356-.636 3.091s-1.163 1.102-2.216 1.102c-1.061 0-1.803-.367-2.228-1.102-.424-.735-.636-1.765-.636-3.091zm4.693 0c0-.659-.045-1.216-.136-1.671-.083-.462-.261-.833-.534-1.113-.265-.281-.652-.421-1.159-.421-.515 0-.909.14-1.182.421-.265.28-.443.651-.534 1.113-.084.455-.125 1.012-.125 1.671 0 .682.041 1.254.125 1.716.091.462.269.833.534 1.114.273.28.667.42 1.182.42.507 0 .894-.14 1.159-.42.273-.281.451-.652.534-1.114.091-.462.136-1.034.136-1.716z" fill="#000"/><rect height="33.3356" rx="8.71271" stroke="#60c7ff" stroke-width=".757627" width="164.026" x="100.319" y="241.116"/><path d="m168.764 254.011v-.944h2.137v8.217h-1.046v-7.273zm9.152-.046h-3.989v2.591c.175-.242.432-.439.773-.591.341-.159.709-.238 1.103-.238.628 0 1.14.132 1.534.397.394.258.674.595.841 1.012.174.409.261.845.261 1.307 0 .545-.102 1.034-.307 1.466-.204.432-.519.773-.943 1.023-.417.25-.936.375-1.557.375-.795 0-1.439-.205-1.932-.614-.492-.409-.792-.955-.898-1.636h1.012c.098.431.307.769.625 1.011s.72.364 1.205.364c.598 0 1.049-.178 1.352-.535.303-.363.454-.84.454-1.431s-.151-1.046-.454-1.364c-.303-.326-.75-.489-1.341-.489-.402 0-.754.099-1.057.296-.295.189-.511.45-.648.784h-.977v-4.637h4.943zm2.397 7.387c-.197 0-.363-.068-.5-.204-.136-.137-.204-.303-.204-.5s.068-.364.204-.501c.137-.136.303-.204.5-.204.19 0 .349.068.478.204.136.137.204.304.204.501s-.068.363-.204.5c-.129.136-.288.204-.478.204zm0-4.864c-.197 0-.363-.068-.5-.204-.136-.137-.204-.303-.204-.5s.068-.364.204-.5c.137-.137.303-.205.5-.205.19 0 .349.068.478.205.136.136.204.303.204.5s-.068.363-.204.5c-.129.136-.288.204-.478.204zm1.92.602c0-1.303.212-2.318.636-3.045.424-.735 1.167-1.103 2.228-1.103 1.053 0 1.791.368 2.216 1.103.424.727.636 1.742.636 3.045 0 1.326-.212 2.357-.636 3.092-.425.734-1.163 1.102-2.216 1.102-1.061 0-1.804-.368-2.228-1.102-.424-.735-.636-1.766-.636-3.092zm4.693 0c0-.659-.045-1.216-.136-1.67-.083-.462-.261-.833-.534-1.114-.265-.28-.652-.42-1.159-.42-.516 0-.91.14-1.182.42-.265.281-.443.652-.534 1.114-.084.454-.125 1.011-.125 1.67 0 .682.041 1.254.125 1.716.091.463.269.834.534 1.114.272.281.666.421 1.182.421.507 0 .894-.14 1.159-.421.273-.28.451-.651.534-1.114.091-.462.136-1.034.136-1.716zm2.443 0c0-1.303.212-2.318.636-3.045.425-.735 1.167-1.103 2.228-1.103 1.053 0 1.791.368 2.216 1.103.424.727.636 1.742.636 3.045 0 1.326-.212 2.357-.636 3.092-.425.734-1.163 1.102-2.216 1.102-1.061 0-1.803-.368-2.228-1.102-.424-.735-.636-1.766-.636-3.092zm4.693 0c0-.659-.045-1.216-.136-1.67-.083-.462-.261-.833-.534-1.114-.265-.28-.652-.42-1.159-.42-.515 0-.909.14-1.182.42-.265.281-.443.652-.534 1.114-.084.454-.125 1.011-.125 1.67 0 .682.041 1.254.125 1.716.091.463.269.834.534 1.114.273.281.667.421 1.182.421.507 0 .894-.14 1.159-.421.273-.28.451-.651.534-1.114.091-.462.136-1.034.136-1.716z" fill="#000"/><rect height="33.3356" rx="8.71271" stroke="#60c7ff" stroke-width=".757627" width="164.026" x="276.468" y="241.116"/><path d="m344.913 254.011v-.944h2.136v8.217h-1.045v-7.273zm8.493 1.011c-.167-.841-.686-1.261-1.557-1.261-.675 0-1.178.261-1.512.784-.333.515-.496 1.367-.488 2.557.174-.394.462-.701.863-.921.409-.227.864-.341 1.364-.341.78 0 1.402.243 1.864.728.469.485.704 1.155.704 2.011 0 .515-.102.978-.307 1.387-.197.409-.5.735-.909.977-.401.242-.89.364-1.466.364-.78 0-1.39-.175-1.829-.523-.44-.349-.747-.83-.921-1.443-.174-.614-.261-1.372-.261-2.273 0-2.781.969-4.171 2.909-4.171.742 0 1.326.201 1.75.602.424.402.674.909.75 1.523zm-1.546 1.693c-.326 0-.633.069-.921.205-.287.129-.522.33-.704.602-.174.265-.261.591-.261.978 0 .575.166 1.045.5 1.409.333.356.81.534 1.431.534.531 0 .951-.163 1.262-.489.318-.333.477-.78.477-1.341 0-.591-.151-1.053-.454-1.386-.303-.341-.747-.512-1.33-.512zm4.679 4.637c-.197 0-.363-.068-.5-.204-.136-.137-.204-.303-.204-.5s.068-.364.204-.501c.137-.136.303-.204.5-.204.19 0 .349.068.478.204.136.137.204.304.204.501s-.068.363-.204.5c-.129.136-.288.204-.478.204zm0-4.864c-.197 0-.363-.068-.5-.204-.136-.137-.204-.303-.204-.5s.068-.364.204-.5c.137-.137.303-.205.5-.205.19 0 .349.068.478.205.136.136.204.303.204.5s-.068.363-.204.5c-.129.136-.288.204-.478.204zm1.92.602c0-1.303.212-2.318.636-3.045.424-.735 1.167-1.103 2.228-1.103 1.053 0 1.791.368 2.216 1.103.424.727.636 1.742.636 3.045 0 1.326-.212 2.357-.636 3.092-.425.734-1.163 1.102-2.216 1.102-1.061 0-1.804-.368-2.228-1.102-.424-.735-.636-1.766-.636-3.092zm4.693 0c0-.659-.045-1.216-.136-1.67-.083-.462-.261-.833-.534-1.114-.265-.28-.652-.42-1.159-.42-.516 0-.91.14-1.182.42-.265.281-.443.652-.534 1.114-.084.454-.125 1.011-.125 1.67 0 .682.041 1.254.125 1.716.091.463.269.834.534 1.114.272.281.666.421 1.182.421.507 0 .894-.14 1.159-.421.273-.28.451-.651.534-1.114.091-.462.136-1.034.136-1.716zm2.443 0c0-1.303.212-2.318.636-3.045.425-.735 1.167-1.103 2.228-1.103 1.053 0 1.791.368 2.216 1.103.424.727.636 1.742.636 3.045 0 1.326-.212 2.357-.636 3.092-.425.734-1.163 1.102-2.216 1.102-1.061 0-1.803-.368-2.228-1.102-.424-.735-.636-1.766-.636-3.092zm4.693 0c0-.659-.045-1.216-.136-1.67-.083-.462-.261-.833-.534-1.114-.265-.28-.652-.42-1.159-.42-.515 0-.909.14-1.182.42-.265.281-.443.652-.534 1.114-.084.454-.125 1.011-.125 1.67 0 .682.041 1.254.125 1.716.091.463.269.834.534 1.114.273.281.667.421 1.182.421.507 0 .894-.14 1.159-.421.273-.28.451-.651.534-1.114.091-.462.136-1.034.136-1.716z" fill="#000"/><rect fill="#f48228" height="42" rx="21" width="184" x="178" y="321"/><path d="m246.495 340.48c0 .472-.111.918-.334 1.336-.223.419-.579.762-1.069 1.029-.49.258-1.118.387-1.884.387h-1.683v3.768h-1.523v-9.285h3.206c.713 0 1.314.124 1.804.374.499.24.868.57 1.109.989.249.418.374.886.374 1.402zm-3.287 1.51c.579 0 1.011-.129 1.296-.387.285-.268.428-.642.428-1.123 0-1.015-.575-1.523-1.724-1.523h-1.683v3.033zm5.514-3.327c-.276 0-.507-.093-.694-.28s-.281-.419-.281-.695.094-.508.281-.695.418-.28.694-.28c.268 0 .495.093.682.28s.28.419.28.695-.093.508-.28.695-.414.28-.682.28zm.749.976v7.361h-1.523v-7.361zm1.492 3.674c0-.757.151-1.421.454-1.991.311-.579.739-1.024 1.282-1.336.544-.312 1.167-.468 1.871-.468.89 0 1.625.214 2.204.642.588.418.984 1.019 1.189 1.803h-1.643c-.134-.365-.347-.65-.641-.855s-.664-.307-1.109-.307c-.624 0-1.123.223-1.497.668-.365.436-.547 1.051-.547 1.844 0 .792.182 1.411.547 1.857.374.445.873.668 1.497.668.881 0 1.465-.388 1.75-1.163h1.643c-.214.749-.614 1.345-1.202 1.791-.588.436-1.318.654-2.191.654-.704 0-1.327-.156-1.871-.467-.543-.321-.971-.766-1.282-1.336-.303-.579-.454-1.247-.454-2.004zm11.43.013 3.394 3.674h-2.058l-2.725-3.166v3.166h-1.523v-9.886h1.523v5.744l2.672-3.219h2.111zm9.733-2.445v4.075c0 .276.062.476.187.601.134.116.356.174.668.174h.935v1.269h-1.202c-.686 0-1.212-.16-1.577-.481s-.547-.842-.547-1.563v-4.075h-.869v-1.242h.869v-1.831h1.536v1.831h1.79v1.242zm3.969-2.218c-.276 0-.508-.093-.695-.28s-.281-.419-.281-.695.094-.508.281-.695.419-.28.695-.28c.267 0 .494.093.681.28s.281.419.281.695-.094.508-.281.695-.414.28-.681.28zm.748.976v7.361h-1.523v-7.361zm10.911-.121c.579 0 1.095.121 1.549.361.464.241.824.597 1.083 1.069.267.472.4 1.042.4 1.71v4.342h-1.509v-4.115c0-.659-.165-1.162-.495-1.51-.329-.356-.779-.534-1.349-.534s-1.024.178-1.363.534c-.329.348-.494.851-.494 1.51v4.115h-1.51v-4.115c0-.659-.164-1.162-.494-1.51-.33-.356-.779-.534-1.349-.534s-1.025.178-1.363.534c-.33.348-.494.851-.494 1.51v4.115h-1.523v-7.361h1.523v.841c.249-.303.565-.539.948-.708s.793-.254 1.229-.254c.588 0 1.114.125 1.577.374.463.25.819.611 1.069 1.083.222-.446.57-.798 1.042-1.056.472-.267.979-.401 1.523-.401zm11.717 3.621c0 .276-.018.525-.053.748h-5.625c.045.588.263 1.06.655 1.416.392.357.873.535 1.443.535.819 0 1.398-.343 1.737-1.029h1.643c-.223.677-.628 1.234-1.216 1.67-.579.427-1.3.641-2.164.641-.704 0-1.336-.156-1.897-.467-.553-.321-.989-.766-1.31-1.336-.311-.579-.467-1.247-.467-2.004s.151-1.421.454-1.991c.312-.579.744-1.024 1.296-1.336.561-.312 1.202-.468 1.924-.468.694 0 1.313.152 1.857.455.543.302.966.73 1.269 1.282.303.544.454 1.171.454 1.884zm-1.59-.481c-.009-.561-.209-1.011-.601-1.349-.392-.339-.877-.508-1.456-.508-.526 0-.975.169-1.349.508-.375.329-.597.779-.668 1.349z" fill="#fff"/></svg>