<svg width="540" height="410" viewBox="0 0 540 410" fill="none" xmlns="http://www.w3.org/2000/svg">
<rect width="540" height="410" fill="#FCF7F4"/>
<path d="M171.901 53.657H167.1L166.275 56H164.311L168.42 44.516H170.598L174.706 56H172.726L171.901 53.657ZM171.373 52.1225L169.509 46.793L167.628 52.1225H171.373ZM177.873 48.2285C178.148 47.7665 178.511 47.409 178.962 47.156C179.424 46.892 179.969 46.76 180.596 46.76V48.707H180.117C179.38 48.707 178.819 48.894 178.434 49.268C178.06 49.642 177.873 50.291 177.873 51.215V56H175.992V46.9085H177.873V48.2285ZM182.782 45.704C182.441 45.704 182.155 45.5885 181.924 45.3575C181.693 45.1265 181.577 44.8405 181.577 44.4995C181.577 44.1585 181.693 43.8725 181.924 43.6415C182.155 43.4105 182.441 43.295 182.782 43.295C183.112 43.295 183.392 43.4105 183.623 43.6415C183.854 43.8725 183.97 44.1585 183.97 44.4995C183.97 44.8405 183.854 45.1265 183.623 45.3575C183.392 45.5885 183.112 45.704 182.782 45.704ZM183.706 46.9085V56H181.825V46.9085H183.706ZM194.008 51.2315C194.008 51.5725 193.986 51.8805 193.942 52.1555H186.995C187.05 52.8815 187.32 53.4645 187.804 53.9045C188.288 54.3445 188.882 54.5645 189.586 54.5645C190.598 54.5645 191.313 54.141 191.731 53.294H193.76C193.485 54.13 192.985 54.8175 192.259 55.3565C191.544 55.8845 190.653 56.1485 189.586 56.1485C188.717 56.1485 187.936 55.956 187.243 55.571C186.561 55.175 186.022 54.625 185.626 53.921C185.241 53.206 185.048 52.381 185.048 51.446C185.048 50.511 185.235 49.6915 185.609 48.9875C185.994 48.2725 186.528 47.7225 187.21 47.3375C187.903 46.9525 188.695 46.76 189.586 46.76C190.444 46.76 191.208 46.947 191.879 47.321C192.55 47.695 193.073 48.223 193.447 48.905C193.821 49.576 194.008 50.3515 194.008 51.2315ZM192.044 50.6375C192.033 49.9445 191.786 49.389 191.302 48.971C190.818 48.553 190.218 48.344 189.503 48.344C188.854 48.344 188.299 48.553 187.837 48.971C187.375 49.378 187.1 49.9335 187.012 50.6375H192.044ZM197.24 43.79V56H195.359V43.79H197.24ZM215.074 44.5325V56H213.193V48.146L209.695 56H208.391L204.877 48.146V56H202.996V44.5325H205.025L209.051 53.525L213.061 44.5325H215.074ZM216.419 51.413C216.419 50.5 216.606 49.6915 216.98 48.9875C217.365 48.2835 217.882 47.739 218.531 47.354C219.191 46.958 219.917 46.76 220.709 46.76C221.424 46.76 222.046 46.903 222.574 47.189C223.113 47.464 223.542 47.8105 223.861 48.2285V46.9085H225.758V56H223.861V54.647C223.542 55.076 223.107 55.4335 222.557 55.7195C222.007 56.0055 221.38 56.1485 220.676 56.1485C219.895 56.1485 219.18 55.9505 218.531 55.5545C217.882 55.1475 217.365 54.5865 216.98 53.8715C216.606 53.1455 216.419 52.326 216.419 51.413ZM223.861 51.446C223.861 50.819 223.729 50.2745 223.465 49.8125C223.212 49.3505 222.876 48.9985 222.458 48.7565C222.04 48.5145 221.589 48.3935 221.105 48.3935C220.621 48.3935 220.17 48.5145 219.752 48.7565C219.334 48.9875 218.993 49.334 218.729 49.796C218.476 50.247 218.35 50.786 218.35 51.413C218.35 52.04 218.476 52.59 218.729 53.063C218.993 53.536 219.334 53.899 219.752 54.152C220.181 54.394 220.632 54.515 221.105 54.515C221.589 54.515 222.04 54.394 222.458 54.152C222.876 53.91 223.212 53.558 223.465 53.096C223.729 52.623 223.861 52.073 223.861 51.446ZM229.395 54.4655H233.52V56H227.217V54.4655L231.359 48.443H227.217V46.9085H233.52V48.443L229.395 54.4655ZM238.939 56.1485C238.081 56.1485 237.305 55.956 236.612 55.571C235.919 55.175 235.375 54.625 234.979 53.921C234.583 53.206 234.385 52.381 234.385 51.446C234.385 50.522 234.588 49.7025 234.995 48.9875C235.402 48.2725 235.958 47.7225 236.662 47.3375C237.366 46.9525 238.152 46.76 239.021 46.76C239.89 46.76 240.677 46.9525 241.381 47.3375C242.085 47.7225 242.64 48.2725 243.047 48.9875C243.454 49.7025 243.658 50.522 243.658 51.446C243.658 52.37 243.449 53.1895 243.031 53.9045C242.613 54.6195 242.041 55.175 241.315 55.571C240.6 55.956 239.808 56.1485 238.939 56.1485ZM238.939 54.515C239.423 54.515 239.874 54.3995 240.292 54.1685C240.721 53.9375 241.067 53.591 241.331 53.129C241.595 52.667 241.727 52.106 241.727 51.446C241.727 50.786 241.601 50.2305 241.348 49.7795C241.095 49.3175 240.759 48.971 240.341 48.74C239.923 48.509 239.472 48.3935 238.988 48.3935C238.504 48.3935 238.053 48.509 237.635 48.74C237.228 48.971 236.904 49.3175 236.662 49.7795C236.42 50.2305 236.299 50.786 236.299 51.446C236.299 52.425 236.546 53.184 237.041 53.723C237.547 54.251 238.18 54.515 238.939 54.515ZM246.898 48.2285C247.173 47.7665 247.536 47.409 247.987 47.156C248.449 46.892 248.994 46.76 249.621 46.76V48.707H249.142C248.405 48.707 247.844 48.894 247.459 49.268C247.085 49.642 246.898 50.291 246.898 51.215V56H245.017V46.9085H246.898V48.2285Z" fill="#1F8DF1"/>
<path d="M33.768 50.4C33.768 49.3013 34.008 48.32 34.488 47.456C34.968 46.5813 35.624 45.904 36.456 45.424C37.288 44.9333 38.216 44.688 39.24 44.688C40.488 44.688 41.5547 44.9867 42.44 45.584C43.336 46.1707 43.9867 47.0027 44.392 48.08H43.08C42.76 47.3227 42.2693 46.7307 41.608 46.304C40.9573 45.8773 40.168 45.664 39.24 45.664C38.4187 45.664 37.6773 45.856 37.016 46.24C36.3653 46.624 35.8533 47.1787 35.48 47.904C35.1067 48.6187 34.92 49.4507 34.92 50.4C34.92 51.3493 35.1067 52.1813 35.48 52.896C35.8533 53.6107 36.3653 54.16 37.016 54.544C37.6773 54.928 38.4187 55.12 39.24 55.12C40.168 55.12 40.9573 54.912 41.608 54.496C42.2693 54.0693 42.76 53.4827 43.08 52.736H44.392C43.9867 53.8027 43.336 54.6293 42.44 55.216C41.544 55.8027 40.4773 56.096 39.24 56.096C38.216 56.096 37.288 55.856 36.456 55.376C35.624 54.8853 34.968 54.208 34.488 53.344C34.008 52.48 33.768 51.4987 33.768 50.4ZM47.7438 48.816C47.9891 48.272 48.3624 47.8507 48.8638 47.552C49.3758 47.2533 49.9998 47.104 50.7358 47.104V48.272H50.4318C49.6211 48.272 48.9704 48.4907 48.4798 48.928C47.9891 49.3653 47.7438 50.096 47.7438 51.12V56H46.6238V47.264H47.7438V48.816ZM60.3246 51.184C60.3246 51.568 60.314 51.8613 60.2926 52.064H53.0446C53.0766 52.7253 53.2366 53.2907 53.5246 53.76C53.8126 54.2293 54.1913 54.5867 54.6606 54.832C55.13 55.0667 55.642 55.184 56.1966 55.184C56.922 55.184 57.53 55.008 58.0206 54.656C58.522 54.304 58.8526 53.8293 59.0126 53.232H60.1966C59.9833 54.0853 59.5246 54.784 58.8206 55.328C58.1273 55.8613 57.2526 56.128 56.1966 56.128C55.3753 56.128 54.6393 55.9467 53.9886 55.584C53.338 55.2107 52.826 54.688 52.4526 54.016C52.09 53.3333 51.9086 52.5387 51.9086 51.632C51.9086 50.7253 52.09 49.9307 52.4526 49.248C52.8153 48.5653 53.322 48.0427 53.9726 47.68C54.6233 47.3173 55.3646 47.136 56.1966 47.136C57.0286 47.136 57.754 47.3173 58.3726 47.68C59.002 48.0427 59.482 48.5333 59.8126 49.152C60.154 49.76 60.3246 50.4373 60.3246 51.184ZM59.1886 51.152C59.1993 50.5013 59.066 49.9467 58.7886 49.488C58.522 49.0293 58.154 48.6827 57.6846 48.448C57.2153 48.2133 56.7033 48.096 56.1486 48.096C55.3166 48.096 54.6073 48.3627 54.0206 48.896C53.434 49.4293 53.1086 50.1813 53.0446 51.152H59.1886ZM61.8618 51.616C61.8618 50.72 62.0378 49.936 62.3898 49.264C62.7524 48.5813 63.2484 48.0587 63.8778 47.696C64.5178 47.3227 65.2378 47.136 66.0378 47.136C66.8698 47.136 67.5844 47.328 68.1818 47.712C68.7898 48.096 69.2271 48.5867 69.4938 49.184V47.264H70.6138V56H69.4938V54.064C69.2164 54.6613 68.7738 55.1573 68.1658 55.552C67.5684 55.936 66.8538 56.128 66.0218 56.128C65.2324 56.128 64.5178 55.9413 63.8778 55.568C63.2484 55.1947 62.7524 54.6667 62.3898 53.984C62.0378 53.3013 61.8618 52.512 61.8618 51.616ZM69.4938 51.632C69.4938 50.928 69.3498 50.3093 69.0618 49.776C68.7738 49.2427 68.3791 48.832 67.8778 48.544C67.3871 48.256 66.8431 48.112 66.2458 48.112C65.6271 48.112 65.0724 48.2507 64.5818 48.528C64.0911 48.8053 63.7018 49.2107 63.4138 49.744C63.1364 50.2667 62.9978 50.8907 62.9978 51.616C62.9978 52.3307 63.1364 52.96 63.4138 53.504C63.7018 54.0373 64.0911 54.448 64.5818 54.736C65.0724 55.0133 65.6271 55.152 66.2458 55.152C66.8431 55.152 67.3871 55.008 67.8778 54.72C68.3791 54.432 68.7738 54.0213 69.0618 53.488C69.3498 52.9547 69.4938 52.336 69.4938 51.632ZM74.6266 48.208V53.632C74.6266 54.1653 74.728 54.5333 74.9306 54.736C75.1333 54.9387 75.4906 55.04 76.0026 55.04H77.0266V56H75.8266C75.0373 56 74.4506 55.8187 74.0666 55.456C73.6826 55.0827 73.4906 54.4747 73.4906 53.632V48.208H72.2746V47.264H73.4906V45.072H74.6266V47.264H77.0266V48.208H74.6266ZM86.7778 51.184C86.7778 51.568 86.7671 51.8613 86.7458 52.064H79.4978C79.5298 52.7253 79.6898 53.2907 79.9778 53.76C80.2658 54.2293 80.6444 54.5867 81.1138 54.832C81.5831 55.0667 82.0951 55.184 82.6498 55.184C83.3751 55.184 83.9831 55.008 84.4738 54.656C84.9751 54.304 85.3058 53.8293 85.4658 53.232H86.6498C86.4364 54.0853 85.9778 54.784 85.2738 55.328C84.5804 55.8613 83.7058 56.128 82.6498 56.128C81.8284 56.128 81.0924 55.9467 80.4418 55.584C79.7911 55.2107 79.2791 54.688 78.9058 54.016C78.5431 53.3333 78.3618 52.5387 78.3618 51.632C78.3618 50.7253 78.5431 49.9307 78.9058 49.248C79.2684 48.5653 79.7751 48.0427 80.4258 47.68C81.0764 47.3173 81.8178 47.136 82.6498 47.136C83.4818 47.136 84.2071 47.3173 84.8258 47.68C85.4551 48.0427 85.9351 48.5333 86.2658 49.152C86.6071 49.76 86.7778 50.4373 86.7778 51.184ZM85.6418 51.152C85.6524 50.5013 85.5191 49.9467 85.2418 49.488C84.9751 49.0293 84.6071 48.6827 84.1378 48.448C83.6684 48.2133 83.1564 48.096 82.6018 48.096C81.7698 48.096 81.0604 48.3627 80.4738 48.896C79.8871 49.4293 79.5618 50.1813 79.4978 51.152H85.6418ZM94.3375 44.16V56H93.2175V44.16H94.3375ZM104.778 51.184C104.778 51.568 104.767 51.8613 104.746 52.064H97.4978C97.5298 52.7253 97.6898 53.2907 97.9778 53.76C98.2658 54.2293 98.6444 54.5867 99.1138 54.832C99.5831 55.0667 100.095 55.184 100.65 55.184C101.375 55.184 101.983 55.008 102.474 54.656C102.975 54.304 103.306 53.8293 103.466 53.232H104.65C104.436 54.0853 103.978 54.784 103.274 55.328C102.58 55.8613 101.706 56.128 100.65 56.128C99.8284 56.128 99.0924 55.9467 98.4418 55.584C97.7911 55.2107 97.2791 54.688 96.9058 54.016C96.5431 53.3333 96.3618 52.5387 96.3618 51.632C96.3618 50.7253 96.5431 49.9307 96.9058 49.248C97.2684 48.5653 97.7751 48.0427 98.4258 47.68C99.0764 47.3173 99.8178 47.136 100.65 47.136C101.482 47.136 102.207 47.3173 102.826 47.68C103.455 48.0427 103.935 48.5333 104.266 49.152C104.607 49.76 104.778 50.4373 104.778 51.184ZM103.642 51.152C103.652 50.5013 103.519 49.9467 103.242 49.488C102.975 49.0293 102.607 48.6827 102.138 48.448C101.668 48.2133 101.156 48.096 100.602 48.096C99.7698 48.096 99.0604 48.3627 98.4738 48.896C97.8871 49.4293 97.5618 50.1813 97.4978 51.152H103.642ZM109.835 56.128C108.832 56.128 108.011 55.8987 107.371 55.44C106.742 54.9707 106.39 54.336 106.315 53.536H107.467C107.52 54.0267 107.75 54.4267 108.155 54.736C108.571 55.0347 109.126 55.184 109.819 55.184C110.427 55.184 110.902 55.04 111.243 54.752C111.595 54.464 111.771 54.1067 111.771 53.68C111.771 53.3813 111.675 53.136 111.483 52.944C111.291 52.752 111.046 52.6027 110.747 52.496C110.459 52.3787 110.064 52.256 109.563 52.128C108.912 51.9573 108.384 51.7867 107.979 51.616C107.574 51.4453 107.227 51.1947 106.939 50.864C106.662 50.5227 106.523 50.0693 106.523 49.504C106.523 49.0773 106.651 48.6827 106.907 48.32C107.163 47.9573 107.526 47.6693 107.995 47.456C108.464 47.2427 108.998 47.136 109.595 47.136C110.534 47.136 111.291 47.376 111.867 47.856C112.443 48.3253 112.752 48.976 112.795 49.808H111.675C111.643 49.296 111.44 48.8853 111.067 48.576C110.704 48.256 110.203 48.096 109.563 48.096C108.998 48.096 108.539 48.2293 108.187 48.496C107.835 48.7627 107.659 49.0933 107.659 49.488C107.659 49.8293 107.76 50.112 107.963 50.336C108.176 50.5493 108.438 50.72 108.747 50.848C109.056 50.9653 109.472 51.0987 109.995 51.248C110.624 51.4187 111.126 51.584 111.499 51.744C111.872 51.904 112.192 52.1387 112.459 52.448C112.726 52.7573 112.864 53.168 112.875 53.68C112.875 54.1493 112.747 54.5707 112.491 54.944C112.235 55.3067 111.878 55.5947 111.419 55.808C110.96 56.0213 110.432 56.128 109.835 56.128ZM117.991 56.128C116.988 56.128 116.167 55.8987 115.527 55.44C114.898 54.9707 114.546 54.336 114.471 53.536H115.623C115.676 54.0267 115.906 54.4267 116.311 54.736C116.727 55.0347 117.282 55.184 117.975 55.184C118.583 55.184 119.058 55.04 119.399 54.752C119.751 54.464 119.927 54.1067 119.927 53.68C119.927 53.3813 119.831 53.136 119.639 52.944C119.447 52.752 119.202 52.6027 118.903 52.496C118.615 52.3787 118.22 52.256 117.719 52.128C117.068 51.9573 116.54 51.7867 116.135 51.616C115.73 51.4453 115.383 51.1947 115.095 50.864C114.818 50.5227 114.679 50.0693 114.679 49.504C114.679 49.0773 114.807 48.6827 115.063 48.32C115.319 47.9573 115.682 47.6693 116.151 47.456C116.62 47.2427 117.154 47.136 117.751 47.136C118.69 47.136 119.447 47.376 120.023 47.856C120.599 48.3253 120.908 48.976 120.951 49.808H119.831C119.799 49.296 119.596 48.8853 119.223 48.576C118.86 48.256 118.359 48.096 117.719 48.096C117.154 48.096 116.695 48.2293 116.343 48.496C115.991 48.7627 115.815 49.0933 115.815 49.488C115.815 49.8293 115.916 50.112 116.119 50.336C116.332 50.5493 116.594 50.72 116.903 50.848C117.212 50.9653 117.628 51.0987 118.151 51.248C118.78 51.4187 119.282 51.584 119.655 51.744C120.028 51.904 120.348 52.1387 120.615 52.448C120.882 52.7573 121.02 53.168 121.031 53.68C121.031 54.1493 120.903 54.5707 120.647 54.944C120.391 55.3067 120.034 55.5947 119.575 55.808C119.116 56.0213 118.588 56.128 117.991 56.128ZM126.963 56.128C126.142 56.128 125.401 55.9467 124.739 55.584C124.089 55.2107 123.571 54.688 123.187 54.016C122.814 53.3333 122.627 52.5387 122.627 51.632C122.627 50.7253 122.819 49.936 123.203 49.264C123.587 48.5813 124.11 48.0587 124.771 47.696C125.433 47.3227 126.174 47.136 126.995 47.136C127.817 47.136 128.558 47.3227 129.219 47.696C129.891 48.0587 130.414 48.5813 130.787 49.264C131.171 49.936 131.363 50.7253 131.363 51.632C131.363 52.528 131.171 53.3173 130.787 54C130.403 54.6827 129.875 55.2107 129.203 55.584C128.531 55.9467 127.785 56.128 126.963 56.128ZM126.963 55.152C127.539 55.152 128.073 55.024 128.563 54.768C129.054 54.5013 129.449 54.1067 129.747 53.584C130.057 53.0507 130.211 52.4 130.211 51.632C130.211 50.864 130.062 50.2187 129.763 49.696C129.465 49.1627 129.07 48.768 128.579 48.512C128.089 48.2453 127.555 48.112 126.979 48.112C126.403 48.112 125.87 48.2453 125.379 48.512C124.889 48.768 124.494 49.1627 124.195 49.696C123.907 50.2187 123.763 50.864 123.763 51.632C123.763 52.4 123.907 53.0507 124.195 53.584C124.494 54.1067 124.883 54.5013 125.363 54.768C125.854 55.024 126.387 55.152 126.963 55.152ZM137.501 47.104C138.546 47.104 139.4 47.4293 140.061 48.08C140.722 48.72 141.053 49.6533 141.053 50.88V56H139.949V51.008C139.949 50.0587 139.709 49.3333 139.229 48.832C138.76 48.3307 138.114 48.08 137.293 48.08C136.45 48.08 135.778 48.3467 135.277 48.88C134.776 49.4133 134.525 50.1973 134.525 51.232V56H133.405V47.264H134.525V48.752C134.802 48.2187 135.202 47.8133 135.725 47.536C136.248 47.248 136.84 47.104 137.501 47.104Z" fill="black"/>
<rect x="153" y="37" width="0.75" height="26" fill="black"/>
<rect x="31" y="76" width="467" height="1" fill="#FF5E1A"/>
<g opacity="0.4">
<path d="M128.243 121.656C127.825 121.656 127.449 121.583 127.116 121.438C126.788 121.286 126.531 121.08 126.343 120.82C126.155 120.553 126.058 120.247 126.052 119.901H126.934C126.964 120.198 127.085 120.45 127.298 120.656C127.516 120.856 127.831 120.956 128.243 120.956C128.637 120.956 128.946 120.859 129.17 120.665C129.401 120.465 129.516 120.21 129.516 119.901C129.516 119.659 129.449 119.462 129.316 119.31C129.183 119.159 129.016 119.044 128.816 118.965C128.616 118.886 128.346 118.801 128.007 118.71C127.588 118.601 127.252 118.492 126.998 118.383C126.749 118.274 126.534 118.104 126.352 117.874C126.176 117.638 126.088 117.322 126.088 116.928C126.088 116.583 126.176 116.277 126.352 116.01C126.528 115.744 126.773 115.537 127.088 115.392C127.41 115.247 127.776 115.174 128.189 115.174C128.783 115.174 129.267 115.322 129.643 115.619C130.025 115.916 130.24 116.31 130.289 116.801H129.38C129.349 116.559 129.222 116.347 128.998 116.165C128.773 115.977 128.476 115.883 128.107 115.883C127.761 115.883 127.479 115.974 127.261 116.156C127.043 116.331 126.934 116.58 126.934 116.901C126.934 117.131 126.998 117.319 127.125 117.465C127.258 117.61 127.419 117.722 127.607 117.801C127.801 117.874 128.07 117.959 128.416 118.056C128.834 118.171 129.17 118.286 129.425 118.401C129.68 118.51 129.898 118.683 130.08 118.919C130.261 119.15 130.352 119.465 130.352 119.865C130.352 120.174 130.27 120.465 130.107 120.738C129.943 121.011 129.701 121.232 129.38 121.401C129.058 121.571 128.679 121.656 128.243 121.656ZM135.988 116.61V121.592H135.161V120.856C135.003 121.111 134.782 121.311 134.497 121.456C134.218 121.595 133.909 121.665 133.57 121.665C133.182 121.665 132.834 121.586 132.524 121.429C132.215 121.265 131.97 121.023 131.788 120.701C131.612 120.38 131.524 119.989 131.524 119.529V116.61H132.343V119.42C132.343 119.91 132.467 120.289 132.715 120.556C132.964 120.817 133.303 120.947 133.734 120.947C134.176 120.947 134.525 120.811 134.779 120.538C135.034 120.265 135.161 119.868 135.161 119.347V116.61H135.988ZM139.813 116.519C140.419 116.519 140.91 116.704 141.285 117.074C141.661 117.438 141.849 117.965 141.849 118.656V121.592H141.031V118.774C141.031 118.277 140.907 117.898 140.658 117.638C140.41 117.371 140.07 117.238 139.64 117.238C139.203 117.238 138.855 117.374 138.594 117.647C138.34 117.919 138.213 118.316 138.213 118.838V121.592H137.385V116.61H138.213V117.319C138.376 117.065 138.597 116.868 138.876 116.728C139.161 116.589 139.473 116.519 139.813 116.519Z" fill="#999999"/>
<path d="M126.519 147.78C127.674 146.853 128.578 146.094 129.233 145.503C129.887 144.903 130.437 144.28 130.883 143.634C131.337 142.98 131.565 142.339 131.565 141.711C131.565 141.12 131.419 140.657 131.128 140.32C130.847 139.975 130.387 139.802 129.751 139.802C129.133 139.802 128.651 139.998 128.305 140.389C127.969 140.77 127.787 141.284 127.76 141.93H126.56C126.596 140.911 126.905 140.125 127.487 139.57C128.069 139.016 128.819 138.738 129.737 138.738C130.674 138.738 131.415 138.998 131.96 139.516C132.515 140.034 132.792 140.748 132.792 141.657C132.792 142.411 132.565 143.148 132.11 143.866C131.665 144.575 131.156 145.203 130.583 145.748C130.01 146.284 129.278 146.912 128.387 147.63H133.079V148.666H126.519V147.78ZM134.213 146.58V145.639L139 139.011H140.486V145.503H141.85V146.58H140.486V148.776H139.259V146.58H134.213ZM139.313 140.307L135.645 145.503H139.313V140.307Z" fill="black"/>
</g>
<g opacity="0.4">
<path d="M176.619 115.301V121.592H175.792V116.901L173.701 121.592H173.119L171.019 116.892V121.592H170.192V115.301H171.082L173.41 120.501L175.737 115.301H176.619ZM180.195 121.674C179.728 121.674 179.304 121.568 178.922 121.356C178.547 121.144 178.25 120.844 178.031 120.456C177.819 120.062 177.713 119.607 177.713 119.092C177.713 118.583 177.822 118.135 178.04 117.747C178.265 117.353 178.568 117.053 178.95 116.847C179.331 116.634 179.759 116.528 180.232 116.528C180.704 116.528 181.132 116.634 181.513 116.847C181.895 117.053 182.195 117.35 182.413 117.738C182.638 118.126 182.75 118.577 182.75 119.092C182.75 119.607 182.635 120.062 182.404 120.456C182.18 120.844 181.874 121.144 181.486 121.356C181.098 121.568 180.668 121.674 180.195 121.674ZM180.195 120.947C180.492 120.947 180.771 120.877 181.032 120.738C181.292 120.598 181.501 120.389 181.659 120.11C181.823 119.832 181.904 119.492 181.904 119.092C181.904 118.692 181.826 118.353 181.668 118.074C181.51 117.795 181.304 117.589 181.05 117.456C180.795 117.316 180.519 117.247 180.222 117.247C179.919 117.247 179.641 117.316 179.386 117.456C179.138 117.589 178.938 117.795 178.786 118.074C178.634 118.353 178.559 118.692 178.559 119.092C178.559 119.498 178.631 119.841 178.777 120.12C178.928 120.398 179.128 120.607 179.377 120.747C179.625 120.88 179.898 120.947 180.195 120.947ZM186.265 116.519C186.871 116.519 187.362 116.704 187.738 117.074C188.114 117.438 188.302 117.965 188.302 118.656V121.592H187.483V118.774C187.483 118.277 187.359 117.898 187.111 117.638C186.862 117.371 186.523 117.238 186.092 117.238C185.656 117.238 185.307 117.374 185.047 117.647C184.792 117.919 184.665 118.316 184.665 118.838V121.592H183.838V116.61H184.665V117.319C184.829 117.065 185.05 116.868 185.329 116.728C185.614 116.589 185.926 116.519 186.265 116.519Z" fill="#999999"/>
<path d="M171.983 147.78C173.138 146.853 174.043 146.094 174.697 145.503C175.352 144.903 175.902 144.28 176.347 143.634C176.802 142.98 177.029 142.339 177.029 141.711C177.029 141.12 176.884 140.657 176.593 140.32C176.311 139.975 175.852 139.802 175.215 139.802C174.597 139.802 174.115 139.998 173.77 140.389C173.433 140.77 173.252 141.284 173.224 141.93H172.024C172.061 140.911 172.37 140.125 172.952 139.57C173.533 139.016 174.283 138.738 175.202 138.738C176.138 138.738 176.879 138.998 177.425 139.516C177.979 140.034 178.256 140.748 178.256 141.657C178.256 142.411 178.029 143.148 177.575 143.866C177.129 144.575 176.62 145.203 176.047 145.748C175.474 146.284 174.743 146.912 173.852 147.63H178.543V148.666H171.983V147.78ZM186.264 139.993H181.477V143.102C181.687 142.811 181.996 142.575 182.405 142.393C182.814 142.202 183.255 142.107 183.728 142.107C184.482 142.107 185.096 142.266 185.569 142.584C186.041 142.893 186.378 143.298 186.578 143.798C186.787 144.289 186.891 144.812 186.891 145.366C186.891 146.021 186.769 146.607 186.523 147.125C186.278 147.644 185.901 148.053 185.391 148.353C184.891 148.653 184.269 148.803 183.523 148.803C182.568 148.803 181.796 148.557 181.205 148.066C180.614 147.575 180.255 146.921 180.127 146.103H181.341C181.459 146.621 181.709 147.025 182.091 147.316C182.473 147.607 182.955 147.753 183.537 147.753C184.255 147.753 184.796 147.539 185.16 147.112C185.523 146.675 185.705 146.103 185.705 145.393C185.705 144.684 185.523 144.139 185.16 143.757C184.796 143.366 184.259 143.171 183.55 143.171C183.069 143.171 182.646 143.289 182.282 143.525C181.928 143.752 181.668 144.066 181.505 144.466H180.332V138.902H186.264V139.993Z" fill="black"/>
</g>
<path d="M221.049 115.256V115.928H219.322V121.592H218.495V115.928H216.758V115.256H221.049ZM226.486 116.61V121.592H225.659V120.856C225.501 121.111 225.28 121.311 224.995 121.456C224.716 121.595 224.407 121.665 224.068 121.665C223.68 121.665 223.332 121.586 223.022 121.429C222.713 121.265 222.468 121.023 222.286 120.701C222.11 120.38 222.022 119.989 222.022 119.529V116.61H222.841V119.42C222.841 119.91 222.965 120.289 223.213 120.556C223.462 120.817 223.801 120.947 224.232 120.947C224.674 120.947 225.023 120.811 225.277 120.538C225.532 120.265 225.659 119.868 225.659 119.347V116.61H226.486ZM232.429 118.91C232.429 119.068 232.42 119.235 232.402 119.41H228.42C228.45 119.901 228.617 120.286 228.92 120.565C229.229 120.838 229.601 120.974 230.038 120.974C230.395 120.974 230.692 120.892 230.929 120.729C231.171 120.559 231.341 120.335 231.438 120.056H232.329C232.196 120.535 231.929 120.926 231.529 121.229C231.129 121.526 230.632 121.674 230.038 121.674C229.565 121.674 229.141 121.568 228.765 121.356C228.395 121.144 228.104 120.844 227.892 120.456C227.68 120.062 227.574 119.607 227.574 119.092C227.574 118.577 227.677 118.126 227.883 117.738C228.089 117.35 228.377 117.053 228.747 116.847C229.123 116.634 229.553 116.528 230.038 116.528C230.511 116.528 230.929 116.631 231.293 116.838C231.656 117.044 231.935 117.328 232.129 117.692C232.329 118.05 232.429 118.456 232.429 118.91ZM231.574 118.738C231.574 118.422 231.505 118.153 231.365 117.929C231.226 117.698 231.035 117.525 230.792 117.41C230.556 117.289 230.292 117.228 230.002 117.228C229.583 117.228 229.226 117.362 228.929 117.629C228.638 117.895 228.471 118.265 228.429 118.738H231.574Z" fill="#999999"/>
<rect x="209.797" y="129.381" width="30.3051" height="28.7898" rx="14.3949" fill="#FF9B59"/>
<path d="M217.394 147.78C218.549 146.853 219.454 146.094 220.108 145.503C220.763 144.903 221.313 144.28 221.758 143.634C222.213 142.98 222.44 142.339 222.44 141.711C222.44 141.12 222.295 140.657 222.004 140.32C221.722 139.975 221.263 139.802 220.626 139.802C220.008 139.802 219.526 139.998 219.181 140.389C218.844 140.77 218.663 141.284 218.635 141.93H217.435C217.472 140.911 217.781 140.125 218.363 139.57C218.944 139.016 219.694 138.738 220.613 138.738C221.549 138.738 222.29 138.998 222.836 139.516C223.39 140.034 223.667 140.748 223.667 141.657C223.667 142.411 223.44 143.148 222.986 143.866C222.54 144.575 222.031 145.203 221.458 145.748C220.885 146.284 220.154 146.912 219.263 147.63H223.954V148.666H217.394V147.78ZM230.884 141.261C230.684 140.252 230.061 139.748 229.016 139.748C228.207 139.748 227.602 140.061 227.202 140.689C226.802 141.307 226.607 142.33 226.616 143.757C226.825 143.284 227.17 142.916 227.652 142.652C228.143 142.38 228.689 142.243 229.289 142.243C230.225 142.243 230.971 142.534 231.525 143.116C232.089 143.698 232.371 144.502 232.371 145.53C232.371 146.148 232.248 146.703 232.003 147.194C231.766 147.685 231.402 148.075 230.912 148.366C230.43 148.657 229.843 148.803 229.152 148.803C228.216 148.803 227.484 148.594 226.957 148.175C226.429 147.757 226.061 147.18 225.852 146.444C225.643 145.707 225.538 144.798 225.538 143.716C225.538 140.379 226.702 138.711 229.03 138.711C229.921 138.711 230.621 138.952 231.13 139.434C231.639 139.916 231.939 140.525 232.03 141.261H230.884ZM229.03 143.293C228.639 143.293 228.27 143.375 227.925 143.539C227.579 143.693 227.298 143.934 227.079 144.262C226.87 144.58 226.766 144.971 226.766 145.434C226.766 146.125 226.966 146.689 227.366 147.125C227.766 147.553 228.339 147.766 229.084 147.766C229.721 147.766 230.225 147.571 230.598 147.18C230.98 146.78 231.171 146.244 231.171 145.571C231.171 144.862 230.989 144.307 230.625 143.907C230.261 143.498 229.73 143.293 229.03 143.293Z" fill="white"/>
<path d="M268.571 115.256L266.734 121.592H265.807L264.334 116.492L262.807 121.592L261.889 121.601L260.116 115.256H260.998L262.38 120.629L263.907 115.256H264.834L266.289 120.611L267.68 115.256H268.571ZM274.022 118.91C274.022 119.068 274.013 119.235 273.995 119.41H270.013C270.043 119.901 270.21 120.286 270.513 120.565C270.822 120.838 271.195 120.974 271.631 120.974C271.989 120.974 272.286 120.892 272.522 120.729C272.764 120.559 272.934 120.335 273.031 120.056H273.922C273.789 120.535 273.522 120.926 273.122 121.229C272.722 121.526 272.225 121.674 271.631 121.674C271.158 121.674 270.734 121.568 270.358 121.356C269.989 121.144 269.698 120.844 269.485 120.456C269.273 120.062 269.167 119.607 269.167 119.092C269.167 118.577 269.27 118.126 269.476 117.738C269.682 117.35 269.97 117.053 270.34 116.847C270.716 116.634 271.146 116.528 271.631 116.528C272.104 116.528 272.522 116.631 272.886 116.838C273.249 117.044 273.528 117.328 273.722 117.692C273.922 118.05 274.022 118.456 274.022 118.91ZM273.168 118.738C273.168 118.422 273.098 118.153 272.958 117.929C272.819 117.698 272.628 117.525 272.386 117.41C272.149 117.289 271.886 117.228 271.595 117.228C271.176 117.228 270.819 117.362 270.522 117.629C270.231 117.895 270.064 118.265 270.022 118.738H273.168ZM274.805 119.083C274.805 118.574 274.908 118.129 275.114 117.747C275.32 117.359 275.602 117.059 275.96 116.847C276.323 116.634 276.729 116.528 277.178 116.528C277.566 116.528 277.926 116.619 278.26 116.801C278.593 116.977 278.848 117.21 279.024 117.501V114.865H279.86V121.592H279.024V120.656C278.86 120.953 278.617 121.198 278.296 121.392C277.975 121.58 277.599 121.674 277.169 121.674C276.726 121.674 276.323 121.565 275.96 121.347C275.602 121.129 275.32 120.823 275.114 120.429C274.908 120.035 274.805 119.586 274.805 119.083ZM279.024 119.092C279.024 118.716 278.948 118.389 278.796 118.11C278.645 117.832 278.439 117.619 278.178 117.474C277.923 117.322 277.642 117.247 277.332 117.247C277.023 117.247 276.742 117.319 276.487 117.465C276.232 117.61 276.029 117.822 275.878 118.101C275.726 118.38 275.651 118.707 275.651 119.083C275.651 119.465 275.726 119.798 275.878 120.083C276.029 120.362 276.232 120.577 276.487 120.729C276.742 120.874 277.023 120.947 277.332 120.947C277.642 120.947 277.923 120.874 278.178 120.729C278.439 120.577 278.645 120.362 278.796 120.083C278.948 119.798 279.024 119.468 279.024 119.092Z" fill="#999999"/>
<path d="M263.458 147.78C264.613 146.853 265.517 146.094 266.172 145.503C266.826 144.903 267.376 144.28 267.822 143.634C268.276 142.98 268.504 142.339 268.504 141.711C268.504 141.12 268.358 140.657 268.067 140.32C267.785 139.975 267.326 139.802 266.69 139.802C266.072 139.802 265.59 139.998 265.244 140.389C264.908 140.77 264.726 141.284 264.699 141.93H263.499C263.535 140.911 263.844 140.125 264.426 139.57C265.008 139.016 265.758 138.738 266.676 138.738C267.613 138.738 268.354 138.998 268.899 139.516C269.454 140.034 269.731 140.748 269.731 141.657C269.731 142.411 269.504 143.148 269.049 143.866C268.604 144.575 268.095 145.203 267.522 145.748C266.949 146.284 266.217 146.912 265.326 147.63H270.017V148.666H263.458V147.78ZM277.521 139.884L273.729 148.776H272.475L276.321 140.007H271.057V138.943H277.521V139.884Z" fill="black"/>
<path d="M311.965 115.256V115.928H310.237V121.592H309.41V115.928H307.673V115.256H311.965ZM315.456 116.519C315.832 116.519 316.171 116.601 316.474 116.765C316.777 116.922 317.014 117.162 317.183 117.483C317.359 117.804 317.447 118.195 317.447 118.656V121.592H316.629V118.774C316.629 118.277 316.505 117.898 316.256 117.638C316.008 117.371 315.668 117.238 315.238 117.238C314.801 117.238 314.453 117.374 314.192 117.647C313.938 117.919 313.81 118.316 313.81 118.838V121.592H312.983V114.865H313.81V117.319C313.974 117.065 314.198 116.868 314.483 116.728C314.774 116.589 315.098 116.519 315.456 116.519ZM323.217 116.61V121.592H322.39V120.856C322.232 121.111 322.011 121.311 321.726 121.456C321.447 121.595 321.138 121.665 320.799 121.665C320.411 121.665 320.062 121.586 319.753 121.429C319.444 121.265 319.198 121.023 319.017 120.701C318.841 120.38 318.753 119.989 318.753 119.529V116.61H319.571V119.42C319.571 119.91 319.695 120.289 319.944 120.556C320.192 120.817 320.532 120.947 320.962 120.947C321.405 120.947 321.753 120.811 322.008 120.538C322.262 120.265 322.39 119.868 322.39 119.347V116.61H323.217Z" fill="#999999"/>
<path d="M308.336 147.78C309.491 146.853 310.395 146.094 311.05 145.503C311.705 144.903 312.255 144.28 312.7 143.634C313.155 142.98 313.382 142.339 313.382 141.711C313.382 141.12 313.237 140.657 312.946 140.32C312.664 139.975 312.205 139.802 311.568 139.802C310.95 139.802 310.468 139.998 310.123 140.389C309.786 140.77 309.604 141.284 309.577 141.93H308.377C308.414 140.911 308.723 140.125 309.304 139.57C309.886 139.016 310.636 138.738 311.555 138.738C312.491 138.738 313.232 138.998 313.778 139.516C314.332 140.034 314.609 140.748 314.609 141.657C314.609 142.411 314.382 143.148 313.928 143.866C313.482 144.575 312.973 145.203 312.4 145.748C311.827 146.284 311.096 146.912 310.205 147.63H314.896V148.666H308.336V147.78ZM318.13 143.648C317.621 143.448 317.23 143.157 316.958 142.775C316.685 142.393 316.549 141.93 316.549 141.384C316.549 140.893 316.671 140.452 316.917 140.061C317.162 139.661 317.526 139.348 318.008 139.12C318.499 138.884 319.09 138.766 319.781 138.766C320.472 138.766 321.058 138.884 321.54 139.12C322.031 139.348 322.399 139.661 322.644 140.061C322.899 140.452 323.026 140.893 323.026 141.384C323.026 141.911 322.885 142.375 322.603 142.775C322.322 143.166 321.935 143.457 321.444 143.648C322.008 143.821 322.453 144.125 322.781 144.562C323.117 144.989 323.285 145.507 323.285 146.116C323.285 146.707 323.14 147.225 322.849 147.671C322.558 148.107 322.144 148.448 321.608 148.694C321.081 148.93 320.472 149.048 319.781 149.048C319.09 149.048 318.48 148.93 317.953 148.694C317.435 148.448 317.03 148.107 316.739 147.671C316.449 147.225 316.303 146.707 316.303 146.116C316.303 145.507 316.467 144.984 316.794 144.548C317.121 144.112 317.567 143.812 318.13 143.648ZM321.826 141.534C321.826 140.98 321.644 140.552 321.281 140.252C320.917 139.952 320.417 139.802 319.781 139.802C319.153 139.802 318.658 139.952 318.294 140.252C317.93 140.552 317.749 140.984 317.749 141.548C317.749 142.057 317.935 142.466 318.308 142.775C318.69 143.084 319.181 143.239 319.781 143.239C320.39 143.239 320.881 143.084 321.253 142.775C321.635 142.457 321.826 142.043 321.826 141.534ZM319.781 144.193C319.108 144.193 318.558 144.352 318.13 144.671C317.703 144.98 317.49 145.448 317.49 146.075C317.49 146.657 317.694 147.125 318.103 147.48C318.521 147.835 319.081 148.012 319.781 148.012C320.481 148.012 321.035 147.835 321.444 147.48C321.853 147.125 322.058 146.657 322.058 146.075C322.058 145.466 321.849 145.003 321.431 144.684C321.012 144.357 320.462 144.193 319.781 144.193Z" fill="black"/>
<path d="M360.104 115.256V115.928H357.349V118.065H359.586V118.738H357.349V121.592H356.522V115.256H360.104ZM361.931 117.419C362.076 117.135 362.282 116.913 362.549 116.756C362.822 116.598 363.152 116.519 363.54 116.519V117.374H363.322C362.394 117.374 361.931 117.877 361.931 118.883V121.592H361.103V116.61H361.931V117.419ZM364.922 115.801C364.765 115.801 364.631 115.747 364.522 115.637C364.413 115.528 364.359 115.395 364.359 115.237C364.359 115.08 364.413 114.947 364.522 114.837C364.631 114.728 364.765 114.674 364.922 114.674C365.074 114.674 365.201 114.728 365.304 114.837C365.413 114.947 365.468 115.08 365.468 115.237C365.468 115.395 365.413 115.528 365.304 115.637C365.201 115.747 365.074 115.801 364.922 115.801ZM365.322 116.61V121.592H364.495V116.61H365.322Z" fill="#999999"/>
<path d="M353.801 147.78C354.955 146.853 355.86 146.094 356.514 145.503C357.169 144.903 357.719 144.28 358.164 143.634C358.619 142.98 358.846 142.339 358.846 141.711C358.846 141.12 358.701 140.657 358.41 140.32C358.128 139.975 357.669 139.802 357.033 139.802C356.414 139.802 355.932 139.998 355.587 140.389C355.251 140.77 355.069 141.284 355.042 141.93H353.841C353.878 140.911 354.187 140.125 354.769 139.57C355.351 139.016 356.101 138.738 357.019 138.738C357.955 138.738 358.696 138.998 359.242 139.516C359.796 140.034 360.074 140.748 360.074 141.657C360.074 142.411 359.846 143.148 359.392 143.866C358.946 144.575 358.437 145.203 357.864 145.748C357.292 146.284 356.56 146.912 355.669 147.63H360.36V148.666H353.801V147.78ZM363.39 146.13C363.481 146.648 363.69 147.048 364.018 147.33C364.354 147.612 364.804 147.753 365.368 147.753C366.122 147.753 366.677 147.457 367.031 146.866C367.395 146.275 367.568 145.28 367.55 143.88C367.359 144.289 367.04 144.612 366.595 144.848C366.149 145.075 365.654 145.189 365.109 145.189C364.499 145.189 363.954 145.066 363.472 144.821C362.999 144.566 362.627 144.198 362.354 143.716C362.081 143.234 361.945 142.652 361.945 141.971C361.945 140.998 362.226 140.216 362.79 139.625C363.354 139.025 364.154 138.725 365.19 138.725C366.463 138.725 367.354 139.138 367.863 139.966C368.381 140.793 368.641 142.025 368.641 143.662C368.641 144.807 368.536 145.753 368.327 146.498C368.127 147.244 367.781 147.812 367.29 148.203C366.809 148.594 366.145 148.789 365.299 148.789C364.372 148.789 363.649 148.539 363.131 148.039C362.613 147.539 362.317 146.903 362.245 146.13H363.39ZM365.313 144.139C365.922 144.139 366.422 143.952 366.813 143.58C367.204 143.198 367.4 142.684 367.4 142.039C367.4 141.357 367.209 140.807 366.827 140.389C366.445 139.97 365.909 139.761 365.218 139.761C364.581 139.761 364.072 139.961 363.69 140.361C363.317 140.761 363.131 141.289 363.131 141.943C363.131 142.607 363.317 143.139 363.69 143.539C364.063 143.939 364.604 144.139 365.313 144.139Z" fill="black"/>
<path d="M401.989 121.656C401.571 121.656 401.195 121.583 400.861 121.438C400.534 121.286 400.277 121.08 400.089 120.82C399.901 120.553 399.804 120.247 399.798 119.901H400.68C400.71 120.198 400.831 120.45 401.043 120.656C401.261 120.856 401.577 120.956 401.989 120.956C402.383 120.956 402.692 120.859 402.916 120.665C403.146 120.465 403.262 120.21 403.262 119.901C403.262 119.659 403.195 119.462 403.062 119.31C402.928 119.159 402.762 119.044 402.562 118.965C402.362 118.886 402.092 118.801 401.752 118.71C401.334 118.601 400.998 118.492 400.743 118.383C400.495 118.274 400.28 118.104 400.098 117.874C399.922 117.638 399.834 117.322 399.834 116.928C399.834 116.583 399.922 116.277 400.098 116.01C400.274 115.744 400.519 115.537 400.834 115.392C401.155 115.247 401.522 115.174 401.934 115.174C402.528 115.174 403.013 115.322 403.389 115.619C403.771 115.916 403.986 116.31 404.034 116.801H403.125C403.095 116.559 402.968 116.347 402.743 116.165C402.519 115.977 402.222 115.883 401.852 115.883C401.507 115.883 401.225 115.974 401.007 116.156C400.789 116.331 400.68 116.58 400.68 116.901C400.68 117.131 400.743 117.319 400.871 117.465C401.004 117.61 401.165 117.722 401.352 117.801C401.546 117.874 401.816 117.959 402.162 118.056C402.58 118.171 402.916 118.286 403.171 118.401C403.425 118.51 403.643 118.683 403.825 118.919C404.007 119.15 404.098 119.465 404.098 119.865C404.098 120.174 404.016 120.465 403.853 120.738C403.689 121.011 403.446 121.232 403.125 121.401C402.804 121.571 402.425 121.656 401.989 121.656ZM405.006 119.083C405.006 118.574 405.109 118.129 405.316 117.747C405.522 117.359 405.803 117.059 406.161 116.847C406.525 116.634 406.928 116.528 407.37 116.528C407.807 116.528 408.185 116.622 408.507 116.81C408.828 116.998 409.067 117.235 409.225 117.519V116.61H410.061V121.592H409.225V120.665C409.061 120.956 408.816 121.198 408.488 121.392C408.167 121.58 407.791 121.674 407.361 121.674C406.919 121.674 406.519 121.565 406.161 121.347C405.803 121.129 405.522 120.823 405.316 120.429C405.109 120.035 405.006 119.586 405.006 119.083ZM409.225 119.092C409.225 118.716 409.149 118.389 408.998 118.11C408.846 117.832 408.64 117.619 408.379 117.474C408.125 117.322 407.843 117.247 407.534 117.247C407.225 117.247 406.943 117.319 406.688 117.465C406.434 117.61 406.231 117.822 406.079 118.101C405.928 118.38 405.852 118.707 405.852 119.083C405.852 119.465 405.928 119.798 406.079 120.083C406.231 120.362 406.434 120.577 406.688 120.729C406.943 120.874 407.225 120.947 407.534 120.947C407.843 120.947 408.125 120.874 408.379 120.729C408.64 120.577 408.846 120.362 408.998 120.083C409.149 119.798 409.225 119.468 409.225 119.092ZM412.469 117.292V120.229C412.469 120.471 412.52 120.644 412.623 120.747C412.726 120.844 412.905 120.892 413.16 120.892H413.769V121.592H413.023C412.563 121.592 412.217 121.486 411.987 121.274C411.756 121.062 411.641 120.714 411.641 120.229V117.292H410.996V116.61H411.641V115.356H412.469V116.61H413.769V117.292H412.469Z" fill="#999999"/>
<path d="M399.301 141.398C399.365 140.561 399.687 139.907 400.269 139.434C400.851 138.961 401.606 138.725 402.533 138.725C403.151 138.725 403.683 138.838 404.128 139.066C404.583 139.284 404.924 139.584 405.151 139.966C405.388 140.348 405.506 140.78 405.506 141.261C405.506 141.825 405.342 142.311 405.015 142.721C404.697 143.13 404.278 143.393 403.76 143.512V143.58C404.351 143.725 404.819 144.012 405.165 144.439C405.51 144.866 405.683 145.425 405.683 146.116C405.683 146.634 405.565 147.103 405.329 147.521C405.092 147.93 404.738 148.253 404.265 148.489C403.792 148.726 403.224 148.844 402.56 148.844C401.596 148.844 400.806 148.594 400.187 148.094C399.569 147.585 399.224 146.866 399.151 145.939H400.351C400.415 146.484 400.637 146.93 401.019 147.275C401.401 147.621 401.91 147.794 402.547 147.794C403.183 147.794 403.665 147.63 403.992 147.303C404.328 146.966 404.497 146.534 404.497 146.007C404.497 145.325 404.269 144.834 403.815 144.534C403.36 144.234 402.674 144.084 401.756 144.084H401.442V143.048H401.769C402.606 143.039 403.238 142.902 403.665 142.639C404.092 142.366 404.306 141.948 404.306 141.384C404.306 140.902 404.147 140.516 403.828 140.225C403.519 139.934 403.074 139.789 402.492 139.789C401.928 139.789 401.474 139.934 401.128 140.225C400.783 140.516 400.578 140.907 400.515 141.398H399.301ZM407.359 143.743C407.359 142.18 407.613 140.961 408.122 140.089C408.632 139.207 409.522 138.766 410.795 138.766C412.059 138.766 412.945 139.207 413.455 140.089C413.964 140.961 414.218 142.18 414.218 143.743C414.218 145.334 413.964 146.571 413.455 147.453C412.945 148.335 412.059 148.776 410.795 148.776C409.522 148.776 408.632 148.335 408.122 147.453C407.613 146.571 407.359 145.334 407.359 143.743ZM412.991 143.743C412.991 142.952 412.936 142.284 412.827 141.739C412.727 141.184 412.514 140.739 412.186 140.402C411.868 140.066 411.404 139.898 410.795 139.898C410.177 139.898 409.704 140.066 409.377 140.402C409.059 140.739 408.845 141.184 408.736 141.739C408.636 142.284 408.586 142.952 408.586 143.743C408.586 144.562 408.636 145.248 408.736 145.803C408.845 146.357 409.059 146.803 409.377 147.139C409.704 147.475 410.177 147.644 410.795 147.644C411.404 147.644 411.868 147.475 412.186 147.139C412.514 146.803 412.727 146.357 412.827 145.803C412.936 145.248 412.991 144.562 412.991 143.743Z" fill="black"/>
<rect x="100.319" y="195.658" width="164.026" height="33.3356" rx="8.71271" stroke="#60C7FF" stroke-width="0.757627"/>
<path d="M167.537 211.633C167.537 210.33 167.749 209.314 168.174 208.587C168.598 207.852 169.34 207.485 170.401 207.485C171.454 207.485 172.193 207.852 172.617 208.587C173.041 209.314 173.254 210.33 173.254 211.633C173.254 212.959 173.041 213.989 172.617 214.724C172.193 215.459 171.454 215.826 170.401 215.826C169.34 215.826 168.598 215.459 168.174 214.724C167.749 213.989 167.537 212.959 167.537 211.633ZM172.231 211.633C172.231 210.974 172.185 210.417 172.094 209.962C172.011 209.5 171.833 209.129 171.56 208.849C171.295 208.568 170.909 208.428 170.401 208.428C169.886 208.428 169.492 208.568 169.219 208.849C168.954 209.129 168.776 209.5 168.685 209.962C168.602 210.417 168.56 210.974 168.56 211.633C168.56 212.315 168.602 212.887 168.685 213.349C168.776 213.811 168.954 214.182 169.219 214.463C169.492 214.743 169.886 214.883 170.401 214.883C170.909 214.883 171.295 214.743 171.56 214.463C171.833 214.182 172.011 213.811 172.094 213.349C172.185 212.887 172.231 212.315 172.231 211.633ZM176.003 213.622C176.079 214.053 176.253 214.387 176.526 214.622C176.806 214.857 177.181 214.974 177.651 214.974C178.28 214.974 178.742 214.728 179.037 214.235C179.34 213.743 179.484 212.913 179.469 211.746C179.31 212.087 179.045 212.356 178.674 212.553C178.302 212.743 177.889 212.837 177.435 212.837C176.927 212.837 176.473 212.735 176.071 212.531C175.677 212.318 175.367 212.012 175.139 211.61C174.912 211.209 174.798 210.724 174.798 210.155C174.798 209.345 175.033 208.693 175.503 208.201C175.973 207.701 176.639 207.451 177.503 207.451C178.564 207.451 179.306 207.795 179.73 208.485C180.162 209.174 180.378 210.201 180.378 211.565C180.378 212.519 180.291 213.307 180.117 213.928C179.95 214.55 179.662 215.023 179.253 215.349C178.852 215.675 178.299 215.838 177.594 215.838C176.821 215.838 176.219 215.629 175.787 215.213C175.355 214.796 175.109 214.266 175.048 213.622H176.003ZM177.605 211.962C178.113 211.962 178.53 211.807 178.855 211.496C179.181 211.178 179.344 210.75 179.344 210.212C179.344 209.644 179.185 209.186 178.867 208.837C178.549 208.489 178.102 208.314 177.526 208.314C176.995 208.314 176.571 208.481 176.253 208.814C175.942 209.148 175.787 209.587 175.787 210.133C175.787 210.686 175.942 211.129 176.253 211.462C176.564 211.796 177.014 211.962 177.605 211.962ZM182.332 215.894C182.135 215.894 181.968 215.826 181.832 215.69C181.695 215.554 181.627 215.387 181.627 215.19C181.627 214.993 181.695 214.826 181.832 214.69C181.968 214.553 182.135 214.485 182.332 214.485C182.521 214.485 182.68 214.553 182.809 214.69C182.945 214.826 183.013 214.993 183.013 215.19C183.013 215.387 182.945 215.554 182.809 215.69C182.68 215.826 182.521 215.894 182.332 215.894ZM182.332 211.031C182.135 211.031 181.968 210.962 181.832 210.826C181.695 210.69 181.627 210.523 181.627 210.326C181.627 210.129 181.695 209.962 181.832 209.826C181.968 209.69 182.135 209.621 182.332 209.621C182.521 209.621 182.68 209.69 182.809 209.826C182.945 209.962 183.013 210.129 183.013 210.326C183.013 210.523 182.945 210.69 182.809 210.826C182.68 210.962 182.521 211.031 182.332 211.031ZM184.251 211.633C184.251 210.33 184.463 209.314 184.887 208.587C185.312 207.852 186.054 207.485 187.115 207.485C188.168 207.485 188.907 207.852 189.331 208.587C189.755 209.314 189.967 210.33 189.967 211.633C189.967 212.959 189.755 213.989 189.331 214.724C188.907 215.459 188.168 215.826 187.115 215.826C186.054 215.826 185.312 215.459 184.887 214.724C184.463 213.989 184.251 212.959 184.251 211.633ZM188.944 211.633C188.944 210.974 188.899 210.417 188.808 209.962C188.725 209.5 188.547 209.129 188.274 208.849C188.009 208.568 187.622 208.428 187.115 208.428C186.6 208.428 186.206 208.568 185.933 208.849C185.668 209.129 185.49 209.5 185.399 209.962C185.315 210.417 185.274 210.974 185.274 211.633C185.274 212.315 185.315 212.887 185.399 213.349C185.49 213.811 185.668 214.182 185.933 214.463C186.206 214.743 186.6 214.883 187.115 214.883C187.622 214.883 188.009 214.743 188.274 214.463C188.547 214.182 188.725 213.811 188.808 213.349C188.899 212.887 188.944 212.315 188.944 211.633ZM191.387 211.633C191.387 210.33 191.599 209.314 192.023 208.587C192.448 207.852 193.19 207.485 194.251 207.485C195.304 207.485 196.043 207.852 196.467 208.587C196.891 209.314 197.103 210.33 197.103 211.633C197.103 212.959 196.891 213.989 196.467 214.724C196.043 215.459 195.304 215.826 194.251 215.826C193.19 215.826 192.448 215.459 192.023 214.724C191.599 213.989 191.387 212.959 191.387 211.633ZM196.08 211.633C196.08 210.974 196.035 210.417 195.944 209.962C195.861 209.5 195.683 209.129 195.41 208.849C195.145 208.568 194.758 208.428 194.251 208.428C193.736 208.428 193.342 208.568 193.069 208.849C192.804 209.129 192.626 209.5 192.535 209.962C192.451 210.417 192.41 210.974 192.41 211.633C192.41 212.315 192.451 212.887 192.535 213.349C192.626 213.811 192.804 214.182 193.069 214.463C193.342 214.743 193.736 214.883 194.251 214.883C194.758 214.883 195.145 214.743 195.41 214.463C195.683 214.182 195.861 213.811 195.944 213.349C196.035 212.887 196.08 212.315 196.08 211.633Z" fill="black"/>
<rect x="276.468" y="195.658" width="164.026" height="33.3356" rx="8.71271" stroke="#60C7FF" stroke-width="0.757627"/>
<path d="M345.413 208.553V207.61H347.549V215.826H346.504V208.553H345.413ZM349.201 214.997C350.163 214.224 350.917 213.591 351.462 213.099C352.008 212.599 352.466 212.08 352.837 211.542C353.216 210.996 353.406 210.462 353.406 209.94C353.406 209.447 353.284 209.061 353.042 208.78C352.807 208.492 352.424 208.349 351.894 208.349C351.379 208.349 350.977 208.511 350.689 208.837C350.409 209.155 350.258 209.583 350.235 210.121H349.235C349.265 209.273 349.523 208.617 350.008 208.155C350.492 207.693 351.117 207.462 351.883 207.462C352.663 207.462 353.281 207.678 353.735 208.11C354.197 208.542 354.428 209.136 354.428 209.894C354.428 210.523 354.239 211.137 353.86 211.735C353.489 212.326 353.065 212.849 352.587 213.303C352.11 213.75 351.5 214.273 350.758 214.872H354.667V215.735H349.201V214.997ZM356.362 215.894C356.166 215.894 355.999 215.826 355.862 215.69C355.726 215.554 355.658 215.387 355.658 215.19C355.658 214.993 355.726 214.826 355.862 214.69C355.999 214.553 356.166 214.485 356.362 214.485C356.552 214.485 356.711 214.553 356.84 214.69C356.976 214.826 357.044 214.993 357.044 215.19C357.044 215.387 356.976 215.554 356.84 215.69C356.711 215.826 356.552 215.894 356.362 215.894ZM356.362 211.031C356.166 211.031 355.999 210.962 355.862 210.826C355.726 210.69 355.658 210.523 355.658 210.326C355.658 210.129 355.726 209.962 355.862 209.826C355.999 209.69 356.166 209.621 356.362 209.621C356.552 209.621 356.711 209.69 356.84 209.826C356.976 209.962 357.044 210.129 357.044 210.326C357.044 210.523 356.976 210.69 356.84 210.826C356.711 210.962 356.552 211.031 356.362 211.031ZM358.282 211.633C358.282 210.33 358.494 209.314 358.918 208.587C359.343 207.852 360.085 207.485 361.146 207.485C362.199 207.485 362.937 207.852 363.362 208.587C363.786 209.314 363.998 210.33 363.998 211.633C363.998 212.959 363.786 213.989 363.362 214.724C362.937 215.459 362.199 215.826 361.146 215.826C360.085 215.826 359.343 215.459 358.918 214.724C358.494 213.989 358.282 212.959 358.282 211.633ZM362.975 211.633C362.975 210.974 362.93 210.417 362.839 209.962C362.756 209.5 362.578 209.129 362.305 208.849C362.04 208.568 361.653 208.428 361.146 208.428C360.63 208.428 360.237 208.568 359.964 208.849C359.699 209.129 359.521 209.5 359.43 209.962C359.346 210.417 359.305 210.974 359.305 211.633C359.305 212.315 359.346 212.887 359.43 213.349C359.521 213.811 359.699 214.182 359.964 214.463C360.237 214.743 360.63 214.883 361.146 214.883C361.653 214.883 362.04 214.743 362.305 214.463C362.578 214.182 362.756 213.811 362.839 213.349C362.93 212.887 362.975 212.315 362.975 211.633ZM365.418 211.633C365.418 210.33 365.63 209.314 366.054 208.587C366.479 207.852 367.221 207.485 368.282 207.485C369.335 207.485 370.074 207.852 370.498 208.587C370.922 209.314 371.134 210.33 371.134 211.633C371.134 212.959 370.922 213.989 370.498 214.724C370.074 215.459 369.335 215.826 368.282 215.826C367.221 215.826 366.479 215.459 366.054 214.724C365.63 213.989 365.418 212.959 365.418 211.633ZM370.111 211.633C370.111 210.974 370.066 210.417 369.975 209.962C369.892 209.5 369.714 209.129 369.441 208.849C369.176 208.568 368.789 208.428 368.282 208.428C367.767 208.428 367.373 208.568 367.1 208.849C366.835 209.129 366.657 209.5 366.566 209.962C366.482 210.417 366.441 210.974 366.441 211.633C366.441 212.315 366.482 212.887 366.566 213.349C366.657 213.811 366.835 214.182 367.1 214.463C367.373 214.743 367.767 214.883 368.282 214.883C368.789 214.883 369.176 214.743 369.441 214.463C369.714 214.182 369.892 213.811 369.975 213.349C370.066 212.887 370.111 212.315 370.111 211.633Z" fill="black"/>
<rect x="100.319" y="241.116" width="164.026" height="33.3356" rx="8.71271" stroke="#60C7FF" stroke-width="0.757627"/>
<path d="M168.764 254.011V253.067H170.901V261.284H169.855V254.011H168.764ZM177.916 253.965H173.927V256.556C174.102 256.314 174.359 256.117 174.7 255.965C175.041 255.806 175.409 255.727 175.803 255.727C176.431 255.727 176.943 255.859 177.337 256.124C177.731 256.382 178.011 256.719 178.178 257.136C178.352 257.545 178.439 257.981 178.439 258.443C178.439 258.988 178.337 259.477 178.132 259.909C177.928 260.341 177.613 260.682 177.189 260.932C176.772 261.182 176.253 261.307 175.632 261.307C174.837 261.307 174.193 261.102 173.7 260.693C173.208 260.284 172.908 259.738 172.802 259.057H173.814C173.912 259.488 174.121 259.826 174.439 260.068C174.757 260.31 175.159 260.432 175.644 260.432C176.242 260.432 176.693 260.254 176.996 259.897C177.299 259.534 177.45 259.057 177.45 258.466C177.45 257.875 177.299 257.42 176.996 257.102C176.693 256.776 176.246 256.613 175.655 256.613C175.253 256.613 174.901 256.712 174.598 256.909C174.303 257.098 174.087 257.359 173.95 257.693H172.973V253.056H177.916V253.965ZM180.313 261.352C180.116 261.352 179.95 261.284 179.813 261.148C179.677 261.011 179.609 260.845 179.609 260.648C179.609 260.451 179.677 260.284 179.813 260.147C179.95 260.011 180.116 259.943 180.313 259.943C180.503 259.943 180.662 260.011 180.791 260.147C180.927 260.284 180.995 260.451 180.995 260.648C180.995 260.845 180.927 261.011 180.791 261.148C180.662 261.284 180.503 261.352 180.313 261.352ZM180.313 256.488C180.116 256.488 179.95 256.42 179.813 256.284C179.677 256.147 179.609 255.981 179.609 255.784C179.609 255.587 179.677 255.42 179.813 255.284C179.95 255.147 180.116 255.079 180.313 255.079C180.503 255.079 180.662 255.147 180.791 255.284C180.927 255.42 180.995 255.587 180.995 255.784C180.995 255.981 180.927 256.147 180.791 256.284C180.662 256.42 180.503 256.488 180.313 256.488ZM182.233 257.09C182.233 255.787 182.445 254.772 182.869 254.045C183.293 253.31 184.036 252.942 185.097 252.942C186.15 252.942 186.888 253.31 187.313 254.045C187.737 254.772 187.949 255.787 187.949 257.09C187.949 258.416 187.737 259.447 187.313 260.182C186.888 260.916 186.15 261.284 185.097 261.284C184.036 261.284 183.293 260.916 182.869 260.182C182.445 259.447 182.233 258.416 182.233 257.09ZM186.926 257.09C186.926 256.431 186.881 255.874 186.79 255.42C186.707 254.958 186.529 254.587 186.256 254.306C185.991 254.026 185.604 253.886 185.097 253.886C184.581 253.886 184.187 254.026 183.915 254.306C183.65 254.587 183.472 254.958 183.381 255.42C183.297 255.874 183.256 256.431 183.256 257.09C183.256 257.772 183.297 258.344 183.381 258.806C183.472 259.269 183.65 259.64 183.915 259.92C184.187 260.201 184.581 260.341 185.097 260.341C185.604 260.341 185.991 260.201 186.256 259.92C186.529 259.64 186.707 259.269 186.79 258.806C186.881 258.344 186.926 257.772 186.926 257.09ZM189.369 257.09C189.369 255.787 189.581 254.772 190.005 254.045C190.43 253.31 191.172 252.942 192.233 252.942C193.286 252.942 194.024 253.31 194.449 254.045C194.873 254.772 195.085 255.787 195.085 257.09C195.085 258.416 194.873 259.447 194.449 260.182C194.024 260.916 193.286 261.284 192.233 261.284C191.172 261.284 190.43 260.916 190.005 260.182C189.581 259.447 189.369 258.416 189.369 257.09ZM194.062 257.09C194.062 256.431 194.017 255.874 193.926 255.42C193.843 254.958 193.665 254.587 193.392 254.306C193.127 254.026 192.74 253.886 192.233 253.886C191.718 253.886 191.324 254.026 191.051 254.306C190.786 254.587 190.608 254.958 190.517 255.42C190.433 255.874 190.392 256.431 190.392 257.09C190.392 257.772 190.433 258.344 190.517 258.806C190.608 259.269 190.786 259.64 191.051 259.92C191.324 260.201 191.718 260.341 192.233 260.341C192.74 260.341 193.127 260.201 193.392 259.92C193.665 259.64 193.843 259.269 193.926 258.806C194.017 258.344 194.062 257.772 194.062 257.09Z" fill="black"/>
<rect x="276.468" y="241.116" width="164.026" height="33.3356" rx="8.71271" stroke="#60C7FF" stroke-width="0.757627"/>
<path d="M344.913 254.011V253.067H347.049V261.284H346.004V254.011H344.913ZM353.406 255.022C353.239 254.181 352.72 253.761 351.849 253.761C351.174 253.761 350.671 254.022 350.337 254.545C350.004 255.06 349.841 255.912 349.849 257.102C350.023 256.708 350.311 256.401 350.712 256.181C351.121 255.954 351.576 255.84 352.076 255.84C352.856 255.84 353.478 256.083 353.94 256.568C354.409 257.053 354.644 257.723 354.644 258.579C354.644 259.094 354.542 259.557 354.337 259.966C354.14 260.375 353.837 260.701 353.428 260.943C353.027 261.185 352.538 261.307 351.962 261.307C351.182 261.307 350.572 261.132 350.133 260.784C349.693 260.435 349.386 259.954 349.212 259.341C349.038 258.727 348.951 257.969 348.951 257.068C348.951 254.287 349.92 252.897 351.86 252.897C352.602 252.897 353.186 253.098 353.61 253.499C354.034 253.901 354.284 254.408 354.36 255.022H353.406ZM351.86 256.715C351.534 256.715 351.227 256.784 350.939 256.92C350.652 257.049 350.417 257.25 350.235 257.522C350.061 257.787 349.974 258.113 349.974 258.5C349.974 259.075 350.14 259.545 350.474 259.909C350.807 260.265 351.284 260.443 351.905 260.443C352.436 260.443 352.856 260.28 353.167 259.954C353.485 259.621 353.644 259.174 353.644 258.613C353.644 258.022 353.493 257.56 353.19 257.227C352.887 256.886 352.443 256.715 351.86 256.715ZM356.539 261.352C356.342 261.352 356.176 261.284 356.039 261.148C355.903 261.011 355.835 260.845 355.835 260.648C355.835 260.451 355.903 260.284 356.039 260.147C356.176 260.011 356.342 259.943 356.539 259.943C356.729 259.943 356.888 260.011 357.017 260.147C357.153 260.284 357.221 260.451 357.221 260.648C357.221 260.845 357.153 261.011 357.017 261.148C356.888 261.284 356.729 261.352 356.539 261.352ZM356.539 256.488C356.342 256.488 356.176 256.42 356.039 256.284C355.903 256.147 355.835 255.981 355.835 255.784C355.835 255.587 355.903 255.42 356.039 255.284C356.176 255.147 356.342 255.079 356.539 255.079C356.729 255.079 356.888 255.147 357.017 255.284C357.153 255.42 357.221 255.587 357.221 255.784C357.221 255.981 357.153 256.147 357.017 256.284C356.888 256.42 356.729 256.488 356.539 256.488ZM358.459 257.09C358.459 255.787 358.671 254.772 359.095 254.045C359.519 253.31 360.262 252.942 361.323 252.942C362.376 252.942 363.114 253.31 363.539 254.045C363.963 254.772 364.175 255.787 364.175 257.09C364.175 258.416 363.963 259.447 363.539 260.182C363.114 260.916 362.376 261.284 361.323 261.284C360.262 261.284 359.519 260.916 359.095 260.182C358.671 259.447 358.459 258.416 358.459 257.09ZM363.152 257.09C363.152 256.431 363.107 255.874 363.016 255.42C362.933 254.958 362.755 254.587 362.482 254.306C362.217 254.026 361.83 253.886 361.323 253.886C360.807 253.886 360.413 254.026 360.141 254.306C359.876 254.587 359.698 254.958 359.607 255.42C359.523 255.874 359.482 256.431 359.482 257.09C359.482 257.772 359.523 258.344 359.607 258.806C359.698 259.269 359.876 259.64 360.141 259.92C360.413 260.201 360.807 260.341 361.323 260.341C361.83 260.341 362.217 260.201 362.482 259.92C362.755 259.64 362.933 259.269 363.016 258.806C363.107 258.344 363.152 257.772 363.152 257.09ZM365.595 257.09C365.595 255.787 365.807 254.772 366.231 254.045C366.656 253.31 367.398 252.942 368.459 252.942C369.512 252.942 370.25 253.31 370.675 254.045C371.099 254.772 371.311 255.787 371.311 257.09C371.311 258.416 371.099 259.447 370.675 260.182C370.25 260.916 369.512 261.284 368.459 261.284C367.398 261.284 366.656 260.916 366.231 260.182C365.807 259.447 365.595 258.416 365.595 257.09ZM370.288 257.09C370.288 256.431 370.243 255.874 370.152 255.42C370.069 254.958 369.891 254.587 369.618 254.306C369.353 254.026 368.966 253.886 368.459 253.886C367.944 253.886 367.55 254.026 367.277 254.306C367.012 254.587 366.834 254.958 366.743 255.42C366.659 255.874 366.618 256.431 366.618 257.09C366.618 257.772 366.659 258.344 366.743 258.806C366.834 259.269 367.012 259.64 367.277 259.92C367.55 260.201 367.944 260.341 368.459 260.341C368.966 260.341 369.353 260.201 369.618 259.92C369.891 259.64 370.069 259.269 370.152 258.806C370.243 258.344 370.288 257.772 370.288 257.09Z" fill="black"/>
<rect x="178" y="321" width="184" height="42" rx="21" fill="#F48228"/>
<path d="M246.495 340.48C246.495 340.952 246.384 341.398 246.161 341.816C245.938 342.235 245.582 342.578 245.092 342.845C244.602 343.103 243.974 343.232 243.208 343.232H241.525V347H240.002V337.715H243.208C243.921 337.715 244.522 337.839 245.012 338.089C245.511 338.329 245.88 338.659 246.121 339.078C246.37 339.496 246.495 339.964 246.495 340.48ZM243.208 341.99C243.787 341.99 244.219 341.861 244.504 341.603C244.789 341.335 244.932 340.961 244.932 340.48C244.932 339.465 244.357 338.957 243.208 338.957H241.525V341.99H243.208ZM248.722 338.663C248.446 338.663 248.215 338.57 248.028 338.383C247.841 338.196 247.747 337.964 247.747 337.688C247.747 337.412 247.841 337.18 248.028 336.993C248.215 336.806 248.446 336.713 248.722 336.713C248.99 336.713 249.217 336.806 249.404 336.993C249.591 337.18 249.684 337.412 249.684 337.688C249.684 337.964 249.591 338.196 249.404 338.383C249.217 338.57 248.99 338.663 248.722 338.663ZM249.471 339.639V347H247.948V339.639H249.471ZM250.963 343.313C250.963 342.556 251.114 341.892 251.417 341.322C251.728 340.743 252.156 340.298 252.699 339.986C253.243 339.674 253.866 339.518 254.57 339.518C255.46 339.518 256.195 339.732 256.774 340.16C257.362 340.578 257.758 341.179 257.963 341.963H256.32C256.186 341.598 255.973 341.313 255.679 341.108C255.385 340.903 255.015 340.801 254.57 340.801C253.946 340.801 253.447 341.024 253.073 341.469C252.708 341.905 252.526 342.52 252.526 343.313C252.526 344.105 252.708 344.724 253.073 345.17C253.447 345.615 253.946 345.838 254.57 345.838C255.451 345.838 256.035 345.45 256.32 344.675H257.963C257.749 345.424 257.349 346.02 256.761 346.466C256.173 346.902 255.443 347.12 254.57 347.12C253.866 347.12 253.243 346.964 252.699 346.653C252.156 346.332 251.728 345.887 251.417 345.317C251.114 344.738 250.963 344.07 250.963 343.313ZM262.393 343.326L265.787 347H263.729L261.004 343.834V347H259.481V337.114H261.004V342.858L263.676 339.639H265.787L262.393 343.326ZM272.126 340.881V344.956C272.126 345.232 272.188 345.432 272.313 345.557C272.447 345.673 272.669 345.731 272.981 345.731H273.916V347H272.714C272.028 347 271.502 346.84 271.137 346.519C270.772 346.198 270.59 345.677 270.59 344.956V340.881H269.721V339.639H270.59V337.808H272.126V339.639H273.916V340.881H272.126ZM276.095 338.663C275.819 338.663 275.587 338.57 275.4 338.383C275.213 338.196 275.119 337.964 275.119 337.688C275.119 337.412 275.213 337.18 275.4 336.993C275.587 336.806 275.819 336.713 276.095 336.713C276.362 336.713 276.589 336.806 276.776 336.993C276.963 337.18 277.057 337.412 277.057 337.688C277.057 337.964 276.963 338.196 276.776 338.383C276.589 338.57 276.362 338.663 276.095 338.663ZM276.843 339.639V347H275.32V339.639H276.843ZM287.754 339.518C288.333 339.518 288.849 339.639 289.303 339.879C289.767 340.12 290.127 340.476 290.386 340.948C290.653 341.42 290.786 341.99 290.786 342.658V347H289.277V342.885C289.277 342.226 289.112 341.723 288.782 341.375C288.453 341.019 288.003 340.841 287.433 340.841C286.863 340.841 286.409 341.019 286.07 341.375C285.741 341.723 285.576 342.226 285.576 342.885V347H284.066V342.885C284.066 342.226 283.902 341.723 283.572 341.375C283.242 341.019 282.793 340.841 282.223 340.841C281.653 340.841 281.198 341.019 280.86 341.375C280.53 341.723 280.366 342.226 280.366 342.885V347H278.843V339.639H280.366V340.48C280.615 340.177 280.931 339.941 281.314 339.772C281.697 339.603 282.107 339.518 282.543 339.518C283.131 339.518 283.657 339.643 284.12 339.892C284.583 340.142 284.939 340.503 285.189 340.975C285.411 340.529 285.759 340.177 286.231 339.919C286.703 339.652 287.21 339.518 287.754 339.518ZM299.471 343.139C299.471 343.415 299.453 343.664 299.418 343.887H293.793C293.838 344.475 294.056 344.947 294.448 345.303C294.84 345.66 295.321 345.838 295.891 345.838C296.71 345.838 297.289 345.495 297.628 344.809H299.271C299.048 345.486 298.643 346.043 298.055 346.479C297.476 346.906 296.755 347.12 295.891 347.12C295.187 347.12 294.555 346.964 293.994 346.653C293.441 346.332 293.005 345.887 292.684 345.317C292.373 344.738 292.217 344.07 292.217 343.313C292.217 342.556 292.368 341.892 292.671 341.322C292.983 340.743 293.415 340.298 293.967 339.986C294.528 339.674 295.169 339.518 295.891 339.518C296.585 339.518 297.204 339.67 297.748 339.973C298.291 340.275 298.714 340.703 299.017 341.255C299.32 341.799 299.471 342.426 299.471 343.139ZM297.881 342.658C297.872 342.097 297.672 341.647 297.28 341.309C296.888 340.97 296.403 340.801 295.824 340.801C295.298 340.801 294.849 340.97 294.475 341.309C294.1 341.638 293.878 342.088 293.807 342.658H297.881Z" fill="white"/>
</svg>
