<svg width="540" height="410" viewBox="0 0 540 410" fill="none" xmlns="http://www.w3.org/2000/svg">
<rect width="540" height="410" fill="white"/>
<path d="M150.901 53.657H146.1L145.275 56H143.311L147.42 44.516H149.598L153.706 56H151.726L150.901 53.657ZM150.373 52.1225L148.509 46.793L146.628 52.1225H150.373ZM156.873 48.2285C157.148 47.7665 157.511 47.409 157.962 47.156C158.424 46.892 158.969 46.76 159.596 46.76V48.707H159.117C158.38 48.707 157.819 48.894 157.434 49.268C157.06 49.642 156.873 50.291 156.873 51.215V56H154.992V46.9085H156.873V48.2285ZM161.782 45.704C161.441 45.704 161.155 45.5885 160.924 45.3575C160.693 45.1265 160.577 44.8405 160.577 44.4995C160.577 44.1585 160.693 43.8725 160.924 43.6415C161.155 43.4105 161.441 43.295 161.782 43.295C162.112 43.295 162.392 43.4105 162.623 43.6415C162.854 43.8725 162.97 44.1585 162.97 44.4995C162.97 44.8405 162.854 45.1265 162.623 45.3575C162.392 45.5885 162.112 45.704 161.782 45.704ZM162.706 46.9085V56H160.825V46.9085H162.706ZM173.008 51.2315C173.008 51.5725 172.986 51.8805 172.942 52.1555H165.995C166.05 52.8815 166.32 53.4645 166.804 53.9045C167.288 54.3445 167.882 54.5645 168.586 54.5645C169.598 54.5645 170.313 54.141 170.731 53.294H172.76C172.485 54.13 171.985 54.8175 171.259 55.3565C170.544 55.8845 169.653 56.1485 168.586 56.1485C167.717 56.1485 166.936 55.956 166.243 55.571C165.561 55.175 165.022 54.625 164.626 53.921C164.241 53.206 164.048 52.381 164.048 51.446C164.048 50.511 164.235 49.6915 164.609 48.9875C164.994 48.2725 165.528 47.7225 166.21 47.3375C166.903 46.9525 167.695 46.76 168.586 46.76C169.444 46.76 170.208 46.947 170.879 47.321C171.55 47.695 172.073 48.223 172.447 48.905C172.821 49.576 173.008 50.3515 173.008 51.2315ZM171.044 50.6375C171.033 49.9445 170.786 49.389 170.302 48.971C169.818 48.553 169.218 48.344 168.503 48.344C167.854 48.344 167.299 48.553 166.837 48.971C166.375 49.378 166.1 49.9335 166.012 50.6375H171.044ZM176.24 43.79V56H174.359V43.79H176.24ZM194.074 44.5325V56H192.193V48.146L188.695 56H187.391L183.877 48.146V56H181.996V44.5325H184.025L188.051 53.525L192.061 44.5325H194.074ZM195.419 51.413C195.419 50.5 195.606 49.6915 195.98 48.9875C196.365 48.2835 196.882 47.739 197.531 47.354C198.191 46.958 198.917 46.76 199.709 46.76C200.424 46.76 201.046 46.903 201.574 47.189C202.113 47.464 202.542 47.8105 202.861 48.2285V46.9085H204.758V56H202.861V54.647C202.542 55.076 202.107 55.4335 201.557 55.7195C201.007 56.0055 200.38 56.1485 199.676 56.1485C198.895 56.1485 198.18 55.9505 197.531 55.5545C196.882 55.1475 196.365 54.5865 195.98 53.8715C195.606 53.1455 195.419 52.326 195.419 51.413ZM202.861 51.446C202.861 50.819 202.729 50.2745 202.465 49.8125C202.212 49.3505 201.876 48.9985 201.458 48.7565C201.04 48.5145 200.589 48.3935 200.105 48.3935C199.621 48.3935 199.17 48.5145 198.752 48.7565C198.334 48.9875 197.993 49.334 197.729 49.796C197.476 50.247 197.35 50.786 197.35 51.413C197.35 52.04 197.476 52.59 197.729 53.063C197.993 53.536 198.334 53.899 198.752 54.152C199.181 54.394 199.632 54.515 200.105 54.515C200.589 54.515 201.04 54.394 201.458 54.152C201.876 53.91 202.212 53.558 202.465 53.096C202.729 52.623 202.861 52.073 202.861 51.446ZM208.395 54.4655H212.52V56H206.217V54.4655L210.359 48.443H206.217V46.9085H212.52V48.443L208.395 54.4655ZM217.939 56.1485C217.081 56.1485 216.305 55.956 215.612 55.571C214.919 55.175 214.375 54.625 213.979 53.921C213.583 53.206 213.385 52.381 213.385 51.446C213.385 50.522 213.588 49.7025 213.995 48.9875C214.402 48.2725 214.958 47.7225 215.662 47.3375C216.366 46.9525 217.152 46.76 218.021 46.76C218.89 46.76 219.677 46.9525 220.381 47.3375C221.085 47.7225 221.64 48.2725 222.047 48.9875C222.454 49.7025 222.658 50.522 222.658 51.446C222.658 52.37 222.449 53.1895 222.031 53.9045C221.613 54.6195 221.041 55.175 220.315 55.571C219.6 55.956 218.808 56.1485 217.939 56.1485ZM217.939 54.515C218.423 54.515 218.874 54.3995 219.292 54.1685C219.721 53.9375 220.067 53.591 220.331 53.129C220.595 52.667 220.727 52.106 220.727 51.446C220.727 50.786 220.601 50.2305 220.348 49.7795C220.095 49.3175 219.759 48.971 219.341 48.74C218.923 48.509 218.472 48.3935 217.988 48.3935C217.504 48.3935 217.053 48.509 216.635 48.74C216.228 48.971 215.904 49.3175 215.662 49.7795C215.42 50.2305 215.299 50.786 215.299 51.446C215.299 52.425 215.546 53.184 216.041 53.723C216.547 54.251 217.18 54.515 217.939 54.515ZM225.898 48.2285C226.173 47.7665 226.536 47.409 226.987 47.156C227.449 46.892 227.994 46.76 228.621 46.76V48.707H228.142C227.405 48.707 226.844 48.894 226.459 49.268C226.085 49.642 225.898 50.291 225.898 51.215V56H224.017V46.9085H225.898V48.2285Z" fill="#1F8DF1"/>
<path d="M41.432 48.032C41.432 48.992 41.1173 49.7653 40.488 50.352C39.8587 50.9387 38.9147 51.232 37.656 51.232H35.4V56H34.28V44.816H37.656C38.904 44.816 39.8427 45.1093 40.472 45.696C41.112 46.2827 41.432 47.0613 41.432 48.032ZM37.656 50.272C39.4053 50.272 40.28 49.5253 40.28 48.032C40.28 47.2853 40.072 46.72 39.656 46.336C39.24 45.952 38.5733 45.76 37.656 45.76H35.4V50.272H37.656ZM42.7993 51.616C42.7993 50.72 42.9753 49.936 43.3273 49.264C43.6899 48.5813 44.1859 48.0587 44.8153 47.696C45.4553 47.3227 46.1753 47.136 46.9753 47.136C47.8073 47.136 48.5219 47.328 49.1193 47.712C49.7273 48.096 50.1646 48.5867 50.4313 49.184V47.264H51.5513V56H50.4313V54.064C50.1539 54.6613 49.7113 55.1573 49.1033 55.552C48.5059 55.936 47.7913 56.128 46.9593 56.128C46.1699 56.128 45.4553 55.9413 44.8153 55.568C44.1859 55.1947 43.6899 54.6667 43.3273 53.984C42.9753 53.3013 42.7993 52.512 42.7993 51.616ZM50.4313 51.632C50.4313 50.928 50.2873 50.3093 49.9993 49.776C49.7113 49.2427 49.3166 48.832 48.8153 48.544C48.3246 48.256 47.7806 48.112 47.1833 48.112C46.5646 48.112 46.0099 48.2507 45.5193 48.528C45.0286 48.8053 44.6393 49.2107 44.3513 49.744C44.0739 50.2667 43.9353 50.8907 43.9353 51.616C43.9353 52.3307 44.0739 52.96 44.3513 53.504C44.6393 54.0373 45.0286 54.448 45.5193 54.736C46.0099 55.0133 46.5646 55.152 47.1833 55.152C47.7806 55.152 48.3246 55.008 48.8153 54.72C49.3166 54.432 49.7113 54.0213 49.9993 53.488C50.2873 52.9547 50.4313 52.336 50.4313 51.632ZM57.1161 56.128C56.1135 56.128 55.2921 55.8987 54.6521 55.44C54.0228 54.9707 53.6708 54.336 53.5961 53.536H54.7481C54.8015 54.0267 55.0308 54.4267 55.4361 54.736C55.8521 55.0347 56.4068 55.184 57.1001 55.184C57.7081 55.184 58.1828 55.04 58.5241 54.752C58.8761 54.464 59.0521 54.1067 59.0521 53.68C59.0521 53.3813 58.9561 53.136 58.7641 52.944C58.5721 52.752 58.3268 52.6027 58.0281 52.496C57.7401 52.3787 57.3455 52.256 56.8441 52.128C56.1935 51.9573 55.6655 51.7867 55.2601 51.616C54.8548 51.4453 54.5081 51.1947 54.2201 50.864C53.9428 50.5227 53.8041 50.0693 53.8041 49.504C53.8041 49.0773 53.9321 48.6827 54.1881 48.32C54.4441 47.9573 54.8068 47.6693 55.2761 47.456C55.7455 47.2427 56.2788 47.136 56.8761 47.136C57.8148 47.136 58.5721 47.376 59.1481 47.856C59.7241 48.3253 60.0335 48.976 60.0761 49.808H58.9561C58.9241 49.296 58.7215 48.8853 58.3481 48.576C57.9855 48.256 57.4841 48.096 56.8441 48.096C56.2788 48.096 55.8201 48.2293 55.4681 48.496C55.1161 48.7627 54.9401 49.0933 54.9401 49.488C54.9401 49.8293 55.0415 50.112 55.2441 50.336C55.4575 50.5493 55.7188 50.72 56.0281 50.848C56.3375 50.9653 56.7535 51.0987 57.2761 51.248C57.9055 51.4187 58.4068 51.584 58.7801 51.744C59.1535 51.904 59.4735 52.1387 59.7401 52.448C60.0068 52.7573 60.1455 53.168 60.1561 53.68C60.1561 54.1493 60.0281 54.5707 59.7721 54.944C59.5161 55.3067 59.1588 55.5947 58.7001 55.808C58.2415 56.0213 57.7135 56.128 57.1161 56.128ZM63.7204 48.208V53.632C63.7204 54.1653 63.8217 54.5333 64.0244 54.736C64.227 54.9387 64.5844 55.04 65.0964 55.04H66.1204V56H64.9204C64.131 56 63.5444 55.8187 63.1604 55.456C62.7764 55.0827 62.5844 54.4747 62.5844 53.632V48.208H61.3684V47.264H62.5844V45.072H63.7204V47.264H66.1204V48.208H63.7204ZM73.4781 44.16V56H72.3581V44.16H73.4781ZM83.9184 51.184C83.9184 51.568 83.9077 51.8613 83.8864 52.064H76.6384C76.6704 52.7253 76.8304 53.2907 77.1184 53.76C77.4064 54.2293 77.785 54.5867 78.2544 54.832C78.7237 55.0667 79.2357 55.184 79.7904 55.184C80.5157 55.184 81.1237 55.008 81.6144 54.656C82.1157 54.304 82.4464 53.8293 82.6064 53.232H83.7904C83.577 54.0853 83.1184 54.784 82.4144 55.328C81.721 55.8613 80.8464 56.128 79.7904 56.128C78.969 56.128 78.233 55.9467 77.5824 55.584C76.9317 55.2107 76.4197 54.688 76.0464 54.016C75.6837 53.3333 75.5024 52.5387 75.5024 51.632C75.5024 50.7253 75.6837 49.9307 76.0464 49.248C76.409 48.5653 76.9157 48.0427 77.5664 47.68C78.217 47.3173 78.9584 47.136 79.7904 47.136C80.6224 47.136 81.3477 47.3173 81.9664 47.68C82.5957 48.0427 83.0757 48.5333 83.4064 49.152C83.7477 49.76 83.9184 50.4373 83.9184 51.184ZM82.7824 51.152C82.793 50.5013 82.6597 49.9467 82.3824 49.488C82.1157 49.0293 81.7477 48.6827 81.2784 48.448C80.809 48.2133 80.297 48.096 79.7424 48.096C78.9104 48.096 78.201 48.3627 77.6144 48.896C77.0277 49.4293 76.7024 50.1813 76.6384 51.152H82.7824ZM88.9755 56.128C87.9728 56.128 87.1515 55.8987 86.5115 55.44C85.8822 54.9707 85.5302 54.336 85.4555 53.536H86.6075C86.6608 54.0267 86.8902 54.4267 87.2955 54.736C87.7115 55.0347 88.2662 55.184 88.9595 55.184C89.5675 55.184 90.0422 55.04 90.3835 54.752C90.7355 54.464 90.9115 54.1067 90.9115 53.68C90.9115 53.3813 90.8155 53.136 90.6235 52.944C90.4315 52.752 90.1862 52.6027 89.8875 52.496C89.5995 52.3787 89.2048 52.256 88.7035 52.128C88.0528 51.9573 87.5248 51.7867 87.1195 51.616C86.7142 51.4453 86.3675 51.1947 86.0795 50.864C85.8022 50.5227 85.6635 50.0693 85.6635 49.504C85.6635 49.0773 85.7915 48.6827 86.0475 48.32C86.3035 47.9573 86.6662 47.6693 87.1355 47.456C87.6048 47.2427 88.1382 47.136 88.7355 47.136C89.6742 47.136 90.4315 47.376 91.0075 47.856C91.5835 48.3253 91.8928 48.976 91.9355 49.808H90.8155C90.7835 49.296 90.5808 48.8853 90.2075 48.576C89.8448 48.256 89.3435 48.096 88.7035 48.096C88.1382 48.096 87.6795 48.2293 87.3275 48.496C86.9755 48.7627 86.7995 49.0933 86.7995 49.488C86.7995 49.8293 86.9008 50.112 87.1035 50.336C87.3168 50.5493 87.5782 50.72 87.8875 50.848C88.1968 50.9653 88.6128 51.0987 89.1355 51.248C89.7648 51.4187 90.2662 51.584 90.6395 51.744C91.0128 51.904 91.3328 52.1387 91.5995 52.448C91.8662 52.7573 92.0048 53.168 92.0155 53.68C92.0155 54.1493 91.8875 54.5707 91.6315 54.944C91.3755 55.3067 91.0182 55.5947 90.5595 55.808C90.1008 56.0213 89.5728 56.128 88.9755 56.128ZM97.1318 56.128C96.1291 56.128 95.3078 55.8987 94.6678 55.44C94.0384 54.9707 93.6864 54.336 93.6118 53.536H94.7638C94.8171 54.0267 95.0464 54.4267 95.4518 54.736C95.8678 55.0347 96.4224 55.184 97.1158 55.184C97.7238 55.184 98.1984 55.04 98.5398 54.752C98.8918 54.464 99.0678 54.1067 99.0678 53.68C99.0678 53.3813 98.9718 53.136 98.7798 52.944C98.5878 52.752 98.3424 52.6027 98.0438 52.496C97.7558 52.3787 97.3611 52.256 96.8598 52.128C96.2091 51.9573 95.6811 51.7867 95.2758 51.616C94.8704 51.4453 94.5238 51.1947 94.2358 50.864C93.9584 50.5227 93.8198 50.0693 93.8198 49.504C93.8198 49.0773 93.9478 48.6827 94.2038 48.32C94.4598 47.9573 94.8224 47.6693 95.2918 47.456C95.7611 47.2427 96.2944 47.136 96.8918 47.136C97.8304 47.136 98.5878 47.376 99.1638 47.856C99.7398 48.3253 100.049 48.976 100.092 49.808H98.9718C98.9398 49.296 98.7371 48.8853 98.3638 48.576C98.0011 48.256 97.4998 48.096 96.8598 48.096C96.2944 48.096 95.8358 48.2293 95.4838 48.496C95.1318 48.7627 94.9557 49.0933 94.9557 49.488C94.9557 49.8293 95.0571 50.112 95.2598 50.336C95.4731 50.5493 95.7344 50.72 96.0438 50.848C96.3531 50.9653 96.7691 51.0987 97.2918 51.248C97.9211 51.4187 98.4224 51.584 98.7958 51.744C99.1691 51.904 99.4891 52.1387 99.7558 52.448C100.022 52.7573 100.161 53.168 100.172 53.68C100.172 54.1493 100.044 54.5707 99.7878 54.944C99.5318 55.3067 99.1744 55.5947 98.7158 55.808C98.2571 56.0213 97.7291 56.128 97.1318 56.128ZM106.104 56.128C105.283 56.128 104.541 55.9467 103.88 55.584C103.229 55.2107 102.712 54.688 102.328 54.016C101.955 53.3333 101.768 52.5387 101.768 51.632C101.768 50.7253 101.96 49.936 102.344 49.264C102.728 48.5813 103.251 48.0587 103.912 47.696C104.573 47.3227 105.315 47.136 106.136 47.136C106.957 47.136 107.699 47.3227 108.36 47.696C109.032 48.0587 109.555 48.5813 109.928 49.264C110.312 49.936 110.504 50.7253 110.504 51.632C110.504 52.528 110.312 53.3173 109.928 54C109.544 54.6827 109.016 55.2107 108.344 55.584C107.672 55.9467 106.925 56.128 106.104 56.128ZM106.104 55.152C106.68 55.152 107.213 55.024 107.704 54.768C108.195 54.5013 108.589 54.1067 108.888 53.584C109.197 53.0507 109.352 52.4 109.352 51.632C109.352 50.864 109.203 50.2187 108.904 49.696C108.605 49.1627 108.211 48.768 107.72 48.512C107.229 48.2453 106.696 48.112 106.12 48.112C105.544 48.112 105.011 48.2453 104.52 48.512C104.029 48.768 103.635 49.1627 103.336 49.696C103.048 50.2187 102.904 50.864 102.904 51.632C102.904 52.4 103.048 53.0507 103.336 53.584C103.635 54.1067 104.024 54.5013 104.504 54.768C104.995 55.024 105.528 55.152 106.104 55.152ZM116.642 47.104C117.687 47.104 118.54 47.4293 119.202 48.08C119.863 48.72 120.194 49.6533 120.194 50.88V56H119.09V51.008C119.09 50.0587 118.85 49.3333 118.37 48.832C117.9 48.3307 117.255 48.08 116.434 48.08C115.591 48.08 114.919 48.3467 114.418 48.88C113.916 49.4133 113.666 50.1973 113.666 51.232V56H112.546V47.264H113.666V48.752C113.943 48.2187 114.343 47.8133 114.866 47.536C115.388 47.248 115.98 47.104 116.642 47.104Z" fill="black"/>
<rect x="132" y="37" width="0.75" height="26" fill="black"/>
<rect x="31" y="76" width="467" height="1" fill="#FF5E1A"/>
<path d="M226.9 373.5L222.35 368.95L226.9 364.4" stroke="#CACACB" stroke-width="1.06167" stroke-linecap="round" stroke-linejoin="round"/>
<rect x="243.65" y="365.85" width="6.3" height="6.3" rx="3.15" fill="#AFADAD"/>
<rect x="258.35" y="365.85" width="6.3" height="6.3" rx="3.15" fill="#6B6B6B"/>
<rect x="273.05" y="365.85" width="6.3" height="6.3" rx="3.15" fill="#AFADAD"/>
<path d="M293.05 373.5L297.6 368.95L293.05 364.4" stroke="black" stroke-width="1.06167" stroke-linecap="round" stroke-linejoin="round"/>
<path d="M39.964 134.119C39.182 134.119 38.4907 133.983 37.89 133.711C37.3007 133.439 36.836 133.059 36.496 132.572C36.156 132.085 35.9747 131.541 35.952 130.94H37.21C37.2667 131.518 37.5217 132.028 37.975 132.47C38.4283 132.901 39.0913 133.116 39.964 133.116C40.7687 133.116 41.4033 132.912 41.868 132.504C42.344 132.085 42.582 131.558 42.582 130.923C42.582 130.413 42.4517 130.005 42.191 129.699C41.9303 129.382 41.6073 129.149 41.222 129.002C40.8367 128.843 40.304 128.673 39.624 128.492C38.8307 128.277 38.2017 128.067 37.737 127.863C37.2723 127.659 36.8757 127.342 36.547 126.911C36.2183 126.48 36.054 125.897 36.054 125.16C36.054 124.548 36.2127 124.004 36.53 123.528C36.8473 123.041 37.295 122.661 37.873 122.389C38.451 122.117 39.114 121.981 39.862 121.981C40.9613 121.981 41.8453 122.253 42.514 122.797C43.194 123.33 43.585 124.021 43.687 124.871H42.395C42.3157 124.384 42.0493 123.953 41.596 123.579C41.1427 123.194 40.5307 123.001 39.76 123.001C39.046 123.001 38.451 123.194 37.975 123.579C37.499 123.953 37.261 124.469 37.261 125.126C37.261 125.625 37.3913 126.027 37.652 126.333C37.9127 126.639 38.2357 126.871 38.621 127.03C39.0177 127.189 39.5503 127.359 40.219 127.54C40.9897 127.755 41.613 127.971 42.089 128.186C42.565 128.39 42.9673 128.707 43.296 129.138C43.6247 129.569 43.789 130.147 43.789 130.872C43.789 131.427 43.6417 131.954 43.347 132.453C43.0523 132.952 42.616 133.354 42.038 133.66C41.46 133.966 40.7687 134.119 39.964 134.119ZM47.6355 125.721V131.484C47.6355 132.051 47.7432 132.442 47.9585 132.657C48.1738 132.872 48.5535 132.98 49.0975 132.98H50.1855V134H48.9105C48.0718 134 47.4485 133.807 47.0405 133.422C46.6325 133.025 46.4285 132.379 46.4285 131.484V125.721H45.1365V124.718H46.4285V122.389H47.6355V124.718H50.1855V125.721H47.6355ZM60.1891 124.718V134H58.9991V132.368C58.7271 132.946 58.3078 133.388 57.7411 133.694C57.1744 134 56.5398 134.153 55.8371 134.153C54.7264 134.153 53.8198 133.813 53.1171 133.133C52.4144 132.442 52.0631 131.444 52.0631 130.141V124.718H53.2361V130.005C53.2361 131.014 53.4854 131.784 53.9841 132.317C54.4941 132.85 55.1854 133.116 56.0581 133.116C56.9534 133.116 57.6674 132.833 58.2001 132.266C58.7328 131.699 58.9991 130.866 58.9991 129.767V124.718H60.1891ZM62.3619 129.342C62.3619 128.39 62.5546 127.557 62.9399 126.843C63.3252 126.118 63.8522 125.562 64.5209 125.177C65.2009 124.78 65.9659 124.582 66.8159 124.582C67.6319 124.582 68.3686 124.78 69.0259 125.177C69.6832 125.574 70.1649 126.089 70.4709 126.724V121.42H71.6609V134H70.4709V131.926C70.1876 132.572 69.7229 133.105 69.0769 133.524C68.4309 133.932 67.6716 134.136 66.7989 134.136C65.9489 134.136 65.1839 133.938 64.5039 133.541C63.8352 133.144 63.3082 132.583 62.9229 131.858C62.5489 131.133 62.3619 130.294 62.3619 129.342ZM70.4709 129.359C70.4709 128.611 70.3179 127.954 70.0119 127.387C69.7059 126.82 69.2866 126.384 68.7539 126.078C68.2326 125.772 67.6546 125.619 67.0199 125.619C66.3626 125.619 65.7732 125.766 65.2519 126.061C64.7306 126.356 64.3169 126.786 64.0109 127.353C63.7162 127.908 63.5689 128.571 63.5689 129.342C63.5689 130.101 63.7162 130.77 64.0109 131.348C64.3169 131.915 64.7306 132.351 65.2519 132.657C65.7732 132.952 66.3626 133.099 67.0199 133.099C67.6546 133.099 68.2326 132.946 68.7539 132.64C69.2866 132.334 69.7059 131.898 70.0119 131.331C70.3179 130.764 70.4709 130.107 70.4709 129.359ZM82.7756 128.883C82.7756 129.291 82.7642 129.603 82.7416 129.818H75.0406C75.0746 130.521 75.2446 131.121 75.5506 131.62C75.8566 132.119 76.2589 132.498 76.7576 132.759C77.2562 133.008 77.8002 133.133 78.3896 133.133C79.1602 133.133 79.8062 132.946 80.3276 132.572C80.8602 132.198 81.2116 131.694 81.3816 131.059H82.6396C82.4129 131.966 81.9256 132.708 81.1776 133.286C80.4409 133.853 79.5116 134.136 78.3896 134.136C77.5169 134.136 76.7349 133.943 76.0436 133.558C75.3522 133.161 74.8082 132.606 74.4116 131.892C74.0262 131.167 73.8336 130.322 73.8336 129.359C73.8336 128.396 74.0262 127.551 74.4116 126.826C74.7969 126.101 75.3352 125.545 76.0266 125.16C76.7179 124.775 77.5056 124.582 78.3896 124.582C79.2736 124.582 80.0442 124.775 80.7016 125.16C81.3702 125.545 81.8802 126.067 82.2316 126.724C82.5942 127.37 82.7756 128.09 82.7756 128.883ZM81.5686 128.849C81.5799 128.158 81.4382 127.568 81.1436 127.081C80.8602 126.594 80.4692 126.225 79.9706 125.976C79.4719 125.727 78.9279 125.602 78.3386 125.602C77.4546 125.602 76.7009 125.885 76.0776 126.452C75.4542 127.019 75.1086 127.818 75.0406 128.849H81.5686ZM89.3048 124.548C90.4154 124.548 91.3221 124.894 92.0248 125.585C92.7274 126.265 93.0788 127.257 93.0788 128.56V134H91.9058V128.696C91.9058 127.687 91.6508 126.917 91.1408 126.384C90.6421 125.851 89.9564 125.585 89.0838 125.585C88.1884 125.585 87.4744 125.868 86.9418 126.435C86.4091 127.002 86.1428 127.835 86.1428 128.934V134H84.9528V124.718H86.1428V126.299C86.4374 125.732 86.8624 125.302 87.4178 125.007C87.9731 124.701 88.6021 124.548 89.3048 124.548ZM97.2576 125.721V131.484C97.2576 132.051 97.3653 132.442 97.5806 132.657C97.7959 132.872 98.1756 132.98 98.7196 132.98H99.8076V134H98.5326C97.6939 134 97.0706 133.807 96.6626 133.422C96.2546 133.025 96.0506 132.379 96.0506 131.484V125.721H94.7586V124.718H96.0506V122.389H97.2576V124.718H99.8076V125.721H97.2576ZM118.675 124.718L115.768 134H114.578L112.011 126.214L109.444 134H108.237L105.33 124.718H106.537L108.849 132.793L111.45 124.718H112.64L115.207 132.81L117.502 124.718H118.675ZM120.893 122.967C120.655 122.967 120.451 122.882 120.281 122.712C120.111 122.542 120.026 122.332 120.026 122.083C120.026 121.834 120.111 121.63 120.281 121.471C120.451 121.301 120.655 121.216 120.893 121.216C121.131 121.216 121.335 121.301 121.505 121.471C121.675 121.63 121.76 121.834 121.76 122.083C121.76 122.332 121.675 122.542 121.505 122.712C121.335 122.882 121.131 122.967 120.893 122.967ZM121.488 124.718V134H120.298V124.718H121.488ZM125.372 121.42V134H124.182V121.42H125.372ZM129.257 121.42V134H128.067V121.42H129.257ZM137.79 126.775C138.096 126.129 138.566 125.602 139.201 125.194C139.847 124.786 140.606 124.582 141.479 124.582C142.329 124.582 143.088 124.78 143.757 125.177C144.426 125.562 144.947 126.118 145.321 126.843C145.706 127.557 145.899 128.39 145.899 129.342C145.899 130.294 145.706 131.133 145.321 131.858C144.947 132.583 144.42 133.144 143.74 133.541C143.071 133.938 142.318 134.136 141.479 134.136C140.595 134.136 139.83 133.938 139.184 133.541C138.549 133.133 138.085 132.606 137.79 131.96V134H136.617V121.42H137.79V126.775ZM144.692 129.342C144.692 128.571 144.539 127.908 144.233 127.353C143.938 126.786 143.53 126.356 143.009 126.061C142.488 125.766 141.898 125.619 141.241 125.619C140.606 125.619 140.023 125.772 139.49 126.078C138.969 126.384 138.555 126.82 138.249 127.387C137.943 127.954 137.79 128.611 137.79 129.359C137.79 130.107 137.943 130.764 138.249 131.331C138.555 131.898 138.969 132.334 139.49 132.64C140.023 132.946 140.606 133.099 141.241 133.099C141.898 133.099 142.488 132.952 143.009 132.657C143.53 132.351 143.938 131.915 144.233 131.348C144.539 130.77 144.692 130.101 144.692 129.342ZM156.487 128.883C156.487 129.291 156.475 129.603 156.453 129.818H148.752C148.786 130.521 148.956 131.121 149.262 131.62C149.568 132.119 149.97 132.498 150.469 132.759C150.967 133.008 151.511 133.133 152.101 133.133C152.871 133.133 153.517 132.946 154.039 132.572C154.571 132.198 154.923 131.694 155.093 131.059H156.351C156.124 131.966 155.637 132.708 154.889 133.286C154.152 133.853 153.223 134.136 152.101 134.136C151.228 134.136 150.446 133.943 149.755 133.558C149.063 133.161 148.519 132.606 148.123 131.892C147.737 131.167 147.545 130.322 147.545 129.359C147.545 128.396 147.737 127.551 148.123 126.826C148.508 126.101 149.046 125.545 149.738 125.16C150.429 124.775 151.217 124.582 152.101 124.582C152.985 124.582 153.755 124.775 154.413 125.16C155.081 125.545 155.591 126.067 155.943 126.724C156.305 127.37 156.487 128.09 156.487 128.883ZM155.28 128.849C155.291 128.158 155.149 127.568 154.855 127.081C154.571 126.594 154.18 126.225 153.682 125.976C153.183 125.727 152.639 125.602 152.05 125.602C151.166 125.602 150.412 125.885 149.789 126.452C149.165 127.019 148.82 127.818 148.752 128.849H155.28ZM162.785 129.359C162.785 128.396 162.977 127.557 163.363 126.843C163.748 126.118 164.281 125.562 164.961 125.177C165.641 124.78 166.417 124.582 167.29 124.582C168.434 124.582 169.375 124.865 170.112 125.432C170.86 125.999 171.341 126.769 171.557 127.744H170.282C170.123 127.075 169.777 126.554 169.245 126.18C168.723 125.795 168.072 125.602 167.29 125.602C166.666 125.602 166.105 125.744 165.607 126.027C165.108 126.31 164.711 126.735 164.417 127.302C164.133 127.857 163.992 128.543 163.992 129.359C163.992 130.175 164.133 130.866 164.417 131.433C164.711 132 165.108 132.425 165.607 132.708C166.105 132.991 166.666 133.133 167.29 133.133C168.072 133.133 168.723 132.946 169.245 132.572C169.777 132.187 170.123 131.654 170.282 130.974H171.557C171.341 131.926 170.86 132.691 170.112 133.269C169.364 133.847 168.423 134.136 167.29 134.136C166.417 134.136 165.641 133.943 164.961 133.558C164.281 133.161 163.748 132.606 163.363 131.892C162.977 131.167 162.785 130.322 162.785 129.359ZM178.175 124.548C178.877 124.548 179.506 124.695 180.062 124.99C180.628 125.285 181.07 125.738 181.388 126.35C181.716 126.951 181.881 127.687 181.881 128.56V134H180.708V128.696C180.708 127.687 180.453 126.917 179.943 126.384C179.444 125.851 178.758 125.585 177.886 125.585C176.99 125.585 176.276 125.868 175.744 126.435C175.211 127.002 174.945 127.835 174.945 128.934V134H173.755V121.42H174.945V126.299C175.239 125.744 175.67 125.313 176.237 125.007C176.815 124.701 177.461 124.548 178.175 124.548ZM183.968 129.342C183.968 128.39 184.155 127.557 184.529 126.843C184.915 126.118 185.442 125.562 186.11 125.177C186.79 124.78 187.555 124.582 188.405 124.582C189.289 124.582 190.049 124.786 190.683 125.194C191.329 125.602 191.794 126.123 192.077 126.758V124.718H193.267V134H192.077V131.943C191.783 132.578 191.312 133.105 190.666 133.524C190.032 133.932 189.272 134.136 188.388 134.136C187.55 134.136 186.79 133.938 186.11 133.541C185.442 133.144 184.915 132.583 184.529 131.858C184.155 131.133 183.968 130.294 183.968 129.342ZM192.077 129.359C192.077 128.611 191.924 127.954 191.618 127.387C191.312 126.82 190.893 126.384 190.36 126.078C189.839 125.772 189.261 125.619 188.626 125.619C187.969 125.619 187.38 125.766 186.858 126.061C186.337 126.356 185.923 126.786 185.617 127.353C185.323 127.908 185.175 128.571 185.175 129.342C185.175 130.101 185.323 130.77 185.617 131.348C185.923 131.915 186.337 132.351 186.858 132.657C187.38 132.952 187.969 133.099 188.626 133.099C189.261 133.099 189.839 132.946 190.36 132.64C190.893 132.334 191.312 131.898 191.618 131.331C191.924 130.764 192.077 130.107 192.077 129.359ZM197.174 126.367C197.435 125.789 197.831 125.341 198.364 125.024C198.908 124.707 199.571 124.548 200.353 124.548V125.789H200.03C199.169 125.789 198.477 126.021 197.956 126.486C197.435 126.951 197.174 127.727 197.174 128.815V134H195.984V124.718H197.174V126.367ZM206.036 124.582C206.909 124.582 207.668 124.786 208.314 125.194C208.96 125.602 209.425 126.118 209.708 126.741V124.718H210.898V134.238C210.898 135.088 210.711 135.842 210.337 136.499C209.975 137.156 209.465 137.661 208.807 138.012C208.15 138.375 207.402 138.556 206.563 138.556C205.373 138.556 204.382 138.273 203.588 137.706C202.806 137.139 202.319 136.369 202.126 135.394H203.299C203.503 136.04 203.889 136.556 204.455 136.941C205.033 137.326 205.736 137.519 206.563 137.519C207.164 137.519 207.702 137.389 208.178 137.128C208.654 136.879 209.028 136.505 209.3 136.006C209.572 135.507 209.708 134.918 209.708 134.238V131.943C209.414 132.578 208.943 133.105 208.297 133.524C207.663 133.932 206.909 134.136 206.036 134.136C205.186 134.136 204.421 133.938 203.741 133.541C203.073 133.144 202.546 132.583 202.16 131.858C201.786 131.133 201.599 130.294 201.599 129.342C201.599 128.39 201.786 127.557 202.16 126.843C202.546 126.118 203.073 125.562 203.741 125.177C204.421 124.78 205.186 124.582 206.036 124.582ZM209.708 129.359C209.708 128.611 209.555 127.954 209.249 127.387C208.943 126.82 208.524 126.384 207.991 126.078C207.47 125.772 206.892 125.619 206.257 125.619C205.6 125.619 205.011 125.766 204.489 126.061C203.968 126.356 203.554 126.786 203.248 127.353C202.954 127.908 202.806 128.571 202.806 129.342C202.806 130.101 202.954 130.77 203.248 131.348C203.554 131.915 203.968 132.351 204.489 132.657C205.011 132.952 205.6 133.099 206.257 133.099C206.892 133.099 207.47 132.946 207.991 132.64C208.524 132.334 208.943 131.898 209.249 131.331C209.555 130.764 209.708 130.107 209.708 129.359ZM222.013 128.883C222.013 129.291 222.002 129.603 221.979 129.818H214.278C214.312 130.521 214.482 131.121 214.788 131.62C215.094 132.119 215.496 132.498 215.995 132.759C216.494 133.008 217.038 133.133 217.627 133.133C218.398 133.133 219.044 132.946 219.565 132.572C220.098 132.198 220.449 131.694 220.619 131.059H221.877C221.65 131.966 221.163 132.708 220.415 133.286C219.678 133.853 218.749 134.136 217.627 134.136C216.754 134.136 215.972 133.943 215.281 133.558C214.59 133.161 214.046 132.606 213.649 131.892C213.264 131.167 213.071 130.322 213.071 129.359C213.071 128.396 213.264 127.551 213.649 126.826C214.034 126.101 214.573 125.545 215.264 125.16C215.955 124.775 216.743 124.582 217.627 124.582C218.511 124.582 219.282 124.775 219.939 125.16C220.608 125.545 221.118 126.067 221.469 126.724C221.832 127.37 222.013 128.09 222.013 128.883ZM220.806 128.849C220.817 128.158 220.676 127.568 220.381 127.081C220.098 126.594 219.707 126.225 219.208 125.976C218.709 125.727 218.165 125.602 217.576 125.602C216.692 125.602 215.938 125.885 215.315 126.452C214.692 127.019 214.346 127.818 214.278 128.849H220.806ZM223.646 129.342C223.646 128.39 223.839 127.557 224.224 126.843C224.609 126.118 225.136 125.562 225.805 125.177C226.485 124.78 227.25 124.582 228.1 124.582C228.916 124.582 229.653 124.78 230.31 125.177C230.967 125.574 231.449 126.089 231.755 126.724V121.42H232.945V134H231.755V131.926C231.472 132.572 231.007 133.105 230.361 133.524C229.715 133.932 228.956 134.136 228.083 134.136C227.233 134.136 226.468 133.938 225.788 133.541C225.119 133.144 224.592 132.583 224.207 131.858C223.833 131.133 223.646 130.294 223.646 129.342ZM231.755 129.359C231.755 128.611 231.602 127.954 231.296 127.387C230.99 126.82 230.571 126.384 230.038 126.078C229.517 125.772 228.939 125.619 228.304 125.619C227.647 125.619 227.057 125.766 226.536 126.061C226.015 126.356 225.601 126.786 225.295 127.353C225 127.908 224.853 128.571 224.853 129.342C224.853 130.101 225 130.77 225.295 131.348C225.601 131.915 226.015 132.351 226.536 132.657C227.057 132.952 227.647 133.099 228.304 133.099C228.939 133.099 229.517 132.946 230.038 132.64C230.571 132.334 230.99 131.898 231.296 131.331C231.602 130.764 231.755 130.107 231.755 129.359Z" fill="black"/>
<path d="M309.015 125.721H306.856V134H305.666V125.721H304.374V124.718H305.666V124.072C305.666 123.063 305.921 122.321 306.431 121.845C306.952 121.369 307.791 121.131 308.947 121.131V122.151C308.176 122.151 307.632 122.298 307.315 122.593C307.009 122.888 306.856 123.381 306.856 124.072V124.718H309.015V125.721ZM314.951 134.136C314.079 134.136 313.291 133.943 312.588 133.558C311.897 133.161 311.347 132.606 310.939 131.892C310.543 131.167 310.344 130.322 310.344 129.359C310.344 128.396 310.548 127.557 310.956 126.843C311.364 126.118 311.92 125.562 312.622 125.177C313.325 124.78 314.113 124.582 314.985 124.582C315.858 124.582 316.646 124.78 317.348 125.177C318.062 125.562 318.618 126.118 319.014 126.843C319.422 127.557 319.626 128.396 319.626 129.359C319.626 130.311 319.422 131.15 319.014 131.875C318.606 132.6 318.045 133.161 317.331 133.558C316.617 133.943 315.824 134.136 314.951 134.136ZM314.951 133.099C315.563 133.099 316.13 132.963 316.651 132.691C317.173 132.408 317.592 131.988 317.909 131.433C318.238 130.866 318.402 130.175 318.402 129.359C318.402 128.543 318.244 127.857 317.926 127.302C317.609 126.735 317.19 126.316 316.668 126.044C316.147 125.761 315.58 125.619 314.968 125.619C314.356 125.619 313.79 125.761 313.268 126.044C312.747 126.316 312.328 126.735 312.01 127.302C311.704 127.857 311.551 128.543 311.551 129.359C311.551 130.175 311.704 130.866 312.01 131.433C312.328 131.988 312.741 132.408 313.251 132.691C313.773 132.963 314.339 133.099 314.951 133.099ZM322.986 126.367C323.246 125.789 323.643 125.341 324.176 125.024C324.72 124.707 325.383 124.548 326.165 124.548V125.789H325.842C324.98 125.789 324.289 126.021 323.768 126.486C323.246 126.951 322.986 127.727 322.986 128.815V134H321.796V124.718H322.986V126.367ZM337.04 124.548C337.742 124.548 338.371 124.695 338.927 124.99C339.493 125.285 339.935 125.738 340.253 126.35C340.581 126.951 340.746 127.687 340.746 128.56V134H339.573V128.696C339.573 127.687 339.318 126.917 338.808 126.384C338.309 125.851 337.623 125.585 336.751 125.585C335.855 125.585 335.141 125.868 334.609 126.435C334.076 127.002 333.81 127.835 333.81 128.934V134H332.62V121.42H333.81V126.299C334.104 125.744 334.535 125.313 335.102 125.007C335.68 124.701 336.326 124.548 337.04 124.548ZM343.973 122.967C343.735 122.967 343.531 122.882 343.361 122.712C343.191 122.542 343.106 122.332 343.106 122.083C343.106 121.834 343.191 121.63 343.361 121.471C343.531 121.301 343.735 121.216 343.973 121.216C344.211 121.216 344.415 121.301 344.585 121.471C344.755 121.63 344.84 121.834 344.84 122.083C344.84 122.332 344.755 122.542 344.585 122.712C344.415 122.882 344.211 122.967 343.973 122.967ZM344.568 124.718V134H343.378V124.718H344.568ZM350.458 134.136C349.393 134.136 348.52 133.892 347.84 133.405C347.172 132.906 346.798 132.232 346.718 131.382H347.942C347.999 131.903 348.243 132.328 348.673 132.657C349.115 132.974 349.705 133.133 350.441 133.133C351.087 133.133 351.592 132.98 351.954 132.674C352.328 132.368 352.515 131.988 352.515 131.535C352.515 131.218 352.413 130.957 352.209 130.753C352.005 130.549 351.745 130.39 351.427 130.277C351.121 130.152 350.702 130.022 350.169 129.886C349.478 129.705 348.917 129.523 348.486 129.342C348.056 129.161 347.687 128.894 347.381 128.543C347.087 128.18 346.939 127.699 346.939 127.098C346.939 126.645 347.075 126.225 347.347 125.84C347.619 125.455 348.005 125.149 348.503 124.922C349.002 124.695 349.569 124.582 350.203 124.582C351.201 124.582 352.005 124.837 352.617 125.347C353.229 125.846 353.558 126.537 353.603 127.421H352.413C352.379 126.877 352.164 126.441 351.767 126.112C351.382 125.772 350.849 125.602 350.169 125.602C349.569 125.602 349.081 125.744 348.707 126.027C348.333 126.31 348.146 126.662 348.146 127.081C348.146 127.444 348.254 127.744 348.469 127.982C348.696 128.209 348.974 128.39 349.302 128.526C349.631 128.651 350.073 128.792 350.628 128.951C351.297 129.132 351.83 129.308 352.226 129.478C352.623 129.648 352.963 129.897 353.246 130.226C353.53 130.555 353.677 130.991 353.688 131.535C353.688 132.034 353.552 132.481 353.28 132.878C353.008 133.263 352.629 133.569 352.141 133.796C351.654 134.023 351.093 134.136 350.458 134.136ZM360.049 129.342C360.049 128.39 360.236 127.557 360.61 126.843C360.996 126.118 361.523 125.562 362.191 125.177C362.871 124.78 363.636 124.582 364.486 124.582C365.37 124.582 366.13 124.786 366.764 125.194C367.41 125.602 367.875 126.123 368.158 126.758V124.718H369.348V134H368.158V131.943C367.864 132.578 367.393 133.105 366.747 133.524C366.113 133.932 365.353 134.136 364.469 134.136C363.631 134.136 362.871 133.938 362.191 133.541C361.523 133.144 360.996 132.583 360.61 131.858C360.236 131.133 360.049 130.294 360.049 129.342ZM368.158 129.359C368.158 128.611 368.005 127.954 367.699 127.387C367.393 126.82 366.974 126.384 366.441 126.078C365.92 125.772 365.342 125.619 364.707 125.619C364.05 125.619 363.461 125.766 362.939 126.061C362.418 126.356 362.004 126.786 361.698 127.353C361.404 127.908 361.256 128.571 361.256 129.342C361.256 130.101 361.404 130.77 361.698 131.348C362.004 131.915 362.418 132.351 362.939 132.657C363.461 132.952 364.05 133.099 364.707 133.099C365.342 133.099 365.92 132.946 366.441 132.64C366.974 132.334 367.393 131.898 367.699 131.331C368.005 130.764 368.158 130.107 368.158 129.359ZM373.238 126.775C373.544 126.129 374.014 125.602 374.649 125.194C375.295 124.786 376.054 124.582 376.927 124.582C377.777 124.582 378.536 124.78 379.205 125.177C379.874 125.562 380.395 126.118 380.769 126.843C381.154 127.557 381.347 128.39 381.347 129.342C381.347 130.294 381.154 131.133 380.769 131.858C380.395 132.583 379.868 133.144 379.188 133.541C378.519 133.938 377.766 134.136 376.927 134.136C376.043 134.136 375.278 133.938 374.632 133.541C373.997 133.133 373.533 132.606 373.238 131.96V134H372.065V121.42H373.238V126.775ZM380.14 129.342C380.14 128.571 379.987 127.908 379.681 127.353C379.386 126.786 378.978 126.356 378.457 126.061C377.936 125.766 377.346 125.619 376.689 125.619C376.054 125.619 375.471 125.772 374.938 126.078C374.417 126.384 374.003 126.82 373.697 127.387C373.391 127.954 373.238 128.611 373.238 129.359C373.238 130.107 373.391 130.764 373.697 131.331C374.003 131.898 374.417 132.334 374.938 132.64C375.471 132.946 376.054 133.099 376.689 133.099C377.346 133.099 377.936 132.952 378.457 132.657C378.978 132.351 379.386 131.915 379.681 131.348C379.987 130.77 380.14 130.101 380.14 129.342ZM386.733 134.136C385.667 134.136 384.795 133.892 384.115 133.405C383.446 132.906 383.072 132.232 382.993 131.382H384.217C384.273 131.903 384.517 132.328 384.948 132.657C385.39 132.974 385.979 133.133 386.716 133.133C387.362 133.133 387.866 132.98 388.229 132.674C388.603 132.368 388.79 131.988 388.79 131.535C388.79 131.218 388.688 130.957 388.484 130.753C388.28 130.549 388.019 130.39 387.702 130.277C387.396 130.152 386.976 130.022 386.444 129.886C385.752 129.705 385.191 129.523 384.761 129.342C384.33 129.161 383.962 128.894 383.656 128.543C383.361 128.18 383.214 127.699 383.214 127.098C383.214 126.645 383.35 126.225 383.622 125.84C383.894 125.455 384.279 125.149 384.778 124.922C385.276 124.695 385.843 124.582 386.478 124.582C387.475 124.582 388.28 124.837 388.892 125.347C389.504 125.846 389.832 126.537 389.878 127.421H388.688C388.654 126.877 388.438 126.441 388.042 126.112C387.656 125.772 387.124 125.602 386.444 125.602C385.843 125.602 385.356 125.744 384.982 126.027C384.608 126.31 384.421 126.662 384.421 127.081C384.421 127.444 384.528 127.744 384.744 127.982C384.97 128.209 385.248 128.39 385.577 128.526C385.905 128.651 386.347 128.792 386.903 128.951C387.571 129.132 388.104 129.308 388.501 129.478C388.897 129.648 389.237 129.897 389.521 130.226C389.804 130.555 389.951 130.991 389.963 131.535C389.963 132.034 389.827 132.481 389.555 132.878C389.283 133.263 388.903 133.569 388.416 133.796C387.928 134.023 387.367 134.136 386.733 134.136ZM400.601 128.883C400.601 129.291 400.589 129.603 400.567 129.818H392.866C392.9 130.521 393.07 131.121 393.376 131.62C393.682 132.119 394.084 132.498 394.583 132.759C395.081 133.008 395.625 133.133 396.215 133.133C396.985 133.133 397.631 132.946 398.153 132.572C398.685 132.198 399.037 131.694 399.207 131.059H400.465C400.238 131.966 399.751 132.708 399.003 133.286C398.266 133.853 397.337 134.136 396.215 134.136C395.342 134.136 394.56 133.943 393.869 133.558C393.177 133.161 392.633 132.606 392.237 131.892C391.851 131.167 391.659 130.322 391.659 129.359C391.659 128.396 391.851 127.551 392.237 126.826C392.622 126.101 393.16 125.545 393.852 125.16C394.543 124.775 395.331 124.582 396.215 124.582C397.099 124.582 397.869 124.775 398.527 125.16C399.195 125.545 399.705 126.067 400.057 126.724C400.419 127.37 400.601 128.09 400.601 128.883ZM399.394 128.849C399.405 128.158 399.263 127.568 398.969 127.081C398.685 126.594 398.294 126.225 397.796 125.976C397.297 125.727 396.753 125.602 396.164 125.602C395.28 125.602 394.526 125.885 393.903 126.452C393.279 127.019 392.934 127.818 392.866 128.849H399.394ZM407.13 124.548C408.241 124.548 409.147 124.894 409.85 125.585C410.553 126.265 410.904 127.257 410.904 128.56V134H409.731V128.696C409.731 127.687 409.476 126.917 408.966 126.384C408.467 125.851 407.782 125.585 406.909 125.585C406.014 125.585 405.3 125.868 404.767 126.435C404.234 127.002 403.968 127.835 403.968 128.934V134H402.778V124.718H403.968V126.299C404.263 125.732 404.688 125.302 405.243 125.007C405.798 124.701 406.427 124.548 407.13 124.548ZM412.992 129.359C412.992 128.396 413.184 127.557 413.57 126.843C413.955 126.118 414.488 125.562 415.168 125.177C415.848 124.78 416.624 124.582 417.497 124.582C418.641 124.582 419.582 124.865 420.319 125.432C421.067 125.999 421.548 126.769 421.764 127.744H420.489C420.33 127.075 419.984 126.554 419.452 126.18C418.93 125.795 418.279 125.602 417.497 125.602C416.873 125.602 416.312 125.744 415.814 126.027C415.315 126.31 414.918 126.735 414.624 127.302C414.34 127.857 414.199 128.543 414.199 129.359C414.199 130.175 414.34 130.866 414.624 131.433C414.918 132 415.315 132.425 415.814 132.708C416.312 132.991 416.873 133.133 417.497 133.133C418.279 133.133 418.93 132.946 419.452 132.572C419.984 132.187 420.33 131.654 420.489 130.974H421.764C421.548 131.926 421.067 132.691 420.319 133.269C419.571 133.847 418.63 134.136 417.497 134.136C416.624 134.136 415.848 133.943 415.168 133.558C414.488 133.161 413.955 132.606 413.57 131.892C413.184 131.167 412.992 130.322 412.992 129.359ZM432.36 128.883C432.36 129.291 432.348 129.603 432.326 129.818H424.625C424.659 130.521 424.829 131.121 425.135 131.62C425.441 132.119 425.843 132.498 426.342 132.759C426.84 133.008 427.384 133.133 427.974 133.133C428.744 133.133 429.39 132.946 429.912 132.572C430.444 132.198 430.796 131.694 430.966 131.059H432.224C431.997 131.966 431.51 132.708 430.762 133.286C430.025 133.853 429.096 134.136 427.974 134.136C427.101 134.136 426.319 133.943 425.628 133.558C424.936 133.161 424.392 132.606 423.996 131.892C423.61 131.167 423.418 130.322 423.418 129.359C423.418 128.396 423.61 127.551 423.996 126.826C424.381 126.101 424.919 125.545 425.611 125.16C426.302 124.775 427.09 124.582 427.974 124.582C428.858 124.582 429.628 124.775 430.286 125.16C430.954 125.545 431.464 126.067 431.816 126.724C432.178 127.37 432.36 128.09 432.36 128.883ZM431.153 128.849C431.164 128.158 431.022 127.568 430.728 127.081C430.444 126.594 430.053 126.225 429.555 125.976C429.056 125.727 428.512 125.602 427.923 125.602C427.039 125.602 426.285 125.885 425.662 126.452C425.038 127.019 424.693 127.818 424.625 128.849H431.153ZM434.741 134.085C434.491 134.085 434.282 134 434.112 133.83C433.953 133.66 433.874 133.45 433.874 133.201C433.874 132.952 433.953 132.748 434.112 132.589C434.282 132.419 434.491 132.334 434.741 132.334C434.979 132.334 435.177 132.419 435.336 132.589C435.506 132.748 435.591 132.952 435.591 133.201C435.591 133.45 435.506 133.66 435.336 133.83C435.177 134 434.979 134.085 434.741 134.085Z" fill="black"/>
<rect x="244" y="140" width="49" height="1" fill="#F48228"/>
<path d="M261.704 130.872C261.704 131.405 261.574 131.915 261.313 132.402C261.052 132.878 260.661 133.275 260.14 133.592C259.619 133.909 258.984 134.085 258.236 134.119V135.479H257.488V134.102C256.479 134.011 255.663 133.683 255.04 133.116C254.417 132.538 254.082 131.824 254.037 130.974H255.312C255.357 131.484 255.561 131.949 255.924 132.368C256.298 132.776 256.819 133.025 257.488 133.116V128.407C256.729 128.203 256.117 127.999 255.652 127.795C255.199 127.591 254.813 127.279 254.496 126.86C254.179 126.429 254.02 125.857 254.02 125.143C254.02 124.248 254.332 123.511 254.955 122.933C255.578 122.344 256.423 122.026 257.488 121.981V120.553H258.236V121.998C259.177 122.089 259.93 122.395 260.497 122.916C261.064 123.437 261.398 124.089 261.5 124.871H260.242C260.174 124.452 259.964 124.061 259.613 123.698C259.273 123.335 258.814 123.109 258.236 123.018V127.557C258.973 127.75 259.573 127.954 260.038 128.169C260.514 128.373 260.911 128.69 261.228 129.121C261.545 129.552 261.704 130.135 261.704 130.872ZM255.227 125.092C255.227 125.727 255.42 126.208 255.805 126.537C256.202 126.854 256.763 127.121 257.488 127.336V122.967C256.808 123.001 256.258 123.199 255.839 123.562C255.431 123.925 255.227 124.435 255.227 125.092ZM258.236 133.15C258.961 133.105 259.522 132.878 259.919 132.47C260.316 132.051 260.514 131.535 260.514 130.923C260.514 130.277 260.316 129.79 259.919 129.461C259.534 129.132 258.973 128.855 258.236 128.628V133.15ZM271.253 124.786C271.003 123.313 270.148 122.576 268.686 122.576C267.575 122.576 266.742 123.007 266.187 123.868C265.631 124.729 265.376 126.14 265.422 128.101C265.648 127.421 266.079 126.888 266.714 126.503C267.36 126.106 268.096 125.908 268.924 125.908C270.114 125.908 271.054 126.276 271.746 127.013C272.448 127.738 272.8 128.741 272.8 130.022C272.8 130.77 272.652 131.45 272.358 132.062C272.074 132.663 271.632 133.144 271.032 133.507C270.442 133.87 269.706 134.051 268.822 134.051C267.133 134.051 265.966 133.513 265.32 132.436C264.685 131.359 264.368 129.835 264.368 127.863C264.368 123.67 265.807 121.573 268.686 121.573C269.774 121.573 270.629 121.873 271.253 122.474C271.876 123.063 272.244 123.834 272.358 124.786H271.253ZM268.703 126.928C268.17 126.928 267.666 127.036 267.19 127.251C266.714 127.466 266.323 127.795 266.017 128.237C265.722 128.668 265.575 129.2 265.575 129.835C265.575 130.753 265.847 131.518 266.391 132.13C266.935 132.742 267.728 133.048 268.771 133.048C269.643 133.048 270.34 132.782 270.862 132.249C271.383 131.716 271.644 130.991 271.644 130.073C271.644 129.087 271.389 128.316 270.879 127.761C270.369 127.206 269.643 126.928 268.703 126.928ZM282.233 122.746L277.49 134H276.283L281.077 122.848H274.277V121.828H282.233V122.746Z" fill="black"/>
</svg>
