<svg width="653" height="421" viewBox="0 0 653 421" fill="none" xmlns="http://www.w3.org/2000/svg">
<rect y="29" width="653" height="392" fill="#EFF7FF"/>
<rect x="129" y="47" width="498" height="351" rx="11" fill="white"/>
<path d="M585 77V67C585 65.3431 583.657 64 582 64H519C517.343 64 516 65.3431 516 67V77C516 78.6569 517.343 80 519 80H582C583.657 80 585 78.6569 585 77Z" fill="#65BAFF"/>
<path d="M542.624 71.144C542.624 71.4427 542.552 71.7227 542.408 71.984C542.269 72.2453 542.048 72.456 541.744 72.616C541.445 72.776 541.067 72.856 540.608 72.856H539.672V75H538.552V69.416H540.608C541.04 69.416 541.408 69.4907 541.712 69.64C542.016 69.7893 542.243 69.9947 542.392 70.256C542.547 70.5173 542.624 70.8133 542.624 71.144ZM540.56 71.952C540.869 71.952 541.099 71.8827 541.248 71.744C541.397 71.6 541.472 71.4 541.472 71.144C541.472 70.6 541.168 70.328 540.56 70.328H539.672V71.952H540.56ZM544.739 71.256C544.883 71.0213 545.07 70.8373 545.299 70.704C545.534 70.5707 545.801 70.504 546.099 70.504V71.68H545.803C545.451 71.68 545.185 71.7627 545.003 71.928C544.827 72.0933 544.739 72.3813 544.739 72.792V75H543.619V70.568H544.739V71.256ZM551.174 72.688C551.174 72.848 551.163 72.992 551.142 73.12H547.902C547.928 73.44 548.04 73.6907 548.238 73.872C548.435 74.0533 548.678 74.144 548.966 74.144C549.382 74.144 549.678 73.9653 549.854 73.608H551.062C550.934 74.0347 550.688 74.3867 550.326 74.664C549.963 74.936 549.518 75.072 548.99 75.072C548.563 75.072 548.179 74.9787 547.838 74.792C547.502 74.6 547.238 74.3307 547.046 73.984C546.859 73.6373 546.766 73.2373 546.766 72.784C546.766 72.3253 546.859 71.9227 547.046 71.576C547.232 71.2293 547.494 70.9627 547.83 70.776C548.166 70.5893 548.552 70.496 548.99 70.496C549.411 70.496 549.787 70.5867 550.118 70.768C550.454 70.9493 550.712 71.208 550.894 71.544C551.08 71.8747 551.174 72.256 551.174 72.688ZM550.014 72.368C550.008 72.08 549.904 71.8507 549.702 71.68C549.499 71.504 549.251 71.416 548.958 71.416C548.68 71.416 548.446 71.5013 548.254 71.672C548.067 71.8373 547.952 72.0693 547.91 72.368H550.014ZM554.039 73.968L555.159 70.568H556.351L554.711 75H553.351L551.719 70.568H552.919L554.039 73.968ZM557.748 70.04C557.551 70.04 557.385 69.9787 557.252 69.856C557.124 69.728 557.06 69.5707 557.06 69.384C557.06 69.1973 557.124 69.0427 557.252 68.92C557.385 68.792 557.551 68.728 557.748 68.728C557.945 68.728 558.108 68.792 558.236 68.92C558.369 69.0427 558.436 69.1973 558.436 69.384C558.436 69.5707 558.369 69.728 558.236 69.856C558.108 69.9787 557.945 70.04 557.748 70.04ZM558.3 70.568V75H557.18V70.568H558.3ZM563.727 72.688C563.727 72.848 563.716 72.992 563.695 73.12H560.455C560.481 73.44 560.593 73.6907 560.791 73.872C560.988 74.0533 561.231 74.144 561.519 74.144C561.935 74.144 562.231 73.9653 562.407 73.608H563.615C563.487 74.0347 563.241 74.3867 562.879 74.664C562.516 74.936 562.071 75.072 561.543 75.072C561.116 75.072 560.732 74.9787 560.391 74.792C560.055 74.6 559.791 74.3307 559.599 73.984C559.412 73.6373 559.319 73.2373 559.319 72.784C559.319 72.3253 559.412 71.9227 559.599 71.576C559.785 71.2293 560.047 70.9627 560.383 70.776C560.719 70.5893 561.105 70.496 561.543 70.496C561.964 70.496 562.34 70.5867 562.671 70.768C563.007 70.9493 563.265 71.208 563.447 71.544C563.633 71.8747 563.727 72.256 563.727 72.688ZM562.567 72.368C562.561 72.08 562.457 71.8507 562.255 71.68C562.052 71.504 561.804 71.416 561.511 71.416C561.233 71.416 560.999 71.5013 560.807 71.672C560.62 71.8373 560.505 72.0693 560.463 72.368H562.567ZM570.888 70.568L569.592 75H568.384L567.576 71.904L566.768 75H565.552L564.248 70.568H565.384L566.168 73.944L567.016 70.568H568.2L569.032 73.936L569.816 70.568H570.888Z" fill="white"/>
<path d="M520.383 71.5C520.383 71.5 522.374 68 525.859 68C529.344 68 531.335 71.5 531.335 71.5C531.335 71.5 529.344 75 525.859 75C522.374 75 520.383 71.5 520.383 71.5Z" stroke="white" stroke-linecap="round" stroke-linejoin="round"/>
<path d="M525.859 72.8125C526.684 72.8125 527.353 72.2249 527.353 71.5C527.353 70.7751 526.684 70.1875 525.859 70.1875C525.034 70.1875 524.365 70.7751 524.365 71.5C524.365 72.2249 525.034 72.8125 525.859 72.8125Z" stroke="white" stroke-linecap="round" stroke-linejoin="round"/>
<path d="M153.019 123.019C153.009 117.489 157.489 113 163.019 113H595.5C601.023 113 605.5 117.477 605.5 123V363.5C605.5 369.023 601.023 373.5 595.5 373.5H163.481C157.965 373.5 153.491 369.035 153.481 363.519L153.019 123.019Z" fill="#F2F3F4" stroke="#F5F5F5" stroke-width="3"/>
<path d="M290.5 375V111.5H162C155.925 111.5 151 116.425 151 122.5V364C151 370.075 155.925 375 162 375H290.5Z" fill="#E9E7E8"/>
<path d="M240.736 148.063C240.316 148.063 239.938 147.991 239.602 147.847C239.266 147.697 239.002 147.487 238.81 147.217C238.618 146.947 238.522 146.632 238.522 146.272H239.62C239.644 146.542 239.749 146.764 239.935 146.938C240.127 147.112 240.394 147.199 240.736 147.199C241.09 147.199 241.366 147.115 241.564 146.947C241.762 146.773 241.861 146.551 241.861 146.281C241.861 146.071 241.798 145.9 241.672 145.768C241.552 145.636 241.399 145.534 241.213 145.462C241.033 145.39 240.781 145.312 240.457 145.228C240.049 145.12 239.716 145.012 239.458 144.904C239.206 144.79 238.99 144.616 238.81 144.382C238.63 144.148 238.54 143.836 238.54 143.446C238.54 143.086 238.63 142.771 238.81 142.501C238.99 142.231 239.242 142.024 239.566 141.88C239.89 141.736 240.265 141.664 240.691 141.664C241.297 141.664 241.792 141.817 242.176 142.123C242.566 142.423 242.782 142.837 242.824 143.365H241.69C241.672 143.137 241.564 142.942 241.366 142.78C241.168 142.618 240.907 142.537 240.583 142.537C240.289 142.537 240.049 142.612 239.863 142.762C239.677 142.912 239.584 143.128 239.584 143.41C239.584 143.602 239.641 143.761 239.755 143.887C239.875 144.007 240.025 144.103 240.205 144.175C240.385 144.247 240.631 144.325 240.943 144.409C241.357 144.523 241.693 144.637 241.951 144.751C242.215 144.865 242.437 145.042 242.617 145.282C242.803 145.516 242.896 145.831 242.896 146.227C242.896 146.545 242.809 146.845 242.635 147.127C242.467 147.409 242.218 147.637 241.888 147.811C241.564 147.979 241.18 148.063 240.736 148.063ZM248.652 145.399C248.652 145.585 248.64 145.753 248.616 145.903H244.827C244.857 146.299 245.004 146.617 245.268 146.857C245.532 147.097 245.856 147.217 246.24 147.217C246.792 147.217 247.182 146.986 247.41 146.524H248.517C248.367 146.98 248.094 147.355 247.698 147.649C247.308 147.937 246.822 148.081 246.24 148.081C245.766 148.081 245.34 147.976 244.962 147.766C244.59 147.55 244.296 147.25 244.08 146.866C243.87 146.476 243.765 146.026 243.765 145.516C243.765 145.006 243.867 144.559 244.071 144.175C244.281 143.785 244.572 143.485 244.944 143.275C245.322 143.065 245.754 142.96 246.24 142.96C246.708 142.96 247.125 143.062 247.491 143.266C247.857 143.47 248.142 143.758 248.346 144.13C248.55 144.496 248.652 144.919 248.652 145.399ZM247.581 145.075C247.575 144.697 247.44 144.394 247.176 144.166C246.912 143.938 246.585 143.824 246.195 143.824C245.841 143.824 245.538 143.938 245.286 144.166C245.034 144.388 244.884 144.691 244.836 145.075H247.581ZM250.858 143.878V146.623C250.858 146.809 250.9 146.944 250.984 147.028C251.074 147.106 251.224 147.145 251.434 147.145H252.064V148H251.254C250.792 148 250.438 147.892 250.192 147.676C249.946 147.46 249.823 147.109 249.823 146.623V143.878H249.238V143.041H249.823V141.808H250.858V143.041H252.064V143.878H250.858ZM254.207 143.878V146.623C254.207 146.809 254.249 146.944 254.333 147.028C254.423 147.106 254.573 147.145 254.783 147.145H255.413V148H254.603C254.141 148 253.787 147.892 253.541 147.676C253.295 147.46 253.172 147.109 253.172 146.623V143.878H252.587V143.041H253.172V141.808H254.207V143.041H255.413V143.878H254.207ZM256.881 142.384C256.695 142.384 256.539 142.321 256.413 142.195C256.287 142.069 256.224 141.913 256.224 141.727C256.224 141.541 256.287 141.385 256.413 141.259C256.539 141.133 256.695 141.07 256.881 141.07C257.061 141.07 257.214 141.133 257.34 141.259C257.466 141.385 257.529 141.541 257.529 141.727C257.529 141.913 257.466 142.069 257.34 142.195C257.214 142.321 257.061 142.384 256.881 142.384ZM257.385 143.041V148H256.359V143.041H257.385ZM261.234 142.96C261.624 142.96 261.972 143.041 262.278 143.203C262.59 143.365 262.833 143.605 263.007 143.923C263.181 144.241 263.268 144.625 263.268 145.075V148H262.251V145.228C262.251 144.784 262.14 144.445 261.918 144.211C261.696 143.971 261.393 143.851 261.009 143.851C260.625 143.851 260.319 143.971 260.091 144.211C259.869 144.445 259.758 144.784 259.758 145.228V148H258.732V143.041H259.758V143.608C259.926 143.404 260.139 143.245 260.397 143.131C260.661 143.017 260.94 142.96 261.234 142.96ZM266.574 142.96C266.958 142.96 267.297 143.038 267.591 143.194C267.891 143.344 268.125 143.533 268.293 143.761V143.041H269.328V148.081C269.328 148.537 269.232 148.942 269.04 149.296C268.848 149.656 268.569 149.938 268.203 150.142C267.843 150.346 267.411 150.448 266.907 150.448C266.235 150.448 265.677 150.289 265.233 149.971C264.789 149.659 264.537 149.233 264.477 148.693H265.494C265.572 148.951 265.737 149.158 265.989 149.314C266.247 149.476 266.553 149.557 266.907 149.557C267.321 149.557 267.654 149.431 267.906 149.179C268.164 148.927 268.293 148.561 268.293 148.081V147.253C268.119 147.487 267.882 147.685 267.582 147.847C267.288 148.003 266.952 148.081 266.574 148.081C266.142 148.081 265.746 147.973 265.386 147.757C265.032 147.535 264.75 147.229 264.54 146.839C264.336 146.443 264.234 145.996 264.234 145.498C264.234 145 264.336 144.559 264.54 144.175C264.75 143.791 265.032 143.494 265.386 143.284C265.746 143.068 266.142 142.96 266.574 142.96ZM268.293 145.516C268.293 145.174 268.221 144.877 268.077 144.625C267.939 144.373 267.756 144.181 267.528 144.049C267.3 143.917 267.054 143.851 266.79 143.851C266.526 143.851 266.28 143.917 266.052 144.049C265.824 144.175 265.638 144.364 265.494 144.616C265.356 144.862 265.287 145.156 265.287 145.498C265.287 145.84 265.356 146.14 265.494 146.398C265.638 146.656 265.824 146.854 266.052 146.992C266.286 147.124 266.532 147.19 266.79 147.19C267.054 147.19 267.3 147.124 267.528 146.992C267.756 146.86 267.939 146.668 268.077 146.416C268.221 146.158 268.293 145.858 268.293 145.516ZM272.476 148.081C272.086 148.081 271.735 148.012 271.423 147.874C271.117 147.73 270.874 147.538 270.694 147.298C270.514 147.052 270.418 146.779 270.406 146.479H271.468C271.486 146.689 271.585 146.866 271.765 147.01C271.951 147.148 272.182 147.217 272.458 147.217C272.746 147.217 272.968 147.163 273.124 147.055C273.286 146.941 273.367 146.797 273.367 146.623C273.367 146.437 273.277 146.299 273.097 146.209C272.923 146.119 272.644 146.02 272.26 145.912C271.888 145.81 271.585 145.711 271.351 145.615C271.117 145.519 270.913 145.372 270.739 145.174C270.571 144.976 270.487 144.715 270.487 144.391C270.487 144.127 270.565 143.887 270.721 143.671C270.877 143.449 271.099 143.275 271.387 143.149C271.681 143.023 272.017 142.96 272.395 142.96C272.959 142.96 273.412 143.104 273.754 143.392C274.102 143.674 274.288 144.061 274.312 144.553H273.286C273.268 144.331 273.178 144.154 273.016 144.022C272.854 143.89 272.635 143.824 272.359 143.824C272.089 143.824 271.882 143.875 271.738 143.977C271.594 144.079 271.522 144.214 271.522 144.382C271.522 144.514 271.57 144.625 271.666 144.715C271.762 144.805 271.879 144.877 272.017 144.931C272.155 144.979 272.359 145.042 272.629 145.12C272.989 145.216 273.283 145.315 273.511 145.417C273.745 145.513 273.946 145.657 274.114 145.849C274.282 146.041 274.369 146.296 274.375 146.614C274.375 146.896 274.297 147.148 274.141 147.37C273.985 147.592 273.763 147.766 273.475 147.892C273.193 148.018 272.86 148.081 272.476 148.081Z" fill="#444444"/>
<path d="M169.333 144.859C169.333 144.247 169.474 143.698 169.756 143.212C170.044 142.726 170.431 142.348 170.917 142.078C171.409 141.802 171.946 141.664 172.528 141.664C173.194 141.664 173.785 141.829 174.301 142.159C174.823 142.483 175.201 142.945 175.435 143.545H174.202C174.04 143.215 173.815 142.969 173.527 142.807C173.239 142.645 172.906 142.564 172.528 142.564C172.114 142.564 171.745 142.657 171.421 142.843C171.097 143.029 170.842 143.296 170.656 143.644C170.476 143.992 170.386 144.397 170.386 144.859C170.386 145.321 170.476 145.726 170.656 146.074C170.842 146.422 171.097 146.692 171.421 146.884C171.745 147.07 172.114 147.163 172.528 147.163C172.906 147.163 173.239 147.082 173.527 146.92C173.815 146.758 174.04 146.512 174.202 146.182H175.435C175.201 146.782 174.823 147.244 174.301 147.568C173.785 147.892 173.194 148.054 172.528 148.054C171.94 148.054 171.403 147.919 170.917 147.649C170.431 147.373 170.044 146.992 169.756 146.506C169.474 146.02 169.333 145.471 169.333 144.859ZM178.787 148.081C178.319 148.081 177.896 147.976 177.518 147.766C177.14 147.55 176.843 147.25 176.627 146.866C176.411 146.476 176.303 146.026 176.303 145.516C176.303 145.012 176.414 144.565 176.636 144.175C176.858 143.785 177.161 143.485 177.545 143.275C177.929 143.065 178.358 142.96 178.832 142.96C179.306 142.96 179.735 143.065 180.119 143.275C180.503 143.485 180.806 143.785 181.028 144.175C181.25 144.565 181.361 145.012 181.361 145.516C181.361 146.02 181.247 146.467 181.019 146.857C180.791 147.247 180.479 147.55 180.083 147.766C179.693 147.976 179.261 148.081 178.787 148.081ZM178.787 147.19C179.051 147.19 179.297 147.127 179.525 147.001C179.759 146.875 179.948 146.686 180.092 146.434C180.236 146.182 180.308 145.876 180.308 145.516C180.308 145.156 180.239 144.853 180.101 144.607C179.963 144.355 179.78 144.166 179.552 144.04C179.324 143.914 179.078 143.851 178.814 143.851C178.55 143.851 178.304 143.914 178.076 144.04C177.854 144.166 177.677 144.355 177.545 144.607C177.413 144.853 177.347 145.156 177.347 145.516C177.347 146.05 177.482 146.464 177.752 146.758C178.028 147.046 178.373 147.19 178.787 147.19ZM184.877 142.96C185.267 142.96 185.615 143.041 185.921 143.203C186.233 143.365 186.476 143.605 186.65 143.923C186.824 144.241 186.911 144.625 186.911 145.075V148H185.894V145.228C185.894 144.784 185.783 144.445 185.561 144.211C185.339 143.971 185.036 143.851 184.652 143.851C184.268 143.851 183.962 143.971 183.734 144.211C183.512 144.445 183.401 144.784 183.401 145.228V148H182.375V143.041H183.401V143.608C183.569 143.404 183.782 143.245 184.04 143.131C184.304 143.017 184.583 142.96 184.877 142.96ZM189.417 143.878V146.623C189.417 146.809 189.459 146.944 189.543 147.028C189.633 147.106 189.783 147.145 189.993 147.145H190.623V148H189.813C189.351 148 188.997 147.892 188.751 147.676C188.505 147.46 188.382 147.109 188.382 146.623V143.878H187.797V143.041H188.382V141.808H189.417V143.041H190.623V143.878H189.417ZM196.114 145.399C196.114 145.585 196.102 145.753 196.078 145.903H192.289C192.319 146.299 192.466 146.617 192.73 146.857C192.994 147.097 193.318 147.217 193.702 147.217C194.254 147.217 194.644 146.986 194.872 146.524H195.979C195.829 146.98 195.556 147.355 195.16 147.649C194.77 147.937 194.284 148.081 193.702 148.081C193.228 148.081 192.802 147.976 192.424 147.766C192.052 147.55 191.758 147.25 191.542 146.866C191.332 146.476 191.227 146.026 191.227 145.516C191.227 145.006 191.329 144.559 191.533 144.175C191.743 143.785 192.034 143.485 192.406 143.275C192.784 143.065 193.216 142.96 193.702 142.96C194.17 142.96 194.587 143.062 194.953 143.266C195.319 143.47 195.604 143.758 195.808 144.13C196.012 144.496 196.114 144.919 196.114 145.399ZM195.043 145.075C195.037 144.697 194.902 144.394 194.638 144.166C194.374 143.938 194.047 143.824 193.657 143.824C193.303 143.824 193 143.938 192.748 144.166C192.496 144.388 192.346 144.691 192.298 145.075H195.043ZM199.625 142.96C200.015 142.96 200.363 143.041 200.669 143.203C200.981 143.365 201.224 143.605 201.398 143.923C201.572 144.241 201.659 144.625 201.659 145.075V148H200.642V145.228C200.642 144.784 200.531 144.445 200.309 144.211C200.087 143.971 199.784 143.851 199.4 143.851C199.016 143.851 198.71 143.971 198.482 144.211C198.26 144.445 198.149 144.784 198.149 145.228V148H197.123V143.041H198.149V143.608C198.317 143.404 198.53 143.245 198.788 143.131C199.052 143.017 199.331 142.96 199.625 142.96ZM204.165 143.878V146.623C204.165 146.809 204.207 146.944 204.291 147.028C204.381 147.106 204.531 147.145 204.741 147.145H205.371V148H204.561C204.099 148 203.745 147.892 203.499 147.676C203.253 147.46 203.13 147.109 203.13 146.623V143.878H202.545V143.041H203.13V141.808H204.165V143.041H205.371V143.878H204.165Z" fill="#444444"/>
<path d="M170 153.5H205" stroke="#888888" stroke-linecap="round"/>
<rect x="160.5" y="166.5" width="51" height="46" rx="3.5" fill="white" stroke="#DDEDFF"/>
<path d="M179 181V179H192V181M186 179V193M188 193H184" stroke="black" stroke-width="2" stroke-linecap="round" stroke-linejoin="round"/>
<path d="M181.808 199.114V199.905H180.506V204H179.526V199.905H178.224V199.114H181.808ZM186.303 201.977C186.303 202.117 186.294 202.243 186.275 202.355H183.44C183.463 202.635 183.561 202.854 183.734 203.013C183.907 203.172 184.119 203.251 184.371 203.251C184.735 203.251 184.994 203.095 185.148 202.782H186.205C186.093 203.155 185.878 203.463 185.561 203.706C185.244 203.944 184.854 204.063 184.392 204.063C184.019 204.063 183.683 203.981 183.384 203.818C183.09 203.65 182.859 203.414 182.691 203.111C182.528 202.808 182.446 202.458 182.446 202.061C182.446 201.66 182.528 201.307 182.691 201.004C182.854 200.701 183.083 200.467 183.377 200.304C183.671 200.141 184.009 200.059 184.392 200.059C184.761 200.059 185.09 200.138 185.379 200.297C185.673 200.456 185.899 200.682 186.058 200.976C186.221 201.265 186.303 201.599 186.303 201.977ZM185.288 201.697C185.283 201.445 185.192 201.244 185.015 201.095C184.838 200.941 184.621 200.864 184.364 200.864C184.121 200.864 183.916 200.939 183.748 201.088C183.585 201.233 183.484 201.436 183.447 201.697H185.288ZM189.335 204L188.537 202.796L187.83 204H186.78L188.047 202.054L186.766 200.122H187.872L188.663 201.319L189.377 200.122H190.427L189.153 202.054L190.441 204H189.335ZM192.29 200.927V202.803C192.29 202.934 192.32 203.029 192.381 203.09C192.446 203.146 192.553 203.174 192.703 203.174H193.158V204H192.542C191.716 204 191.303 203.599 191.303 202.796V200.927H190.841V200.122H191.303V199.163H192.29V200.122H193.158V200.927H192.29Z" fill="black"/>
<rect x="230.5" y="166.5" width="51" height="46" rx="3.5" fill="white" stroke="#DDEDFF"/>
<path d="M245.463 201.114V206H244.483V201.114H245.463ZM251.422 202.066C251.898 202.066 252.281 202.213 252.57 202.507C252.864 202.796 253.011 203.202 253.011 203.725V206H252.031V203.858C252.031 203.555 251.954 203.324 251.8 203.165C251.646 203.002 251.436 202.92 251.17 202.92C250.904 202.92 250.692 203.002 250.533 203.165C250.379 203.324 250.302 203.555 250.302 203.858V206H249.322V203.858C249.322 203.555 249.245 203.324 249.091 203.165C248.937 203.002 248.727 202.92 248.461 202.92C248.191 202.92 247.976 203.002 247.817 203.165C247.663 203.324 247.586 203.555 247.586 203.858V206H246.606V202.122H247.586V202.591C247.712 202.428 247.873 202.299 248.069 202.206C248.27 202.113 248.489 202.066 248.727 202.066C249.031 202.066 249.301 202.131 249.539 202.262C249.777 202.388 249.962 202.57 250.092 202.808C250.218 202.584 250.4 202.404 250.638 202.269C250.881 202.134 251.142 202.066 251.422 202.066ZM253.864 204.047C253.864 203.655 253.941 203.307 254.095 203.004C254.254 202.701 254.466 202.467 254.732 202.304C255.003 202.141 255.304 202.059 255.635 202.059C255.925 202.059 256.177 202.117 256.391 202.234C256.611 202.351 256.786 202.498 256.916 202.675V202.122H257.903V206H256.916V205.433C256.79 205.615 256.615 205.767 256.391 205.888C256.172 206.005 255.918 206.063 255.628 206.063C255.302 206.063 255.003 205.979 254.732 205.811C254.466 205.643 254.254 205.407 254.095 205.104C253.941 204.796 253.864 204.444 253.864 204.047ZM256.916 204.061C256.916 203.823 256.87 203.62 256.776 203.452C256.683 203.279 256.557 203.149 256.398 203.06C256.24 202.967 256.069 202.92 255.887 202.92C255.705 202.92 255.537 202.964 255.383 203.053C255.229 203.142 255.103 203.272 255.005 203.445C254.912 203.613 254.865 203.814 254.865 204.047C254.865 204.28 254.912 204.486 255.005 204.663C255.103 204.836 255.229 204.969 255.383 205.062C255.542 205.155 255.71 205.202 255.887 205.202C256.069 205.202 256.24 205.158 256.398 205.069C256.557 204.976 256.683 204.845 256.776 204.677C256.87 204.504 256.916 204.299 256.916 204.061ZM260.554 202.059C260.844 202.059 261.098 202.117 261.317 202.234C261.537 202.346 261.709 202.493 261.835 202.675V202.122H262.822V206.028C262.822 206.387 262.75 206.707 262.605 206.987C262.461 207.272 262.244 207.496 261.954 207.659C261.665 207.827 261.315 207.911 260.904 207.911C260.354 207.911 259.901 207.783 259.546 207.526C259.196 207.269 258.998 206.919 258.951 206.476H259.924C259.976 206.653 260.085 206.793 260.253 206.896C260.426 207.003 260.634 207.057 260.876 207.057C261.161 207.057 261.392 206.971 261.569 206.798C261.747 206.63 261.835 206.373 261.835 206.028V205.426C261.709 205.608 261.534 205.76 261.31 205.881C261.091 206.002 260.839 206.063 260.554 206.063C260.228 206.063 259.929 205.979 259.658 205.811C259.388 205.643 259.173 205.407 259.014 205.104C258.86 204.796 258.783 204.444 258.783 204.047C258.783 203.655 258.86 203.307 259.014 203.004C259.173 202.701 259.385 202.467 259.651 202.304C259.922 202.141 260.223 202.059 260.554 202.059ZM261.835 204.061C261.835 203.823 261.789 203.62 261.695 203.452C261.602 203.279 261.476 203.149 261.317 203.06C261.159 202.967 260.988 202.92 260.806 202.92C260.624 202.92 260.456 202.964 260.302 203.053C260.148 203.142 260.022 203.272 259.924 203.445C259.831 203.613 259.784 203.814 259.784 204.047C259.784 204.28 259.831 204.486 259.924 204.663C260.022 204.836 260.148 204.969 260.302 205.062C260.461 205.155 260.629 205.202 260.806 205.202C260.988 205.202 261.159 205.158 261.317 205.069C261.476 204.976 261.602 204.845 261.695 204.677C261.789 204.504 261.835 204.299 261.835 204.061ZM267.559 203.977C267.559 204.117 267.55 204.243 267.531 204.355H264.696C264.72 204.635 264.818 204.854 264.99 205.013C265.163 205.172 265.375 205.251 265.627 205.251C265.991 205.251 266.25 205.095 266.404 204.782H267.461C267.349 205.155 267.135 205.463 266.817 205.706C266.5 205.944 266.11 206.063 265.648 206.063C265.275 206.063 264.939 205.981 264.64 205.818C264.346 205.65 264.115 205.414 263.947 205.111C263.784 204.808 263.702 204.458 263.702 204.061C263.702 203.66 263.784 203.307 263.947 203.004C264.111 202.701 264.339 202.467 264.633 202.304C264.927 202.141 265.266 202.059 265.648 202.059C266.017 202.059 266.346 202.138 266.635 202.297C266.929 202.456 267.156 202.682 267.314 202.976C267.478 203.265 267.559 203.599 267.559 203.977ZM266.544 203.697C266.54 203.445 266.449 203.244 266.271 203.095C266.094 202.941 265.877 202.864 265.62 202.864C265.378 202.864 265.172 202.939 265.004 203.088C264.841 203.233 264.741 203.436 264.703 203.697H266.544Z" fill="black"/>
<path fill-rule="evenodd" clip-rule="evenodd" d="M247 192H264.5V179H247V192ZM263.5 191H248V188C249.667 186.167 253.5 182.5 254.5 187.5C256 185.5 259.5 178.3 263.5 185.5V191ZM250.5 184.5C251.605 184.5 252.5 183.605 252.5 182.5C252.5 181.395 251.605 180.5 250.5 180.5C249.395 180.5 248.5 181.395 248.5 182.5C248.5 183.605 249.395 184.5 250.5 184.5Z" fill="black"/>
<rect x="230.5" y="234.5" width="51" height="46" rx="3.5" fill="white" stroke="#DDEDFF"/>
<path d="M246 257.5V248C246 246.895 246.895 246 248 246H257.5C258.605 246 259.5 246.895 259.5 248V257.5C259.5 258.605 258.605 259.5 257.5 259.5H248C246.895 259.5 246 258.605 246 257.5Z" fill="#303233"/>
<path d="M260.5 248.5L265 246V259.5L260.5 256V248.5Z" fill="#303233"/>
<path d="M249.872 266.114L248.08 271H246.89L245.098 266.114H246.148L247.492 269.999L248.829 266.114H249.872ZM251.132 266.66C250.959 266.66 250.814 266.606 250.698 266.499C250.586 266.387 250.53 266.249 250.53 266.086C250.53 265.923 250.586 265.787 250.698 265.68C250.814 265.568 250.959 265.512 251.132 265.512C251.304 265.512 251.447 265.568 251.559 265.68C251.675 265.787 251.734 265.923 251.734 266.086C251.734 266.249 251.675 266.387 251.559 266.499C251.447 266.606 251.304 266.66 251.132 266.66ZM251.615 267.122V271H250.635V267.122H251.615ZM252.506 269.047C252.506 268.655 252.583 268.307 252.737 268.004C252.895 267.701 253.11 267.467 253.381 267.304C253.651 267.141 253.952 267.059 254.284 267.059C254.536 267.059 254.776 267.115 255.005 267.227C255.233 267.334 255.415 267.479 255.551 267.661V265.82H256.545V271H255.551V270.426C255.429 270.617 255.259 270.771 255.04 270.888C254.82 271.005 254.566 271.063 254.277 271.063C253.95 271.063 253.651 270.979 253.381 270.811C253.11 270.643 252.895 270.407 252.737 270.104C252.583 269.796 252.506 269.444 252.506 269.047ZM255.558 269.061C255.558 268.823 255.511 268.62 255.418 268.452C255.324 268.279 255.198 268.149 255.04 268.06C254.881 267.967 254.711 267.92 254.529 267.92C254.347 267.92 254.179 267.964 254.025 268.053C253.871 268.142 253.745 268.272 253.647 268.445C253.553 268.613 253.507 268.814 253.507 269.047C253.507 269.28 253.553 269.486 253.647 269.663C253.745 269.836 253.871 269.969 254.025 270.062C254.183 270.155 254.351 270.202 254.529 270.202C254.711 270.202 254.881 270.158 255.04 270.069C255.198 269.976 255.324 269.845 255.418 269.677C255.511 269.504 255.558 269.299 255.558 269.061ZM261.282 268.977C261.282 269.117 261.273 269.243 261.254 269.355H258.419C258.442 269.635 258.54 269.854 258.713 270.013C258.886 270.172 259.098 270.251 259.35 270.251C259.714 270.251 259.973 270.095 260.127 269.782H261.184C261.072 270.155 260.857 270.463 260.54 270.706C260.223 270.944 259.833 271.063 259.371 271.063C258.998 271.063 258.662 270.981 258.363 270.818C258.069 270.65 257.838 270.414 257.67 270.111C257.507 269.808 257.425 269.458 257.425 269.061C257.425 268.66 257.507 268.307 257.67 268.004C257.833 267.701 258.062 267.467 258.356 267.304C258.65 267.141 258.988 267.059 259.371 267.059C259.74 267.059 260.069 267.138 260.358 267.297C260.652 267.456 260.878 267.682 261.037 267.976C261.2 268.265 261.282 268.599 261.282 268.977ZM260.267 268.697C260.262 268.445 260.171 268.244 259.994 268.095C259.817 267.941 259.6 267.864 259.343 267.864C259.1 267.864 258.895 267.939 258.727 268.088C258.564 268.233 258.463 268.436 258.426 268.697H260.267ZM263.894 271.063C263.521 271.063 263.185 270.981 262.886 270.818C262.588 270.65 262.352 270.414 262.179 270.111C262.011 269.808 261.927 269.458 261.927 269.061C261.927 268.664 262.014 268.314 262.186 268.011C262.364 267.708 262.604 267.474 262.907 267.311C263.211 267.143 263.549 267.059 263.922 267.059C264.296 267.059 264.634 267.143 264.937 267.311C265.241 267.474 265.479 267.708 265.651 268.011C265.829 268.314 265.917 268.664 265.917 269.061C265.917 269.458 265.826 269.808 265.644 270.111C265.467 270.414 265.224 270.65 264.916 270.818C264.613 270.981 264.272 271.063 263.894 271.063ZM263.894 270.209C264.072 270.209 264.237 270.167 264.391 270.083C264.55 269.994 264.676 269.864 264.769 269.691C264.863 269.518 264.909 269.308 264.909 269.061C264.909 268.692 264.811 268.41 264.615 268.214C264.424 268.013 264.188 267.913 263.908 267.913C263.628 267.913 263.393 268.013 263.201 268.214C263.015 268.41 262.921 268.692 262.921 269.061C262.921 269.43 263.012 269.714 263.194 269.915C263.381 270.111 263.614 270.209 263.894 270.209Z" fill="#333333"/>
<rect x="160.5" y="234.5" width="51" height="46" rx="3.5" fill="white" stroke="#DDEDFF"/>
<path d="M194 244V261.5M190 248.5V261.5M186 252V261.5M182 255V261.5M178 259.5V261.5" stroke="black" stroke-width="2" stroke-linecap="round"/>
<path d="M175.191 266.114C175.704 266.114 176.155 266.214 176.542 266.415C176.934 266.616 177.235 266.903 177.445 267.276C177.66 267.645 177.767 268.074 177.767 268.564C177.767 269.054 177.66 269.483 177.445 269.852C177.235 270.216 176.934 270.498 176.542 270.699C176.155 270.9 175.704 271 175.191 271H173.483V266.114H175.191ZM175.156 270.167C175.669 270.167 176.066 270.027 176.346 269.747C176.626 269.467 176.766 269.073 176.766 268.564C176.766 268.055 176.626 267.659 176.346 267.374C176.066 267.085 175.669 266.94 175.156 266.94H174.463V270.167H175.156ZM179.173 266.66C179 266.66 178.855 266.606 178.739 266.499C178.627 266.387 178.571 266.249 178.571 266.086C178.571 265.923 178.627 265.787 178.739 265.68C178.855 265.568 179 265.512 179.173 265.512C179.345 265.512 179.488 265.568 179.6 265.68C179.716 265.787 179.775 265.923 179.775 266.086C179.775 266.249 179.716 266.387 179.6 266.499C179.488 266.606 179.345 266.66 179.173 266.66ZM179.656 267.122V271H178.676V267.122H179.656ZM182.416 270.097L183.396 267.122H184.439L183.004 271H181.814L180.386 267.122H181.436L182.416 270.097ZM185.661 266.66C185.489 266.66 185.344 266.606 185.227 266.499C185.115 266.387 185.059 266.249 185.059 266.086C185.059 265.923 185.115 265.787 185.227 265.68C185.344 265.568 185.489 265.512 185.661 265.512C185.834 265.512 185.976 265.568 186.088 265.68C186.205 265.787 186.263 265.923 186.263 266.086C186.263 266.249 186.205 266.387 186.088 266.499C185.976 266.606 185.834 266.66 185.661 266.66ZM186.144 267.122V271H185.164V267.122H186.144ZM187.035 269.047C187.035 268.655 187.112 268.307 187.266 268.004C187.425 267.701 187.64 267.467 187.91 267.304C188.181 267.141 188.482 267.059 188.813 267.059C189.065 267.059 189.306 267.115 189.534 267.227C189.763 267.334 189.945 267.479 190.08 267.661V265.82H191.074V271H190.08V270.426C189.959 270.617 189.789 270.771 189.569 270.888C189.35 271.005 189.096 271.063 188.806 271.063C188.48 271.063 188.181 270.979 187.91 270.811C187.64 270.643 187.425 270.407 187.266 270.104C187.112 269.796 187.035 269.444 187.035 269.047ZM190.087 269.061C190.087 268.823 190.041 268.62 189.947 268.452C189.854 268.279 189.728 268.149 189.569 268.06C189.411 267.967 189.24 267.92 189.058 267.92C188.876 267.92 188.708 267.964 188.554 268.053C188.4 268.142 188.274 268.272 188.176 268.445C188.083 268.613 188.036 268.814 188.036 269.047C188.036 269.28 188.083 269.486 188.176 269.663C188.274 269.836 188.4 269.969 188.554 270.062C188.713 270.155 188.881 270.202 189.058 270.202C189.24 270.202 189.411 270.158 189.569 270.069C189.728 269.976 189.854 269.845 189.947 269.677C190.041 269.504 190.087 269.299 190.087 269.061ZM195.812 268.977C195.812 269.117 195.802 269.243 195.784 269.355H192.949C192.972 269.635 193.07 269.854 193.243 270.013C193.415 270.172 193.628 270.251 193.88 270.251C194.244 270.251 194.503 270.095 194.657 269.782H195.714C195.602 270.155 195.387 270.463 195.07 270.706C194.752 270.944 194.363 271.063 193.901 271.063C193.527 271.063 193.191 270.981 192.893 270.818C192.599 270.65 192.368 270.414 192.2 270.111C192.036 269.808 191.955 269.458 191.955 269.061C191.955 268.66 192.036 268.307 192.2 268.004C192.363 267.701 192.592 267.467 192.886 267.304C193.18 267.141 193.518 267.059 193.901 267.059C194.269 267.059 194.598 267.138 194.888 267.297C195.182 267.456 195.408 267.682 195.567 267.976C195.73 268.265 195.812 268.599 195.812 268.977ZM194.797 268.697C194.792 268.445 194.701 268.244 194.524 268.095C194.346 267.941 194.129 267.864 193.873 267.864C193.63 267.864 193.425 267.939 193.257 268.088C193.093 268.233 192.993 268.436 192.956 268.697H194.797ZM197.682 267.724C197.808 267.519 197.971 267.358 198.172 267.241C198.377 267.124 198.611 267.066 198.872 267.066V268.095H198.613C198.305 268.095 198.072 268.167 197.913 268.312C197.759 268.457 197.682 268.709 197.682 269.068V271H196.702V267.122H197.682V267.724Z" fill="black"/>
<rect x="160.5" y="302.5" width="51" height="46" rx="3.5" fill="white" stroke="#DDEDFF"/>
<path d="M168.245 338.55C168.245 338.069 168.352 337.64 168.567 337.262C168.786 336.879 169.083 336.583 169.456 336.373C169.834 336.158 170.256 336.051 170.723 336.051C171.269 336.051 171.747 336.191 172.158 336.471C172.569 336.751 172.856 337.138 173.019 337.633H171.892C171.78 337.4 171.621 337.225 171.416 337.108C171.215 336.991 170.982 336.933 170.716 336.933C170.431 336.933 170.177 337.001 169.953 337.136C169.734 337.267 169.561 337.453 169.435 337.696C169.314 337.939 169.253 338.223 169.253 338.55C169.253 338.872 169.314 339.157 169.435 339.404C169.561 339.647 169.734 339.836 169.953 339.971C170.177 340.102 170.431 340.167 170.716 340.167C170.982 340.167 171.215 340.109 171.416 339.992C171.621 339.871 171.78 339.693 171.892 339.46H173.019C172.856 339.959 172.569 340.349 172.158 340.629C171.752 340.904 171.274 341.042 170.723 341.042C170.256 341.042 169.834 340.937 169.456 340.727C169.083 340.512 168.786 340.216 168.567 339.838C168.352 339.46 168.245 339.031 168.245 338.55ZM173.779 339.047C173.779 338.655 173.856 338.307 174.01 338.004C174.169 337.701 174.381 337.467 174.647 337.304C174.918 337.141 175.219 337.059 175.55 337.059C175.839 337.059 176.091 337.117 176.306 337.234C176.525 337.351 176.7 337.498 176.831 337.675V337.122H177.818V341H176.831V340.433C176.705 340.615 176.53 340.767 176.306 340.888C176.087 341.005 175.832 341.063 175.543 341.063C175.216 341.063 174.918 340.979 174.647 340.811C174.381 340.643 174.169 340.407 174.01 340.104C173.856 339.796 173.779 339.444 173.779 339.047ZM176.831 339.061C176.831 338.823 176.784 338.62 176.691 338.452C176.598 338.279 176.472 338.149 176.313 338.06C176.154 337.967 175.984 337.92 175.802 337.92C175.62 337.92 175.452 337.964 175.298 338.053C175.144 338.142 175.018 338.272 174.92 338.445C174.827 338.613 174.78 338.814 174.78 339.047C174.78 339.28 174.827 339.486 174.92 339.663C175.018 339.836 175.144 339.969 175.298 340.062C175.457 340.155 175.625 340.202 175.802 340.202C175.984 340.202 176.154 340.158 176.313 340.069C176.472 339.976 176.598 339.845 176.691 339.677C176.784 339.504 176.831 339.299 176.831 339.061ZM179.93 335.82V341H178.95V335.82H179.93ZM184.678 338.977C184.678 339.117 184.669 339.243 184.65 339.355H181.815C181.839 339.635 181.937 339.854 182.109 340.013C182.282 340.172 182.494 340.251 182.746 340.251C183.11 340.251 183.369 340.095 183.523 339.782H184.58C184.468 340.155 184.254 340.463 183.936 340.706C183.619 340.944 183.229 341.063 182.767 341.063C182.394 341.063 182.058 340.981 181.759 340.818C181.465 340.65 181.234 340.414 181.066 340.111C180.903 339.808 180.821 339.458 180.821 339.061C180.821 338.66 180.903 338.307 181.066 338.004C181.23 337.701 181.458 337.467 181.752 337.304C182.046 337.141 182.385 337.059 182.767 337.059C183.136 337.059 183.465 337.138 183.754 337.297C184.048 337.456 184.275 337.682 184.433 337.976C184.597 338.265 184.678 338.599 184.678 338.977ZM183.663 338.697C183.659 338.445 183.568 338.244 183.39 338.095C183.213 337.941 182.996 337.864 182.739 337.864C182.497 337.864 182.291 337.939 182.123 338.088C181.96 338.233 181.86 338.436 181.822 338.697H183.663ZM187.718 337.066C188.18 337.066 188.553 337.213 188.838 337.507C189.122 337.796 189.265 338.202 189.265 338.725V341H188.285V338.858C188.285 338.55 188.208 338.314 188.054 338.151C187.9 337.983 187.69 337.899 187.424 337.899C187.153 337.899 186.938 337.983 186.78 338.151C186.626 338.314 186.549 338.55 186.549 338.858V341H185.569V337.122H186.549V337.605C186.679 337.437 186.845 337.306 187.046 337.213C187.251 337.115 187.475 337.066 187.718 337.066ZM190.12 339.047C190.12 338.655 190.197 338.307 190.351 338.004C190.509 337.701 190.724 337.467 190.995 337.304C191.265 337.141 191.566 337.059 191.898 337.059C192.15 337.059 192.39 337.115 192.619 337.227C192.847 337.334 193.029 337.479 193.165 337.661V335.82H194.159V341H193.165V340.426C193.043 340.617 192.873 340.771 192.654 340.888C192.434 341.005 192.18 341.063 191.891 341.063C191.564 341.063 191.265 340.979 190.995 340.811C190.724 340.643 190.509 340.407 190.351 340.104C190.197 339.796 190.12 339.444 190.12 339.047ZM193.172 339.061C193.172 338.823 193.125 338.62 193.032 338.452C192.938 338.279 192.812 338.149 192.654 338.06C192.495 337.967 192.325 337.92 192.143 337.92C191.961 337.92 191.793 337.964 191.639 338.053C191.485 338.142 191.359 338.272 191.261 338.445C191.167 338.613 191.121 338.814 191.121 339.047C191.121 339.28 191.167 339.486 191.261 339.663C191.359 339.836 191.485 339.969 191.639 340.062C191.797 340.155 191.965 340.202 192.143 340.202C192.325 340.202 192.495 340.158 192.654 340.069C192.812 339.976 192.938 339.845 193.032 339.677C193.125 339.504 193.172 339.299 193.172 339.061ZM195.039 339.047C195.039 338.655 195.116 338.307 195.27 338.004C195.428 337.701 195.641 337.467 195.907 337.304C196.177 337.141 196.478 337.059 196.81 337.059C197.099 337.059 197.351 337.117 197.566 337.234C197.785 337.351 197.96 337.498 198.091 337.675V337.122H199.078V341H198.091V340.433C197.965 340.615 197.79 340.767 197.566 340.888C197.346 341.005 197.092 341.063 196.803 341.063C196.476 341.063 196.177 340.979 195.907 340.811C195.641 340.643 195.428 340.407 195.27 340.104C195.116 339.796 195.039 339.444 195.039 339.047ZM198.091 339.061C198.091 338.823 198.044 338.62 197.951 338.452C197.857 338.279 197.731 338.149 197.573 338.06C197.414 337.967 197.244 337.92 197.062 337.92C196.88 337.92 196.712 337.964 196.558 338.053C196.404 338.142 196.278 338.272 196.18 338.445C196.086 338.613 196.04 338.814 196.04 339.047C196.04 339.28 196.086 339.486 196.18 339.663C196.278 339.836 196.404 339.969 196.558 340.062C196.716 340.155 196.884 340.202 197.062 340.202C197.244 340.202 197.414 340.158 197.573 340.069C197.731 339.976 197.857 339.845 197.951 339.677C198.044 339.504 198.091 339.299 198.091 339.061ZM201.19 337.724C201.316 337.519 201.479 337.358 201.68 337.241C201.885 337.124 202.119 337.066 202.38 337.066V338.095H202.121C201.813 338.095 201.58 338.167 201.421 338.312C201.267 338.457 201.19 338.709 201.19 339.068V341H200.21V337.122H201.19V337.724Z" fill="#333333"/>
<path d="M192 313H180C178.895 313 178 313.895 178 315V327C178 328.105 178.895 329 180 329H192C193.105 329 194 328.105 194 327V315C194 313.895 193.105 313 192 313Z" stroke="black" stroke-width="1.5" stroke-linecap="round" stroke-linejoin="round"/>
<path d="M190 311V315" stroke="black" stroke-width="1.5" stroke-linecap="round" stroke-linejoin="round"/>
<path d="M182 311V315" stroke="black" stroke-width="1.5" stroke-linecap="round" stroke-linejoin="round"/>
<path d="M178 319H194" stroke="black" stroke-width="1.5" stroke-linecap="round" stroke-linejoin="round"/>
<rect x="230.5" y="302.5" width="51" height="46" rx="3.5" fill="white" stroke="#DDEDFF"/>
<path d="M244.255 338.494C244.53 338.545 244.757 338.683 244.934 338.907C245.111 339.131 245.2 339.388 245.2 339.677C245.2 339.938 245.135 340.169 245.004 340.37C244.878 340.566 244.694 340.72 244.451 340.832C244.208 340.944 243.921 341 243.59 341H241.483V336.114H243.499C243.83 336.114 244.115 336.168 244.353 336.275C244.596 336.382 244.778 336.532 244.899 336.723C245.025 336.914 245.088 337.131 245.088 337.374C245.088 337.659 245.011 337.897 244.857 338.088C244.708 338.279 244.507 338.415 244.255 338.494ZM242.463 338.13H243.359C243.592 338.13 243.772 338.079 243.898 337.976C244.024 337.869 244.087 337.717 244.087 337.521C244.087 337.325 244.024 337.173 243.898 337.066C243.772 336.959 243.592 336.905 243.359 336.905H242.463V338.13ZM243.45 340.202C243.688 340.202 243.872 340.146 244.003 340.034C244.138 339.922 244.206 339.763 244.206 339.558C244.206 339.348 244.136 339.185 243.996 339.068C243.856 338.947 243.667 338.886 243.429 338.886H242.463V340.202H243.45ZM249.817 337.122V341H248.83V340.51C248.704 340.678 248.538 340.811 248.333 340.909C248.132 341.002 247.913 341.049 247.675 341.049C247.372 341.049 247.103 340.986 246.87 340.86C246.637 340.729 246.452 340.54 246.317 340.293C246.186 340.041 246.121 339.742 246.121 339.397V337.122H247.101V339.257C247.101 339.565 247.178 339.803 247.332 339.971C247.486 340.134 247.696 340.216 247.962 340.216C248.233 340.216 248.445 340.134 248.599 339.971C248.753 339.803 248.83 339.565 248.83 339.257V337.122H249.817ZM252.1 337.927V339.803C252.1 339.934 252.13 340.029 252.191 340.09C252.256 340.146 252.364 340.174 252.513 340.174H252.968V341H252.352C251.526 341 251.113 340.599 251.113 339.796V337.927H250.651V337.122H251.113V336.163H252.1V337.122H252.968V337.927H252.1ZM254.989 337.927V339.803C254.989 339.934 255.019 340.029 255.08 340.09C255.145 340.146 255.253 340.174 255.402 340.174H255.857V341H255.241C254.415 341 254.002 340.599 254.002 339.796V337.927H253.54V337.122H254.002V336.163H254.989V337.122H255.857V337.927H254.989ZM258.459 341.063C258.085 341.063 257.749 340.981 257.451 340.818C257.152 340.65 256.916 340.414 256.744 340.111C256.576 339.808 256.492 339.458 256.492 339.061C256.492 338.664 256.578 338.314 256.751 338.011C256.928 337.708 257.168 337.474 257.472 337.311C257.775 337.143 258.113 337.059 258.487 337.059C258.86 337.059 259.198 337.143 259.502 337.311C259.805 337.474 260.043 337.708 260.216 338.011C260.393 338.314 260.482 338.664 260.482 339.061C260.482 339.458 260.391 339.808 260.209 340.111C260.031 340.414 259.789 340.65 259.481 340.818C259.177 340.981 258.837 341.063 258.459 341.063ZM258.459 340.209C258.636 340.209 258.802 340.167 258.956 340.083C259.114 339.994 259.24 339.864 259.334 339.691C259.427 339.518 259.474 339.308 259.474 339.061C259.474 338.692 259.376 338.41 259.18 338.214C258.988 338.013 258.753 337.913 258.473 337.913C258.193 337.913 257.957 338.013 257.766 338.214C257.579 338.41 257.486 338.692 257.486 339.061C257.486 339.43 257.577 339.714 257.759 339.915C257.945 340.111 258.179 340.209 258.459 340.209ZM263.525 337.066C263.987 337.066 264.36 337.213 264.645 337.507C264.929 337.796 265.072 338.202 265.072 338.725V341H264.092V338.858C264.092 338.55 264.015 338.314 263.861 338.151C263.707 337.983 263.497 337.899 263.231 337.899C262.96 337.899 262.745 337.983 262.587 338.151C262.433 338.314 262.356 338.55 262.356 338.858V341H261.376V337.122H262.356V337.605C262.486 337.437 262.652 337.306 262.853 337.213C263.058 337.115 263.282 337.066 263.525 337.066ZM267.663 341.063C267.345 341.063 267.061 341.007 266.809 340.895C266.557 340.778 266.356 340.622 266.207 340.426C266.062 340.23 265.983 340.013 265.969 339.775H266.956C266.974 339.924 267.047 340.048 267.173 340.146C267.303 340.244 267.464 340.293 267.656 340.293C267.842 340.293 267.987 340.256 268.09 340.181C268.197 340.106 268.251 340.011 268.251 339.894C268.251 339.768 268.185 339.675 268.055 339.614C267.929 339.549 267.726 339.479 267.446 339.404C267.156 339.334 266.918 339.262 266.732 339.187C266.55 339.112 266.391 338.998 266.256 338.844C266.125 338.69 266.06 338.482 266.06 338.221C266.06 338.006 266.12 337.81 266.242 337.633C266.368 337.456 266.545 337.316 266.774 337.213C267.007 337.11 267.28 337.059 267.593 337.059C268.055 337.059 268.423 337.176 268.699 337.409C268.974 337.638 269.126 337.948 269.154 338.34H268.216C268.202 338.186 268.136 338.065 268.02 337.976C267.908 337.883 267.756 337.836 267.565 337.836C267.387 337.836 267.25 337.869 267.152 337.934C267.058 337.999 267.012 338.09 267.012 338.207C267.012 338.338 267.077 338.438 267.208 338.508C267.338 338.573 267.541 338.641 267.817 338.711C268.097 338.781 268.328 338.853 268.51 338.928C268.692 339.003 268.848 339.119 268.979 339.278C269.114 339.432 269.184 339.637 269.189 339.894C269.189 340.118 269.126 340.319 269 340.496C268.878 340.673 268.701 340.813 268.468 340.916C268.239 341.014 267.971 341.063 267.663 341.063Z" fill="#333333"/>
<path d="M248 317H252V321H248V317Z" fill="#333333"/>
<path d="M254 317H258V321H254V317Z" fill="#333333"/>
<path d="M260 317H264V321H260V317Z" fill="#333333"/>
<path d="M260 324H264V328H260V324Z" fill="#333333"/>
<path d="M254 324H258V328H254V324Z" fill="#333333"/>
<path d="M248 324H252V328H248V324Z" fill="#333333"/>
<path d="M333.5 179.8C333.5 180.076 333.724 180.3 334 180.3V182.9C333.724 182.9 333.5 183.124 333.5 183.4V187C333.5 187.276 333.724 187.5 334 187.5V190.1C333.724 190.1 333.5 190.324 333.5 190.6V194.2C333.5 194.476 333.724 194.7 334 194.7V197.3C333.724 197.3 333.5 197.524 333.5 197.8V201.4C333.5 201.676 333.724 201.9 334 201.9V204.5C333.724 204.5 333.5 204.724 333.5 205V208.6C333.5 208.876 333.724 209.1 334 209.1V211.7C333.724 211.7 333.5 211.924 333.5 212.2V214V214.5H334H335.975C336.251 214.5 336.475 214.276 336.475 214H339.425C339.425 214.276 339.649 214.5 339.925 214.5H343.875C344.151 214.5 344.375 214.276 344.375 214H347.325C347.325 214.276 347.549 214.5 347.825 214.5H351.775C352.051 214.5 352.275 214.276 352.275 214H355.225C355.225 214.276 355.449 214.5 355.725 214.5H359.675C359.951 214.5 360.175 214.276 360.175 214H363.125C363.125 214.276 363.349 214.5 363.625 214.5H367.575C367.851 214.5 368.075 214.276 368.075 214H371.025C371.025 214.276 371.249 214.5 371.525 214.5H375.475C375.751 214.5 375.975 214.276 375.975 214H378.925C378.925 214.276 379.149 214.5 379.425 214.5H383.375C383.651 214.5 383.875 214.276 383.875 214H386.825C386.825 214.276 387.049 214.5 387.325 214.5H391.275C391.551 214.5 391.775 214.276 391.775 214H394.725C394.725 214.276 394.949 214.5 395.225 214.5H399.175C399.451 214.5 399.675 214.276 399.675 214H402.625C402.625 214.276 402.849 214.5 403.125 214.5H407.075C407.351 214.5 407.575 214.276 407.575 214H410.525C410.525 214.276 410.749 214.5 411.025 214.5H414.975C415.251 214.5 415.475 214.276 415.475 214H418.425C418.425 214.276 418.649 214.5 418.925 214.5H422.875C423.151 214.5 423.375 214.276 423.375 214H426.325C426.325 214.276 426.549 214.5 426.825 214.5H430.775C431.051 214.5 431.275 214.276 431.275 214H434.225C434.225 214.276 434.449 214.5 434.725 214.5H438.675C438.951 214.5 439.175 214.276 439.175 214H442.125C442.125 214.276 442.349 214.5 442.625 214.5H446.575C446.851 214.5 447.075 214.276 447.075 214H450.025C450.025 214.276 450.249 214.5 450.525 214.5H454.475C454.751 214.5 454.975 214.276 454.975 214H457.925C457.925 214.276 458.149 214.5 458.425 214.5H462.375C462.651 214.5 462.875 214.276 462.875 214H465.825C465.825 214.276 466.049 214.5 466.325 214.5H470.275C470.551 214.5 470.775 214.276 470.775 214H473.725C473.725 214.276 473.949 214.5 474.225 214.5H478.175C478.451 214.5 478.675 214.276 478.675 214H481.625C481.625 214.276 481.849 214.5 482.125 214.5H486.075C486.351 214.5 486.575 214.276 486.575 214H489.525C489.525 214.276 489.749 214.5 490.025 214.5H493.975C494.251 214.5 494.475 214.276 494.475 214H497.425C497.425 214.276 497.649 214.5 497.925 214.5H501.875C502.151 214.5 502.375 214.276 502.375 214H505.325C505.325 214.276 505.549 214.5 505.825 214.5H509.775C510.051 214.5 510.275 214.276 510.275 214H513.225C513.225 214.276 513.449 214.5 513.725 214.5H517.675C517.951 214.5 518.175 214.276 518.175 214H521.125C521.125 214.276 521.349 214.5 521.625 214.5H525.575C525.851 214.5 526.075 214.276 526.075 214H529.025C529.025 214.276 529.249 214.5 529.525 214.5H533.475C533.751 214.5 533.975 214.276 533.975 214H536.925C536.925 214.276 537.149 214.5 537.425 214.5H541.375C541.651 214.5 541.875 214.276 541.875 214H544.825C544.825 214.276 545.049 214.5 545.325 214.5H549.275C549.551 214.5 549.775 214.276 549.775 214H552.725C552.725 214.276 552.949 214.5 553.225 214.5H557.175C557.451 214.5 557.675 214.276 557.675 214H560.625C560.625 214.276 560.849 214.5 561.125 214.5H565.075C565.351 214.5 565.575 214.276 565.575 214H568.525C568.525 214.276 568.749 214.5 569.025 214.5H571H571.5V214V212.2C571.5 211.924 571.276 211.7 571 211.7V209.1C571.276 209.1 571.5 208.876 571.5 208.6V205C571.5 204.724 571.276 204.5 571 204.5V201.9C571.276 201.9 571.5 201.676 571.5 201.4V197.8C571.5 197.524 571.276 197.3 571 197.3V194.7C571.276 194.7 571.5 194.476 571.5 194.2V190.6C571.5 190.324 571.276 190.1 571 190.1V187.5C571.276 187.5 571.5 187.276 571.5 187V183.4C571.5 183.124 571.276 182.9 571 182.9V180.3C571.276 180.3 571.5 180.076 571.5 179.8V178V177.5H571H569.025C568.749 177.5 568.525 177.724 568.525 178H565.575C565.575 177.724 565.351 177.5 565.075 177.5H561.125C560.849 177.5 560.625 177.724 560.625 178H557.675C557.675 177.724 557.451 177.5 557.175 177.5H553.225C552.949 177.5 552.725 177.724 552.725 178H549.775C549.775 177.724 549.551 177.5 549.275 177.5H545.325C545.049 177.5 544.825 177.724 544.825 178H541.875C541.875 177.724 541.651 177.5 541.375 177.5H537.425C537.149 177.5 536.925 177.724 536.925 178H533.975C533.975 177.724 533.751 177.5 533.475 177.5H529.525C529.249 177.5 529.025 177.724 529.025 178H526.075C526.075 177.724 525.851 177.5 525.575 177.5H521.625C521.349 177.5 521.125 177.724 521.125 178H518.175C518.175 177.724 517.951 177.5 517.675 177.5H513.725C513.449 177.5 513.225 177.724 513.225 178H510.275C510.275 177.724 510.051 177.5 509.775 177.5H505.825C505.549 177.5 505.325 177.724 505.325 178H502.375C502.375 177.724 502.151 177.5 501.875 177.5H497.925C497.649 177.5 497.425 177.724 497.425 178H494.475C494.475 177.724 494.251 177.5 493.975 177.5H490.025C489.749 177.5 489.525 177.724 489.525 178H486.575C486.575 177.724 486.351 177.5 486.075 177.5H482.125C481.849 177.5 481.625 177.724 481.625 178H478.675C478.675 177.724 478.451 177.5 478.175 177.5H474.225C473.949 177.5 473.725 177.724 473.725 178H470.775C470.775 177.724 470.551 177.5 470.275 177.5H466.325C466.049 177.5 465.825 177.724 465.825 178H462.875C462.875 177.724 462.651 177.5 462.375 177.5H458.425C458.149 177.5 457.925 177.724 457.925 178H454.975C454.975 177.724 454.751 177.5 454.475 177.5H450.525C450.249 177.5 450.025 177.724 450.025 178H447.075C447.075 177.724 446.851 177.5 446.575 177.5H442.625C442.349 177.5 442.125 177.724 442.125 178H439.175C439.175 177.724 438.951 177.5 438.675 177.5H434.725C434.449 177.5 434.225 177.724 434.225 178H431.275C431.275 177.724 431.051 177.5 430.775 177.5H426.825C426.549 177.5 426.325 177.724 426.325 178H423.375C423.375 177.724 423.151 177.5 422.875 177.5H418.925C418.649 177.5 418.425 177.724 418.425 178H415.475C415.475 177.724 415.251 177.5 414.975 177.5H411.025C410.749 177.5 410.525 177.724 410.525 178H407.575C407.575 177.724 407.351 177.5 407.075 177.5H403.125C402.849 177.5 402.625 177.724 402.625 178H399.675C399.675 177.724 399.451 177.5 399.175 177.5H395.225C394.949 177.5 394.725 177.724 394.725 178H391.775C391.775 177.724 391.551 177.5 391.275 177.5H387.325C387.049 177.5 386.825 177.724 386.825 178H383.875C383.875 177.724 383.651 177.5 383.375 177.5H379.425C379.149 177.5 378.925 177.724 378.925 178H375.975C375.975 177.724 375.751 177.5 375.475 177.5H371.525C371.249 177.5 371.025 177.724 371.025 178H368.075C368.075 177.724 367.851 177.5 367.575 177.5H363.625C363.349 177.5 363.125 177.724 363.125 178H360.175C360.175 177.724 359.951 177.5 359.675 177.5H355.725C355.449 177.5 355.225 177.724 355.225 178H352.275C352.275 177.724 352.051 177.5 351.775 177.5H347.825C347.549 177.5 347.325 177.724 347.325 178H344.375C344.375 177.724 344.151 177.5 343.875 177.5H339.925C339.649 177.5 339.425 177.724 339.425 178H336.475C336.475 177.724 336.251 177.5 335.975 177.5H334H333.5V178V179.8Z" fill="white" stroke="#D4E6FC" stroke-linecap="round" stroke-dasharray="4 4"/>
<path d="M369.892 200.444H364.654L363.754 203H361.612L366.094 190.472H368.47L372.952 203H370.792L369.892 200.444ZM369.316 198.77L367.282 192.956L365.23 198.77H369.316ZM392.483 192.92C393.263 192.92 393.959 193.082 394.571 193.406C395.195 193.73 395.681 194.21 396.029 194.846C396.389 195.482 396.569 196.25 396.569 197.15V203H394.535V197.456C394.535 196.568 394.313 195.89 393.869 195.422C393.425 194.942 392.819 194.702 392.051 194.702C391.283 194.702 390.671 194.942 390.215 195.422C389.771 195.89 389.549 196.568 389.549 197.456V203H387.515V197.456C387.515 196.568 387.293 195.89 386.849 195.422C386.405 194.942 385.799 194.702 385.031 194.702C384.263 194.702 383.651 194.942 383.195 195.422C382.751 195.89 382.529 196.568 382.529 197.456V203H380.477V193.082H382.529V194.216C382.865 193.808 383.291 193.49 383.807 193.262C384.323 193.034 384.875 192.92 385.463 192.92C386.255 192.92 386.963 193.088 387.587 193.424C388.211 193.76 388.691 194.246 389.027 194.882C389.327 194.282 389.795 193.808 390.431 193.46C391.067 193.1 391.751 192.92 392.483 192.92ZM398.946 197.996C398.946 197 399.15 196.118 399.558 195.35C399.978 194.582 400.542 193.988 401.25 193.568C401.97 193.136 402.762 192.92 403.626 192.92C404.406 192.92 405.084 193.076 405.66 193.388C406.248 193.688 406.716 194.066 407.064 194.522V193.082H409.134V203H407.064V201.524C406.716 201.992 406.242 202.382 405.642 202.694C405.042 203.006 404.358 203.162 403.59 203.162C402.738 203.162 401.958 202.946 401.25 202.514C400.542 202.07 399.978 201.458 399.558 200.678C399.15 199.886 398.946 198.992 398.946 197.996ZM407.064 198.032C407.064 197.348 406.92 196.754 406.632 196.25C406.356 195.746 405.99 195.362 405.534 195.098C405.078 194.834 404.586 194.702 404.058 194.702C403.53 194.702 403.038 194.834 402.582 195.098C402.126 195.35 401.754 195.728 401.466 196.232C401.19 196.724 401.052 197.312 401.052 197.996C401.052 198.68 401.19 199.28 401.466 199.796C401.754 200.312 402.126 200.708 402.582 200.984C403.05 201.248 403.542 201.38 404.058 201.38C404.586 201.38 405.078 201.248 405.534 200.984C405.99 200.72 406.356 200.336 406.632 199.832C406.92 199.316 407.064 198.716 407.064 198.032ZM414.673 194.756V200.246C414.673 200.618 414.757 200.888 414.925 201.056C415.105 201.212 415.405 201.29 415.825 201.29H417.085V203H415.465C414.541 203 413.833 202.784 413.341 202.352C412.849 201.92 412.603 201.218 412.603 200.246V194.756H411.433V193.082H412.603V190.616H414.673V193.082H417.085V194.756H414.673ZM424.556 192.92C425.312 192.92 425.984 193.082 426.572 193.406C427.172 193.73 427.64 194.21 427.976 194.846C428.324 195.482 428.498 196.25 428.498 197.15V203H426.464V197.456C426.464 196.568 426.242 195.89 425.798 195.422C425.354 194.942 424.748 194.702 423.98 194.702C423.212 194.702 422.6 194.942 422.144 195.422C421.7 195.89 421.478 196.568 421.478 197.456V203H419.426V189.68H421.478V194.234C421.826 193.814 422.264 193.49 422.792 193.262C423.332 193.034 423.92 192.92 424.556 192.92ZM439.085 194.756V200.246C439.085 200.618 439.169 200.888 439.337 201.056C439.517 201.212 439.817 201.29 440.237 201.29H441.497V203H439.877C438.953 203 438.245 202.784 437.753 202.352C437.261 201.92 437.015 201.218 437.015 200.246V194.756H435.845V193.082H437.015V190.616H439.085V193.082H441.497V194.756H439.085ZM452.821 193.082V203H450.769V201.83C450.445 202.238 450.019 202.562 449.491 202.802C448.975 203.03 448.423 203.144 447.835 203.144C447.055 203.144 446.353 202.982 445.729 202.658C445.117 202.334 444.631 201.854 444.271 201.218C443.923 200.582 443.749 199.814 443.749 198.914V193.082H445.783V198.608C445.783 199.496 446.005 200.18 446.449 200.66C446.893 201.128 447.499 201.362 448.267 201.362C449.035 201.362 449.641 201.128 450.085 200.66C450.541 200.18 450.769 199.496 450.769 198.608V193.082H452.821ZM458.372 194.756V200.246C458.372 200.618 458.456 200.888 458.624 201.056C458.804 201.212 459.104 201.29 459.524 201.29H460.784V203H459.164C458.24 203 457.532 202.784 457.04 202.352C456.548 201.92 456.302 201.218 456.302 200.246V194.756H455.132V193.082H456.302V190.616H458.372V193.082H460.784V194.756H458.372ZM467.427 203.162C466.491 203.162 465.645 202.952 464.889 202.532C464.133 202.1 463.539 201.5 463.107 200.732C462.675 199.952 462.459 199.052 462.459 198.032C462.459 197.024 462.681 196.13 463.125 195.35C463.569 194.57 464.175 193.97 464.943 193.55C465.711 193.13 466.569 192.92 467.517 192.92C468.465 192.92 469.323 193.13 470.091 193.55C470.859 193.97 471.465 194.57 471.909 195.35C472.353 196.13 472.575 197.024 472.575 198.032C472.575 199.04 472.347 199.934 471.891 200.714C471.435 201.494 470.811 202.1 470.019 202.532C469.239 202.952 468.375 203.162 467.427 203.162ZM467.427 201.38C467.955 201.38 468.447 201.254 468.903 201.002C469.371 200.75 469.749 200.372 470.037 199.868C470.325 199.364 470.469 198.752 470.469 198.032C470.469 197.312 470.331 196.706 470.055 196.214C469.779 195.71 469.413 195.332 468.957 195.08C468.501 194.828 468.009 194.702 467.481 194.702C466.953 194.702 466.461 194.828 466.005 195.08C465.561 195.332 465.207 195.71 464.943 196.214C464.679 196.706 464.547 197.312 464.547 198.032C464.547 199.1 464.817 199.928 465.357 200.516C465.909 201.092 466.599 201.38 467.427 201.38ZM477.106 194.522C477.406 194.018 477.802 193.628 478.294 193.352C478.798 193.064 479.392 192.92 480.076 192.92V195.044H479.554C478.75 195.044 478.138 195.248 477.718 195.656C477.31 196.064 477.106 196.772 477.106 197.78V203H475.054V193.082H477.106V194.522Z" fill="black"/>
<path d="M384.5 238V375H530.5V238H384.5Z" fill="white"/>
<path d="M384.5 375V238H530.5V375" stroke="#D4E6FC" stroke-dasharray="4 4"/>
<path d="M338 328.92V237H447.5V328.92H338Z" fill="#E9E8E8"/>
<path d="M327 321.92V230H436.5V321.92H327Z" fill="white"/>
<path d="M436.5 315.499C421.5 287.499 410.5 289.5 404.5 300L421 321.999H436.5V315.499Z" fill="#E3F1FD"/>
<path d="M326 321.922C340.8 301.522 359.5 285.922 367 280.922C382.225 270.773 409.509 303.234 425.162 321.922H326Z" fill="#FCC5BE"/>
<circle cx="409.5" cy="250.5" r="11.5" fill="#FBD1AA"/>
<path d="M453 335.5L450.5 337L446.5 331.5L443.5 336.5L442.5 320.5L455 330.5H449.5L453 335.5Z" fill="#333333"/>
<path d="M16.2222 49.1101C17.2889 59.0657 15.1852 64.0237 14 65.2583C21.4667 65.6138 22.5432 58.9866 22.1481 55.6286L16.2222 49.1101Z" fill="#8FA9D9"/>
<path d="M35.9259 59.1842C35.1852 46.5917 36.5185 43.7769 38 43.036C30.7704 42.4434 29.7531 49.3076 30.1481 52.8138L35.9259 59.1842Z" fill="#8FA9D9"/>
<path d="M19.0391 46.5557L32.965 61.6668" stroke="#8FA9D9" stroke-width="5" stroke-linecap="round"/>
<path d="M83 110H29" stroke="#AAB4C7" stroke-width="6" stroke-linecap="round"/>
<circle cx="17.5" cy="110.5" r="4.5" fill="#2B4373"/>
<path d="M68.5 131.5H28M54 153H28" stroke="white" stroke-width="6" stroke-linecap="round"/>
<path d="M83 183H29" stroke="#AAB4C7" stroke-width="6" stroke-linecap="round"/>
<circle cx="17.5" cy="183.5" r="4.5" fill="#2B4373"/>
<path d="M68.5 204.5H28M54 226H28" stroke="white" stroke-width="6" stroke-linecap="round"/>
<path d="M83 256H29" stroke="#AAB4C7" stroke-width="6" stroke-linecap="round"/>
<circle cx="17.5" cy="256.5" r="4.5" fill="#2B4373"/>
<path d="M68.5 277.5H28M54 299H28" stroke="white" stroke-width="6" stroke-linecap="round"/>
<path d="M83 329H29" stroke="#AAB4C7" stroke-width="6" stroke-linecap="round"/>
<circle cx="17.5" cy="329.5" r="4.5" fill="#2B4373"/>
<path d="M68.5 350.5H28M54 372H28" stroke="white" stroke-width="6" stroke-linecap="round"/>
<path d="M653 29H0L0.228893 15.7242C0.379372 6.99645 7.49747 0 16.2265 0H637C645.837 0 653 7.16344 653 16V29Z" fill="#50A4E4"/>
<circle cx="19" cy="16" r="6" fill="white"/>
<circle cx="38" cy="16" r="6" fill="white"/>
<circle cx="57" cy="16" r="6" fill="white"/>
</svg>
