<svg
              xmlns="http://www.w3.org/2000/svg"
              width="32"
              height="33"
              viewBox="0 0 32 33"
              fill="none"
            >
              <g clip-path="url(#clip0_845_3101)">
                <path
                  d="M31.625 16.8906C31.625 8.26118 24.6294 1.26562 16 1.26562C7.37055 1.26562 0.375 8.26118 0.375 16.8906C0.375 25.5201 7.37055 32.5156 16 32.5156C24.6294 32.5156 31.625 25.5201 31.625 16.8906Z"
                  fill="url(#paint0_linear_845_3101)"
                />
                <path
                  d="M24 18.5306C24 19.5939 23.8933 20.7206 23.4167 21.6973C22.1533 24.2506 18.68 24.1906 16.1933 24.1906C13.6667 24.1906 9.98667 24.2806 8.67333 21.6973C8.18667 20.7306 8 19.5939 8 18.5306C8 17.1339 8.46333 15.8139 9.38333 14.7439C9.21 14.2173 9.12667 13.6639 9.12667 13.1173C9.12667 12.4006 9.29 12.0406 9.61333 11.3906C11.1233 11.3906 12.09 11.6906 13.24 12.5906C14.2067 12.3606 15.2 12.2573 16.1967 12.2573C17.0967 12.2573 18.0033 12.3539 18.8767 12.5639C20.01 11.6739 20.9767 11.3906 22.47 11.3906C22.7967 12.0406 22.9567 12.4006 22.9567 13.1173C22.9567 13.6639 22.87 14.2073 22.7 14.7239C23.6167 15.8039 24 17.1339 24 18.5306Z"
                  fill="url(#paint1_linear_845_3101)"
                />
                <path
                  fill-rule="evenodd"
                  clip-rule="evenodd"
                  d="M24.0889 22.0299L24.0907 22.0262C24.6433 20.8939 24.75 19.6284 24.75 18.5306C24.75 17.1261 24.3956 15.7393 23.5276 14.5617C23.6465 14.0905 23.7067 13.6049 23.7067 13.1173C23.7067 12.2241 23.4837 11.7374 23.1401 11.0538L22.9325 10.6406H22.47C21.6769 10.6406 20.9786 10.7156 20.3101 10.9291C19.7422 11.1105 19.2239 11.3829 18.7027 11.7567C17.8764 11.5858 17.0315 11.5073 16.1967 11.5073C15.2661 11.5073 14.3325 11.5929 13.4141 11.7836C12.8881 11.4056 12.3666 11.127 11.7945 10.9402C11.1213 10.7203 10.4176 10.6406 9.61333 10.6406H9.14874L8.94183 11.0566C8.60433 11.735 8.37667 12.2227 8.37667 13.1173C8.37667 13.6032 8.43446 14.0957 8.5549 14.577C7.68538 15.7277 7.25 17.0993 7.25 18.5306C7.25 19.6713 7.44874 20.9327 8.00343 22.0345L8.00477 22.0372C8.80809 23.6173 10.3174 24.3234 11.821 24.646C13.213 24.9447 14.7322 24.9425 15.9333 24.9408L16.1933 24.9406L16.3822 24.9407C17.5729 24.9416 19.0673 24.9428 20.4301 24.6327C21.8813 24.3026 23.3173 23.5893 24.0889 22.0299ZM22.9567 13.1173C22.9567 13.6639 22.87 14.2073 22.7 14.7239C23.6167 15.8039 24 17.1339 24 18.5306C24 19.5939 23.8933 20.7206 23.4167 21.6973C22.6901 23.1658 21.2325 23.7698 19.652 24.0181C19.967 23.9284 20.272 23.8151 20.5591 23.6725C21.1372 23.3853 21.6605 22.9706 22.0354 22.3788C22.4111 21.7858 22.6067 21.0639 22.6067 20.2138C22.6067 19.3369 22.3407 18.4714 21.7949 17.8107C21.2372 17.1355 20.4139 16.7104 19.4067 16.7104C18.8479 16.7104 18.2963 16.7919 17.7984 16.8654C17.6748 16.8837 17.5546 16.9014 17.4383 16.9173L17.4256 16.9192C16.9746 16.9888 16.5172 17.0171 16.0367 17.0171C15.5598 17.0171 15.102 16.9889 14.647 16.9191L14.6366 16.9176C14.5281 16.9025 14.4155 16.8857 14.2997 16.8685C13.7988 16.7941 13.2364 16.7104 12.6667 16.7104C11.6595 16.7104 10.8362 17.1355 10.2784 17.8107C9.73265 18.4714 9.46667 19.3369 9.46667 20.2138C9.46667 21.0635 9.66262 21.7849 10.0385 22.3777C10.4135 22.9691 10.9367 23.3838 11.5143 23.6711C11.7514 23.789 12.0007 23.887 12.2577 23.9681C10.7459 23.6917 9.37339 23.0743 8.67333 21.6973C8.18667 20.7306 8 19.5939 8 18.5306C8 17.1339 8.46333 15.8139 9.38333 14.7439C9.21 14.2173 9.12667 13.6639 9.12667 13.1173C9.12667 12.4006 9.29 12.0406 9.61333 11.3906C11.1233 11.3906 12.09 11.6906 13.24 12.5906C14.2067 12.3606 15.2 12.2573 16.1967 12.2573C17.0967 12.2573 18.0033 12.3539 18.8767 12.5639C20.01 11.6739 20.9767 11.3906 22.47 11.3906C22.7967 12.0406 22.9567 12.4006 22.9567 13.1173ZM17.9346 17.6037C17.8041 17.6229 17.6727 17.6423 17.54 17.6604C17.0433 17.7371 16.5467 17.7671 16.0367 17.7671C15.53 17.7671 15.0333 17.7371 14.5333 17.6604C14.4106 17.6434 14.2883 17.6253 14.1663 17.6072C13.6688 17.5335 13.1753 17.4604 12.6667 17.4604C11.1067 17.4604 10.2167 18.7504 10.2167 20.2138C10.2167 23.1404 12.8967 23.5904 15.23 23.5904H16.8367C19.18 23.5904 21.8567 23.1438 21.8567 20.2138C21.8567 18.7504 20.9667 17.4604 19.4067 17.4604C18.9087 17.4604 18.4272 17.5312 17.9346 17.6037Z"
                  fill="url(#paint2_linear_845_3101)"
                />
                <path
                  d="M12.9801 22.0503C13.8401 22.0503 14.2035 20.9103 14.2035 20.2137C14.2035 19.517 13.8401 18.377 12.9801 18.377C12.1201 18.377 11.7568 19.517 11.7568 20.2137C11.7568 20.9103 12.1201 22.0503 12.9801 22.0503Z"
                  fill="white"
                />
                <path
                  d="M17.8799 20.2137C17.8799 19.517 18.2432 18.377 19.1032 18.377C19.9632 18.377 20.3266 19.517 20.3266 20.2137C20.3266 20.9103 19.9632 22.0503 19.1032 22.0503C18.2432 22.0503 17.8799 20.9103 17.8799 20.2137Z"
                  fill="white"
                />
                <path
                  d="M31.625 16.8906C31.625 8.26118 24.6294 1.26562 16 1.26562C7.37055 1.26562 0.375 8.26118 0.375 16.8906C0.375 25.5201 7.37055 32.5156 16 32.5156C24.6294 32.5156 31.625 25.5201 31.625 16.8906Z"
                  stroke="url(#paint3_linear_845_3101)"
                  stroke-width="0.75"
                />
              </g>
              <defs>
                <linearGradient
                  id="paint0_linear_845_3101"
                  x1="31.7037"
                  y1="32.8906"
                  x2="-0.296307"
                  y2="0.890625"
                  gradientUnits="userSpaceOnUse"
                >
                  <stop stop-color="white" stop-opacity="0.15" />
                  <stop offset="1" stop-opacity="0" />
                </linearGradient>
                <linearGradient
                  id="paint1_linear_845_3101"
                  x1="34.2857"
                  y1="3.13324"
                  x2="13.9921"
                  y2="25.8704"
                  gradientUnits="userSpaceOnUse"
                >
                  <stop stop-color="white" stop-opacity="0" />
                  <stop offset="0.333333" stop-color="white" stop-opacity="0" />
                  <stop offset="0.666667" stop-color="white" stop-opacity="0" />
                  <stop offset="1" stop-color="white" stop-opacity="0.3" />
                </linearGradient>
                <linearGradient
                  id="paint2_linear_845_3101"
                  x1="25.0417"
                  y1="10.879"
                  x2="11.0278"
                  y2="28.0282"
                  gradientUnits="userSpaceOnUse"
                >
                  <stop stop-color="white" />
                  <stop offset="1" stop-color="white" stop-opacity="0.6" />
                </linearGradient>
                <linearGradient
                  id="paint3_linear_845_3101"
                  x1="31.7037"
                  y1="0.890625"
                  x2="16"
                  y2="32.8906"
                  gradientUnits="userSpaceOnUse"
                >
                  <stop stop-color="white" stop-opacity="0.3" />
                  <stop offset="1" stop-color="white" stop-opacity="0" />
                </linearGradient>
                <clipPath id="clip0_845_3101">
                  <rect
                    width="32"
                    height="32"
                    fill="white"
                    transform="translate(0 0.890625)"
                  />
                </clipPath>
              </defs>
            </svg>