<svg width="597" height="506" viewBox="0 0 597 506" fill="none" xmlns="http://www.w3.org/2000/svg">
<g clip-path="url(#clip0_1504_5)">
<path d="M575.427 413.695H21.4851C9.63843 413.695 0 404.057 0 392.21V325.539H596.912V392.21C596.912 404.057 587.274 413.695 575.427 413.695Z" fill="#E6E6E6"/>
<path d="M370.149 402.543H228.887V503.444H370.149V402.543Z" fill="#E6E6E6"/>
<path d="M378.647 490.699H220.391V503.445H378.647V490.699Z" fill="#E6E6E6"/>
<path d="M596.381 353.686H0V14.7442C0 6.6144 6.6144 0 14.7442 0H581.637C589.767 0 596.381 6.6144 596.381 14.7442V353.686Z" fill="#3F3D56"/>
<path d="M582.043 15.4004H13.8086V335.099H582.043V15.4004Z" fill="white"/>
<path d="M123.853 205.95C128.202 202.356 133.581 201.687 135.868 204.455C138.154 207.223 136.482 212.38 132.131 215.974C130.412 217.434 128.369 218.461 126.173 218.969L107.553 233.963L100.703 225.075L119.786 211.237C120.7 209.175 122.094 207.362 123.853 205.95Z" fill="#FFB6B6"/>
<path d="M16.2352 239.779C16.2257 239.116 16.2319 233.332 20.514 229.676C25.4329 225.476 32.3738 227.176 34.8083 227.772C40.4319 229.15 40.8931 231.562 46.1743 234.041C56.0548 238.678 43.6749 236.305 49.5541 234.817C51.5891 234.303 80.8662 232.272 88.1539 227.787C102.327 219.063 111.985 213.773 111.985 213.773L118.298 226.4C118.298 226.4 109.169 239.093 96.3209 248.497C83.1416 258.143 76.5519 262.966 66.5374 264.829C65.675 264.99 44.4652 268.611 27.3823 255.849C23.4858 252.937 16.3464 247.604 16.2352 239.779Z" fill="#F9A826"/>
<path d="M35.8169 207.667C47.9631 207.667 57.8095 197.821 57.8095 185.674C57.8095 173.528 47.9631 163.682 35.8169 163.682C23.6707 163.682 13.8242 173.528 13.8242 185.674C13.8242 197.821 23.6707 207.667 35.8169 207.667Z" fill="#FFB6B6"/>
<path d="M208.056 333.428L185.407 310.244L173.715 322.44L190.589 344.67L207.327 346.584L208.056 333.428Z" fill="#FFB6B6"/>
<path d="M78.7286 289.954C80.0534 290.064 84.2632 290.907 88.2871 288.693C91.0332 287.182 92.4416 284.936 92.9173 284.221C98.8187 275.358 121.47 261.537 141.798 260.686C146.402 260.494 149.432 261.027 152.186 262.463C156.091 264.499 157.651 267.415 162.606 274.246C165.317 277.982 168.317 281.503 171.06 285.215C187.122 306.952 193.211 308.658 192.589 315.626C191.898 323.358 183.56 330.693 178.018 329.847C175.748 329.5 174.869 327.922 171.837 324.727C162.946 315.359 159.267 317.09 152.937 309.915C145.547 301.538 146.514 294.592 142.658 294.323C139.082 294.075 137.563 300 129.929 307.872C126.436 311.473 123.949 313.126 116.371 318.383C86.86 338.856 86.389 340.295 80.4334 341.927C77.8277 342.642 59.3339 347.712 52.7458 339.643C42.4363 327.017 66.7917 288.962 78.7286 289.954Z" fill="#2F2E41"/>
<path d="M201.135 338.669C202.8 337.921 204.748 337.046 205.375 335.035C205.799 333.674 205.555 331.996 204.678 330.836C203.667 329.498 202.17 329.322 202.231 329.085C202.323 328.725 205.862 328.866 209.748 330.239C210.481 330.498 213.803 331.712 218.028 335.011C221.413 337.654 220.958 338.184 223.081 339.708C229.597 344.385 235.709 340.699 239.235 345.085C240.596 346.779 241.176 349.182 240.603 351.126C239.453 355.029 233.861 356.372 230.804 357.066C223.442 358.736 217.87 357.373 212.052 356.392C192.266 353.058 181.148 356.095 179.66 351.511C179.379 350.643 179.836 350.717 181.362 344.35C182.868 338.067 182.818 336.341 184.101 335.838C186.031 335.08 187.327 338.526 192.19 339.705C196.499 340.75 200.055 339.153 201.135 338.669Z" fill="#2F2E41"/>
<path d="M167.788 409.273L162.066 377.371L145.543 380.897L147.023 408.767L159.798 419.75L167.788 409.273Z" fill="#FFB6B6"/>
<path d="M85.1887 300.677C86.2231 301.512 89.2329 304.573 93.8057 305.001C96.9264 305.293 99.3532 304.225 100.148 303.901C110.008 299.881 136.512 301.164 153.81 311.875C157.728 314.301 159.936 316.444 161.408 319.179C163.497 323.056 163.149 326.344 163.414 334.78C163.559 339.394 164.064 343.991 164.249 348.604C165.334 375.609 169.414 380.44 164.986 385.857C160.073 391.866 149.055 393.254 144.944 389.441C143.261 387.879 143.42 386.08 142.705 381.734C140.608 368.99 136.593 368.356 135.384 358.864C133.973 347.783 138.673 342.578 135.634 340.191C132.815 337.977 128.23 342.027 117.493 344.254C112.58 345.273 109.594 345.243 100.371 345.338C64.4566 345.707 63.2589 346.633 57.4141 344.64C54.8569 343.768 36.707 337.578 35.7866 327.202C34.3463 310.965 75.8685 293.153 85.1887 300.677Z" fill="#2F2E41"/>
<path d="M159.116 409.722C160.914 410.038 163.017 410.408 164.665 409.096C165.78 408.208 166.52 406.682 166.446 405.231C166.36 403.556 165.221 402.569 165.404 402.407C165.683 402.161 168.532 404.265 170.976 407.583C171.437 408.21 173.504 411.079 175.148 416.181C176.465 420.269 175.791 420.452 176.691 422.905C179.457 430.435 186.584 430.816 187.038 436.426C187.214 438.591 186.344 440.906 184.779 442.193C181.635 444.777 176.253 442.748 173.335 441.605C166.306 438.853 162.461 434.596 158.197 430.518C143.697 416.648 132.792 412.918 134.135 408.289C134.389 407.413 134.727 407.731 139.564 403.32C144.339 398.966 145.267 397.51 146.61 397.814C148.633 398.271 147.771 401.85 151.133 405.556C154.112 408.841 157.95 409.516 159.116 409.722Z" fill="#2F2E41"/>
<path d="M38.8162 189.879C39.6724 186.816 38.597 185.7 39.6931 184.325C39.6931 184.325 40.1342 183.772 44.0775 182.279C42.914 175.529 43.7852 174.387 43.7852 174.387C44.7892 173.072 46.8004 172.754 48.1696 172.926C51.0654 173.29 51.578 175.907 53.4309 175.849C55.9905 175.768 59.0604 170.644 58.1075 166.203C57.3302 162.581 53.9787 159.89 53.1386 160.357C52.3056 160.82 49.3068 158.779 48.1696 159.188C47.3929 159.467 43.7372 159.096 42.9083 159.48C42.0031 159.9 39.4107 162.515 39.1628 162.186C37.4405 159.896 37.4771 159.097 36.4779 158.603C34.7072 157.729 32.7822 159.345 29.4629 160.942C22.6333 164.227 20.6335 162.267 17.4789 165.034C15.8853 166.431 15.0308 169.102 13.3868 174.387C11.0876 181.778 9.93805 185.473 11.0484 189.002C12.1808 192.6 13.8484 191.817 16.3097 196.894C19.0495 202.545 18.1052 205.83 20.6941 207.124C22.6949 208.124 25.9105 207.488 27.1245 205.663C29.2031 202.538 23.8306 198.311 25.6631 193.386C26.7879 190.363 30.2578 188.071 32.3858 188.71C34.7919 189.431 34.969 193.745 36.4779 193.679C37.77 193.621 38.667 190.412 38.8162 189.879Z" fill="#2F2E41"/>
<path d="M22.1543 210.925C26.6548 205.878 44.9863 211.101 46.7069 219.109C47.4146 222.402 44.802 223.793 45.5378 227.585C46.6138 233.132 52.7068 232.754 57.2295 238.4C63.6502 246.416 57.0355 254.252 64.2445 267.629C65.7849 270.488 67.0833 272.897 69.798 275.229C76.0276 280.58 81.8252 278.745 84.9973 283.705C87.3693 287.415 86.3947 291.988 86.1664 293.059C85.2303 297.451 82.693 298.521 80.9052 302.12C77.9306 308.108 81.2985 312.503 81.4897 319.657C81.729 328.608 76.9724 341.016 67.4597 345.087C56.7726 349.66 43.8831 342.086 37.6458 334.564C33.924 330.076 32.8436 325.937 31.2154 320.827C23.9385 297.989 19.8273 300.055 14.2624 281.952C7.90073 261.257 6.6501 237.011 14.2624 229.339C15.2714 228.322 18.0481 225.972 19.816 221.739C22.1949 216.044 20.1397 213.183 22.1543 210.925Z" fill="#F9A826"/>
<path d="M88.6528 328.39C92.1421 332.823 92.6829 338.217 89.8612 340.437C87.0394 342.657 81.9243 340.863 78.4344 336.427C77.016 334.675 76.038 332.608 75.5821 330.4L61.0352 311.429L68.5518 305.695L83.4633 324.199C85.503 325.161 87.2825 326.598 88.6528 328.39Z" fill="#FFB6B6"/>
<path d="M35.3787 230.154C36.0259 230.01 41.6896 228.836 46.1422 232.282C51.257 236.24 51.0093 243.382 50.9224 245.887C50.7217 251.673 48.4541 252.617 47.1052 258.293C44.5814 268.911 49.3877 278.78 52.0431 284.232C52.9622 286.119 55.9151 291.894 61.7932 298.113C73.2252 310.208 83.4256 316.573 83.4256 316.573L72.4675 326.313C72.4675 326.313 55.0126 320.993 43.1852 310.334C31.0531 299.4 12.3959 260.715 8.52822 251.291C8.19514 250.48 12.9132 263.673 21.9217 244.346C23.9765 239.937 27.7414 231.86 35.3787 230.154Z" fill="#F9A826"/>
<path d="M393.236 253H323.374C320.411 253 318 250.533 318 247.5C318 244.467 320.411 242 323.374 242H393.236C396.199 242 398.61 244.467 398.61 247.5C398.61 250.533 396.199 253 393.236 253Z" fill="#F9A826"/>
<path d="M486.627 253H416.765C413.801 253 411.391 250.533 411.391 247.5C411.391 244.467 413.801 242 416.765 242H486.627C489.59 242 492.001 244.467 492.001 247.5C492.001 250.533 489.59 253 486.627 253Z" fill="#E6E6E6"/>
<path d="M488.272 169.916H321.674C319.648 169.916 318 168.268 318 166.242C318 164.216 319.648 162.568 321.674 162.568H488.272C490.298 162.568 491.946 164.216 491.946 166.242C491.946 168.268 490.298 169.916 488.272 169.916Z" fill="#3F3D56"/>
<path d="M488.272 205.916H321.674C319.648 205.916 318 204.268 318 202.242C318 200.216 319.648 198.568 321.674 198.568H488.272C490.298 198.568 491.946 200.216 491.946 202.242C491.946 204.268 490.298 205.916 488.272 205.916Z" fill="#3F3D56"/>
<path d="M36.1211 504.385C36.1211 505.045 36.6511 505.575 37.3112 505.575H559.601C560.261 505.575 560.791 505.045 560.791 504.385C560.791 503.725 560.261 503.195 559.601 503.195H37.3112C36.6511 503.195 36.1211 503.725 36.1211 504.385Z" fill="#3F3D56"/>
<path d="M164.368 222.296C164.226 222.296 164.085 222.291 163.943 222.282C155.574 221.745 126.938 217.693 109.843 188.134C108.434 185.701 108.711 182.606 110.533 180.436L142.193 142.714C143.488 141.171 145.488 140.283 147.513 140.307C148.913 140.34 152.228 140.694 152.872 143.249C156.675 158.346 172.735 176.096 192.049 178.449C194.007 178.687 195.578 180.434 196.253 183.121C196.779 185.213 196.293 187.369 194.918 189.037L169.556 219.835C168.267 221.399 166.377 222.296 164.368 222.296ZM147.392 141.825C145.844 141.825 144.34 142.518 143.356 143.69L111.696 181.411C110.283 183.095 110.067 185.491 111.157 187.374C127.875 216.281 155.862 220.241 164.041 220.767C165.711 220.879 167.315 220.167 168.384 218.87L193.746 188.072C194.811 186.78 195.188 185.11 194.781 183.491C194.382 181.905 193.407 180.144 191.865 179.955C171.913 177.526 155.325 159.203 151.399 143.62C151.081 142.358 149.167 141.865 147.482 141.825C147.452 141.825 147.422 141.825 147.392 141.825Z" fill="#3F3D56"/>
<path d="M129.029 189.376L151.855 166.102C153.415 164.512 150.97 162.063 149.408 163.656L126.583 186.929C125.022 188.52 127.467 190.969 129.029 189.376Z" fill="#E6E6E6"/>
<path d="M142.805 195.932C149.104 190.286 154.578 183.748 159.061 176.574C160.244 174.681 157.252 172.942 156.073 174.828C151.74 181.764 146.448 188.028 140.358 193.486C138.697 194.975 141.15 197.415 142.805 195.932Z" fill="#E6E6E6"/>
<path d="M155.223 203.783C160.959 197.43 165.841 190.339 169.684 182.69C170.682 180.706 167.698 178.952 166.697 180.944C162.983 188.334 158.319 195.197 152.777 201.337C151.288 202.986 153.727 205.44 155.223 203.783Z" fill="#E6E6E6"/>
<path d="M145.442 161.886C158.152 161.886 168.455 151.8 168.455 139.358C168.455 126.916 158.152 116.83 145.442 116.83C132.733 116.83 122.43 126.916 122.43 139.358C122.43 151.8 132.733 161.886 145.442 161.886Z" fill="#F9A826"/>
<path d="M157.416 150.044C153.876 141.342 150.337 132.641 146.798 123.939C146.309 122.737 144.778 122.694 144.301 123.939C140.804 133.062 138.518 142.581 137.42 152.288C137.233 153.941 139.824 153.927 140.009 152.288C140.439 148.489 141.078 144.72 141.897 140.99C144.813 141.143 147.754 140.816 150.568 140.037C152.018 143.602 153.468 147.167 154.918 150.732C155.538 152.256 158.044 151.59 157.416 150.044ZM142.484 138.43C143.356 134.859 144.402 131.332 145.616 127.86L149.585 137.618C147.26 138.229 144.882 138.5 142.484 138.43Z" fill="white"/>
<path d="M451.755 46.0668V49.0292H456.47V51.783H451.755V54.9958H457.088V57.854H448.234V43.2086H457.088V46.0668H451.755Z" fill="black"/>
<path d="M468.227 57.854L465.283 53.3686L462.688 57.854H458.694L463.327 50.4061L458.591 43.2086H462.688L465.592 47.6314L468.145 43.2086H472.139L467.548 50.5939L472.325 57.854H468.227Z" fill="black"/>
<path d="M484.49 43.2086V46.0668H480.66V57.854H477.14V46.0668H473.31V43.2086H484.49Z" fill="black"/>
<path d="M501.019 43.2086V46.0668H497.189V57.854H493.668V46.0668H489.838V43.2086H501.019Z" fill="black"/>
<path d="M506.245 43.2086V51.9708C506.245 52.847 506.458 53.5216 506.883 53.9944C507.309 54.4673 507.933 54.7038 508.757 54.7038C509.58 54.7038 510.212 54.4673 510.651 53.9944C511.09 53.5216 511.31 52.847 511.31 51.9708V43.2086H514.831V51.9499C514.831 53.2573 514.556 54.363 514.007 55.267C513.458 56.1711 512.717 56.8526 511.783 57.3115C510.864 57.7705 509.834 58 508.695 58C507.556 58 506.533 57.7775 505.627 57.3324C504.735 56.8734 504.028 56.1919 503.506 55.2879C502.985 54.37 502.724 53.2573 502.724 51.9499V43.2086H506.245Z" fill="black"/>
<path d="M527.701 43.2086V46.0668H523.871V57.854H520.351V46.0668H516.521V43.2086H527.701Z" fill="black"/>
<path d="M536.304 58C534.945 58 533.696 57.6801 532.557 57.0403C531.431 56.4006 530.532 55.5104 529.86 54.37C529.201 53.2156 528.871 51.9221 528.871 50.4896C528.871 49.057 529.201 47.7705 529.86 46.63C530.532 45.4896 531.431 44.5994 532.557 43.9597C533.696 43.3199 534.945 43 536.304 43C537.663 43 538.905 43.3199 540.031 43.9597C541.17 44.5994 542.063 45.4896 542.708 46.63C543.367 47.7705 543.696 49.057 543.696 50.4896C543.696 51.9221 543.367 53.2156 542.708 54.37C542.049 55.5104 541.157 56.4006 540.031 57.0403C538.905 57.6801 537.663 58 536.304 58ZM536.304 54.7455C537.457 54.7455 538.377 54.356 539.063 53.5772C539.763 52.7983 540.113 51.7691 540.113 50.4896C540.113 49.1961 539.763 48.1669 539.063 47.4019C538.377 46.6231 537.457 46.2337 536.304 46.2337C535.137 46.2337 534.204 46.6161 533.504 47.3811C532.818 48.146 532.474 49.1822 532.474 50.4896C532.474 51.783 532.818 52.8192 533.504 53.5981C534.204 54.363 535.137 54.7455 536.304 54.7455Z" fill="black"/>
<path d="M553.026 57.854L550.02 52.3255H549.176V57.854H545.655V43.2086H551.564C552.704 43.2086 553.671 43.4103 554.467 43.8136C555.277 44.217 555.881 44.7733 556.279 45.4826C556.677 46.178 556.876 46.9569 556.876 47.8192C556.876 48.7928 556.602 49.662 556.053 50.427C555.518 51.1919 554.721 51.7344 553.664 52.0542L557 57.854H553.026ZM549.176 49.8011H551.358C552.003 49.8011 552.484 49.6412 552.8 49.3213C553.129 49.0014 553.294 48.5494 553.294 47.9652C553.294 47.4089 553.129 46.9708 552.8 46.6509C552.484 46.331 552.003 46.1711 551.358 46.1711H549.176V49.8011Z" fill="black"/>
<path d="M431 57.854H434.34V48.8807L441.252 57.854H445.571L434.34 43.2503H431V57.854Z" fill="black"/>
<path d="M445.571 43.2503V51.5199L438.602 43.2503H445.571Z" fill="black"/>
</g>
<defs>
<clipPath id="clip0_1504_5">
<rect width="596.912" height="505.575" fill="white"/>
</clipPath>
</defs>
</svg>
