<svg width="597" height="514" viewBox="0 0 597 514" fill="none" xmlns="http://www.w3.org/2000/svg">
<g clip-path="url(#clip0_1507_48)">
<path d="M575.512 420.59H21.4883C9.63985 420.59 0 410.791 0 398.747V330.965H597V398.747C597 410.791 587.361 420.59 575.512 420.59Z" fill="#E6E6E6"/>
<path d="M370.205 409.252H228.922V511.835H370.205V409.252Z" fill="#E6E6E6"/>
<path d="M378.701 498.877H220.422V511.835H378.701V498.877Z" fill="#E6E6E6"/>
<path d="M596.469 359.58H0V14.9899C0 6.72463 6.61537 0 14.7464 0H581.723C589.854 0 596.469 6.72463 596.469 14.9899V359.58Z" fill="#E6E6E6"/>
<path d="M582.127 15.6582H13.8086V340.684H582.127V15.6582Z" fill="white"/>
<path d="M123.872 209.38C128.221 205.726 133.602 205.046 135.889 207.861C138.176 210.675 136.503 215.917 132.151 219.571C130.432 221.055 128.389 222.099 126.192 222.616L107.57 237.86L100.719 228.824L119.805 214.756C120.718 212.659 122.113 210.816 123.872 209.38Z" fill="#FFB6B6"/>
<path d="M16.2352 243.775C16.2257 243.101 16.2319 237.22 20.5146 233.504C25.4343 229.234 32.3762 230.962 34.811 231.568C40.4354 232.968 40.8967 235.421 46.1787 237.941C56.0606 242.656 43.6789 240.243 49.559 238.731C51.5943 238.207 80.8757 236.143 88.1645 231.583C102.34 222.714 111.999 217.336 111.999 217.336L118.313 230.173C118.313 230.173 109.183 243.078 96.3327 252.638C83.1514 262.445 76.5608 267.348 66.5449 269.243C65.6823 269.406 44.4693 273.088 27.3839 260.112C23.4868 257.153 16.3464 251.73 16.2352 243.775Z" fill="#F9A826"/>
<path d="M35.8201 211.127C47.9681 211.127 57.816 201.116 57.816 188.767C57.816 176.419 47.9681 166.408 35.8201 166.408C23.6721 166.408 13.8242 176.419 13.8242 188.767C13.8242 201.116 23.6721 211.127 35.8201 211.127Z" fill="#FFB6B6"/>
<path d="M208.085 338.987L185.432 315.416L173.738 327.815L190.615 350.415L207.356 352.362L208.085 338.987Z" fill="#FFB6B6"/>
<path d="M78.7367 294.786C80.0616 294.898 84.2721 295.755 88.2966 293.504C91.0431 291.968 92.4517 289.684 92.9275 288.958C98.8297 279.947 121.484 265.895 141.816 265.031C146.42 264.835 149.45 265.377 152.205 266.837C156.111 268.906 157.67 271.871 162.627 278.816C165.338 282.615 168.338 286.194 171.082 289.969C187.146 312.067 193.236 313.802 192.614 320.886C191.923 328.747 183.584 336.204 178.041 335.344C175.771 334.991 174.892 333.386 171.859 330.138C162.966 320.615 159.287 322.374 152.956 315.079C145.564 306.563 146.532 299.501 142.676 299.228C139.099 298.975 137.58 305 129.945 313.002C126.451 316.664 123.963 318.344 116.384 323.689C86.8693 344.503 86.3982 345.966 80.4418 347.626C77.8357 348.352 59.3391 353.507 52.7501 345.304C42.4391 332.466 66.7981 293.777 78.7367 294.786Z" fill="#2F2E41"/>
<path d="M201.157 344.312C202.823 343.551 204.771 342.662 205.398 340.617C205.822 339.234 205.578 337.528 204.701 336.349C203.69 334.989 202.193 334.809 202.254 334.569C202.346 334.202 205.886 334.345 209.772 335.742C210.505 336.005 213.827 337.239 218.053 340.593C221.439 343.28 220.983 343.819 223.107 345.368C229.624 350.124 235.737 346.375 239.263 350.835C240.624 352.557 241.205 355.001 240.632 356.977C239.482 360.945 233.888 362.31 230.831 363.016C223.468 364.714 217.896 363.327 212.077 362.331C192.287 358.941 181.168 362.028 179.68 357.368C179.398 356.486 179.856 356.561 181.382 350.088C182.888 343.7 182.838 341.945 184.121 341.434C186.052 340.663 187.348 344.166 192.212 345.365C196.521 346.428 200.078 344.804 201.157 344.312Z" fill="#2F2E41"/>
<path d="M167.811 416.094L162.088 383.66L145.562 387.245L147.043 415.579L159.82 426.745L167.811 416.094Z" fill="#FFB6B6"/>
<path d="M85.1999 305.687C86.2344 306.536 89.2447 309.648 93.8181 310.083C96.9393 310.38 99.3665 309.294 100.161 308.965C110.023 304.878 136.531 306.182 153.832 317.072C157.75 319.538 159.958 321.717 161.431 324.497C163.519 328.439 163.172 331.782 163.437 340.358C163.582 345.049 164.087 349.723 164.272 354.412C165.357 381.868 169.438 386.779 165.009 392.286C160.096 398.396 149.075 399.806 144.964 395.93C143.281 394.343 143.44 392.513 142.725 388.094C140.628 375.138 136.611 374.494 135.402 364.844C133.991 353.578 138.693 348.287 135.652 345.86C132.833 343.609 128.247 347.726 117.509 349.99C112.595 351.026 109.609 350.996 100.385 351.092C64.4647 351.467 63.2669 352.409 57.4212 350.382C54.8636 349.496 36.711 343.203 35.7905 332.654C34.35 316.147 75.8783 298.038 85.1999 305.687Z" fill="#2F2E41"/>
<path d="M159.139 416.548C160.938 416.869 163.041 417.246 164.689 415.911C165.804 415.009 166.544 413.458 166.47 411.982C166.385 410.279 165.245 409.276 165.428 409.112C165.707 408.861 168.557 411 171.001 414.374C171.462 415.01 173.529 417.928 175.174 423.115C176.491 427.271 175.816 427.457 176.717 429.951C179.483 437.606 186.611 437.994 187.066 443.697C187.241 445.898 186.371 448.252 184.806 449.56C181.662 452.187 176.279 450.124 173.36 448.962C166.33 446.165 162.484 441.837 158.22 437.69C143.718 423.589 132.812 419.797 134.155 415.091C134.409 414.201 134.746 414.524 139.584 410.039C144.36 405.613 145.288 404.133 146.632 404.442C148.655 404.906 147.792 408.545 151.155 412.313C154.134 415.652 157.973 416.339 159.139 416.548Z" fill="#2F2E41"/>
<path d="M38.8204 193.043C39.6767 189.929 38.6011 188.794 39.6974 187.397C39.6974 187.397 40.1385 186.834 44.0824 185.316C42.9188 178.454 43.7901 177.293 43.7901 177.293C44.7942 175.956 46.8057 175.632 48.1751 175.807C51.0713 176.177 51.584 178.839 53.4372 178.779C55.9971 178.696 59.0675 173.487 58.1145 168.972C57.3371 165.29 53.9851 162.555 53.1448 163.029C52.3117 163.5 49.3125 161.425 48.1751 161.841C47.3984 162.124 43.7421 161.747 42.9131 162.138C42.0077 162.565 39.4149 165.223 39.167 164.888C37.4444 162.561 37.4811 161.748 36.4817 161.246C34.7108 160.357 32.7854 162 29.4656 163.624C22.635 166.963 20.6349 164.971 17.4799 167.784C15.8861 169.205 15.0314 171.92 13.3872 177.293C11.0877 184.807 9.93795 188.564 11.0485 192.151C12.181 195.81 13.8488 195.013 16.3105 200.175C19.0508 205.92 18.1063 209.26 20.6956 210.575C22.6967 211.592 25.9127 210.945 27.127 209.09C29.2059 205.913 23.8325 201.615 25.6653 196.609C26.7903 193.535 30.2607 191.205 32.389 191.854C34.7954 192.588 34.9726 196.974 36.4817 196.906C37.774 196.848 38.6711 193.585 38.8204 193.043Z" fill="#2F2E41"/>
<path d="M22.1563 214.438C26.6574 209.308 44.9916 214.618 46.7125 222.759C47.4203 226.107 44.8073 227.521 45.5431 231.377C46.6194 237.016 52.7133 236.631 57.2365 242.372C63.6582 250.521 57.0426 258.488 64.2526 272.088C65.7933 274.994 67.0918 277.444 69.807 279.814C76.0375 285.254 81.8359 283.388 85.0084 288.432C87.3809 292.204 86.4061 296.852 86.1778 297.941C85.2415 302.406 82.7038 303.494 80.9157 307.153C77.9407 313.241 81.3092 317.71 81.5004 324.983C81.7397 334.083 76.9824 346.698 67.4683 350.836C56.7797 355.486 43.8882 347.785 37.6501 340.138C33.9277 335.576 32.8472 331.367 31.2187 326.172C23.9407 302.954 19.8289 305.054 14.2632 286.649C7.90057 265.609 6.64975 240.96 14.2632 233.16C15.2723 232.126 18.0495 229.736 19.8176 225.433C22.1968 219.643 20.1414 216.735 22.1563 214.438Z" fill="#F9A826"/>
<path d="M88.6647 333.861C92.1545 338.369 92.6954 343.853 89.8732 346.11C87.051 348.367 81.9352 346.542 78.4448 342.033C77.0262 340.251 76.048 338.15 75.5921 335.905L61.043 316.618L68.5608 310.789L83.4744 329.601C85.5144 330.579 87.2942 332.04 88.6647 333.861Z" fill="#FFB6B6"/>
<path d="M35.3827 233.989C36.03 233.842 41.6944 232.649 46.1477 236.152C51.2633 240.177 51.0155 247.437 50.9286 249.984C50.7279 255.867 48.46 256.826 47.1108 262.597C44.5867 273.393 49.3937 283.425 52.0495 288.968C52.9688 290.887 55.9221 296.758 61.801 303.081C73.2348 315.378 83.4366 321.848 83.4366 321.848L72.477 331.751C72.477 331.751 55.0195 326.342 43.1904 315.505C31.0564 304.389 12.3965 265.059 8.52822 255.479C8.19509 254.654 12.9138 268.067 21.9237 248.417C23.9788 243.935 27.7442 235.723 35.3827 233.989Z" fill="#F9A826"/>
<path d="M393.294 257.217H323.422C320.458 257.217 318.047 254.708 318.047 251.625C318.047 248.542 320.458 246.033 323.422 246.033H393.294C396.258 246.033 398.669 248.542 398.669 251.625C398.669 254.708 396.258 257.217 393.294 257.217Z" fill="#F9A826"/>
<path d="M486.696 257.217H416.824C413.86 257.217 411.449 254.708 411.449 251.625C411.449 248.542 413.86 246.033 416.824 246.033H486.696C489.66 246.033 492.071 248.542 492.071 251.625C492.071 254.708 489.66 257.217 486.696 257.217Z" fill="#E6E6E6"/>
<path d="M488.344 172.748H321.722C319.696 172.748 318.047 171.072 318.047 169.012C318.047 166.952 319.696 165.277 321.722 165.277H488.344C490.37 165.277 492.018 166.952 492.018 169.012C492.018 171.072 490.37 172.748 488.344 172.748Z" fill="#3F3D56"/>
<path d="M488.344 209.348H321.722C319.696 209.348 318.047 207.672 318.047 205.612C318.047 203.552 319.696 201.877 321.722 201.877H488.344C490.37 201.877 492.018 203.552 492.018 205.612C492.018 207.672 490.37 209.348 488.344 209.348Z" fill="#3F3D56"/>
<path d="M36.125 512.79C36.125 513.461 36.6551 514 37.3152 514H559.682C560.342 514 560.872 513.461 560.872 512.79C560.872 512.119 560.342 511.58 559.682 511.58H37.3152C36.6551 511.58 36.125 512.119 36.125 512.79Z" fill="#F0F0F0"/>
<path d="M164.392 226C164.25 226 164.109 225.995 163.967 225.986C155.597 225.44 126.956 221.32 109.858 191.269C108.449 188.795 108.727 185.649 110.549 183.442L142.213 145.092C143.508 143.524 145.509 142.62 147.534 142.645C148.935 142.679 152.25 143.038 152.894 145.636C156.698 160.984 172.76 179.031 192.077 181.423C194.035 181.665 195.607 183.44 196.281 186.172C196.808 188.299 196.321 190.491 194.946 192.187L169.58 223.498C168.292 225.089 166.401 226 164.392 226ZM147.413 144.188C145.866 144.188 144.36 144.892 143.377 146.084L111.712 184.434C110.299 186.146 110.083 188.582 111.172 190.496C127.893 219.885 155.884 223.911 164.065 224.446C165.735 224.559 167.339 223.836 168.408 222.517L193.775 191.206C194.84 189.892 195.216 188.195 194.809 186.548C194.411 184.936 193.435 183.146 191.893 182.954C171.938 180.484 155.348 161.856 151.421 146.013C151.103 144.73 149.189 144.229 147.503 144.189C147.473 144.188 147.443 144.188 147.413 144.188Z" fill="#3F3D56"/>
<path d="M129.049 192.532L151.878 168.871C153.438 167.253 150.994 164.764 149.431 166.383L126.602 190.044C125.042 191.662 127.487 194.151 129.049 192.532Z" fill="#E6E6E6"/>
<path d="M142.828 199.198C149.129 193.457 154.604 186.811 159.087 179.518C160.271 177.592 157.278 175.825 156.099 177.742C151.765 184.793 146.472 191.162 140.382 196.711C138.72 198.225 141.174 200.705 142.828 199.198Z" fill="#E6E6E6"/>
<path d="M155.247 207.18C160.983 200.721 165.866 193.512 169.71 185.736C170.708 183.718 167.724 181.935 166.723 183.96C163.008 191.474 158.344 198.451 152.8 204.693C151.311 206.37 153.751 208.865 155.247 207.18Z" fill="#E6E6E6"/>
<path d="M145.465 164.582C158.177 164.582 168.481 154.328 168.481 141.679C168.481 129.03 158.177 118.775 145.465 118.775C132.754 118.775 122.449 129.03 122.449 141.679C122.449 154.328 132.754 164.582 145.465 164.582Z" fill="#F9A826"/>
<path d="M157.442 152.543C153.902 143.696 150.362 134.85 146.823 126.003C146.334 124.781 144.802 124.738 144.325 126.003C140.828 135.278 138.542 144.956 137.443 154.824C137.256 156.505 139.848 156.491 140.033 154.824C140.463 150.963 141.102 147.13 141.921 143.338C144.838 143.494 147.779 143.161 150.593 142.369C152.044 145.994 153.494 149.618 154.944 153.243C155.564 154.792 158.071 154.115 157.442 152.543ZM142.508 140.735C143.381 137.106 144.427 133.519 145.64 129.99L149.61 139.91C147.285 140.531 144.907 140.807 142.508 140.735Z" fill="white"/>
<path d="M451.82 46.8347V49.8465H456.536V52.6462H451.82V55.9125H457.154V58.8183H448.299V43.9289H457.154V46.8347H451.82Z" fill="black"/>
<path d="M468.295 58.8183L465.35 54.2582L462.756 58.8183H458.761L463.394 51.2463L458.658 43.9289H462.756L465.659 48.4254L468.213 43.9289H472.208L467.616 51.4372L472.393 58.8183H468.295Z" fill="black"/>
<path d="M484.561 43.9289V46.8347H480.73V58.8183H477.209V46.8347H473.378V43.9289H484.561Z" fill="black"/>
<path d="M501.091 43.9289V46.8347H497.261V58.8183H493.74V46.8347H489.909V43.9289H501.091Z" fill="black"/>
<path d="M506.318 43.9289V52.8371C506.318 53.7279 506.531 54.4137 506.957 54.8945C507.382 55.3752 508.007 55.6156 508.831 55.6156C509.654 55.6156 510.286 55.3752 510.725 54.8945C511.165 54.4137 511.384 53.7279 511.384 52.8371V43.9289H514.906V52.8159C514.906 54.145 514.631 55.2692 514.082 56.1883C513.533 57.1074 512.791 57.8002 511.858 58.2668C510.938 58.7335 509.908 58.9668 508.769 58.9668C507.629 58.9668 506.607 58.7405 505.701 58.2881C504.808 57.8214 504.101 57.1286 503.579 56.2095C503.058 55.2762 502.797 54.145 502.797 52.8159V43.9289H506.318Z" fill="black"/>
<path d="M527.778 43.9289V46.8347H523.948V58.8183H520.426V46.8347H516.596V43.9289H527.778Z" fill="black"/>
<path d="M536.382 58.9668C535.023 58.9668 533.774 58.6416 532.634 57.9911C531.509 57.3407 530.609 56.4357 529.937 55.2762C529.278 54.1026 528.948 52.7876 528.948 51.3312C528.948 49.8748 529.278 48.5668 529.937 47.4073C530.609 46.2479 531.509 45.3429 532.634 44.6925C533.774 44.042 535.023 43.7168 536.382 43.7168C537.741 43.7168 538.984 44.042 540.11 44.6925C541.249 45.3429 542.141 46.2479 542.787 47.4073C543.446 48.5668 543.775 49.8748 543.775 51.3312C543.775 52.7876 543.446 54.1026 542.787 55.2762C542.128 56.4357 541.235 57.3407 540.11 57.9911C538.984 58.6416 537.741 58.9668 536.382 58.9668ZM536.382 55.658C537.535 55.658 538.455 55.2621 539.142 54.4703C539.842 53.6784 540.192 52.6321 540.192 51.3312C540.192 50.0162 539.842 48.9698 539.142 48.1921C538.455 47.4003 537.535 47.0043 536.382 47.0043C535.215 47.0043 534.282 47.3932 533.582 48.1709C532.895 48.9486 532.552 50.002 532.552 51.3312C532.552 52.6462 532.895 53.6996 533.582 54.4915C534.282 55.2692 535.215 55.658 536.382 55.658Z" fill="black"/>
<path d="M553.107 58.8183L550.1 53.1977H549.256V58.8183H545.734V43.9289H551.644C552.784 43.9289 553.752 44.1339 554.548 44.544C555.358 44.954 555.962 45.5196 556.36 46.2408C556.758 46.9478 556.957 47.7396 556.957 48.6163C556.957 49.6061 556.683 50.4898 556.134 51.2675C555.598 52.0452 554.802 52.5967 553.745 52.9219L557.081 58.8183H553.107ZM549.256 50.6312H551.439C552.084 50.6312 552.564 50.4686 552.88 50.1434C553.21 49.8182 553.374 49.3587 553.374 48.7648C553.374 48.1992 553.21 47.7538 552.88 47.4285C552.564 47.1033 552.084 46.9407 551.439 46.9407H549.256V50.6312Z" fill="black"/>
<path d="M431.062 58.8183H434.403V49.6955L441.316 58.8183H445.636L434.403 43.9713H431.062V58.8183Z" fill="black"/>
<path d="M445.636 43.9713V52.3786L438.666 43.9713H445.636Z" fill="black"/>
</g>
<defs>
<clipPath id="clip0_1507_48">
<rect width="597" height="514" fill="white"/>
</clipPath>
</defs>
</svg>
