<svg width="96" height="97" viewBox="0 0 96 97" fill="none" xmlns="http://www.w3.org/2000/svg">
<path d="M2.5 52C16.8333 48.6667 49.5 36.1 65.5 12.5M1.5 95.5H18.5V70.5H1.5V95.5ZM26.5 95.5H42V61H26.5V95.5ZM67.5 95.5V47H50V95.5H67.5ZM75.5 34V95.5H90.5V34H75.5Z" stroke="#FFD193" stroke-width="3" stroke-linecap="round"/>
<path d="M69 19.1573V9.31665C69 8.65502 68.369 8.17578 67.7316 8.35333L57.134 11.3055C56.3046 11.5366 56.1355 12.6381 56.8574 13.1073L67.455 19.9958C68.1203 20.4282 69 19.9508 69 19.1573Z" fill="#FFD193"/>
<path d="M84 1V23" stroke="#FFD193" stroke-width="2" stroke-linecap="round" stroke-linejoin="round"/>
<path d="M89 5H81.5C80.5717 5 79.6815 5.36875 79.0251 6.02513C78.3687 6.6815 78 7.57174 78 8.5C78 9.42826 78.3687 10.3185 79.0251 10.9749C79.6815 11.6313 80.5717 12 81.5 12H86.5C87.4283 12 88.3185 12.3687 88.9749 13.0251C89.6313 13.6815 90 14.5717 90 15.5C90 16.4283 89.6313 17.3185 88.9749 17.9749C88.3185 18.6313 87.4283 19 86.5 19H78" stroke="#FFD193" stroke-width="2" stroke-linecap="round" stroke-linejoin="round"/>
</svg>
