<svg width="346" height="328" viewBox="0 0 346 328" fill="none" xmlns="http://www.w3.org/2000/svg">
<path d="M152.145 326.168C225.994 317.275 286.459 281.843 320.096 227.935C343.803 189.724 354.737 133.659 337.022 77.9362C328.3 51.1735 295.723 9.17311 245.451 1.19248C195.179 -6.78842 162.821 26.8976 146.341 54.3554C129.861 81.8131 110.5 134 66.162 162.663C31.8442 191.632 -1.19059 218.326 0.032965 250.654C1.45903 283.881 60.0522 337.764 152.145 326.168Z" fill="#3F3E3E"/>
<path d="M152 295.5C201.549 289.612 251.931 250.832 281.502 220C305 195.5 322.5 154 311 103.986C307.707 89.6654 296 46.4991 243 33.4991C202 28.4999 175.244 85.8074 164.187 103.986C153.13 122.164 140.336 149.621 114.5 171C92.5003 194.499 42.6774 218.597 43.4983 240C43.4983 263.556 90.211 303.176 152 295.5Z" fill="#606060"/>
</svg>
