<svg width="108" height="105" viewBox="0 0 108 105" fill="none" xmlns="http://www.w3.org/2000/svg">
<path d="M34 66.5V52.5H49V66.5H34Z" fill="#FFB446"/>
<path d="M34 66.5V52.5H49V66.5H34Z" fill="#FFB446"/>
<path d="M34 90.5V76.5H49V90.5H34Z" fill="#FFB446"/>
<path d="M34 90.5V76.5H49V90.5H34Z" fill="#FFB446"/>
<path d="M84 90.5V76.5H99V90.5H84Z" fill="#FFB446"/>
<path d="M84 90.5V76.5H99V90.5H84Z" fill="#FFB446"/>
<path d="M84 66.5V52.5H99V66.5H84Z" fill="#FFB446"/>
<path d="M84 66.5V52.5H99V66.5H84Z" fill="#FFB446"/>
<path d="M76 18.5V19C76 21.4853 78.0147 23.5 80.5 23.5C82.9853 23.5 85 21.4853 85 19V18.5M76 18.5H74C70.9624 18.5 68.5 20.9624 68.5 24C68.5 27.0376 70.9624 29.5 74 29.5H86C89.0376 29.5 91.5 27.0376 91.5 24C91.5 20.9624 89.0376 18.5 86 18.5H85M76 18.5V9M85 18.5V9M60 60.5L64.5 65L74.5 55M32 18.5H33C36.0376 18.5 38.5 20.9624 38.5 24V24C38.5 27.0376 36.0376 29.5 33 29.5H21C17.9624 29.5 15.5 27.0376 15.5 24V24C15.5 20.9624 17.9624 18.5 21 18.5H23M32 18.5V19C32 21.4853 29.9853 23.5 27.5 23.5V23.5C25.0147 23.5 23 21.4853 23 19V18.5M32 18.5V9M23 18.5V9M32 9V6C32 3.51472 29.9853 1.5 27.5 1.5V1.5C25.0147 1.5 23 3.51472 23 6V9M32 9H76M23 9H4C2.89543 9 2 9.89543 2 11V101C2 102.105 2.89543 103 4 103H104.5C105.605 103 106.5 102.105 106.5 101V11C106.5 9.89543 105.605 9 104.5 9H85M76 9V6C76 3.51472 78.0147 1.5 80.5 1.5C82.9853 1.5 85 3.51472 85 6V9M9 52.5V66.5H24V52.5H9ZM34 52.5V66.5H49V52.5H34ZM9 76.5V90.5H24V76.5H9ZM34 76.5V90.5H49V76.5H34ZM59 76.5V90.5H74V76.5H59ZM84 76.5V90.5H99V76.5H84ZM84 52.5V66.5H99V52.5H84Z" stroke="#FFB446" stroke-width="3" stroke-linecap="round" stroke-linejoin="round"/>
<path d="M98 39.5C98 40.3284 97.3284 41 96.5 41C95.6716 41 95 40.3284 95 39.5C95 38.6716 95.6716 38 96.5 38C97.3284 38 98 38.6716 98 39.5Z" fill="#FFB446"/>
<path d="M90 39.5C90 40.3284 89.3284 41 88.5 41C87.6716 41 87 40.3284 87 39.5C87 38.6716 87.6716 38 88.5 38C89.3284 38 90 38.6716 90 39.5Z" fill="#FFB446"/>
<path d="M94 39.5C94 40.3284 93.3284 41 92.5 41C91.6716 41 91 40.3284 91 39.5C91 38.6716 91.6716 38 92.5 38C93.3284 38 94 38.6716 94 39.5Z" fill="#FFB446"/>
</svg>
