<svg width="108" height="90" viewBox="0 0 108 90" fill="none" xmlns="http://www.w3.org/2000/svg">
<path d="M9.00008 72.5C1.91965 76.546 1.44682 82.534 2.37132 86.2119C2.65395 87.3363 3.73924 88 4.89858 88H48.5M9.00008 72.5V21.5C9.00008 20.3954 9.89551 19.5 11.0001 19.5H27M9.00008 72.5H101.5M101.5 72.5V21.5C101.5 20.3954 100.605 19.5 99.5 19.5H78M101.5 72.5C103.965 75.735 107.853 82.8145 105.27 87.0264C104.854 87.7046 104.053 88 103.257 88H61.5" stroke="#FFD193" stroke-width="3" stroke-linecap="round"/>
<path d="M46.5 1.5H76C77.1046 1.5 78 2.39543 78 3.5V62C78 63.1046 77.1046 64 76 64H32.5C31.3954 64 30.5 63.1046 30.5 62V18M46.5 1.5L30.5 18M46.5 1.5V12C46.5 15.3137 43.8137 18 40.5 18H30.5M38.5 47H70.5M46.5 36.5L50 29.0882M62.5 36.5L59.4118 29.0882M50 29.0882H59.4118M50 29.0882L54.1978 20.1987C54.7561 17.9577 55.4371 19.265 55.7078 20.1987L59.4118 29.0882M67 27.5V20.5M63 24H71.5" stroke="#FFD193" stroke-width="3" stroke-linecap="round"/>
</svg>
