<svg width="186" height="264" viewBox="0 0 186 264" fill="none" xmlns="http://www.w3.org/2000/svg">
<path d="M1 254V41C1 36.0294 5.02944 32 10 32H176C180.971 32 185 36.0294 185 41V254C185 258.971 180.971 263 176 263H10C5.02944 263 1 258.971 1 254Z" stroke="#FFC92A" stroke-width="2"/>
<path d="M33.5 195.5L38.636 200.636C42.1508 204.151 47.8492 204.151 51.364 200.636L64 188M84.5 195.5H159.5M33.5 147.5L38.636 152.636C42.1508 156.151 47.8492 156.151 51.364 152.636L64 140M84.5 147.5H159.5M33.5 99.5L38.636 104.636C42.1508 108.151 47.8492 108.151 51.364 104.636L64 92M84.5 99.5H159.5" stroke="#FFC92A" stroke-width="2" stroke-linecap="round"/>
<path fill-rule="evenodd" clip-rule="evenodd" d="M47 28.4887V36.9675C47 41.4037 50.5949 45 55.0294 45H129.971C134.405 45 138 41.4037 138 36.9675V28.4887C138 24.0524 134.405 20.4562 129.971 20.4562H116.142C115.841 19.6841 115.552 18.7728 115.234 17.7707C113.039 10.8567 109.473 -0.377804 91.1618 0.00976877C74.6531 0.35918 68.8578 12.8699 69.3039 20.4562H55.0294C50.5949 20.4562 47 24.0524 47 28.4887ZM87.3712 24.9901C85.7692 24.9901 84.4706 23.6914 84.4706 22.0895V22.0895C84.4706 20.4875 85.7692 19.1888 87.3712 19.1888H95.3984C97.0004 19.1888 98.299 20.4875 98.299 22.0895V22.0895C98.299 23.6914 97.0004 24.9901 95.3984 24.9901H87.3712Z" fill="#FFC92A"/>
</svg>
