<svg width="140" height="214" viewBox="0 0 140 214" fill="none" xmlns="http://www.w3.org/2000/svg">
<path d="M74 76C71.1997 76 69.0588 78.1207 69.0588 80.8947V83.1788C59.67 85.3003 52.5881 93.7842 52.5881 103.737V121.684L46 128.211V131.474H102V128.211L95.4119 121.684V103.737C95.4119 93.7842 88.3298 85.3003 78.9412 83.1788V80.8947C78.9412 78.1207 76.8003 76 74 76ZM80.5679 131.474H67.3915C67.3915 135.063 70.3559 138 73.9798 138C77.6037 138 80.5679 135.063 80.5679 131.474Z" fill="#FFC92A"/>
<path d="M57 198H82.5" stroke="#FFC92A" stroke-width="6" stroke-linecap="round"/>
<path d="M57 14H82.5" stroke="#FFC92A" stroke-width="6" stroke-linecap="round"/>
<path d="M1 25.5V13C1 6.37258 6.37258 1 13 1H126.5C133.127 1 138.5 6.37258 138.5 13V25.5M1 25.5H138.5M1 25.5V184M138.5 25.5V184M1 184V200.5C1 207.127 6.37258 212.5 13 212.5H126.5C133.127 212.5 138.5 207.127 138.5 200.5V184M1 184H138.5" stroke="#FFC92A" stroke-width="2"/>
</svg>
