<svg width="206" height="237" viewBox="0 0 206 237" fill="none" xmlns="http://www.w3.org/2000/svg">
<path d="M63.9347 92.5L55.4336 96.2862M35.4347 209V117H64.4347M35.4347 209V223H170.435V209M35.4347 209L18.5004 208.502C9.08713 208.225 1.69258 200.349 2.00984 190.937L3.35976 150.889C4.01732 131.381 15.7512 113.96 33.5814 106.019L55.4336 96.2862M93.4347 117L76.9347 98.5M93.4347 117H112.435M93.4347 117H64.4347M57.4347 235.5H148.435M141.935 92.5L151.934 96.9533M170.435 209V117H142.434M170.435 209L187.369 208.502C196.782 208.225 204.177 200.349 203.859 190.937L202.51 150.889C201.852 131.381 190.118 113.96 172.288 106.019L151.934 96.9533M112.435 117L128.935 98.5M112.435 117H142.434M64.4347 117L55.4336 96.2862M142.434 117L151.934 96.9533" stroke="#EAB671" stroke-width="3"/>
<circle cx="103.934" cy="48" r="46.5" stroke="#EAB671" stroke-width="3"/>
<circle cx="103.934" cy="169" r="19" fill="#EAB671" stroke="#EAB671" stroke-width="2"/>
</svg>
