<svg width="231" height="212" viewBox="0 0 231 212" fill="none" xmlns="http://www.w3.org/2000/svg">
<path d="M2 65.6287V185C2 198.807 13.1929 210 27 210H203.869C217.676 210 228.869 198.807 228.869 185V65.6287M2 65.6287V48.0633C2 34.2562 13.1929 23.0633 27 23.0633H37.9831M2 65.6287H228.869M228.869 65.6287V48.0633C228.869 34.2562 217.676 23.0633 203.869 23.0633H189.814M167.873 23.0633V30.5232C167.873 36.582 172.785 41.4937 178.844 41.4937C184.903 41.4937 189.814 36.582 189.814 30.5232V23.0633M167.873 23.0633V12.9705C167.873 6.91164 172.785 2 178.844 2C184.903 2 189.814 6.91164 189.814 12.9705V23.0633M167.873 23.0633H125.747M125.747 23.0633V12.9705C125.747 6.91164 120.835 2 114.776 2C108.718 2 103.806 6.91164 103.806 12.9705V23.0633M125.747 23.0633V30.5232C125.747 36.582 120.835 41.4937 114.776 41.4937C108.718 41.4937 103.806 36.582 103.806 30.5232V23.0633M103.806 23.0633H59.9241M59.9241 23.0633V12.9705C59.9241 6.91164 55.0124 2 48.9536 2C42.8948 2 37.9831 6.91164 37.9831 12.9705V23.0633M59.9241 23.0633V30.5232C59.9241 36.582 55.0124 41.4937 48.9536 41.4937C42.8948 41.4937 37.9831 36.582 37.9831 30.5232V23.0633" stroke="#FFD193" stroke-width="3"/>
<path d="M41.0534 144.616H72.2095C72.6942 144.616 73.0872 145.009 73.0872 145.494V176.211C73.0872 176.696 72.6942 177.089 72.2095 177.089H41.0534C40.5687 177.089 40.1758 176.696 40.1758 176.211V145.494C40.1758 145.009 40.5687 144.616 41.0534 144.616Z" fill="#FFD193"/>
<path d="M99.8551 96.7852H131.011C131.496 96.7852 131.889 97.1781 131.889 97.6628V128.38C131.889 128.865 131.496 129.258 131.011 129.258H99.8551C99.3704 129.258 98.9775 128.865 98.9775 128.38V97.6628C98.9775 97.1781 99.3704 96.7852 99.8551 96.7852Z" fill="#FFD193"/>
<path d="M156.024 144.616H187.18C187.665 144.616 188.058 145.009 188.058 145.494V176.211C188.058 176.696 187.665 177.089 187.18 177.089H156.024C155.539 177.089 155.146 176.696 155.146 176.211V145.494C155.146 145.009 155.539 144.616 156.024 144.616Z" fill="#FFD193"/>
<path d="M41.0534 144.616H72.2095C72.6942 144.616 73.0872 145.009 73.0872 145.494V176.211C73.0872 176.696 72.6942 177.089 72.2095 177.089H41.0534C40.5687 177.089 40.1758 176.696 40.1758 176.211V145.494C40.1758 145.009 40.5687 144.616 41.0534 144.616Z" stroke="#FFD193" stroke-width="3"/>
<path d="M99.8551 96.7852H131.011C131.496 96.7852 131.889 97.1781 131.889 97.6628V128.38C131.889 128.865 131.496 129.258 131.011 129.258H99.8551C99.3704 129.258 98.9775 128.865 98.9775 128.38V97.6628C98.9775 97.1781 99.3704 96.7852 99.8551 96.7852Z" stroke="#FFD193" stroke-width="3"/>
<path d="M156.024 144.616H187.18C187.665 144.616 188.058 145.009 188.058 145.494V176.211C188.058 176.696 187.665 177.089 187.18 177.089H156.024C155.539 177.089 155.146 176.696 155.146 176.211V145.494C155.146 145.009 155.539 144.616 156.024 144.616Z" stroke="#FFD193" stroke-width="3"/>
<path d="M72.2095 96.7852H41.0534C40.5687 96.7852 40.1758 97.1781 40.1758 97.6628V128.38C40.1758 128.865 40.5687 129.258 41.0534 129.258H72.2095C72.6942 129.258 73.0872 128.865 73.0872 128.38V97.6628C73.0872 97.1781 72.6942 96.7852 72.2095 96.7852Z" stroke="#FFD193" stroke-width="3"/>
<path d="M187.18 96.7852H156.024C155.539 96.7852 155.146 97.1781 155.146 97.6628V128.38C155.146 128.865 155.539 129.258 156.024 129.258H187.18C187.665 129.258 188.058 128.865 188.058 128.38V97.6628C188.058 97.1781 187.665 96.7852 187.18 96.7852Z" stroke="#FFD193" stroke-width="3"/>
<path d="M131.011 144.616H99.8551C99.3704 144.616 98.9775 145.009 98.9775 145.494V176.211C98.9775 176.696 99.3704 177.089 99.8551 177.089H131.011C131.496 177.089 131.889 176.696 131.889 176.211V145.494C131.889 145.009 131.496 144.616 131.011 144.616Z" stroke="#FFD193" stroke-width="3"/>
</svg>
