<svg width="205" height="180" viewBox="0 0 205 180" fill="none" xmlns="http://www.w3.org/2000/svg">
<path d="M1 167C1 165.895 1.89543 165 3 165H30C31.1046 165 32 165.895 32 167V177C32 178.105 31.1046 179 30 179H3C1.89543 179 1 178.105 1 177V167Z" stroke="#FFC92A"/>
<path d="M44 147C44 145.895 44.8954 145 46 145H73C74.1046 145 75 145.895 75 147V177C75 178.105 74.1046 179 73 179H46C44.8954 179 44 178.105 44 177V147Z" stroke="#FFC92A"/>
<path d="M87 130C87 128.895 87.8954 128 89 128H116C117.105 128 118 128.895 118 130V177C118 178.105 117.105 179 116 179H89C87.8954 179 87 178.105 87 177V130Z" stroke="#FFC92A"/>
<path d="M130 108C130 106.895 130.895 106 132 106H159C160.105 106 161 106.895 161 108V177C161 178.105 160.105 179 159 179H132C130.895 179 130 178.105 130 177V108Z" stroke="#FFC92A"/>
<path d="M173 82C173 80.8954 173.895 80 175 80H202C203.105 80 204 80.8954 204 82V177C204 178.105 203.105 179 202 179H175C173.895 179 173 178.105 173 177V82Z" stroke="#FFC92A"/>
<path d="M181.5 26.5C135.9 93.3 43.1667 138.333 2.5 152.5C43.1667 138.333 144 105 192.5 33L204 40.5C203.2 39.3 203.667 13 204 0C201.2 2.8 179.167 14.8333 168.5 20.5L181.5 26.5Z" fill="#FFC92A"/>
</svg>
