<svg width="946" height="741" viewBox="0 0 946 741" fill="none" xmlns="http://www.w3.org/2000/svg">
<path d="M370.5 606.5H38C20.3269 606.5 6 592.173 6 574.5V473V38C6 20.3269 20.3269 6 38 6H804C821.673 6 836 20.3269 836 38V297M370.5 606.5L344 734.5M370.5 606.5H483.5M344 734.5H276M344 734.5H516.5M575.5 734.5H516.5M516.5 734.5L483.5 606.5M483.5 606.5H608H727" stroke="#D6A250" stroke-width="12" stroke-linecap="round" stroke-linejoin="round"/>
<path d="M731 378.055V324C731 311.85 740.85 302 753 302H918C930.15 302 940 311.85 940 324V378.055M731 378.055H940M731 378.055V606.189M940 378.055V606.189M940 606.189V656C940 668.15 930.15 678 918 678H753C740.85 678 731 668.15 731 656V606.189M940 606.189H731" stroke="#D6A250" stroke-width="12" stroke-linecap="round" stroke-linejoin="round"/>
<circle cx="842" cy="639" r="19" fill="#D6A250"/>
<path d="M800 337.5H877.5" stroke="#D6A250" stroke-width="19" stroke-linecap="round" stroke-linejoin="round"/>
<circle cx="434" cy="542" r="24" fill="#D6A250"/>
</svg>
