<svg width="500" height="500" viewBox="0 0 500 500" fill="none" xmlns="http://www.w3.org/2000/svg">
<path d="M438.001 373.561C442.381 371.301 447.531 371.011 452.391 371.811C455.001 372.241 457.721 373.021 459.501 374.991C461.281 376.961 461.611 380.401 459.581 382.081C458.264 382.976 456.675 383.38 455.091 383.221C451.291 383.221 447.091 382.511 444.031 384.801C442.291 386.101 441.141 388.271 439.031 388.911C437.994 389.151 436.908 389.048 435.936 388.617C434.963 388.186 434.158 387.45 433.641 386.521C432.656 384.61 432.437 382.396 433.031 380.331C433.281 378.895 433.86 377.538 434.722 376.363C435.584 375.189 436.706 374.23 438.001 373.561Z" fill="#EBEBEB"/>
<path d="M427.999 354.2C430.679 358.02 435.879 356.76 438.289 354.42C440.699 352.08 441.719 348.71 442.649 345.48C444.769 338.11 446.909 330.38 445.329 322.88C444.949 320.605 443.953 318.478 442.449 316.73C441.683 315.872 440.706 315.23 439.614 314.866C438.523 314.503 437.356 314.432 436.229 314.66C433.609 315.36 431.979 317.92 430.799 320.37C427.325 327.584 425.504 335.483 425.469 343.49C425.469 347.22 425.899 351.12 427.999 354.2Z" fill="#EBEBEB"/>
<path d="M420.646 359.68C423.556 356.24 424.106 351.2 422.806 346.88C421.506 342.56 418.596 338.88 415.226 335.88C411.258 332.362 406.646 329.645 401.646 327.88C399.709 327.109 397.628 326.768 395.546 326.88C394.502 326.938 393.489 327.251 392.595 327.791C391.7 328.332 390.952 329.083 390.416 329.98C388.986 332.7 390.356 335.98 391.846 338.7C394.455 343.453 397.435 347.994 400.756 352.28C403.436 355.73 406.496 359.13 410.566 360.69C414.636 362.25 418.876 362 420.996 359.2" fill="#EBEBEB"/>
<path d="M427.817 411.869C427.958 411.3 428.039 410.716 428.057 410.129C428.177 408.869 428.337 407.279 428.517 405.389C428.751 403.056 429.108 400.736 429.587 398.439C430.21 395.64 431.056 392.894 432.117 390.229C433.156 387.567 434.566 385.066 436.307 382.799C437.725 380.958 439.536 379.455 441.607 378.399C443.01 377.702 444.516 377.232 446.067 377.009C446.651 376.99 447.231 376.906 447.797 376.759C447.212 376.695 446.622 376.695 446.037 376.759C444.427 376.883 442.853 377.292 441.387 377.969C439.203 378.998 437.289 380.522 435.797 382.419C433.978 384.712 432.512 387.263 431.447 389.989C430.373 392.692 429.533 395.483 428.937 398.329C428.489 400.659 428.181 403.013 428.017 405.379C427.867 407.379 427.807 409.019 427.777 410.149C427.731 410.723 427.744 411.299 427.817 411.869Z" fill="#E0E0E0"/>
<path d="M428.15 408.22C428.18 407.954 428.18 407.685 428.15 407.42V405.11C428.15 403.11 428.15 400.22 428.25 396.64C428.43 389.49 429.04 381.8 430.25 370.95C431.38 360.75 432.89 348.88 434.48 341.16C434.82 339.4 435.17 337.82 435.48 336.44C435.79 335.06 436.06 333.86 436.31 332.89L436.85 330.65C436.929 330.39 436.976 330.121 436.99 329.85C436.872 330.093 436.778 330.348 436.71 330.61C436.53 331.19 436.31 331.92 436.04 332.82C435.77 333.72 435.44 334.96 435.09 336.35C434.74 337.74 434.35 339.3 433.98 341.05C432.004 350.177 430.518 359.403 429.53 368.69C428.34 379.57 427.8 389.46 427.75 396.63C427.75 400.22 427.75 403.12 427.88 405.12C427.88 406.06 427.98 406.82 428.02 407.42C428.027 407.691 428.071 407.96 428.15 408.22Z" fill="#E0E0E0"/>
<path d="M428.185 389.13C428.246 388.328 428.246 387.522 428.185 386.72C428.095 385.18 427.875 382.94 427.445 380.2C426.918 376.996 426.21 373.824 425.325 370.7C424.281 366.853 422.944 363.092 421.325 359.45C418.572 352.731 414.618 346.57 409.655 341.27C408.796 340.36 407.878 339.508 406.905 338.72C406.485 338.36 406.115 338.01 405.735 337.72L404.675 336.98C404.041 336.499 403.373 336.064 402.675 335.68C402.555 335.84 405.545 337.6 409.315 341.61C414.11 346.956 417.958 353.08 420.695 359.72C422.279 363.342 423.615 367.067 424.695 370.87C425.606 373.966 426.361 377.107 426.955 380.28C427.455 382.99 427.735 385.2 427.955 386.74C427.97 387.541 428.047 388.34 428.185 389.13Z" fill="#E0E0E0"/>
<path d="M409.734 422.811L411.644 449.021H445.314L447.234 422.811H409.734Z" fill="#E0E0E0"/>
<path d="M451.244 412.48H406.484V422.81H451.244V412.48Z" fill="#E0E0E0"/>
<path d="M406.484 448.01V450.88H408.584H450.504V448.01H406.484Z" fill="#EBEBEB"/>
<path d="M410.646 455.921L408.586 450.881H448.906L446.496 455.921H410.646Z" fill="#E0E0E0"/>
<path d="M446.606 431.371C446.606 431.371 446.556 431.461 446.446 431.621L445.946 432.281C445.466 432.891 444.816 433.741 443.946 434.791L443.856 434.901L443.776 434.791L438.996 428.121H439.276L434.526 434.841L434.376 435.051L434.216 434.851L428.586 428.161H428.906C428.816 428.291 428.706 428.421 428.596 428.551L423.596 434.861L423.436 435.071L423.276 434.851C421.566 432.441 419.976 430.181 418.536 428.141H418.806L412.966 434.801L412.856 434.921L412.776 434.781L410.946 431.711L410.476 430.891C410.419 430.8 410.372 430.702 410.336 430.601C410.336 430.601 410.406 430.681 410.536 430.861L411.046 431.651C411.516 432.381 412.166 433.391 412.976 434.651H412.786L418.546 427.911L418.686 427.741L418.816 427.921L423.606 434.611H423.286L428.286 428.291L428.596 427.901L428.756 427.701L428.916 427.901L434.526 434.611H434.216L439.006 427.931L439.146 427.731L439.286 427.931L443.996 434.661H443.826L445.826 432.211L446.376 431.581C446.444 431.502 446.521 431.432 446.606 431.371Z" fill="#F5F5F5"/>
<path d="M447.696 422.64C447.696 422.75 439.266 422.85 428.856 422.85C418.446 422.85 410.016 422.75 410.016 422.64C410.016 422.53 418.456 422.43 428.856 422.43C439.256 422.43 447.696 422.52 447.696 422.64Z" fill="#F5F5F5"/>
<path d="M449.395 451.161C449.395 451.281 440.235 451.371 428.925 451.371C417.615 451.371 408.445 451.281 408.445 451.161C408.445 451.041 417.615 450.951 428.925 450.951C440.235 450.951 449.395 451.001 449.395 451.161Z" fill="#F5F5F5"/>
<path d="M400.998 221.551C400.641 222.07 400.229 222.55 399.768 222.981C398.968 223.821 397.848 224.981 396.598 226.191C395.348 227.401 394.188 228.531 393.338 229.311C392.905 229.764 392.422 230.166 391.898 230.511C392.247 229.987 392.656 229.507 393.118 229.081C393.918 228.241 395.038 227.081 396.298 225.861C397.558 224.641 398.708 223.521 399.558 222.741C399.986 222.285 400.47 221.885 400.998 221.551Z" fill="#E0E0E0"/>
<path d="M450.859 221.42C451.382 221.773 451.862 222.186 452.289 222.65C453.129 223.44 454.289 224.56 455.499 225.82C456.709 227.08 457.839 228.22 458.619 229.07C459.077 229.503 459.48 229.99 459.819 230.52C459.294 230.17 458.814 229.757 458.389 229.29C457.549 228.5 456.389 227.37 455.169 226.12C453.949 224.87 452.829 223.7 452.049 222.85C451.595 222.424 451.196 221.944 450.859 221.42Z" fill="#E0E0E0"/>
<path d="M249 120L249.59 121C250.255 122.099 251.219 122.987 252.37 123.56L253.37 124.06L252.37 124.66C251.266 125.32 250.377 126.286 249.81 127.44L249.3 128.44L248.71 127.44C248.047 126.339 247.082 125.45 245.93 124.88L244.93 124.37L245.93 123.78C247.031 123.117 247.919 122.152 248.49 121L249 120Z" fill="#FFC100"/>
<path d="M312.731 162.41L313.081 163C313.47 163.658 314.042 164.19 314.728 164.529L315.32 164.83L314.728 165.179C314.075 165.57 313.549 166.14 313.211 166.82L312.909 167.41L312.56 166.82C312.165 166.171 311.594 165.647 310.913 165.309L310.32 165.008L310.913 164.659C311.565 164.268 312.091 163.698 312.429 163.018L312.731 162.41Z" fill="#FFC727"/>
<path d="M300.686 59L300.986 59.49C301.318 60.0408 301.8 60.4851 302.376 60.77L302.896 61.03L302.406 61.32C301.85 61.6521 301.402 62.1384 301.116 62.72L300.866 63.23L300.566 62.74C300.238 62.187 299.754 61.7421 299.176 61.46L298.656 61.2L299.156 60.9C299.707 60.5682 300.151 60.0859 300.436 59.51L300.686 59Z" fill="#E0E0E0"/>
<path d="M341.483 92.7793L341.773 93.2693C342.108 93.8205 342.594 94.2646 343.173 94.5493L343.683 94.8093L343.193 95.0993C342.642 95.4346 342.198 95.9203 341.913 96.4993L341.653 97.0093L341.363 96.5193C341.028 95.9681 340.542 95.524 339.963 95.2393L339.453 94.9793L339.943 94.6893C340.494 94.3539 340.938 93.8683 341.223 93.2893L341.483 92.7793Z" fill="#E0E0E0"/>
<path d="M302.803 129.84L303.103 130.33C303.435 130.88 303.918 131.324 304.493 131.61L305.013 131.87L304.513 132.16C303.962 132.495 303.518 132.981 303.233 133.56L302.973 134.07L302.683 133.58C302.35 133.028 301.868 132.582 301.293 132.29L300.773 132.04L301.263 131.74C301.817 131.409 302.264 130.926 302.553 130.35L302.803 129.84Z" fill="#E0E0E0"/>
<path d="M349.937 158.791C350.297 156.161 346.577 153.991 343.777 153.791C342.435 153.846 341.091 153.731 339.777 153.451C337.037 152.451 335.947 148.961 333.277 147.831C331.277 146.991 328.977 147.741 327.037 148.711C325.097 149.681 323.187 150.911 321.037 151.051C319.157 151.171 317.107 150.471 315.467 151.391C314.237 152.081 313.597 153.491 312.467 154.331C311.288 155.05 309.928 155.417 308.547 155.391C307.167 155.355 305.794 155.578 304.497 156.051C303.859 156.302 303.319 156.754 302.958 157.338C302.598 157.922 302.436 158.607 302.497 159.291L349.937 158.791Z" fill="#EBEBEB"/>
<path d="M264.687 63.4603C265.187 59.8403 260.077 56.8603 256.247 56.5603C254.407 56.4103 252.507 56.6903 250.777 56.0803C247.017 54.7703 245.517 49.9203 241.857 48.3703C239.117 47.2203 235.957 48.2503 233.297 49.5803C230.637 50.9103 228.017 52.5803 225.047 52.7903C222.467 52.9603 219.667 52.0003 217.407 53.2603C215.717 54.2003 214.837 56.1403 213.287 57.2603C211.671 58.2527 209.803 58.7595 207.907 58.7203C206.017 58.6737 204.135 58.9789 202.357 59.6203C200.647 60.4103 199.227 62.2203 199.577 64.0703L264.687 63.4603Z" fill="#F5F5F5"/>
<path d="M129.453 204.324C129.813 201.694 126.093 199.524 123.293 199.324C121.95 199.379 120.606 199.265 119.293 198.984C116.553 197.984 115.463 194.494 112.793 193.364C110.793 192.524 108.493 193.274 106.553 194.244C104.613 195.214 102.703 196.444 100.553 196.584C98.6725 196.704 96.6225 196.004 94.9825 196.924C93.7525 197.614 93.1125 199.024 91.9825 199.864C90.8033 200.583 89.4434 200.95 88.0625 200.924C86.6831 200.888 85.3092 201.112 84.0125 201.584C83.3742 201.836 82.8345 202.287 82.474 202.871C82.1136 203.455 81.9517 204.14 82.0125 204.824L129.453 204.324Z" fill="#EBEBEB"/>
<path d="M129.453 204.324C129.813 201.694 126.093 199.524 123.293 199.324C121.95 199.379 120.606 199.265 119.293 198.984C116.553 197.984 115.463 194.494 112.793 193.364C110.793 192.524 108.493 193.274 106.553 194.244C104.613 195.214 102.703 196.444 100.553 196.584C98.6725 196.704 96.6225 196.004 94.9825 196.924C93.7525 197.614 93.1125 199.024 91.9825 199.864C90.8033 200.583 89.4434 200.95 88.0625 200.924C86.6831 200.888 85.3092 201.112 84.0125 201.584C83.3742 201.836 82.8345 202.287 82.474 202.871C82.1136 203.455 81.9517 204.14 82.0125 204.824L129.453 204.324Z" fill="#EBEBEB"/>
<path d="M186.453 150.324C186.805 147.694 183.164 145.524 180.423 145.324C179.109 145.379 177.793 145.265 176.507 144.984C173.825 143.984 172.758 140.494 170.144 139.364C168.186 138.524 165.935 139.274 164.035 140.244C162.136 141.214 160.266 142.444 158.162 142.584C156.321 142.704 154.315 142.004 152.709 142.924C151.505 143.614 150.878 145.024 149.772 145.864C148.618 146.583 147.287 146.95 145.935 146.924C144.584 146.888 143.239 147.112 141.97 147.584C141.345 147.836 140.817 148.287 140.464 148.871C140.111 149.455 139.953 150.14 140.012 150.824L186.453 150.324Z" fill="#EBEBEB"/>
<path d="M175.39 171.41L175.98 172.41C176.636 173.525 177.602 174.425 178.76 175L179.76 175.51L178.76 176.1C177.659 176.763 176.771 177.728 176.2 178.88L175.69 179.88L175.1 178.88C174.435 177.781 173.471 176.893 172.32 176.32L171.32 175.81L172.32 175.22C173.422 174.557 174.31 173.592 174.88 172.44L175.39 171.41Z" fill="#FFC727"/>
<path d="M193.521 277.52L214.831 273.41L255.711 282.79L276.431 287.11L276.731 315.42L230.511 323.93L199.321 314.69L187.531 297.34L193.521 277.52Z" fill="#FFBE9D"/>
<path d="M178.374 280.342L198.484 275.602C198.484 275.602 212.704 319.602 247.794 317.672C276.394 316.122 276.424 287.112 276.424 287.112L297.334 290.802C297.334 290.802 306.104 343.892 296.494 381.132C288.494 412.132 281.394 454.612 281.394 454.612H142.484L178.374 280.342Z" fill="#FFC100"/>
<path d="M382.147 416.371C382.147 416.371 324.857 316.001 314.547 303.121C303.257 289.021 294.247 290.651 294.247 290.651L288.188 358.261L336.897 427.371L348.508 431.561L382.147 416.371Z" fill="#FFC100"/>
<path d="M180.778 279.781C180.778 279.781 148.218 282.381 136.538 335.781C131.258 359.911 124.538 388.191 122.658 407.191C121.258 420.981 129.768 435.321 143.518 437.081L160.778 440.281C165.338 441.128 170.049 440.193 173.94 437.671C177.832 435.148 180.609 431.229 181.698 426.721L187.528 402.581L171.998 397.361L175.588 325.451L180.778 279.781Z" fill="#FFC100"/>
<path d="M299.994 328.121C300.071 328.362 300.121 328.61 300.144 328.861C300.234 329.401 300.334 330.121 300.474 331.011C300.544 331.481 300.614 332.011 300.704 332.571C300.794 333.131 300.824 333.761 300.884 334.431C301.024 335.761 301.184 337.281 301.254 338.971C301.496 342.923 301.522 346.886 301.334 350.841C301.101 355.682 300.62 360.509 299.894 365.301C299.144 370.401 298.204 375.221 297.254 379.581C296.304 383.941 295.354 387.851 294.544 391.131C293.734 394.411 293.024 397.041 292.544 398.861C292.304 399.731 292.114 400.431 291.964 400.951C291.904 401.196 291.827 401.437 291.734 401.671C291.755 401.421 291.798 401.173 291.864 400.931C291.984 400.391 292.154 399.691 292.354 398.811L294.194 391.001C294.964 387.711 295.884 383.801 296.794 379.441C297.704 375.081 298.644 370.271 299.394 365.181C300.144 360.091 300.654 355.181 300.864 350.771C301.074 346.361 301.094 342.311 300.864 338.951C300.864 337.271 300.684 335.751 300.574 334.411C300.524 333.751 300.474 333.131 300.434 332.551C300.394 331.971 300.304 331.471 300.254 330.991C300.154 330.101 300.084 329.381 300.024 328.841C299.998 328.602 299.988 328.361 299.994 328.121Z" fill="#263238"/>
<path d="M189.046 405.161C188.977 405.019 188.92 404.872 188.876 404.721C188.776 404.391 188.636 403.971 188.466 403.431L187.826 401.361C187.646 400.419 187.249 399.532 186.666 398.771C185.81 397.949 184.786 397.322 183.666 396.931C182.349 396.433 180.99 396.051 179.606 395.791C176.306 395.179 172.961 394.845 169.606 394.791H169.336V394.531L172.276 375.361C174.166 363.291 175.886 352.361 177.136 344.361C177.786 340.441 178.306 337.251 178.676 334.991C178.856 333.921 179.006 333.071 179.116 332.441C179.116 332.181 179.206 331.961 179.246 331.781C179.253 331.704 179.273 331.63 179.306 331.561C179.321 331.636 179.321 331.715 179.306 331.791C179.306 331.971 179.306 332.191 179.226 332.461C179.146 333.091 179.026 333.941 178.886 335.021C178.556 337.291 178.086 340.491 177.516 344.421C176.296 352.421 174.636 363.331 172.796 375.421C171.716 382.321 170.706 388.851 169.796 394.581L169.566 394.311C172.962 394.398 176.344 394.776 179.676 395.441C181.079 395.721 182.455 396.125 183.786 396.651C184.952 397.078 186.008 397.762 186.876 398.651C187.233 399.052 187.499 399.526 187.656 400.041L188.026 401.371C188.256 402.181 188.446 402.881 188.606 403.461C188.766 404.041 188.866 404.461 188.946 404.771C188.991 404.897 189.025 405.028 189.046 405.161Z" fill="#263238"/>
<path d="M144.195 413.32C144.227 412.865 144.315 412.415 144.455 411.98C144.77 410.775 145.191 409.6 145.715 408.47C147.421 404.693 150.079 401.425 153.43 398.986C156.78 396.548 160.707 395.022 164.825 394.56C166.059 394.409 167.304 394.369 168.545 394.44C169.004 394.446 169.46 394.503 169.905 394.61C168.234 394.62 166.565 394.723 164.905 394.92C160.881 395.475 157.056 397.016 153.771 399.407C150.485 401.797 147.842 404.962 146.075 408.62C145.365 410.152 144.738 411.721 144.195 413.32Z" fill="#263238"/>
<path d="M151.727 386.74C151.981 386.675 152.244 386.652 152.507 386.67C153.225 386.657 153.943 386.69 154.657 386.77C157.018 387.008 159.332 387.587 161.527 388.49C163.721 389.398 165.775 390.614 167.627 392.1C168.188 392.544 168.719 393.025 169.217 393.54C169.567 393.91 169.757 394.12 169.727 394.15C169.697 394.18 168.847 393.45 167.407 392.39C163.63 389.623 159.237 387.818 154.607 387.13C152.837 386.87 151.727 386.83 151.727 386.74Z" fill="#263238"/>
<path d="M185.428 317.671C185.362 317.197 185.339 316.719 185.358 316.241C185.358 315.321 185.298 314.001 185.178 312.371C184.878 308.118 184.147 303.907 182.998 299.801C181.832 295.702 180.261 291.729 178.308 287.941C177.548 286.491 176.908 285.331 176.438 284.551C176.174 284.152 175.947 283.73 175.758 283.291C176.077 283.647 176.362 284.032 176.608 284.441C177.138 285.201 177.828 286.331 178.608 287.771C182.77 295.324 185.131 303.736 185.508 312.351C185.578 313.991 185.568 315.351 185.508 316.241C185.528 316.719 185.502 317.198 185.428 317.671Z" fill="#263238"/>
<g opacity="0.3">
<path d="M298.516 372.91C306.816 358.84 306.996 340.56 299.746 325.91C302.077 341.519 301.576 357.42 298.266 372.85" fill="black"/>
</g>
<g opacity="0.3">
<path d="M224.615 388.821C218.315 390.671 209.615 391.121 203.445 388.821C208.255 395.651 217.525 398.121 225.565 395.901C233.605 393.681 241.025 385.631 241.645 377.301C237.755 382.561 230.925 387.001 224.615 388.821Z" fill="black"/>
</g>
<path d="M247.794 366.1C247.765 366.292 247.715 366.479 247.644 366.66C247.524 367.02 247.384 367.57 247.104 368.23C246.375 370.141 245.468 371.979 244.394 373.72C242.811 376.316 240.899 378.696 238.704 380.8C233.321 386.041 226.371 389.377 218.914 390.3C215.9 390.691 212.848 390.691 209.834 390.3C207.799 390.047 205.79 389.608 203.834 388.99C203.134 388.78 202.624 388.55 202.264 388.42C202.082 388.358 201.904 388.281 201.734 388.19C202.461 388.353 203.178 388.554 203.884 388.79C212.351 391.144 221.381 390.396 229.344 386.68C237.228 382.804 243.457 376.225 246.894 368.14C247.474 366.84 247.744 366.08 247.794 366.1Z" fill="#263238"/>
<path d="M177.559 436.111C177.559 436.111 177.489 436.221 177.309 436.381C177.057 436.632 176.786 436.863 176.499 437.071C175.453 437.852 174.293 438.465 173.059 438.891C171.225 439.501 169.311 439.838 167.379 439.891C165.043 439.965 162.704 439.882 160.379 439.641C155.379 439.211 150.939 438.481 147.729 437.911C146.119 437.621 144.819 437.371 143.929 437.181C143.455 437.117 142.989 437.003 142.539 436.841C143.015 436.849 143.49 436.895 143.959 436.981L147.789 437.541C151.009 438.031 155.469 438.691 160.429 439.121C162.754 439.362 165.092 439.458 167.429 439.411C169.322 439.372 171.2 439.069 173.009 438.511C174.637 437.944 176.171 437.135 177.559 436.111Z" fill="#263238"/>
<path d="M290.498 173L294.608 169C300.078 171.38 302.608 177.73 303.538 183.63C304.468 189.53 304.328 195.73 306.838 201.15C308.758 205.32 312.248 209.15 311.838 213.76C311.448 218.11 307.508 221.63 307.488 226C307.488 230.21 310.988 233.44 313.028 237.12C317.158 244.57 319.838 275.05 317.678 283.3C299.508 281.73 267.328 279.79 249.148 275.61C253.938 244.29 274.108 200.09 290.498 173Z" fill="#263238"/>
<path d="M298.63 200.921C299.89 179.631 284.43 160.151 262.88 157.581C240.01 154.861 219.78 171.241 217.88 193.521L212.52 283.461C212.422 285.199 212.908 286.92 213.9 288.351C219.18 296.071 228.74 302.111 237.29 303.301C245.56 304.451 253.95 302.301 260.99 298.381C262.158 297.72 263.132 296.765 263.815 295.611C264.497 294.456 264.865 293.142 264.88 291.801L265.25 271.671C265.249 271.653 265.251 271.636 265.257 271.619C265.263 271.603 265.272 271.588 265.285 271.575C265.297 271.563 265.312 271.553 265.329 271.547C265.345 271.541 265.363 271.539 265.38 271.541C267.264 271.683 269.157 271.629 271.03 271.381C276.35 270.081 289.92 264.861 294.48 244.941C296 238.341 297.52 219.591 298.63 200.921Z" fill="#FFBE9D"/>
<path d="M269.047 230.33C269.047 230.13 271.277 229.91 274.887 229.71C275.797 229.71 276.667 229.56 276.887 228.96C277.021 228.043 276.867 227.107 276.447 226.28L274.207 219.28C271.107 209.36 268.927 201.23 269.327 201.12C269.727 201.01 272.577 208.94 275.677 218.86C276.417 221.31 277.127 223.64 277.807 225.86C278.087 226.86 278.597 228.08 278.047 229.39C277.894 229.696 277.673 229.962 277.4 230.168C277.128 230.374 276.812 230.515 276.477 230.58C275.967 230.682 275.446 230.719 274.927 230.69C271.287 230.67 269.057 230.53 269.047 230.33Z" fill="#263238"/>
<path d="M292.751 208.45C292.361 208.88 290.001 206.9 286.621 206.8C283.241 206.7 280.721 208.47 280.361 208.01C280.181 207.8 280.591 207.01 281.691 206.19C283.144 205.146 284.902 204.612 286.691 204.67C288.478 204.732 290.192 205.39 291.561 206.54C292.611 207.44 293.001 208.26 292.751 208.45Z" fill="#263238"/>
<path d="M258.412 209.311C257.952 209.741 255.492 207.511 251.802 207.191C248.112 206.871 245.242 208.561 244.872 208.061C244.692 207.831 245.192 207.061 246.442 206.241C248.116 205.249 250.064 204.815 252.002 205.001C253.941 205.173 255.773 205.97 257.222 207.271C258.312 208.241 258.632 209.121 258.412 209.311Z" fill="#263238"/>
<path d="M265.244 271.531C265.244 271.531 251.464 271.681 234.984 260.361C234.984 260.361 239.244 278.541 265.134 277.971L265.244 271.531Z" fill="#EB996E"/>
<path d="M267.001 238.631C266.374 237.746 265.534 237.032 264.559 236.555C263.584 236.078 262.506 235.853 261.421 235.901C260.639 235.912 259.866 236.081 259.15 236.397C258.433 236.713 257.788 237.17 257.251 237.741C256.739 238.287 256.411 238.98 256.313 239.723C256.214 240.465 256.35 241.22 256.701 241.881C257.571 243.271 259.551 243.721 261.281 243.361C262.995 242.892 264.599 242.09 266.001 241.001C266.418 240.734 266.784 240.396 267.081 240.001C267.222 239.816 267.305 239.594 267.319 239.363C267.333 239.132 267.278 238.901 267.161 238.701" fill="#EB996E"/>
<path d="M258.446 232C259.026 232 258.796 235.8 261.916 238.72C265.036 241.64 269.166 241.5 269.166 242.03C269.166 242.28 268.166 242.71 266.466 242.63C264.212 242.505 262.071 241.604 260.406 240.08C258.82 238.63 257.865 236.616 257.746 234.47C257.696 232.88 258.186 232 258.446 232Z" fill="#263238"/>
<path d="M258.994 195.371C258.574 196.291 255.064 195.581 250.874 195.751C246.684 195.921 243.234 196.751 242.734 195.901C242.524 195.471 243.164 194.631 244.594 193.811C246.496 192.82 248.596 192.27 250.739 192.201C252.882 192.132 255.013 192.545 256.974 193.411C258.424 194.131 259.134 194.931 258.994 195.371Z" fill="#263238"/>
<path d="M293.48 196.12C292.76 196.92 289.91 196.12 286.48 196.12C283.05 196.12 280.17 196.69 279.48 195.86C279.18 195.46 279.63 194.66 280.89 193.86C282.635 192.945 284.582 192.488 286.551 192.53C288.52 192.572 290.446 193.112 292.15 194.1C293.39 194.91 293.8 195.73 293.48 196.12Z" fill="#263238"/>
<path d="M265.999 153.081C264.139 149.921 260.689 148.481 256.829 147.901C241.069 145.511 223.489 155.001 214.659 168.261C205.829 181.521 205.359 201.311 211.819 215.871L221.649 209.731C241.379 201.591 255.309 182.581 267.999 162.941C269.769 160.271 267.649 155.831 265.999 153.081Z" fill="#263238"/>
<path d="M290.275 161.751C283.685 154.251 278.895 146.751 265.215 151.991C263.215 155.821 267.215 160.791 270.655 163.691C275.655 167.951 279.945 170.821 283.205 173.871C289.785 180.021 297.265 200.711 297.915 212.001C297.915 212.711 299.165 202.311 299.915 202.201C300.835 202.061 304.545 197.521 304.035 191.321C302.275 170.131 296.865 169.241 290.275 161.751Z" fill="#263238"/>
<path d="M256.867 147.901C257.895 147.701 258.958 147.791 259.937 148.161C262.358 148.904 264.516 150.323 266.157 152.251C266.626 152.793 267.041 153.379 267.397 154.001C267.708 154.602 267.95 155.236 268.117 155.891C268.474 156.947 268.745 158.031 268.927 159.131C269.197 161.061 268.737 162.231 268.637 162.201C268.537 162.171 268.687 161.021 268.267 159.251C267.99 158.204 267.656 157.172 267.267 156.161C267.09 155.57 266.855 154.997 266.567 154.451C266.229 153.878 265.841 153.336 265.407 152.831C263.859 151.037 261.9 149.644 259.697 148.771C257.997 148.161 256.847 148.061 256.867 147.901Z" fill="#455A64"/>
<path d="M289.625 215.001C289.626 215.768 289.334 216.506 288.807 217.064C288.281 217.622 287.561 217.957 286.795 218.001C286.415 218.036 286.031 217.996 285.667 217.881C285.302 217.766 284.965 217.58 284.673 217.334C284.381 217.087 284.142 216.784 283.969 216.444C283.796 216.103 283.693 215.732 283.665 215.351C283.646 214.572 283.93 213.816 284.458 213.243C284.986 212.67 285.717 212.325 286.495 212.281C286.881 212.244 287.271 212.286 287.64 212.404C288.01 212.522 288.351 212.714 288.644 212.969C288.937 213.223 289.175 213.535 289.343 213.884C289.512 214.233 289.608 214.613 289.625 215.001Z" fill="#263238"/>
<path d="M256.688 215.161C256.707 215.941 256.423 216.697 255.894 217.27C255.366 217.843 254.636 218.188 253.858 218.231C253.478 218.268 253.095 218.229 252.73 218.116C252.366 218.002 252.028 217.817 251.736 217.571C251.445 217.325 251.205 217.023 251.032 216.683C250.859 216.343 250.755 215.972 250.728 215.591C250.706 214.811 250.989 214.052 251.517 213.477C252.046 212.902 252.778 212.555 253.558 212.511C253.938 212.474 254.322 212.514 254.687 212.628C255.052 212.742 255.391 212.928 255.683 213.175C255.974 213.422 256.214 213.725 256.386 214.067C256.559 214.408 256.661 214.78 256.688 215.161Z" fill="#263238"/>
<path d="M166.048 240.191C167.908 237.131 170.048 234.251 173.448 232.981C176.848 231.711 180.708 230.981 183.378 228.501C187.568 224.651 187.378 218.251 186.998 212.671C186.618 207.091 186.518 200.671 190.798 196.921C194.378 193.791 200.068 193.511 203.168 189.921C205.238 187.531 205.648 184.231 206.368 181.181C208.368 173.011 212.838 158.741 236.918 150.531L215.618 231.471C217.208 231.921 221.008 235.541 221.218 237.991C221.408 240.281 220.418 242.601 220.398 244.901C220.398 247.711 223.458 249.391 225.398 251.471C227.858 254.121 228.618 257.941 228.238 261.471C227.45 266.296 226.159 271.025 224.388 275.581C204.628 273.581 175.788 272.941 160.728 260.341C157.998 258.061 161.908 247.001 166.048 240.191Z" fill="#263238"/>
<path d="M221.687 209.73C221.317 209.53 206.767 203.73 205.837 219.08C204.907 234.43 220.477 232.15 220.527 231.72C220.577 231.29 221.687 209.73 221.687 209.73Z" fill="#FFBE9D"/>
<path d="M216.205 225.641C216.135 225.581 215.925 225.811 215.455 225.981C214.805 226.219 214.087 226.194 213.455 225.911C211.875 225.211 210.665 222.561 210.755 219.801C210.806 218.486 211.147 217.199 211.755 216.031C211.929 215.562 212.214 215.142 212.585 214.806C212.955 214.47 213.401 214.229 213.885 214.101C214.197 214.039 214.521 214.088 214.8 214.239C215.08 214.391 215.297 214.636 215.415 214.931C215.595 215.371 215.475 215.671 215.555 215.701C215.635 215.731 215.905 215.461 215.815 214.821C215.757 214.435 215.566 214.081 215.275 213.821C214.874 213.476 214.353 213.303 213.825 213.341C213.189 213.426 212.585 213.672 212.072 214.058C211.559 214.443 211.154 214.954 210.895 215.541C210.164 216.831 209.759 218.279 209.715 219.761C209.625 222.851 211.025 225.831 213.205 226.601C213.608 226.748 214.039 226.8 214.465 226.755C214.891 226.71 215.302 226.569 215.665 226.341C216.155 226.001 216.255 225.671 216.205 225.641Z" fill="#EB996E"/>
<path d="M276.141 213.741C276.222 212.587 276.386 211.441 276.631 210.311C277.093 208.419 277.945 206.646 279.132 205.102C280.319 203.559 281.814 202.28 283.523 201.348C285.232 200.415 287.117 199.849 289.057 199.686C290.997 199.523 292.95 199.766 294.791 200.401C296.058 200.828 297.252 201.449 298.331 202.241C299.482 203.037 300.496 204.016 301.331 205.141C303.122 207.487 304.115 210.346 304.161 213.298C304.208 216.25 303.307 219.139 301.591 221.541C300.798 222.689 299.825 223.702 298.711 224.541C297.66 225.369 296.486 226.027 295.231 226.491C292.91 227.384 290.393 227.64 287.941 227.231C285.802 226.878 283.777 226.024 282.031 224.741C279.474 222.881 277.618 220.214 276.761 217.171C276.485 216.045 276.284 214.903 276.161 213.751C276.156 213.827 276.156 213.904 276.161 213.981C276.161 214.171 276.161 214.391 276.161 214.661C276.169 215.026 276.206 215.391 276.271 215.751C276.326 216.247 276.419 216.739 276.551 217.221C277.353 220.352 279.207 223.112 281.801 225.041C283.722 226.478 285.975 227.406 288.351 227.738C290.727 228.071 293.149 227.796 295.391 226.941C298.052 225.935 300.353 224.159 302.001 221.841C303.784 219.352 304.72 216.357 304.671 213.296C304.623 210.235 303.592 207.271 301.731 204.841C300.864 203.681 299.818 202.669 298.631 201.841C297.522 201.045 296.298 200.424 295.001 200.001C292.733 199.217 290.305 199.02 287.941 199.427C285.577 199.835 283.355 200.833 281.481 202.331C278.944 204.343 277.178 207.168 276.481 210.331C276.366 210.818 276.286 211.312 276.241 211.811C276.192 212.175 276.168 212.543 276.171 212.911C276.171 213.181 276.171 213.401 276.171 213.581C276.158 213.633 276.148 213.687 276.141 213.741Z" fill="#455A64"/>
<path d="M237.498 214.361C237.579 213.208 237.739 212.062 237.978 210.931C238.73 207.863 240.491 205.138 242.978 203.191C244.685 201.853 246.682 200.935 248.808 200.511C251.247 200.029 253.77 200.205 256.118 201.021C257.384 201.453 258.578 202.073 259.658 202.861C260.808 203.66 261.821 204.639 262.658 205.761C264.448 208.106 265.44 210.962 265.488 213.912C265.537 216.861 264.64 219.748 262.928 222.151C262.131 223.299 261.156 224.311 260.038 225.151C258.988 225.979 257.813 226.638 256.558 227.101C254.238 227.995 251.721 228.25 249.268 227.841C247.133 227.488 245.111 226.635 243.368 225.351C240.81 223.491 238.95 220.825 238.088 217.781C237.813 216.656 237.616 215.513 237.498 214.361C237.488 214.437 237.488 214.515 237.498 214.591C237.498 214.771 237.498 215.001 237.498 215.271C237.498 215.637 237.531 216.001 237.598 216.361C237.652 216.858 237.749 217.35 237.888 217.831C238.683 220.966 240.538 223.729 243.138 225.651C244.907 226.979 246.962 227.876 249.138 228.271C251.668 228.707 254.268 228.458 256.668 227.551C259.334 226.553 261.637 224.776 263.278 222.451C265.061 219.963 265.998 216.967 265.949 213.906C265.901 210.846 264.87 207.881 263.008 205.451C261.288 203.184 258.931 201.481 256.238 200.561C253.809 199.731 251.202 199.568 248.688 200.091C246.011 200.641 243.55 201.952 241.599 203.866C239.648 205.779 238.29 208.215 237.688 210.881C237.564 211.366 237.484 211.861 237.448 212.361C237.389 212.724 237.366 213.093 237.378 213.461V214.131C237.401 214.215 237.442 214.294 237.498 214.361Z" fill="#455A64"/>
<path d="M265.102 213.311C265.182 213.361 265.582 212.711 266.512 211.961C267.704 210.973 269.197 210.419 270.745 210.392C272.294 210.365 273.805 210.865 275.032 211.811C276.032 212.521 276.412 213.161 276.482 213.101C276.233 212.47 275.81 211.922 275.262 211.521C274.009 210.425 272.393 209.835 270.729 209.866C269.064 209.898 267.472 210.549 266.262 211.691C265.731 212.112 265.329 212.673 265.102 213.311Z" fill="#455A64"/>
<path d="M218.164 208.75C219.084 209.042 220.033 209.237 220.994 209.33C222.764 209.61 225.214 209.87 227.914 210.11L234.844 210.73C235.794 210.877 236.753 210.95 237.714 210.95C236.794 210.656 235.845 210.458 234.884 210.36C233.124 210.09 230.674 209.83 227.964 209.59L221.044 208.97C220.092 208.818 219.128 208.744 218.164 208.75Z" fill="#455A64"/>
<path d="M298.461 222.39C299.709 220.948 300.721 219.318 301.461 217.56C302.042 215.74 302.335 213.84 302.331 211.93C302.553 212.468 302.656 213.048 302.631 213.63C302.667 215.03 302.436 216.425 301.951 217.74C301.467 219.054 300.734 220.263 299.791 221.3C299.061 222.08 298.501 222.44 298.461 222.39Z" fill="white"/>
<path d="M300.882 206.591C300.962 206.471 301.532 206.761 301.882 207.441C302.232 208.121 302.082 208.741 301.942 208.731C301.802 208.721 301.682 208.211 301.412 207.661C301.142 207.111 300.792 206.701 300.882 206.591Z" fill="white"/>
<path d="M263.156 219.36C263.076 219.36 263.356 218.56 263.586 217.27C264.176 213.886 263.526 210.404 261.756 207.46C261.086 206.34 260.546 205.72 260.606 205.66C261.195 206.09 261.692 206.634 262.066 207.26C263.07 208.714 263.761 210.361 264.093 212.097C264.425 213.832 264.392 215.618 263.996 217.34C263.855 218.063 263.57 218.75 263.156 219.36Z" fill="white"/>
<path d="M210 231.51C210 231.51 209.79 231.81 209.49 232.36C209.06 233.141 208.833 234.018 208.83 234.91C208.814 235.556 208.932 236.199 209.176 236.798C209.42 237.397 209.786 237.939 210.25 238.39C210.809 238.946 211.492 239.361 212.243 239.603C212.994 239.845 213.791 239.905 214.57 239.78C215.344 239.62 216.07 239.284 216.691 238.796C217.312 238.309 217.812 237.683 218.15 236.97C218.423 236.383 218.574 235.748 218.593 235.101C218.612 234.454 218.499 233.811 218.26 233.21C217.944 232.378 217.429 231.636 216.76 231.05C216.28 230.64 215.96 230.47 215.98 230.43C216.31 230.514 216.618 230.672 216.88 230.89C217.643 231.444 218.238 232.199 218.6 233.07C218.89 233.714 219.04 234.413 219.04 235.12C219.04 235.826 218.89 236.525 218.6 237.17C218.256 237.973 217.718 238.679 217.033 239.223C216.349 239.768 215.541 240.133 214.68 240.288C213.82 240.443 212.934 240.381 212.104 240.109C211.273 239.837 210.522 239.363 209.92 238.73C209.422 238.23 209.035 237.63 208.785 236.97C208.535 236.31 208.428 235.604 208.47 234.9C208.504 233.958 208.799 233.045 209.32 232.26C209.67 231.71 210 231.49 210 231.51Z" fill="#E0E0E0"/>
<path d="M294.47 243.311C295.316 243.65 296.249 243.706 297.13 243.471C298.072 243.207 298.921 242.684 299.58 241.961C300.392 241.084 300.94 239.996 301.16 238.821C301.389 237.646 301.242 236.428 300.74 235.341C300.328 234.45 299.716 233.666 298.95 233.051C298.211 232.511 297.404 232.07 296.55 231.741C296.804 231.718 297.061 231.753 297.3 231.841C297.976 232.029 298.613 232.337 299.18 232.751C300.029 233.375 300.715 234.195 301.18 235.141C301.751 236.31 301.927 237.634 301.68 238.911C301.435 240.188 300.824 241.366 299.92 242.301C299.187 243.066 298.244 243.598 297.21 243.831C296.517 243.995 295.792 243.957 295.12 243.721C294.65 243.531 294.45 243.331 294.47 243.311Z" fill="#E0E0E0"/>
<path d="M239 441.871L253.83 446.261C253.83 446.261 262.01 449.771 265.99 450.681C270.93 451.811 274.3 450.281 274.48 447.531C274.66 444.781 270.82 444.431 270.82 444.431C267.556 443.187 264.382 441.721 261.32 440.041C259.097 438.496 257.279 436.438 256.02 434.041L261.32 434.771C261.32 434.771 272.47 442.771 276.67 445.191C280.87 447.611 281.79 443.361 282.15 442.081C282.51 440.801 269.73 427.831 269.73 427.831C269.73 427.831 281.97 435.691 284.16 437.651C286.35 439.611 289.65 440.251 290.38 438.981C291.11 437.711 293.12 437.701 290.38 432.281C287.64 426.861 265.71 412.281 265.71 412.281L271.71 411.001L278.29 413.931C278.748 416.188 279.682 418.323 281.03 420.191C283.4 423.711 287.61 420.191 287.61 420.191L285 406.691L272 398.551C272 398.551 258.48 400.201 256.47 401.111C254.46 402.021 252.26 405.851 252.26 405.851L248.61 407.331C242.94 408.971 243.13 414.641 241.3 414.821C239.47 415.001 186.13 404.601 186.13 404.601L181.3 403.341C173.3 409.411 170.11 419.441 168.7 428.341C168.7 428.341 167.23 432.701 168.7 435.101L239 441.871Z" fill="#FFBE9D"/>
<path d="M229.205 432.38C229.142 432.094 229.125 431.801 229.155 431.51C229.151 431.174 229.182 430.839 229.245 430.51C229.292 430.056 229.379 429.608 229.505 429.17C230.256 426.645 231.527 424.305 233.235 422.3C234.894 420.284 236.743 418.433 238.755 416.77C239.553 416.043 240.42 415.396 241.345 414.84C240.605 415.606 239.821 416.327 238.995 417C237.072 418.723 235.28 420.589 233.635 422.58C231.975 424.542 230.696 426.797 229.865 429.23C229.275 431.14 229.315 432.39 229.205 432.38Z" fill="#EB996E"/>
<path d="M252.304 405.852C252.304 405.852 251.864 406.082 251.184 406.632C250.236 407.432 249.417 408.373 248.754 409.422C248.276 410.13 247.867 410.884 247.534 411.672C247.227 412.598 247.032 413.558 246.954 414.532C246.817 415.663 246.412 416.747 245.774 417.692C245.05 418.606 244.455 419.616 244.004 420.692C243.319 422.509 243.319 424.514 244.004 426.332L244.074 426.522L243.904 426.632C241.586 428.129 239.907 430.435 239.194 433.102C238.948 434.153 238.798 435.224 238.744 436.302C238.663 436.022 238.629 435.732 238.644 435.442C238.633 434.631 238.721 433.821 238.904 433.032C239.542 430.23 241.241 427.786 243.644 426.212L243.544 426.512C242.82 424.577 242.82 422.446 243.544 420.512C244.005 419.405 244.625 418.37 245.384 417.442C245.992 416.546 246.376 415.517 246.504 414.442C246.625 412.536 247.322 410.712 248.504 409.212C249.21 408.149 250.097 407.218 251.124 406.462C251.401 406.253 251.703 406.082 252.024 405.952C252.113 405.906 252.207 405.873 252.304 405.852Z" fill="#EB996E"/>
<path d="M265.148 411.831C263.869 411.997 262.568 411.859 261.352 411.428C260.136 410.997 259.038 410.286 258.148 409.351C258.248 409.231 259.588 410.261 261.518 410.931C263.448 411.601 265.148 411.681 265.148 411.831Z" fill="#EB996E"/>
<path d="M268.565 426.6C266.634 426.058 264.756 425.342 262.955 424.46C261.084 423.741 259.277 422.865 257.555 421.84C259.481 422.396 261.357 423.112 263.165 423.98C265.036 424.698 266.842 425.575 268.565 426.6Z" fill="#EB996E"/>
<path d="M256.539 433.901C254.598 433.243 252.701 432.461 250.859 431.561C251.903 431.607 252.925 431.873 253.859 432.341C254.856 432.659 255.771 433.191 256.539 433.901Z" fill="#EB996E"/>
<path d="M266.732 427.551C265.871 428.013 265.114 428.646 264.506 429.411C263.899 430.176 263.455 431.058 263.202 432.001C263.132 432.001 263.072 431.651 263.202 431.091C263.343 430.357 263.659 429.669 264.121 429.082C264.584 428.496 265.181 428.029 265.862 427.721C266.352 427.511 266.712 427.491 266.732 427.551Z" fill="#EB996E"/>
<path d="M272.087 419.441C272.147 419.581 271.167 420.081 270.507 421.201C270.171 421.912 269.891 422.647 269.667 423.401C269.525 422.988 269.488 422.547 269.558 422.116C269.627 421.685 269.802 421.278 270.067 420.931C270.827 419.651 272.067 419.301 272.087 419.441Z" fill="#EB996E"/>
<path d="M270.574 404.751C270.524 404.751 270.324 404.521 270.174 404.041C269.994 403.386 269.994 402.696 270.174 402.041C270.348 401.395 270.694 400.807 271.174 400.341C271.534 399.991 271.834 399.871 271.864 399.921C271.387 400.619 271.001 401.375 270.714 402.171C270.565 403.022 270.518 403.888 270.574 404.751Z" fill="#EB996E"/>
<path d="M378.688 409.35C378.688 409.35 378.018 396.23 364.418 393.51C350.818 390.79 326.998 402.35 326.998 402.35L260.258 448.86L262.258 454.61L329.998 445.17L336.198 447.55L383.778 416.29L428.678 383.83L423.678 379.92C423.678 379.92 411.098 388.59 402.778 392.32C394.458 396.05 382.428 402.59 378.688 409.35Z" fill="#F5F5F5"/>
<path d="M259.227 456.511L315.707 421.421L375.417 411.831C375.417 411.831 378.417 416.171 383.487 415.111L432.587 381.111L433.517 383.161L338.297 450.061C336.898 450.572 335.387 450.691 333.926 450.406C332.465 450.12 331.11 449.441 330.007 448.441L259.227 456.511Z" fill="#455A64"/>
<path d="M375.418 411.83C375.282 411.977 375.128 412.105 374.958 412.21L373.578 413.21C372.378 414.07 370.648 415.32 368.578 416.9C364.338 420.05 358.578 424.54 352.358 429.63C346.138 434.72 340.548 439.45 336.548 442.9L331.778 447L330.478 448.1C330.337 448.24 330.179 448.361 330.008 448.46C330.008 448.46 330.128 448.3 330.408 448.03L331.638 446.85C332.718 445.85 334.288 444.39 336.268 442.64C340.208 439.12 345.738 434.36 351.988 429.25C358.238 424.14 363.988 419.7 368.318 416.62C370.458 415.07 372.228 413.87 373.468 413.06L374.898 412.14C375.061 412.021 375.235 411.917 375.418 411.83Z" fill="#263238"/>
<path d="M374.807 404.53C369.397 398.72 360.877 396.65 352.957 397.27C345.037 397.89 337.527 400.84 330.137 403.77L261.047 451.06L261.667 452.84L331.127 405.84C331.127 405.84 346.647 400.84 353.517 399.98C364.997 398.55 374.807 404.53 374.807 404.53Z" fill="#E0E0E0"/>
<path d="M385.648 410.75L418.868 388.34C418.868 388.34 391.648 402.5 385.648 410.75Z" fill="#E0E0E0"/>
<path d="M261.047 451.061C261.132 450.975 261.226 450.897 261.327 450.831L262.187 450.221L265.497 447.891L277.737 439.411L318.237 411.601L329.997 403.601C336.688 400.582 343.75 398.46 350.997 397.291C356.851 396.464 362.82 397.307 368.217 399.721C370.235 400.66 372.094 401.908 373.727 403.421C374.948 404.559 375.987 405.878 376.807 407.331C377.323 408.242 377.726 409.213 378.007 410.221C378.077 410.551 378.137 410.811 378.187 411.011C378.209 411.1 378.226 411.19 378.237 411.281C377.877 409.932 377.346 408.635 376.657 407.421C375.817 406.006 374.772 404.722 373.557 403.611C371.92 402.145 370.073 400.931 368.077 400.011C362.732 397.688 356.845 396.898 351.077 397.731C343.888 398.909 336.882 401.017 330.237 404.001H330.287L318.527 412.001L277.997 439.711L265.657 448.061L262.297 450.301L261.407 450.881C261.293 450.953 261.173 451.014 261.047 451.061Z" fill="#263238"/>
<path d="M321.531 415.311C321.689 415.18 321.864 415.073 322.051 414.991C322.401 414.801 322.921 414.511 323.591 414.171C324.941 413.471 326.911 412.491 329.391 411.371C335.822 408.357 342.646 406.266 349.661 405.161C356.714 404.096 363.919 404.755 370.661 407.081C372.687 407.812 374.634 408.746 376.471 409.871C377.131 410.251 377.601 410.621 377.931 410.871C378.106 410.978 378.27 411.102 378.421 411.241C378.421 411.241 377.691 410.821 376.371 410.071C374.511 409.026 372.56 408.153 370.541 407.461C363.83 405.259 356.696 404.66 349.711 405.711C342.746 406.812 335.957 408.83 329.521 411.711C327.031 412.791 325.041 413.711 323.661 414.361L322.081 415.091C321.906 415.182 321.721 415.256 321.531 415.311Z" fill="#263238"/>
<path d="M426.9 382.42C426.9 382.42 426.76 382.55 426.47 382.75L425.18 383.61L420.39 386.69C416.33 389.29 410.74 392.88 404.61 396.92C398.48 400.96 393 404.67 389 407.37L384.27 410.55L382.97 411.4C382.825 411.506 382.667 411.594 382.5 411.66C382.624 411.529 382.761 411.412 382.91 411.31L384.16 410.38C385.24 409.58 386.82 408.45 388.79 407.06C392.73 404.29 398.21 400.52 404.35 396.48C410.49 392.44 416.12 388.9 420.22 386.38C422.27 385.12 423.94 384.12 425.1 383.44L426.45 382.66C426.592 382.566 426.743 382.486 426.9 382.42Z" fill="#263238"/>
<path d="M396.68 418.381C396.001 420.014 395.139 421.564 394.109 423.001C392.829 424.521 388.65 426.641 388.32 429.531C387.99 432.421 388.67 439.201 384.15 444.361C381.236 447.571 377.549 449.981 373.44 451.361L355.61 449.621L327.13 438.411C326.493 438.25 325.945 437.846 325.605 437.284C325.264 436.723 325.158 436.05 325.31 435.411C325.486 434.717 325.866 434.091 326.4 433.613C326.935 433.136 327.6 432.829 328.31 432.731L328.99 432.621C328.99 432.621 327.35 431.281 329.7 428.931C331.7 426.931 335.97 428.061 338.17 428.791C340.37 429.521 353.27 434.911 355.58 435.741C357.63 436.471 359.21 437.121 359.21 437.121C359.21 437.121 342.7 425.981 342.47 424.521C342.2 422.771 342.38 421.971 344.07 420.751C346.07 419.301 349.35 420.851 352.53 422.191C354.9 423.191 370.01 430.651 370.01 430.651C370.01 430.651 370.69 429.991 370.01 428.651C369.33 427.311 364.31 420.851 363.52 419.651C362.73 418.451 362.52 417.771 363.31 416.761C364.41 415.331 367.31 414.651 369.98 417.091C371.67 418.651 377.68 422.691 377.68 422.691L405.42 402.451C405.42 402.451 408.87 402.361 407.67 407.171C406.47 411.981 396.68 418.381 396.68 418.381Z" fill="#FFBE9D"/>
<path d="M376 435.251C374.89 435.004 373.856 434.494 372.986 433.762C372.116 433.031 371.434 432.101 371 431.051C371.13 430.971 371.94 432.211 373.32 433.361C374.7 434.511 376.07 435.101 376 435.251Z" fill="#EB996E"/>
<path d="M378.281 423.181C378.281 423.121 378.651 423.011 379.281 423.091C380.067 423.205 380.807 423.533 381.419 424.039C382.031 424.545 382.492 425.21 382.751 425.961C382.941 426.541 382.911 426.961 382.841 426.961C382.422 426.027 381.824 425.184 381.081 424.481C380.241 423.87 379.29 423.428 378.281 423.181Z" fill="#EB996E"/>
<path d="M379.59 428.751C379.44 428.751 379.37 427.261 378.78 425.561C378.19 423.861 377.36 422.611 377.48 422.561C378.359 423.309 378.984 424.312 379.27 425.431C379.718 426.478 379.829 427.637 379.59 428.751Z" fill="#EB996E"/>
<path d="M395.998 416.94C395.998 416.99 395.648 416.79 395.288 416.31C394.831 415.672 394.546 414.929 394.458 414.15C394.371 413.371 394.484 412.583 394.788 411.86C395.028 411.32 395.298 411.05 395.348 411.09C394.992 412.048 394.865 413.076 394.978 414.092C395.09 415.108 395.44 416.083 395.998 416.94Z" fill="#EB996E"/>
<path d="M370.924 442.23C370.282 442.377 369.616 442.377 368.974 442.23C367.42 441.955 365.929 441.4 364.574 440.59C363.225 439.798 361.956 438.877 360.784 437.84C360.262 437.458 359.801 436.999 359.414 436.48C359.99 436.77 360.527 437.129 361.014 437.55C362.233 438.491 363.509 439.356 364.834 440.14C366.146 440.918 367.564 441.501 369.044 441.87C370.184 442.11 370.924 442.15 370.924 442.23Z" fill="#EB996E"/>
<path d="M375.569 439.371C375.709 439.371 375.719 440.371 374.879 441.201C374.039 442.031 373.019 441.991 373.039 441.851C373.059 441.711 373.829 441.511 374.509 440.851C375.189 440.191 375.419 439.351 375.569 439.371Z" fill="#EB996E"/>
<path d="M382.374 434.37C382.434 434.37 382.434 434.64 382.244 435C381.982 435.443 381.586 435.793 381.114 436C380.646 436.227 380.118 436.304 379.604 436.22C379.204 436.14 379.004 435.98 379.034 435.92C379.064 435.86 379.954 436 380.894 435.53C381.834 435.06 382.234 434.32 382.374 434.37Z" fill="#EB996E"/>
<path d="M358.361 445.721C358.311 445.851 351.681 443.091 343.561 439.541C335.441 435.991 328.901 433.001 329.001 432.881C329.101 432.761 335.691 435.521 343.811 439.071C351.931 442.621 358.421 445.591 358.361 445.721Z" fill="#EB996E"/>
<path d="M422.453 203.324C422.805 200.694 419.164 198.524 416.423 198.324C415.109 198.379 413.793 198.265 412.507 197.984C409.825 196.984 408.758 193.494 406.144 192.364C404.186 191.524 401.935 192.274 400.035 193.244C398.136 194.214 396.266 195.444 394.162 195.584C392.321 195.704 390.315 195.004 388.709 195.924C387.505 196.614 386.878 198.024 385.772 198.864C384.618 199.583 383.287 199.95 381.935 199.924C380.584 199.888 379.239 200.112 377.97 200.584C377.345 200.836 376.817 201.287 376.464 201.871C376.111 202.455 375.953 203.14 376.012 203.824L422.453 203.324Z" fill="#EBEBEB"/>
<path d="M475.164 454.641C475.164 454.781 374.344 454.901 250.014 454.901C125.684 454.901 24.8438 454.781 24.8438 454.641C24.8438 454.501 125.644 454.381 250.014 454.381C374.384 454.381 475.164 454.491 475.164 454.641Z" fill="#263238"/>
<path d="M37.7231 348.11L59.4231 454.64H247.773C248.77 454.64 249.727 454.244 250.432 453.539C251.137 452.834 251.533 451.877 251.533 450.88C251.534 450.386 251.438 449.896 251.25 449.438C251.061 448.981 250.785 448.565 250.435 448.215C250.086 447.865 249.671 447.587 249.214 447.397C248.757 447.208 248.268 447.11 247.773 447.11H209.853L189.733 348C189.547 347.075 189.047 346.243 188.318 345.644C187.59 345.044 186.677 344.715 185.733 344.71L41.8031 343.17C41.1889 343.164 40.5811 343.295 40.0241 343.554C39.4672 343.813 38.9751 344.193 38.584 344.666C38.1929 345.14 37.9126 345.695 37.7636 346.291C37.6147 346.887 37.6008 347.508 37.7231 348.11Z" fill="#E0E0E0"/>
<path d="M37.7233 348.111L37.6633 347.791C37.6226 347.459 37.6226 347.123 37.6633 346.791C37.7344 346.153 37.9519 345.541 38.2988 345.001C38.6458 344.462 39.1128 344.01 39.6633 343.681C40.0457 343.446 40.4649 343.277 40.9033 343.181C41.3922 343.099 41.8882 343.069 42.3833 343.091H45.7733L54.2533 343.161L108.683 343.671L146.623 344.061L167.883 344.271L179.023 344.391L184.723 344.451C185.213 344.451 185.663 344.451 186.183 344.451C186.691 344.508 187.185 344.653 187.643 344.881C188.566 345.331 189.297 346.097 189.703 347.041C189.891 347.507 190.025 347.994 190.103 348.491L190.393 349.921C190.583 350.921 190.783 351.841 190.983 352.801C191.37 354.727 191.763 356.667 192.163 358.621C192.957 362.521 193.76 366.471 194.573 370.471C196.2 378.471 197.867 386.647 199.573 395.001C202.963 411.701 206.503 429.071 210.133 447.001L209.883 446.801H247.173C247.665 446.782 248.157 446.812 248.643 446.891C249.644 447.106 250.525 447.696 251.103 448.541C251.689 449.383 251.929 450.417 251.773 451.431C251.682 452.045 251.45 452.629 251.094 453.138C250.738 453.646 250.269 454.065 249.723 454.361C249.174 454.653 248.565 454.818 247.943 454.841H147.853H59.4233H59.2633V454.681C52.6233 421.931 47.2633 395.301 43.4933 376.841C41.6333 367.621 40.1933 360.441 39.2133 355.561C38.7333 353.121 38.3667 351.271 38.1133 350.011C37.8633 348.751 37.7533 348.111 37.7533 348.111C37.7533 348.111 37.9033 348.751 38.1633 349.991C38.4233 351.231 38.8233 353.111 39.3233 355.531C40.3233 360.411 41.8133 367.581 43.7133 376.801C47.4933 395.251 52.9433 421.871 59.6533 454.601L59.4533 454.441L147.883 454.391H247.903C248.441 454.369 248.967 454.229 249.443 453.981C249.916 453.72 250.324 453.355 250.634 452.913C250.944 452.471 251.149 451.964 251.233 451.431C251.362 450.545 251.155 449.642 250.653 448.901C250.142 448.171 249.374 447.661 248.503 447.471C248.053 447.403 247.598 447.376 247.143 447.391H209.643V447.191C206.013 429.281 202.483 411.911 199.103 395.191C197.403 386.831 195.737 378.651 194.103 370.651L191.703 358.801C191.313 356.851 190.913 354.911 190.523 352.991C190.333 351.991 190.133 351.061 189.943 350.111L189.653 348.671C189.578 348.207 189.458 347.751 189.293 347.311C189.018 346.679 188.581 346.132 188.026 345.725C187.471 345.317 186.818 345.064 186.133 344.991C185.693 344.991 185.193 344.991 184.723 344.991L179.023 344.921L167.873 344.801L146.623 344.551L108.673 344.101L54.2433 343.431L45.7733 343.321L42.3833 343.271C41.8952 343.241 41.4053 343.268 40.9233 343.351C40.4936 343.439 40.0815 343.598 39.7033 343.821C39.1639 344.136 38.7034 344.57 38.3568 345.09C38.0102 345.61 37.7868 346.202 37.7033 346.821C37.6636 347.25 37.6703 347.683 37.7233 348.111Z" fill="#263238"/>
<path d="M118.29 403.081C121.726 403.081 124.51 400.296 124.51 396.861C124.51 393.425 121.726 390.641 118.29 390.641C114.855 390.641 112.07 393.425 112.07 396.861C112.07 400.296 114.855 403.081 118.29 403.081Z" fill="white"/>
<path d="M37.9062 349C37.9062 349 38.1262 349 38.5562 349H47.7762L74.7062 349.13L163.556 349.75L176.406 349.86H179.566C180.105 349.84 180.644 349.873 181.176 349.96C181.99 350.126 182.742 350.513 183.349 351.08C183.956 351.646 184.395 352.37 184.616 353.17C184.856 354.17 185.026 355.17 185.236 356.17L189.826 379.31C192.736 394.06 195.366 407.31 197.566 418.5C199.766 429.69 201.566 438.67 202.746 444.92C203.346 448.03 203.806 450.45 204.126 452.11C204.276 452.92 204.396 453.55 204.476 453.99C204.556 454.43 204.576 454.63 204.576 454.63C204.576 454.63 204.516 454.42 204.426 454C204.336 453.58 204.196 452.94 204.026 452.13L202.546 445C201.286 438.75 199.466 429.74 197.206 418.61C194.946 407.48 192.306 394.18 189.356 379.44C187.886 372.07 186.356 364.33 184.736 356.31C184.526 355.31 184.346 354.31 184.126 353.31C183.862 352.36 183.257 351.541 182.426 351.01C182.014 350.746 181.556 350.563 181.076 350.47C180.574 350.388 180.065 350.358 179.556 350.38H176.406L163.556 350.28L74.7062 349.5L47.7762 349.2L40.4562 349H38.5462H37.9062Z" fill="#263238"/>
</svg>
