<svg width="110" height="118" viewBox="0 0 110 118" fill="none" xmlns="http://www.w3.org/2000/svg">
<path d="M1.5 109.5H12M1.5 110V114C1.5 115.105 2.39543 116 3.5 116H106C107.105 116 108 115.105 108 114V111.5C108 110.395 107.105 109.5 106 109.5H98M12 109.5L5.80881 71.1146C5.1224 66.8589 8.40875 63 12.7195 63H22.5M12 109.5H98M98 109.5L104.191 71.1146C104.878 66.8589 101.591 63 97.2805 63H88M88 63C84.8333 60.6667 76.4 55.9 68 55.5C59.6 55.1 59.8333 49.6667 61 47M88 63H22.5M61 47C57 48.6 49.1449 48.1664 45.5 47M61 47C64.7301 45.5561 70.7884 38.952 72.8153 23.5M45.5 47C45 49.8333 42.3 55.5 35.5 55.5C28.7 55.5 24 60.5 22.5 63M45.5 47C35.9435 43.9419 33.6931 34.7467 33.3866 25M72.8153 23.5C73.5958 17.5492 73.7785 10.286 73 1.5C73.1667 3.33333 71.2 7 62 7V7C53.4593 7 41.3779 1.65457 36.1892 8.43844C34.6627 10.4342 33.623 12.9257 33.5 16C33.3823 18.9435 33.2922 21.9979 33.3866 25M72.8153 23.5C71.8768 21 68.4 16 62 16C57.4423 16 51.2618 16 46.6366 16C43.5729 16 40.4324 16.4856 38.0907 18.4611C36.2842 19.9851 34.4297 22.1593 33.3866 25M54.25 96.5H55.75C61.1348 96.5 65.5 92.1348 65.5 86.75V86.75C65.5 81.3652 61.1348 77 55.75 77H54.25C48.8652 77 44.5 81.3652 44.5 86.75V86.75C44.5 92.1348 48.8652 96.5 54.25 96.5Z" stroke="#FFD193" stroke-width="3" stroke-linecap="round" stroke-linejoin="round"/>
</svg>
