<svg width="112" height="104" viewBox="0 0 112 104" fill="none" xmlns="http://www.w3.org/2000/svg">
<mask id="mask0_1306_42" style="mask-type:luminance" maskUnits="userSpaceOnUse" x="0" y="0" width="112" height="104">
<path d="M111.66 0H0V103.41H111.66V0Z" fill="white"/>
</mask>
<g mask="url(#mask0_1306_42)">
<path d="M51.0991 103.37C69.6591 102.27 85.809 93.8703 95.359 83.9903C108.819 70.0803 114.229 51.1503 110.519 31.5303C105.899 7.07031 84.289 -2.36969 74.259 0.530313C64.229 3.43031 58.949 14.5303 53.169 26.1803C46.709 39.1803 34.029 50.4203 27.169 57.3903C20.309 64.3603 12.769 75.9803 19.659 87.9003C26.549 99.8203 42.1991 103.89 51.0991 103.37Z" fill="#9B9B9B"/>
<path d="M20.5391 33.4004V68.7604Z" fill="#9B9B9B"/>
<path d="M20.5391 33.4004V68.7604" stroke="#F3B85B" stroke-width="2.31" stroke-miterlimit="10" stroke-linecap="square"/>
<path d="M40.0312 33.4004V68.7604Z" fill="#9B9B9B"/>
<path d="M40.0312 33.4004V68.7604" stroke="#F3B85B" stroke-width="2.31" stroke-miterlimit="10" stroke-linecap="square"/>
<path d="M59.5195 33.4004V68.7604Z" fill="#9B9B9B"/>
<path d="M59.5195 33.4004V68.7604" stroke="#F3B85B" stroke-width="2.31" stroke-miterlimit="10" stroke-linecap="square"/>
<path d="M69.2695 40.3906V61.7806Z" fill="#9B9B9B"/>
<path d="M69.2695 40.3906V61.7806" stroke="#F3B85B" stroke-width="2.31" stroke-miterlimit="10" stroke-linecap="square"/>
<path d="M10.7891 40.3906V61.7806Z" fill="#9B9B9B"/>
<path d="M10.7891 40.3906V61.7806" stroke="#F3B85B" stroke-width="2.31" stroke-miterlimit="10" stroke-linecap="square"/>
<path d="M79.0195 45.5195V56.6495Z" fill="#9B9B9B"/>
<path d="M79.0195 45.5195V56.6495" stroke="#F3B85B" stroke-width="2.09" stroke-miterlimit="10" stroke-linecap="square"/>
<path d="M1.05078 45.5195V56.6495Z" fill="#9B9B9B"/>
<path d="M1.05078 45.5195V56.6495" stroke="#F3B85B" stroke-width="2.09" stroke-miterlimit="10" stroke-linecap="square"/>
<path d="M30.2891 28.7207V73.4507Z" fill="#9B9B9B"/>
<path d="M30.2891 28.7207V73.4507" stroke="#F3B85B" stroke-width="2.31" stroke-miterlimit="10" stroke-linecap="square"/>
<path d="M49.7812 28.7207V73.4507Z" fill="#9B9B9B"/>
<path d="M49.7812 28.7207V73.4507" stroke="#F3B85B" stroke-width="2.31" stroke-miterlimit="10" stroke-linecap="square"/>
</g>
</svg>
