<svg width="111" height="105" viewBox="0 0 111 105" fill="none" xmlns="http://www.w3.org/2000/svg">
<g filter="url(#filter0_d_1184_1468)">
<mask id="mask0_1184_1468" style="mask-type:luminance" maskUnits="userSpaceOnUse" x="0" y="0" width="111" height="105">
<path d="M111 0H0V104.22H111V0Z" fill="white"/>
</mask>
<g mask="url(#mask0_1184_1468)">
<path d="M110.971 62.351C111.872 39.651 94.1819 19.611 72.3783 20.241C67.3005 20.2289 62.3372 21.7623 58.1366 24.6409C48.4241 31.6409 47.4926 45.991 38.2162 53.071C28.3054 60.651 13.9745 58.951 4.99538 68.261C3.05023 70.3554 1.60927 72.8737 0.784298 75.6207C-0.0406812 78.3676 -0.2275 81.2694 0.238252 84.101C0.725652 86.965 1.84543 89.6817 3.51471 92.0498C5.18398 94.4179 7.35995 96.3766 9.88136 97.7809C16.4224 101.281 23.6871 100.101 30.4759 99.0509C39.3163 97.7009 47.0267 97.4409 55.5301 101.051C82.0016 112.411 109.722 91.3309 110.911 62.3609C110.961 62.4209 110.981 62.381 110.971 62.351Z" fill="#747474"/>
<path d="M43.2209 63.8335C43.2209 63.8335 43.2769 72.5934 36.2216 72.5934H27.6145C26.4196 72.5925 25.2614 72.1696 24.3349 71.3959C23.4047 70.619 22.7612 69.5396 22.5111 68.3365L20.2633 57.608C20.1834 57.2407 20.0249 56.8961 19.7994 56.5992C19.5733 56.3004 19.2832 56.059 18.9515 55.8938L15.3678 54.1057C14.8027 53.8296 14.3651 53.3382 14.1484 52.736C13.9317 52.1337 13.953 51.4686 14.208 50.8823L17.7356 42.5652C18.3447 41.1368 18.6866 39.6038 18.7435 38.0458C19.0155 30.6639 21.7992 7.14821 46.1486 7.00057C58.0513 6.93496 64.9066 12.5042 68.8582 19.066C74.0176 27.6455 76.0014 38.5134 71.4819 47.4702C69.2581 51.8747 62.8028 54.9833 62.8028 61.6599V80" stroke="#F3B85B" stroke-width="2.31" stroke-miterlimit="10" stroke-linecap="square"/>
<path d="M40 72.1602V81.6602" stroke="#F3B85B" stroke-width="2.31"/>
</g>
</g>
<defs>
<filter id="filter0_d_1184_1468" x="-4" y="5.8457" width="119" height="106.336" filterUnits="userSpaceOnUse" color-interpolation-filters="sRGB">
<feFlood flood-opacity="0" result="BackgroundImageFix"/>
<feColorMatrix in="SourceAlpha" type="matrix" values="0 0 0 0 0 0 0 0 0 0 0 0 0 0 0 0 0 0 127 0" result="hardAlpha"/>
<feOffset dy="4"/>
<feGaussianBlur stdDeviation="2"/>
<feComposite in2="hardAlpha" operator="out"/>
<feColorMatrix type="matrix" values="0 0 0 0 0 0 0 0 0 0 0 0 0 0 0 0 0 0 0.25 0"/>
<feBlend mode="normal" in2="BackgroundImageFix" result="effect1_dropShadow_1184_1468"/>
<feBlend mode="normal" in="SourceGraphic" in2="effect1_dropShadow_1184_1468" result="shape"/>
</filter>
</defs>
</svg>
