<svg width="111" height="112" viewBox="0 0 111 112" fill="none" xmlns="http://www.w3.org/2000/svg">
<g filter="url(#filter0_d_1221_1512)">
<mask id="mask0_1221_1512" style="mask-type:luminance" maskUnits="userSpaceOnUse" x="0" y="0" width="111" height="112">
<path d="M111 0H0V111.168H111V0Z" fill="white"/>
</mask>
<g mask="url(#mask0_1221_1512)">
<path d="M110.971 66.507C111.872 42.2936 94.1819 20.9176 72.3783 21.5896C67.3005 21.5767 62.3372 23.2124 58.1366 26.2829C48.4241 33.7495 47.4926 49.0563 38.2162 56.6083C28.3054 64.6936 13.9745 62.8803 4.99538 72.811C3.05023 75.045 1.60927 77.7312 0.784298 80.6613C-0.0406812 83.5913 -0.2275 86.6866 0.238252 89.707C0.725652 92.7619 1.84543 95.6597 3.51471 98.1857C5.18398 100.712 7.35995 102.801 9.88136 104.299C16.4224 108.032 23.6871 106.774 30.4759 105.654C39.3163 104.214 47.0267 103.936 55.5301 107.787C82.0016 119.904 109.722 97.4189 110.911 66.5175C110.961 66.5815 110.981 66.539 110.971 66.507Z" fill="#3F3E3E"/>
</g>
</g>
<defs>
<filter id="filter0_d_1221_1512" x="-4" y="21.5742" width="119" height="97.5527" filterUnits="userSpaceOnUse" color-interpolation-filters="sRGB">
<feFlood flood-opacity="0" result="BackgroundImageFix"/>
<feColorMatrix in="SourceAlpha" type="matrix" values="0 0 0 0 0 0 0 0 0 0 0 0 0 0 0 0 0 0 127 0" result="hardAlpha"/>
<feOffset dy="4"/>
<feGaussianBlur stdDeviation="2"/>
<feComposite in2="hardAlpha" operator="out"/>
<feColorMatrix type="matrix" values="0 0 0 0 0 0 0 0 0 0 0 0 0 0 0 0 0 0 0.25 0"/>
<feBlend mode="normal" in2="BackgroundImageFix" result="effect1_dropShadow_1221_1512"/>
<feBlend mode="normal" in="SourceGraphic" in2="effect1_dropShadow_1221_1512" result="shape"/>
</filter>
</defs>
</svg>
