<svg width="135" height="98" viewBox="0 0 135 98" fill="none" xmlns="http://www.w3.org/2000/svg">
<mask id="mask0_1184_1451" style="mask-type:luminance" maskUnits="userSpaceOnUse" x="0" y="0" width="135" height="98">
<path d="M134.72 0H0V97.07H134.72V0Z" fill="white"/>
</mask>
<g mask="url(#mask0_1184_1451)">
<path d="M42.8816 34.8506C45.4654 30.2004 48.7812 25.9965 52.7017 22.4006C54.6162 20.6414 56.6958 19.0708 58.9117 17.7106C68.1767 12.1209 78.9512 9.55219 89.7416 10.3606C93.9294 10.6848 98.0538 11.5763 102.002 13.0106C104.332 13.8615 106.581 14.919 108.722 16.1706C109.402 16.5606 110.082 16.9806 110.722 17.4206C114.034 19.5604 117.183 21.9436 120.142 24.5506C126.415 30.0629 131.048 37.1974 133.532 45.1706C134.484 47.7759 134.87 50.5545 134.662 53.3206C134.507 54.7926 134.048 56.2162 133.312 57.5006C132.582 58.7877 131.595 59.9109 130.412 60.8006C128.206 62.4207 125.731 63.6393 123.102 64.4006C120.473 65.2116 117.803 65.8792 115.102 66.4006C112.943 66.8328 110.823 67.4381 108.762 68.2106C101.392 70.9906 95.9716 75.9506 91.7616 84.6506C89.7859 89.1794 86.2321 92.8362 81.7616 94.9406C78.0095 96.5118 73.955 97.2291 69.8916 97.0406C65.2205 96.8812 60.6643 95.5505 56.6416 93.1706C53.681 91.4438 51.0171 89.2525 48.7516 86.6806C46.8213 84.4748 45.1442 82.0598 43.7516 79.4806C42.3649 76.9525 41.1908 74.3134 40.2416 71.5906C37.8373 65.0209 36.9751 57.9865 37.7216 51.0306C38.3598 45.3502 40.1134 39.8517 42.8816 34.8506Z" fill="#747474"/>
<path d="M64 26.4533L70.9026 32L83 19" stroke="#F3B85B" stroke-width="2.31" stroke-miterlimit="10" stroke-linecap="square"/>
<path d="M100.335 1.0088C100.686 1.00792 101.034 1.07713 101.357 1.21235C101.681 1.34757 101.974 1.54607 102.22 1.79616C102.72 2.29828 103.001 2.97774 103 3.6858V43.0098C103 43.7116 102.725 44.3856 102.234 44.8875C101.742 45.3895 101.073 45.6795 100.37 45.6955H89.6061C88.9037 45.6954 88.2293 45.9702 87.7278 46.4609C87.2263 46.9517 86.9377 47.6191 86.9238 48.3201V57.7333C86.9406 57.7814 86.9406 57.8338 86.9238 57.882C86.9 57.9297 86.8595 57.967 86.8099 57.987C86.7588 58.0043 86.7033 58.0043 86.6521 57.987C86.5993 57.9784 86.5503 57.954 86.5119 57.917L74.0296 46.4217C73.5356 45.9727 72.892 45.7233 72.2239 45.7218H44.6823C44.3299 45.7238 43.9808 45.6551 43.6555 45.5199C43.3302 45.3846 43.0357 45.1855 42.789 44.9344C42.2895 44.431 42.0065 43.7531 42 43.0448V3.67706C42.0065 2.9687 42.2895 2.29077 42.789 1.78741C43.0357 1.53627 43.3302 1.33715 43.6555 1.2019C43.9808 1.06665 44.3299 0.997997 44.6823 1.00004L100.335 1.0088Z" stroke="#F3B85B" stroke-width="2.31" stroke-miterlimit="10" stroke-linecap="square"/>
<path d="M63 46.4679V57.3484C63 57.9958 62.7466 58.6169 62.2952 59.0756C61.8439 59.5342 61.2313 59.7931 60.5918 59.7954H42.7418C42.1386 59.7952 41.5569 60.0227 41.1104 60.4333L29.8894 70.9206C29.8544 70.9569 29.8092 70.9814 29.7599 70.9906C29.7148 71.0031 29.667 71.0031 29.6218 70.9906C29.5776 70.9711 29.5412 70.9372 29.5182 70.8944C29.5053 70.8487 29.5053 70.8002 29.5182 70.7545V62.2336C29.5204 61.9086 29.4581 61.5865 29.335 61.2862C29.2119 60.986 29.0306 60.7138 28.8018 60.4857C28.5768 60.2545 28.3079 60.0717 28.0112 59.9485C27.7145 59.8254 27.3962 59.7644 27.0755 59.7692H17.3996C16.7631 59.7646 16.1541 59.5059 15.7048 59.0494C15.2555 58.5929 15.0023 57.9754 15 57.3309V21.4383C15.0023 20.7938 15.2555 20.1762 15.7048 19.7197C16.1541 19.2632 16.7631 19.0045 17.3996 19H41.6369" stroke="#F3B85B" stroke-width="2.31" stroke-miterlimit="10" stroke-linecap="square"/>
<path d="M42.8816 34.8506C45.4654 30.2004 48.7812 25.9965 52.7017 22.4006C54.6162 20.6414 56.6958 19.0708 58.9117 17.7106C68.1767 12.1209 78.9512 9.55219 89.7416 10.3606C93.9294 10.6848 98.0538 11.5763 102.002 13.0106C104.332 13.8615 106.581 14.919 108.722 16.1706C109.402 16.5606 110.082 16.9806 110.722 17.4206C114.034 19.5604 117.183 21.9436 120.142 24.5506C126.415 30.0629 131.048 37.1974 133.532 45.1706C134.484 47.7759 134.87 50.5545 134.662 53.3206C134.507 54.7926 134.048 56.2162 133.312 57.5006C132.582 58.7877 131.595 59.9109 130.412 60.8006C128.206 62.4207 125.731 63.6393 123.102 64.4006C120.473 65.2116 117.803 65.8792 115.102 66.4006C112.943 66.8328 110.823 67.4381 108.762 68.2106C101.392 70.9906 95.9716 75.9506 91.7616 84.6506C89.7859 89.1794 86.2321 92.8362 81.7616 94.9406C78.0095 96.5118 73.955 97.2291 69.8916 97.0406C65.2205 96.8812 60.6643 95.5505 56.6416 93.1706C53.681 91.4438 51.0171 89.2525 48.7516 86.6806C46.8213 84.4748 45.1442 82.0598 43.7516 79.4806C42.3649 76.9525 41.1908 74.3134 40.2416 71.5906C37.8373 65.0209 36.9751 57.9865 37.7216 51.0306C38.3598 45.3502 40.1134 39.8517 42.8816 34.8506Z" fill="#747474"/>
<path d="M64 26.4533L70.9026 32L83 19" stroke="#F3B85B" stroke-width="2.31" stroke-miterlimit="10" stroke-linecap="square"/>
<path d="M100.335 1.0088C100.686 1.00792 101.034 1.07713 101.357 1.21235C101.681 1.34757 101.974 1.54607 102.22 1.79616C102.72 2.29828 103.001 2.97774 103 3.6858V43.0098C103 43.7116 102.725 44.3856 102.234 44.8875C101.742 45.3895 101.073 45.6795 100.37 45.6955H89.6061C88.9037 45.6954 88.2293 45.9702 87.7278 46.4609C87.2263 46.9517 86.9377 47.6191 86.9238 48.3201V57.7333C86.9406 57.7814 86.9406 57.8338 86.9238 57.882C86.9 57.9297 86.8595 57.967 86.8099 57.987C86.7588 58.0043 86.7033 58.0043 86.6521 57.987C86.5993 57.9784 86.5503 57.954 86.5119 57.917L74.0296 46.4217C73.5356 45.9727 72.892 45.7233 72.2239 45.7218H44.6823C44.3299 45.7238 43.9808 45.6551 43.6555 45.5199C43.3302 45.3846 43.0357 45.1855 42.789 44.9344C42.2895 44.431 42.0065 43.7531 42 43.0448V3.67706C42.0065 2.9687 42.2895 2.29077 42.789 1.78741C43.0357 1.53627 43.3302 1.33715 43.6555 1.2019C43.9808 1.06665 44.3299 0.997997 44.6823 1.00004L100.335 1.0088Z" stroke="#F3B85B" stroke-width="2.31" stroke-miterlimit="10" stroke-linecap="square"/>
<path d="M63 46.4679V57.3484C63 57.9958 62.7466 58.6169 62.2952 59.0756C61.8439 59.5342 61.2313 59.7931 60.5918 59.7954H42.7418C42.1386 59.7952 41.5569 60.0227 41.1104 60.4333L29.8894 70.9206C29.8544 70.9569 29.8092 70.9814 29.7599 70.9906C29.7148 71.0031 29.667 71.0031 29.6218 70.9906C29.5776 70.9711 29.5412 70.9372 29.5182 70.8944C29.5053 70.8487 29.5053 70.8002 29.5182 70.7545V62.2336C29.5204 61.9086 29.4581 61.5865 29.335 61.2862C29.2119 60.986 29.0306 60.7138 28.8018 60.4857C28.5768 60.2545 28.3079 60.0717 28.0112 59.9485C27.7145 59.8254 27.3962 59.7644 27.0755 59.7692H17.3996C16.7631 59.7646 16.1541 59.5059 15.7048 59.0494C15.2555 58.5929 15.0023 57.9754 15 57.3309V21.4383C15.0023 20.7938 15.2555 20.1762 15.7048 19.7197C16.1541 19.2632 16.7631 19.0045 17.3996 19H41.6369" stroke="#F3B85B" stroke-width="2.31" stroke-miterlimit="10" stroke-linecap="square"/>
</g>
</svg>
