<svg width="135" height="98" viewBox="0 0 135 98" fill="none" xmlns="http://www.w3.org/2000/svg">
<mask id="mask0_1221_1520" style="mask-type:luminance" maskUnits="userSpaceOnUse" x="0" y="0" width="135" height="98">
<path d="M134.72 0H0V97.07H134.72V0Z" fill="white"/>
</mask>
<g mask="url(#mask0_1221_1520)">
<path d="M42.8816 34.8506C45.4654 30.2004 48.7812 25.9965 52.7017 22.4006C54.6162 20.6414 56.6958 19.0708 58.9117 17.7106C68.1767 12.1209 78.9512 9.55219 89.7416 10.3606C93.9294 10.6848 98.0538 11.5763 102.002 13.0106C104.332 13.8615 106.581 14.919 108.722 16.1706C109.402 16.5606 110.082 16.9806 110.722 17.4206C114.034 19.5604 117.183 21.9436 120.142 24.5506C126.415 30.0629 131.048 37.1974 133.532 45.1706C134.484 47.7759 134.87 50.5545 134.662 53.3206C134.507 54.7926 134.048 56.2162 133.312 57.5006C132.582 58.7877 131.595 59.9109 130.412 60.8006C128.206 62.4207 125.731 63.6393 123.102 64.4006C120.473 65.2116 117.803 65.8792 115.102 66.4006C112.943 66.8328 110.823 67.4381 108.762 68.2106C101.392 70.9906 95.9716 75.9506 91.7616 84.6506C89.7859 89.1794 86.2321 92.8362 81.7616 94.9406C78.0095 96.5118 73.955 97.2291 69.8916 97.0406C65.2205 96.8812 60.6643 95.5505 56.6416 93.1706C53.681 91.4438 51.0171 89.2525 48.7516 86.6806C46.8213 84.4748 45.1442 82.0598 43.7516 79.4806C42.3649 76.9525 41.1908 74.3134 40.2416 71.5906C37.8373 65.0209 36.9751 57.9865 37.7216 51.0306C38.3598 45.3502 40.1134 39.8517 42.8816 34.8506Z" fill="#3F3E3E"/>
</g>
</svg>
