<svg width="540" height="410" viewBox="0 0 540 410" fill="none" xmlns="http://www.w3.org/2000/svg">
<g clip-path="url(#clip0_5625_993)">
<rect width="540" height="410" fill="white"/>
<path d="M201.901 53.657H197.1L196.275 56H194.311L198.42 44.516H200.598L204.706 56H202.726L201.901 53.657ZM201.373 52.1225L199.509 46.793L197.628 52.1225H201.373ZM207.873 48.2285C208.148 47.7665 208.511 47.409 208.962 47.156C209.424 46.892 209.969 46.76 210.596 46.76V48.707H210.117C209.38 48.707 208.819 48.894 208.434 49.268C208.06 49.642 207.873 50.291 207.873 51.215V56H205.992V46.9085H207.873V48.2285ZM212.782 45.704C212.441 45.704 212.155 45.5885 211.924 45.3575C211.693 45.1265 211.577 44.8405 211.577 44.4995C211.577 44.1585 211.693 43.8725 211.924 43.6415C212.155 43.4105 212.441 43.295 212.782 43.295C213.112 43.295 213.392 43.4105 213.623 43.6415C213.854 43.8725 213.97 44.1585 213.97 44.4995C213.97 44.8405 213.854 45.1265 213.623 45.3575C213.392 45.5885 213.112 45.704 212.782 45.704ZM213.706 46.9085V56H211.825V46.9085H213.706ZM224.008 51.2315C224.008 51.5725 223.986 51.8805 223.942 52.1555H216.995C217.05 52.8815 217.32 53.4645 217.804 53.9045C218.288 54.3445 218.882 54.5645 219.586 54.5645C220.598 54.5645 221.313 54.141 221.731 53.294H223.76C223.485 54.13 222.985 54.8175 222.259 55.3565C221.544 55.8845 220.653 56.1485 219.586 56.1485C218.717 56.1485 217.936 55.956 217.243 55.571C216.561 55.175 216.022 54.625 215.626 53.921C215.241 53.206 215.048 52.381 215.048 51.446C215.048 50.511 215.235 49.6915 215.609 48.9875C215.994 48.2725 216.528 47.7225 217.21 47.3375C217.903 46.9525 218.695 46.76 219.586 46.76C220.444 46.76 221.208 46.947 221.879 47.321C222.55 47.695 223.073 48.223 223.447 48.905C223.821 49.576 224.008 50.3515 224.008 51.2315ZM222.044 50.6375C222.033 49.9445 221.786 49.389 221.302 48.971C220.818 48.553 220.218 48.344 219.503 48.344C218.854 48.344 218.299 48.553 217.837 48.971C217.375 49.378 217.1 49.9335 217.012 50.6375H222.044ZM227.24 43.79V56H225.359V43.79H227.24ZM245.074 44.5325V56H243.193V48.146L239.695 56H238.391L234.877 48.146V56H232.996V44.5325H235.025L239.051 53.525L243.061 44.5325H245.074ZM246.419 51.413C246.419 50.5 246.606 49.6915 246.98 48.9875C247.365 48.2835 247.882 47.739 248.531 47.354C249.191 46.958 249.917 46.76 250.709 46.76C251.424 46.76 252.046 46.903 252.574 47.189C253.113 47.464 253.542 47.8105 253.861 48.2285V46.9085H255.758V56H253.861V54.647C253.542 55.076 253.107 55.4335 252.557 55.7195C252.007 56.0055 251.38 56.1485 250.676 56.1485C249.895 56.1485 249.18 55.9505 248.531 55.5545C247.882 55.1475 247.365 54.5865 246.98 53.8715C246.606 53.1455 246.419 52.326 246.419 51.413ZM253.861 51.446C253.861 50.819 253.729 50.2745 253.465 49.8125C253.212 49.3505 252.876 48.9985 252.458 48.7565C252.04 48.5145 251.589 48.3935 251.105 48.3935C250.621 48.3935 250.17 48.5145 249.752 48.7565C249.334 48.9875 248.993 49.334 248.729 49.796C248.476 50.247 248.35 50.786 248.35 51.413C248.35 52.04 248.476 52.59 248.729 53.063C248.993 53.536 249.334 53.899 249.752 54.152C250.181 54.394 250.632 54.515 251.105 54.515C251.589 54.515 252.04 54.394 252.458 54.152C252.876 53.91 253.212 53.558 253.465 53.096C253.729 52.623 253.861 52.073 253.861 51.446ZM259.395 54.4655H263.52V56H257.217V54.4655L261.359 48.443H257.217V46.9085H263.52V48.443L259.395 54.4655ZM268.939 56.1485C268.081 56.1485 267.305 55.956 266.612 55.571C265.919 55.175 265.375 54.625 264.979 53.921C264.583 53.206 264.385 52.381 264.385 51.446C264.385 50.522 264.588 49.7025 264.995 48.9875C265.402 48.2725 265.958 47.7225 266.662 47.3375C267.366 46.9525 268.152 46.76 269.021 46.76C269.89 46.76 270.677 46.9525 271.381 47.3375C272.085 47.7225 272.64 48.2725 273.047 48.9875C273.454 49.7025 273.658 50.522 273.658 51.446C273.658 52.37 273.449 53.1895 273.031 53.9045C272.613 54.6195 272.041 55.175 271.315 55.571C270.6 55.956 269.808 56.1485 268.939 56.1485ZM268.939 54.515C269.423 54.515 269.874 54.3995 270.292 54.1685C270.721 53.9375 271.067 53.591 271.331 53.129C271.595 52.667 271.727 52.106 271.727 51.446C271.727 50.786 271.601 50.2305 271.348 49.7795C271.095 49.3175 270.759 48.971 270.341 48.74C269.923 48.509 269.472 48.3935 268.988 48.3935C268.504 48.3935 268.053 48.509 267.635 48.74C267.228 48.971 266.904 49.3175 266.662 49.7795C266.42 50.2305 266.299 50.786 266.299 51.446C266.299 52.425 266.546 53.184 267.041 53.723C267.547 54.251 268.18 54.515 268.939 54.515ZM276.898 48.2285C277.173 47.7665 277.536 47.409 277.987 47.156C278.449 46.892 278.994 46.76 279.621 46.76V48.707H279.142C278.405 48.707 277.844 48.894 277.459 49.268C277.085 49.642 276.898 50.291 276.898 51.215V56H275.017V46.9085H276.898V48.2285Z" fill="#1F8DF1"/>
<path d="M42.584 44.816V56H41.464V50.768H35.4V56H34.28V44.816H35.4V49.84H41.464V44.816H42.584ZM48.9634 56.128C48.142 56.128 47.4007 55.9467 46.7394 55.584C46.0887 55.2107 45.5714 54.688 45.1874 54.016C44.814 53.3333 44.6274 52.5387 44.6274 51.632C44.6274 50.7253 44.8194 49.936 45.2034 49.264C45.5874 48.5813 46.11 48.0587 46.7714 47.696C47.4327 47.3227 48.174 47.136 48.9954 47.136C49.8167 47.136 50.558 47.3227 51.2194 47.696C51.8914 48.0587 52.414 48.5813 52.7874 49.264C53.1714 49.936 53.3634 50.7253 53.3634 51.632C53.3634 52.528 53.1714 53.3173 52.7874 54C52.4034 54.6827 51.8754 55.2107 51.2034 55.584C50.5314 55.9467 49.7847 56.128 48.9634 56.128ZM48.9634 55.152C49.5394 55.152 50.0727 55.024 50.5634 54.768C51.054 54.5013 51.4487 54.1067 51.7474 53.584C52.0567 53.0507 52.2114 52.4 52.2114 51.632C52.2114 50.864 52.062 50.2187 51.7634 49.696C51.4647 49.1627 51.07 48.768 50.5794 48.512C50.0887 48.2453 49.5554 48.112 48.9794 48.112C48.4034 48.112 47.87 48.2453 47.3794 48.512C46.8887 48.768 46.494 49.1627 46.1954 49.696C45.9074 50.2187 45.7634 50.864 45.7634 51.632C45.7634 52.4 45.9074 53.0507 46.1954 53.584C46.494 54.1067 46.8834 54.5013 47.3634 54.768C47.854 55.024 48.3874 55.152 48.9634 55.152ZM65.805 47.104C66.829 47.104 67.661 47.4293 68.301 48.08C68.9517 48.72 69.277 49.6533 69.277 50.88V56H68.173V51.008C68.173 50.0587 67.9437 49.3333 67.485 48.832C67.0263 48.3307 66.4023 48.08 65.613 48.08C64.7917 48.08 64.1357 48.352 63.645 48.896C63.1543 49.44 62.909 50.2293 62.909 51.264V56H61.805V51.008C61.805 50.0587 61.5757 49.3333 61.117 48.832C60.6583 48.3307 60.029 48.08 59.229 48.08C58.4077 48.08 57.7517 48.352 57.261 48.896C56.7703 49.44 56.525 50.2293 56.525 51.264V56H55.405V47.264H56.525V48.768C56.8023 48.224 57.197 47.8133 57.709 47.536C58.221 47.248 58.7917 47.104 59.421 47.104C60.1783 47.104 60.8397 47.2853 61.405 47.648C61.981 48.0107 62.397 48.544 62.653 49.248C62.8877 48.5547 63.2877 48.0267 63.853 47.664C64.429 47.2907 65.0797 47.104 65.805 47.104ZM79.6684 51.184C79.6684 51.568 79.6577 51.8613 79.6364 52.064H72.3884C72.4204 52.7253 72.5804 53.2907 72.8684 53.76C73.1564 54.2293 73.535 54.5867 74.0044 54.832C74.4737 55.0667 74.9857 55.184 75.5404 55.184C76.2657 55.184 76.8737 55.008 77.3644 54.656C77.8657 54.304 78.1964 53.8293 78.3564 53.232H79.5404C79.327 54.0853 78.8684 54.784 78.1644 55.328C77.471 55.8613 76.5964 56.128 75.5404 56.128C74.719 56.128 73.983 55.9467 73.3324 55.584C72.6817 55.2107 72.1697 54.688 71.7964 54.016C71.4337 53.3333 71.2524 52.5387 71.2524 51.632C71.2524 50.7253 71.4337 49.9307 71.7964 49.248C72.159 48.5653 72.6657 48.0427 73.3164 47.68C73.967 47.3173 74.7084 47.136 75.5404 47.136C76.3724 47.136 77.0977 47.3173 77.7164 47.68C78.3457 48.0427 78.8257 48.5333 79.1564 49.152C79.4977 49.76 79.6684 50.4373 79.6684 51.184ZM78.5324 51.152C78.543 50.5013 78.4097 49.9467 78.1324 49.488C77.8657 49.0293 77.4977 48.6827 77.0284 48.448C76.559 48.2133 76.047 48.096 75.4924 48.096C74.6604 48.096 73.951 48.3627 73.3644 48.896C72.7777 49.4293 72.4524 50.1813 72.3884 51.152H78.5324ZM93.2375 47.264L90.5015 56H89.3815L86.9655 48.672L84.5495 56H83.4135L80.6775 47.264H81.8135L83.9895 54.864L86.4375 47.264H87.5575L89.9735 54.88L92.1335 47.264H93.2375ZM98.5884 56.128C97.767 56.128 97.0257 55.9467 96.3644 55.584C95.7137 55.2107 95.1964 54.688 94.8124 54.016C94.439 53.3333 94.2524 52.5387 94.2524 51.632C94.2524 50.7253 94.4444 49.936 94.8284 49.264C95.2124 48.5813 95.735 48.0587 96.3964 47.696C97.0577 47.3227 97.799 47.136 98.6204 47.136C99.4417 47.136 100.183 47.3227 100.844 47.696C101.516 48.0587 102.039 48.5813 102.412 49.264C102.796 49.936 102.988 50.7253 102.988 51.632C102.988 52.528 102.796 53.3173 102.412 54C102.028 54.6827 101.5 55.2107 100.828 55.584C100.156 55.9467 99.4097 56.128 98.5884 56.128ZM98.5884 55.152C99.1644 55.152 99.6977 55.024 100.188 54.768C100.679 54.5013 101.074 54.1067 101.372 53.584C101.682 53.0507 101.836 52.4 101.836 51.632C101.836 50.864 101.687 50.2187 101.388 49.696C101.09 49.1627 100.695 48.768 100.204 48.512C99.7137 48.2453 99.1804 48.112 98.6044 48.112C98.0284 48.112 97.495 48.2453 97.0044 48.512C96.5137 48.768 96.119 49.1627 95.8204 49.696C95.5324 50.2187 95.3884 50.864 95.3884 51.632C95.3884 52.4 95.5324 53.0507 95.8204 53.584C96.119 54.1067 96.5084 54.5013 96.9884 54.768C97.479 55.024 98.0124 55.152 98.5884 55.152ZM106.15 48.816C106.395 48.272 106.769 47.8507 107.27 47.552C107.782 47.2533 108.406 47.104 109.142 47.104V48.272H108.838C108.027 48.272 107.377 48.4907 106.886 48.928C106.395 49.3653 106.15 50.096 106.15 51.12V56H105.03V47.264H106.15V48.816ZM115.547 56L111.947 52.08V56H110.827V44.16H111.947V51.168L115.467 47.264H117.035L112.891 51.616L117.067 56H115.547ZM124.025 48.816C124.27 48.272 124.644 47.8507 125.145 47.552C125.657 47.2533 126.281 47.104 127.017 47.104V48.272H126.713C125.902 48.272 125.252 48.4907 124.761 48.928C124.27 49.3653 124.025 50.096 124.025 51.12V56H122.905V47.264H124.025V48.816ZM136.606 51.184C136.606 51.568 136.595 51.8613 136.574 52.064H129.326C129.358 52.7253 129.518 53.2907 129.806 53.76C130.094 54.2293 130.473 54.5867 130.942 54.832C131.411 55.0667 131.923 55.184 132.478 55.184C133.203 55.184 133.811 55.008 134.302 54.656C134.803 54.304 135.134 53.8293 135.294 53.232H136.478C136.265 54.0853 135.806 54.784 135.102 55.328C134.409 55.8613 133.534 56.128 132.478 56.128C131.657 56.128 130.921 55.9467 130.27 55.584C129.619 55.2107 129.107 54.688 128.734 54.016C128.371 53.3333 128.19 52.5387 128.19 51.632C128.19 50.7253 128.371 49.9307 128.734 49.248C129.097 48.5653 129.603 48.0427 130.254 47.68C130.905 47.3173 131.646 47.136 132.478 47.136C133.31 47.136 134.035 47.3173 134.654 47.68C135.283 48.0427 135.763 48.5333 136.094 49.152C136.435 49.76 136.606 50.4373 136.606 51.184ZM135.47 51.152C135.481 50.5013 135.347 49.9467 135.07 49.488C134.803 49.0293 134.435 48.6827 133.966 48.448C133.497 48.2133 132.985 48.096 132.43 48.096C131.598 48.096 130.889 48.3627 130.302 48.896C129.715 49.4293 129.39 50.1813 129.326 51.152H135.47ZM141.759 54.912L144.703 47.264H145.887L142.383 56H141.119L137.615 47.264H138.815L141.759 54.912ZM147.965 45.616C147.741 45.616 147.549 45.536 147.389 45.376C147.229 45.216 147.149 45.0187 147.149 44.784C147.149 44.5493 147.229 44.3573 147.389 44.208C147.549 44.048 147.741 43.968 147.965 43.968C148.189 43.968 148.381 44.048 148.541 44.208C148.701 44.3573 148.781 44.5493 148.781 44.784C148.781 45.0187 148.701 45.216 148.541 45.376C148.381 45.536 148.189 45.616 147.965 45.616ZM148.525 47.264V56H147.405V47.264H148.525ZM158.965 51.184C158.965 51.568 158.955 51.8613 158.933 52.064H151.685C151.717 52.7253 151.877 53.2907 152.165 53.76C152.453 54.2293 152.832 54.5867 153.301 54.832C153.771 55.0667 154.283 55.184 154.837 55.184C155.563 55.184 156.171 55.008 156.661 54.656C157.163 54.304 157.493 53.8293 157.653 53.232H158.837C158.624 54.0853 158.165 54.784 157.461 55.328C156.768 55.8613 155.893 56.128 154.837 56.128C154.016 56.128 153.28 55.9467 152.629 55.584C151.979 55.2107 151.467 54.688 151.093 54.016C150.731 53.3333 150.549 52.5387 150.549 51.632C150.549 50.7253 150.731 49.9307 151.093 49.248C151.456 48.5653 151.963 48.0427 152.613 47.68C153.264 47.3173 154.005 47.136 154.837 47.136C155.669 47.136 156.395 47.3173 157.013 47.68C157.643 48.0427 158.123 48.5333 158.453 49.152C158.795 49.76 158.965 50.4373 158.965 51.184ZM157.829 51.152C157.84 50.5013 157.707 49.9467 157.429 49.488C157.163 49.0293 156.795 48.6827 156.325 48.448C155.856 48.2133 155.344 48.096 154.789 48.096C153.957 48.096 153.248 48.3627 152.661 48.896C152.075 49.4293 151.749 50.1813 151.685 51.152H157.829ZM172.534 47.264L169.798 56H168.678L166.262 48.672L163.846 56H162.71L159.974 47.264H161.11L163.286 54.864L165.734 47.264H166.854L169.27 54.88L171.43 47.264H172.534Z" fill="black"/>
<rect x="183" y="37" width="0.75" height="26" fill="black"/>
<rect x="31" y="76" width="467" height="1" fill="#FF5E1A"/>
<path d="M47.183 143.117V155H45.993V149.441H39.55V155H38.36V143.117H39.55V148.455H45.993V143.117H47.183ZM58.2961 149.883C58.2961 150.291 58.2848 150.603 58.2621 150.818H50.5611C50.5951 151.521 50.7651 152.121 51.0711 152.62C51.3771 153.119 51.7794 153.498 52.2781 153.759C52.7768 154.008 53.3208 154.133 53.9101 154.133C54.6808 154.133 55.3268 153.946 55.8481 153.572C56.3808 153.198 56.7321 152.694 56.9021 152.059H58.1601C57.9334 152.966 57.4461 153.708 56.6981 154.286C55.9614 154.853 55.0321 155.136 53.9101 155.136C53.0374 155.136 52.2554 154.943 51.5641 154.558C50.8728 154.161 50.3288 153.606 49.9321 152.892C49.5468 152.167 49.3541 151.322 49.3541 150.359C49.3541 149.396 49.5468 148.551 49.9321 147.826C50.3174 147.101 50.8558 146.545 51.5471 146.16C52.2384 145.775 53.0261 145.582 53.9101 145.582C54.7941 145.582 55.5648 145.775 56.2221 146.16C56.8908 146.545 57.4008 147.067 57.7521 147.724C58.1148 148.37 58.2961 149.09 58.2961 149.883ZM57.0891 149.849C57.1004 149.158 56.9588 148.568 56.6641 148.081C56.3808 147.594 55.9898 147.225 55.4911 146.976C54.9924 146.727 54.4484 146.602 53.8591 146.602C52.9751 146.602 52.2214 146.885 51.5981 147.452C50.9748 148.019 50.6291 148.818 50.5611 149.849H57.0891ZM68.1233 145.718L62.6153 159.369H61.3743L63.1763 154.949L59.3683 145.718H60.6773L63.8393 153.64L66.8993 145.718H68.1233ZM77.921 143.117C79.2357 143.117 80.3633 143.355 81.304 143.831C82.2447 144.307 82.9643 144.993 83.463 145.888C83.9617 146.783 84.211 147.849 84.211 149.084C84.211 150.308 83.9617 151.368 83.463 152.263C82.9643 153.147 82.2447 153.827 81.304 154.303C80.3633 154.768 79.2357 155 77.921 155H74.402V143.117H77.921ZM77.921 154.014C79.5757 154.014 80.8337 153.583 81.695 152.722C82.5677 151.849 83.004 150.637 83.004 149.084C83.004 147.52 82.5677 146.302 81.695 145.429C80.8337 144.545 79.5757 144.103 77.921 144.103H75.592V154.014H77.921ZM85.8609 150.342C85.8609 149.39 86.0479 148.557 86.4219 147.843C86.8073 147.118 87.3343 146.562 88.0029 146.177C88.6829 145.78 89.4479 145.582 90.2979 145.582C91.1819 145.582 91.9413 145.786 92.5759 146.194C93.2219 146.602 93.6866 147.123 93.9699 147.758V145.718H95.1599V155H93.9699V152.943C93.6753 153.578 93.2049 154.105 92.5589 154.524C91.9243 154.932 91.1649 155.136 90.2809 155.136C89.4423 155.136 88.6829 154.938 88.0029 154.541C87.3343 154.144 86.8073 153.583 86.4219 152.858C86.0479 152.133 85.8609 151.294 85.8609 150.342ZM93.9699 150.359C93.9699 149.611 93.8169 148.954 93.5109 148.387C93.2049 147.82 92.7856 147.384 92.2529 147.078C91.7316 146.772 91.1536 146.619 90.5189 146.619C89.8616 146.619 89.2723 146.766 88.7509 147.061C88.2296 147.356 87.8159 147.786 87.5099 148.353C87.2153 148.908 87.0679 149.571 87.0679 150.342C87.0679 151.101 87.2153 151.77 87.5099 152.348C87.8159 152.915 88.2296 153.351 88.7509 153.657C89.2723 153.952 89.8616 154.099 90.5189 154.099C91.1536 154.099 91.7316 153.946 92.2529 153.64C92.7856 153.334 93.2049 152.898 93.5109 152.331C93.8169 151.764 93.9699 151.107 93.9699 150.359ZM102.229 145.548C103.339 145.548 104.246 145.894 104.949 146.585C105.651 147.265 106.003 148.257 106.003 149.56V155H104.83V149.696C104.83 148.687 104.575 147.917 104.065 147.384C103.566 146.851 102.88 146.585 102.008 146.585C101.112 146.585 100.398 146.868 99.8656 147.435C99.3329 148.002 99.0666 148.835 99.0666 149.934V155H97.8766V145.718H99.0666V147.299C99.3613 146.732 99.7863 146.302 100.342 146.007C100.897 145.701 101.526 145.548 102.229 145.548ZM112.986 145.548C114.097 145.548 115.004 145.894 115.706 146.585C116.409 147.265 116.76 148.257 116.76 149.56V155H115.587V149.696C115.587 148.687 115.332 147.917 114.822 147.384C114.324 146.851 113.638 146.585 112.765 146.585C111.87 146.585 111.156 146.868 110.623 147.435C110.091 148.002 109.824 148.835 109.824 149.934V155H108.634V145.718H109.824V147.299C110.119 146.732 110.544 146.302 111.099 146.007C111.655 145.701 112.284 145.548 112.986 145.548ZM127.042 145.718L121.534 159.369H120.293L122.095 154.949L118.287 145.718H119.596L122.758 153.64L125.818 145.718H127.042ZM129.744 153.028L127.976 157.482H127.16L128.418 153.028H129.744ZM143.212 143.117V144.103H139.914V155H138.724V144.103H135.409V143.117H143.212ZM149.511 145.548C150.214 145.548 150.843 145.695 151.398 145.99C151.965 146.285 152.407 146.738 152.724 147.35C153.053 147.951 153.217 148.687 153.217 149.56V155H152.044V149.696C152.044 148.687 151.789 147.917 151.279 147.384C150.781 146.851 150.095 146.585 149.222 146.585C148.327 146.585 147.613 146.868 147.08 147.435C146.548 148.002 146.281 148.835 146.281 149.934V155H145.091V142.42H146.281V147.299C146.576 146.744 147.007 146.313 147.573 146.007C148.151 145.701 148.797 145.548 149.511 145.548ZM156.444 143.967C156.206 143.967 156.002 143.882 155.832 143.712C155.662 143.542 155.577 143.332 155.577 143.083C155.577 142.834 155.662 142.63 155.832 142.471C156.002 142.301 156.206 142.216 156.444 142.216C156.682 142.216 156.886 142.301 157.056 142.471C157.226 142.63 157.311 142.834 157.311 143.083C157.311 143.332 157.226 143.542 157.056 143.712C156.886 143.882 156.682 143.967 156.444 143.967ZM157.039 145.718V155H155.849V145.718H157.039ZM162.93 155.136C161.865 155.136 160.992 154.892 160.312 154.405C159.643 153.906 159.269 153.232 159.19 152.382H160.414C160.471 152.903 160.714 153.328 161.145 153.657C161.587 153.974 162.176 154.133 162.913 154.133C163.559 154.133 164.063 153.98 164.426 153.674C164.8 153.368 164.987 152.988 164.987 152.535C164.987 152.218 164.885 151.957 164.681 151.753C164.477 151.549 164.216 151.39 163.899 151.277C163.593 151.152 163.174 151.022 162.641 150.886C161.95 150.705 161.389 150.523 160.958 150.342C160.527 150.161 160.159 149.894 159.853 149.543C159.558 149.18 159.411 148.699 159.411 148.098C159.411 147.645 159.547 147.225 159.819 146.84C160.091 146.455 160.476 146.149 160.975 145.922C161.474 145.695 162.04 145.582 162.675 145.582C163.672 145.582 164.477 145.837 165.089 146.347C165.701 146.846 166.03 147.537 166.075 148.421H164.885C164.851 147.877 164.636 147.441 164.239 147.112C163.854 146.772 163.321 146.602 162.641 146.602C162.04 146.602 161.553 146.744 161.179 147.027C160.805 147.31 160.618 147.662 160.618 148.081C160.618 148.444 160.726 148.744 160.941 148.982C161.168 149.209 161.445 149.39 161.774 149.526C162.103 149.651 162.545 149.792 163.1 149.951C163.769 150.132 164.301 150.308 164.698 150.478C165.095 150.648 165.435 150.897 165.718 151.226C166.001 151.555 166.149 151.991 166.16 152.535C166.16 153.034 166.024 153.481 165.752 153.878C165.48 154.263 165.1 154.569 164.613 154.796C164.126 155.023 163.565 155.136 162.93 155.136ZM173.66 143.967C173.422 143.967 173.218 143.882 173.048 143.712C172.878 143.542 172.793 143.332 172.793 143.083C172.793 142.834 172.878 142.63 173.048 142.471C173.218 142.301 173.422 142.216 173.66 142.216C173.898 142.216 174.102 142.301 174.272 142.471C174.442 142.63 174.527 142.834 174.527 143.083C174.527 143.332 174.442 143.542 174.272 143.712C174.102 143.882 173.898 143.967 173.66 143.967ZM174.255 145.718V155H173.065V145.718H174.255ZM180.146 155.136C179.081 155.136 178.208 154.892 177.528 154.405C176.859 153.906 176.485 153.232 176.406 152.382H177.63C177.687 152.903 177.93 153.328 178.361 153.657C178.803 153.974 179.392 154.133 180.129 154.133C180.775 154.133 181.279 153.98 181.642 153.674C182.016 153.368 182.203 152.988 182.203 152.535C182.203 152.218 182.101 151.957 181.897 151.753C181.693 151.549 181.432 151.39 181.115 151.277C180.809 151.152 180.39 151.022 179.857 150.886C179.166 150.705 178.605 150.523 178.174 150.342C177.743 150.161 177.375 149.894 177.069 149.543C176.774 149.18 176.627 148.699 176.627 148.098C176.627 147.645 176.763 147.225 177.035 146.84C177.307 146.455 177.692 146.149 178.191 145.922C178.69 145.695 179.256 145.582 179.891 145.582C180.888 145.582 181.693 145.837 182.305 146.347C182.917 146.846 183.246 147.537 183.291 148.421H182.101C182.067 147.877 181.852 147.441 181.455 147.112C181.07 146.772 180.537 146.602 179.857 146.602C179.256 146.602 178.769 146.744 178.395 147.027C178.021 147.31 177.834 147.662 177.834 148.081C177.834 148.444 177.942 148.744 178.157 148.982C178.384 149.209 178.661 149.39 178.99 149.526C179.319 149.651 179.761 149.792 180.316 149.951C180.985 150.132 181.517 150.308 181.914 150.478C182.311 150.648 182.651 150.897 182.934 151.226C183.217 151.555 183.365 151.991 183.376 152.535C183.376 153.034 183.24 153.481 182.968 153.878C182.696 154.263 182.316 154.569 181.829 154.796C181.342 155.023 180.781 155.136 180.146 155.136ZM201.331 145.548C202.419 145.548 203.303 145.894 203.983 146.585C204.674 147.265 205.02 148.257 205.02 149.56V155H203.847V149.696C203.847 148.687 203.603 147.917 203.116 147.384C202.629 146.851 201.966 146.585 201.127 146.585C200.254 146.585 199.557 146.874 199.036 147.452C198.515 148.03 198.254 148.869 198.254 149.968V155H197.081V149.696C197.081 148.687 196.837 147.917 196.35 147.384C195.863 146.851 195.194 146.585 194.344 146.585C193.471 146.585 192.774 146.874 192.253 147.452C191.732 148.03 191.471 148.869 191.471 149.968V155H190.281V145.718H191.471V147.316C191.766 146.738 192.185 146.302 192.729 146.007C193.273 145.701 193.879 145.548 194.548 145.548C195.353 145.548 196.055 145.741 196.656 146.126C197.268 146.511 197.71 147.078 197.982 147.826C198.231 147.089 198.656 146.528 199.257 146.143C199.869 145.746 200.56 145.548 201.331 145.548ZM215.313 145.718L209.805 159.369H208.564L210.366 154.949L206.558 145.718H207.867L211.029 153.64L214.089 145.718H215.313ZM221.047 150.342C221.047 149.39 221.234 148.557 221.608 147.843C221.994 147.118 222.521 146.562 223.189 146.177C223.869 145.78 224.634 145.582 225.484 145.582C226.368 145.582 227.128 145.786 227.762 146.194C228.408 146.602 228.873 147.123 229.156 147.758V145.718H230.346V155H229.156V152.943C228.862 153.578 228.391 154.105 227.745 154.524C227.111 154.932 226.351 155.136 225.467 155.136C224.629 155.136 223.869 154.938 223.189 154.541C222.521 154.144 221.994 153.583 221.608 152.858C221.234 152.133 221.047 151.294 221.047 150.342ZM229.156 150.359C229.156 149.611 229.003 148.954 228.697 148.387C228.391 147.82 227.972 147.384 227.439 147.078C226.918 146.772 226.34 146.619 225.705 146.619C225.048 146.619 224.459 146.766 223.937 147.061C223.416 147.356 223.002 147.786 222.696 148.353C222.402 148.908 222.254 149.571 222.254 150.342C222.254 151.101 222.402 151.77 222.696 152.348C223.002 152.915 223.416 153.351 223.937 153.657C224.459 153.952 225.048 154.099 225.705 154.099C226.34 154.099 226.918 153.946 227.439 153.64C227.972 153.334 228.391 152.898 228.697 152.331C229.003 151.764 229.156 151.107 229.156 150.359ZM237.415 145.548C238.526 145.548 239.432 145.894 240.135 146.585C240.838 147.265 241.189 148.257 241.189 149.56V155H240.016V149.696C240.016 148.687 239.761 147.917 239.251 147.384C238.752 146.851 238.067 146.585 237.194 146.585C236.299 146.585 235.585 146.868 235.052 147.435C234.519 148.002 234.253 148.835 234.253 149.934V155H233.063V145.718H234.253V147.299C234.548 146.732 234.973 146.302 235.528 146.007C236.083 145.701 236.712 145.548 237.415 145.548ZM247.017 155.136C245.952 155.136 245.079 154.892 244.399 154.405C243.73 153.906 243.356 153.232 243.277 152.382H244.501C244.558 152.903 244.801 153.328 245.232 153.657C245.674 153.974 246.263 154.133 247 154.133C247.646 154.133 248.15 153.98 248.513 153.674C248.887 153.368 249.074 152.988 249.074 152.535C249.074 152.218 248.972 151.957 248.768 151.753C248.564 151.549 248.303 151.39 247.986 151.277C247.68 151.152 247.261 151.022 246.728 150.886C246.037 150.705 245.476 150.523 245.045 150.342C244.614 150.161 244.246 149.894 243.94 149.543C243.645 149.18 243.498 148.699 243.498 148.098C243.498 147.645 243.634 147.225 243.906 146.84C244.178 146.455 244.563 146.149 245.062 145.922C245.561 145.695 246.127 145.582 246.762 145.582C247.759 145.582 248.564 145.837 249.176 146.347C249.788 146.846 250.117 147.537 250.162 148.421H248.972C248.938 147.877 248.723 147.441 248.326 147.112C247.941 146.772 247.408 146.602 246.728 146.602C246.127 146.602 245.64 146.744 245.266 147.027C244.892 147.31 244.705 147.662 244.705 148.081C244.705 148.444 244.813 148.744 245.028 148.982C245.255 149.209 245.532 149.39 245.861 149.526C246.19 149.651 246.632 149.792 247.187 149.951C247.856 150.132 248.388 150.308 248.785 150.478C249.182 150.648 249.522 150.897 249.805 151.226C250.088 151.555 250.236 151.991 250.247 152.535C250.247 153.034 250.111 153.481 249.839 153.878C249.567 154.263 249.187 154.569 248.7 154.796C248.213 155.023 247.652 155.136 247.017 155.136ZM264.727 145.718L261.82 155H260.63L258.063 147.214L255.496 155H254.289L251.382 145.718H252.589L254.901 153.793L257.502 145.718H258.692L261.259 153.81L263.554 145.718H264.727ZM274.747 149.883C274.747 150.291 274.736 150.603 274.713 150.818H267.012C267.046 151.521 267.216 152.121 267.522 152.62C267.828 153.119 268.231 153.498 268.729 153.759C269.228 154.008 269.772 154.133 270.361 154.133C271.132 154.133 271.778 153.946 272.299 153.572C272.832 153.198 273.183 152.694 273.353 152.059H274.611C274.385 152.966 273.897 153.708 273.149 154.286C272.413 154.853 271.483 155.136 270.361 155.136C269.489 155.136 268.707 154.943 268.015 154.558C267.324 154.161 266.78 153.606 266.383 152.892C265.998 152.167 265.805 151.322 265.805 150.359C265.805 149.396 265.998 148.551 266.383 147.826C266.769 147.101 267.307 146.545 267.998 146.16C268.69 145.775 269.477 145.582 270.361 145.582C271.245 145.582 272.016 145.775 272.673 146.16C273.342 146.545 273.852 147.067 274.203 147.724C274.566 148.37 274.747 149.09 274.747 149.883ZM273.54 149.849C273.552 149.158 273.41 148.568 273.115 148.081C272.832 147.594 272.441 147.225 271.942 146.976C271.444 146.727 270.9 146.602 270.31 146.602C269.426 146.602 268.673 146.885 268.049 147.452C267.426 148.019 267.08 148.818 267.012 149.849H273.54ZM278.114 147.367C278.375 146.789 278.772 146.341 279.304 146.024C279.848 145.707 280.511 145.548 281.293 145.548V146.789H280.97C280.109 146.789 279.418 147.021 278.896 147.486C278.375 147.951 278.114 148.727 278.114 149.815V155H276.924V145.718H278.114V147.367ZM291.404 146.721H289.245V155H288.055V146.721H286.763V145.718H288.055V145.072C288.055 144.063 288.31 143.321 288.82 142.845C289.341 142.369 290.18 142.131 291.336 142.131V143.151C290.565 143.151 290.021 143.298 289.704 143.593C289.398 143.888 289.245 144.381 289.245 145.072V145.718H291.404V146.721ZM297.34 155.136C296.467 155.136 295.68 154.943 294.977 154.558C294.286 154.161 293.736 153.606 293.328 152.892C292.931 152.167 292.733 151.322 292.733 150.359C292.733 149.396 292.937 148.557 293.345 147.843C293.753 147.118 294.308 146.562 295.011 146.177C295.714 145.78 296.501 145.582 297.374 145.582C298.247 145.582 299.034 145.78 299.737 146.177C300.451 146.562 301.006 147.118 301.403 147.843C301.811 148.557 302.015 149.396 302.015 150.359C302.015 151.311 301.811 152.15 301.403 152.875C300.995 153.6 300.434 154.161 299.72 154.558C299.006 154.943 298.213 155.136 297.34 155.136ZM297.34 154.099C297.952 154.099 298.519 153.963 299.04 153.691C299.561 153.408 299.981 152.988 300.298 152.433C300.627 151.866 300.791 151.175 300.791 150.359C300.791 149.543 300.632 148.857 300.315 148.302C299.998 147.735 299.578 147.316 299.057 147.044C298.536 146.761 297.969 146.619 297.357 146.619C296.745 146.619 296.178 146.761 295.657 147.044C295.136 147.316 294.716 147.735 294.399 148.302C294.093 148.857 293.94 149.543 293.94 150.359C293.94 151.175 294.093 151.866 294.399 152.433C294.716 152.988 295.13 153.408 295.64 153.691C296.161 153.963 296.728 154.099 297.34 154.099ZM305.374 147.367C305.635 146.789 306.032 146.341 306.564 146.024C307.108 145.707 307.771 145.548 308.553 145.548V146.789H308.23C307.369 146.789 306.678 147.021 306.156 147.486C305.635 147.951 305.374 148.727 305.374 149.815V155H304.184V145.718H305.374V147.367ZM316.555 146.721V152.484C316.555 153.051 316.663 153.442 316.878 153.657C317.094 153.872 317.473 153.98 318.017 153.98H319.105V155H317.83C316.992 155 316.368 154.807 315.96 154.422C315.552 154.025 315.348 153.379 315.348 152.484V146.721H314.056V145.718H315.348V143.389H316.555V145.718H319.105V146.721H316.555ZM325.488 145.548C326.191 145.548 326.82 145.695 327.375 145.99C327.942 146.285 328.384 146.738 328.701 147.35C329.03 147.951 329.194 148.687 329.194 149.56V155H328.021V149.696C328.021 148.687 327.766 147.917 327.256 147.384C326.757 146.851 326.072 146.585 325.199 146.585C324.304 146.585 323.59 146.868 323.057 147.435C322.524 148.002 322.258 148.835 322.258 149.934V155H321.068V142.42H322.258V147.299C322.553 146.744 322.983 146.313 323.55 146.007C324.128 145.701 324.774 145.548 325.488 145.548ZM340.224 149.883C340.224 150.291 340.212 150.603 340.19 150.818H332.489C332.523 151.521 332.693 152.121 332.999 152.62C333.305 153.119 333.707 153.498 334.206 153.759C334.704 154.008 335.248 154.133 335.838 154.133C336.608 154.133 337.254 153.946 337.776 153.572C338.308 153.198 338.66 152.694 338.83 152.059H340.088C339.861 152.966 339.374 153.708 338.626 154.286C337.889 154.853 336.96 155.136 335.838 155.136C334.965 155.136 334.183 154.943 333.492 154.558C332.8 154.161 332.256 153.606 331.86 152.892C331.474 152.167 331.282 151.322 331.282 150.359C331.282 149.396 331.474 148.551 331.86 147.826C332.245 147.101 332.783 146.545 333.475 146.16C334.166 145.775 334.954 145.582 335.838 145.582C336.722 145.582 337.492 145.775 338.15 146.16C338.818 146.545 339.328 147.067 339.68 147.724C340.042 148.37 340.224 149.09 340.224 149.883ZM339.017 149.849C339.028 149.158 338.886 148.568 338.592 148.081C338.308 147.594 337.917 147.225 337.419 146.976C336.92 146.727 336.376 146.602 335.787 146.602C334.903 146.602 334.149 146.885 333.526 147.452C332.902 148.019 332.557 148.818 332.489 149.849H339.017ZM351.486 145.548C352.189 145.548 352.818 145.695 353.373 145.99C353.94 146.285 354.382 146.738 354.699 147.35C355.028 147.951 355.192 148.687 355.192 149.56V155H354.019V149.696C354.019 148.687 353.764 147.917 353.254 147.384C352.755 146.851 352.07 146.585 351.197 146.585C350.302 146.585 349.588 146.868 349.055 147.435C348.522 148.002 348.256 148.835 348.256 149.934V155H347.066V142.42H348.256V147.299C348.551 146.744 348.981 146.313 349.548 146.007C350.126 145.701 350.772 145.548 351.486 145.548ZM361.887 155.136C361.014 155.136 360.227 154.943 359.524 154.558C358.833 154.161 358.283 153.606 357.875 152.892C357.478 152.167 357.28 151.322 357.28 150.359C357.28 149.396 357.484 148.557 357.892 147.843C358.3 147.118 358.855 146.562 359.558 146.177C360.261 145.78 361.048 145.582 361.921 145.582C362.794 145.582 363.581 145.78 364.284 146.177C364.998 146.562 365.553 147.118 365.95 147.843C366.358 148.557 366.562 149.396 366.562 150.359C366.562 151.311 366.358 152.15 365.95 152.875C365.542 153.6 364.981 154.161 364.267 154.558C363.553 154.943 362.76 155.136 361.887 155.136ZM361.887 154.099C362.499 154.099 363.066 153.963 363.587 153.691C364.108 153.408 364.528 152.988 364.845 152.433C365.174 151.866 365.338 151.175 365.338 150.359C365.338 149.543 365.179 148.857 364.862 148.302C364.545 147.735 364.125 147.316 363.604 147.044C363.083 146.761 362.516 146.619 361.904 146.619C361.292 146.619 360.725 146.761 360.204 147.044C359.683 147.316 359.263 147.735 358.946 148.302C358.64 148.857 358.487 149.543 358.487 150.359C358.487 151.175 358.64 151.866 358.946 152.433C359.263 152.988 359.677 153.408 360.187 153.691C360.708 153.963 361.275 154.099 361.887 154.099ZM379.781 145.548C380.869 145.548 381.753 145.894 382.433 146.585C383.124 147.265 383.47 148.257 383.47 149.56V155H382.297V149.696C382.297 148.687 382.053 147.917 381.566 147.384C381.079 146.851 380.416 146.585 379.577 146.585C378.704 146.585 378.007 146.874 377.486 147.452C376.965 148.03 376.704 148.869 376.704 149.968V155H375.531V149.696C375.531 148.687 375.287 147.917 374.8 147.384C374.313 146.851 373.644 146.585 372.794 146.585C371.921 146.585 371.224 146.874 370.703 147.452C370.182 148.03 369.921 148.869 369.921 149.968V155H368.731V145.718H369.921V147.316C370.216 146.738 370.635 146.302 371.179 146.007C371.723 145.701 372.329 145.548 372.998 145.548C373.803 145.548 374.505 145.741 375.106 146.126C375.718 146.511 376.16 147.078 376.432 147.826C376.681 147.089 377.106 146.528 377.707 146.143C378.319 145.746 379.01 145.548 379.781 145.548ZM394.511 149.883C394.511 150.291 394.5 150.603 394.477 150.818H386.776C386.81 151.521 386.98 152.121 387.286 152.62C387.592 153.119 387.994 153.498 388.493 153.759C388.992 154.008 389.536 154.133 390.125 154.133C390.896 154.133 391.542 153.946 392.063 153.572C392.596 153.198 392.947 152.694 393.117 152.059H394.375C394.148 152.966 393.661 153.708 392.913 154.286C392.176 154.853 391.247 155.136 390.125 155.136C389.252 155.136 388.47 154.943 387.779 154.558C387.088 154.161 386.544 153.606 386.147 152.892C385.762 152.167 385.569 151.322 385.569 150.359C385.569 149.396 385.762 148.551 386.147 147.826C386.532 147.101 387.071 146.545 387.762 146.16C388.453 145.775 389.241 145.582 390.125 145.582C391.009 145.582 391.78 145.775 392.437 146.16C393.106 146.545 393.616 147.067 393.967 147.724C394.33 148.37 394.511 149.09 394.511 149.883ZM393.304 149.849C393.315 149.158 393.174 148.568 392.879 148.081C392.596 147.594 392.205 147.225 391.706 146.976C391.207 146.727 390.663 146.602 390.074 146.602C389.19 146.602 388.436 146.885 387.813 147.452C387.19 148.019 386.844 148.818 386.776 149.849H393.304ZM408.928 145.718L406.021 155H404.831L402.264 147.214L399.697 155H398.49L395.583 145.718H396.79L399.102 153.793L401.703 145.718H402.893L405.46 153.81L407.755 145.718H408.928ZM414.613 155.136C413.741 155.136 412.953 154.943 412.25 154.558C411.559 154.161 411.009 153.606 410.601 152.892C410.205 152.167 410.006 151.322 410.006 150.359C410.006 149.396 410.21 148.557 410.618 147.843C411.026 147.118 411.582 146.562 412.284 146.177C412.987 145.78 413.775 145.582 414.647 145.582C415.52 145.582 416.308 145.78 417.01 146.177C417.724 146.562 418.28 147.118 418.676 147.843C419.084 148.557 419.288 149.396 419.288 150.359C419.288 151.311 419.084 152.15 418.676 152.875C418.268 153.6 417.707 154.161 416.993 154.558C416.279 154.943 415.486 155.136 414.613 155.136ZM414.613 154.099C415.225 154.099 415.792 153.963 416.313 153.691C416.835 153.408 417.254 152.988 417.571 152.433C417.9 151.866 418.064 151.175 418.064 150.359C418.064 149.543 417.906 148.857 417.588 148.302C417.271 147.735 416.852 147.316 416.33 147.044C415.809 146.761 415.242 146.619 414.63 146.619C414.018 146.619 413.452 146.761 412.93 147.044C412.409 147.316 411.99 147.735 411.672 148.302C411.366 148.857 411.213 149.543 411.213 150.359C411.213 151.175 411.366 151.866 411.672 152.433C411.99 152.988 412.403 153.408 412.913 153.691C413.435 153.963 414.001 154.099 414.613 154.099ZM422.648 147.367C422.908 146.789 423.305 146.341 423.838 146.024C424.382 145.707 425.045 145.548 425.827 145.548V146.789H425.504C424.642 146.789 423.951 147.021 423.43 147.486C422.908 147.951 422.648 148.727 422.648 149.815V155H421.458V145.718H422.648V147.367ZM432.632 155L428.807 150.835V155H427.617V142.42H428.807V149.866L432.547 145.718H434.213L429.81 150.342L434.247 155H432.632ZM46.01 171.718L40.502 185.369H39.261L41.063 180.949L37.255 171.718H38.564L41.726 179.64L44.786 171.718H46.01ZM51.6867 181.136C50.814 181.136 50.0263 180.943 49.3237 180.558C48.6323 180.161 48.0827 179.606 47.6747 178.892C47.278 178.167 47.0797 177.322 47.0797 176.359C47.0797 175.396 47.2837 174.557 47.6917 173.843C48.0997 173.118 48.655 172.562 49.3577 172.177C50.0603 171.78 50.848 171.582 51.7207 171.582C52.5933 171.582 53.381 171.78 54.0837 172.177C54.7977 172.562 55.353 173.118 55.7497 173.843C56.1577 174.557 56.3617 175.396 56.3617 176.359C56.3617 177.311 56.1577 178.15 55.7497 178.875C55.3417 179.6 54.7807 180.161 54.0667 180.558C53.3527 180.943 52.5593 181.136 51.6867 181.136ZM51.6867 180.099C52.2987 180.099 52.8653 179.963 53.3867 179.691C53.908 179.408 54.3273 178.988 54.6447 178.433C54.9733 177.866 55.1377 177.175 55.1377 176.359C55.1377 175.543 54.979 174.857 54.6617 174.302C54.3443 173.735 53.925 173.316 53.4037 173.044C52.8823 172.761 52.3157 172.619 51.7037 172.619C51.0917 172.619 50.525 172.761 50.0037 173.044C49.4823 173.316 49.063 173.735 48.7457 174.302C48.4397 174.857 48.2867 175.543 48.2867 176.359C48.2867 177.175 48.4397 177.866 48.7457 178.433C49.063 178.988 49.4767 179.408 49.9867 179.691C50.508 179.963 51.0747 180.099 51.6867 180.099ZM66.5719 171.718V181H65.3819V179.368C65.1099 179.946 64.6906 180.388 64.1239 180.694C63.5572 181 62.9226 181.153 62.2199 181.153C61.1092 181.153 60.2026 180.813 59.4999 180.133C58.7972 179.442 58.4459 178.444 58.4459 177.141V171.718H59.6189V177.005C59.6189 178.014 59.8682 178.784 60.3669 179.317C60.8769 179.85 61.5682 180.116 62.4409 180.116C63.3362 180.116 64.0502 179.833 64.5829 179.266C65.1156 178.699 65.3819 177.866 65.3819 176.767V171.718H66.5719ZM77.8468 171.582C78.7194 171.582 79.4788 171.786 80.1248 172.194C80.7708 172.602 81.2354 173.118 81.5188 173.741V171.718H82.7088V181.238C82.7088 182.088 82.5218 182.842 82.1478 183.499C81.7851 184.156 81.2751 184.661 80.6178 185.012C79.9604 185.375 79.2124 185.556 78.3738 185.556C77.1838 185.556 76.1921 185.273 75.3988 184.706C74.6168 184.139 74.1294 183.369 73.9368 182.394H75.1098C75.3138 183.04 75.6991 183.556 76.2658 183.941C76.8438 184.326 77.5464 184.519 78.3738 184.519C78.9744 184.519 79.5128 184.389 79.9888 184.128C80.4648 183.879 80.8388 183.505 81.1108 183.006C81.3828 182.507 81.5188 181.918 81.5188 181.238V178.943C81.2241 179.578 80.7538 180.105 80.1078 180.524C79.4731 180.932 78.7194 181.136 77.8468 181.136C76.9968 181.136 76.2318 180.938 75.5518 180.541C74.8831 180.144 74.3561 179.583 73.9708 178.858C73.5968 178.133 73.4098 177.294 73.4098 176.342C73.4098 175.39 73.5968 174.557 73.9708 173.843C74.3561 173.118 74.8831 172.562 75.5518 172.177C76.2318 171.78 76.9968 171.582 77.8468 171.582ZM81.5188 176.359C81.5188 175.611 81.3658 174.954 81.0598 174.387C80.7538 173.82 80.3344 173.384 79.8018 173.078C79.2804 172.772 78.7024 172.619 78.0678 172.619C77.4104 172.619 76.8211 172.766 76.2998 173.061C75.7784 173.356 75.3648 173.786 75.0588 174.353C74.7641 174.908 74.6168 175.571 74.6168 176.342C74.6168 177.101 74.7641 177.77 75.0588 178.348C75.3648 178.915 75.7784 179.351 76.2998 179.657C76.8211 179.952 77.4104 180.099 78.0678 180.099C78.7024 180.099 79.2804 179.946 79.8018 179.64C80.3344 179.334 80.7538 178.898 81.0598 178.331C81.3658 177.764 81.5188 177.107 81.5188 176.359ZM84.8814 176.342C84.8814 175.39 85.0684 174.557 85.4424 173.843C85.8278 173.118 86.3548 172.562 87.0234 172.177C87.7034 171.78 88.4684 171.582 89.3184 171.582C90.2024 171.582 90.9618 171.786 91.5964 172.194C92.2424 172.602 92.7071 173.123 92.9904 173.758V171.718H94.1804V181H92.9904V178.943C92.6958 179.578 92.2254 180.105 91.5794 180.524C90.9448 180.932 90.1854 181.136 89.3014 181.136C88.4628 181.136 87.7034 180.938 87.0234 180.541C86.3548 180.144 85.8278 179.583 85.4424 178.858C85.0684 178.133 84.8814 177.294 84.8814 176.342ZM92.9904 176.359C92.9904 175.611 92.8374 174.954 92.5314 174.387C92.2254 173.82 91.8061 173.384 91.2734 173.078C90.7521 172.772 90.1741 172.619 89.5394 172.619C88.8821 172.619 88.2928 172.766 87.7714 173.061C87.2501 173.356 86.8364 173.786 86.5304 174.353C86.2358 174.908 86.0884 175.571 86.0884 176.342C86.0884 177.101 86.2358 177.77 86.5304 178.348C86.8364 178.915 87.2501 179.351 87.7714 179.657C88.2928 179.952 88.8821 180.099 89.5394 180.099C90.1741 180.099 90.7521 179.946 91.2734 179.64C91.8061 179.334 92.2254 178.898 92.5314 178.331C92.8374 177.764 92.9904 177.107 92.9904 176.359ZM100.195 179.844L103.323 171.718H104.581L100.858 181H99.5151L95.7921 171.718H97.0671L100.195 179.844ZM114.592 175.883C114.592 176.291 114.581 176.603 114.558 176.818H106.857C106.891 177.521 107.061 178.121 107.367 178.62C107.673 179.119 108.075 179.498 108.574 179.759C109.073 180.008 109.617 180.133 110.206 180.133C110.977 180.133 111.623 179.946 112.144 179.572C112.677 179.198 113.028 178.694 113.198 178.059H114.456C114.229 178.966 113.742 179.708 112.994 180.286C112.257 180.853 111.328 181.136 110.206 181.136C109.333 181.136 108.551 180.943 107.86 180.558C107.169 180.161 106.625 179.606 106.228 178.892C105.843 178.167 105.65 177.322 105.65 176.359C105.65 175.396 105.843 174.551 106.228 173.826C106.613 173.101 107.152 172.545 107.843 172.16C108.534 171.775 109.322 171.582 110.206 171.582C111.09 171.582 111.861 171.775 112.518 172.16C113.187 172.545 113.697 173.067 114.048 173.724C114.411 174.37 114.592 175.09 114.592 175.883ZM113.385 175.849C113.396 175.158 113.255 174.568 112.96 174.081C112.677 173.594 112.286 173.225 111.787 172.976C111.288 172.727 110.744 172.602 110.155 172.602C109.271 172.602 108.517 172.885 107.894 173.452C107.271 174.019 106.925 174.818 106.857 175.849H113.385ZM132.484 171.548C133.572 171.548 134.456 171.894 135.136 172.585C135.828 173.265 136.173 174.257 136.173 175.56V181H135V175.696C135 174.687 134.757 173.917 134.269 173.384C133.782 172.851 133.119 172.585 132.28 172.585C131.408 172.585 130.711 172.874 130.189 173.452C129.668 174.03 129.407 174.869 129.407 175.968V181H128.234V175.696C128.234 174.687 127.991 173.917 127.503 173.384C127.016 172.851 126.347 172.585 125.497 172.585C124.625 172.585 123.928 172.874 123.406 173.452C122.885 174.03 122.624 174.869 122.624 175.968V181H121.434V171.718H122.624V173.316C122.919 172.738 123.338 172.302 123.882 172.007C124.426 171.701 125.033 171.548 125.701 171.548C126.506 171.548 127.209 171.741 127.809 172.126C128.421 172.511 128.863 173.078 129.135 173.826C129.385 173.089 129.81 172.528 130.41 172.143C131.022 171.746 131.714 171.548 132.484 171.548ZM147.214 175.883C147.214 176.291 147.203 176.603 147.18 176.818H139.479C139.513 177.521 139.683 178.121 139.989 178.62C140.295 179.119 140.697 179.498 141.196 179.759C141.695 180.008 142.239 180.133 142.828 180.133C143.599 180.133 144.245 179.946 144.766 179.572C145.299 179.198 145.65 178.694 145.82 178.059H147.078C146.851 178.966 146.364 179.708 145.616 180.286C144.879 180.853 143.95 181.136 142.828 181.136C141.955 181.136 141.173 180.943 140.482 180.558C139.791 180.161 139.247 179.606 138.85 178.892C138.465 178.167 138.272 177.322 138.272 176.359C138.272 175.396 138.465 174.551 138.85 173.826C139.235 173.101 139.774 172.545 140.465 172.16C141.156 171.775 141.944 171.582 142.828 171.582C143.712 171.582 144.483 171.775 145.14 172.16C145.809 172.545 146.319 173.067 146.67 173.724C147.033 174.37 147.214 175.09 147.214 175.883ZM146.007 175.849C146.018 175.158 145.877 174.568 145.582 174.081C145.299 173.594 144.908 173.225 144.409 172.976C143.91 172.727 143.366 172.602 142.777 172.602C141.893 172.602 141.139 172.885 140.516 173.452C139.893 174.019 139.547 174.818 139.479 175.849H146.007ZM149.595 181.085C149.346 181.085 149.136 181 148.966 180.83C148.808 180.66 148.728 180.45 148.728 180.201C148.728 179.952 148.808 179.748 148.966 179.589C149.136 179.419 149.346 179.334 149.595 179.334C149.833 179.334 150.032 179.419 150.19 179.589C150.36 179.748 150.445 179.952 150.445 180.201C150.445 180.45 150.36 180.66 150.19 180.83C150.032 181 149.833 181.085 149.595 181.085Z" fill="black"/>
<path d="M49 101L52.09 107.26L59 108.27L54 113.14L55.18 120.02L49 116.77L42.82 120.02L44 113.14L39 108.27L45.91 107.26L49 101V101" fill="#FFA04C"/>
<path d="M49 101L52.09 107.26L59 108.27L54 113.14L55.18 120.02L49 116.77L42.82 120.02L44 113.14L39 108.27L45.91 107.26L49 101V101" stroke="#FFA04C" stroke-width="2" stroke-linecap="round" stroke-linejoin="round"/>
<path d="M81 101L84.09 107.26L91 108.27L86 113.14L87.18 120.02L81 116.77L74.82 120.02L76 113.14L71 108.27L77.91 107.26L81 101V101" fill="#FFA04C"/>
<path d="M81 101L84.09 107.26L91 108.27L86 113.14L87.18 120.02L81 116.77L74.82 120.02L76 113.14L71 108.27L77.91 107.26L81 101V101" stroke="#FFA04C" stroke-width="2" stroke-linecap="round" stroke-linejoin="round"/>
<path d="M113 101L116.09 107.26L123 108.27L118 113.14L119.18 120.02L113 116.77L106.82 120.02L108 113.14L103 108.27L109.91 107.26L113 101V101" stroke="#FFA04C" stroke-width="2" stroke-linecap="round" stroke-linejoin="round"/>
<path d="M234.25 373.5L229.7 368.95L234.25 364.4" stroke="#CACACB" stroke-width="1.06167" stroke-linecap="round" stroke-linejoin="round"/>
<rect x="251" y="365.85" width="6.3" height="6.3" rx="3.15" fill="#AFADAD"/>
<rect x="265.7" y="365.85" width="6.3" height="6.3" rx="3.15" fill="#6B6B6B"/>
<path d="M285.7 373.5L290.25 368.95L285.7 364.4" stroke="black" stroke-width="1.06167" stroke-linecap="round" stroke-linejoin="round"/>
<rect x="39.463" y="233.463" width="186.074" height="36.6675" rx="6.9448" fill="#FDF3EC"/>
<rect x="39.463" y="233.463" width="186.074" height="36.6675" rx="6.9448" stroke="#E1BE9A" stroke-width="0.925974"/>
<path d="M62.9641 249.56L57.7463 244.343H52.5284C51.7056 244.343 51.0376 245.011 51.0376 245.833V257.76C51.0376 258.583 51.7056 259.251 52.5284 259.251H61.4733C62.2961 259.251 62.9641 258.583 62.9641 257.76V249.56ZM57.7463 244.343V249.56H62.9641" stroke="#A06F45" stroke-width="1.14678" stroke-linecap="round" stroke-linejoin="round"/>
<path d="M70.9325 251.783C70.9325 250.896 71.1325 250.101 71.5324 249.396C71.9323 248.684 72.4756 248.127 73.1624 247.727C73.8579 247.327 74.6272 247.127 75.4705 247.127C76.4615 247.127 77.3265 247.367 78.0654 247.845C78.8044 248.323 79.3433 249.001 79.6824 249.879H78.261C78.0089 249.331 77.6438 248.91 77.1657 248.614C76.6962 248.318 76.1312 248.171 75.4705 248.171C74.8359 248.171 74.2664 248.318 73.7622 248.614C73.258 248.91 72.8625 249.331 72.5756 249.879C72.2887 250.418 72.1453 251.053 72.1453 251.783C72.1453 252.504 72.2887 253.139 72.5756 253.687C72.8625 254.226 73.258 254.643 73.7622 254.938C74.2664 255.234 74.8359 255.382 75.4705 255.382C76.1312 255.382 76.6962 255.238 77.1657 254.952C77.6438 254.656 78.0089 254.234 78.261 253.687H79.6824C79.3433 254.556 78.8044 255.23 78.0654 255.708C77.3265 256.177 76.4615 256.412 75.4705 256.412C74.6272 256.412 73.8579 256.216 73.1624 255.825C72.4756 255.425 71.9323 254.873 71.5324 254.169C71.1325 253.465 70.9325 252.67 70.9325 251.783ZM81.0054 252.735C81.0054 252.004 81.1532 251.366 81.4488 250.818C81.7444 250.261 82.1486 249.831 82.6615 249.527C83.1831 249.223 83.7612 249.07 84.3958 249.07C85.0218 249.07 85.5651 249.205 86.0258 249.475C86.4866 249.744 86.83 250.083 87.056 250.492V249.188H88.2557V256.334H87.056V255.004C86.8213 255.421 86.4692 255.769 85.9998 256.047C85.539 256.316 85 256.451 84.3828 256.451C83.7482 256.451 83.1744 256.295 82.6615 255.982C82.1486 255.669 81.7444 255.23 81.4488 254.665C81.1532 254.1 81.0054 253.456 81.0054 252.735ZM87.056 252.748C87.056 252.209 86.9473 251.739 86.73 251.339C86.5127 250.94 86.2171 250.635 85.8433 250.427C85.4782 250.209 85.0739 250.101 84.6306 250.101C84.1872 250.101 83.783 250.205 83.4178 250.414C83.0527 250.622 82.7615 250.926 82.5442 251.326C82.3268 251.726 82.2182 252.196 82.2182 252.735C82.2182 253.282 82.3268 253.761 82.5442 254.169C82.7615 254.569 83.0527 254.878 83.4178 255.095C83.783 255.304 84.1872 255.408 84.6306 255.408C85.0739 255.408 85.4782 255.304 85.8433 255.095C86.2171 254.878 86.5127 254.569 86.73 254.169C86.9473 253.761 87.056 253.287 87.056 252.748ZM91.4476 246.684V256.334H90.261V246.684H91.4476ZM93.0267 252.748C93.0267 252.009 93.1745 251.366 93.47 250.818C93.7656 250.261 94.1742 249.831 94.6958 249.527C95.2261 249.223 95.8303 249.07 96.5084 249.07C97.3864 249.07 98.1079 249.283 98.673 249.709C99.2468 250.135 99.6249 250.727 99.8075 251.483H98.5296C98.4079 251.048 98.1688 250.705 97.8124 250.453C97.4646 250.201 97.03 250.075 96.5084 250.075C95.8303 250.075 95.2826 250.309 94.8653 250.779C94.448 251.239 94.2394 251.896 94.2394 252.748C94.2394 253.608 94.448 254.273 94.8653 254.743C95.2826 255.212 95.8303 255.447 96.5084 255.447C97.03 255.447 97.4646 255.325 97.8124 255.082C98.1601 254.838 98.3992 254.491 98.5296 254.039H99.8075C99.6162 254.769 99.2337 255.356 98.66 255.799C98.0862 256.234 97.369 256.451 96.5084 256.451C95.8303 256.451 95.2261 256.299 94.6958 255.995C94.1742 255.69 93.7656 255.26 93.47 254.704C93.1745 254.147 93.0267 253.495 93.0267 252.748ZM108.414 249.057C108.953 249.057 109.44 249.175 109.875 249.41C110.309 249.636 110.648 249.979 110.892 250.44C111.144 250.9 111.27 251.461 111.27 252.122V256.334H110.096V252.291C110.096 251.578 109.918 251.035 109.562 250.661C109.205 250.279 108.718 250.088 108.101 250.088C107.475 250.088 106.975 250.283 106.602 250.674C106.237 251.066 106.054 251.635 106.054 252.383V256.334H104.867V246.684H106.054V250.205C106.289 249.84 106.61 249.557 107.019 249.357C107.436 249.157 107.901 249.057 108.414 249.057ZM116.325 256.451C115.655 256.451 115.047 256.299 114.499 255.995C113.96 255.69 113.534 255.26 113.221 254.704C112.917 254.139 112.765 253.487 112.765 252.748C112.765 252.017 112.921 251.374 113.234 250.818C113.556 250.253 113.991 249.822 114.538 249.527C115.086 249.223 115.699 249.07 116.377 249.07C117.055 249.07 117.668 249.223 118.216 249.527C118.763 249.822 119.194 250.248 119.507 250.805C119.828 251.361 119.989 252.009 119.989 252.748C119.989 253.487 119.824 254.139 119.494 254.704C119.172 255.26 118.733 255.69 118.177 255.995C117.62 256.299 117.003 256.451 116.325 256.451ZM116.325 255.408C116.751 255.408 117.151 255.308 117.525 255.108C117.898 254.908 118.198 254.608 118.424 254.208C118.659 253.808 118.776 253.322 118.776 252.748C118.776 252.174 118.663 251.687 118.437 251.287C118.211 250.887 117.916 250.592 117.551 250.401C117.186 250.201 116.79 250.101 116.364 250.101C115.929 250.101 115.529 250.201 115.164 250.401C114.808 250.592 114.521 250.887 114.304 251.287C114.086 251.687 113.978 252.174 113.978 252.748C113.978 253.33 114.082 253.821 114.291 254.221C114.508 254.621 114.795 254.921 115.151 255.121C115.508 255.312 115.899 255.408 116.325 255.408ZM130.143 249.057C130.699 249.057 131.195 249.175 131.629 249.41C132.064 249.636 132.407 249.979 132.659 250.44C132.912 250.9 133.038 251.461 133.038 252.122V256.334H131.864V252.291C131.864 251.578 131.686 251.035 131.329 250.661C130.982 250.279 130.508 250.088 129.908 250.088C129.291 250.088 128.8 250.288 128.434 250.687C128.069 251.079 127.887 251.648 127.887 252.396V256.334H126.713V252.291C126.713 251.578 126.535 251.035 126.179 250.661C125.831 250.279 125.357 250.088 124.757 250.088C124.14 250.088 123.649 250.288 123.284 250.687C122.919 251.079 122.736 251.648 122.736 252.396V256.334H121.549V249.188H122.736V250.218C122.971 249.844 123.284 249.557 123.675 249.357C124.075 249.157 124.514 249.057 124.992 249.057C125.592 249.057 126.122 249.192 126.583 249.462C127.044 249.731 127.387 250.127 127.613 250.648C127.813 250.144 128.143 249.753 128.604 249.475C129.065 249.197 129.578 249.057 130.143 249.057ZM141.504 252.487C141.504 252.713 141.491 252.952 141.465 253.204H135.753C135.797 253.908 136.036 254.46 136.471 254.86C136.914 255.251 137.449 255.447 138.075 255.447C138.587 255.447 139.013 255.33 139.353 255.095C139.7 254.852 139.944 254.53 140.083 254.13H141.361C141.169 254.817 140.787 255.377 140.213 255.812C139.639 256.238 138.927 256.451 138.075 256.451C137.397 256.451 136.788 256.299 136.249 255.995C135.719 255.69 135.301 255.26 134.997 254.704C134.693 254.139 134.541 253.487 134.541 252.748C134.541 252.009 134.689 251.361 134.984 250.805C135.28 250.248 135.693 249.822 136.223 249.527C136.762 249.223 137.379 249.07 138.075 249.07C138.753 249.07 139.353 249.218 139.874 249.514C140.396 249.809 140.796 250.218 141.074 250.74C141.361 251.252 141.504 251.835 141.504 252.487ZM140.278 252.239C140.278 251.787 140.178 251.4 139.978 251.079C139.778 250.748 139.505 250.501 139.157 250.335C138.818 250.161 138.44 250.075 138.022 250.075C137.423 250.075 136.91 250.266 136.484 250.648C136.066 251.031 135.827 251.561 135.767 252.239H140.278ZM156.066 249.188L153.836 256.334H152.611L150.889 250.661L149.168 256.334H147.942L145.699 249.188H146.912L148.555 255.186L150.329 249.188H151.541L153.276 255.199L154.893 249.188H156.066ZM160.36 256.451C159.691 256.451 159.082 256.299 158.535 255.995C157.996 255.69 157.57 255.26 157.257 254.704C156.953 254.139 156.8 253.487 156.8 252.748C156.8 252.017 156.957 251.374 157.27 250.818C157.592 250.253 158.026 249.822 158.574 249.527C159.122 249.223 159.734 249.07 160.413 249.07C161.091 249.07 161.703 249.223 162.251 249.527C162.799 249.822 163.229 250.248 163.542 250.805C163.864 251.361 164.025 252.009 164.025 252.748C164.025 253.487 163.859 254.139 163.529 254.704C163.207 255.26 162.768 255.69 162.212 255.995C161.656 256.299 161.038 256.451 160.36 256.451ZM160.36 255.408C160.786 255.408 161.186 255.308 161.56 255.108C161.934 254.908 162.234 254.608 162.46 254.208C162.695 253.808 162.812 253.322 162.812 252.748C162.812 252.174 162.699 251.687 162.473 251.287C162.247 250.887 161.951 250.592 161.586 250.401C161.221 250.201 160.825 250.101 160.399 250.101C159.965 250.101 159.565 250.201 159.2 250.401C158.843 250.592 158.556 250.887 158.339 251.287C158.122 251.687 158.013 252.174 158.013 252.748C158.013 253.33 158.117 253.821 158.326 254.221C158.543 254.621 158.83 254.921 159.187 255.121C159.543 255.312 159.934 255.408 160.36 255.408ZM166.771 250.348C166.98 249.94 167.276 249.622 167.658 249.396C168.049 249.17 168.523 249.057 169.08 249.057V250.283H168.767C167.436 250.283 166.771 251.005 166.771 252.448V256.334H165.585V249.188H166.771V250.348ZM174.44 256.334L171.636 253.178V256.334H170.449V246.684H171.636V252.357L174.387 249.188H176.044L172.679 252.748L176.057 256.334H174.44ZM177.539 256.412C177.312 256.412 177.121 256.334 176.965 256.177C176.808 256.021 176.73 255.83 176.73 255.604C176.73 255.377 176.808 255.186 176.965 255.03C177.121 254.873 177.312 254.795 177.539 254.795C177.756 254.795 177.938 254.873 178.086 255.03C178.243 255.186 178.321 255.377 178.321 255.604C178.321 255.83 178.243 256.021 178.086 256.177C177.938 256.334 177.756 256.412 177.539 256.412ZM181.085 250.505C181.32 250.096 181.667 249.757 182.128 249.488C182.598 249.21 183.141 249.07 183.758 249.07C184.393 249.07 184.966 249.223 185.479 249.527C186.001 249.831 186.41 250.261 186.705 250.818C187.001 251.366 187.148 252.004 187.148 252.735C187.148 253.456 187.001 254.1 186.705 254.665C186.41 255.23 186.001 255.669 185.479 255.982C184.966 256.295 184.393 256.451 183.758 256.451C183.15 256.451 182.611 256.316 182.141 256.047C181.68 255.769 181.328 255.425 181.085 255.017V259.724H179.898V249.188H181.085V250.505ZM185.936 252.735C185.936 252.196 185.827 251.726 185.61 251.326C185.392 250.926 185.097 250.622 184.723 250.414C184.358 250.205 183.954 250.101 183.51 250.101C183.076 250.101 182.671 250.209 182.298 250.427C181.932 250.635 181.637 250.944 181.411 251.352C181.194 251.752 181.085 252.217 181.085 252.748C181.085 253.287 181.194 253.761 181.411 254.169C181.637 254.569 181.932 254.878 182.298 255.095C182.671 255.304 183.076 255.408 183.51 255.408C183.954 255.408 184.358 255.304 184.723 255.095C185.097 254.878 185.392 254.569 185.61 254.169C185.827 253.761 185.936 253.282 185.936 252.735ZM188.267 252.735C188.267 252.004 188.415 251.366 188.71 250.818C189.006 250.261 189.41 249.831 189.923 249.527C190.445 249.223 191.027 249.07 191.671 249.07C192.227 249.07 192.744 249.201 193.222 249.462C193.7 249.714 194.066 250.048 194.318 250.466V246.684H195.517V256.334H194.318V254.991C194.083 255.417 193.735 255.769 193.274 256.047C192.814 256.316 192.275 256.451 191.657 256.451C191.023 256.451 190.445 256.295 189.923 255.982C189.41 255.669 189.006 255.23 188.71 254.665C188.415 254.1 188.267 253.456 188.267 252.735ZM194.318 252.748C194.318 252.209 194.209 251.739 193.992 251.339C193.774 250.94 193.479 250.635 193.105 250.427C192.74 250.209 192.336 250.101 191.892 250.101C191.449 250.101 191.045 250.205 190.679 250.414C190.314 250.622 190.023 250.926 189.806 251.326C189.588 251.726 189.48 252.196 189.48 252.735C189.48 253.282 189.588 253.761 189.806 254.169C190.023 254.569 190.314 254.878 190.679 255.095C191.045 255.304 191.449 255.408 191.892 255.408C192.336 255.408 192.74 255.304 193.105 255.095C193.479 254.878 193.774 254.569 193.992 254.169C194.209 253.761 194.318 253.287 194.318 252.748ZM200.431 250.166H198.931V256.334H197.744V250.166H196.818V249.188H197.744V248.679C197.744 247.879 197.949 247.297 198.357 246.932C198.774 246.558 199.44 246.371 200.352 246.371V247.362C199.831 247.362 199.461 247.467 199.244 247.675C199.035 247.875 198.931 248.21 198.931 248.679V249.188H200.431V250.166Z" fill="#A06F45"/>
</g>
<defs>
<clipPath id="clip0_5625_993">
<rect width="540" height="410" fill="white"/>
</clipPath>
</defs>
</svg>
