<svg fill="none" height="410" viewBox="0 0 540 410" width="540" xmlns="http://www.w3.org/2000/svg" xmlns:xlink="http://www.w3.org/1999/xlink"><clipPath id="a"><path d="m0 0h540v410h-540z"/></clipPath><g clip-path="url(#a)"><path d="m0 0h540v410h-540z" fill="#fff"/><path d="m201.901 53.657h-4.801l-.825 2.343h-1.964l4.109-11.484h2.178l4.108 11.484h-1.98zm-.528-1.5345-1.864-5.3295-1.881 5.3295zm6.5-3.894c.275-.462.638-.8195 1.089-1.0725.462-.264 1.007-.396 1.634-.396v1.947h-.479c-.737 0-1.298.187-1.683.561-.374.374-.561 1.023-.561 1.947v4.785h-1.881v-9.0915h1.881zm4.909-2.5245c-.341 0-.627-.1155-.858-.3465s-.347-.517-.347-.858.116-.627.347-.858.517-.3465.858-.3465c.33 0 .61.1155.841.3465s.347.517.347.858-.116.627-.347.858-.511.3465-.841.3465zm.924 1.2045v9.0915h-1.881v-9.0915zm10.302 4.323c0 .341-.022.649-.066.924h-6.947c.055.726.325 1.309.809 1.749s1.078.66 1.782.66c1.012 0 1.727-.4235 2.145-1.2705h2.029c-.275.836-.775 1.5235-1.501 2.0625-.715.528-1.606.792-2.673.792-.869 0-1.65-.1925-2.343-.5775-.682-.396-1.221-.946-1.617-1.65-.385-.715-.578-1.54-.578-2.475s.187-1.7545.561-2.4585c.385-.715.919-1.265 1.601-1.65.693-.385 1.485-.5775 2.376-.5775.858 0 1.622.187 2.293.561s1.194.902 1.568 1.584c.374.671.561 1.4465.561 2.3265zm-1.964-.594c-.011-.693-.258-1.2485-.742-1.6665s-1.084-.627-1.799-.627c-.649 0-1.204.209-1.666.627-.462.407-.737.9625-.825 1.6665zm5.196-6.8475v12.21h-1.881v-12.21zm17.834.7425v11.4675h-1.881v-7.854l-3.498 7.854h-1.304l-3.514-7.854v7.854h-1.881v-11.4675h2.029l4.026 8.9925 4.01-8.9925zm1.345 6.8805c0-.913.187-1.7215.561-2.4255.385-.704.902-1.2485 1.551-1.6335.66-.396 1.386-.594 2.178-.594.715 0 1.337.143 1.865.429.539.275.968.6215 1.287 1.0395v-1.32h1.897v9.0915h-1.897v-1.353c-.319.429-.754.7865-1.304 1.0725s-1.177.429-1.881.429c-.781 0-1.496-.198-2.145-.594-.649-.407-1.166-.968-1.551-1.683-.374-.726-.561-1.5455-.561-2.4585zm7.442.033c0-.627-.132-1.1715-.396-1.6335-.253-.462-.589-.814-1.007-1.056s-.869-.363-1.353-.363-.935.121-1.353.363c-.418.231-.759.5775-1.023 1.0395-.253.451-.379.99-.379 1.617s.126 1.177.379 1.65c.264.473.605.836 1.023 1.089.429.242.88.363 1.353.363.484 0 .935-.121 1.353-.363s.754-.594 1.007-1.056c.264-.473.396-1.023.396-1.65zm5.534 3.0195h4.125v1.5345h-6.303v-1.5345l4.142-6.0225h-4.142v-1.5345h6.303v1.5345zm9.544 1.683c-.858 0-1.634-.1925-2.327-.5775-.693-.396-1.237-.946-1.633-1.65-.396-.715-.594-1.54-.594-2.475 0-.924.203-1.7435.61-2.4585s.963-1.265 1.667-1.65 1.49-.5775 2.359-.5775 1.656.1925 2.36.5775 1.259.935 1.666 1.65.611 1.5345.611 2.4585-.209 1.7435-.627 2.4585-.99 1.2705-1.716 1.6665c-.715.385-1.507.5775-2.376.5775zm0-1.6335c.484 0 .935-.1155 1.353-.3465.429-.231.775-.5775 1.039-1.0395s.396-1.023.396-1.683-.126-1.2155-.379-1.6665c-.253-.462-.589-.8085-1.007-1.0395s-.869-.3465-1.353-.3465-.935.1155-1.353.3465c-.407.231-.731.5775-.973 1.0395-.242.451-.363 1.0065-.363 1.6665 0 .979.247 1.738.742 2.277.506.528 1.139.792 1.898.792zm7.959-6.2865c.275-.462.638-.8195 1.089-1.0725.462-.264 1.007-.396 1.634-.396v1.947h-.479c-.737 0-1.298.187-1.683.561-.374.374-.561 1.023-.561 1.947v4.785h-1.881v-9.0915h1.881z" fill="#1f8df1"/><path d="m42.584 44.816v11.184h-1.12v-5.232h-6.064v5.232h-1.12v-11.184h1.12v5.024h6.064v-5.024zm6.3794 11.312c-.8214 0-1.5627-.1813-2.224-.544-.6507-.3733-1.168-.896-1.552-1.568-.3734-.6827-.56-1.4773-.56-2.384s.192-1.696.576-2.368c.384-.6827.9066-1.2053 1.568-1.568.6613-.3733 1.4026-.56 2.224-.56.8213 0 1.5626.1867 2.224.56.672.3627 1.1946.8853 1.568 1.568.384.672.576 1.4613.576 2.368 0 .896-.192 1.6853-.576 2.368s-.912 1.2107-1.584 1.584c-.672.3627-1.4187.544-2.24.544zm0-.976c.576 0 1.1093-.128 1.6-.384.4906-.2667.8853-.6613 1.184-1.184.3093-.5333.464-1.184.464-1.952s-.1494-1.4133-.448-1.936c-.2987-.5333-.6934-.928-1.184-1.184-.4907-.2667-1.024-.4-1.6-.4s-1.1094.1333-1.6.4c-.4907.256-.8854.6507-1.184 1.184-.288.5227-.432 1.168-.432 1.936s.144 1.4187.432 1.952c.2986.5227.688.9173 1.168 1.184.4906.256 1.024.384 1.6.384zm16.8416-8.048c1.024 0 1.856.3253 2.496.976.6507.64.976 1.5733.976 2.8v5.12h-1.104v-4.992c0-.9493-.2293-1.6747-.688-2.176s-1.0827-.752-1.872-.752c-.8213 0-1.4773.272-1.968.816s-.736 1.3333-.736 2.368v4.736h-1.104v-4.992c0-.9493-.2293-1.6747-.688-2.176s-1.088-.752-1.888-.752c-.8213 0-1.4773.272-1.968.816s-.736 1.3333-.736 2.368v4.736h-1.12v-8.736h1.12v1.504c.2773-.544.672-.9547 1.184-1.232.512-.288 1.0827-.432 1.712-.432.7573 0 1.4187.1813 1.984.544.576.3627.992.896 1.248 1.6.2347-.6933.6347-1.2213 1.2-1.584.576-.3733 1.2267-.56 1.952-.56zm13.8634 4.08c0 .384-.0107.6773-.032.88h-7.248c.032.6613.192 1.2267.48 1.696s.6666.8267 1.136 1.072c.4693.2347.9813.352 1.536.352.7253 0 1.3333-.176 1.824-.528.5013-.352.832-.8267.992-1.424h1.184c-.2134.8533-.672 1.552-1.376 2.096-.6934.5333-1.568.8-2.624.8-.8214 0-1.5574-.1813-2.208-.544-.6507-.3733-1.1627-.896-1.536-1.568-.3627-.6827-.544-1.4773-.544-2.384s.1813-1.7013.544-2.384c.3626-.6827.8693-1.2053 1.52-1.568.6506-.3627 1.392-.544 2.224-.544s1.5573.1813 2.176.544c.6293.3627 1.1093.8533 1.44 1.472.3413.608.512 1.2853.512 2.032zm-1.136-.032c.0106-.6507-.1227-1.2053-.4-1.664-.2667-.4587-.6347-.8053-1.104-1.04-.4694-.2347-.9814-.352-1.536-.352-.832 0-1.5414.2667-2.128.8-.5867.5333-.912 1.2853-.976 2.256zm14.7051-3.888-2.736 8.736h-1.12l-2.416-7.328-2.416 7.328h-1.136l-2.736-8.736h1.136l2.176 7.6 2.448-7.6h1.12l2.416 7.616 2.16-7.616zm5.3509 8.864c-.8214 0-1.5627-.1813-2.224-.544-.6507-.3733-1.168-.896-1.552-1.568-.3734-.6827-.56-1.4773-.56-2.384s.192-1.696.576-2.368c.384-.6827.9066-1.2053 1.568-1.568.6613-.3733 1.4026-.56 2.224-.56.8213 0 1.5626.1867 2.2236.56.672.3627 1.195.8853 1.568 1.568.384.672.576 1.4613.576 2.368 0 .896-.192 1.6853-.576 2.368s-.912 1.2107-1.584 1.584c-.672.3627-1.4183.544-2.2396.544zm0-.976c.576 0 1.1093-.128 1.5996-.384.491-.2667.886-.6613 1.184-1.184.31-.5333.464-1.184.464-1.952s-.149-1.4133-.448-1.936c-.298-.5333-.693-.928-1.184-1.184-.4903-.2667-1.0236-.4-1.5996-.4s-1.1094.1333-1.6.4c-.4907.256-.8854.6507-1.184 1.184-.288.5227-.432 1.168-.432 1.936s.144 1.4187.432 1.952c.2986.5227.688.9173 1.168 1.184.4906.256 1.024.384 1.6.384zm7.5616-6.336c.245-.544.619-.9653 1.12-1.264.512-.2987 1.136-.448 1.872-.448v1.168h-.304c-.811 0-1.461.2187-1.952.656s-.736 1.168-.736 2.192v4.88h-1.12v-8.736h1.12zm9.397 7.184-3.6-3.92v3.92h-1.12v-11.84h1.12v7.008l3.52-3.904h1.568l-4.144 4.352 4.176 4.384zm8.478-7.184c.245-.544.619-.9653 1.12-1.264.512-.2987 1.136-.448 1.872-.448v1.168h-.304c-.811 0-1.461.2187-1.952.656s-.736 1.168-.736 2.192v4.88h-1.12v-8.736h1.12zm12.581 2.368c0 .384-.011.6773-.032.88h-7.248c.032.6613.192 1.2267.48 1.696s.667.8267 1.136 1.072c.469.2347.981.352 1.536.352.725 0 1.333-.176 1.824-.528.501-.352.832-.8267.992-1.424h1.184c-.213.8533-.672 1.552-1.376 2.096-.693.5333-1.568.8-2.624.8-.821 0-1.557-.1813-2.208-.544-.651-.3733-1.163-.896-1.536-1.568-.363-.6827-.544-1.4773-.544-2.384s.181-1.7013.544-2.384.869-1.2053 1.52-1.568 1.392-.544 2.224-.544 1.557.1813 2.176.544c.629.3627 1.109.8533 1.44 1.472.341.608.512 1.2853.512 2.032zm-1.136-.032c.011-.6507-.123-1.2053-.4-1.664-.267-.4587-.635-.8053-1.104-1.04s-.981-.352-1.536-.352c-.832 0-1.541.2667-2.128.8s-.912 1.2853-.976 2.256zm6.289 3.76 2.944-7.648h1.184l-3.504 8.736h-1.264l-3.504-8.736h1.2zm6.206-9.296c-.224 0-.416-.08-.576-.24s-.24-.3573-.24-.592.08-.4267.24-.576c.16-.16.352-.24.576-.24s.416.08.576.24c.16.1493.24.3413.24.576s-.08.432-.24.592-.352.24-.576.24zm.56 1.648v8.736h-1.12v-8.736zm10.44 3.92c0 .384-.01.6773-.032.88h-7.248c.032.6613.192 1.2267.48 1.696s.667.8267 1.136 1.072c.47.2347.982.352 1.536.352.726 0 1.334-.176 1.824-.528.502-.352.832-.8267.992-1.424h1.184c-.213.8533-.672 1.552-1.376 2.096-.693.5333-1.568.8-2.624.8-.821 0-1.557-.1813-2.208-.544-.65-.3733-1.162-.896-1.536-1.568-.362-.6827-.544-1.4773-.544-2.384s.182-1.7013.544-2.384c.363-.6827.87-1.2053 1.52-1.568.651-.3627 1.392-.544 2.224-.544s1.558.1813 2.176.544c.63.3627 1.11.8533 1.44 1.472.342.608.512 1.2853.512 2.032zm-1.136-.032c.011-.6507-.122-1.2053-.4-1.664-.266-.4587-.634-.8053-1.104-1.04-.469-.2347-.981-.352-1.536-.352-.832 0-1.541.2667-2.128.8-.586.5333-.912 1.2853-.976 2.256zm14.705-3.888-2.736 8.736h-1.12l-2.416-7.328-2.416 7.328h-1.136l-2.736-8.736h1.136l2.176 7.6 2.448-7.6h1.12l2.416 7.616 2.16-7.616z" fill="#000"/><path d="m183 37h.75v26h-.75z" fill="#000"/><path d="m31 76h467v1h-467z" fill="#ff5e1a"/><path d="m47.183 143.117v11.883h-1.19v-5.559h-6.443v5.559h-1.19v-11.883h1.19v5.338h6.443v-5.338zm11.1131 6.766c0 .408-.0113.72-.034.935h-7.701c.034.703.204 1.303.51 1.802s.7083.878 1.207 1.139c.4987.249 1.0427.374 1.632.374.7707 0 1.4167-.187 1.938-.561.5327-.374.884-.878 1.054-1.513h1.258c-.2267.907-.714 1.649-1.462 2.227-.7367.567-1.666.85-2.788.85-.8727 0-1.6547-.193-2.346-.578-.6913-.397-1.2353-.952-1.632-1.666-.3853-.725-.578-1.57-.578-2.533s.1927-1.808.578-2.533.9237-1.281 1.615-1.666 1.479-.578 2.363-.578 1.6547.193 2.312.578c.6687.385 1.1787.907 1.53 1.564.3627.646.544 1.366.544 2.159zm-1.207-.034c.0113-.691-.1303-1.281-.425-1.768-.2833-.487-.6743-.856-1.173-1.105s-1.0427-.374-1.632-.374c-.884 0-1.6377.283-2.261.85s-.969 1.366-1.037 2.397zm11.0342-4.131-5.508 13.651h-1.241l1.802-4.42-3.808-9.231h1.309l3.162 7.922 3.06-7.922zm9.7977-2.601c1.3147 0 2.4423.238 3.383.714s1.6603 1.162 2.159 2.057.748 1.961.748 3.196c0 1.224-.2493 2.284-.748 3.179-.4987.884-1.2183 1.564-2.159 2.04-.9407.465-2.0683.697-3.383.697h-3.519v-11.883zm0 10.897c1.6547 0 2.9127-.431 3.774-1.292.8727-.873 1.309-2.085 1.309-3.638 0-1.564-.4363-2.782-1.309-3.655-.8613-.884-2.1193-1.326-3.774-1.326h-2.329v9.911zm7.9399-3.672c0-.952.187-1.785.561-2.499.3854-.725.9124-1.281 1.581-1.666.68-.397 1.445-.595 2.295-.595.884 0 1.6434.204 2.278.612.646.408 1.1107.929 1.394 1.564v-2.04h1.19v9.282h-1.19v-2.057c-.2946.635-.765 1.162-1.411 1.581-.6346.408-1.394.612-2.278.612-.8386 0-1.598-.198-2.278-.595-.6686-.397-1.1956-.958-1.581-1.683-.374-.725-.561-1.564-.561-2.516zm8.109.017c0-.748-.153-1.405-.459-1.972s-.7253-1.003-1.258-1.309c-.5213-.306-1.0993-.459-1.734-.459-.6573 0-1.2466.147-1.768.442-.5213.295-.935.725-1.241 1.292-.2946.555-.442 1.218-.442 1.989 0 .759.1474 1.428.442 2.006.306.567.7197 1.003 1.241 1.309.5214.295 1.1107.442 1.768.442.6347 0 1.2127-.153 1.734-.459.5327-.306.952-.742 1.258-1.309s.459-1.224.459-1.972zm8.2591-4.811c1.11 0 2.017.346 2.72 1.037.702.68 1.054 1.672 1.054 2.975v5.44h-1.173v-5.304c0-1.009-.255-1.779-.765-2.312-.499-.533-1.185-.799-2.057-.799-.896 0-1.61.283-2.1424.85-.5327.567-.799 1.4-.799 2.499v5.066h-1.19v-9.282h1.19v1.581c.2947-.567.7197-.997 1.2754-1.292.555-.306 1.184-.459 1.887-.459zm10.757 0c1.111 0 2.018.346 2.72 1.037.703.68 1.054 1.672 1.054 2.975v5.44h-1.173v-5.304c0-1.009-.255-1.779-.765-2.312-.498-.533-1.184-.799-2.057-.799-.895 0-1.609.283-2.142.85-.532.567-.799 1.4-.799 2.499v5.066h-1.19v-9.282h1.19v1.581c.295-.567.72-.997 1.275-1.292.556-.306 1.185-.459 1.887-.459zm14.056.17-5.508 13.651h-1.241l1.802-4.42-3.808-9.231h1.309l3.162 7.922 3.06-7.922zm2.702 7.31-1.768 4.454h-.816l1.258-4.454zm13.468-9.911v.986h-3.298v10.897h-1.19v-10.897h-3.315v-.986zm6.299 2.431c.703 0 1.332.147 1.887.442.567.295 1.009.748 1.326 1.36.329.601.493 1.337.493 2.21v5.44h-1.173v-5.304c0-1.009-.255-1.779-.765-2.312-.498-.533-1.184-.799-2.057-.799-.895 0-1.609.283-2.142.85-.532.567-.799 1.4-.799 2.499v5.066h-1.19v-12.58h1.19v4.879c.295-.555.726-.986 1.292-1.292.578-.306 1.224-.459 1.938-.459zm6.933-1.581c-.238 0-.442-.085-.612-.255s-.255-.38-.255-.629.085-.453.255-.612c.17-.17.374-.255.612-.255s.442.085.612.255c.17.159.255.363.255.612s-.085.459-.255.629-.374.255-.612.255zm.595 1.751v9.282h-1.19v-9.282zm5.891 9.418c-1.065 0-1.938-.244-2.618-.731-.669-.499-1.043-1.173-1.122-2.023h1.224c.057.521.3.946.731 1.275.442.317 1.031.476 1.768.476.646 0 1.15-.153 1.513-.459.374-.306.561-.686.561-1.139 0-.317-.102-.578-.306-.782s-.465-.363-.782-.476c-.306-.125-.725-.255-1.258-.391-.691-.181-1.252-.363-1.683-.544s-.799-.448-1.105-.799c-.295-.363-.442-.844-.442-1.445 0-.453.136-.873.408-1.258s.657-.691 1.156-.918 1.065-.34 1.7-.34c.997 0 1.802.255 2.414.765.612.499.941 1.19.986 2.074h-1.19c-.034-.544-.249-.98-.646-1.309-.385-.34-.918-.51-1.598-.51-.601 0-1.088.142-1.462.425s-.561.635-.561 1.054c0 .363.108.663.323.901.227.227.504.408.833.544.329.125.771.266 1.326.425.669.181 1.201.357 1.598.527s.737.419 1.02.748.431.765.442 1.309c0 .499-.136.946-.408 1.343-.272.385-.652.691-1.139.918s-1.048.34-1.683.34zm10.73-11.169c-.238 0-.442-.085-.612-.255s-.255-.38-.255-.629.085-.453.255-.612c.17-.17.374-.255.612-.255s.442.085.612.255c.17.159.255.363.255.612s-.085.459-.255.629-.374.255-.612.255zm.595 1.751v9.282h-1.19v-9.282zm5.891 9.418c-1.065 0-1.938-.244-2.618-.731-.669-.499-1.043-1.173-1.122-2.023h1.224c.057.521.3.946.731 1.275.442.317 1.031.476 1.768.476.646 0 1.15-.153 1.513-.459.374-.306.561-.686.561-1.139 0-.317-.102-.578-.306-.782s-.465-.363-.782-.476c-.306-.125-.725-.255-1.258-.391-.691-.181-1.252-.363-1.683-.544s-.799-.448-1.105-.799c-.295-.363-.442-.844-.442-1.445 0-.453.136-.873.408-1.258s.657-.691 1.156-.918 1.065-.34 1.7-.34c.997 0 1.802.255 2.414.765.612.499.941 1.19.986 2.074h-1.19c-.034-.544-.249-.98-.646-1.309-.385-.34-.918-.51-1.598-.51-.601 0-1.088.142-1.462.425s-.561.635-.561 1.054c0 .363.108.663.323.901.227.227.504.408.833.544.329.125.771.266 1.326.425.669.181 1.201.357 1.598.527s.737.419 1.02.748.431.765.442 1.309c0 .499-.136.946-.408 1.343-.272.385-.652.691-1.139.918s-1.048.34-1.683.34zm21.185-9.588c1.088 0 1.972.346 2.652 1.037.691.68 1.037 1.672 1.037 2.975v5.44h-1.173v-5.304c0-1.009-.244-1.779-.731-2.312s-1.15-.799-1.989-.799c-.873 0-1.57.289-2.091.867s-.782 1.417-.782 2.516v5.032h-1.173v-5.304c0-1.009-.244-1.779-.731-2.312s-1.156-.799-2.006-.799c-.873 0-1.57.289-2.091.867s-.782 1.417-.782 2.516v5.032h-1.19v-9.282h1.19v1.598c.295-.578.714-1.014 1.258-1.309.544-.306 1.15-.459 1.819-.459.805 0 1.507.193 2.108.578.612.385 1.054.952 1.326 1.7.249-.737.674-1.298 1.275-1.683.612-.397 1.303-.595 2.074-.595zm13.982.17-5.508 13.651h-1.241l1.802-4.42-3.808-9.231h1.309l3.162 7.922 3.06-7.922zm5.734 4.624c0-.952.187-1.785.561-2.499.386-.725.913-1.281 1.581-1.666.68-.397 1.445-.595 2.295-.595.884 0 1.644.204 2.278.612.646.408 1.111.929 1.394 1.564v-2.04h1.19v9.282h-1.19v-2.057c-.294.635-.765 1.162-1.411 1.581-.634.408-1.394.612-2.278.612-.838 0-1.598-.198-2.278-.595-.668-.397-1.195-.958-1.581-1.683-.374-.725-.561-1.564-.561-2.516zm8.109.017c0-.748-.153-1.405-.459-1.972s-.725-1.003-1.258-1.309c-.521-.306-1.099-.459-1.734-.459-.657 0-1.246.147-1.768.442-.521.295-.935.725-1.241 1.292-.294.555-.442 1.218-.442 1.989 0 .759.148 1.428.442 2.006.306.567.72 1.003 1.241 1.309.522.295 1.111.442 1.768.442.635 0 1.213-.153 1.734-.459.533-.306.952-.742 1.258-1.309s.459-1.224.459-1.972zm8.259-4.811c1.111 0 2.017.346 2.72 1.037.703.68 1.054 1.672 1.054 2.975v5.44h-1.173v-5.304c0-1.009-.255-1.779-.765-2.312-.499-.533-1.184-.799-2.057-.799-.895 0-1.609.283-2.142.85s-.799 1.4-.799 2.499v5.066h-1.19v-9.282h1.19v1.581c.295-.567.72-.997 1.275-1.292.555-.306 1.184-.459 1.887-.459zm9.602 9.588c-1.065 0-1.938-.244-2.618-.731-.669-.499-1.043-1.173-1.122-2.023h1.224c.057.521.3.946.731 1.275.442.317 1.031.476 1.768.476.646 0 1.15-.153 1.513-.459.374-.306.561-.686.561-1.139 0-.317-.102-.578-.306-.782s-.465-.363-.782-.476c-.306-.125-.725-.255-1.258-.391-.691-.181-1.252-.363-1.683-.544s-.799-.448-1.105-.799c-.295-.363-.442-.844-.442-1.445 0-.453.136-.873.408-1.258s.657-.691 1.156-.918 1.065-.34 1.7-.34c.997 0 1.802.255 2.414.765.612.499.941 1.19.986 2.074h-1.19c-.034-.544-.249-.98-.646-1.309-.385-.34-.918-.51-1.598-.51-.601 0-1.088.142-1.462.425s-.561.635-.561 1.054c0 .363.108.663.323.901.227.227.504.408.833.544.329.125.771.266 1.326.425.669.181 1.201.357 1.598.527s.737.419 1.02.748.431.765.442 1.309c0 .499-.136.946-.408 1.343-.272.385-.652.691-1.139.918s-1.048.34-1.683.34zm17.71-9.418-2.907 9.282h-1.19l-2.567-7.786-2.567 7.786h-1.207l-2.907-9.282h1.207l2.312 8.075 2.601-8.075h1.19l2.567 8.092 2.295-8.092zm10.02 4.165c0 .408-.011.72-.034.935h-7.701c.034.703.204 1.303.51 1.802s.709.878 1.207 1.139c.499.249 1.043.374 1.632.374.771 0 1.417-.187 1.938-.561.533-.374.884-.878 1.054-1.513h1.258c-.226.907-.714 1.649-1.462 2.227-.736.567-1.666.85-2.788.85-.872 0-1.654-.193-2.346-.578-.691-.397-1.235-.952-1.632-1.666-.385-.725-.578-1.57-.578-2.533s.193-1.808.578-2.533c.386-.725.924-1.281 1.615-1.666.692-.385 1.479-.578 2.363-.578s1.655.193 2.312.578c.669.385 1.179.907 1.53 1.564.363.646.544 1.366.544 2.159zm-1.207-.034c.012-.691-.13-1.281-.425-1.768-.283-.487-.674-.856-1.173-1.105-.498-.249-1.042-.374-1.632-.374-.884 0-1.637.283-2.261.85-.623.567-.969 1.366-1.037 2.397zm4.574-2.482c.261-.578.658-1.026 1.19-1.343.544-.317 1.207-.476 1.989-.476v1.241h-.323c-.861 0-1.552.232-2.074.697-.521.465-.782 1.241-.782 2.329v5.185h-1.19v-9.282h1.19zm13.29-.646h-2.159v8.279h-1.19v-8.279h-1.292v-1.003h1.292v-.646c0-1.009.255-1.751.765-2.227.521-.476 1.36-.714 2.516-.714v1.02c-.771 0-1.315.147-1.632.442-.306.295-.459.788-.459 1.479v.646h2.159zm5.936 8.415c-.873 0-1.66-.193-2.363-.578-.691-.397-1.241-.952-1.649-1.666-.397-.725-.595-1.57-.595-2.533s.204-1.802.612-2.516c.408-.725.963-1.281 1.666-1.666.703-.397 1.49-.595 2.363-.595s1.66.198 2.363.595c.714.385 1.269.941 1.666 1.666.408.714.612 1.553.612 2.516 0 .952-.204 1.791-.612 2.516s-.969 1.286-1.683 1.683c-.714.385-1.507.578-2.38.578zm0-1.037c.612 0 1.179-.136 1.7-.408.521-.283.941-.703 1.258-1.258.329-.567.493-1.258.493-2.074s-.159-1.502-.476-2.057c-.317-.567-.737-.986-1.258-1.258-.521-.283-1.088-.425-1.7-.425s-1.179.142-1.7.425c-.521.272-.941.691-1.258 1.258-.306.555-.459 1.241-.459 2.057s.153 1.507.459 2.074c.317.555.731.975 1.241 1.258.521.272 1.088.408 1.7.408zm8.034-6.732c.261-.578.658-1.026 1.19-1.343.544-.317 1.207-.476 1.989-.476v1.241h-.323c-.861 0-1.552.232-2.074.697-.521.465-.782 1.241-.782 2.329v5.185h-1.19v-9.282h1.19zm11.181-.646v5.763c0 .567.108.958.323 1.173.216.215.595.323 1.139.323h1.088v1.02h-1.275c-.838 0-1.462-.193-1.87-.578-.408-.397-.612-1.043-.612-1.938v-5.763h-1.292v-1.003h1.292v-2.329h1.207v2.329h2.55v1.003zm8.933-1.173c.703 0 1.332.147 1.887.442.567.295 1.009.748 1.326 1.36.329.601.493 1.337.493 2.21v5.44h-1.173v-5.304c0-1.009-.255-1.779-.765-2.312-.499-.533-1.184-.799-2.057-.799-.895 0-1.609.283-2.142.85s-.799 1.4-.799 2.499v5.066h-1.19v-12.58h1.19v4.879c.295-.555.725-.986 1.292-1.292.578-.306 1.224-.459 1.938-.459zm14.736 4.335c0 .408-.012.72-.034.935h-7.701c.034.703.204 1.303.51 1.802s.708.878 1.207 1.139c.498.249 1.042.374 1.632.374.77 0 1.416-.187 1.938-.561.532-.374.884-.878 1.054-1.513h1.258c-.227.907-.714 1.649-1.462 2.227-.737.567-1.666.85-2.788.85-.873 0-1.655-.193-2.346-.578-.692-.397-1.236-.952-1.632-1.666-.386-.725-.578-1.57-.578-2.533s.192-1.808.578-2.533c.385-.725.923-1.281 1.615-1.666.691-.385 1.479-.578 2.363-.578s1.654.193 2.312.578c.668.385 1.178.907 1.53 1.564.362.646.544 1.366.544 2.159zm-1.207-.034c.011-.691-.131-1.281-.425-1.768-.284-.487-.675-.856-1.173-1.105-.499-.249-1.043-.374-1.632-.374-.884 0-1.638.283-2.261.85-.624.567-.969 1.366-1.037 2.397zm12.469-4.301c.703 0 1.332.147 1.887.442.567.295 1.009.748 1.326 1.36.329.601.493 1.337.493 2.21v5.44h-1.173v-5.304c0-1.009-.255-1.779-.765-2.312-.499-.533-1.184-.799-2.057-.799-.895 0-1.609.283-2.142.85s-.799 1.4-.799 2.499v5.066h-1.19v-12.58h1.19v4.879c.295-.555.725-.986 1.292-1.292.578-.306 1.224-.459 1.938-.459zm10.401 9.588c-.873 0-1.66-.193-2.363-.578-.691-.397-1.241-.952-1.649-1.666-.397-.725-.595-1.57-.595-2.533s.204-1.802.612-2.516c.408-.725.963-1.281 1.666-1.666.703-.397 1.49-.595 2.363-.595s1.66.198 2.363.595c.714.385 1.269.941 1.666 1.666.408.714.612 1.553.612 2.516 0 .952-.204 1.791-.612 2.516s-.969 1.286-1.683 1.683c-.714.385-1.507.578-2.38.578zm0-1.037c.612 0 1.179-.136 1.7-.408.521-.283.941-.703 1.258-1.258.329-.567.493-1.258.493-2.074s-.159-1.502-.476-2.057c-.317-.567-.737-.986-1.258-1.258-.521-.283-1.088-.425-1.7-.425s-1.179.142-1.7.425c-.521.272-.941.691-1.258 1.258-.306.555-.459 1.241-.459 2.057s.153 1.507.459 2.074c.317.555.731.975 1.241 1.258.521.272 1.088.408 1.7.408zm17.894-8.551c1.088 0 1.972.346 2.652 1.037.691.68 1.037 1.672 1.037 2.975v5.44h-1.173v-5.304c0-1.009-.244-1.779-.731-2.312s-1.15-.799-1.989-.799c-.873 0-1.57.289-2.091.867s-.782 1.417-.782 2.516v5.032h-1.173v-5.304c0-1.009-.244-1.779-.731-2.312s-1.156-.799-2.006-.799c-.873 0-1.57.289-2.091.867s-.782 1.417-.782 2.516v5.032h-1.19v-9.282h1.19v1.598c.295-.578.714-1.014 1.258-1.309.544-.306 1.15-.459 1.819-.459.805 0 1.507.193 2.108.578.612.385 1.054.952 1.326 1.7.249-.737.674-1.298 1.275-1.683.612-.397 1.303-.595 2.074-.595zm14.73 4.335c0 .408-.011.72-.034.935h-7.701c.034.703.204 1.303.51 1.802s.708.878 1.207 1.139c.499.249 1.043.374 1.632.374.771 0 1.417-.187 1.938-.561.533-.374.884-.878 1.054-1.513h1.258c-.227.907-.714 1.649-1.462 2.227-.737.567-1.666.85-2.788.85-.873 0-1.655-.193-2.346-.578-.691-.397-1.235-.952-1.632-1.666-.385-.725-.578-1.57-.578-2.533s.193-1.808.578-2.533.924-1.281 1.615-1.666 1.479-.578 2.363-.578 1.655.193 2.312.578c.669.385 1.179.907 1.53 1.564.363.646.544 1.366.544 2.159zm-1.207-.034c.011-.691-.13-1.281-.425-1.768-.283-.487-.674-.856-1.173-1.105s-1.043-.374-1.632-.374c-.884 0-1.638.283-2.261.85s-.969 1.366-1.037 2.397zm15.624-4.131-2.907 9.282h-1.19l-2.567-7.786-2.567 7.786h-1.207l-2.907-9.282h1.207l2.312 8.075 2.601-8.075h1.19l2.567 8.092 2.295-8.092zm5.685 9.418c-.872 0-1.66-.193-2.363-.578-.691-.397-1.241-.952-1.649-1.666-.396-.725-.595-1.57-.595-2.533s.204-1.802.612-2.516c.408-.725.964-1.281 1.666-1.666.703-.397 1.491-.595 2.363-.595.873 0 1.661.198 2.363.595.714.385 1.27.941 1.666 1.666.408.714.612 1.553.612 2.516 0 .952-.204 1.791-.612 2.516s-.969 1.286-1.683 1.683c-.714.385-1.507.578-2.38.578zm0-1.037c.612 0 1.179-.136 1.7-.408.522-.283.941-.703 1.258-1.258.329-.567.493-1.258.493-2.074s-.158-1.502-.476-2.057c-.317-.567-.736-.986-1.258-1.258-.521-.283-1.088-.425-1.7-.425s-1.178.142-1.7.425c-.521.272-.94.691-1.258 1.258-.306.555-.459 1.241-.459 2.057s.153 1.507.459 2.074c.318.555.731.975 1.241 1.258.522.272 1.088.408 1.7.408zm8.035-6.732c.26-.578.657-1.026 1.19-1.343.544-.317 1.207-.476 1.989-.476v1.241h-.323c-.862 0-1.553.232-2.074.697-.522.465-.782 1.241-.782 2.329v5.185h-1.19v-9.282h1.19zm9.984 7.633-3.825-4.165v4.165h-1.19v-12.58h1.19v7.446l3.74-4.148h1.666l-4.403 4.624 4.437 4.658zm-386.622 16.718-5.508 13.651h-1.241l1.802-4.42-3.808-9.231h1.309l3.162 7.922 3.06-7.922zm5.6767 9.418c-.8727 0-1.6604-.193-2.363-.578-.6914-.397-1.241-.952-1.649-1.666-.3967-.725-.595-1.57-.595-2.533s.204-1.802.612-2.516c.408-.725.9633-1.281 1.666-1.666.7026-.397 1.4903-.595 2.363-.595.8726 0 1.6603.198 2.363.595.714.385 1.2693.941 1.666 1.666.408.714.612 1.553.612 2.516 0 .952-.204 1.791-.612 2.516s-.969 1.286-1.683 1.683c-.714.385-1.5074.578-2.38.578zm0-1.037c.612 0 1.1786-.136 1.7-.408.5213-.283.9406-.703 1.258-1.258.3286-.567.493-1.258.493-2.074s-.1587-1.502-.476-2.057c-.3174-.567-.7367-.986-1.258-1.258-.5214-.283-1.088-.425-1.7-.425s-1.1787.142-1.7.425c-.5214.272-.9407.691-1.258 1.258-.306.555-.459 1.241-.459 2.057s.153 1.507.459 2.074c.3173.555.731.975 1.241 1.258.5213.272 1.088.408 1.7.408zm14.8852-8.381v9.282h-1.19v-1.632c-.272.578-.6913 1.02-1.258 1.326s-1.2013.459-1.904.459c-1.1107 0-2.0173-.34-2.72-1.02-.7027-.691-1.054-1.689-1.054-2.992v-5.423h1.173v5.287c0 1.009.2493 1.779.748 2.312.51.533 1.2013.799 2.074.799.8953 0 1.6093-.283 2.142-.85s.799-1.4.799-2.499v-5.049zm11.2749-.136c.8726 0 1.632.204 2.278.612s1.1106.924 1.394 1.547v-2.023h1.19v9.52c0 .85-.187 1.604-.561 2.261-.3627.657-.8727 1.162-1.53 1.513-.6574.363-1.4054.544-2.244.544-1.19 0-2.1817-.283-2.975-.85-.782-.567-1.2694-1.337-1.462-2.312h1.173c.204.646.5893 1.162 1.156 1.547.578.385 1.2806.578 2.108.578.6006 0 1.139-.13 1.615-.391.476-.249.85-.623 1.122-1.122s.408-1.088.408-1.768v-2.295c-.2947.635-.765 1.162-1.411 1.581-.6347.408-1.3884.612-2.261.612-.85 0-1.615-.198-2.295-.595-.6687-.397-1.1957-.958-1.581-1.683-.374-.725-.561-1.564-.561-2.516s.187-1.785.561-2.499c.3853-.725.9123-1.281 1.581-1.666.68-.397 1.445-.595 2.295-.595zm3.672 4.777c0-.748-.153-1.405-.459-1.972s-.7254-1.003-1.258-1.309c-.5214-.306-1.0994-.459-1.734-.459-.6574 0-1.2467.147-1.768.442-.5214.295-.935.725-1.241 1.292-.2947.555-.442 1.218-.442 1.989 0 .759.1473 1.428.442 2.006.306.567.7196 1.003 1.241 1.309.5213.295 1.1106.442 1.768.442.6346 0 1.2126-.153 1.734-.459.5326-.306.952-.742 1.258-1.309s.459-1.224.459-1.972zm3.3626-.017c0-.952.187-1.785.561-2.499.3854-.725.9124-1.281 1.581-1.666.68-.397 1.445-.595 2.295-.595.884 0 1.6434.204 2.278.612.646.408 1.1107.929 1.394 1.564v-2.04h1.19v9.282h-1.19v-2.057c-.2946.635-.765 1.162-1.411 1.581-.6346.408-1.394.612-2.278.612-.8386 0-1.598-.198-2.278-.595-.6686-.397-1.1956-.958-1.581-1.683-.374-.725-.561-1.564-.561-2.516zm8.109.017c0-.748-.153-1.405-.459-1.972s-.7253-1.003-1.258-1.309c-.5213-.306-1.0993-.459-1.734-.459-.6573 0-1.2466.147-1.768.442-.5213.295-.935.725-1.241 1.292-.2946.555-.442 1.218-.442 1.989 0 .759.1474 1.428.442 2.006.306.567.7197 1.003 1.241 1.309.5214.295 1.1107.442 1.768.442.6347 0 1.2127-.153 1.734-.459.5327-.306.952-.742 1.258-1.309s.459-1.224.459-1.972zm7.2046 3.485 3.128-8.126h1.258l-3.723 9.282h-1.3429l-3.723-9.282h1.275zm14.397-3.961c0 .408-.011.72-.034.935h-7.701c.034.703.204 1.303.51 1.802s.708.878 1.207 1.139c.499.249 1.043.374 1.632.374.771 0 1.417-.187 1.938-.561.533-.374.884-.878 1.054-1.513h1.258c-.227.907-.714 1.649-1.462 2.227-.737.567-1.666.85-2.788.85-.873 0-1.655-.193-2.346-.578-.691-.397-1.235-.952-1.632-1.666-.385-.725-.578-1.57-.578-2.533s.193-1.808.578-2.533.924-1.281 1.615-1.666 1.479-.578 2.363-.578 1.655.193 2.312.578c.669.385 1.179.907 1.53 1.564.363.646.544 1.366.544 2.159zm-1.207-.034c.011-.691-.13-1.281-.425-1.768-.283-.487-.674-.856-1.173-1.105s-1.043-.374-1.632-.374c-.884 0-1.638.283-2.261.85s-.969 1.366-1.037 2.397zm19.099-4.301c1.088 0 1.972.346 2.652 1.037.692.68 1.037 1.672 1.037 2.975v5.44h-1.173v-5.304c0-1.009-.243-1.779-.731-2.312-.487-.533-1.15-.799-1.989-.799-.872 0-1.569.289-2.091.867-.521.578-.782 1.417-.782 2.516v5.032h-1.173v-5.304c0-1.009-.243-1.779-.731-2.312-.487-.533-1.156-.799-2.006-.799-.872 0-1.569.289-2.091.867-.521.578-.782 1.417-.782 2.516v5.032h-1.19v-9.282h1.19v1.598c.295-.578.714-1.014 1.258-1.309.544-.306 1.151-.459 1.819-.459.805 0 1.508.193 2.108.578.612.385 1.054.952 1.326 1.7.25-.737.675-1.298 1.275-1.683.612-.397 1.304-.595 2.074-.595zm14.73 4.335c0 .408-.011.72-.034.935h-7.701c.034.703.204 1.303.51 1.802s.708.878 1.207 1.139c.499.249 1.043.374 1.632.374.771 0 1.417-.187 1.938-.561.533-.374.884-.878 1.054-1.513h1.258c-.227.907-.714 1.649-1.462 2.227-.737.567-1.666.85-2.788.85-.873 0-1.655-.193-2.346-.578-.691-.397-1.235-.952-1.632-1.666-.385-.725-.578-1.57-.578-2.533s.193-1.808.578-2.533.924-1.281 1.615-1.666 1.479-.578 2.363-.578 1.655.193 2.312.578c.669.385 1.179.907 1.53 1.564.363.646.544 1.366.544 2.159zm-1.207-.034c.011-.691-.13-1.281-.425-1.768-.283-.487-.674-.856-1.173-1.105s-1.043-.374-1.632-.374c-.884 0-1.638.283-2.261.85s-.969 1.366-1.037 2.397zm3.588 5.236c-.249 0-.459-.085-.629-.255-.158-.17-.238-.38-.238-.629s.08-.453.238-.612c.17-.17.38-.255.629-.255.238 0 .437.085.595.255.17.159.255.363.255.612s-.085.459-.255.629c-.158.17-.357.255-.595.255z" fill="#000"/><path d="m49 101 3.09 6.26 6.91 1.01-5 4.87 1.18 6.88-6.18-3.25-6.18 3.25 1.18-6.88-5-4.87 6.91-1.01z" fill="#ffa04c"/><path d="m49 101 3.09 6.26 6.91 1.01-5 4.87 1.18 6.88-6.18-3.25-6.18 3.25 1.18-6.88-5-4.87 6.91-1.01z" stroke="#ffa04c" stroke-linecap="round" stroke-linejoin="round" stroke-width="2"/><path d="m81 101 3.09 6.26 6.91 1.01-5 4.87 1.18 6.88-6.18-3.25-6.18 3.25 1.18-6.88-5-4.87 6.91-1.01z" fill="#ffa04c"/><g stroke-linecap="round" stroke-linejoin="round"><path d="m81 101 3.09 6.26 6.91 1.01-5 4.87 1.18 6.88-6.18-3.25-6.18 3.25 1.18-6.88-5-4.87 6.91-1.01z" stroke="#ffa04c" stroke-width="2"/><path d="m113 101 3.09 6.26 6.91 1.01-5 4.87 1.18 6.88-6.18-3.25-6.18 3.25 1.18-6.88-5-4.87 6.91-1.01z" stroke="#ffa04c" stroke-width="2"/><path d="m234.25 373.5-4.55-4.55 4.55-4.55" stroke="#cacacb" stroke-width="1.06167"/></g><rect fill="#afadad" height="6.3" rx="3.15" width="6.3" x="251" y="365.85"/><rect fill="#6b6b6b" height="6.3" rx="3.15" width="6.3" x="265.7" y="365.85"/><path d="m285.7 373.5 4.55-4.55-4.55-4.55" stroke="#000" stroke-linecap="round" stroke-linejoin="round" stroke-width="1.06167"/><rect fill="#fdf3ec" height="36.6675" rx="6.9448" width="186.074" x="39.463" y="233.463"/><rect height="36.6675" rx="6.9448" stroke="#e1be9a" stroke-width=".925974" width="186.074" x="39.463" y="233.463"/><path d="m62.9641 249.56-5.2178-5.217h-5.2179c-.8228 0-1.4908.668-1.4908 1.49v11.927c0 .823.668 1.491 1.4908 1.491h8.9449c.8228 0 1.4908-.668 1.4908-1.491zm-5.2178-5.217v5.217h5.2178" stroke="#a06f45" stroke-linecap="round" stroke-linejoin="round" stroke-width="1.14678"/><path d="m70.9325 251.783c0-.887.2-1.682.5999-2.387.3999-.712.9432-1.269 1.63-1.669.6955-.4 1.4648-.6 2.3081-.6.991 0 1.856.24 2.5949.718.739.478 1.2779 1.156 1.617 2.034h-1.4214c-.2521-.548-.6172-.969-1.0953-1.265-.4695-.296-1.0345-.443-1.6952-.443-.6346 0-1.2041.147-1.7083.443s-.8997.717-1.1866 1.265c-.2869.539-.4303 1.174-.4303 1.904 0 .721.1434 1.356.4303 1.904.2869.539.6824.956 1.1866 1.251.5042.296 1.0737.444 1.7083.444.6607 0 1.2257-.144 1.6952-.43.4781-.296.8432-.718 1.0953-1.265h1.4214c-.3391.869-.878 1.543-1.617 2.021-.7389.469-1.6039.704-2.5949.704-.8433 0-1.6126-.196-2.3081-.587-.6868-.4-1.2301-.952-1.63-1.656s-.5999-1.499-.5999-2.386zm10.0729.952c0-.731.1478-1.369.4434-1.917.2956-.557.6998-.987 1.2127-1.291.5216-.304 1.0997-.457 1.7343-.457.626 0 1.1693.135 1.63.405.4608.269.8042.608 1.0302 1.017v-1.304h1.1997v7.146h-1.1997v-1.33c-.2347.417-.5868.765-1.0562 1.043-.4608.269-.9998.404-1.617.404-.6346 0-1.2084-.156-1.7213-.469s-.9171-.752-1.2127-1.317-.4434-1.209-.4434-1.93zm6.0506.013c0-.539-.1087-1.009-.326-1.409-.2173-.399-.5129-.704-.8867-.912-.3651-.218-.7694-.326-1.2127-.326-.4434 0-.8476.104-1.2128.313-.3651.208-.6563.512-.8736.912-.2174.4-.326.87-.326 1.409 0 .547.1086 1.026.326 1.434.2173.4.5085.709.8736.926.3652.209.7694.313 1.2128.313.4433 0 .8476-.104 1.2127-.313.3738-.217.6694-.526.8867-.926.2173-.408.326-.882.326-1.421zm4.3916-6.064v9.65h-1.1866v-9.65zm1.5791 6.064c0-.739.1478-1.382.4433-1.93.2956-.557.7042-.987 1.2258-1.291.5303-.304 1.1345-.457 1.8126-.457.878 0 1.5995.213 2.1646.639.5738.426.9519 1.018 1.1345 1.774h-1.2779c-.1217-.435-.3608-.778-.7172-1.03-.3478-.252-.7824-.378-1.304-.378-.6781 0-1.2258.234-1.6431.704-.4173.46-.6259 1.117-.6259 1.969 0 .86.2086 1.525.6259 1.995.4173.469.965.704 1.6431.704.5216 0 .9562-.122 1.304-.365.3477-.244.5868-.591.7172-1.043h1.2779c-.1913.73-.5738 1.317-1.1475 1.76-.5738.435-1.291.652-2.1516.652-.6781 0-1.2823-.152-1.8126-.456-.5216-.305-.9302-.735-1.2258-1.291-.2955-.557-.4433-1.209-.4433-1.956zm15.3873-3.691c.539 0 1.026.118 1.461.353.434.226.773.569 1.017 1.03.252.46.378 1.021.378 1.682v4.212h-1.174v-4.043c0-.713-.178-1.256-.534-1.63-.357-.382-.844-.573-1.461-.573-.626 0-1.126.195-1.499.586-.365.392-.548.961-.548 1.709v3.951h-1.187v-9.65h1.187v3.521c.235-.365.556-.648.965-.848.417-.2.882-.3 1.395-.3zm7.911 7.394c-.67 0-1.278-.152-1.826-.456-.539-.305-.965-.735-1.278-1.291-.304-.565-.456-1.217-.456-1.956 0-.731.156-1.374.469-1.93.322-.565.757-.996 1.304-1.291.548-.304 1.161-.457 1.839-.457s1.291.153 1.839.457c.547.295.978.721 1.291 1.278.321.556.482 1.204.482 1.943s-.165 1.391-.495 1.956c-.322.556-.761.986-1.317 1.291-.557.304-1.174.456-1.852.456zm0-1.043c.426 0 .826-.1 1.2-.3.373-.2.673-.5.899-.9.235-.4.352-.886.352-1.46s-.113-1.061-.339-1.461-.521-.695-.886-.886c-.365-.2-.761-.3-1.187-.3-.435 0-.835.1-1.2.3-.356.191-.643.486-.86.886-.218.4-.326.887-.326 1.461 0 .582.104 1.073.313 1.473.217.4.504.7.86.9.357.191.748.287 1.174.287zm13.818-6.351c.556 0 1.052.118 1.486.353.435.226.778.569 1.03 1.03.253.46.379 1.021.379 1.682v4.212h-1.174v-4.043c0-.713-.178-1.256-.535-1.63-.347-.382-.821-.573-1.421-.573-.617 0-1.108.2-1.474.599-.365.392-.547.961-.547 1.709v3.938h-1.174v-4.043c0-.713-.178-1.256-.534-1.63-.348-.382-.822-.573-1.422-.573-.617 0-1.108.2-1.473.599-.365.392-.548.961-.548 1.709v3.938h-1.187v-7.146h1.187v1.03c.235-.374.548-.661.939-.861.4-.2.839-.3 1.317-.3.6 0 1.13.135 1.591.405.461.269.804.665 1.03 1.186.2-.504.53-.895.991-1.173s.974-.418 1.539-.418zm11.361 3.43c0 .226-.013.465-.039.717h-5.712c.044.704.283 1.256.718 1.656.443.391.978.587 1.604.587.512 0 .938-.117 1.278-.352.347-.243.591-.565.73-.965h1.278c-.192.687-.574 1.247-1.148 1.682-.574.426-1.286.639-2.138.639-.678 0-1.287-.152-1.826-.456-.53-.305-.948-.735-1.252-1.291-.304-.565-.456-1.217-.456-1.956s.148-1.387.443-1.943c.296-.557.709-.983 1.239-1.278.539-.304 1.156-.457 1.852-.457.678 0 1.278.148 1.799.444.522.295.922.704 1.2 1.226.287.512.43 1.095.43 1.747zm-1.226-.248c0-.452-.1-.839-.3-1.16-.2-.331-.473-.578-.821-.744-.339-.174-.717-.26-1.135-.26-.599 0-1.112.191-1.538.573-.418.383-.657.913-.717 1.591zm15.788-3.051-2.23 7.146h-1.225l-1.722-5.673-1.721 5.673h-1.226l-2.243-7.146h1.213l1.643 5.998 1.774-5.998h1.212l1.735 6.011 1.617-6.011zm4.294 7.263c-.669 0-1.278-.152-1.825-.456-.539-.305-.965-.735-1.278-1.291-.304-.565-.457-1.217-.457-1.956 0-.731.157-1.374.47-1.93.322-.565.756-.996 1.304-1.291.548-.304 1.16-.457 1.839-.457.678 0 1.29.153 1.838.457.548.295.978.721 1.291 1.278.322.556.483 1.204.483 1.943s-.166 1.391-.496 1.956c-.322.556-.761.986-1.317 1.291-.556.304-1.174.456-1.852.456zm0-1.043c.426 0 .826-.1 1.2-.3s.674-.5.9-.9c.235-.4.352-.886.352-1.46s-.113-1.061-.339-1.461-.522-.695-.887-.886c-.365-.2-.761-.3-1.187-.3-.434 0-.834.1-1.199.3-.357.191-.644.486-.861.886s-.326.887-.326 1.461c0 .582.104 1.073.313 1.473.217.4.504.7.861.9.356.191.747.287 1.173.287zm6.411-5.06c.209-.408.505-.726.887-.952.391-.226.865-.339 1.422-.339v1.226h-.313c-1.331 0-1.996.722-1.996 2.165v3.886h-1.186v-7.146h1.186zm7.669 5.986-2.804-3.156v3.156h-1.187v-9.65h1.187v5.673l2.751-3.169h1.657l-3.365 3.56 3.378 3.586zm3.099.078c-.227 0-.418-.078-.574-.235-.157-.156-.235-.347-.235-.573 0-.227.078-.418.235-.574.156-.157.347-.235.574-.235.217 0 .399.078.547.235.157.156.235.347.235.574 0 .226-.078.417-.235.573-.148.157-.33.235-.547.235zm3.546-5.907c.235-.409.582-.748 1.043-1.017.47-.278 1.013-.418 1.63-.418.635 0 1.208.153 1.721.457.522.304.931.734 1.226 1.291.296.548.443 1.186.443 1.917 0 .721-.147 1.365-.443 1.93-.295.565-.704 1.004-1.226 1.317-.513.313-1.086.469-1.721.469-.608 0-1.147-.135-1.617-.404-.461-.278-.813-.622-1.056-1.03v4.707h-1.187v-10.536h1.187zm4.851 2.23c0-.539-.109-1.009-.326-1.409-.218-.4-.513-.704-.887-.912-.365-.209-.769-.313-1.213-.313-.434 0-.839.108-1.212.326-.366.208-.661.517-.887.925-.217.4-.326.865-.326 1.396 0 .539.109 1.013.326 1.421.226.4.521.709.887.926.373.209.778.313 1.212.313.444 0 .848-.104 1.213-.313.374-.217.669-.526.887-.926.217-.408.326-.887.326-1.434zm2.331 0c0-.731.148-1.369.443-1.917.296-.557.7-.987 1.213-1.291.522-.304 1.104-.457 1.748-.457.556 0 1.073.131 1.551.392.478.252.844.586 1.096 1.004v-3.782h1.199v9.65h-1.199v-1.343c-.235.426-.583.778-1.044 1.056-.46.269-.999.404-1.617.404-.634 0-1.212-.156-1.734-.469-.513-.313-.917-.752-1.213-1.317-.295-.565-.443-1.209-.443-1.93zm6.051.013c0-.539-.109-1.009-.326-1.409-.218-.399-.513-.704-.887-.912-.365-.218-.769-.326-1.213-.326-.443 0-.847.104-1.213.313-.365.208-.656.512-.873.912-.218.4-.326.87-.326 1.409 0 .547.108 1.026.326 1.434.217.4.508.709.873.926.366.209.77.313 1.213.313.444 0 .848-.104 1.213-.313.374-.217.669-.526.887-.926.217-.408.326-.882.326-1.421zm6.113-2.582h-1.5v6.168h-1.187v-6.168h-.926v-.978h.926v-.509c0-.8.205-1.382.613-1.747.417-.374 1.083-.561 1.995-.561v.991c-.521 0-.891.105-1.108.313-.209.2-.313.535-.313 1.004v.509h1.5z" fill="#a06f45"/></g></svg>