<svg fill="none" height="584" viewBox="0 0 1000 584" width="1000" xmlns="http://www.w3.org/2000/svg" xmlns:xlink="http://www.w3.org/1999/xlink"><clipPath id="a"><path d="m25 258.104h33.3962v27.7189h-33.3962z"/></clipPath><mask id="b" fill="#fff"><path d="m0 0h85v584h-85z" fill="#fff"/></mask><mask id="c" fill="#fff"><path d="m304 128h500v35h-500z" fill="#fff"/></mask><mask id="d" height="84" maskUnits="userSpaceOnUse" width="84" x="340" y="216"><path d="m340.362 216.308h83.276v83.276h-83.276z" fill="#fff"/></mask><mask id="e" height="84" maskUnits="userSpaceOnUse" width="84" x="340" y="216"><path d="m340.362 257.946c0 22.981 18.657 41.638 41.638 41.638s41.638-18.657 41.638-41.638c0-22.98-18.657-41.638-41.638-41.638s-41.638 18.658-41.638 41.638z" fill="#d9d9d9"/></mask><mask id="f" height="84" maskUnits="userSpaceOnUse" width="84" x="496" y="216"><path d="m579.638 216.416h-83.276v83.276h83.276z" fill="#fff"/></mask><mask id="g" height="84" maskUnits="userSpaceOnUse" width="84" x="496" y="216"><path d="m538 299.692c22.996 0 41.638-18.642 41.638-41.638s-18.642-41.638-41.638-41.638-41.638 18.642-41.638 41.638 18.642 41.638 41.638 41.638z" fill="#d9d9d9"/></mask><mask id="h" height="84" maskUnits="userSpaceOnUse" width="84" x="652" y="216"><path d="m652.362 216.416h83.276v83.276h-83.276z" fill="#fff"/></mask><mask id="i" height="84" maskUnits="userSpaceOnUse" width="84" x="652" y="216"><path d="m652.362 258.054c0 22.98 18.657 41.638 41.638 41.638s41.638-18.658 41.638-41.638c0-22.981-18.657-41.638-41.638-41.638s-41.638 18.657-41.638 41.638z" fill="#d9d9d9"/></mask><mask id="j" height="84" maskUnits="userSpaceOnUse" width="84" x="340" y="380"><path d="m340.362 380.416h83.276v83.276h-83.276z" fill="#fff"/></mask><mask id="k" height="84" maskUnits="userSpaceOnUse" width="84" x="340" y="380"><path d="m340.362 422.054c0 22.98 18.657 41.638 41.638 41.638s41.638-18.658 41.638-41.638c0-22.981-18.657-41.638-41.638-41.638s-41.638 18.657-41.638 41.638z" fill="#d9d9d9"/></mask><mask id="l" height="84" maskUnits="userSpaceOnUse" width="84" x="496" y="380"><path d="m496.362 380.308h83.276v83.276h-83.276z" fill="#fff"/></mask><mask id="m" height="84" maskUnits="userSpaceOnUse" width="84" x="496" y="380"><path d="m496.362 421.946c0 22.981 18.657 41.638 41.638 41.638s41.638-18.657 41.638-41.638c0-22.98-18.657-41.638-41.638-41.638s-41.638 18.658-41.638 41.638z" fill="#d9d9d9"/></mask><mask id="n" height="84" maskUnits="userSpaceOnUse" width="84" x="652" y="380"><path d="m694 463.584c22.996 0 41.638-18.642 41.638-41.638s-18.642-41.638-41.638-41.638-41.638 18.642-41.638 41.638 18.642 41.638 41.638 41.638z" fill="#d9d9d9"/></mask><path d="m0 0h1000v584h-1000z" fill="#fff"/><path d="m0 0h85v584h-85z" fill="#fff"/><path d="m85 0h-1v584h1 1v-584z" fill="#cfcfcf" mask="url(#b)"/><path d="m30 75h5.502v-14.747l11.3834 14.747h7.1146l-18.498-24h-5.502z" fill="#000"/><path d="m54 51v13.5904l-11.4783-13.5904z" fill="#000"/><path d="m0 243h84v57h-84z" fill="#ebf4fd"/><path d="m41.2622 215.043h4.0103m0 0h8.0207c.7383 0 1.3368-.599 1.3368-1.337v-13.814c0-.738-.5985-1.336-1.3368-1.336h-16.487c-.7383 0-1.3367.598-1.3367 1.336v3.565m9.803 11.586v3.119" stroke="#000" stroke-linecap="round" stroke-width="1.11398"/><path d="m45.273 221.616c.9229 0 1.671-.748 1.671-1.671s-.7481-1.671-1.671-1.671c-.9228 0-1.6709.748-1.6709 1.671s.7481 1.671 1.6709 1.671z" stroke="#000" stroke-width="1.11398"/><path d="m33.2411 210.098c1.6981 0 3.0745-1.377 3.0745-3.075s-1.3764-3.074-3.0745-3.074c-1.6982 0-3.0746 1.376-3.0746 3.074s1.3764 3.075 3.0746 3.075z" fill="#000" stroke="#000" stroke-width="1.11398"/><path d="m37.6978 213.26 4.3579-4.358c.4233-.423 1.1095-.423 1.5328 0 .4336.434.4215 1.141-.0267 1.559l-5.864 5.473" fill="#000"/><path d="m31.0135 221.392c0 .554-.4487 1.003-1.0026 1.003s-1.0026-.449-1.0026-1.003v-6.572c0-1.723 1.3965-3.119 3.1191-3.119h4.0104c.8613 0 1.5596.698 1.5596 1.559l4.3579-4.358c.4233-.423 1.1095-.423 1.5328 0 .4336.434.4215 1.141-.0267 1.559l-5.864 5.473v1.559h-6.6839z" fill="#000"/><path d="m37.6978 213.26 4.3579-4.358c.4233-.423 1.1095-.423 1.5328 0 .4336.434.4215 1.141-.0267 1.559l-5.864 5.473v1.559" stroke="#000" stroke-linecap="round" stroke-width="1.11398"/><path d="m31.0135 221.392c0 .554-.4487 1.003-1.0026 1.003s-1.0026-.449-1.0026-1.003v-6.572c0-1.723 1.3965-3.119 3.1191-3.119h4.0104c.8613 0 1.5596.698 1.5596 1.559l4.3579-4.358c.4233-.423 1.1095-.423 1.5328 0 .4336.434.4215 1.141-.0267 1.559l-5.864 5.473v1.559h-6.6839z" stroke="#000" stroke-linecap="round" stroke-width="1.11398"/><path d="m51.9485 332.757c0-.368-.1318-.744-.3576-1.112.0018-.004.0018-.004.0036-.006-1.8587 1.765-5.5561 2.968-9.819 2.968-4.2501 0-7.9386-1.196-9.8027-2.952 0 .004.0018.004.0037.006-.2205.365-.374.733-.374 1.096 0 2.188 4.178 4.624 10.173 4.624 5.9951 0 10.173-2.436 10.173-4.624z" fill="#fff"/><path d="m41.9668 322.616-7.845 1.722 1.3394 6.506 12.8199.956 2.4875-5.357z" fill="#fff"/><path d="m51.9485 338.085c0-.369-.1318-.744-.3576-1.113.0018-.003.0018-.003.0036-.005-1.8587 1.765-5.5561 2.967-9.819 2.967-4.2501 0-7.9386-1.195-9.8027-2.951 0 .004.0018.004.0037.005-.2205.365-.374.734-.374 1.097 0 2.187 4.178 4.624 10.173 4.624 5.9951 0 10.173-2.437 10.173-4.624z" fill="#fff"/><path clip-rule="evenodd" d="m51.9485 327.208c0-.607-.3233-1.235-.9175-1.824-1.5444-1.528-4.9276-2.8-9.2555-2.8-5.995 0-10.173 2.437-10.173 4.624 0 2.188 4.178 4.624 10.173 4.624 5.9951 0 10.173-2.436 10.173-4.624zm-6.5785 2.283c.728-.325 1.3132-.733 1.3132-1.221 0-.031.0004-.063.0009-.094.0038-.279.0072-.526-.3097-.74-.354-.238-.8255-.425-1.418-.56-.5906-.134-1.407-.278-2.4475-.43-.9465-.141-1.566-.256-1.8532-.35-.2891-.094-.4335-.23-.4335-.405 0-.173.1498-.321.4497-.443.298-.121.6954-.182 1.1904-.182.9861 0 1.7123.271 2.1837.815l1.9725-.396c-.049-.067-.0937-.132-.1366-.194-.461-.67-.7222-1.049-4.1064-1.135-1.8496.072-2.6823.272-3.2857.599-.6033.329-1.1253.697-1.1253 1.109 0 .311.0615.586.3992.82.3377.235.7243.419 1.2662.548.5418.132 1.268.263 2.2308.397 1.0711.152 1.7502.276 2.0609.374.3107.099.4588.246.4588.437 0 .184-.1589.342-.4696.473-.3107.13-.8002.195-1.4595.195-1.4107 0-2.2434-.305-2.4927-.915l-2.2759.283c.5474.97.9935 1.503 4.6928 1.597v-.004c1.8496-.057 2.8666-.249 3.5945-.578z" fill="#fff" fill-rule="evenodd"/><path clip-rule="evenodd" d="m52.2254 330.911c.4118-.581.6485-1.203.6485-1.853v-1.85c0-3.063-4.9709-5.549-11.0978-5.549-6.1288 0-11.0979 2.486-11.0979 5.549v1.85c0 .65.2349 1.272.6466 1.851-.0018 0-.0018-.001-.0018-.001-.4099.578-.6448 1.199-.6448 1.849v1.85c0 .65.2349 1.273.6485 1.853-.0019 0-.0037-.002-.0037-.003-.4099.578-.6448 1.199-.6448 1.849v1.85c0 .65.2349 1.273.6485 1.853-.0006 0-.0016-.001-.0016-.001l.6457.744s-.0007-.002-.001-.002c1.8622 1.757 5.5524 2.955 9.8063 2.955 4.2718 0 7.9765-1.21 9.8298-2.981l.6177-.713c.4136-.582.6503-1.203.6503-1.855v-1.85c0-.65-.2348-1.271-.6448-1.849l-.0055.005c.4136-.58.6503-1.205.6503-1.855v-1.85c0-.65-.2348-1.271-.6448-1.849zm-.634 6.282c.2258.369.3576.745.3576 1.113 0 2.188-4.1779 4.624-10.1729 4.624-5.9951 0-10.173-2.436-10.173-4.624 0-.363.1535-.731.3739-1.096-.0036-.002-.0055-.006-.0072-.009 1.8622 1.757 5.5524 2.955 9.8063 2.955 4.2646 0 7.9657-1.207 9.8225-2.973-.0018.003-.0036.007-.0072.01zm0-5.548c.2258.368.3576.744.3576 1.112 0 2.188-4.1779 4.624-10.1729 4.624-5.9951 0-10.173-2.436-10.173-4.624 0-.363.1535-.731.3739-1.096l-.0014-.001c-.0013-.001-.0023-.002-.0023-.005 1.8641 1.756 5.5526 2.952 9.8028 2.952 4.2628 0 7.9603-1.203 9.8189-2.968-.0018.002-.0018.002-.0036.006zm-.56-6.261c.5943.589.9176 1.217.9176 1.824 0 2.188-4.1779 4.624-10.1729 4.624-5.9951 0-10.173-2.436-10.173-4.624 0-2.187 4.1779-4.624 10.173-4.624 4.3278 0 7.711 1.272 9.2553 2.8z" fill="#000" fill-rule="evenodd"/><path d="m46.6837 328.27c0 .488-.5852.896-1.3132 1.221-.7279.329-1.7449.52-3.5945.578v.004c-3.6993-.094-4.1455-.627-4.6927-1.597l2.2758-.283c.2493.61 1.082.915 2.4927.915.6593 0 1.1488-.065 1.4595-.195.3107-.132.4696-.289.4696-.473 0-.192-.1481-.338-.4588-.437-.3107-.098-.9898-.222-2.0609-.374-.9628-.134-1.689-.266-2.2308-.397-.5419-.129-.9285-.313-1.2662-.548s-.3992-.509-.3992-.82c0-.412.522-.78 1.1253-1.109.6034-.327 1.4361-.527 3.2858-.599 3.3841.085 3.6452.465 4.1063 1.134.0429.063.0876.128.1366.195l-1.9724.396c-.4715-.544-1.1977-.815-2.1838-.815-.495 0-.8924.061-1.1904.182-.2999.121-.4497.269-.4497.443 0 .175.1445.31.4335.404.2872.094.9067.21 1.8532.351 1.0405.152 1.8569.296 2.4475.43.5925.135 1.0639.321 1.418.56.3169.214.3135.461.3097.74-.0005.031-.0009.062-.0009.094z" fill="#000"/><path d="m41.7759 323.477h-.0957v.096 1.505 1.207 1.38 1.437.963.462.096h.0957.3528.0957v-.096-.46-.958-1.391-1.372-1.28-.908-.585-.096h-.0957z" fill="#000" stroke="#000" stroke-width=".191342"/><path d="m38.14 463.379.6906.251c.3208.116.5627.385.6455.716l.5131 2.054c.1409.443.5629.737 1.0282.715l1.4935-.072c.5041-.024.9159-.411.9716-.913l.2008-1.809c.0308-.278.1732-.529.3909-.698.076-.059.1678-.092.2613-.115l.7795-.19c.2612-.063.5367-.022.7677.115l1.6184.963c.4004.238.9108.176 1.2436-.149l1.0683-1.046c.3606-.354.4112-.916.1195-1.328l-1.0525-1.486c-.1501-.212-.2129-.47-.1808-.723.0169-.133.091-.25.1794-.352l.4534-.52c.1292-.149.2983-.257.4872-.312l1.9208-.56c.4472-.13.7508-.545.7396-1.01l-.0359-1.495c-.0122-.505-.389-.926-.8892-.993l-1.8041-.244c-.2771-.038-.5247-.186-.6885-.408-.0571-.077-.088-.17-.1085-.264l-.1709-.784c-.0572-.262-.0093-.537.1335-.765l1.0007-1.594c.2476-.395.1987-.907-.1191-1.247l-1.0202-1.093c-.3444-.369-.9058-.433-1.3245-.152l-1.5103 1.017c-.233.157-.5181.21-.7888.152-.0917-.019-.1744-.067-.2506-.121l-.7605-.546c-.1799-.129-.3132-.313-.3802-.523l-.5936-1.87c-.1409-.444-.563-.737-1.0282-.715l-1.4935.072c-.5041.024-.9159.411-.9716.913l-.2008 1.809c-.0308.278-.1732.529-.3909.698-.076.059-.1679.092-.2613.115l-.7795.19c-.2612.063-.5368.022-.7678-.116l-1.6183-.962c-.4004-.238-.9108-.177-1.2436.149l-1.0683 1.046c-.3606.353-.4113.916-.1195 1.328l1.0525 1.486c.1501.211.2129.47.1808.723-.0169.133-.091.25-.1794.352l-.4534.52c-.1292.149-.2983.257-.4872.312l-1.9209.559c-.4471.131-.7507.546-.7395 1.011l.0359 1.495c.0121.505.389.926.8891.993l1.8042.244c.2771.038.5247.186.6884.408.0572.077.0881.17.1086.264l.1708.784c.0573.262.0094.537-.1334.764l-1.0008 1.595c-.2475.395-.1986.907.1192 1.247l1.0202 1.093c.3444.369.9058.433 1.3245.151l1.5103-1.016c.2724-.183.616-.226.9245-.113z" stroke="#000" stroke-width="1.54069"/><path d="m41.6164 458.771c1.4182 0 2.5678-1.15 2.5678-2.568s-1.1496-2.568-2.5678-2.568-2.5678 1.15-2.5678 2.568 1.1496 2.568 2.5678 2.568z" fill="#000" stroke="#000" stroke-width=".71899"/><path d="m41.5654 460.979c2.6094 0 4.7248-2.115 4.7248-4.725 0-2.609-2.1154-4.724-4.7248-4.724-2.6095 0-4.7248 2.115-4.7248 4.724 0 2.61 2.1153 4.725 4.7248 4.725z" stroke="#000" stroke-width=".616277"/><g fill="#000"><path d="m41.5319 406.272c3.2313 0 5.8697-4.778 5.8697-11.182 0-6.439-2.6268-11.216-5.8697-11.216s-5.8697 4.777-5.8697 11.216c0 6.404 2.6385 11.182 5.8697 11.182zm0-20.992c2.2782 0 4.3122 4.533 4.3122 9.81 0 5.184-2.034 9.764-4.3122 9.764-2.2781 0-4.3122-4.58-4.3122-9.764 0-5.277 2.0341-9.81 4.3122-9.81zm-.7555-1.244v22.015h1.5227v-22.015zm.7555 15.401c-3.5799 0-6.7531.942-8.3803 2.441l1.174.965c1.5342-1.221 4.0332-1.883 7.2063-1.883 3.1732 0 5.6721.662 7.2064 1.883l1.1739-.965c-1.6272-1.499-4.8003-2.441-8.3803-2.441zm10.7282-5.137h-21.4564v1.522h21.4564zm-10.7282-3.545c3.58 0 6.7531-.942 8.3803-2.441l-1.1739-.965c-1.5343 1.209-4.0332 1.883-7.2064 1.883-3.1731 0-5.6721-.674-7.2063-1.883l-1.174.965c1.6272 1.499 4.8004 2.441 8.3803 2.441zm0 16.167c6.4858 0 11.8557-5.381 11.8557-11.855 0-6.486-5.3816-11.856-11.8673-11.856-6.4741 0-11.844 5.37-11.844 11.856 0 6.474 5.3815 11.855 11.8556 11.855zm0-1.58c-5.614 0-10.2749-4.661-10.2749-10.275s4.6493-10.275 10.2633-10.275 10.2865 4.661 10.2865 10.275-4.6609 10.275-10.2749 10.275z"/><path clip-rule="evenodd" d="m34.6348 147.958c-.2341 2.622.4948 8.142 5.0102 10.52.6421.339 1.373.45 2.0987.45h.2139c1.0129 0 2.03-.233 2.8106-.878 2.0379-1.685 4.588-5.093 4.2939-10.092l-.297-4.604c-.0021-.033.0171-.063.0475-.075l3.9885-1.567c.0622-.025.0639-.112.0027-.139l-10.7746-4.723c-.0194-.009-.0414-.008-.0607 0l-10.6446 4.731c-.058.026-.0599.108-.0031.136l1.3604.68 2.0609 1.031c.0263.013.0425.04.0415.069zm5.4669 9.399c-3.4505-1.771-4.699-5.605-4.5729-7.638.0032-.052.0595-.083.1068-.059l.6879.344c.0514.026.1114-.013.1087-.071l-.1385-2.909c-.0027-.055.052-.095.103-.074 1.4968.616 4.5462 1.792 5.6021 1.909 1.0523.117 3.8953-1.178 5.2949-1.894.0515-.026.112.013.1094.071l-.1377 3.028c-.0028.061.0654.1.1167.066l.672-.447c.0482-.032.1131.001.1156.059.161 3.727-2.2285 6.092-3.9581 7.306-.6878.483-1.5262.678-2.3666.678-.6021 0-1.2076-.094-1.7433-.369z" fill-rule="evenodd"/><path d="m33.1788 142.697c.0018-.03-.0145-.058-.0415-.071l-.4564-.229c.0556.891-.167 3.29-.167 4.091-.1329 1.063-.2918 3.982-.1245 5.72-.0711-.844.1352.019.1419-.051.1692-1.79.7797-4.635.6505-5.669-.1312-1.049-.0584-2.882-.003-3.791z"/><path d="m29.824 161.056c1.2876-1.052 4.3299-2.412 5.8004-3.004.0362-.015.0763.001.0921.037.4045.92.1063 2.646 5.9821 2.793 4.681.117 5.8498-1.75 5.8625-2.773.0005-.044.0368-.081.081-.078 2.7371.149 5.0474 2.005 5.9726 3.03.0429.048.0081.122-.056.122h-23.687c-.0688 0-.101-.083-.0477-.127z" stroke="#000" stroke-width=".300566"/><g clip-path="url(#a)"><path d="m48.7095 260.114h-4.0302l-.1639-.736c-.0563-.257-.2841-.439-.5469-.439h-4.5398c-.2628 0-.4898.182-.5469.439l-.163.736h-4.0311c-1.4746 0-2.6735 1.199-2.6735 2.674v19.345c0 1.475 1.1989 2.674 2.6735 2.674h14.0219c1.4745 0 2.6744-1.199 2.6744-2.674v-19.345c-.0001-1.475-1.1999-2.674-2.6745-2.674zm.9268 22.019c0 .511-.4156.926-.9268.926h-14.0219c-.5103 0-.9259-.415-.9259-.926v-19.345c0-.511.4156-.927.9259-.927h3.6428l-.093.419c-.0375.165.0035.34.1093.472.1066.133.2679.21.4377.21h5.8291c.1698 0 .3311-.077.4369-.21.1067-.133.1476-.306.1101-.472l-.093-.419h3.642c.5112 0 .9268.416.9268.927z"/><path d="m38.6358 270.256h1.8552l-.441-.301c-.6222-.425-.7821-1.274-.3571-1.896.4244-.622 1.2737-.782 1.8959-.357l.0727.05v-.521c0-.337-.2738-.611-.6109-.611h-2.4148c-.3371 0-.6109.274-.6109.611v2.414c0 .337.2738.611.6109.611z"/><path d="m44.3156 266.905-2.1384 2.025-.9739-.665c-.3097-.212-.7348-.132-.9479.179-.2125.311-.1326.735.1792.948l1.4276.975c.1166.08.2505.119.3844.119.1699 0 .3383-.064.469-.187l2.538-2.403c.2738-.259.2851-.691.0266-.964-.2598-.274-.6908-.285-.9646-.027z"/><path d="m38.6358 274.942h1.8558l-.4416-.301c-.6222-.425-.7821-1.274-.3571-1.896.4244-.622 1.2737-.783 1.8959-.357l.0727.049v-.52c0-.338-.2738-.612-.6109-.612h-2.4148c-.3371 0-.6109.274-.6109.612v2.414c0 .337.2738.611.6109.611z"/><path d="m44.3156 271.591-2.1384 2.025-.9739-.665c-.3097-.213-.7348-.133-.9479.179-.2125.311-.1326.735.1792.948l1.4276.975c.1166.08.2505.118.3844.118.1699 0 .3383-.063.469-.186l2.538-2.403c.2738-.259.2851-.69.0266-.964-.2598-.274-.6908-.285-.9646-.027z"/><path d="m41.0506 275.992h-2.4148c-.3371 0-.6109.274-.6109.611v2.414c0 .337.2738.611.6109.611h2.4148c.3371 0 .6109-.274.6109-.611v-2.414c0-.337-.2738-.611-.6109-.611z"/></g><path d="m522.905 74h-8.43v-.87c.44-.16.885-.3 1.335-.42s.935-.22 1.455-.3v-17.85h-4.59l-1.59 4.29h-.75c-.06-.4-.11-.855-.15-1.365s-.075-1.03-.105-1.56-.055-1.05-.075-1.56-.03-.965-.03-1.365h17.43c0 .4-.01.85-.03 1.35s-.045 1.015-.075 1.545-.06 1.05-.09 1.56-.075.975-.135 1.395h-.78l-1.56-4.29h-4.59v17.85c.52.1 1.005.2 1.455.3s.885.24 1.305.42zm6.48-5.94c0-1.26.03-2.495.09-3.705s.09-2.415.09-3.615l-1.98-.24v-.78c.64-.24 1.295-.45 1.965-.63s1.325-.33 1.965-.45h.75c0 1.5-.03 2.99-.09 4.47s-.09 2.95-.09 4.41c0 .78.045 1.48.135 2.1s.25 1.14.48 1.56.545.745.945.975.91.345 1.53.345c.9 0 1.655-.325 2.265-.975s1.085-1.495 1.425-2.535v-8.25l-1.95-.24v-.78c.62-.24 1.265-.45 1.935-.63s1.325-.33 1.965-.45h.75v13.65l1.98.24v.63c-.58.26-1.165.49-1.755.69s-1.205.35-1.845.45h-.75l-.21-3.57h-.12c-.1.42-.275.845-.525 1.275s-.575.82-.975 1.17-.855.635-1.365.855-1.065.33-1.665.33c-.8 0-1.505-.095-2.115-.285s-1.125-.525-1.545-1.005-.74-1.125-.96-1.935-.33-1.835-.33-3.075zm15.36-8.34c.76-.48 1.56-.82 2.4-1.02v-2.55c.26-.22.565-.415.915-.585s.695-.335 1.035-.495h.75v3.93h4.5v1.5h-4.5v8.7c0 1.2.19 2.05.57 2.55s.95.75 1.71.75c.36 0 .81-.025 1.35-.075s1-.145 1.38-.285l.21.45c-.16.18-.385.37-.675.57s-.62.39-.99.57-.775.33-1.215.45-.89.18-1.35.18c-1.2 0-2.115-.34-2.745-1.02s-.945-1.78-.945-3.3v-9.54h-2.4zm24.06 12.18c-.16.34-.41.66-.75.96s-.73.56-1.17.78-.92.395-1.44.525-1.05.195-1.59.195c-1.18 0-2.22-.185-3.12-.555s-1.65-.9-2.25-1.59-1.055-1.515-1.365-2.475-.465-2.04-.465-3.24c0-2.56.59-4.51 1.77-5.85s2.85-2.01 5.01-2.01c.7 0 1.39.095 2.07.285s1.285.505 1.815.945.96 1.025 1.29 1.755.495 1.635.495 2.715c0 .34-.015.685-.045 1.035s-.085.725-.165 1.125h-9.36c0 .84.105 1.625.315 2.355s.525 1.365.945 1.905.95.965 1.59 1.275 1.39.465 2.25.465c.7 0 1.41-.1 2.13-.3s1.26-.46 1.62-.78zm-5.49-11.94c-1.14 0-2.01.385-2.61 1.155s-.96 2.125-1.08 4.065h6.6c.02-.18.035-.355.045-.525s.015-.335.015-.495c0-1.28-.24-2.3-.72-3.06s-1.23-1.14-2.25-1.14zm20.58 11.94c-.16.34-.41.66-.75.96s-.73.56-1.17.78-.92.395-1.44.525-1.05.195-1.59.195c-1.18 0-2.22-.185-3.12-.555s-1.65-.9-2.25-1.59-1.055-1.515-1.365-2.475-.465-2.04-.465-3.24c0-2.56.59-4.51 1.77-5.85s2.85-2.01 5.01-2.01c.7 0 1.39.095 2.07.285s1.285.505 1.815.945.96 1.025 1.29 1.755.495 1.635.495 2.715c0 .34-.015.685-.045 1.035s-.085.725-.165 1.125h-9.36c0 .84.105 1.625.315 2.355s.525 1.365.945 1.905.95.965 1.59 1.275 1.39.465 2.25.465c.7 0 1.41-.1 2.13-.3s1.26-.46 1.62-.78zm-5.49-11.94c-1.14 0-2.01.385-2.61 1.155s-.96 2.125-1.08 4.065h6.6c.02-.18.035-.355.045-.525s.015-.335.015-.495c0-1.28-.24-2.3-.72-3.06s-1.23-1.14-2.25-1.14zm16.05 10.62c0-.56-.175-1.035-.525-1.425s-.795-.755-1.335-1.095-1.115-.67-1.725-.99-1.185-.695-1.725-1.125-.985-.925-1.335-1.485-.525-1.25-.525-2.07c0-.54.125-1.04.375-1.5s.585-.855 1.005-1.185.91-.59 1.47-.78 1.16-.285 1.8-.285c1.08 0 1.965.06 2.655.18s1.355.29 1.995.51c-.08.64-.175 1.285-.285 1.935s-.265 1.315-.465 1.995h-.75l-1.14-3.06c-.24-.1-.51-.165-.81-.195s-.61-.045-.93-.045c-.36 0-.675.065-.945.195s-.5.295-.69.495-.335.43-.435.69-.15.52-.15.78c0 .54.175 1.005.525 1.395s.795.75 1.335 1.08 1.115.655 1.725.975 1.185.68 1.725 1.08.985.865 1.335 1.395.525 1.165.525 1.905c0 .68-.145 1.29-.435 1.83s-.69 1-1.2 1.38-1.1.675-1.77.885-1.385.315-2.145.315c-.86 0-1.65-.075-2.37-.225s-1.47-.365-2.25-.645c.04-.72.13-1.415.27-2.085s.32-1.315.54-1.935h.75l1.32 3.27c.22.16.485.25.795.27s.595.03.855.03c.88 0 1.59-.24 2.13-.72s.81-1.06.81-1.74z"/></g><path d="m804 163v-1h-500v1 1h500z" fill="#f0d1bd" mask="url(#c)"/><path d="m306.375 139.208c0 3.496 2.838 6.334 6.333 6.334 3.496 0 6.334-2.838 6.334-6.334 0-3.495-2.838-6.333-6.334-6.333-3.495 0-6.333 2.838-6.333 6.333z" stroke="#aaa" stroke-linecap="round" stroke-linejoin="round" stroke-width="1.58333"/><path d="m320.625 147.125-3.444-3.444" stroke="#aaa" stroke-linecap="round" stroke-linejoin="round" stroke-width="1.58333"/><path d="m341.172 144.098c-.644 0-1.223-.112-1.736-.336-.504-.233-.901-.551-1.19-.952-.289-.411-.439-.882-.448-1.414h1.358c.047.457.233.845.56 1.162.336.308.821.462 1.456.462.607 0 1.083-.149 1.428-.448.355-.308.532-.7.532-1.176 0-.373-.103-.677-.308-.91s-.462-.411-.77-.532-.723-.252-1.246-.392c-.644-.168-1.162-.336-1.554-.504-.383-.168-.714-.429-.994-.784-.271-.364-.406-.849-.406-1.456 0-.532.135-1.003.406-1.414s.649-.728 1.134-.952c.495-.224 1.059-.336 1.694-.336.915 0 1.661.229 2.24.686.588.457.919 1.064.994 1.82h-1.4c-.047-.373-.243-.7-.588-.98-.345-.289-.803-.434-1.372-.434-.532 0-.966.14-1.302.42-.336.271-.504.653-.504 1.148 0 .355.098.644.294.868.205.224.453.397.742.518.299.112.714.243 1.246.392.644.177 1.162.355 1.554.532.392.168.728.434 1.008.798.28.355.42.84.42 1.456 0 .476-.126.924-.378 1.344s-.625.761-1.12 1.022-1.078.392-1.75.392zm12.123-4.228c0 .243-.014.499-.042.77h-6.132c.046.756.303 1.349.77 1.778.476.42 1.05.63 1.722.63.55 0 1.008-.126 1.372-.378.373-.261.634-.607.784-1.036h1.372c-.206.737-.616 1.339-1.232 1.806-.616.457-1.382.686-2.296.686-.728 0-1.382-.163-1.96-.49-.57-.327-1.018-.789-1.344-1.386-.327-.607-.49-1.307-.49-2.1s.158-1.489.476-2.086c.317-.597.76-1.055 1.33-1.372.578-.327 1.241-.49 1.988-.49.728 0 1.372.159 1.932.476s.989.756 1.288 1.316c.308.551.462 1.176.462 1.876zm-1.316-.266c0-.485-.108-.901-.322-1.246-.215-.355-.509-.621-.882-.798-.364-.187-.77-.28-1.218-.28-.644 0-1.195.205-1.652.616-.448.411-.705.98-.77 1.708zm2.521.532c0-.784.159-1.47.476-2.058.318-.597.752-1.059 1.302-1.386.56-.327 1.181-.49 1.862-.49.672 0 1.256.145 1.75.434.495.289.864.653 1.106 1.092v-1.4h1.288v7.672h-1.288v-1.428c-.252.448-.63.821-1.134 1.12-.494.289-1.073.434-1.736.434-.681 0-1.297-.168-1.848-.504-.55-.336-.984-.807-1.302-1.414-.317-.607-.476-1.297-.476-2.072zm6.496.014c0-.579-.116-1.083-.35-1.512-.233-.429-.55-.756-.952-.98-.392-.233-.826-.35-1.302-.35s-.91.112-1.302.336-.704.551-.938.98c-.233.429-.35.933-.35 1.512 0 .588.117 1.101.35 1.54.234.429.546.761.938.994.392.224.826.336 1.302.336s.91-.112 1.302-.336c.402-.233.719-.565.952-.994.234-.439.35-.947.35-1.526zm4.715-2.576c.224-.439.542-.779.952-1.022.42-.243.929-.364 1.526-.364v1.316h-.336c-1.428 0-2.142.775-2.142 2.324v4.172h-1.274v-7.672h1.274zm3.473 2.576c0-.793.159-1.484.476-2.072.317-.597.756-1.059 1.316-1.386.569-.327 1.218-.49 1.946-.49.943 0 1.717.229 2.324.686.616.457 1.022 1.092 1.218 1.904h-1.372c-.131-.467-.387-.835-.77-1.106-.373-.271-.84-.406-1.4-.406-.728 0-1.316.252-1.764.756-.448.495-.672 1.199-.672 2.114 0 .924.224 1.638.672 2.142s1.036.756 1.764.756c.56 0 1.027-.131 1.4-.392s.63-.635.77-1.12h1.372c-.205.784-.616 1.414-1.232 1.89-.616.467-1.386.7-2.31.7-.728 0-1.377-.163-1.946-.49-.56-.327-.999-.789-1.316-1.386s-.476-1.297-.476-2.1zm12.788-3.962c.579 0 1.101.126 1.568.378.467.243.831.611 1.092 1.106.271.495.406 1.097.406 1.806v4.522h-1.26v-4.34c0-.765-.191-1.349-.574-1.75-.383-.411-.905-.616-1.568-.616-.672 0-1.209.21-1.61.63-.392.42-.588 1.031-.588 1.834v4.242h-1.274v-10.36h1.274v3.78c.252-.392.597-.695 1.036-.91.448-.215.947-.322 1.498-.322zm10.433 1.19v4.522c0 .373.08.639.238.798.159.149.434.224.826.224h.938v1.078h-1.148c-.709 0-1.241-.163-1.596-.49-.354-.327-.532-.863-.532-1.61v-4.522h-.994v-1.05h.994v-1.932h1.274v1.932h2.002v1.05zm10.35-1.05v7.672h-1.274v-1.134c-.243.392-.583.7-1.022.924-.429.215-.905.322-1.428.322-.597 0-1.134-.121-1.61-.364-.476-.252-.854-.625-1.134-1.12-.271-.495-.406-1.097-.406-1.806v-4.494h1.26v4.326c0 .756.191 1.339.574 1.75.383.401.905.602 1.568.602.681 0 1.218-.21 1.61-.63s.588-1.031.588-1.834v-4.214zm3.705 1.05v4.522c0 .373.079.639.238.798.159.149.434.224.826.224h.938v1.078h-1.148c-.709 0-1.241-.163-1.596-.49s-.532-.863-.532-1.61v-4.522h-.994v-1.05h.994v-1.932h1.274v1.932h2.002v1.05zm10.546 2.492c0 .243-.014.499-.042.77h-6.132c.046.756.303 1.349.77 1.778.476.42 1.05.63 1.722.63.55 0 1.008-.126 1.372-.378.373-.261.634-.607.784-1.036h1.372c-.206.737-.616 1.339-1.232 1.806-.616.457-1.382.686-2.296.686-.728 0-1.382-.163-1.96-.49-.57-.327-1.018-.789-1.344-1.386-.327-.607-.49-1.307-.49-2.1s.158-1.489.476-2.086c.317-.597.76-1.055 1.33-1.372.578-.327 1.241-.49 1.988-.49.728 0 1.372.159 1.932.476s.989.756 1.288 1.316c.308.551.462 1.176.462 1.876zm-1.316-.266c0-.485-.108-.901-.322-1.246-.215-.355-.509-.621-.882-.798-.364-.187-.77-.28-1.218-.28-.644 0-1.195.205-1.652.616-.448.411-.705.98-.77 1.708zm9.997.266c0 .243-.014.499-.042.77h-6.132c.047.756.304 1.349.77 1.778.476.42 1.05.63 1.722.63.551 0 1.008-.126 1.372-.378.374-.261.635-.607.784-1.036h1.372c-.205.737-.616 1.339-1.232 1.806-.616.457-1.381.686-2.296.686-.728 0-1.381-.163-1.96-.49-.569-.327-1.017-.789-1.344-1.386-.326-.607-.49-1.307-.49-2.1s.159-1.489.476-2.086c.318-.597.761-1.055 1.33-1.372.579-.327 1.242-.49 1.988-.49.728 0 1.372.159 1.932.476s.99.756 1.288 1.316c.308.551.462 1.176.462 1.876zm-1.316-.266c0-.485-.107-.901-.322-1.246-.214-.355-.508-.621-.882-.798-.364-.187-.77-.28-1.218-.28-.644 0-1.194.205-1.652.616-.448.411-.704.98-.77 1.708zm5.714 4.522c-.588 0-1.115-.098-1.582-.294-.467-.205-.835-.485-1.106-.84-.271-.364-.42-.779-.448-1.246h1.316c.037.383.215.695.532.938.327.243.751.364 1.274.364.485 0 .868-.107 1.148-.322s.42-.485.42-.812c0-.336-.149-.583-.448-.742-.299-.168-.761-.331-1.386-.49-.569-.149-1.036-.299-1.4-.448-.355-.159-.663-.387-.924-.686-.252-.308-.378-.709-.378-1.204 0-.392.117-.751.35-1.078s.565-.583.994-.77c.429-.196.919-.294 1.47-.294.849 0 1.535.215 2.058.644s.803 1.017.84 1.764h-1.274c-.028-.401-.191-.723-.49-.966-.289-.243-.681-.364-1.176-.364-.457 0-.821.098-1.092.294s-.406.453-.406.77c0 .252.079.462.238.63.168.159.373.289.616.392.252.093.597.201 1.036.322.551.149.999.299 1.344.448.345.14.639.355.882.644.252.289.383.667.392 1.134 0 .42-.117.798-.35 1.134s-.565.602-.994.798c-.42.187-.905.28-1.456.28zm5.004-.042c-.242 0-.448-.084-.616-.252s-.252-.373-.252-.616.084-.448.252-.616.374-.252.616-.252c.234 0 .43.084.588.252.168.168.252.373.252.616s-.084.448-.252.616c-.158.168-.354.252-.588.252zm2.94 0c-.243 0-.448-.084-.616-.252s-.252-.373-.252-.616.084-.448.252-.616.373-.252.616-.252c.233 0 .429.084.588.252.168.168.252.373.252.616s-.084.448-.252.616c-.159.168-.355.252-.588.252zm2.939 0c-.242 0-.448-.084-.616-.252s-.252-.373-.252-.616.084-.448.252-.616.374-.252.616-.252c.234 0 .43.084.588.252.168.168.252.373.252.616s-.084.448-.252.616c-.158.168-.354.252-.588.252z" fill="#bbb"/><rect fill="#f2f2f2" height="96" rx="48" width="96" x="334" y="204"/><g mask="url(#d)"><g mask="url(#e)"><path d="m381.968 275.166c-2.897-.293-5.329-1.178-7.365-2.476-1.936.603-7.158 1.22-12.987-.925-.247-.091-.268-.439-.047-.581.9-.578 2.174-1.643 2.759-3.007-.879.264-3.025.757-5.326.883-.305.016-.429-.385-.182-.564.795-.574 1.687-1.323 1.859-1.839-1.193.092-3.863.266-5.802.299-.246.004-.392-.271-.254-.475 1.504-2.219 4.084-6.464 4.536-8.947-.566.66-2.29 1.619-4.878.574-.24-.097-.236-.429-.007-.548 2.117-1.106 5.181-4.029 8.23-17.054 3.344-14.292 13.379-13.076 19.461-11.86 6.082-1.216 16.116-2.431 19.461 11.86 3.049 13.026 6.113 15.948 8.229 17.054.229.12.234.452-.006.548-2.588 1.046-4.312.087-4.878-.573.452 2.483 3.032 6.728 4.535 8.947.138.204-.007.478-.253.474-1.94-.032-4.61-.207-5.802-.299.172.517 1.064 1.266 1.858 1.84.248.179.124.58-.181.563-2.301-.126-4.447-.618-5.326-.882.584 1.364 1.858 2.429 2.759 3.007.221.142.199.49-.047.581-5.83 2.145-11.051 1.527-12.988.925-2.034 1.296-4.464 2.182-7.358 2.475z" fill="#9d2e71"/><path d="m382.021 275.171c-2.92-.287-5.37-1.176-7.418-2.481-1.936.603-7.158 1.22-12.987-.925-.247-.091-.268-.439-.047-.581.9-.578 2.174-1.643 2.759-3.007-.879.264-3.025.757-5.326.883-.305.016-.429-.385-.182-.564.795-.574 1.687-1.323 1.859-1.839-1.193.092-3.863.266-5.802.299-.246.004-.392-.271-.254-.475 1.504-2.219 4.084-6.464 4.536-8.947-.566.66-2.29 1.619-4.878.574-.24-.097-.236-.429-.007-.548 2.117-1.106 5.181-4.029 8.23-17.054 3.344-14.292 13.379-13.076 19.461-11.86 6.082-1.216 16.116-2.431 19.461 11.86 3.049 13.026 6.113 15.948 8.229 17.054.229.12.234.452-.006.548-2.588 1.046-4.312.087-4.878-.573.452 2.483 3.032 6.728 4.535 8.947.138.204-.007.478-.253.474-1.94-.032-4.61-.207-5.802-.299.172.517 1.064 1.266 1.858 1.84.248.179.124.58-.181.563-2.301-.126-4.447-.618-5.326-.882.584 1.364 1.858 2.429 2.759 3.007.221.142.199.49-.047.581-5.83 2.145-11.051 1.527-12.988.925-2.047 1.305-4.497 2.194-7.417 2.481" stroke="#9d2e71" stroke-width=".608167"/><path d="m386.82 280.946c1.997 0 4.18.208 5.933.573-.516 2.807-1.156 5.775-1.37 8.549-.339 4.412-.367 8.638-.305 10.644-4.764.405-15.082.972-18.245 0 .227-3.407.193-7.374.049-10.644-.165-3.734-.47-6.955-.686-8.69.86-.25 2.718-.388 4.894-.456l1.216-10.011 8.21-.912z" fill="#ffd5be"/><path d="m391.384 290.068c-.34 4.413-.473 8.341-.411 10.347-4.764.405-15.081.972-18.245 0 .227-3.407.298-7.077.154-10.347 7.823 2.432 15.594 1.013 18.502 0z" fill="#fff"/><path d="m391.384 290.068c-.34 4.413-.473 8.341-.411 10.347-4.764.405-15.081.972-18.245 0 .227-3.407.298-7.077.154-10.347 7.823 2.432 15.594 1.013 18.502 0z" stroke="#000" stroke-width=".639246"/><path d="m372.84 300.405c-3.244-.406-11.495-2.373-18.549-6.994 2.013-3.59 8.128-10.282 17.91-12.037.216 1.736.522 4.956.686 8.691 7.823 2.431 15.594 1.013 18.502 0 .213-2.775.55-5.743 1.066-8.549 9.356 1.948 15.215 8.395 17.179 11.895-7.055 4.621-15.306 6.588-18.549 6.994-.062-2.006-.035-5.929.304-10.34-2.908 1.013-10.679 2.431-18.502 0 .144 3.269.18 6.933-.047 10.34z" fill="#a29ccc"/><path d="m377.097 280.943c-12.65 0-20.475 8.312-22.806 12.468 7.054 4.622 15.305 6.588 18.549 6.994.227-3.407.191-7.071.047-10.34m13.94-9.122c1.997 0 3.874.207 5.628.573m0 0c9.356 1.948 15.215 8.395 17.179 11.895-7.055 4.622-15.306 6.588-18.549 6.994-.062-2.006-.035-5.929.304-10.34m1.066-8.549c-.516 2.806-.853 5.774-1.066 8.549m-19.188-8.691c.216 1.736.522 4.956.686 8.691m18.502 0c-2.908 1.013-10.679 2.431-18.502 0" stroke="#000" stroke-width=".608167"/><path d="m377.112 281.256.912-9.123m8.819 9.123-.304-9.427" stroke="#000" stroke-width=".608167"/><path d="m402.647 257.774c.609-3.955-2.331-4.053-3.953-3.04l-1.521 6.994c2.028.608 4.865 0 5.474-3.954z" fill="#ffd5be"/><path d="m361.291 257.831c-.609-3.955 2.331-4.054 3.953-3.04l1.52 6.994c-2.027.608-4.865 0-5.473-3.954z" fill="#ffd5be"/><path d="m382 275.166c-14.815-1.478-17.507-18.45-17.001-26.756 1.318-.507 4.258-2.129 5.475-4.562.202.811.547 2.615.304 3.345 1.52-.811 4.804-3.041 5.777-5.473.203.709.548 2.371.304 3.345 1.305-1.005 4.142-3.72 5.141-6.608 1 2.888 3.836 5.603 5.141 6.608-.243-.974.102-2.636.304-3.345.973 2.432 4.257 4.662 5.778 5.473-.243-.73.101-2.534.304-3.345 1.216 2.433 4.156 4.055 5.474 4.562.507 8.306-2.186 25.278-17.001 26.756z" fill="#ffd5be"/><path d="m382.028 275.169c-14.839-1.46-17.535-18.448-17.029-26.759 1.318-.507 4.258-2.129 5.475-4.562.202.811.547 2.615.304 3.345 1.52-.811 4.804-3.041 5.777-5.473.203.709.548 2.371.304 3.345 1.318-1.014 4.196-3.771 5.169-6.69m-.055 36.794c14.839-1.46 17.535-18.448 17.028-26.759-1.318-.507-4.258-2.129-5.474-4.562-.203.811-.547 2.615-.304 3.345-1.521-.811-4.805-3.041-5.778-5.473-.202.709-.547 2.371-.304 3.345-1.317-1.014-4.195-3.771-5.168-6.69" stroke="#000" stroke-width=".608167"/><path d="m385.308 267.567c-1.115 1.52-3.953 3.649-6.386 0" stroke="#000" stroke-linecap="round" stroke-width=".608167"/><path d="m383.475 263.005c-1.508 1.217-5.152-1.824.024-2.736" stroke="#000" stroke-linecap="round" stroke-width=".608167"/><path d="m372.241 256.014c0 .672.545 1.217 1.216 1.217.672 0 1.217-.545 1.217-1.217 0-.671-.545-1.216-1.217-1.216-.671 0-1.216.545-1.216 1.216z" fill="#000"/><path d="m389.27 256.014c0 .672.545 1.217 1.216 1.217s1.216-.545 1.216-1.217c0-.671-.545-1.216-1.216-1.216s-1.216.545-1.216 1.216z" fill="#000"/><g stroke="#000"><path d="m375.274 251.754c-.811.102-2.92.487-3.649 1.217" stroke-linecap="round" stroke-width="1.21633"/><path d="m388.659 251.754c.811.102 2.919.487 3.649 1.217" stroke-linecap="round" stroke-width="1.21633"/><path d="m362.51 256.624c.644-.065 1.341.1 1.864.912m.265 2.129c.178-.978.036-1.661-.265-2.129m0 0c-.52.304-1.255.426-1.255.912" stroke-linecap="round" stroke-width=".456126"/><path d="m401.433 256.553c-.643-.064-1.341.1-1.863.912m-.266 2.129c-.177-.978-.036-1.661.266-2.129m0 0c.519.304 1.255.426 1.255.913" stroke-linecap="round" stroke-width=".456126"/></g></g></g><path d="m368.701 327.091c-.841 0-1.614-.197-2.32-.591-.707-.395-1.266-.945-1.677-1.652-.412-.706-.618-1.501-.618-2.385s.206-1.677.618-2.379c.411-.702.97-1.25 1.677-1.645.706-.394 1.479-.591 2.32-.591.849 0 1.627.197 2.334.591.706.395 1.263.943 1.67 1.645s.611 1.495.611 2.379-.204 1.679-.611 2.385c-.407.707-.964 1.257-1.67 1.652-.707.394-1.485.591-2.334.591zm0-1.287c.598 0 1.131-.136 1.599-.409s.834-.663 1.099-1.17c.264-.508.396-1.095.396-1.762s-.132-1.252-.396-1.755c-.265-.503-.631-.888-1.099-1.157s-1.001-.403-1.599-.403-1.131.134-1.599.403-.834.654-1.098 1.157c-.265.503-.397 1.088-.397 1.755s.132 1.254.397 1.762c.264.507.63.897 1.098 1.17s1.001.409 1.599.409zm7.553-8.424v9.62h-1.482v-9.62zm2.704 1.508c-.269 0-.494-.091-.676-.273s-.273-.407-.273-.676.091-.494.273-.676.407-.273.676-.273c.26 0 .481.091.663.273s.273.407.273.676-.091.494-.273.676-.403.273-.663.273zm.728.949v7.163h-1.482v-7.163zm4.719 5.837 2.028-5.837h1.573l-2.73 7.163h-1.768l-2.717-7.163h1.586zm5.473-6.786c-.269 0-.494-.091-.676-.273s-.273-.407-.273-.676.091-.494.273-.676.407-.273.676-.273c.26 0 .481.091.663.273s.273.407.273.676-.091.494-.273.676-.403.273-.663.273zm.728.949v7.163h-1.482v-7.163zm1.456 3.549c0-.719.15-1.356.449-1.911s.706-.986 1.222-1.294c.515-.307 1.085-.461 1.709-.461.563 0 1.055.11 1.476.331.42.221.756.497 1.007.826v-1.04h1.495v7.163h-1.495v-1.066c-.251.338-.594.62-1.027.845s-.927.338-1.482.338c-.615 0-1.179-.158-1.69-.474-.511-.317-.916-.759-1.215-1.327-.299-.567-.449-1.211-.449-1.93zm5.863.026c0-.494-.102-.923-.305-1.287-.204-.364-.471-.641-.8-.832s-.685-.286-1.066-.286-.737.093-1.066.279c-.329.187-.596.46-.799.819-.204.36-.306.787-.306 1.281s.102.927.306 1.3c.203.373.472.656.806.852.333.194.686.292 1.059.292.381 0 .737-.095 1.066-.286s.596-.47.8-.838c.203-.369.305-.8.305-1.294z" fill="#383737"/><rect fill="#f2f2f2" height="96" rx="48" width="96" x="490" y="204"/><g mask="url(#f)"><g mask="url(#g)"><path d="m531.381 283.879s-.347.504-.893.949c-.452.369-.96.75-1.529 1.148-.118.083-.245.153-.377.212-.233.104-.462.208-.686.312-1.234.572-2.334 1.148-3.315 1.72-2.374 1.384-4.051 2.746-5.247 4.002-2.231 2.343-2.785 4.308-3.058 5.323h43.66c-.292-1.087-.907-3.263-3.556-5.824-1.151-1.114-2.687-2.3-4.748-3.501-.982-.572-2.082-1.148-3.316-1.72-.224-.104-.453-.208-.686-.312-.132-.059-.258-.129-.377-.212-.302-.211-.588-.418-.856-.621-.237-.179-.461-.354-.673-.527-.14-.114-.296-.231-.453-.348l-.031-.023c-.265-.197-.528-.394-.719-.578-3.112-2.998-2.427-5.256-2.6-9.224h-7.63c-.172 3.968.202 6.226-2.91 9.224z" fill="#ffdac6"/><path d="m528.959 285.976c.569-.398 1.077-.779 1.529-1.148.546-.445.893-.949.893-.949 3.112-2.998 2.738-5.256 2.91-9.224h7.63c.173 3.968-.512 6.226 2.6 9.224.191.184.454.381.719.578.01.008.021.015.031.023.157.117.313.234.453.348.212.173.436.348.673.527.268.203.554.41.856.621m-18.294 0c-.118.083-.245.153-.377.212zm0 0c-.118.083-.245.153-.377.212zm18.294 0c.119.083.245.153.377.212zm0 0c.119.083.245.153.377.212zm.377.212c.233.104.462.208.686.312 1.234.572 2.334 1.148 3.316 1.72 2.061 1.201 3.597 2.387 4.748 3.501 2.649 2.561 3.264 4.737 3.556 5.824h-43.66c.273-1.015.827-2.98 3.058-5.323 1.196-1.256 2.873-2.618 5.247-4.002.981-.572 2.081-1.148 3.315-1.72.224-.104.453-.208.686-.312" stroke="#000" stroke-linecap="round" stroke-width=".423889"/><path d="m531.381 283.879s-.347.505-.893.95c-.452.368-.96.749-1.529 1.147-.118.083-.245.153-.377.212-.233.104-.462.208-.686.312-1.234.572-2.334 1.148-3.315 1.72-2.374 1.384-4.051 2.747-5.247 4.002-2.231 2.343-2.785 5.973-3.058 6.989h43.66c-.292-1.087-.907-4.928-3.556-7.49-1.151-1.113-2.687-2.3-4.748-3.501-.982-.572-2.082-1.148-3.316-1.72-.224-.104-.453-.208-.686-.312-.132-.059-.258-.129-.377-.212-.302-.211-.588-.418-.856-.621-.237-.178-.461-.354-.673-.526-.14-.115-.296-.232-.453-.349l-.031-.023c-.265-.197-.528-.394-.719-.578l-3.956 1.584-2.974.496-1.488-.496h-1.487l-.991-.495-.942-.139-.545-.357z" fill="#187ca3"/><path clip-rule="evenodd" d="m545.724 284.828c-5.647 3.629-11.826 2.942-15.236 0-.452.369-.96.75-1.529 1.148-.119.083-.245.153-.377.212-.233.104-.462.208-.686.312v13.543h20.42v-13.543c-.224-.104-.453-.208-.686-.312-.132-.059-.258-.129-.377-.212-.303-.211-.588-.418-.856-.621-.237-.179-.461-.354-.673-.527z" fill="#eaeaef" fill-rule="evenodd"/><path d="m534.291 274.655c-.172 3.968.202 6.226-2.91 9.224m0 0s-.347.504-.893.949m.893-.949c2.755 2.196 8.541 2.721 13.14 0m-14.033.949c3.41 2.942 9.589 3.628 15.236 0m-15.236 0c-.452.369-.96.75-1.529 1.148-.118.083-.245.153-.377.212-.233.104-.462.208-.686.312-1.234.572-2.334 1.148-3.315 1.72-2.374 1.384-4.051 2.746-5.247 4.002-2.231 2.343-2.785 4.308-3.058 5.323l3.058 2.498h2.434 6.128 20.42 6.408 1.656l3.556-2.498c-.292-1.087-.907-3.263-3.556-5.824-1.151-1.114-2.687-2.3-4.748-3.501-.982-.572-2.082-1.148-3.316-1.72-.224-.104-.453-.208-.686-.312-.132-.059-.258-.129-.377-.212-.302-.211-.588-.418-.856-.621-.237-.179-.461-.354-.673-.527m0 0c-.14-.114-.296-.231-.453-.348m-.75-.601c-3.112-2.998-2.427-5.256-2.6-9.224m2.6 9.224c.191.184.454.381.719.578m.031.023c-.01-.008-.021-.015-.031-.023m.031.023-.031-.023" stroke="#000" stroke-linecap="round" stroke-width=".423889"/><path d="m537.682 229.034c25.362 0 20.746 29.114 17.01 32.581l-34.08-.057c-3.724-3.716-8.159-32.524 17.07-32.524z" fill="#253b5a"/><path d="m520.671 261.615c-.02-.019-.04-.038-.059-.057m0 0c-3.724-3.716-8.159-32.524 17.07-32.524 25.362 0 20.746 29.114 17.01 32.581l-34.08-.057.059.057" stroke="#000" stroke-width=".57664"/><path d="m524.247 268.711c4.152 8.073 10.388 8.737 13.559 8.737 3.749 0 9.688-.664 13.84-8.737 6.625.573 7.776-12.403 1.153-6.92-.283-4.322.493-22.753-5.216-21.129-.584.166-1.141.45-1.73.597-1.984.495-5.348 1.185-7.907 1.209-2.558-.024-5.922-.714-7.906-1.209-.589-.147-1.146-.431-1.731-.597-5.708-1.624-4.932 16.807-5.215 21.129-6.623-5.483-5.473 7.493 1.153 6.92z" fill="#ffdac6"/><path d="m538.086 242.469c-2.574 0-6.026-.706-8.046-1.21-.589-.147-1.146-.431-1.731-.597-5.708-1.624-4.932 16.807-5.215 21.129-6.623-5.483-5.473 7.493 1.153 6.92 4.152 8.073 10.388 8.737 13.559 8.737 3.749 0 9.688-.664 13.84-8.737 6.625.573 7.776-12.403 1.153-6.92-.283-4.322.493-22.753-5.216-21.129-.584.166-1.141.45-1.73.597-2.021.504-5.472 1.21-8.047 1.21" stroke="#000" stroke-linecap="round" stroke-width=".57664"/><path d="m553.069 265.913 1.73-2.307" stroke="#000" stroke-linecap="round" stroke-width=".864961"/><path d="m522.812 265.913-1.73-2.307" stroke="#000" stroke-linecap="round" stroke-width=".864961"/><path d="m529.331 259.013c.796 0 1.442-.645 1.442-1.441s-.646-1.442-1.442-1.442-1.441.646-1.441 1.442.645 1.441 1.441 1.441z" fill="#000"/><path d="m546.049 259.013c.796 0 1.442-.645 1.442-1.441s-.646-1.442-1.442-1.442-1.441.646-1.441 1.442.645 1.441 1.441 1.441z" fill="#000"/><g stroke="#000" stroke-linecap="round"><path d="m537.402 252.669v6.055c1.73 1.442 4.324 4.613.865 4.613" stroke-width=".57664"/><path d="m541.143 266.513c-.961 1.249-3.748 2.998-7.208 0" stroke-width=".57664"/><path d="m543.461 249.579c1.154-.481 3.864-.865 5.479 1.441" stroke-width=".864961"/><path d="m531.632 249.579c-1.154-.481-3.864-.865-5.478 1.441" stroke-width=".864961"/></g></g></g><path d="m528.939 327h-1.482l-4.459-6.747v6.747h-1.482v-9.048h1.482l4.459 6.734v-6.734h1.482zm5.057.117c-.676 0-1.287-.154-1.833-.461-.546-.308-.975-.741-1.287-1.3s-.468-1.207-.468-1.944c0-.728.16-1.374.481-1.937s.758-.997 1.313-1.3 1.174-.455 1.859-.455 1.304.152 1.859.455.992.737 1.313 1.3.481 1.209.481 1.937-.165 1.374-.494 1.937-.778.999-1.345 1.307c-.568.307-1.194.461-1.879.461zm0-1.287c.381 0 .739-.091 1.073-.273.333-.182.604-.455.812-.819s.312-.806.312-1.326-.1-.96-.299-1.319c-.199-.36-.464-.631-.793-.813s-.685-.273-1.066-.273-.734.091-1.059.273-.583.453-.774.813c-.191.359-.286.799-.286 1.319 0 .771.197 1.367.592 1.787.394.421.89.631 1.488.631zm4.693-2.444c0-.719.15-1.356.449-1.911s.706-.986 1.222-1.294c.515-.307 1.085-.461 1.709-.461.563 0 1.055.11 1.476.331.42.221.756.497 1.007.826v-1.04h1.495v7.163h-1.495v-1.066c-.251.338-.594.62-1.027.845s-.927.338-1.482.338c-.615 0-1.179-.158-1.69-.474-.511-.317-.916-.759-1.215-1.327-.299-.567-.449-1.211-.449-1.93zm5.863.026c0-.494-.102-.923-.305-1.287-.204-.364-.471-.641-.8-.832s-.685-.286-1.066-.286-.737.093-1.066.279c-.329.187-.596.46-.799.819-.204.36-.306.787-.306 1.281s.102.927.306 1.3c.203.373.472.656.806.852.333.194.686.292 1.059.292.381 0 .737-.095 1.066-.286s.596-.47.8-.838c.203-.369.305-.8.305-1.294zm7.15-3.692c.546 0 1.034.117 1.463.351s.767.581 1.014 1.04.37 1.014.37 1.664v4.225h-1.469v-4.004c0-.641-.16-1.133-.481-1.475-.321-.343-.758-.514-1.313-.514s-.994.171-1.319.514c-.325.342-.488.834-.488 1.475v4.004h-1.482v-9.62h1.482v3.289c.251-.303.57-.537.956-.702.385-.165.808-.247 1.267-.247z" fill="#383737"/><rect fill="#f2f2f2" height="96" rx="48" width="96" x="646" y="204"/><g mask="url(#h)"><g mask="url(#i)"><path d="m705.264 231.978c13.274-.465 8.62 21.436 4.119 29.065v1.594l-30.206 1.602c-14.884-28.836 1.367-32.726 6.634-32.955 3.89-7.324 11.672-3.206 19.453.694z" fill="#253b5a"/><path d="m705.264 231.978c13.274-.465 8.62 21.436 4.119 29.065v1.594l-30.206 1.602c-14.884-28.836 1.367-32.726 6.634-32.955 3.89-7.324 11.672-3.206 19.453.694z" stroke="#253b5a" stroke-linecap="round" stroke-width=".457718"/><path d="m686.277 284.148s-.346.504-.893.949c-.452.369-.959.75-1.528 1.148-.119.083-.245.153-.377.212-.233.104-.462.207-.686.311-1.234.573-2.335 1.148-3.316 1.72-2.373 1.384-4.05 2.747-5.246 4.003-2.231 2.342-2.785 4.308-3.058 5.323h43.66c-.293-1.087-.907-3.263-3.556-5.824-1.152-1.114-2.688-2.3-4.749-3.502-.981-.572-2.081-1.147-3.315-1.72-.224-.104-.453-.207-.686-.311-.132-.059-.259-.129-.377-.212-.303-.212-.588-.418-.856-.621-.237-.179-.461-.354-.673-.527-.141-.115-.297-.231-.453-.348l-.031-.023c-.265-.198-.528-.394-.719-.578-3.113-2.998-2.428-5.256-2.6-9.224h-7.63c-.173 3.968.202 6.226-2.911 9.224z" fill="#ffd5be"/><path d="m683.856 286.245c.569-.398 1.076-.779 1.528-1.148.547-.445.893-.949.893-.949 3.113-2.998 2.738-5.256 2.911-9.224h7.63c.172 3.968-.513 6.226 2.6 9.224.191.184.454.38.719.578.01.007.021.015.031.023.156.117.312.233.453.348.212.173.436.348.673.527.268.203.553.409.856.621m-18.294 0c-.119.083-.245.153-.377.212m.377-.212c-.119.083-.245.153-.377.212m18.671-.212c.118.083.245.153.377.212m-.377-.212c.118.083.245.153.377.212m0 0c.233.104.462.207.686.311 1.234.573 2.334 1.148 3.315 1.72 2.061 1.202 3.597 2.388 4.749 3.502 2.649 2.561 3.263 4.737 3.556 5.824h-43.66c.273-1.015.827-2.981 3.058-5.323 1.196-1.256 2.873-2.619 5.246-4.003.981-.572 2.082-1.147 3.316-1.72.224-.104.453-.207.686-.311" stroke="#000" stroke-linecap="round" stroke-width=".423889"/><path d="m686.277 284.148s-.346.504-.893.949c-.452.369-.959.75-1.528 1.148-.119.083-.245.153-.377.212-.233.104-.462.208-.686.312-1.234.572-2.335 1.148-3.316 1.719-2.373 1.384-4.05 2.748-5.246 4.003-2.231 2.342-2.785 5.973-3.058 6.988h43.66c-.293-1.087-.907-4.927-3.556-7.489-1.152-1.113-2.688-2.3-4.749-3.502-.981-.571-2.081-1.147-3.315-1.719-.224-.104-.453-.208-.686-.312-.132-.059-.259-.129-.377-.212-.303-.211-.588-.418-.856-.621-.237-.179-.461-.354-.673-.527-.141-.114-.297-.231-.453-.348l-.031-.023c-.265-.198-.528-.394-.719-.578l-3.957 1.584-2.974.496-1.487-.496h-1.487l-.991-.496-.943-.139-.544-.356z" fill="#235819"/><path clip-rule="evenodd" d="m700.621 285.097c-5.647 3.628-11.826 2.942-15.236 0-.452.369-.96.75-1.529 1.148-.119.083-.245.153-.377.212-.233.104-.462.207-.686.311v13.544h20.42v-13.544c-.224-.104-.453-.207-.686-.311-.132-.059-.258-.129-.377-.212-.303-.212-.588-.418-.856-.621-.237-.179-.461-.354-.673-.527z" fill="#88c57e" fill-rule="evenodd"/><path d="m689.188 274.924c-.173 3.968.202 6.226-2.911 9.224m-6.8 4.34c-2.373 1.384-4.05 2.747-5.246 4.003m5.246-4.003-2.583 4.586 4.119 1.373-4.348 5.865m2.812-11.824c.981-.572 2.082-1.147 3.316-1.72m2.591-1.671c.547-.445.893-.949.893-.949m-.893.949c3.411 2.942 9.59 3.628 15.237 0m-15.237 0c-.452.369-.959.75-1.528 1.148m2.421-2.097c2.756 2.196 8.542 2.721 13.141 0m7.11 4.34c2.061 1.202 3.597 2.388 4.749 3.502m-4.749-3.502 2.406 4.586-3.661 1.601 4.348 5.637m-3.093-11.824c-.981-.572-2.081-1.147-3.315-1.72m-2.592-1.671c.212.173.436.348.673.527.268.203.553.409.856.621m-1.529-1.148c-.141-.115-.297-.231-.453-.348m-.75-.601c-3.113-2.998-2.428-5.256-2.6-9.224m2.6 9.224c.191.184.454.38.719.578m11.14 7.264c2.649 2.561 3.263 4.737 3.556 5.824l-3.556 2.498m0-8.322v8.322m-37.046-7.821c-2.231 2.342-2.785 4.308-3.058 5.323l3.058 2.498m0-7.821v7.821m28.982-13.544c-.224-.104-.453-.207-.686-.311m.686.311v13.544m-20.42-13.544c.224-.104.453-.207.686-.311m-.686.311v13.544m1.063-14.067c-.119.083-.245.153-.377.212m.377-.212c-.119.083-.245.153-.377.212m18.671-.212c.118.083.245.153.377.212m-.377-.212c.118.083.245.153.377.212m-2.39-1.731c.01.007.021.015.031.023m-.031-.023.031.023m-23.503 15.563h-2.434m2.434 0h6.128m26.828 0h1.656m-1.656 0h-6.408m-20.42 0h20.42" stroke="#000" stroke-linecap="round" stroke-width=".423889"/><path d="m679.537 268.921c4.663 6.994 7.418 8.054 13.564 8.266 7.805.343 11.439-5.091 13.347-8.266 9.749-2.751 4.662-11.025 2.755-8.058l-.963.86c-.916-9.612 3.112-20.185-9.155-21.284 0 .61.824 2.06 4.12 2.975-2.136.305-7.186.229-10.299-2.517 0 .686.916 2.334 4.577 3.433-2.822.381-8.605-.458-9.154-6.866-8.49 1.768-8.864 2.597-10.117 22.929-.05.819-1.069 1.169-1.606.549l-.248-.287c-4.67-.216-2.126 7.838 3.179 8.266z" fill="#ffd5be"/><path d="m679.537 268.921c4.663 6.994 7.418 8.054 13.564 8.266 7.805.343 11.439-5.091 13.347-8.266 9.749-2.751 4.662-11.025 2.755-8.058l-.963.86c-.916-9.612 3.112-20.185-9.155-21.284 0 .61.824 2.06 4.12 2.975-2.136.305-7.186.229-10.299-2.517 0 .686.916 2.334 4.577 3.433-2.822.381-8.605-.458-9.154-6.866-8.49 1.768-8.864 2.597-10.117 22.929-.05.819-1.069 1.169-1.606.549l-.248-.287c-4.67-.216-2.126 7.838 3.179 8.266z" stroke="#000" stroke-linecap="round" stroke-width=".423889"/><path d="m699.567 257.605c0 .819.665 1.484 1.483 1.484.819 0 1.484-.665 1.484-1.484 0-.818-.665-1.483-1.484-1.483-.818 0-1.483.665-1.483 1.483z" fill="#000"/><path d="m683.455 257.605c0 .819.665 1.484 1.483 1.484.819 0 1.484-.665 1.484-1.484 0-.818-.665-1.483-1.484-1.483-.818 0-1.483.665-1.483 1.483z" fill="#000"/><path d="m681.666 251.172c1.086-.803 3.648-1.45 5.201-1.75.108-.021.116-.17.01-.201-3.372-.969-4.918.606-5.403 1.828-.041.104.103.189.192.123z" fill="#000"/><path d="m681.666 251.172c1.086-.803 3.648-1.45 5.201-1.75.108-.021.116-.17.01-.201-3.372-.969-4.918.606-5.403 1.828-.041.104.103.189.192.123z" stroke="#000" stroke-linecap="round" stroke-width=".423889"/><path d="m704.32 251.172c-1.086-.803-3.648-1.45-5.201-1.75-.108-.021-.116-.17-.01-.201 3.372-.969 4.918.606 5.403 1.828.041.104-.102.189-.192.123z" fill="#000"/><g stroke="#000"><path d="m704.32 251.172c-1.086-.803-3.648-1.45-5.201-1.75-.108-.021-.116-.17-.01-.201 3.372-.969 4.918.606 5.403 1.828.041.104-.102.189-.192.123z" stroke-linecap="round" stroke-width=".423889"/><path d="m696.601 266.509c-.918.989-3.645 2.373-7.206 0" stroke-linecap="round" stroke-width=".423889"/><path d="m675.404 263.329c.636.424 1.569.848 1.908 2.544" stroke-linecap="round" stroke-width=".423889"/><path d="m692.787 252.733c.811 5.786 1.269 7.617 2.642 9.905-.915.916-2.975 1.602-4.348.458" stroke-linecap="round" stroke-width=".423889"/><path d="m711.012 263.117c-.636.424-1.781 1.272-2.12 2.967" stroke-linecap="round" stroke-width=".423889"/><path d="m701.64 251.197c3.511 0 6.37 2.76 6.37 6.179 0 3.42-2.859 6.179-6.37 6.18-3.433 0-6.241-2.638-6.366-5.951h-4.279c-.125 3.313-2.932 5.95-6.365 5.951-3.512 0-6.371-2.76-6.371-6.18 0-3.419 2.859-6.179 6.371-6.179 3.433 0 6.24 2.638 6.365 5.951h4.279c.125-3.313 2.932-5.951 6.366-5.951z" stroke-width=".457718"/></g></g></g><path d="m685.953 325.154h-3.783l-.65 1.846h-1.547l3.237-9.048h1.716l3.237 9.048h-1.56zm-.416-1.209-1.469-4.199-1.482 4.199zm5.512-3.068c.217-.364.505-.648.864-.851.36-.204.787-.306 1.281-.306v1.534h-.377c-.581 0-1.021.147-1.32.442s-.448.806-.448 1.534v3.77h-1.482v-7.163h1.482zm4.264-1.989c-.269 0-.494-.091-.676-.273s-.273-.407-.273-.676.091-.494.273-.676.407-.273.676-.273c.26 0 .481.091.663.273s.273.407.273.676-.091.494-.273.676-.403.273-.663.273zm.728.949v7.163h-1.482v-7.163zm8.515 3.406c0 .269-.017.511-.052.728h-5.473c.043.572.256 1.031.637 1.378s.849.52 1.404.52c.797 0 1.361-.334 1.69-1.001h1.599c-.217.659-.609 1.198-1.177 1.618-.567.421-1.271.631-2.112.631-.685 0-1.298-.154-1.84-.461-.541-.308-.966-.741-1.274-1.3-.307-.559-.461-1.207-.461-1.944s.149-1.385.448-1.944.72-.99 1.261-1.293c.542-.303 1.164-.455 1.866-.455.676 0 1.278.147 1.807.442s.94.708 1.235 1.241c.295.534.442 1.147.442 1.84zm-1.547-.468c-.009-.546-.204-.984-.585-1.313s-.854-.494-1.417-.494c-.511 0-.949.163-1.313.488s-.581.764-.65 1.319zm4.485-5.395v9.62h-1.482v-9.62z" fill="#383737"/><rect fill="#f2f2f2" height="96" rx="48" width="96" x="334" y="368"/><g mask="url(#j)"><g mask="url(#k)"><path d="m375.415 449.581c-.324.312-.687.632-1.092.963v13.251h16.578v-12.703c-.246-.186-.48-.369-.7-.548-.405-.331-.768-.651-1.092-.963-3.244-3.125-2.692-5.504-2.872-9.639h-7.951c-.179 4.135.373 6.514-2.871 9.639z" fill="#ffd5be"/><path d="m375.415 449.581c-.324.312-.687.632-1.092.963v13.251h16.578v-12.703c-.246-.186-.48-.369-.7-.548-.405-.331-.768-.651-1.092-.963-3.244-3.125-2.692-5.504-2.872-9.639h-7.951c-.179 4.135.373 6.514-2.871 9.639z" stroke="#000" stroke-linecap="round" stroke-width=".44172"/><path d="m374.331 450.542c.405-.33.768-.65 1.093-.963l6.846 4.497 6.847-4.497c.324.313.687.633 1.092.963.221.18.454.363.701.549v12.703h-.701-1.409-1.008-1.546-.922-1.287-.851-.916-.305-1.13-1.436-1.104-1.105-1.766-1.093z" fill="#fff"/><path d="m359.518 463.795h9.939c-1.078-1.03-2.843-4.417-1.285-9.718-7.089 4.133-8.217 8.093-8.654 9.718z" fill="#f4ba13"/><path clip-rule="evenodd" d="m396.361 454.077c1.558 5.301-.208 8.688-1.285 9.718h9.939c-.438-1.625-1.565-5.585-8.654-9.718z" fill="#f4ba13" fill-rule="evenodd"/><path d="m396.361 454.077c-1.261-.735-2.71-1.475-4.377-2.208-.385-.266-.744-.524-1.078-.777v12.703h4.17c1.078-1.03 2.843-4.417 1.285-9.718z" fill="#f4ba13"/><path d="m372.549 451.869c-1.668.733-3.117 1.473-4.377 2.208-1.558 5.301.207 8.688 1.285 9.718h4.871v-13.252c-.52.424-1.11.864-1.779 1.326z" fill="#f4ba13"/><path d="m378.291 439.942c-.18 4.135.372 6.514-2.871 9.639m-5.963 14.214h-9.939c.437-1.625 1.565-5.585 8.654-9.718m1.285 9.718c-1.078-1.03-2.843-4.417-1.285-9.718m1.285 9.718h4.871m-6.156-9.718c1.26-.735 2.709-1.475 4.377-2.208.669-.462 1.259-.902 1.779-1.325m0 0c.405-.331.767-.651 1.092-.963m-1.092.963 1.092.79 1.767 1.277 1.104.799 1.104.799 1.436 1.038 1.13.818.305.221.917-.663.85-.615 1.287-.931.922-.667 1.546-1.118 1.008-.729 1.409-1.019m-15.877 0v13.251m0 0h1.092 1.767 1.104 1.104 1.436 1.13.305.917.85 1.287.922 1.546 1.008 1.409.701m-15.486-14.214 6.846 4.496 6.847-4.496m5.963 14.214h9.939c-.437-1.625-1.565-5.585-8.654-9.718m-1.285 9.718c1.078-1.03 2.843-4.417 1.285-9.718m-1.285 9.718h-4.17m5.455-9.718c-1.261-.735-2.71-1.475-4.377-2.208-.385-.266-.744-.524-1.078-.777m-.701-.548c-.405-.331-.767-.651-1.092-.963m1.092.963c.221.179.454.362.701.548m-1.793-1.511c-3.243-3.125-2.691-5.504-2.871-9.639m4.664 11.15v12.703" stroke="#000" stroke-linecap="round" stroke-width=".44172"/><g fill="#000"><path d="m383.181 455.617v8.172h.851v-8.787z"/><path d="m385.318 454.071v9.718h.922v-10.385z"/><path d="m387.786 452.286v11.503h1.009v-12.232z"/><path d="m380.829 455.242v8.547h1.131v-7.73z"/><path d="m379.394 463.789v-9.586l-1.105-.799v10.385z"/><path d="m377.185 463.789v-11.183l-1.102-.793v11.976z"/></g><path d="m377.185 452.606v11.183m0-11.183-1.102-.793v11.976h1.102m0-11.183 1.104.798m-1.104 10.385h1.104m1.105-9.586v9.586m0-9.586-1.105-.799m1.105.799 1.435 1.039m-1.435 8.547h-1.105m1.105 0h1.435m-2.54-10.385v10.385m2.54-8.547v8.547m0-8.547 1.131.817m-1.131 7.73h1.131m0-7.73.305.221.916-.663m-1.221.442v7.73m0 0h.305.916m0-8.172v8.172m0-8.172.851-.615m-.851 8.787h.851m0-8.787v8.787m0-8.787 1.286-.931m-1.286 9.718h1.286m0-9.718v9.718m0-9.718.922-.667m-.922 10.385h.922m0-10.385v10.385m0-10.385 1.546-1.118m-1.546 11.503h1.546m0-11.503v11.503m0-11.503 1.009-.729v12.232h-1.009" stroke="#000" stroke-linecap="round" stroke-width=".44172"/><path d="m364.828 423.371c1.118 0 .435 1.767-.221 1.988l.221 1.992 36.883-.883c.073-.663 0-2.121-.884-2.651-.883-.53-.662-.957-.441-1.104 2.297-1.59 1.546-2.724.883-3.092.663-1.104 3.092-5.872 1.325-5.526-.883.173-.957-.808-.883-1.321 1.59-2.65.441-4.859-.884-5.521 1.237-3.004-.221-3.976-1.767-5.08 0-2.297-.662-3.092-2.429-4.638.707-2.65-1.546-2.65-2.871-2.65-.221-2.651-2.871-1.988-3.976-1.326-.883.531-1.104-.073-1.104-.441-.663-1.767-4.196-.442-4.417.221-.177.53-.663.22-.884-.002-1.987-3.091-3.975.442-4.196.662-.177.177-.368.074-.442 0-2.65-2.65-3.975-.221-4.196.442-.177.53-.515.369-.663.221-3.003-1.413-3.754.884-3.754 2.209-4.417-.883-4.491 2.133-3.976 3.752-2.208-.663-4.973 3.003-3.975 3.754.883.666.292.884-.225.884-2.205.883-1.544 3.534-.221 3.754.887.148.368.663 0 .884-1.767 1.59-.661 3.955.221 4.196.809.221 2.03.751.44 1.104-1.988.442-1.325 3.313 0 3.313 1.06 0 .741.884.448 1.326-1.987 1.104-.006 3.533 1.988 3.533z" fill="#253b5a"/><path d="m364.828 423.371c1.118 0 .435 1.767-.221 1.988l.221 1.992 36.883-.883c.073-.663 0-2.121-.884-2.651-.883-.53-.662-.957-.441-1.104 2.297-1.59 1.546-2.724.883-3.092.663-1.104 3.092-5.872 1.325-5.526-.883.173-.957-.808-.883-1.321 1.59-2.65.441-4.859-.884-5.521 1.237-3.004-.221-3.976-1.767-5.08 0-2.297-.662-3.092-2.429-4.638.707-2.65-1.546-2.65-2.871-2.65-.221-2.651-2.871-1.988-3.976-1.326-.883.531-1.104-.073-1.104-.441-.663-1.767-4.196-.442-4.417.221-.177.53-.663.22-.884-.002-1.987-3.091-3.975.442-4.196.662-.177.177-.368.074-.442 0-2.65-2.65-3.975-.221-4.196.442-.177.53-.515.369-.663.221-3.003-1.413-3.754.884-3.754 2.209-4.417-.883-4.491 2.133-3.976 3.752-2.208-.663-4.973 3.003-3.975 3.754.883.666.292.884-.225.884-2.205.883-1.544 3.534-.221 3.754.887.148.368.663 0 .884-1.767 1.59-.661 3.955.221 4.196.809.221 2.03.751.44 1.104-1.988.442-1.325 3.313 0 3.313 1.06 0 .741.884.448 1.326-1.987 1.104-.006 3.533 1.988 3.533z" stroke="#000" stroke-linecap="round" stroke-width=".44172"/><path d="m368.356 433.538c4.859 7.288 7.73 8.393 14.135 8.613 8.133.357 11.92-5.305 13.908-8.613 10.16-2.867 4.859-11.489 2.871-8.397-.394.613-.809.883-1.104.883-1.384-.865-.622-6.603-.037-9.536.021-.106-.038-.209-.136-.255-1.969-.923-1.565-3.794-1.033-5.385.048-.142-.051-.293-.199-.312-2.842-.38-4.029-3.798-4.308-5.709-.018-.124-.132-.21-.257-.197-1.926.19-3.118-1.064-3.604-1.942-.076-.138-.267-.174-.392-.079-1.111.847-2.544.368-3.308-.089-.11-.065-.255-.033-.327.073-1.907 2.812-6.05 1.536-7.171-.213-.102-.159-.366-.183-.486-.037-1.062 1.292-2.894 1.486-3.912 1.4-.126-.011-.239.079-.253.204-.169 1.519-.439 2.157-1.374 2.579-.087.039-.143.128-.141.223.063 2.427-1.953 3.685-3.31 4.131-.178.059-.233.305-.105.442.783.832.984 1.995.955 2.97-.026.868-.656 1.555-1.449 1.908-.438.195-.699.651-.645 1.128l.994 8.78c.073.647-.733 1-1.16.508l-1.465-1.692c-4.866-.225-2.215 8.168 3.313 8.614z" fill="#ffd5be"/><path d="m368.356 433.538c4.859 7.288 7.73 8.393 14.135 8.613 8.133.357 11.92-5.305 13.908-8.613 10.16-2.867 4.859-11.489 2.871-8.397-.394.613-.809.883-1.104.883-1.384-.865-.622-6.603-.037-9.536.021-.106-.038-.209-.136-.255-1.969-.923-1.565-3.794-1.033-5.385.048-.142-.051-.293-.199-.312-2.842-.38-4.029-3.798-4.308-5.709-.018-.124-.132-.21-.257-.197-1.926.19-3.118-1.064-3.604-1.942-.076-.138-.267-.174-.392-.079-1.111.847-2.544.368-3.308-.089-.11-.065-.255-.033-.327.073-1.907 2.812-6.05 1.536-7.171-.213-.102-.159-.366-.183-.486-.037-1.062 1.292-2.894 1.486-3.912 1.4-.126-.011-.239.079-.253.204-.169 1.519-.439 2.157-1.374 2.579-.087.039-.143.128-.141.223.063 2.427-1.953 3.685-3.31 4.131-.178.059-.233.305-.105.442.783.832.984 1.995.955 2.97-.026.868-.656 1.555-1.449 1.908-.438.195-.699.651-.645 1.128l.994 8.78c.073.647-.733 1-1.16.508l-1.465-1.692c-4.866-.225-2.215 8.168 3.313 8.614z" stroke="#000" stroke-linecap="round" stroke-width=".44172"/><path d="m389.106 421.891c0 .854.692 1.546 1.546 1.546.853 0 1.546-.692 1.546-1.546 0-.853-.693-1.546-1.546-1.546-.854 0-1.546.693-1.546 1.546z" fill="#000"/><path d="m372.326 421.891c0 .854.693 1.546 1.546 1.546s1.546-.692 1.546-1.546c0-.853-.693-1.546-1.546-1.546s-1.546.693-1.546 1.546z" fill="#000"/><path d="m370.449 415.184c1.131-.837 3.802-1.51 5.419-1.823.113-.022.121-.177.011-.209-3.513-1.01-5.125.631-5.63 1.905-.043.108.107.196.2.127z" fill="#000"/><path d="m370.449 415.184c1.131-.837 3.802-1.51 5.419-1.823.113-.022.121-.177.011-.209-3.513-1.01-5.125.631-5.63 1.905-.043.108.107.196.2.127z" stroke="#000" stroke-linecap="round" stroke-width=".44172"/><path d="m394.077 415.184c-1.131-.837-3.802-1.51-5.419-1.823-.113-.022-.121-.177-.011-.209 3.514-1.01 5.125.631 5.63 1.905.043.108-.107.196-.2.127z" fill="#000"/><path d="m394.077 415.184c-1.131-.837-3.802-1.51-5.419-1.823-.113-.022-.121-.177-.011-.209 3.514-1.01 5.125.631 5.63 1.905.043.108-.107.196-.2.127z" stroke="#000" stroke-linecap="round" stroke-width=".44172"/><path d="m382.04 416.809c.294 2.43 1.457 7.819 3.754 9.939-.515.368-1.943 1.149-3.534 1.325" stroke="#000" stroke-linecap="round" stroke-width=".44172"/><path d="m386.024 431.171c-.957 1.03-3.798 2.473-7.509 0" stroke="#000" stroke-linecap="round" stroke-width=".44172"/><path d="m363.925 427.858c.662.442 1.634.884 1.987 2.65" stroke="#000" stroke-linecap="round" stroke-width=".44172"/><path d="m401.043 427.638c-.663.441-1.856 1.325-2.209 3.092" stroke="#000" stroke-linecap="round" stroke-width=".44172"/></g></g><path d="m368.695 489.804h3.055v1.196h-4.537v-9.035h1.482zm5.044-6.916c-.269 0-.494-.091-.676-.273s-.273-.407-.273-.676.091-.494.273-.676.407-.273.676-.273c.26 0 .481.091.663.273s.273.407.273.676-.091.494-.273.676-.403.273-.663.273zm.728.949v7.163h-1.482v-7.163zm1.456 3.549c0-.719.149-1.356.448-1.911s.706-.986 1.222-1.294c.516-.307 1.086-.461 1.71-.461.563 0 1.055.11 1.475.331s.756.497 1.008.826v-1.04h1.495v7.163h-1.495v-1.066c-.252.338-.594.62-1.027.845-.434.225-.928.338-1.482.338-.616 0-1.179-.158-1.69-.474-.512-.317-.917-.759-1.216-1.327-.299-.567-.448-1.211-.448-1.93zm5.863.026c0-.494-.102-.923-.306-1.287s-.47-.641-.799-.832c-.33-.191-.685-.286-1.066-.286-.382 0-.737.093-1.066.279-.33.187-.596.46-.8.819-.204.36-.305.787-.305 1.281s.101.927.305 1.3.472.656.806.852c.334.194.687.292 1.06.292.381 0 .736-.095 1.066-.286.329-.191.595-.47.799-.838.204-.369.306-.8.306-1.294zm12.116-3.692c.563 0 1.068.117 1.514.351s.797.581 1.053 1.04.384 1.014.384 1.664v4.225h-1.469v-4.004c0-.641-.161-1.133-.481-1.475-.321-.343-.759-.514-1.313-.514-.555 0-.995.171-1.32.514-.325.342-.487.834-.487 1.475v4.004h-1.469v-4.004c0-.641-.161-1.133-.481-1.475-.321-.343-.759-.514-1.313-.514-.555 0-.995.171-1.32.514-.325.342-.487.834-.487 1.475v4.004h-1.482v-7.163h1.482v.819c.242-.295.55-.524.923-.689.372-.165.771-.247 1.196-.247.572 0 1.083.121 1.534.364.45.243.797.594 1.04 1.053.216-.433.554-.778 1.014-1.033.459-.256.953-.384 1.482-.384z" fill="#383737"/><rect fill="#f2f2f2" height="96" rx="48" width="96" x="490" y="368"/><g mask="url(#l)"><g mask="url(#m)"><g fill="#ffd5be"><path d="m538.135 463.58h15.149v-5.84c0-.492-.399-.891-.892-.891h-28.96l-1.114 6.731z"/><path d="m555.101 452.839c-1.385-1.076-3.023-2.019-4.936-2.673-2.703-.925-4.55-2.495-5.783-4.233h-12.494c-1.233 1.738-3.08 3.308-5.783 4.233-1.503.514-2.836 1.206-4.01 2l4.01 1.787c6.015 2.896 27.401 2.45 28.996-1.114z"/><path d="m542.145 438.582h-4.01-4.01c.089 1.74-.379 4.735-2.237 7.351h12.494c-1.858-2.616-2.326-5.611-2.237-7.351z"/><path d="m561.317 463.58c-.586-1.918-2.701-8.009-6.216-10.741-1.595 3.564-22.981 4.01-28.996 1.114l-4.009-1.787c-4.116 2.787-6.271 9.334-6.906 11.414h7.128l1.114-6.731h28.96c.493 0 .891.399.891.891v5.84z"/></g><path d="m555.101 452.839c3.515 2.732 5.63 8.823 6.216 10.741h-8.034m1.818-10.741c-1.385-1.076-3.023-2.019-4.936-2.673-2.703-.925-4.55-2.495-5.783-4.233m10.719 6.906c-1.595 3.564-22.981 4.01-28.996 1.114l-4.009-1.787m0 0c-4.116 2.787-6.271 9.334-6.906 11.414h7.128m-.222-11.414c1.173-.794 2.507-1.486 4.009-2 2.703-.925 4.55-2.495 5.783-4.233m0 0c1.858-2.616 2.326-5.611 2.237-7.351h4.01 4.01c-.089 1.74.379 4.735 2.237 7.351m-12.494 0h12.494m8.901 17.647h-15.148-15.817m30.965 0v-5.84c0-.492-.398-.891-.891-.891h-28.96l-1.114 6.731" stroke="#000" stroke-width=".445542"/><path d="m538.135 463.584h15.149l-.003-5.844c0-.493-.399-.891-.891-.891h-28.96l-1.112 6.735z" fill="#d9d9d9"/><path d="m555.099 452.839c3.515 2.732 5.395 8.827 5.981 10.745h-7.797m1.816-10.745c-1.385-1.076-3.023-2.019-4.937-2.673-2.702-.925-4.549-2.495-5.783-4.233m10.72 6.906c-1.595 3.564-22.981 4.01-28.996 1.114l-4.01-1.787m0 0c-4.115 2.787-6.268 9.338-6.903 11.418h7.128m-.225-11.418c1.174-.794 2.507-1.486 4.01-2 2.703-.925 4.549-2.495 5.783-4.233m0 0c1.858-2.616 2.326-5.611 2.237-7.351h4.01 4.01c-.09 1.74.379 4.735 2.236 7.351m-12.493 0h12.493m8.904 17.651h-15.148-15.817m30.965 0-.002-5.844c0-.493-.399-.891-.891-.891h-28.96l-1.112 6.735" stroke="#000" stroke-width=".445542"/><path d="m561.315 463.584c-.586-1.918-2.7-8.013-6.216-10.745-1.595 3.564-22.981 4.01-28.995 1.114l-4.01-1.787c-4.115 2.787-6.778 9.338-7.414 11.418h7.637l1.113-6.735h28.961c.492 0 .891.399.891.891v5.844z" fill="#929292"/><path d="m555.099 452.839c3.516 2.732 5.63 8.827 6.216 10.745h-8.033m1.817-10.745c-1.384-1.076-3.023-2.019-4.936-2.673-2.703-.925-4.549-2.495-5.783-4.233m10.719 6.906c-1.595 3.564-22.981 4.01-28.995 1.114l-4.01-1.787m0 0c-4.115 2.787-6.778 9.338-7.414 11.418h7.637m-.223-11.418c1.174-.794 2.507-1.486 4.01-2 2.702-.925 4.549-2.495 5.783-4.233m0 0c1.857-2.616 2.326-5.611 2.236-7.351h4.01 4.01c-.089 1.74.379 4.735 2.237 7.351m-12.493 0h12.493m8.902 17.651h-15.149-15.816m30.965 0v-5.844c0-.492-.399-.891-.891-.891h-28.961l-1.113 6.735" stroke="#000" stroke-width=".445542"/><path clip-rule="evenodd" d="m551.281 450.592.185 6.666c.021.753-.583 1.374-1.336 1.374h-.853c-.739 0-1.337-.598-1.337-1.337v-8.134c.671.387 1.407.724 2.229 1.006.388.132.747.27 1.112.425zm-1.559 6.703c.369 0 .668-.299.668-.668s-.299-.669-.668-.669-.668.3-.668.669.299.668.668.668z" fill="#929292" fill-rule="evenodd"/><path d="m550.39 456.627c0 .369-.299.668-.668.668s-.668-.299-.668-.668.299-.669.668-.669.668.3.668.669z" fill="#929292"/><path d="m551.281 450.592.185 6.666c.021.753-.583 1.374-1.336 1.374h-.853c-.739 0-1.337-.598-1.337-1.337v-8.134c.671.387 1.407.724 2.229 1.006.388.132.747.27 1.112.425zm-1.559 6.703c.369 0 .668-.299.668-.668s-.299-.669-.668-.669-.668.3-.668.669.299.668.668.668z" stroke="#000" stroke-width=".445542"/><path d="m550.39 456.627c0 .369-.299.668-.668.668s-.668-.299-.668-.668.299-.669.668-.669.668.3.668.669z" stroke="#000" stroke-width=".445542"/><path clip-rule="evenodd" d="m528.782 450.592.185 6.666c.021.753-.583 1.374-1.336 1.374h-.854c-.738 0-1.336-.598-1.336-1.337v-8.134c.67.387 1.406.724 2.229 1.006.387.132.747.27 1.112.425zm-1.559 6.703c.369 0 .668-.299.668-.668s-.299-.669-.668-.669-.668.3-.668.669.299.668.668.668z" fill="#929292" fill-rule="evenodd"/><path d="m527.891 456.627c0 .369-.299.668-.668.668s-.669-.299-.669-.668.3-.669.669-.669.668.3.668.669z" fill="#929292"/><path d="m528.782 450.592.185 6.666c.021.753-.583 1.374-1.336 1.374h-.854c-.738 0-1.336-.598-1.336-1.337v-8.134c.67.387 1.406.724 2.229 1.006.387.132.747.27 1.112.425zm-1.559 6.703c.369 0 .668-.299.668-.668s-.299-.669-.668-.669-.668.3-.668.669.299.668.668.668z" stroke="#000" stroke-width=".445542"/><path d="m527.891 456.627c0 .369-.299.668-.668.668s-.669-.299-.669-.668.3-.669.669-.669.668.3.668.669z" stroke="#000" stroke-width=".445542"/><path d="m560.147 419.425c0 9.246-7.244 14.087-10.891 15.363-.017.006-.033.007-.051.005-5.788-.891-17.62-1.999-18.866.67-1.247 2.674-.817 5.718-.445 6.906 1.945 8.668-2.825 14.98-5.51 17.107-.037.029-.088.029-.128.003-9.077-5.81-4.918-13.094-1.601-16.12.055-.05.042-.14-.022-.18-7.035-4.376-3.88-9.514-1.315-11.637.056-.046.053-.132-.003-.176-7.004-5.567-6.12-18.121-4.792-23.74.002-.006.003-.013.003-.019.718-13.714 12.477-16.474 22.458-16.473 22.038.85 21.163 16.707 21.163 28.291z" fill="#614270"/><path d="m537.016 447.271c0 .614.499 1.114 1.113 1.114.615 0 1.114-.5 1.114-1.114 0-.615-.499-1.114-1.114-1.114-.614 0-1.113.499-1.113 1.114z" fill="#000"/><path d="m538.581 439.697c6.416 0 11.361-4.901 13.366-9.133 2.673 0 7.931-3.787 5.792-8.243-2.005-1.783-4.455 1.782-4.455 1.782s3.118-4.456 1.113-10.471c-4.603-2.747-14.212-9.98-15.816-16.93l-.225-.446-.391.446c-1.604 6.95-11.213 14.183-15.817 16.93-1.975 5.927 1.023 10.339 1.112 10.468-.079-.114-2.482-3.532-4.454-1.779-2.138 4.456 3.119 8.243 5.792 8.243 2.005 4.232 6.951 9.133 13.367 9.133z" fill="#ffd5be"/><path d="m523.26 424.1c-.079-.114-2.482-3.532-4.454-1.779-2.138 4.456 3.119 8.243 5.792 8.243 2.005 4.232 6.951 9.133 13.367 9.133h.616c6.416 0 11.361-4.901 13.366-9.133 2.673 0 7.931-3.787 5.792-8.243-2.005-1.783-4.455 1.782-4.455 1.782s3.118-4.456 1.113-10.471c-4.603-2.747-14.212-9.98-15.816-16.93l-.225-.446-.391.446c-1.604 6.95-11.213 14.183-15.817 16.93-1.975 5.927 1.023 10.339 1.112 10.468zm0 0c.001.002.002.003.002.003" stroke="#000" stroke-width=".445542"/><path d="m555.74 424.769c-.742.669-2.228 2.317-2.228 3.565" stroke="#000" stroke-linecap="round" stroke-width=".445542"/><path d="m520.537 424.769c.743.669 2.228 2.317 2.228 3.565" stroke="#000" stroke-linecap="round" stroke-width=".445542"/><path d="m541.927 428.11h-7.797c.372.52 1.693 1.559 4.01 1.559s3.49-1.039 3.787-1.559z" fill="#000"/><path d="m541.927 428.11h-7.797c.372.52 1.693 1.559 4.01 1.559s3.49-1.039 3.787-1.559z" stroke="#000" stroke-linecap="round" stroke-width=".445542"/><path d="m537.248 418.979v1.782c2.227 0 4.856 2.139 1.113 4.456" stroke="#000" stroke-linecap="round" stroke-width=".445542"/><path d="m545.038 419.2c0 .861.698 1.56 1.559 1.56s1.559-.699 1.559-1.56c0-.86-.698-1.559-1.559-1.559s-1.559.699-1.559 1.559z" fill="#000"/><path d="m528.111 419.2c0 .861.699 1.56 1.559 1.56.861 0 1.56-.699 1.56-1.56 0-.86-.699-1.559-1.56-1.559-.86 0-1.559.699-1.559 1.559z" fill="#000"/><path d="m544.832 414.101c2.206-.078 3.926.747 4.851 1.424.101.074.246-.044.179-.149-1.321-2.06-3.621-1.942-5.076-1.471-.12.039-.08.201.046.196z" fill="#000"/><path d="m544.832 414.101c2.206-.078 3.926.747 4.851 1.424.101.074.246-.044.179-.149-1.321-2.06-3.621-1.942-5.076-1.471-.12.039-.08.201.046.196z" stroke="#000" stroke-linecap="round" stroke-width=".445542"/><path d="m531.219 414.101c-2.206-.078-3.926.747-4.851 1.424-.101.074-.247-.044-.179-.149 1.321-2.06 3.621-1.942 5.076-1.471.12.039.08.201-.046.196z" fill="#000"/><path d="m531.219 414.101c-2.206-.078-3.926.747-4.851 1.424-.101.074-.247-.044-.179-.149 1.321-2.06 3.621-1.942 5.076-1.471.12.039.08.201-.046.196z" stroke="#000" stroke-linecap="round" stroke-width=".445542"/></g></g><path d="m531.741 489.154h-3.783l-.65 1.846h-1.547l3.237-9.048h1.716l3.237 9.048h-1.56zm-.416-1.209-1.469-4.199-1.482 4.199zm6.799 1.729 2.028-5.837h1.573l-2.73 7.163h-1.768l-2.717-7.163h1.586zm4.225-2.288c0-.719.149-1.356.448-1.911s.706-.986 1.222-1.294c.516-.307 1.086-.461 1.71-.461.563 0 1.055.11 1.475.331s.756.497 1.008.826v-1.04h1.495v7.163h-1.495v-1.066c-.252.338-.594.62-1.027.845-.434.225-.928.338-1.482.338-.616 0-1.179-.158-1.69-.474-.512-.317-.917-.759-1.216-1.327-.299-.567-.448-1.211-.448-1.93zm5.863.026c0-.494-.102-.923-.306-1.287s-.47-.641-.799-.832c-.33-.191-.685-.286-1.066-.286-.382 0-.737.093-1.066.279-.33.187-.596.46-.8.819-.204.36-.305.787-.305 1.281s.101.927.305 1.3.472.656.806.852c.334.194.687.292 1.06.292.381 0 .736-.095 1.066-.286.329-.191.595-.47.799-.838.204-.369.306-.8.306-1.294z" fill="#383737"/><rect fill="#f2f2f2" height="96" rx="48" width="96" x="646" y="368"/><g mask="url(#n)"><path d="m712.499 411.465c2.058 4.677.234 12.706-.935 16.136h-34.377c-1.436-1.435-2.045-5.256-2.252-8.189-.103-1.468-.887-2.887-1.241-4.315-1.224-4.935 2.732-15.7 7.701-16.495-.693-1.11-.744-2.888-.629-4.21.013-.141.313-.142.349-.006.209.799.545 1.654.748 2.111-.161-2.095.823-3.762 1.547-4.582.081-.091.213-.006.178.11-.584 1.928-.466 3.909-.322 4.706 2.433-4.677 6.159-4.755 7.718-4.209 1.403.857 5.004 2.619 8.185 2.806 2.868.169 5.572-1.425 6.875-2.483.096-.078.244.025.201.141l-1.229 3.278c1.196-.15 2.573-1.007 3.435-1.664.105-.08.262.053.198.168l-1.763 3.133c3.347.167 5.446-1.898 6.299-3.284.065-.107.242-.058.235.066-.232 4.091-3.166 5.566-4.663 5.79 1.728 0 4.121 1.862 5.336 3.006.085.08.011.218-.103.199-1.68-.275-2.926-.076-3.362.069 4.055 2.872 4.219 6.851 3.696 8.973-.031.126-.288.113-.348-.003-.323-.621-1.06-1.073-1.477-1.252z" fill="#253b5a"/><path d="m706.186 453.092c4.677.748 8.341 6.86 9.588 9.823h-43.498c1.247-2.963 4.911-9.075 9.588-9.823 5.847-.936 8.185-5.847 8.185-10.992h7.952c0 5.145 2.338 10.056 8.185 10.992z" fill="#ffdac6"/><path d="m706.186 453.092c4.677.748 8.341 6.86 9.588 9.823h-43.498c1.247-2.963 4.911-9.075 9.588-9.823 5.847-.936 8.185-5.847 8.185-10.992h7.952c0 5.145 2.338 10.056 8.185 10.992z" stroke="#000" stroke-width=".467723"/><path d="m706.186 453.092c4.677.749 8.341 6.86 9.588 9.822l-22.136 1.448-21.362-1.448c1.247-2.962 4.911-9.073 9.588-9.822.789-.126 1.514-.324 2.178-.586 1.564 1.756 5.165 3.861 10.217 3.861 5.051 0 8.492-1.99 10.056-3.746.573.202 1.21.366 1.871.471z" fill="#ff841b"/><path d="m706.186 453.092c4.677.749 8.341 6.86 9.588 9.822l-22.136 1.448-21.362-1.448c1.247-2.962 4.911-9.073 9.588-9.822.789-.126 1.514-.324 2.178-.586 1.564 1.756 5.165 3.861 10.217 3.861 5.051 0 8.492-1.99 10.056-3.746.573.202 1.21.366 1.871.471z" stroke="#000" stroke-width=".467723"/><path d="m707.121 434.617c-3.181 6.735-10.056 8.263-13.097 8.185-3.04.078-9.915-1.45-13.096-8.185-1.559-.078-5.145-1.293-5.145-5.612 0-3.742 1.637-3.274 3.04-2.105-2.057-13.471 1.793-19.177 3.976-20.346-.317 1.586.127 3.059.508 3.851.05.106.201.069.21-.048.118-1.543.851-3.527 1.298-4.542.038-.085.155-.091.206-.013 2.595 3.964 7.222 5.088 9.757 5.191.13.006.168-.193.052-.253-1.27-.658-2.606-2.006-3.417-2.958-.086-.1.044-.25.161-.191 3.06 1.531 8.326 1.327 11.279.944.133-.017.142-.257.017-.304-1.927-.729-3.545-3.052-4.168-4.25 10.289.375 10.757 14.266 10.056 23.386 1.325-1.247 3.508-2.104 3.508 1.637 0 4.32-3.586 5.535-5.145 5.613z" fill="#ffd5be"/><g stroke="#000" stroke-width=".467723"><path d="m707.121 434.617c-3.181 6.735-10.056 8.263-13.097 8.185-3.04.078-9.915-1.45-13.096-8.185-1.559-.078-5.145-1.293-5.145-5.612 0-3.742 1.637-3.274 3.04-2.105-2.057-13.471 1.793-19.177 3.976-20.346-.317 1.586.127 3.059.508 3.851.05.106.201.069.21-.048.118-1.543.851-3.527 1.298-4.542.038-.085.155-.091.206-.013 2.595 3.964 7.222 5.088 9.757 5.191.13.006.168-.193.052-.253-1.27-.658-2.606-2.006-3.417-2.958-.086-.1.044-.25.161-.191 3.06 1.531 8.326 1.327 11.279.944.133-.017.142-.257.017-.304-1.927-.729-3.545-3.052-4.168-4.25 10.289.375 10.757 14.266 10.056 23.386 1.325-1.247 3.508-2.104 3.508 1.637 0 4.32-3.586 5.535-5.145 5.613z"/><path d="m677.655 429.472c.389 0 1.356.561 2.104 2.806" stroke-linecap="round"/><path d="m710.395 429.472c-.39 0-1.357.561-2.105 2.806" stroke-linecap="round"/><path d="m697.533 432.513c-1.481 1.013-4.958 2.432-7.016 0" stroke-linecap="round"/></g><path d="m684.904 423.86c0 .774.629 1.403 1.403 1.403s1.403-.629 1.403-1.403-.629-1.403-1.403-1.403-1.403.629-1.403 1.403z" fill="#000"/><path d="m700.339 423.86c0 .774.629 1.403 1.403 1.403.775 0 1.403-.629 1.403-1.403s-.628-1.403-1.403-1.403c-.774 0-1.403.629-1.403 1.403z" fill="#000"/><path d="m683.533 417.395c1.22-.561 3.26-1.17 4.699-1.553.214-.057.234-.346.025-.422-2.868-1.048-4.5.217-5.254 1.526-.128.221.299.555.53.449z" fill="#000"/><path d="m704.75 417.395c-1.22-.561-3.261-1.17-4.699-1.553-.214-.057-.234-.346-.026-.422 2.869-1.048 4.5.217 5.255 1.526.128.221-.299.555-.53.449z" fill="#000"/><path d="m693.557 421.521c1.949 3.04 4.678 8.746 0 7.249" stroke="#000" stroke-linecap="round" stroke-width=".467723"/></g><path d="m677.789 483.161v2.652h3.12v1.209h-3.12v2.769h3.51v1.209h-4.992v-9.048h4.992v1.209zm7.059 1.885v3.965c0 .269.063.462.189.579.125.117.34.175.643.175h.91v1.235h-1.17c-.667 0-1.179-.156-1.534-.468s-.533-.819-.533-1.521v-3.965h-.845v-1.209h.845v-1.781h1.495v1.781h1.742v1.209zm6.812-1.326c.546 0 1.034.117 1.463.351s.767.581 1.014 1.04.37 1.014.37 1.664v4.225h-1.469v-4.004c0-.641-.16-1.133-.481-1.475-.321-.343-.758-.514-1.313-.514s-.994.171-1.319.514c-.325.342-.488.834-.488 1.475v4.004h-1.482v-9.62h1.482v3.289c.251-.303.57-.537.956-.702.385-.165.808-.247 1.267-.247zm4.238 3.666c0-.719.15-1.356.449-1.911s.706-.986 1.222-1.294c.515-.307 1.085-.461 1.709-.461.563 0 1.055.11 1.476.331.42.221.756.497 1.007.826v-1.04h1.495v7.163h-1.495v-1.066c-.251.338-.594.62-1.027.845s-.927.338-1.482.338c-.615 0-1.179-.158-1.69-.474-.511-.317-.916-.759-1.215-1.327-.299-.567-.449-1.211-.449-1.93zm5.863.026c0-.494-.102-.923-.305-1.287-.204-.364-.471-.641-.8-.832s-.685-.286-1.066-.286-.737.093-1.066.279c-.329.187-.596.46-.799.819-.204.36-.306.787-.306 1.281s.102.927.306 1.3c.203.373.472.656.806.852.333.194.686.292 1.059.292.381 0 .737-.095 1.066-.286s.596-.47.8-.838c.203-.369.305-.8.305-1.294zm7.059-3.692c.563 0 1.068.117 1.515.351.446.234.795.581 1.046 1.04s.377 1.014.377 1.664v4.225h-1.469v-4.004c0-.641-.16-1.133-.481-1.475-.321-.343-.758-.514-1.313-.514s-.994.171-1.319.514c-.325.342-.488.834-.488 1.475v4.004h-1.482v-7.163h1.482v.819c.243-.295.553-.524.93-.689s.777-.247 1.202-.247z" fill="#383737"/></svg>