<svg fill="none" height="448" viewBox="0 0 421 448" width="421" xmlns="http://www.w3.org/2000/svg"><path d="m200.821 9.58013 3.093 2.26467c.133.0986.289.1676.459.1992.168.0307.343.024.51-.0191l3.829-1.0136c.191-.0565.396-.0622.592-.0163.195.047.371.1418.508.2759.135.1342.227.2999.261.479.034.1792.01.3631-.067.5307l-1.441 3.3548c-.063.1437-.085.2999-.065.4531.02.1543.082.3009.18.4283l2.252 2.9658c.116.1466.184.32.196.5001.01.1801-.036.3602-.135.5173-.098.1571-.245.2855-.422.3707-.176.0853-.377.1226-.576.1092l-3.977-.1897c-.174-.0105-.346.0182-.504.0824-.158.0652-.296.1629-.401.2874l-2.43 2.8423c-.119.1456-.282.2587-.469.3238-.188.0661-.391.0814-.589.045-.197-.0354-.378-.1207-.524-.2471-.143-.1265-.244-.2865-.291-.4618l-1.052-3.4688c-.044-.1504-.129-.2893-.246-.4033-.118-.114-.264-.2002-.427-.251l-3.756-1.2041c-.19-.0565-.359-.16-.485-.2999-.126-.1398-.205-.3094-.229-.4885-.023-.1792.011-.3602.099-.5231.087-.1628.224-.2989.394-.3937l3.346-1.9514c.145-.0843.265-.1992.349-.3343.084-.136.13-.2874.134-.4435l.117-3.5915c-.009-.1868.045-.37166.154-.53164.11-.15998.268-.28643.458-.36498.189-.07855.399-.10442.606-.07376.204.0297.397.114.549.24141z" fill="#f99628"/><path d="m152.567 62.9681 2.383 1.879c.103.0815.225.1388.355.1644.134.0256.269.0211.397-.0166l2.935-.8355c.146-.0422.302-.0452.45-.0075.149.0392.283.1176.388.2277.102.1071.172.2428.202.3891.029.1463.013.2971-.043.4359l-1.105 2.7748c-.048.1206-.063.2488-.048.377.017.1282.066.2504.14.3544l1.736 2.4612c.086.1222.134.2654.143.4147.006.1478-.029.2956-.105.4253-.074.1282-.187.2337-.321.3046-.135.0709-.286.1041-.44.0935l-3.072-.1478c-.131-.012-.263.0091-.385.0604-.121.0527-.225.1342-.305.2367l-1.874 2.3571c-.096.1161-.22.2036-.363.2549-.142.0513-.295.0633-.443.0347-.15-.0272-.287-.0935-.4-.1915-.112-.0981-.195-.2262-.238-.368l-.722-2.8774c-.037-.1252-.104-.2413-.195-.3378-.089-.0965-.203-.1689-.327-.2142l-2.889-.9998c-.161-.0423-.305-.1297-.413-.2534-.11-.1236-.179-.2745-.196-.4358-.019-.1614.013-.3243.092-.4675.077-.1433.2-.2594.347-.3363l2.582-1.6106c.105-.0724.194-.169.255-.2805.066-.1101.104-.2338.114-.3605l.092-2.9829c.022-.1328.076-.2594.164-.3635.083-.1071.195-.19.322-.2428.128-.0512.268-.0724.405-.0558.139.0151.27.0619.382.1403z" fill="#f99628"/><path d="m152.567 62.9681 2.383 1.879c.103.0815.225.1388.355.1644.134.0256.269.0211.397-.0166l2.935-.8355c.146-.0422.302-.0452.45-.0075.149.0392.283.1176.388.2277.102.1071.172.2428.202.3891.029.1463.013.2971-.043.4359l-1.105 2.7748c-.048.1206-.063.2488-.048.377.017.1282.066.2504.14.3544l1.736 2.4612c.086.1222.134.2654.143.4147.006.1478-.029.2956-.105.4253-.074.1282-.187.2337-.321.3046-.135.0709-.286.1041-.44.0935l-3.072-.1478c-.131-.012-.263.0091-.385.0604-.121.0527-.225.1342-.305.2367l-1.874 2.3571c-.096.1161-.22.2036-.363.2549-.142.0513-.295.0633-.443.0347-.15-.0272-.287-.0935-.4-.1915-.112-.0981-.195-.2262-.238-.368l-.722-2.8774c-.037-.1252-.104-.2413-.195-.3378-.089-.0965-.203-.1689-.327-.2142l-2.889-.9998c-.161-.0423-.305-.1297-.413-.2534-.11-.1236-.179-.2745-.196-.4358-.019-.1614.013-.3243.092-.4675.077-.1433.2-.2594.347-.3363l2.582-1.6106c.105-.0724.194-.169.255-.2805.066-.1101.104-.2338.114-.3605l.092-2.9829c.022-.1328.076-.2594.164-.3635.083-.1071.195-.19.322-.2428.128-.0512.268-.0724.405-.0558.139.0151.27.0619.382.1403z" fill="#f99628"/><path d="m152.567 62.9681 2.383 1.879c.103.0815.225.1388.355.1644.134.0256.269.0211.397-.0166l2.935-.8355c.146-.0422.302-.0452.45-.0075.149.0392.283.1176.388.2277.102.1071.172.2428.202.3891.029.1463.013.2971-.043.4359l-1.105 2.7748c-.048.1206-.063.2488-.048.377.017.1282.066.2504.14.3544l1.736 2.4612c.086.1222.134.2654.143.4147.006.1478-.029.2956-.105.4253-.074.1282-.187.2337-.321.3046-.135.0709-.286.1041-.44.0935l-3.072-.1478c-.131-.012-.263.0091-.385.0604-.121.0527-.225.1342-.305.2367l-1.874 2.3571c-.096.1161-.22.2036-.363.2549-.142.0513-.295.0633-.443.0347-.15-.0272-.287-.0935-.4-.1915-.112-.0981-.195-.2262-.238-.368l-.722-2.8774c-.037-.1252-.104-.2413-.195-.3378-.089-.0965-.203-.1689-.327-.2142l-2.889-.9998c-.161-.0423-.305-.1297-.413-.2534-.11-.1236-.179-.2745-.196-.4358-.019-.1614.013-.3243.092-.4675.077-.1433.2-.2594.347-.3363l2.582-1.6106c.105-.0724.194-.169.255-.2805.066-.1101.104-.2338.114-.3605l.092-2.9829c.022-.1328.076-.2594.164-.3635.083-.1071.195-.19.322-.2428.128-.0512.268-.0724.405-.0558.139.0151.27.0619.382.1403z" fill="#f99628"/><path d="m152.567 62.9681 2.383 1.879c.103.0815.225.1388.355.1644.134.0256.269.0211.397-.0166l2.935-.8355c.146-.0422.302-.0452.45-.0075.149.0392.283.1176.388.2277.102.1071.172.2428.202.3891.029.1463.013.2971-.043.4359l-1.105 2.7748c-.048.1206-.063.2488-.048.377.017.1282.066.2504.14.3544l1.736 2.4612c.086.1222.134.2654.143.4147.006.1478-.029.2956-.105.4253-.074.1282-.187.2337-.321.3046-.135.0709-.286.1041-.44.0935l-3.072-.1478c-.131-.012-.263.0091-.385.0604-.121.0527-.225.1342-.305.2367l-1.874 2.3571c-.096.1161-.22.2036-.363.2549-.142.0513-.295.0633-.443.0347-.15-.0272-.287-.0935-.4-.1915-.112-.0981-.195-.2262-.238-.368l-.722-2.8774c-.037-.1252-.104-.2413-.195-.3378-.089-.0965-.203-.1689-.327-.2142l-2.889-.9998c-.161-.0423-.305-.1297-.413-.2534-.11-.1236-.179-.2745-.196-.4358-.019-.1614.013-.3243.092-.4675.077-.1433.2-.2594.347-.3363l2.582-1.6106c.105-.0724.194-.169.255-.2805.066-.1101.104-.2338.114-.3605l.092-2.9829c.022-.1328.076-.2594.164-.3635.083-.1071.195-.19.322-.2428.128-.0512.268-.0724.405-.0558.139.0151.27.0619.382.1403z" fill="#f99628"/><path d="m156.623.0815761 1.631 1.2728539c.071.05517.155.09399.245.11238.089.01634.183.01328.27-.01124l2.01-.576158c.101-.028604.207-.030644.308-.005105.102.025539.194.078654.265.152203.071.07458.12.16652.14.26561.019.09909.01.20125-.03.29523l-.757 1.88989c-.032.0807-.044.16753-.032.25436.011.08684.044.16958.095.24007l1.178 1.66719c.059.08275.093.17878.098.27787.005.10011-.019.19818-.07.28603-.05.08683-.124.15833-.215.20737-.09.04801-.192.07253-.297.06844l-2.104-.11237c-.09-.00306-.18.0143-.263.05108-.082.03678-.154.09194-.211.16243l-1.283 1.59568c-.064.07866-.149.13893-.246.17367-.098.03473-.203.04188-.305.02144-.101-.0194-.196-.06639-.271-.13382-.075-.06946-.129-.15732-.156-.25334l-.547-1.95016c-.022-.08274-.065-.15936-.126-.2227-.06-.06436-.137-.11237-.222-.14097l-1.977-.67628c-.099-.03371-.188-.09194-.254-.17162-.066-.07866-.107-.17367-.119-.27378-.013-.10114.006-.20228.05-.29319.047-.09194.119-.16753.207-.2227l1.809-1.09c.078-.04904.142-.11544.187-.19205.046-.07764.072-.16447.076-.25335l.053-2.02064c.013-.090919.048-.176733.104-.250285.056-.074574.129-.1338231.216-.1726424.085-.0398408.18-.05720984.275-.05210204.095.00510779.187.03269234.268.08070554z" fill="#f99628"/><path d="m420.693 428.503c0 .142-94.185.263-210.337.263s-210.356-.081-210.356-.263 94.166-.263 210.356-.263c116.191 0 210.337.122 210.337.263z" fill="#aebcc4"/><path d="m284.628 202.466c-.8-1.263 5.355-6.244 15.276-13.996l8.091-6.355c3.418-2.865 7.298-5.175 11.489-6.843 5.143-1.826 10.728-2.177 16.076-1.01 2.874.609 5.626 1.666 8.143 3.133 2.788 1.595 5.165 3.775 6.955 6.376.539.775.995 1.601 1.356 2.466.522 1.217.773 2.524.737 3.84-.064 1.708-.69 3.353-1.789 4.699-.649.782-1.453 1.429-2.367 1.909-.986.519-2.084.806-3.208.84-1.616.047-3.212-.352-4.598-1.152-.883-.496-1.368-.839-1.631-1.011s-.169-.102-.095-.071c.088.034.181.057.274.071.2 0 .189 0 0 0-.884.164-1.756.383-2.61.656-.672.192-1.493.345-2.23.475-.728.114-1.462.187-2.199.223-2.499.084-5.001-.069-7.47-.455-1.853-.291-3.722-.489-5.597-.596-1.459-.072-2.919.09-4.324.475-2.982.97-5.831 2.287-8.48 3.921-2.617 1.574-5.381 2.907-8.259 3.982-2.326.86-4.798 1.295-7.291 1.284-1.608.014-3.195-.354-4.619-1.073-.957-.535-1.315-1.01-1.199-1.384.263-.758 2.283-.575 5.261-1.607 1.828-.633 3.57-1.478 5.186-2.515 2.267-1.485 4.445-3.09 6.524-4.811 2.948-2.478 6.262-4.522 9.836-6.063 2.29-.887 4.72-1.397 7.187-1.505 2.278-.071 4.558-.002 6.827.201 1.864.188 3.74.212 5.609.071.409 0 .767-.101 1.146-.162.379-.06.653-.151 1.052-.283 1.313-.465 2.666-.827 4.04-1.08 1.157-.185 2.337-.185 3.494 0 .674.118 1.332.305 1.967.555.505.198.995.434 1.462.708.757.434 1.242.748 1.4.818v.1l-.263.537c-.218.417-.404.85-.558 1.293-.096.251-.166.513-.211.778-.013.094-.013.189 0 .283-.074-.242.085.314.063.264-.02-.051 0 0 0-.092-.09-.154-.212-.286-.357-.394-.11-.089-.235-.162-.369-.212h.189-.683c-.308.002-.615.036-.915.1-.268.053-.531.121-.79.202l-.242.072c-.106-.228-.237-.445-.389-.648-1.588-2.425-4.944-4.364-8.417-5.204-3.382-.838-6.937-.782-10.289.162-3.373 1.139-6.561 2.732-9.469 4.73-3.157 2.02-6.228 3.849-9.038 5.425-11.278 6.347-18.927 9.095-19.684 7.873z" fill="#cfbaba"/><path d="m338.401 394.559-1.525 22.149s22.947 7.307 23.084 11.43l-44.842.314.906-34.601z" fill="#848484"/><path d="m323.085 414.434c-.447.112-.833.384-1.081.758-.247.375-.34.826-.255 1.262.101.423.368.791.743 1.029.377.239.833.33 1.277.254.46-.121.858-.401 1.117-.788.259-.385.359-.85.283-1.303-.153-.43-.472-.786-.892-.994-.42-.206-.907-.249-1.36-.117" fill="#b1b1b1" opacity=".6"/><path d="m315.118 428.448.096-3.486 42.736.708c.516.225.968.567 1.319.996.349.429.586.933.691 1.47z" fill="#b1b1b1" opacity=".6"/><path d="m337.612 416.556c0 .212-1.115.272-2.208.92-1.095.645-1.706 1.504-1.906 1.425-.199-.082.169-1.294 1.515-2.022 1.347-.727 2.652-.565 2.599-.323z" fill="#3c3838"/><path d="m342.253 418.505c0 .213-.915.537-1.693 1.406-.779.868-1.052 1.799-1.232 1.788-.178-.01-.315-1.213.663-2.273.979-1.062 2.262-1.113 2.262-.921z" fill="#3c3838"/><path d="m344.75 423.995c-.2 0-.473-1.01.126-2.164.6-1.151 1.641-1.556 1.726-1.384.083.172-.569.778-1.052 1.718-.484.94-.579 1.808-.8 1.83z" fill="#3c3838"/><path d="m337.375 411.423c-.094.192-1.052-.132-2.326-.081-1.272.05-2.219.384-2.324.201-.106-.182.841-.909 2.304-.94 1.463-.029 2.43.657 2.346.82z" fill="#3c3838"/><path d="m337.596 406.946c-.74.17-1.514.146-2.241-.071-.805-.166-1.585-.424-2.324-.769-.439-.198-.861-.428-1.264-.686-.25-.139-.474-.317-.663-.525-.139-.154-.222-.347-.236-.551-.012-.201.045-.403.163-.572.115-.143.263-.259.434-.338.169-.079.355-.118.544-.116.286.006.569.051.842.13.476.127.938.295 1.378.506.748.347 1.434.809 2.03 1.365 1.052.95 1.337 1.748 1.263 1.788s-.589-.606-1.621-1.404c-.604-.457-1.265-.84-1.967-1.142-.412-.169-.838-.308-1.273-.415-.473-.131-.883-.151-1.052 0-.168.152-.052.111 0 .243.145.146.307.276.484.384.377.248.767.477 1.17.688.671.345 1.377.633 2.104.859.757.156 1.503.364 2.229.626z" fill="#3c3838"/><path d="m337.297 407.242c-.401-.627-.585-1.36-.526-2.092-.011-.801.121-1.598.389-2.355.154-.452.36-.885.611-1.293.133-.277.336-.514.593-.691.256-.177.556-.287.869-.32.199.009.39.075.552.186.162.109.289.263.363.44.115.255.186.522.211.798.075.479.075.967 0 1.446-.159.805-.52 1.561-1.052 2.202-.915 1.091-1.831 1.314-1.852 1.244-.021-.071.705-.496 1.409-1.546.411-.612.676-1.302.78-2.021.057-.417.057-.838 0-1.254-.063-.454-.222-.829-.411-.788s-.61.324-.8.687c-.234.366-.435.751-.599 1.152-.268.684-.436 1.404-.495 2.132-.126 1.284.116 2.051-.042 2.073z" fill="#3c3838"/><path d="m294.043 394.095-3.156 21.988s22.368 8.832 22.2 12.955l-44.746-2.689 3.399-34.448z" fill="#848484"/><path d="m277.325 412.899c-.443.083-.839.322-1.112.669-.271.346-.4.777-.361 1.21.071.428.309.814.669 1.078.359.262.809.384 1.256.338.475-.091.896-.348 1.182-.722.287-.375.417-.839.365-1.299-.124-.44-.42-.817-.825-1.052s-.89-.31-1.353-.211" fill="#b1b1b1" opacity=".6"/><path d="m268.374 426.347.337-3.476 43.136 4.042c.443.255.81.612 1.072 1.039.261.428.406.912.422 1.407z" fill="#b1b1b1" opacity=".6"/><path d="m291.672 415.94c0 .202-1.126.192-2.273.768-1.146.576-1.8 1.395-1.989 1.294-.189-.102.253-1.284 1.652-1.951s2.673-.303 2.61-.111z" fill="#3c3838"/><path d="m296.151 418.242c0 .212-.947.475-1.778 1.284-.831.808-1.147 1.737-1.357 1.708-.21-.031-.231-1.233.821-2.224s2.336-.97 2.314-.768z" fill="#3c3838"/><path d="m298.257 423.883c-.209 0-.4-1.011.274-2.143.673-1.133 1.747-1.455 1.821-1.274.073.182-.622.739-1.158 1.648-.537.909-.726 1.769-.937 1.769z" fill="#3c3838"/><path d="m291.805 410.846c-.117.182-1.053-.202-2.326-.242-1.273-.041-2.231.242-2.325.061-.095-.183.905-.849 2.356-.789 1.452.061 2.421.819 2.295.97z" fill="#3c3838"/><path d="m292.356 406.452c-.754.123-1.53.045-2.242-.222-1.258-.349-2.436-.926-3.471-1.698-.244-.151-.457-.342-.632-.566-.127-.16-.195-.357-.195-.561 0-.202.068-.399.195-.561.124-.134.279-.239.453-.306.173-.066.36-.093.546-.078.287.024.566.089.832.192.466.157.917.353 1.346.587.718.397 1.364.903 1.915 1.494.947 1.012 1.221 1.84 1.136 1.871-.083.029-.536-.638-1.515-1.506-.567-.497-1.201-.922-1.882-1.263-.399-.201-.814-.368-1.243-.505-.462-.162-.862-.212-.999 0-.136.211-.063.101 0 .252.137.156.293.295.464.415.353.272.721.526 1.104.758.668.398 1.371.735 2.104 1.01.711.183 1.406.414 2.084.687z" fill="#3c3838"/><path d="m292.04 406.673c-.366-.651-.499-1.4-.378-2.133.046-.793.23-1.577.547-2.312.197-.437.433-.856.705-1.254.152-.27.375-.5.646-.663.27-.164.581-.259.901-.277.196.025.381.103.534.225.153.12.267.281.329.462.095.26.144.533.146.809.028.485-.021.974-.146 1.444-.207.79-.611 1.518-1.18 2.123-.989 1.01-1.924 1.192-1.935 1.122-.01-.072.737-.446 1.515-1.446.451-.577.764-1.243.915-1.95.091-.408.123-.825.095-1.243 0-.465-.168-.849-.347-.818-.178.03-.632.283-.852.626-.261.349-.487.721-.674 1.112-.328.665-.551 1.373-.662 2.102-.19 1.243-.042 2.051-.159 2.071z" fill="#3c3838"/><path d="m342.83 208.196s12.572 21.009 12.572 50.204c0 12.934-12.625 142.422-12.625 142.422l-31.152.071 1.693-66.19 3.977-126.315z" fill="#727171"/><path d="m289.058 207.601c-.029.047-.064.092-.105.132-13.878 17.38-19.033 38.743-18.086 59.479l3.588 45.271-6.081 83.63 34.246 4.781 8.532-77.882s14.257-84.136 14.257-86.44v-28.375s-31.826-6.427-36.351-.596z" fill="#727171"/><path d="m329.732 119.009c.937.161 9.869 3.769 13.93 5.417 1.287.518 2.337 1.465 2.956 2.667l19.99 38.652-15.476 10.307s-4.335 30.671-8.301 32.196c-1.483.566-49.239 0-49.239 0s-5.827 2.02-7.922 0c-1.61-1.536-.978-4.518-.978-4.518v-63.006l-2.904-17.349s27.776-7.783 47.944-4.366z" fill="#eee"/><path d="m292.364 136.744.862 31.326-27.807 2.556c0-.172-3.008-40.623 16.35-47.313z" fill="#eee"/><path d="m349.981 170.627c-.158-1.011-.337-2.193-.641-4.103-.422-2.829-.969-6.497-1.569-10.55-.599-4.051-1.136-7.72-1.556-10.548-.179-1.255-.326-2.325-.453-3.205-.081-.389-.113-.786-.095-1.183.156.368.264.751.326 1.142.169.749.39 1.84.632 3.183.505 2.689 1.115 6.409 1.726 10.531.609 4.123 1.052 7.872 1.398 10.58.158 1.365.263 2.456.317 3.224v.878.142s0 .091-.096.051v-.051c0-.061 0-.081.011-.091z" fill="#3c3838"/><path d="m265.423 170.635c.65-.147 1.311-.245 1.978-.294l5.429-.586c4.586-.475 10.93-1.082 17.938-1.728l2.43-.223-.263.284c-.158-6.215-.274-11.752-.337-15.725 0-1.919 0-3.496 0-4.688-.025-.573-.007-1.148.053-1.718.106.564.158 1.135.158 1.708.052 1.192.126 2.77.22 4.689.158 3.982.348 9.51.517 15.724v.252h-.274l-2.431.223c-7.007.646-13.351 1.192-17.948 1.566l-5.44.414c-.673.083-1.352.117-2.03.102z" fill="#3c3838"/><path d="m336.155 166.795 3.324-8.084c.167-.405.457-.751.832-.992.377-.242.819-.368 1.273-.363h15.781c.252.002.5.062.724.172.224.112.416.274.562.471.147.197.241.426.277.665.037.24.013.485-.07.713l-10.141 26.426c-.06.152-.165.285-.305.379-.139.094-.304.144-.474.146h-18.727c-.135-.001-.268-.034-.387-.094-.12-.061-.222-.149-.296-.256-.076-.109-.124-.232-.138-.361-.015-.129.003-.258.052-.38z" fill="#3c3838"/><path d="m356.395 191.442 1.504-17.684-1.504-7.751-2.483 6.447v2.586c-.905-.23-9.396-7.142-11.678-5.648-2.284 1.496-8.113 9.651-8.113 9.651s10.269 9.62 11.91 10.347c0 0-1.872 7.075-2.451 9.711-.579 2.638-1.157 10.106 2.451 11.308 3.609 1.202 13.257-7.073 11.899-12.318-.957-3.466-1.535-6.649-1.535-6.649z" fill="#ffbe9d"/><path d="m289.947 168.675.905 10.349 25.913-9.094 11.573-5.124 5.051 1.213s15.865 1.011 16.013 1.97c.146.96.863 1.799 0 1.941-.863.141-13.415.697-13.415.697s13.53.828 13.835 1.798c.306.97-.137 2.496-.852 2.496h-14.729s13.845.829 13.992 1.384c.148.556 1.158 1.527-.147 1.94-1.305.415-13.993.829-13.993.829l11.952 2.032s.432 1.799-.579 1.799c-1.01 0-27.112 1.656-27.112 1.656s-30.585 18.776-36.361 20.141c-5.775 1.363-10.815-5.053-11.573-9.591-1.052-6.841-2.104-24.717-2.104-24.717z" fill="#ffbe9d"/><path d="m318.346 184.598c.174-.031.35-.053.526-.06l1.558-.123 5.986-.423 9.469-.627 5.892-.384 3.219-.211c.508.034 1.013-.091 1.442-.355.252-.252-.137-.798-.516-1.122l.105.052-11.983-2.021c-.032-.005-.062-.016-.089-.033-.029-.016-.052-.038-.071-.062-.018-.027-.031-.056-.038-.086-.008-.031-.008-.062-.002-.093.011-.052.038-.099.08-.135.043-.034.096-.055.151-.057l7.102-.303 3.693-.212 1.883-.151c.611-.082 1.315-.082 1.652-.406.337-.321.157-1.01-.221-1.202-.283-.065-.572-.113-.863-.141l-.978-.111-3.956-.394-8.175-.728c-.075-.01-.143-.047-.192-.102-.049-.056-.074-.127-.071-.2.006-.069.038-.133.091-.181.052-.046.121-.072.193-.072h14.646c.189 0 .42-.233.567-.516.172-.257.237-.566.183-.868-.055-.301-.224-.571-.477-.759-.506-.157-1.028-.264-1.557-.323l-1.683-.233-3.357-.384-6.618-.657c-.067-.012-.127-.047-.172-.097-.042-.05-.066-.113-.066-.18 0-.066.024-.129.066-.18.045-.05.105-.085.172-.097l8.543-.396 4.145-.221c.296-.001.591-.043.874-.122.094-.07.164-.164.206-.272.04-.106.05-.221.026-.335-.042-.262-.175-.505-.38-.686-.238-.159-.51-.265-.798-.303-2.599-.515-5.261-.758-7.776-1.011-2.514-.252-5.029-.495-7.439-.707l-5.049-1.233h.157l-11.573 5.053-19.001 6.567-5.176 1.77-1.347.444-.462.132c.138-.082.287-.146.441-.192l1.336-.497 5.135-1.859 18.937-6.749 11.521-5.154c.051-.018.108-.018.158 0l5.06 1.213c2.421.202 4.903.424 7.46.686 2.557.264 5.155.506 7.838 1.011.383.055.745.202 1.052.425.308.261.506.62.558 1.011.039.211.014.43-.07.63-.082.199-.222.374-.404.501-.362.134-.747.203-1.136.202l-4.156.233-8.543.403v-.555l6.629.656 3.366.384 1.695.233c.605.058 1.199.192 1.767.405.205.116.379.276.51.467s.216.407.247.634c.036.426-.044.855-.231 1.243-.099.191-.226.368-.379.525-.092.09-.199.166-.316.222-.121.064-.26.091-.4.081h-14.75v-.556l8.186.748 3.966.404.989.112c.357.03.709.099 1.052.202.174.102.322.24.437.403.114.161.191.345.226.537.049.193.045.393-.01.584s-.161.367-.305.507c-.294.249-.662.401-1.052.434-.328.051-.654.092-.969.111-.642.072-1.263.112-1.893.152l-3.714.203-7.102.272v-.464l11.972 2.101h.095c.233.202.432.437.59.697.106.148.164.326.164.506s-.058.356-.164.505c-.496.355-1.109.526-1.726.486l-3.219.192-5.903.333-9.469.535-5.986.314-1.568.06z" fill="#3c3838"/><path d="m282.626 190.775c-.078-.728-.014-1.465.189-2.173.371-1.746 1.085-3.411 2.104-4.9 1.039-1.473 2.374-2.734 3.925-3.709.607-.455 1.3-.798 2.041-1.011.136.173-3.156 1.628-5.482 4.993-.955 1.443-1.664 3.022-2.104 4.679-.162.724-.387 1.434-.673 2.121z" fill="#3c3838"/><path d="m349.23 164.057c.129.237.181.504.149.77-.033.266-.147.515-.329.716-.183.202-.426.345-.693.413-.27.067-.554.054-.816-.038-.261-.09-.488-.254-.65-.472-.162-.216-.252-.476-.259-.742-.006-.267.072-.529.223-.753.153-.223.372-.398.628-.499.156-.073.325-.113.498-.122.173-.007.346.017.508.074.163.056.311.144.438.255.127.112.23.248.303.398z" fill="#6f6f6f"/><path d="m297.828 75.6448 8.544-16.7546c-2.652-1.6161-3.293-5.3652-1.863-8.0836.796-1.3055 1.895-2.4159 3.211-3.2465 1.315-.8315 2.812-1.3597 4.375-1.5435 2.253-.331 4.555-.1441 6.718.5455 2.164.6875 4.126 1.8592 5.728 3.415 1.705 1.6887 3.094 3.9014 5.408 4.6686 2.041.6885 4.293.0715 6.429.334 1.427.2452 2.78.7948 3.957 1.61s2.147 1.8735 2.839 3.0984c1.372 2.4589 2.195 5.1629 2.42 7.9436.316 2.5263.516 5.305 2.346 7.154 1.831 1.85 4.597 2.1831 6.818 3.4672 2.034 1.2892 3.465 3.2914 3.984 5.5808.519 2.2872.085 4.6807-1.207 6.6656-.884 1.2228-2.104 2.3547-2.24 3.8401-.137 1.4853.82 2.5671 1.251 3.8706.22.8377.252 1.7101.092 2.562-.16.85-.506 1.657-1.017 2.369-.512.709-1.175 1.308-1.946 1.752-.771.445-1.633.726-2.526.826-1.841.101-3.809-.588-5.46.201-1.652.788-2.241 2.687-3.293 4.123-1.073 1.397-2.614 2.395-4.363 2.829-1.749.436-3.601.279-5.243-.445-1.347-.635-2.63-1.687-4.135-1.585-1.504.1-2.683 1.324-4.156 1.596-1.936.364-3.766-1.011-4.913-2.546-1.146-1.537-1.957-3.336-3.43-4.598-1.925-1.648-4.629-2.022-7.059-2.86-2.696-.899-5.16-2.341-7.227-4.2311-2.067-1.8899-3.688-4.1833-4.756-6.7239-1.067-2.5416-1.556-5.2733-1.432-8.0121.122-2.7368.855-5.4194 2.146-7.8629z" fill="#3c3838"/><path d="m299.431 119.222-2.809-49.638c-.055-1.0532.306-2.0881 1.009-2.9002.703-.8101 1.699-1.3362 2.789-1.4751l23.093-6.2857c7.439-1.0103 12.625 7.721 13.331 14.8852.767 7.9732 1.367 17.724.557 23.7073-1.631 12.0245-11.141 13.8635-11.141 13.8635s.241 10.793.315 15.158l-.832 14.986z" fill="#ffbe9d"/><path d="m332.699 83.9937c.015.3984-.132.7876-.413 1.0839-.278.2962-.665.476-1.081.5015-.203.0235-.408.0051-.603-.05-.197-.0552-.38-.1471-.537-.2718-.158-.1246-.288-.2788-.383-.4515-.096-.1747-.154-.3657-.17-.5598-.016-.4004.132-.7897.41-1.089.28-.2962.668-.4801 1.083-.5077.204-.0214.41-.0031.607.0541.195.0562.377.1502.535.2759.158.1246.288.2789.383.4525.094.1747.152.3657.169.5619z" fill="#3c3838"/><path d="m334.792 78.9497c-.19.2022-1.431-.6273-3.157-.5772-1.725.0521-2.956.9204-3.156.7192-.2-.2033.105-.4556.642-.85.727-.521 1.608-.807 2.514-.8182.895-.0307 1.775.2145 2.515.6967.547.3739.736.7386.642.8295z" fill="#3c3838"/><path d="m317.206 84.4195c.015.3994-.135.7907-.415 1.0869-.282.2963-.673.475-1.089.4995-.202.0205-.407.0021-.601-.0541-.196-.0562-.376-.1491-.534-.2727-.157-.1236-.286-.2769-.38-.4506-.094-.1726-.153-.3626-.169-.5567-.017-.4005.129-.7917.409-1.0921.279-.2972.668-.4791 1.086-.5046.202-.0204.407 0 .603.0572.195.0572.378.1502.535.2758.157.1247.288.2789.382.4526.096.1726.155.3626.173.5588z" fill="#3c3838"/><path d="m317.902 79.7197c-.2.2114-1.432-.617-3.157-.566-1.726.0501-2.956.9092-3.156.707-.2-.2013.094-.4434.631-.849.731-.5148 1.609-.7998 2.514-.8182.896-.0276 1.776.2216 2.515.7079.547.3739.747.7274.653.8183z" fill="#3c3838"/><path d="m324.494 91.8036c.902-.2963 1.839-.4822 2.789-.5547.43-.0613.852-.1522.915-.4454.022-.4372-.095-.8714-.337-1.2433l-1.389-3.1719c-1.936-4.5275-3.357-8.2562-3.157-8.3277.2-.0695 1.915 3.5366 3.862 8.0846.463 1.1216.915 2.182 1.336 3.2036.291.5005.389 1.0849.274 1.6467-.056.1533-.15.2891-.272.4015-.123.1103-.272.1921-.434.236-.239.0684-.487.1103-.735.1205-.946.1328-1.902.1502-2.852.0501z" fill="#3c3838"/><path d="m326.263 111.378c-5.87.247-11.698-1.074-16.834-3.819 0 0 4.304 8.084 16.739 6.65z" fill="#eb996e"/><path d="m324.357 95.7468c-.401-.5374-.933-.9725-1.549-1.2668-.618-.2952-1.299-.4392-1.987-.4208-.448.0194-.885.143-1.273.3596-.388.2165-.716.5189-.957.8836-.238.4137-.352.8826-.33 1.3556.022.472.18.9296.456 1.3219.323.4015.765.7029 1.268.8612.502.1583 1.044.1686 1.551.0286.948-.3289 1.799-.8693 2.484-1.5763.225-.1695.405-.3882.526-.6374.063-.1359.087-.284.07-.4321-.017-.1472-.074-.2871-.165-.4066" fill="#ffbe9d"/><path d="m318.459 72.8981c-.157.4557-1.883.283-3.893.5762s-3.629.8591-3.914.4648c-.126-.192.148-.616.789-1.0716.864-.5506 1.852-.8969 2.884-1.0103 1.027-.142 2.076-.0511 3.061.2635.758.2217 1.136.566 1.073.7774z" fill="#3c3838"/><path d="m334.025 73.2823c-.294.3841-1.493 0-2.914 0-1.42 0-2.63.3341-2.913-.0602-.137-.1819.052-.566.567-.9296.688-.4597 1.51-.6998 2.346-.6876.84-.0051 1.659.2391 2.347.6978.515.4147.695.7876.567.9796z" fill="#3c3838"/><path d="m345.254 71.2912c-.515-1.8276-1.676-3.4273-3.282-4.5255-.952-.473-1.879-.993-2.778-1.5569-1.799-1.3944-2.22-3.8196-3.335-5.7697-.729-1.2565-1.762-2.3282-3.011-3.125-1.247-.7958-2.674-1.2943-4.164-1.4526-2.462-.2421-5.009.475-7.417-.1114-1.778-.4352-3.336-1.5364-5.146-1.8694-3.503-.6365-6.775 1.7785-9.321 4.1935 0 2.4149 1.999 4.0423 3.924 5.5777.974.7702 2.107 1.328 3.327 1.6375 1.218.3085 2.491.3606 3.732.1512 1.915-.3432 4.019-1.2728 5.682-.2921 1.662.9796 1.82 3.5662 3.366 4.8605 2.221 1.8388 5.735.1104 8.543.9092 2.178.616 3.536 2.6173 4.977 4.2844 1.441 1.6662 3.599 3.2741 5.766 2.6571-.06-1.8807-.349-3.7501-.863-5.5685z" fill="#3c3838"/><path d="m318.891 61.0848c-1.578-.4239-4.798-1.4036-5.64-2.7184-.857-1.4066-2.085-2.5733-3.561-3.3793-1.477-.806-3.147-1.2217-4.845-1.2074-1.715.1317-3.339.7937-4.629 1.8857-1.29 1.0941-2.176 2.559-2.525 4.1762-2.052.0735-4.046.6732-5.773 1.7407-1.728 1.0676-3.124 2.559-4.044 4.3222-.232.4587-.44.9276-.62 1.4057-.621 1.0583-.995 2.2341-1.095 3.4457-.1 1.2106.076 2.4283.517 3.5673.546 1.3638 1.472 2.8798.735 4.1629-.735 1.283-2.619 1.3443-4.082 1.8285-1.266.4608-2.324 1.3322-2.99 2.464-.664 1.1319-.894 2.4528-.65 3.7308.342.8714.5 1.7989.463 2.7296-.362.9061-.946 1.7131-1.704 2.3537-.807.9265-1.345 2.039-1.564 3.2271-.219 1.188-.11 2.4108.316 3.5468.425 1.135 1.153 2.1434 2.111 2.9234.955.783 2.109 1.31 3.345 1.53 1.138.039 2.258.284 3.303.718 1.106.656 1.589 1.939 2.378 2.949.773.952 1.828 1.656 3.028 2.018 1.199.36 2.483.361 3.684.004.476-.158.93-.375 1.348-.647.454.579 1.056 1.037 1.746 1.331.69.292 1.447.413 2.199.346l-.463-25.2617c.145.3085.363.5792.64.7886.276.2104.601.3514.948.4137 4.208.9092 4.84-7.4379 3.893-9.7017 1.583-1.2514 2.997-2.6867 4.209-4.2742 1.347-2.5335 2.012-5.3509 1.935-8.1949 1.6.0296 8.07-2.0319 7.387-2.224z" fill="#3c3838"/><path d="m301.079 86.2672c-.137-2.5661-3.399-3.1116-5.714-1.8286-1.273.708-2.251 2.1331-2.104 4.8514.316 7.2654 7.849 5.4654 7.849 5.2539 0-.2125.126-5.2651-.031-8.2767z" fill="#ffbe9d"/><path d="m298.645 91.8856s-.127.0909-.347.2022c-.307.1369-.656.1604-.979.0613-.5-.2799-.915-.6814-1.202-1.1635-.286-.4822-.433-1.0298-.428-1.5855-.048-.6231.052-1.2494.295-1.8286.057-.2309.174-.4444.339-.6211.166-.1767.375-.3106.607-.3902.149-.0481.31-.0409.456.0163.144.0572.263.1624.333.2973.116.2012.074.3432.116.3534.042.0103.157-.1215.084-.4249-.054-.1778-.168-.3351-.326-.4444-.215-.141-.48-.1961-.737-.1512-.308.0705-.592.2176-.823.4239-.233.2074-.406.4689-.503.758-.289.6355-.415 1.3291-.367 2.0207.104 1.4659.947 2.8001 2.051 3.032.207.05.421.0531.629.0112.208-.0429.404-.1287.571-.2533.231-.1318.263-.3034.231-.3136z" fill="#848484"/><path d="m319.047 95.8672c2.396.0878 4.764.5179 7.028 1.2729-2.398-.0705-4.768-.5006-7.028-1.2729z" fill="#3c3838"/><path d="m320.17 247.012c.147 0-3.746 34.357-8.691 76.799-4.944 42.442-9.089 76.729-9.237 76.709-.147-.02 3.734-34.358 8.69-76.799 4.956-42.442 9.09-76.719 9.238-76.709z" fill="#848484"/><path d="m302.64 211.421c-.073.333-.202.652-.379.949-.165.369-.359.728-.579 1.071-.263.464-.554.912-.873 1.344-.817 1.133-1.759 2.181-2.809 3.122-1.28 1.161-2.691 2.176-4.209 3.031-1.54.816-3.17 1.463-4.86 1.931-1.374.368-2.785.595-4.209.677-.55.035-1.101.035-1.652 0-.415.008-.83-.02-1.241-.081-.358-.011-.712-.072-1.052-.182 0-.101 1.504.091 3.903-.121 1.398-.138 2.778-.397 4.125-.777 3.311-.935 6.359-2.58 8.911-4.811 1.043-.92 1.991-1.935 2.83-3.032 1.389-1.869 1.999-3.203 2.094-3.121z" fill="#848484"/><path d="m347.98 224.841s-.295.001-.8-.11c-.719-.163-1.423-.383-2.104-.658-4.563-1.822-8.194-5.296-10.11-9.67-.295-.654-.527-1.329-.695-2.02-.116-.487-.168-.758-.126-.769.041-.011.389 1.011 1.178 2.628 2.054 4.17 5.56 7.522 9.91 9.478 1.695.748 2.821 1.031 2.747 1.121z" fill="#848484"/><path d="m323.64 209.549c.078.431.106.868.085 1.303v3.568c-.053 3.032-.211 7.164-.557 11.741-.463 6.317-1.179 11.784-1.621 14.491v.072h-.115c-.703.025-1.408-.001-2.104-.081.693-.114 1.397-.172 2.104-.172l-.127.112c.263-2.729.863-8.196 1.326-14.492.346-4.578.568-8.72.715-11.721.074-1.426.126-2.608.179-3.559-.004-.421.034-.844.115-1.262z" fill="#848484"/><path d="m80.2614 395.519-2.105 26.717 4.629 21.605c.081.368.082.748.001 1.117-.08.369-.238.717-.464 1.024-.225.307-.515.566-.85.762-.334.195-.708.321-1.096.371-.451.063-.911.019-1.342-.124-.43-.144-.818-.386-1.131-.704-4.029-4.143-18.369-19.615-18.379-21.049 0-2.273.167-28.649.167-28.649z" fill="#848484"/><path d="m80.3774 447.113-20.8851-24.008-.063 1.132c-.046.977.259 1.939.863 2.727 1.663 2.092 6.313 7.763 17.528 19.312.32.332.722.583 1.168.73.446.146.9241.184 1.3891.107z" fill="#3c3838"/><path d="m65.6853 414.768c.328.261.544.628.61 1.031.066.404-.024.817-.252 1.161-.26.325-.637.542-1.059.608-.419.066-.851-.024-1.203-.254-.349-.275-.579-.666-.645-1.095-.067-.43.035-.868.288-1.228.304-.314.725-.501 1.169-.521.447-.022.884.125 1.218.408" fill="#b1b1b1" opacity=".6"/><path d="m74.6661 435.099c.711-.808 1.579-1.474 2.557-1.96 1.043-.332 2.142-.476 3.241-.425 0-.061-.317-.283-.958-.404-.853-.143-1.732-.042-2.525.293-.796.324-1.48.86-1.968 1.546-.358.525-.421.92-.347.95z" fill="#b1b1b1"/><path d="m76.4448 438.787c.823-.385 1.67-.722 2.536-1.01.907-.118 1.82-.183 2.736-.192.094-.132-1.221-.768-2.884-.374-1.662.394-2.525 1.496-2.388 1.576z" fill="#b1b1b1"/><path d="m71.2773 430.31c.126.14 1.568-1.131 3.798-1.829 1.381-.343 2.789-.579 4.208-.708-1.43-.453-2.983-.398-4.376.151-1.466.359-2.753 1.203-3.63 2.386z" fill="#b1b1b1"/><path d="m71.1699 422.133c.063.171 1.631-.375 3.64-.334s3.567.576 3.641.414c-1.095-.64-2.348-.985-3.629-.999-1.281-.015-2.543.303-3.652.919z" fill="#b1b1b1"/><path d="m71.5933 414.283c1.23-.323 2.502-.476 3.778-.456 1.261.202 2.4899.565 3.6499 1.082 0-.05-.242-.404-.863-.788-.824-.495-1.7599-.797-2.7289-.879-.969-.083-1.944.056-2.847.404-.684.272-1.031.576-.989.637z" fill="#b1b1b1"/><path d="m75.4135 412.333c.104-.327.137-.671.095-1.011-.045-.935-.281-1.852-.695-2.699-.247-.641-.705-1.187-1.304-1.555-.212-.106-.452-.144-.688-.112-.236.034-.455.136-.627.293-.317.319-.497.742-.505 1.182.013.903.355 1.772.963 2.46.609.687 1.447 1.151 2.372 1.31.917.137 1.858.01 2.701-.366.842-.376 1.551-.984 2.033-1.746.118-.194.192-.409.217-.631.026-.224.001-.449-.069-.662-.098-.208-.262-.381-.467-.495-.207-.115-.445-.165-.681-.141-.691.106-1.342.389-1.882.818-.794.551-1.478 1.237-2.021 2.021-.226.266-.391.577-.483.909.777-.975 1.703-1.834 2.745-2.546.489-.352 1.059-.584 1.663-.677.128-.017.259.008.371.07.112.061.199.157.25.273.038.144.044.293.018.439-.025.146-.0811.285-.1661.41-.44.642-1.0619 1.151-1.7919 1.466-.731.315-1.539.424-2.332.312-.78-.134-1.49-.52-2.012-1.093-.521-.573-.826-1.298-.86-2.059-.003-.311.109-.611.316-.849.092-.087.212-.143.34-.16.128-.02.259.002.375.059.511.308.909.765 1.136 1.303.535 1.095.869 2.272.989 3.477z" fill="#b1b1b1"/><path d="m129.141 393.315-.905 22.14s23.147 8.318 23.356 12.42l-44.735-.141-.063-34.541z" fill="#848484"/><path d="m114.411 413.574c-.433.126-.804.403-1.038.776-.235.372-.319.816-.234 1.245.114.427.4.796.792 1.023.393.228.864.301 1.312.2.457-.133.847-.423 1.093-.815.247-.393.333-.858.243-1.308-.172-.419-.506-.757-.931-.945s-.909-.212-1.352-.065" fill="#3c3838"/><path d="m106.868 427.761.136-3.486 42.842 1.446s1.989.838 1.757 2.182z" fill="#3c3838"/><path d="m128.97 415.264c0 .211-1.104.303-2.177 1.01-1.074.708-1.663 1.557-1.863 1.475-.2-.081.137-1.293 1.452-2.091 1.315-.799 2.63-.586 2.588-.394z" fill="#b1b1b1"/><path d="m133.656 417.143c.052.203-.895.558-1.642 1.447s-.968 1.817-1.178 1.807c-.211-.009-.358-1.192.589-2.274.947-1.08 2.231-1.181 2.231-.98z" fill="#b1b1b1"/><path d="m136.302 422.548c-.2 0-.504-1.01.063-2.152.569-1.142 1.589-1.607 1.673-1.425.085.183-.536.788-.989 1.739-.452.95-.547 1.819-.747 1.838z" fill="#b1b1b1"/><path d="m128.596 410.201c-.095.192-1.052-.103-2.335 0-1.284.1-2.199.453-2.305.271-.105-.181.81-.929 2.262-1.01s2.483.576 2.378.739z" fill="#b1b1b1"/><path d="m144.279 211.735s5.429 16.097 4.881 31.508c-.221 5.961-12.457 167.444-12.457 167.444l-31.048 1.263 1.052-154.823-2.282.576s-8.8691 65.684-9.6581 76.365c-.705 9.641-11.216 82.973-11.216 82.973l-28.754-.927 4.208-92.485 5.681-88.814 2.463-25.88z" fill="#727171"/><path d="m101.615 241.556c.382.236.786.432 1.21.585 1.128.494 2.322.834 3.547 1.012.86.118 1.738.087 2.588-.091 1.006-.195 1.932-.669 2.661-1.365.758-.799 1.283-1.775 1.526-2.829.284-1.062.431-2.163.61-3.284.705-4.498 1.136-8.589 1.358-11.561.115-1.485.178-2.688.209-3.528.044-.429.044-.862 0-1.293-.121.419-.193.85-.209 1.284-.117.94-.243 2.112-.4 3.496-.327 2.951-.821 7.074-1.526 11.511-.358 2.222-.568 4.466-1.936 5.84-.644.564-1.411.983-2.245 1.228-.832.244-1.711.309-2.573.187-1.199-.146-2.375-.428-3.504-.84-.422-.166-.863-.286-1.316-.352z" fill="#848484"/><path d="m109.154 220.253s-.189-.132-.589-.141c-.568.008-1.116.201-1.558.545-.332.257-.599.583-.782.954-.182.372-.275.778-.27 1.188.059.513.271.998.61 1.4.338.399.789.697 1.299.859.511.161 1.059.175 1.578.045.52-.129.989-.399 1.353-.778.252-.336.422-.722.497-1.13.075-.407.052-.826-.065-1.223-.14-.53-.463-.996-.915-1.324-.326-.223-.548-.244-.558-.223.523.424.891.996 1.052 1.636.071.333.066.679-.012 1.012s-.228.644-.44.919c-.3.28-.674.476-1.083.567-.406.091-.832.072-1.23-.053-.398-.126-.752-.351-1.025-.656-.274-.304-.454-.675-.524-1.07-.005-.341.066-.678.207-.991s.351-.591.614-.819c.517-.423 1.164-.674 1.841-.717z" fill="#455a64"/><path d="m133.056 219.779c.395.967.93 1.874 1.589 2.698 1.466 2.073 3.195 3.962 5.144 5.628 1.945 1.667 4.093 3.101 6.397 4.275.931.53 1.933.939 2.977 1.213-.894-.568-1.818-1.091-2.767-1.566-2.21-1.254-4.289-2.708-6.207-4.346-1.909-1.652-3.653-3.472-5.209-5.437-.592-.856-1.235-1.679-1.924-2.465z" fill="#455a64"/><path d="m77.6482 249.488c-.39.749-.905 1.434-1.525 2.021-2.82 2.975-6.503 5.07-10.575 6.013-.829.237-1.691.346-2.556.323 2.804-.675 5.506-1.694 8.039-3.032 2.435-1.492 4.661-3.282 6.617-5.325z" fill="#848484"/><path d="m147.361 255.307c-1.689.022-3.354-.384-4.829-1.173-1.554-.637-2.902-1.662-3.904-2.971.116-.11 1.715 1.365 4.146 2.497 2.43 1.132 4.608 1.485 4.587 1.647z" fill="#848484"/><path d="m140.423 60.0942c-.079-.6323-.341-1.232-.758-1.7274-1.256-1.6917-3.138-2.8604-5.26-3.2629 1.809-.7631 3.446-1.8582 4.818-3.224.679-.6896 1.16-1.5354 1.4-2.4548.24-.9215.229-1.8848-.032-2.8001-.4-.8489-.98-1.6069-1.705-2.225-.726-.618-1.578-1.0828-2.503-1.3617-2.512-1.0154-5.303-1.1973-7.934-.5159-1.301.3524-2.495 1.0022-3.481 1.8909-.984.8908-1.732 1.9961-2.179 3.222l2.536 6.2458c.332 2.4691 1.351 4.8075 2.946 6.7699.725.8898 1.788 1.7683 2.935 1.5354.482-.142.907-.425 1.215-.8081.31-.3841.487-.8489.511-1.3341.023-.9654-.168-1.9267-.558-2.8195 1.294 1.7857 3.029 3.2332 5.05 4.2149.324.2095.694.3433 1.082.3882.387.046.781.0031 1.148-.1266.272-.1706.488-.4128.624-.6968.136-.2839.187-.5986.145-.9102z" fill="#3c3838"/><path d="m125.985 53.657c.072-.4986.044-1.0063-.084-1.4946-.359-2.0206-.8-4.1026-2.273-5.5378-.114-.14-.259-.2534-.424-.3321-.166-.0796-.349-.1215-.533-.1236-.58.0716-.821.7795-.737 1.3342.183.5384.295 1.0941.337 1.658l.989 4.0423c.039.4433.223.8652.526 1.2024.155.1665.354.2891.576.3575.223.0674.46.0756.687.0255.25-.0858.469-.238.634-.4372.167-.2002.271-.4403.302-.6946z" fill="#cfbaba"/><path d="m122.159 81.377c1.765-4.362 3.133-8.861 4.093-13.4509.956-4.6.706-9.3585-.726-13.8441-.232-.6661-2.284-5.1834-3.02-5.1333-.526 0 .695 4.2241.421 4.6491-2.532 4.2241-3.666 9.0878-3.251 13.9443.289 4.6869 1.123 9.3268 2.483 13.8349z" fill="#3c3838"/><path d="m121.441 104.192 1.758-40.6014c.757-11.6928-5.692-21.8583-17.886-22.2322h-1.326c-5.4243.1216-10.6014 2.2004-14.5014 5.826-3.9 3.6234-6.2339 8.5249-6.5409 13.7277-.61 10.1767-1.147 21.4844-.936 26.9415.421 11.2259 12.1619 12.7014 12.1619 12.7014s.0001 2.608-.0839 5.902c0 0 .81 6.396 11.7103 6.699 10.9.304 15.644-8.964 15.644-8.964z" fill="#ffbe9d"/><path d="m94.1866 100.558c5.401-.135 10.6484-1.7548 15.1184-4.6693 0 0-3.514 8.2563-15.2025 7.5093z" fill="#eb996e"/><path d="m86.0068 70.6638c.005.4188.1801.8203.4901 1.1165.309.2963.7249.4648 1.1619.47.212.0112.4251-.0174.6261-.0879.2-.0684.384-.1767.54-.3146.157-.1379.2839-.3045.3729-.4914.088-.1859.1381-.3862.1441-.5915-.005-.4188-.181-.8193-.491-1.1166-.307-.2952-.7251-.4637-1.1611-.4709-.213-.0092-.425.0204-.626.0899-.2.0685-.3839.1757-.5409.3146-.156.138-.2831.3045-.3721.4904s-.138.3872-.144.5915z" fill="#3c3838"/><path d="m85.5668 65.0971c.21.2023 1.452-.7274 3.25-.758 1.8-.0307 3.157.7886 3.325.5761.169-.2114-.1261-.4648-.7041-.8591-.794-.4944-1.7269-.7447-2.6729-.7171-.932.0163-1.834.3177-2.578.8591-.547.424-.725.8081-.62.899z" fill="#3c3838"/><path d="m102.347 70.6638c.005.4178.18.8162.486 1.1124.306.2973.72.4669 1.155.4741.214.0112.427-.0174.628-.0879.201-.0684.385-.1767.543-.3126.158-.1389.286-.3065.375-.4934.09-.1859.141-.3862.149-.5915-.008-.4188-.185-.8162-.493-1.1135-.309-.2952-.724-.4648-1.16-.474-.213-.0092-.425.0204-.626.0899-.2.0685-.383.1757-.541.3146-.156.138-.282.3045-.37.4904-.091.1859-.139.3872-.146.5915z" fill="#3c3838"/><path d="m103.189 65.6928c.211.2124 1.452-.7172 3.252-.758 1.799-.0399 3.157.7988 3.324.5863.168-.2124-.126-.475-.715-.8591-.788-.5006-1.719-.7549-2.662-.7274-.936.0184-1.843.3239-2.588.8684-.537.4249-.715.7988-.611.8898z" fill="#3c3838"/><path d="m97.0601 79.4057c-.951-.2676-1.933-.4168-2.924-.4454-.463 0-.906-.1103-.99-.4035-.051-.4536.046-.9122.274-1.3137.41-1.0808.831-2.2127 1.273-3.3957 1.767-4.8197 3.04-8.7711 2.83-8.8416s-1.8 3.789-3.556 8.6097c-.431 1.182-.831 2.3241-1.22 3.4059-.271.5404-.342 1.1533-.2 1.7377.072.1542.18.2911.316.3994.134.1083.292.1849.462.2268.257.0531.518.0807.779.0807.985.1001 1.978.0807 2.956-.0603z" fill="#3c3838"/><path d="m102.362 61.3989c.241.4342 1.977-.001 4.103-.0817 2.125-.0817 3.892.2615 4.114-.1921.095-.2135-.263-.6068-1.052-1.0103-.989-.4331-2.071-.6344-3.156-.5864-1.087.0235-2.151.2973-3.105.7989-.683.4342-1.02.8591-.904 1.0716z" fill="#3c3838"/><path d="m85.3179 61.436c.379.3841 1.809-.0613 3.535-.1318 1.725-.0705 3.1571.1828 3.5351-.2421.137-.2013-.106-.5854-.758-.9399-.892-.4382-1.893-.6343-2.893-.5659-1 .0327-1.9691.333-2.7991.8693-.6.424-.789.8285-.62 1.0104z" fill="#3c3838"/><path d="m122.442 71.9675c.2-.0909 7.986-2.4661 7.912 5.214s-8.08 6.063-8.091 5.8209c-.01-.2432.179-11.0349.179-11.0349z" fill="#ffbe9d"/><path d="m124.726 80.0497s.148.0909.379.1921c.165.0694.345.1052.526.1052s.36-.0358.526-.1052c.852-.2922 1.567-1.5763 1.621-2.9605.028-.6579-.098-1.3147-.369-1.9195-.079-.237-.216-.4526-.399-.6272-.183-.1768-.407-.3086-.653-.3831-.161-.0419-.332-.0286-.485.0378-.152.0654-.273.1818-.346.3248-.106.2135-.052.3647-.095.3739-.042.0102-.179-.1307-.105-.4433.042-.19.153-.3586.315-.4751.221-.1583.496-.2267.768-.192.329.0633.636.2074.889.4178.255.2115.448.4811.563.7845.336.6661.495 1.4016.463 2.1423-.063 1.5456-.905 3.0309-2.104 3.3037-.216.0592-.442.0715-.663.0347-.219-.0378-.429-.1215-.61-.2462-.199-.1624-.242-.3647-.221-.3647z" fill="#3c3838"/><path d="m88.3506 48.4532c-1.283-.708 2.672-4.6788 5.881-6.063 4.84-2.0206 12.2054-3.1832 16.6234-1.9001 5.26 1.5354 9.7 4.1629 12.299 8.8723 2.505 4.8064 3.627 10.1685 3.251 15.5317.042 1.6355-.375 3.2517-1.21 4.6788-1.146 1.6774-3.303 2.7183-3.251 5.0526.022.426-.043.851-.193 1.2504-.15.4025-.382.7692-.68 1.0839-1.494 1.4659-3.261 0-4.05-1.3842-1.715-3.032-1.841-6.6392-1.936-10.1053-.203-2.4517.01-4.9188.631-7.3062.421-1.2729 1.052-2.466 1.409-3.7685.213-.6375.277-1.3117.19-1.9747s-.324-1.2994-.694-1.8664c-.188-.2339-.4-.4505-.632-.6456-1.1-.9521-2.443-1.6069-3.892-1.896-1.45-.2891-2.953-.2033-4.356.2482-4.534 1.4649-12.2684 3.6174-14.2554 2.1228-2.852-2.1636-3.515-3.5479-3.515-3.5479z" fill="#3c3838"/><path d="m92.0582 96.5922c-.168 0-.273-.7488-.073-1.6274.2-.8795.6199-1.4955.7779-1.4342.158.0602 0 .7467-.147 1.566-.148.8183-.3789 1.5048-.5579 1.4956z" fill="#3c3838"/><path d="m94.2427 96.8654c-.178 0-.21-.5864-.178-1.2535.031-.666.126-1.2228.305-1.2432.178-.0204.378.5557.336 1.2739-.041.7171-.284 1.2636-.463 1.2228z" fill="#3c3838"/><path d="m96.2297 97.0079c-.179 0-.295-.6058-.252-1.3342.041-.7273.21-1.3127.389-1.3035.178.0102.284.6068.252 1.3342-.032.7273-.221 1.3147-.389 1.3035z" fill="#3c3838"/><path d="m98.8166 96.4644c-.179 0-.4211-.4751-.5471-1.1217-.126-.6467-.0839-1.2024.0841-1.233.168-.0297.421.4648.547 1.1216.127.6569.095 1.1922-.084 1.2331z" fill="#3c3838"/><path d="m88.2656 107.386 6.881-3.243 26.1454.434 4.924 2.809-4.924 10.58-14.045 2.305h-10.7954l-6.008-8.065z" fill="#ffbe9d"/><path d="m69.8668 109.762s-8.417 1.243-11.647 6.842c-3.231 5.598-5.608 16.37-5.608 16.37-2.388 3.694-3.796 7.892-4.104 12.228 0 0 3.504-4.123 10.68-4.144 7.596 0 16.938 8.084 16.938 8.084z" fill="#eee"/><path d="m69.8681 109.761 15.539-3.112 7.733-2.021s-3.419 13.005 13.8459 12.591c17.265-.415 15.96-12.591 15.96-12.591s13.782 3.799 14.456 3.89c1.262.152 11.868 2.688 11.868 2.688l-3.883 26.94.221 43.524s2.799 30.052 3.662 36.267l1.515 14.511s-36.245 6.215-52.0059 0c-11.383-4.287-23.027-7.908-34.866-10.843 0 0 1.409-10.106 2.482-20.454.569-5.971 2.022-11.833 4.314-17.41 0 0-2.777-65.289-2.588-65.896s1.747-8.084 1.747-8.084z" fill="#eee"/><path d="m122.344 139.147h-30.2053v29.012h30.2053z" fill="#b1b1b1"/><path d="m149.27 111.207s3.503-.434 7.996 7.013c4.492 7.447 6.396 17.775 6.396 17.775l1.252 10.328s-11.425-10.985-23.672-1.96l3.262-11.238s-2.725-8.498-.684-14.512c2.041-6.012 5.45-7.406 5.45-7.406z" fill="#eee"/><path d="m48.5086 145.201c0 1.01-1.052 17.381 0 24.07 1.053 6.69 1.936 10.732 4.366 11.794 2.431 1.06 7.165 1.01 9.469 1.909 2.305.9 8.248 4.881 19.989 2.971 11.742-1.909 27.3564-12.733 32.2794-13.582 3.134-.513 6.296-.85 9.469-1.01l12.993-2.809 1.6-10.106s-27.418.425-31.563.849c-4.146.425-10.3844 2.123-22.7674 1.486-12.384-.637-9.07-.849-9.07-.849l.925-10.701s-7.364-7.073-15.296-7.953c-2.242-.321-4.532-.132-6.684.551s-4.107 1.84-5.71 3.38z" fill="#ffbe9d"/><path d="m68.1224 159.823c-.6-.778-.684-2.547.095-3.163-1.017-1.011-1.783-2.231-2.241-3.567-.184-.38-.262-.801-.225-1.22.037-.416.187-.82.435-1.165-.452-.586-.771-1.257-.936-1.97-.074-.358-.041-.729.096-1.069.138-.342.375-.636.683-.851.926-.536 2.104 0 2.945.687.895.687 1.706 1.466 2.42 2.324-.122-.155-.209-.333-.256-.523-.044-.19-.048-.388-.007-.579.039-.191.121-.371.239-.53s.27-.291.445-.389c.381-.173.8-.255 1.222-.233.421.021.828.143 1.187.354 1.476.847 2.694 2.048 3.536 3.487 2.19 3.262 4.616 6.372 7.259 9.306" fill="#ffbe9d"/><path d="m84.9571 160.693c-.435-.366-.829-.773-1.178-1.213-.726-.808-1.789-1.971-3.031-3.466-.62-.757-1.294-1.587-1.967-2.517-.674-.929-1.283-2.021-2.041-3.031-.78-1.032-1.8-1.875-2.978-2.467-.284-.128-.596-.198-.91-.198-.315 0-.626.07-.91.198-.255.138-.446.361-.54.626-.092.264-.08.553.035.81.033.052.072.099.116.142l-.474.413c-.633-.734-1.337-1.412-2.104-2.02-.618-.617-1.447-1.001-2.335-1.081-.378.052-.719.246-.948.54-.228.295-.327.663-.273 1.026.109.759.415 1.479.895 2.092l.115.182-.147.142c-.18.226-.302.491-.354.772-.055.281-.037.57.049.843.127.563.321 1.109.579 1.629.425.881.992 1.692 1.682 2.404l.128.141-.148.112c-.324.312-.512.732-.526 1.172-.055.334-.055.676 0 1.011.067.283.158.559.274.827 0 0-.285-.211-.463-.787-.103-.352-.149-.717-.137-1.081-.01-.531.199-1.041.578-1.425v.242c-.75-.711-1.372-1.538-1.841-2.446-.294-.543-.517-1.121-.663-1.717-.11-.353-.132-.725-.063-1.088.07-.361.228-.702.463-.994v.323c-.561-.682-.924-1.494-1.052-2.354-.029-.493.103-.986.379-1.405.152-.222.357-.409.599-.542.241-.134.512-.21.79-.226 1.052.048 2.045.474 2.788 1.192.769.642 1.475 1.353 2.104 2.123l-.474.415c-.088-.08-.163-.172-.221-.274-.21-.398-.251-.858-.114-1.285.138-.425.443-.785.85-.998.373-.173.782-.263 1.195-.263.414 0 .821.09 1.194.263 1.258.64 2.339 1.559 3.157 2.677.799 1.072 1.326 2.132 2.009 3.032.684.898 1.294 1.769 1.883 2.527l2.861 3.586c.437.435.828.909 1.169 1.416z" fill="#3c3838"/><path d="m79.6935 159.639c-1.737-1.547-3.328-3.237-4.755-5.053-2.483-2.919-4.388-5.376-4.208-5.486.178-.112 2.261 2.172 4.755 5.102 1.565 1.692 2.975 3.51 4.208 5.437z" fill="#3c3838"/><path d="m73.721 158.289c-1.5-1.007-2.866-2.185-4.072-3.507-2.104-2.021-3.63-3.961-3.483-4.042 1.419 1.105 2.739 2.322 3.945 3.638 2.104 2.032 3.747 3.789 3.61 3.911z" fill="#3c3838"/><path d="m71.3944 159.884c-.136.111-.957-.515-1.841-1.425-.884-.909-1.483-1.717-1.357-1.839.126-.12.947.515 1.83 1.415.884.899 1.495 1.768 1.368 1.849z" fill="#3c3838"/><path d="m86.1003 160.762c-1.368.098-2.743.098-4.114 0l-4.471-.152c-1.673-.06-3.545-.131-5.45-.343-1.792-.186-3.599-.206-5.397-.061-1.447.133-2.866.475-4.209 1.011-.918.349-1.773.839-2.535 1.444-.262.251-.564.458-.894.616 0 0 .221-.312.736-.797.715-.702 1.566-1.265 2.504-1.658 1.376-.614 2.847-1.007 4.355-1.162 1.834-.186 3.683-.186 5.514 0 1.947.223 3.757.303 5.439.394l4.451.283c1.367.033 2.729.175 4.071.425z" fill="#3c3838"/><path d="m141.211 144.362c-2.129 7.909-3.52 15.986-4.157 24.132l-37.8117 2.344-15.339 14.016s10.141 6.66 28.6487 7.013c18.506.353 26.365-3.032 35.349-3.415 8.986-.384 12.173-2.153 13.857-7.731s3.051-23.243 3.156-26.91c-.046-2.78-.352-5.55-.915-8.276 0 0-10.963-9.671-22.788-1.173z" fill="#ffbe9d"/><path d="m137.446 168.513c-.179 0-.41-2.748-.168-6.134.242-3.385.852-6.063 1.052-6.063.199 0-.147 2.738-.379 6.063-.231 3.325-.326 6.134-.505 6.134z" fill="#3c3838"/><path d="m137.634 167.968s-.148.132-.463.334c-.316.201-.79.475-1.432.808-1.803.907-3.705 1.622-5.67 2.132-2.922.745-5.915 1.198-8.932 1.355-1.751.058-3.487.33-5.166.808-1.715.545-3.451 1.334-5.261 2.101l-18.3063 7.822c-1.875.76-3.806 1.384-5.777 1.87-.694.161-1.241.272-1.62.323-.192.026-.387.026-.578 0 0 0 .768-.212 2.104-.607 1.927-.563 3.818-1.237 5.66-2.021 2.347-1.01 5.061-2.324 8.1653-3.637l10.068-4.356c1.716-.785 3.471-1.486 5.26-2.102 1.711-.479 3.48-.746 5.261-.799 2.983-.131 5.946-.538 8.848-1.211 1.956-.467 3.862-1.11 5.692-1.92 1.431-.597 2.073-.991 2.147-.9z" fill="#3c3838"/><path d="m147.838 172.082c-.104.152-2.241-1.284-5.26-2.314s-5.565-1.283-5.544-1.465c.02-.182 2.693-.213 5.766.879 3.071 1.091 5.155 2.829 5.038 2.9z" fill="#3c3838"/><path d="m74.959 147.384c-.344-.953-.579-1.938-.706-2.94-.346-1.829-.746-4.375-1.052-7.194-.304-2.82-.567-5.386-.673-7.245-.122-1.009-.122-2.026 0-3.032.257.976.414 1.973.474 2.98l.841 7.216c.337 2.698.642 5.132.905 7.205.173.994.243 2.002.211 3.01z" fill="#3c3838"/><path d="m141.21 144.362c.02-1.114.13-2.226.326-3.324.252-2.021.515-4.871.737-8.014.22-3.142.463-5.981.778-8.033.105-1.117.342-2.22.705-3.284-.01 1.116-.094 2.228-.253 3.334-.2 2.021-.358 4.881-.578 8.034-.221 3.152-.569 5.982-.937 8.023-.14 1.112-.401 2.206-.778 3.264z" fill="#3c3838"/><path d="m72.6611 122.566c-.189 0-.758-2.345-2.23-4.951-1.473-2.608-3.157-4.386-3.062-4.517 1.483 1.167 2.711 2.605 3.614 4.23.902 1.624 1.462 3.405 1.646 5.238z" fill="#3c3838"/><path d="m125.041 106.046c.027.166.027.337 0 .505-.036.487-.117.971-.242 1.445-.449 1.751-1.277 3.394-2.431 4.82-1.707 2.123-3.909 3.833-6.427 4.991-3.074 1.391-6.353 2.311-9.723 2.73-1.736.298-3.512.329-5.26.091-1.6409-.265-3.2129-.831-4.6289-1.667-2.416-1.394-4.27-3.531-5.261-6.064-.659-1.696-.918-3.511-.757-5.315.052-.484.137-.963.252-1.436.025-.17.082-.334.169-.484 0 0-.116.687-.169 1.939-.058 1.754.258 3.501.926 5.134 1.003 2.417 2.813 4.446 5.145 5.77 1.361.78 2.864 1.305 4.4289 1.546 1.693.232 3.411.202 5.092-.09 3.305-.415 6.525-1.305 9.554-2.639 2.45-1.101 4.607-2.72 6.313-4.738 1.155-1.365 2.02-2.935 2.545-4.618.369-1.223.369-1.931.474-1.92z" fill="#3c3838"/><path d="m102.101 82.6992c-1.1.4658-2.2677.7651-3.4607.8887-1.162.3004-2.364.4291-3.568.3852 1.101-.4648 2.268-.7693 3.462-.9 1.163-.2983 2.3647-.424 3.5667-.3739z" fill="#3c3838"/><path d="m225.76 56.5774.569 43.9876c.094 7.478-1.358 18.483-13.678 18.099-10.658-1.123-13.488-10.814-13.572-17.796 0-3.3148-.073-6.0638-.105-6.4071 0 0-11.668-.9194-12.625-11.9941-.474-5.3468-.526-16.4512-.441-26.486.043-5.2007 2.124-10.1951 5.829-13.9882 3.705-3.794 8.76-6.1089 14.16-6.4848l1.116-.0807c12.025-.1727 18.927 9.5699 18.747 21.1503z" fill="#ffbe9d"/><path d="m198.976 94.4621c5.34-.3821 10.453-2.2311 14.73-5.3254 0 0-3.051 8.3564-14.635 8.1643z" fill="#eb996e"/><path d="m205.579 60.5204c.231.2217 1.568-.8091 3.493-.8591 1.925-.0501 3.377.8591 3.577.6262.2-.2319-.137-.5149-.767-.9398-.847-.5486-1.852-.8254-2.873-.7876-1.012.0367-1.985.3912-2.767 1.0103-.578.4239-.768.8489-.663.95z" fill="#263238"/><path d="m207.558 64.0057c.021.3902.203.757.505 1.0205.299.2626.697.4005 1.105.3852.199.001.398-.0368.581-.1104.186-.0725.354-.1808.493-.3177.14-.1358.251-.2993.324-.476.073-.1798.11-.3708.106-.5619-.027-.3882-.21-.7529-.51-1.0144s-.694-.4025-1.1-.3902c-.2-.0021-.398.0357-.582.1093-.184.0725-.351.1818-.492.3167-.141.1379-.25.3003-.324.4781-.074.1787-.11.3687-.106.5608z" fill="#263238"/><path d="m200.74 73.4212c-.954-.2186-1.933-.3166-2.914-.2931-.452 0-.894-.0705-.989-.3627-.071-.4485-.001-.9051.2-1.3147.347-1.0809.715-2.2127 1.052-3.4049 1.495-4.8412 2.547-8.812 2.347-8.8722-.2-.0613-1.589 3.8298-3.084 8.6699l-1.052 3.4253c-.248.5425-.285 1.1513-.104 1.7183.074.1491.185.2799.322.382.137.1012.296.1717.467.2044.259.0265.519.0265.778 0 .995.0796 1.997.0275 2.977-.1523z" fill="#263238"/><path d="m206.401 52.6273c.189.4036 1.735.1012 3.587.1921s3.377.4852 3.588.0807c.095-.1818-.189-.566-.82-.9296-.831-.4516-1.762-.7049-2.716-.7376-.946-.047-1.89.1328-2.745.5261-.652.3126-.968.6671-.894.8683z" fill="#263238"/><path d="m188.062 56.9817c.2.334 1.704 0 3.534-.091 1.832-.0899 3.347.1727 3.536-.1808.084-.1716-.221-.4648-.852-.7386-.86-.3248-1.782-.4699-2.704-.4239-.932.0265-1.847.2431-2.683.6374-.631.3126-.926.6263-.831.7969z" fill="#263238"/><path d="m225.443 64.8943c.189-.1001 7.754-2.8093 8.08 4.7809.326 7.5892-7.68 6.3459-7.712 6.1232-.031-.2227-.368-10.9041-.368-10.9041z" fill="#ffbe9d"/><path d="m228.109 72.7884s.147.0909.378.1818c.338.1318.716.1318 1.052 0 .832-.3238 1.474-1.6263 1.452-3.032-.008-.6507-.167-1.2923-.463-1.8786-.072-.2401-.207-.4577-.391-.6334-.184-.1777-.411-.3075-.661-.377-.158-.0357-.325-.0163-.469.0573-.145.0704-.259.191-.32.336-.104.2115 0 .3647-.084.3842-.084.0194-.179-.1206-.126-.4444.036-.19.14-.3627.295-.4853.21-.1644.477-.2441.747-.2227.328.0511.637.1798.899.376.26.1961.466.4525.595.7457.363.6426.558 1.3617.567 2.0922 0 1.5364-.746 3.0319-1.872 3.365-.208.0684-.431.0909-.649.0643-.219-.0255-.428-.1001-.613-.2155-.316-.1216-.4-.2932-.337-.3136z" fill="#eb996e"/><path d="m202.612 78.6782c-.084-.1921 1.463-.6375 2.546-2.0217.445-.6242.8-1.3035 1.052-2.0206.232-.5558.41-.899.495-.8684.084.0296.063.3933-.063 1.0103-.176.8061-.535 1.5661-1.052 2.223-.519.664-1.217 1.1768-2.021 1.4853-.526.2431-.936.2625-.957.1921z" fill="#263238"/><path d="m170.567 46.0394c.148-.4321.459-.7927.873-1.0113.923-.4005 1.939-.5598 2.946-.4638 3.077-.0572 6.078-.9317 8.669-2.5263 1.209-1.6713 2.561-3.2424 4.04-4.7002 3.494-3.4661 6.313-5.8198 9.343-6.9619 3.851-1.4956 10.28-2.0922 14.288-1.0819 4.009 1.0104 7.617 4.1333 8.175 8.0847 2.251-1.8286 5.629-1.8184 8.364-.758h.073c3.052 1.0103 4.788 4.1434 5.682 7.1345.894 2.9912 1.283 6.1835 2.935 8.8631.348.5547.758 1.232.452 1.8071-.136.2166-.339.3862-.58.4873s-.508.1287-.766.0787c-.515-.1053-.998-.3147-1.42-.616.336.7886.684 1.566 1.052 2.3455-1.107.1818-2.243.1103-3.315-.2135-.562 2.6662-1.289 5.2988-2.177 7.8823-1.139-.1267-2.286.1471-3.23.7692-1.052.9194-1.547 2.6571-3.314 2.0207-.905-.3331-1.736-2.1627-2.041-3.032-2.003-5.8923-2.667-12.13-1.947-18.29-1.266-1.3362-2.792-2.4221-4.492-3.1934l.136.1206c-3.219-1.0706-6.87-2.132-9.921-.6773-2.377 1.1226-3.766 3.4865-5.544 5.3764-1.636 1.7387-3.622 3.1423-5.837 4.1241-2.214.9837-4.612 1.5251-7.051 1.5956-.169 3.1219.105 7.5289-.074 10.6416l-2.736-5.0128c-.218-.3555-.415-.7232-.589-1.1012l-.063-.1114c-.274-.6078-.578-1.2013-.915-1.7785-.375.2809-.839.427-1.314.4127s-.931-.1869-1.285-.4893c-.355-.3044-.589-.7171-.661-1.1677-.07-.4505.025-.9122.272-1.3024.274-.3627.604-.6835.978-.9501-.398.3719-.889.6375-1.426.7723-.536.1338-1.1.1328-1.636-.0041-.524-.1542-.981-.4689-1.302-.8959-.32-.427-.488-.9429-.476-1.469.04-.3586.18-.6998.403-.9899s.524-.5159.871-.6568c-1.428.1062-2.856-.1952-4.104-.8704-.821-.5139-1.61-1.2116-1.336-2.1913z" fill="#263238"/><path d="m215.266 38.624c.414.3065.801.6436 1.158 1.0103.916 1.0553 1.527 2.3241 1.767 3.6776.201.9276.3 1.8726.296 2.8196 0 1.0103-.074 2.1115-.159 3.2649-.103 1.2064-.13 2.417-.084 3.6275.033.6456.12 1.2882.263 1.9195.099.6763.378 1.3178.81 1.8593.202.2135.459.3759.745.4678.285.093.591.1114.887.0583.565-.1053 1.079-.3862 1.461-.7989.606-.8336.969-1.8071 1.052-2.8195h-.241c.355.8356.828 1.6171 1.41 2.3251.564.6507 1.365 1.0706 2.24 1.1707.409.0367.819-.0317 1.189-.2013.348-.1685.63-.4372.811-.7682.178-.3075.263-.6589.241-1.0103-.014-.3187-.144-.6221-.367-.8591l-.127.1011c.709.7907 1.589 1.421 2.578 1.85.249.1104.506.2043.768.283l.273.0695c-.083-.045-.171-.0828-.263-.1103-.254-.094-.503-.2013-.747-.3239-.916-.4382-1.729-1.0542-2.388-1.8092l-.127.1114c.19.2309.3.5128.315.806.014.2932-.065.5843-.23.8315-.164.2942-.422.5313-.737.6773-.326.1502-.691.2095-1.052.1717-.824-.0961-1.578-.4945-2.104-1.1125-.559-.6916-1.012-1.4568-1.347-2.273l-.168-.3534-.073.383c-.102.9685-.465 1.895-1.052 2.6888-.344.3708-.807.6211-1.315.7069-.25.05-.51.0368-.753-.0409-.242-.0786-.459-.2176-.626-.4035-.399-.5097-.659-1.1073-.757-1.7376-.13-.6171-.214-1.2412-.253-1.8705-.055-1.2024-.031-2.4068.073-3.6061.074-1.1523.148-2.2434.137-3.2843-.008-.9593-.12-1.9144-.337-2.8502-.298-1.3832-.978-2.6632-1.967-3.7093-.346-.3698-.751-.6875-1.2-.9388z" fill="#455a64"/><path d="m179.644 49.3935.094.0807.285.2023c.383.2421.784.4587 1.199.6466 1.543.6794 3.241.9746 4.934.8592 2.498-.1686 4.892-1.0206 6.902-2.4559 2.44-1.7989 4.477-4.0545 5.987-6.6289.831-1.3341 1.515-2.7071 2.272-3.981.687-1.2371 1.556-2.3741 2.577-3.3752.922-.902 2.066-1.566 3.325-1.9297.567-.1563 1.158-.2237 1.747-.2033.549.0317 1.09.1328 1.609.3044 1.589.5241 2.913 1.6069 3.704 3.031.266.5281.467 1.0849.599 1.657.002-.0368.002-.0736 0-.1104 0-.0909 0-.2135 0-.3432-.098-.4342-.244-.853-.441-1.2545-.784-1.4619-2.121-2.5835-3.736-3.1321-.534-.1818-1.094-.2911-1.661-.3228-.613-.0337-1.229.0276-1.821.1818-1.305.3852-2.488 1.0798-3.44 2.0207-1.04 1.0174-1.925 2.1708-2.63 3.4252-.758 1.2739-1.441 2.6479-2.273 3.9719-1.488 2.5457-3.495 4.7758-5.902 6.5584-1.978 1.4373-4.344 2.3005-6.818 2.4854-1.667.1247-3.342-.1379-4.882-.7672-.563-.2727-1.109-.5802-1.63-.9204z" fill="#455a64"/><path d="m178.592 44.5226c.126.1114.268.2074.42.283.393.2247.801.4239 1.221.5976.626.2533 1.274.4566 1.936.6048.815.1808 1.646.2891 2.483.3238.834.0163 1.668-.0378 2.493-.1614.669-.1063 1.328-.2646 1.968-.475.433-.1451.855-.3208 1.263-.5251.153-.0654.297-.1451.431-.2421 0 0-.663.2615-1.746.5955-.642.186-1.296.328-1.958.424-.812.1113-1.631.1583-2.451.142-.817-.0307-1.631-.1287-2.43-.2932-.656-.1328-1.3-.3146-1.926-.5465-1.115-.4138-1.704-.7672-1.704-.7274z" fill="#455a64"/><path d="m187.977 61.2166c.222.2227 1.557-.8091 3.493-.8591 1.936-.0501 3.367.8683 3.577.6262.211-.2421-.147-.5149-.767-.9388-.849-.5435-1.853-.8193-2.873-.7887-1.015.0409-1.989.3943-2.777 1.0103-.568.424-.768.849-.653.9501z" fill="#263238"/><path d="m190.765 64.3275c.025.3913.207.758.511 1.0205.303.2626.702.4005 1.108.3852.2.002.398-.0337.583-.1073.185-.0715.352-.1777.492-.3146.141-.1359.251-.2983.325-.4751.074-.1777.11-.3677.106-.5587-.03-.3903-.216-.7529-.518-1.0145-.301-.2625-.695-.4024-1.103-.3902-.198 0-.395.0368-.577.1103-.184.0726-.35.1809-.49.3167-.139.1338-.25.2953-.326.471-.074.1767-.112.3657-.111.5567z" fill="#263238"/><path d="m248.547 391.293 2.398 27.658 8.417 21.352c.145.365.21.753.191 1.142-.019.39-.12.77-.298 1.12-.18.35-.431.66-.741.913-.308.253-.668.442-1.056.554-.452.136-.93.164-1.396.082-.465-.081-.903-.268-1.276-.546-4.83-3.589-22.242-16.795-22.442-18.514-.252-2.222-4.682-29.416-4.682-29.416z" fill="#848484"/><path d="m257.499 444.032-25.587-22.131.253 2.021c.167 1.123.189 1.73.957 2.436 6.796 6.268 13.955 12.161 21.442 17.654.779.586 1.999.293 2.935 0z" fill="#263238"/><path d="m236.943 413.282c.384.21.671.552.806.955.137.402.111.842-.069 1.228-.208.373-.554.654-.973.787-.416.135-.87.11-1.268-.07-.405-.226-.708-.587-.849-1.015-.142-.427-.113-.889.08-1.3.257-.369.652-.629 1.106-.721.452-.093.924-.011 1.315.226" fill="#b1b1b1"/><path d="m249.601 432.643c.168.061.663-1.444 2.284-2.394 1.006-.512 2.107-.834 3.239-.95 0-.07-.368-.242-1.052-.272-.895 0-1.77.244-2.524.706-.767.449-1.374 1.108-1.747 1.89-.274.597-.274 1.009-.2 1.02z" fill="#263238"/><path d="m252.056 436.141c.158.102.978-.888 2.42-1.455.907-.264 1.831-.473 2.767-.627.063-.151-1.378-.596-3.02.071-1.641.667-2.325 1.95-2.167 2.011z" fill="#263238"/><path d="m245.269 428.3c.146.121 1.409-1.416 3.567-2.476 2.156-1.061 4.207-1.203 4.155-1.384-.052-.182-2.104-.314-4.451.848-1.428.597-2.589 1.666-3.271 3.012z" fill="#c4c8ca"/><path d="m243.821 419.954c.094.161 1.62-.637 3.671-.92 2.052-.283 3.746 0 3.788-.152.042-.151-1.673-.778-3.882-.455-2.21.324-3.703 1.405-3.577 1.527z" fill="#263238"/><path d="m242.888 411.849c.117.151 1.61-.931 3.799-1.011 1.325.006 2.641.184 3.914.536 0-.061-.316-.374-1.052-.678-.927-.373-1.933-.534-2.936-.464-1.006.07-1.984.364-2.851.859-.62.343-.915.707-.874.758z" fill="#263238"/><path d="m246.47 409.249c.05-.338.025-.681-.073-1.01-.204-.948-.6-1.847-1.169-2.647-.363-.622-.928-1.114-1.609-1.395-.234-.071-.484-.071-.718-.001-.233.071-.439.209-.587.396-.267.379-.38.839-.316 1.293.172.918.67 1.75 1.409 2.356.738.606 1.671.948 2.642.969.964-.003 1.904-.282 2.703-.8.798-.518 1.417-1.252 1.779-2.11.088-.217.128-.449.115-.681-.012-.231-.077-.457-.189-.664-.136-.198-.332-.349-.564-.433-.23-.082-.481-.095-.719-.031-.687.225-1.302.615-1.788 1.131-.711.68-1.291 1.473-1.715 2.345-.191.308-.307.653-.337 1.01.626-1.119 1.425-2.141 2.367-3.032.438-.434.979-.761 1.578-.95.129-.037.27-.032.397.014.127.044.236.128.309.24.063.138.094.288.094.439s-.031.301-.094.439c-.335.73-.882 1.352-1.573 1.793-.693.44-1.501.681-2.332.693-.823-.017-1.616-.301-2.249-.805-.635-.504-1.073-1.2-1.244-1.974-.053-.316.014-.638.19-.909.076-.106.19-.187.319-.228.128-.039.268-.038.397.005.573.236 1.055.639 1.378 1.153.731 1.035 1.271 2.184 1.599 3.394z" fill="#263238"/><path d="m180.363 392.727 1.052 23.414s-24.429 8.913-24.672 13.258l47.346-.353-.106-36.561z" fill="#848484"/><path d="m196.062 414.061c.456.131.845.419 1.093.808.248.39.339.854.254 1.303-.118.433-.398.806-.787 1.049-.39.244-.859.338-1.317.265-.486-.137-.899-.443-1.162-.858s-.355-.909-.259-1.385c.173-.451.52-.82.968-1.029.45-.21.967-.243 1.443-.093" fill="#3c3838"/><path d="m204.122 429.045-.167-3.688-45.346 1.718s-2.104.9-1.852 2.325z" fill="#263238"/><path d="m180.7 415.922c0 .221 1.168.312 2.314 1.01 1.148.697 1.758 1.637 1.969 1.546.209-.091-.137-1.374-1.547-2.203-1.41-.828-2.83-.557-2.736-.353z" fill="#263238"/><path d="m175.715 417.929c0 .213.947.587 1.746 1.516.8.93 1.052 1.931 1.252 1.92.2-.01.369-1.273-.641-2.414-1.011-1.142-2.357-1.233-2.357-1.022z" fill="#263238"/><path d="m172.933 423.63c.211.051.526-1.011-.074-2.274-.598-1.263-1.693-1.686-1.787-1.506-.095.182.578.83 1.052 1.83.472 1 .578 1.95.809 1.95z" fill="#263238"/><path d="m181.034 410.554c.094.202 1.156-.111 2.462 0 1.304.111 2.335.465 2.451.273s-.863-1.011-2.409-1.011c-1.547 0-2.62.566-2.504.738z" fill="#263238"/><path d="m172.124 224.556c0 1.356 5.501 188.524 5.501 188.524h29.27l5.924-160.107s6.922 83.712 6.922 85.52c0 1.809 6.114 75.486 6.114 75.486l27.133-2.122-1.799-168.565-3.314-24.717z" fill="#595959"/><g fill="#455a64"><path d="m215.867 247.061c-.377.199-.776.359-1.189.475-.778.274-1.914.648-3.303 1.101l-.274.092v-.261c-.157-2.254-.346-5.266-.515-8.571-.189-3.577-.326-6.811-.389-9.166 0-1.171-.053-2.12-.053-2.777-.032-.338-.01-.68.063-1.013.095.33.15.671.159 1.013.072.657.146 1.606.241 2.777.168 2.336.368 5.579.557 9.157.169 3.293.306 6.315.38 8.568l-.295-.181c1.421-.405 2.567-.728 3.366-.94.405-.139.825-.231 1.252-.274z"/><path d="m213.64 227.589s.095-.141.389-.242c.432-.117.893-.077 1.295.112.31.126.569.341.745.617.177.275.257.596.233.918-.041.4-.214.777-.494 1.075-.28.299-.653.503-1.063.583-.416.069-.844.017-1.229-.152-.384-.166-.708-.442-.928-.789-.173-.266-.264-.574-.264-.889 0-.314.091-.621.264-.888.23-.352.569-.625.969-.78.294-.09.463-.079.472-.05.011.031-.663.213-1.052 1.011-.114.212-.168.449-.155.687.014.239.092.469.229.667.171.243.41.437.688.555.28.122.587.162.89.123.295-.064.562-.213.767-.426.204-.212.337-.481.38-.768.025-.232-.023-.47-.14-.676-.115-.208-.295-.376-.512-.485-.459-.221-.979-.292-1.484-.203z"/><path d="m227.072 229.509c-.158 0-.378-.789-.493-1.809-.117-1.021-.074-1.849.083-1.87.158-.02.378.799.495 1.82.115 1.019.083 1.849-.085 1.859z"/><path d="m229.1 229.326c-.157 0-.294-.869-.294-1.931 0-1.06.115-1.93.272-1.94.159-.01.295.87.306 1.931.011 1.06-.106 1.94-.284 1.94z"/><path d="m193.83 230.62c-.364-.671-.557-1.417-.558-2.173-.148-1.223-.137-2.223 0-2.233.136-.01.399.96.547 2.172.191.732.194 1.499.011 2.234z"/><path d="m196.288 230.79c-.52-.646-.776-1.456-.715-2.273-.129-.807.05-1.633.504-2.324.11.763.135 1.536.074 2.304.122.759.168 1.526.137 2.293z"/><path d="m187.014 228.297c.012.28-.021.559-.095.828-.151.742-.349 1.475-.59 2.193-.833 2.394-2.058 4.646-3.629 6.67-1.598 2.049-3.527 3.84-5.713 5.305-.673.453-1.376.865-2.104 1.233-.254.155-.531.274-.821.353 0-.07 1.053-.677 2.673-1.849 2.087-1.523 3.946-3.315 5.524-5.325 1.544-1.987 2.788-4.174 3.692-6.498.737-1.778.989-2.931 1.063-2.91z"/><path d="m250.315 240.91c-.285.091-.584.136-.884.131-.815.074-1.635.074-2.451 0-2.694-.266-5.275-1.185-7.501-2.668-2.166-1.457-3.891-3.441-4.998-5.748-.323-.686-.576-1.401-.757-2.133-.092-.261-.134-.534-.126-.809.094 0 .337 1.121 1.22 2.8 1.168 2.197 2.875 4.087 4.976 5.506 2.158 1.432 4.633 2.364 7.229 2.718 2.062.233 3.292.113 3.292.203z"/><path d="m202.636 335.716c0 .122-4.893-.95-10.838-2.395-5.944-1.445-10.741-2.728-10.699-2.86.041-.132 4.881.95 10.836 2.395 5.955 1.446 10.732 2.709 10.701 2.86z"/><path d="m249.787 328.874c.072.121-4.146 2.376-9.469 5.053-5.325 2.679-9.617 4.739-9.68 4.618s4.145-2.364 9.469-5.052c5.323-2.689 9.616-4.729 9.68-4.619z"/></g><path d="m159.293 151.982-.494 21.828s-8.701 4.446-10.942 4.719-14.982-1.274-14.982-1.274l.662 13.269s20.212 4.719 26.524 4.851c6.313.131 9.101-.132 10.237-1.486 1.137-1.354 5.26-3.031 6.386-9.145s-2.104-32.762-2.104-32.762z" fill="#ffbe9d"/><path d="m170.094 184.067c-.958-2.158-2.284-4.15-3.923-5.892-1.757-1.631-3.788-2.968-6.008-3.951.74.081 1.455.3 2.104.646 3.242 1.468 5.816 4.019 7.238 7.176.324.634.523 1.32.589 2.021z" fill="#263238"/><path d="m134.459 178.529s-2.63-5.335-6.912-7.013-9.827-1.222-11.878-2.364c-2.052-1.143-7.848-2.274-8.417-.374-.568 1.9 3.083 3.173 6.807 4.366 3.724 1.192 5.261 1.717 4.913 3.243-.347 1.526-4.913 4.568-6.259 4.941-1.347.374-5.503.91-5.524 2.739-.022 1.829 1.241 1.596 3.388 1.596 2.208-.135 4.405-.412 6.576-.828 0 0 1.052.243.546.839-.505.596-3.082 2.809-1.578 4.335.49.448 1.08.785 1.726.982.645.198 1.328.253 1.999.159l3.008-.535s1.663 2.809 3.01 1.668c1.347-1.142.4.272.4.272s1.504 2.546 3.082 2.395 7.365-3.295 7.365-3.295l3.44-4.162z" fill="#ffbe9d"/><path d="m120.373 188.734c-.074 0 .252-.636 1.052-1.394.423-.415.777-.889 1.052-1.405.179-.278.275-.597.275-.924s-.096-.647-.275-.925c-.229-.242-.522-.419-.848-.513s-.674-.102-1.004-.023c-.579.139-1.114.414-1.558.799-.767.677-1.178 1.212-1.251 1.152.232-.54.592-1.022 1.053-1.405.455-.482 1.042-.832 1.693-1.01.422-.116.869-.116 1.29.002s.799.349 1.088.665c.286.354.428.796.4 1.243-.026.392-.136.774-.327 1.121-.326.549-.75 1.037-1.251 1.445-.937.708-1.337 1.203-1.389 1.172z" fill="#05050a"/><path d="m126.717 190.32c-.074 0 .778-1.344 2.019-3.507.742-1.254 1.375-2.567 1.895-3.921.336-.762.541-1.57.61-2.394 0-.189-.041-.376-.118-.55-.078-.174-.191-.331-.335-.461-.156-.118-.343-.197-.541-.224-.198-.029-.399-.007-.585.062-.841.233-1.325 1.082-1.788 1.84l-1.346 2.223c-.843 1.384-1.621 2.648-2.304 3.749-.587.784-1.03 1.659-1.306 2.587-.052.335-.052.676 0 1.01 0 0-.073-.071-.136-.252-.092-.265-.121-.543-.084-.819.2-.977.604-1.906 1.189-2.728.652-1.122 1.389-2.406 2.209-3.81l1.315-2.233c.394-.93 1.148-1.676 2.105-2.082.269-.092.562-.114.844-.068.283.046.55.16.775.331.201.18.36.397.47.638.108.241.163.503.162.767-.08.885-.307 1.75-.673 2.567-.551 1.364-1.227 2.68-2.021 3.93-.663 1.071-1.252 1.911-1.662 2.476-.19.319-.423.61-.694.869z" fill="#53433a"/><path d="m135.123 185.28c-.309.62-.611 1.222-.899 1.794.287-.53.588-1.091.899-1.683l.006-.012v.001c.013-.025.027-.05.04-.075zm0 0 .047.023c.355-.664.542-1.398.547-2.144 0-.036-.002-.071-.005-.107-.005.778-.209 1.541-.589 2.228zm.443.232c-.014.029-.029.058-.043.087 0 .001-.001.001-.001.002-.293.587-.58 1.159-.855 1.705.287-.53.588-1.091.898-1.683.423-.758.647-1.605.652-2.466zm0 0c.4-.725.623-1.531.645-2.355z" fill="#eb996e" stroke="#000"/><path d="m114.529 169.566c.126-.06.441.667.063 1.485-.38.819-1.137 1.091-1.18.961-.041-.132.422-.505.706-1.163.284-.657.294-1.253.411-1.283z" fill="#3c3838"/><path d="m137.415 190.464c.446-.546.826-1.139 1.137-1.769.278-.696.422-1.435.421-2.182-.017-.913-.213-1.815-.579-2.657-.725-1.541-1.717-2.952-2.935-4.174-.544-.488-1.026-1.034-1.441-1.627.625.393 1.196.858 1.704 1.385 1.342 1.186 2.416 2.622 3.156 4.224.388.903.585 1.873.578 2.849-.023.804-.216 1.595-.567 2.324-.275.694-.797 1.271-1.474 1.627z" fill="#3c3838"/><path d="m186.672 106.438 13.288-5.002 24.493-1.333 11.521 4.202-15.782 8.419-13.594-.485z" fill="#ffbe9d"/><path d="m270.956 140.867s-5.924-17.442-11.426-27.527c-1.038-1.882-2.485-3.528-4.243-4.826-1.756-1.299-3.783-2.221-5.942-2.702-6.312-1.435-16.507-3.82-22.631-5.709 0 0-6.438 6.446-18.684 6.275-11.973-.173-14.477-2.769-14.477-2.769l-16.739 6.164s-11.9 4.102-13.952 9.165c-2.051 5.064-5.649 33.044-5.649 33.044h17.35l-.328 49.678-3.25 24.919c1.21.202 81.454 3.476 81.454 3.476l-2.82-69.302-.231-13.611z" fill="#ff6a55"/><path d="m221.447 134.116 2.484 17.473 12.047 5.163 8.889-7.286v-16.209z" fill="#000" opacity=".2"/><path d="m244.551 139.08c0 .141-4.997.262-11.173.262s-11.173-.121-11.173-.262c0-.143 5.007-.264 11.173-.264 3.726-.093 7.456-.004 11.173.264z" fill="#263238"/><path d="m165.136 126.152c.06.151.102.307.126.465.085.343.19.789.327 1.334.43 1.67.963 3.313 1.599 4.921.8 2.022 1.925 4.496 3.303 7.226 1.378 2.728 2.495 5.972 3.725 9.438v.081c0 4.153 0 8.69-.095 13.439-.115 10.601-.22 20.211-.294 27.194-.063 3.436-.116 6.245-.148 8.235 0 .94-.052 1.688-.073 2.243-.002.262-.02.521-.053.779-.047-.26-.064-.524-.052-.789 0-.555 0-1.303 0-2.233 0-2.021 0-4.799 0-8.246 0-7.002.083-16.592.146-27.183 0-4.749.085-9.297.128-13.439v.07c-1.211-3.456-2.378-6.669-3.631-9.428-1.207-2.372-2.283-4.803-3.219-7.286-.611-1.626-1.103-3.29-1.473-4.982-.116-.596-.21-1.01-.242-1.364-.043-.154-.068-.313-.074-.475z" fill="#263238"/><path d="m250.661 118.05c.039.49.039.984 0 1.475 0 1.01-.095 2.394-.158 4.041-.137 3.487-.326 8.136-.537 13.279-.21 5.144-.463 9.792-.631 13.278-.095 1.627-.179 3.032-.242 4.042-.001.496-.054.99-.158 1.476-.045-.491-.045-.986 0-1.476 0-1.01 0-2.395.074-4.042.094-3.395.253-8.084.473-13.278.221-5.194.473-9.882.705-13.268.105-1.697.221-3.032.316-4.042-.001-.499.051-.998.158-1.485z" fill="#263238"/><path d="m165.635 128.668c-.303 7.612 2.524 15.03 7.87 20.655-1.631-7.155-5.703-13.814-7.87-20.655z" fill="#000" opacity=".3"/><path d="m200.875 197.276c3.773-.485 7.215-2.325 9.626-5.155 2.541-2.726 4.714-5.747 6.472-8.993 2.274-4.411 3.563-9.231 3.786-14.148-4.67 12.056-11.53 21.576-19.884 28.296z" fill="#000" opacity=".3"/><path d="m222.243 163.744c-.006.151-.031.3-.073.445-.074.344-.168.758-.285 1.254-.115.494-.294 1.202-.535 1.96-.243.758-.485 1.627-.854 2.567-.786 2.206-1.709 4.367-2.766 6.466-1.308 2.568-2.78 5.056-4.408 7.449-1.662 2.376-3.482 4.648-5.451 6.8-1.614 1.746-3.339 3.392-5.165 4.932-.768.677-1.515 1.222-2.104 1.718-.589.494-1.211.898-1.694 1.212l-1.052.718c-.253.16-.389.242-.4.222.095-.117.209-.219.337-.304l1.052-.798c.463-.333 1.052-.758 1.63-1.273.579-.516 1.358-1.071 2.104-1.759 1.782-1.565 3.472-3.225 5.061-4.971 1.929-2.15 3.72-4.412 5.366-6.771 1.625-2.372 3.099-4.836 4.419-7.376 1.072-2.077 2.023-4.209 2.851-6.387.389-.919.652-1.779.915-2.526.263-.748.474-1.395.621-1.93.147-.536.284-.89.39-1.223-.007-.143.006-.285.041-.425z" fill="#263238"/><path d="m219.92 142.059c-.003.238-.034.476-.094.706-.085.506-.211 1.172-.369 2.022-.157.849-.368 1.939-.694 3.162-.326 1.224-.621 2.638-1.115 4.154-.243.758-.484 1.556-.737 2.384-.252.829-.599 1.677-.905 2.557-.609 1.778-1.42 3.618-2.23 5.568-1.889 4.176-4.065 8.228-6.512 12.126-2.501 3.882-5.275 7.597-8.302 11.116-1.43 1.586-2.766 3.113-4.145 4.436-.673.668-1.305 1.344-1.957 1.94l-1.883 1.719c-1.178 1.111-2.346 2.02-3.335 2.85-.989.827-1.873 1.494-2.62 2.02l-1.694 1.233c-.193.15-.396.284-.611.404.165-.18.348-.341.548-.485l1.631-1.304c.726-.555 1.589-1.242 2.556-2.091.968-.85 2.104-1.768 3.273-2.891l1.852-1.738c.641-.606 1.261-1.273 1.924-1.95 1.358-1.334 2.673-2.86 4.094-4.446 6.024-7.001 10.984-14.789 14.729-23.131.821-1.93 1.641-3.759 2.262-5.517.315-.88.663-1.718.936-2.547l.757-2.365c.526-1.506.852-2.9 1.189-4.112.337-1.213.6-2.274.789-3.143s.348-1.485.463-2.022c.05-.222.116-.442.2-.655z" fill="#263238"/><path d="m219.681 236.54s5.713-4.456 7.365-6.476c1.652-2.022 2.736-3.205 2.736-3.205s6.849-1.97 9.363-4.748c2.515-2.779 6.65-6.792 6.65-6.792l8.111 8.166s-4.671 7.284-5.06 9.69c-.39 2.405-3.231 9.024-3.231 9.024l-15.581-8.942s-3.314 4.456-5.439 4.94c-1.736.394-4.788 1.607-4.914-1.657z" fill="#ffbe9d"/><path d="m267.864 141.777s7.943 44.777 5.649 50.032c-2.293 5.255-24.124 39.006-24.124 39.006l-10.08-8.084s15.656-34.358 15.624-37.036c-.031-2.677-5.544-38.561-5.544-38.561z" fill="#ffbe9d"/><path d="m255.133 41.8164.695 1.09c.769 1.231 1.89 2.2229 3.23 2.8594l1.199.5659-1.147.6671c-1.28.7396-2.315 1.8163-2.977 3.1024l-.59 1.1534-.684-1.1023c-.772-1.231-1.897-2.2239-3.24-2.8603l-1.189-.5854 1.136-.6579c1.283-.7416 2.316-1.8224 2.978-3.1116z" fill="#f99628"/><path d="m170.854 19.625.903 1.091c1.022 1.232 2.509 2.2229 4.283 2.8604l1.57.5751-1.501.6579c-1.693.7386-3.058 1.8153-3.934 3.1015l-.779 1.1523-.917-1.1013c-1.016-1.2309-2.498-2.2239-4.267-2.8603l-1.585-.566 1.515-.6568c1.694-.7417 3.059-1.8225 3.934-3.1117z" fill="#f99628"/><path d="m233.066 3.47363.684.74779c.774.83665 1.899 1.50986 3.241 1.94198l1.189.3841-1.137.4454c-1.282.50465-2.315 1.23711-2.977 2.11361l-.589.77434-.694-.74063c-.77-.83563-1.892-1.50885-3.231-1.94097l-1.2-.39228 1.148-.44539c1.282-.50158 2.314-1.232 2.977-2.10543z" fill="#f99628"/><path d="m249.614 90.1582.368.5762c.413.6558 1.011 1.1839 1.725 1.5262l.632.3024-.61.3442c-.679.3974-1.226.9725-1.578 1.657l-.316.6058-.369-.5752c-.41-.6548-1.004-1.184-1.714-1.5262l-.642-.3023.609-.3545c.682-.3944 1.233-.9654 1.589-1.6468z" fill="#f99628"/><path d="m168.477 94.2012.504.8091c.568.9071 1.393 1.6396 2.378 2.1115l.884.4148-.841.4842c-.946.5445-1.708 1.3372-2.199 2.2842l-.431.849-.506-.808c-.567-.9053-1.392-1.6357-2.378-2.1025l-.884-.424.843-.4852c.943-.5425 1.704-1.3352 2.188-2.2842z" fill="#eb996e"/></svg>