<svg fill="none" height="514" viewBox="0 0 557 514" width="557" xmlns="http://www.w3.org/2000/svg" xmlns:xlink="http://www.w3.org/1999/xlink"><filter id="a" color-interpolation-filters="sRGB" filterUnits="userSpaceOnUse" height="511" width="557" x="0" y="3"><feFlood flood-opacity="0" result="BackgroundImageFix"/><feBlend in="SourceGraphic" in2="BackgroundImageFix" mode="normal" result="shape"/><feGaussianBlur result="effect1_foregroundBlur_1580_287" stdDeviation="50"/></filter><linearGradient id="b" gradientUnits="userSpaceOnUse" x1="124.278" x2="432.342" y1="81.8503" y2="435.48"><stop offset="0" stop-color="#b9b9b9" stop-opacity=".05"/><stop offset="1" stop-color="#533916" stop-opacity=".25"/></linearGradient><g filter="url(#a)"><path d="m301.5 103h-46c-85.88 0-155.5 69.62-155.5 155.5s69.62 155.5 155.5 155.5h46c85.88 0 155.5-69.62 155.5-155.5s-69.62-155.5-155.5-155.5z" fill="url(#b)" fill-opacity=".81"/></g><path d="m480.001 314.561c4.38-2.26 9.53-2.55 14.39-1.75 2.61.43 5.33 1.21 7.11 3.18s2.11 5.41.08 7.09c-1.317.895-2.906 1.299-4.49 1.14-3.8 0-8-.71-11.06 1.58-1.74 1.3-2.89 3.47-5 4.11-1.037.24-2.123.137-3.095-.294-.973-.431-1.778-1.167-2.295-2.096-.985-1.911-1.204-4.125-.61-6.19.25-1.436.829-2.793 1.691-3.968.862-1.174 1.984-2.133 3.279-2.802z" fill="#458d23"/><path d="m469.999 295.2c2.68 3.82 7.88 2.56 10.29.22s3.43-5.71 4.36-8.94c2.12-7.37 4.26-15.1 2.68-22.6-.38-2.275-1.376-4.402-2.88-6.15-.766-.858-1.743-1.5-2.835-1.864-1.091-.363-2.258-.434-3.385-.206-2.62.7-4.25 3.26-5.43 5.71-3.474 7.214-5.295 15.113-5.33 23.12 0 3.73.43 7.63 2.53 10.71z" fill="#458d23"/><path d="m462.646 300.68c2.91-3.44 3.46-8.48 2.16-12.8s-4.21-8-7.58-11c-3.968-3.518-8.58-6.235-13.58-8-1.937-.771-4.018-1.112-6.1-1-1.044.058-2.057.371-2.951.911-.895.541-1.643 1.292-2.179 2.189-1.43 2.72-.06 6 1.43 8.72 2.609 4.753 5.589 9.294 8.91 13.58 2.68 3.45 5.74 6.85 9.81 8.41s8.31 1.31 10.43-1.49" fill="#458d23"/><path d="m469.817 352.869c.141-.569.222-1.153.24-1.74.12-1.26.28-2.85.46-4.74.234-2.333.591-4.653 1.07-6.95.623-2.799 1.469-5.545 2.53-8.21 1.039-2.662 2.449-5.163 4.19-7.43 1.418-1.841 3.229-3.344 5.3-4.4 1.403-.697 2.909-1.167 4.46-1.39.584-.019 1.164-.103 1.73-.25-.585-.064-1.175-.064-1.76 0-1.61.124-3.184.533-4.65 1.21-2.184 1.029-4.098 2.553-5.59 4.45-1.819 2.293-3.285 4.844-4.35 7.57-1.074 2.703-1.914 5.494-2.51 8.34-.448 2.33-.756 4.684-.92 7.05-.15 2-.21 3.64-.24 4.77-.046.574-.033 1.15.04 1.72z" fill="#101010"/><path d="m470.15 349.22c.03-.266.03-.535 0-.8v-2.31c0-2 0-4.89.1-8.47.18-7.15.79-14.84 2-25.69 1.13-10.2 2.64-22.07 4.23-29.79.34-1.76.69-3.34 1-4.72s.58-2.58.83-3.55l.54-2.24c.079-.26.126-.529.14-.8-.118.243-.212.498-.28.76-.18.58-.4 1.31-.67 2.21s-.6 2.14-.95 3.53-.74 2.95-1.11 4.7c-1.976 9.127-3.462 18.353-4.45 27.64-1.19 10.88-1.73 20.77-1.78 27.94 0 3.59 0 6.49.13 8.49 0 .94.1 1.7.14 2.3.007.271.051.54.13.8z" fill="#6a6a6a"/><path d="m470.185 330.13c.061-.802.061-1.608 0-2.41-.09-1.54-.31-3.78-.74-6.52-.527-3.204-1.235-6.376-2.12-9.5-1.044-3.847-2.381-7.608-4-11.25-2.753-6.719-6.707-12.88-11.67-18.18-.859-.91-1.777-1.762-2.75-2.55-.42-.36-.79-.71-1.17-1l-1.06-.74c-.634-.481-1.302-.916-2-1.3-.12.16 2.87 1.92 6.64 5.93 4.795 5.346 8.643 11.47 11.38 18.11 1.584 3.622 2.92 7.347 4 11.15.911 3.096 1.666 6.237 2.26 9.41.5 2.71.78 4.92 1 6.46.015.801.092 1.6.23 2.39z" fill="#101010"/><path d="m451.734 363.811 1.91 26.21h33.67l1.92-26.21z" fill="#848484"/><path d="m493.244 353.48h-44.76v10.33h44.76z" fill="#777"/><path d="m448.484 389.01v2.87h2.1 41.92v-2.87z" fill="#787878"/><path d="m452.646 396.921-2.06-5.04h40.32l-2.41 5.04z" fill="#6f6e6e"/><path d="m488.606 372.371s-.05.09-.16.25l-.5.66c-.48.61-1.13 1.46-2 2.51l-.09.11-.08-.11-4.78-6.67h.28l-4.75 6.72-.15.21-.16-.2-5.63-6.69h.32c-.09.13-.2.26-.31.39l-5 6.31-.16.21-.16-.22c-1.71-2.41-3.3-4.67-4.74-6.71h.27l-5.84 6.66-.11.12-.08-.14-1.83-3.07-.47-.82c-.057-.091-.104-.189-.14-.29 0 0 .07.08.2.26l.51.79c.47.73 1.12 1.74 1.93 3h-.19l5.76-6.74.14-.17.13.18 4.79 6.69h-.32l5-6.32.31-.39.16-.2.16.2 5.61 6.71h-.31l4.79-6.68.14-.2.14.2 4.71 6.73h-.17l2-2.45.55-.63c.068-.079.145-.149.23-.21z" fill="#f4f1f1"/><path d="m489.696 363.64c0 .11-8.43.21-18.84.21s-18.84-.1-18.84-.21 8.44-.21 18.84-.21 18.84.09 18.84.21z" fill="#959595"/><path d="m491.395 392.161c0 .12-9.16.21-20.47.21s-20.48-.09-20.48-.21 9.17-.21 20.48-.21 20.47.05 20.47.21z" fill="#848484"/><path d="m221.107 104.41.839 1.417c.933 1.58 2.306 2.855 3.953 3.669l1.421.723-1.421.836c-1.566.939-2.828 2.306-3.64 3.938l-.725 1.417-.839-1.417c-.946-1.557-2.316-2.815-3.953-3.627l-1.422-.722 1.422-.836c1.567-.939 2.83-2.306 3.64-3.939z" fill="#dbdee4"/><path d="m244.858 80 .559.9445c.622 1.0531 1.537 1.9032 2.635 2.4463l.948.4817-.948.5573c-1.043.6262-1.885 1.5376-2.426 2.6257l-.484.9445-.559-.9445c-.63-1.038-1.544-1.8768-2.635-2.418l-.948-.4817.948-.5572c1.044-.6262 1.886-1.5377 2.426-2.6258z" fill="#e9eaed"/><path d="m235.521 218.52 21.31-4.11 40.88 9.38 20.72 4.32.3 28.31-46.22 8.51-31.19-9.24-11.79-17.35z" fill="#ffbe9d"/><path d="m220.374 221.342 20.11-4.74s14.22 44 49.31 42.07c28.6-1.55 28.63-30.56 28.63-30.56l20.91 3.69s8.77 53.09-.84 90.33c-8 31-15.1 73.48-15.1 73.48h-138.91z" fill="#fb9e2d"/><path d="m424.147 357.371s-57.29-100.37-67.6-113.25c-11.29-14.1-20.3-12.47-20.3-12.47l-6.059 67.61 48.709 69.11 11.611 4.19z" fill="#fb9e2d"/><path d="m222.778 220.781s-32.56 2.6-44.24 56c-5.28 24.13-12 52.41-13.88 71.41-1.4 13.79 7.11 28.13 20.86 29.89l17.26 3.2c4.56.847 9.271-.088 13.162-2.61 3.892-2.523 6.669-6.442 7.758-10.95l5.83-24.14-15.53-5.22 3.59-71.91z" fill="#fb9e2d"/><path d="m341.994 269.121c.077.241.127.489.15.74.09.54.19 1.26.33 2.15.07.47.14 1 .23 1.56s.12 1.19.18 1.86c.14 1.33.3 2.85.37 4.54.242 3.952.268 7.915.08 11.87-.233 4.841-.714 9.668-1.44 14.46-.75 5.1-1.69 9.92-2.64 14.28s-1.9 8.27-2.71 11.55-1.52 5.91-2 7.73c-.24.87-.43 1.57-.58 2.09-.06.245-.137.486-.23.72.021-.25.064-.498.13-.74.12-.54.29-1.24.49-2.12l1.84-7.81c.77-3.29 1.69-7.2 2.6-11.56s1.85-9.17 2.6-14.26 1.26-10 1.47-14.41.23-8.46 0-11.82c0-1.68-.18-3.2-.29-4.54-.05-.66-.1-1.28-.14-1.86s-.13-1.08-.18-1.56c-.1-.89-.17-1.61-.23-2.15-.026-.239-.036-.48-.03-.72z" fill="#263238"/><path d="m231.046 346.161c-.069-.142-.126-.289-.17-.44-.1-.33-.24-.75-.41-1.29l-.64-2.07c-.18-.942-.577-1.829-1.16-2.59-.856-.822-1.88-1.449-3-1.84-1.317-.498-2.676-.88-4.06-1.14-3.3-.612-6.645-.946-10-1h-.27v-.26l2.94-19.17c1.89-12.07 3.61-23 4.86-31 .65-3.92 1.17-7.11 1.54-9.37.18-1.07.33-1.92.44-2.55 0-.26.09-.48.13-.66.007-.077.027-.151.06-.22.015.075.015.154 0 .23 0 .18 0 .4-.08.67-.08.63-.2 1.48-.34 2.56-.33 2.27-.8 5.47-1.37 9.4-1.22 8-2.88 18.91-4.72 31-1.08 6.9-2.09 13.43-3 19.16l-.23-.27c3.396.087 6.778.465 10.11 1.13 1.403.28 2.779.684 4.11 1.21 1.166.427 2.222 1.111 3.09 2 .357.401.623.875.78 1.39l.37 1.33c.23.81.42 1.51.58 2.09s.26 1 .34 1.31c.045.126.079.257.1.39z" fill="#263238"/><path d="m186.195 354.32c.032-.455.12-.905.26-1.34.315-1.205.736-2.38 1.26-3.51 1.706-3.777 4.364-7.045 7.715-9.484 3.35-2.438 7.277-3.964 11.395-4.426 1.234-.151 2.479-.191 3.72-.12.459.006.915.063 1.36.17-1.671.01-3.34.113-5 .31-4.024.555-7.849 2.096-11.134 4.487-3.286 2.39-5.929 5.555-7.696 9.213-.71 1.532-1.337 3.101-1.88 4.7z" fill="#263238"/><path d="m193.727 327.74c.254-.065.517-.088.78-.07.718-.013 1.436.02 2.15.1 2.361.238 4.675.817 6.87 1.72 2.194.908 4.248 2.124 6.1 3.61.561.444 1.092.925 1.59 1.44.35.37.54.58.51.61s-.88-.7-2.32-1.76c-3.777-2.767-8.17-4.572-12.8-5.26-1.77-.26-2.88-.3-2.88-.39z" fill="#263238"/><path d="m227.428 258.671c-.066-.474-.089-.952-.07-1.43 0-.92-.06-2.24-.18-3.87-.3-4.253-1.031-8.464-2.18-12.57-1.166-4.099-2.737-8.072-4.69-11.86-.76-1.45-1.4-2.61-1.87-3.39-.264-.399-.491-.821-.68-1.26.319.356.604.741.85 1.15.53.76 1.22 1.89 2 3.33 4.162 7.553 6.523 15.965 6.9 24.58.07 1.64.06 3 0 3.89.02.478-.006.957-.08 1.43z" fill="#263238"/><path d="m340.516 313.91c8.3-14.07 8.48-32.35 1.23-47 2.331 15.609 1.83 31.51-1.48 46.94" fill="#000" opacity=".3"/><path d="m266.615 329.821c-6.3 1.85-15 2.3-21.17 0 4.81 6.83 14.08 9.3 22.12 7.08s15.46-10.27 16.08-18.6c-3.89 5.26-10.72 9.7-17.03 11.52z" fill="#000" opacity=".3"/><path d="m289.794 307.1c-.029.192-.079.379-.15.56-.12.36-.26.91-.54 1.57-.729 1.911-1.636 3.749-2.71 5.49-1.583 2.596-3.495 4.976-5.69 7.08-5.383 5.241-12.333 8.577-19.79 9.5-3.014.391-6.066.391-9.08 0-2.035-.253-4.044-.692-6-1.31-.7-.21-1.21-.44-1.57-.57-.182-.062-.36-.139-.53-.23.727.163 1.444.364 2.15.6 8.467 2.354 17.497 1.606 25.46-2.11 7.884-3.876 14.113-10.455 17.55-18.54.58-1.3.85-2.06.9-2.04z" fill="#263238"/><path d="m219.559 377.111s-.07.11-.25.27c-.252.251-.523.482-.81.69-1.046.781-2.206 1.394-3.44 1.82-1.834.61-3.748.947-5.68 1-2.336.074-4.675-.009-7-.25-5-.43-9.44-1.16-12.65-1.73-1.61-.29-2.91-.54-3.8-.73-.474-.064-.94-.178-1.39-.34.476.008.951.054 1.42.14l3.83.56c3.22.49 7.68 1.15 12.64 1.58 2.325.241 4.663.337 7 .29 1.893-.039 3.771-.342 5.58-.9 1.628-.567 3.162-1.376 4.55-2.4z" fill="#263238"/><path d="m332.498 114 4.11-4c5.47 2.38 8 8.73 8.93 14.63s.79 12.1 3.3 17.52c1.92 4.17 5.41 8 5 12.61-.39 4.35-4.33 7.87-4.35 12.24 0 4.21 3.5 7.44 5.54 11.12 4.13 7.45 6.81 37.93 4.65 46.18-18.17-1.57-50.35-3.51-68.53-7.69 4.79-31.32 24.96-75.52 41.35-102.61z" fill="#263238"/><path d="m340.63 141.921c1.26-21.29-14.2-40.77-35.75-43.3404-22.87-2.72-43.1 13.6604-45 35.9404l-5.36 89.94c-.098 1.738.388 3.459 1.38 4.89 5.28 7.72 14.84 13.76 23.39 14.95 8.27 1.15 16.66-1 23.7-4.92 1.168-.661 2.142-1.616 2.825-2.77.682-1.155 1.05-2.469 1.065-3.81l.37-20.13c-.001-.018.001-.035.007-.052.006-.016.015-.031.028-.044.012-.012.027-.022.044-.028.016-.006.034-.008.051-.006 1.884.142 3.777.088 5.65-.16 5.32-1.3 18.89-6.52 23.45-26.44 1.52-6.6 3.04-25.35 4.15-44.02z" fill="#ffbe9d"/><path d="m311.047 171.33c0-.2 2.23-.42 5.84-.62.91 0 1.78-.15 2-.75.134-.917-.02-1.853-.44-2.68l-2.24-7c-3.1-9.92-5.28-18.05-4.88-18.16s3.25 7.82 6.35 17.74c.74 2.45 1.45 4.78 2.13 7 .28 1 .79 2.22.24 3.53-.153.306-.374.572-.647.778-.272.206-.588.347-.923.412-.51.102-1.031.139-1.55.11-3.64-.02-5.87-.16-5.88-.36z" fill="#263238"/><path d="m334.751 149.45c-.39.43-2.75-1.55-6.13-1.65s-5.9 1.67-6.26 1.21c-.18-.21.23-1 1.33-1.82 1.453-1.044 3.211-1.578 5-1.52 1.787.062 3.501.72 4.87 1.87 1.05.9 1.44 1.72 1.19 1.91z" fill="#263238"/><path d="m300.411 150.311c-.46.43-2.919-1.8-6.609-2.12s-6.56 1.37-6.93.87c-.18-.23.319-1 1.569-1.82 1.674-.992 3.623-1.426 5.561-1.24 1.939.172 3.77.969 5.219 2.27 1.09.97 1.41 1.85 1.19 2.04z" fill="#263238"/><path d="m307.244 212.531s-13.78.15-30.26-11.17c0 0 4.26 18.18 30.15 17.61z" fill="#eb996e"/><path d="m309.001 179.631c-.627-.885-1.467-1.599-2.442-2.076s-2.053-.702-3.138-.654c-.782.011-1.555.18-2.271.496-.717.316-1.362.773-1.899 1.344-.512.546-.84 1.239-.938 1.982-.099.742.037 1.497.388 2.158.87 1.39 2.85 1.84 4.58 1.48 1.714-.469 3.318-1.271 4.72-2.36.417-.267.783-.605 1.08-1 .141-.185.224-.407.238-.638s-.041-.462-.158-.662" fill="#eb996e"/><path d="m300.446 173c.58 0 .35 3.8 3.47 6.72s7.25 2.78 7.25 3.31c0 .25-1 .68-2.7.6-2.254-.125-4.395-1.026-6.06-2.55-1.586-1.45-2.541-3.464-2.66-5.61-.05-1.59.44-2.47.7-2.47z" fill="#263238"/><path d="m300.994 136.371c-.42.92-3.93.21-8.12.38s-7.64 1-8.14.15c-.21-.43.43-1.27 1.86-2.09 1.902-.991 4.002-1.541 6.145-1.61s4.274.344 6.235 1.21c1.45.72 2.16 1.52 2.02 1.96z" fill="#263238"/><path d="m335.48 137.12c-.72.8-3.57 0-7 0s-6.31.57-7-.26c-.3-.4.15-1.2 1.41-2 1.745-.915 3.692-1.372 5.661-1.33s3.895.582 5.599 1.57c1.24.81 1.65 1.63 1.33 2.02z" fill="#263238"/><path d="m307.999 94.0806c-1.86-3.16-5.31-4.6-9.17-5.18-15.76-2.39-33.34 7.1-42.17 20.3604-8.83 13.26-9.3 33.05-2.84 47.61l9.83-6.14c19.73-8.14 33.66-27.15 46.35-46.79 1.77-2.67-.35-7.1104-2-9.8604z" fill="#263238"/><path d="m332.275 102.751c-6.59-7.4998-11.38-14.9998-25.06-9.7598-2 3.83 2 8.7998 5.44 11.6998 5 4.26 9.29 7.13 12.55 10.18 6.58 6.15 14.06 26.84 14.71 38.13 0 .71 1.25-9.69 2-9.8.92-.14 4.63-4.68 4.12-10.88-1.76-21.19-7.17-22.08-13.76-29.57z" fill="#263238"/><path d="m298.867 88.9007c1.028-.2 2.091-.11 3.07.26 2.421.743 4.579 2.162 6.22 4.09.469.542.884 1.128 1.24 1.75.311.601.553 1.235.72 1.89.357 1.056.628 2.14.81 3.2403.27 1.93-.19 3.1-.29 3.07s.05-1.18-.37-2.95c-.277-1.0473-.611-2.0793-1-3.0903-.177-.591-.412-1.164-.7-1.71-.338-.573-.726-1.115-1.16-1.62-1.548-1.794-3.507-3.187-5.71-4.06-1.7-.61-2.85-.71-2.83-.87z" fill="#455a64"/><path d="m331.625 156.001c.001.767-.291 1.505-.818 2.063-.526.558-1.246.893-2.012.937-.38.035-.764-.005-1.128-.12-.365-.115-.702-.301-.994-.547-.292-.247-.531-.55-.704-.89-.173-.341-.276-.712-.304-1.093-.019-.779.265-1.535.793-2.108s1.259-.918 2.037-.962c.386-.037.776.005 1.145.123.37.118.711.31 1.004.565.293.254.531.566.699.915.169.349.265.729.282 1.117z" fill="#263238"/><path d="m298.688 156.161c.019.78-.265 1.536-.794 2.109-.528.573-1.258.918-2.036.961-.38.037-.763-.002-1.128-.115-.364-.114-.702-.299-.994-.545-.291-.246-.531-.548-.704-.888s-.277-.711-.304-1.092c-.022-.78.261-1.539.789-2.114.529-.575 1.261-.922 2.041-.966.38-.037.764.003 1.129.117s.704.3.996.547c.291.247.531.55.703.892.173.341.275.713.302 1.094z" fill="#263238"/><path d="m208.048 181.191c1.86-3.06 4-5.94 7.4-7.21s7.26-2 9.93-4.48c4.19-3.85 4-10.25 3.62-15.83s-.48-12 3.8-15.75c3.58-3.13 9.27-3.41 12.37-7 2.07-2.39 2.48-5.69 3.2-8.74 2-8.17 6.47-22.4396 30.55-30.6498l-21.3 80.9398c1.59.45 5.39 4.07 5.6 6.52.19 2.29-.8 4.61-.82 6.91 0 2.81 3.06 4.49 5 6.57 2.46 2.65 3.22 6.47 2.84 10-.788 4.825-2.079 9.554-3.85 14.11-19.76-2-48.6-2.64-63.66-15.24-2.73-2.28 1.18-13.34 5.32-20.15z" fill="#263238"/><path d="m263.687 150.73c-.37-.2-14.92-6-15.85 9.35s14.64 13.07 14.69 12.64 1.16-21.99 1.16-21.99z" fill="#ffbe9d"/><path d="m258.205 166.641c-.07-.06-.28.17-.75.34-.65.238-1.368.213-2-.07-1.58-.7-2.79-3.35-2.7-6.11.051-1.315.392-2.602 1-3.77.174-.469.459-.889.83-1.225.37-.336.816-.577 1.3-.705.312-.062.636-.013.915.138.28.152.497.397.615.692.18.44.06.74.14.77s.35-.24.26-.88c-.058-.386-.249-.74-.54-1-.401-.345-.922-.518-1.45-.48-.636.085-1.24.331-1.753.717-.513.385-.918.896-1.177 1.483-.731 1.29-1.136 2.738-1.18 4.22-.09 3.09 1.31 6.07 3.49 6.84.403.147.834.199 1.26.154s.837-.186 1.2-.414c.49-.34.59-.67.54-.7z" fill="#eb996e"/><path d="m318.141 154.741c.081-1.154.245-2.3.49-3.43.462-1.892 1.314-3.665 2.501-5.209 1.187-1.543 2.682-2.822 4.391-3.754 1.709-.933 3.594-1.499 5.534-1.662s3.893.08 5.734.715c1.267.427 2.461 1.048 3.54 1.84 1.151.796 2.165 1.775 3 2.9 1.791 2.346 2.784 5.205 2.83 8.157.047 2.952-.854 5.841-2.57 8.243-.793 1.148-1.766 2.161-2.88 3-1.051.828-2.225 1.486-3.48 1.95-2.321.893-4.838 1.149-7.29.74-2.139-.353-4.164-1.207-5.91-2.49-2.557-1.86-4.413-4.527-5.27-7.57-.276-1.126-.477-2.268-.6-3.42-.005.076-.005.153 0 .23v.68c.008.365.045.73.11 1.09.055.496.148.988.28 1.47.802 3.131 2.656 5.891 5.25 7.82 1.921 1.437 4.174 2.365 6.55 2.697 2.376.333 4.798.058 7.04-.797 2.661-1.006 4.962-2.782 6.61-5.1 1.783-2.489 2.719-5.484 2.67-8.545-.048-3.061-1.079-6.025-2.94-8.455-.867-1.16-1.913-2.172-3.1-3-1.109-.796-2.333-1.417-3.63-1.84-2.268-.784-4.696-.981-7.06-.574-2.364.408-4.586 1.406-6.46 2.904-2.537 2.012-4.303 4.837-5 8-.115.487-.195.981-.24 1.48-.049.364-.073.732-.07 1.1v.67c-.013.052-.023.106-.03.16z" fill="#455a64"/><path d="m279.498 155.361c.081-1.153.241-2.299.48-3.43.752-3.068 2.513-5.793 5-7.74 1.707-1.338 3.704-2.256 5.83-2.68 2.439-.482 4.962-.306 7.31.51 1.266.432 2.46 1.052 3.54 1.84 1.15.799 2.163 1.778 3 2.9 1.79 2.345 2.782 5.201 2.83 8.151.049 2.949-.848 5.836-2.56 8.239-.797 1.148-1.772 2.16-2.89 3-1.05.828-2.225 1.487-3.48 1.95-2.32.894-4.837 1.149-7.29.74-2.135-.353-4.157-1.206-5.9-2.49-2.558-1.86-4.418-4.526-5.28-7.57-.275-1.125-.472-2.268-.59-3.42-.01.076-.01.154 0 .23v.68c0 .366.033.73.1 1.09.054.497.151.989.29 1.47.795 3.135 2.65 5.898 5.25 7.82 1.769 1.328 3.824 2.225 6 2.62 2.53.436 5.13.187 7.53-.72 2.666-.998 4.969-2.775 6.61-5.1 1.783-2.488 2.72-5.484 2.671-8.545-.048-3.06-1.079-6.025-2.941-8.455-1.72-2.267-4.077-3.97-6.77-4.89-2.429-.83-5.036-.993-7.55-.47-2.677.55-5.138 1.861-7.089 3.775-1.951 1.913-3.309 4.349-3.911 7.015-.124.485-.204.98-.24 1.48-.059.363-.082.732-.07 1.1v.67c.023.084.064.163.12.23z" fill="#455a64"/><path d="m307.102 154.311c.08.05.48-.6 1.41-1.35 1.192-.988 2.685-1.542 4.233-1.569 1.549-.027 3.06.473 4.287 1.419 1 .71 1.38 1.35 1.45 1.29-.249-.631-.672-1.179-1.22-1.58-1.253-1.096-2.869-1.686-4.533-1.655-1.665.032-3.257.683-4.467 1.825-.531.421-.933.982-1.16 1.62z" fill="#455a64"/><path d="m260.164 149.75c.92.292 1.869.487 2.83.58 1.77.28 4.22.54 6.92.78l6.93.62c.95.147 1.909.22 2.87.22-.92-.294-1.869-.492-2.83-.59-1.76-.27-4.21-.53-6.92-.77l-6.92-.62c-.952-.152-1.916-.226-2.88-.22z" fill="#455a64"/><path d="m340.461 163.39c1.248-1.442 2.26-3.072 3-4.83.581-1.82.874-3.72.87-5.63.222.538.325 1.118.3 1.7.036 1.4-.195 2.795-.68 4.11-.484 1.314-1.217 2.523-2.16 3.56-.73.78-1.29 1.14-1.33 1.09z" fill="#b4b4b4"/><path d="m342.882 147.591c.08-.12.65.17 1 .85s.2 1.3.06 1.29-.26-.52-.53-1.07-.62-.96-.53-1.07z" fill="#b4b4b4"/><path d="m305.156 160.36c-.08 0 .2-.8.43-2.09.59-3.384-.06-6.866-1.83-9.81-.67-1.12-1.21-1.74-1.15-1.8.589.43 1.086.974 1.46 1.6 1.004 1.454 1.695 3.101 2.027 4.837.332 1.735.299 3.521-.097 5.243-.141.723-.426 1.41-.84 2.02z" fill="#b4b4b4"/><path d="m252 172.51s-.21.3-.51.85c-.43.781-.657 1.658-.66 2.55-.016.646.102 1.289.346 1.888s.61 1.141 1.074 1.592c.559.556 1.242.971 1.993 1.213s1.548.302 2.327.177c.774-.16 1.5-.496 2.121-.984.621-.487 1.121-1.113 1.459-1.826.273-.587.424-1.222.443-1.869s-.094-1.29-.333-1.891c-.316-.832-.831-1.574-1.5-2.16-.48-.41-.8-.58-.78-.62.33.084.638.242.9.46.763.554 1.358 1.309 1.72 2.18.29.644.44 1.343.44 2.05 0 .706-.15 1.405-.44 2.05-.344.803-.882 1.509-1.567 2.053-.684.545-1.492.91-2.353 1.065-.86.155-1.746.093-2.576-.179-.831-.272-1.582-.746-2.184-1.379-.498-.5-.885-1.1-1.135-1.76s-.357-1.366-.315-2.07c.034-.942.329-1.855.85-2.64.35-.55.68-.77.68-.75z" fill="#101010"/><path d="m336.47 184.311c.846.339 1.779.395 2.66.16.942-.264 1.791-.787 2.45-1.51.812-.877 1.36-1.965 1.58-3.14.229-1.175.082-2.393-.42-3.48-.412-.891-1.024-1.675-1.79-2.29-.739-.54-1.546-.981-2.4-1.31.254-.023.511.012.75.1.676.188 1.313.496 1.88.91.849.624 1.535 1.444 2 2.39.571 1.169.747 2.493.5 3.77-.245 1.277-.856 2.455-1.76 3.39-.733.765-1.676 1.297-2.71 1.53-.693.164-1.418.126-2.09-.11-.47-.19-.67-.39-.65-.41z" fill="#101010"/><path d="m281 382.871 14.83 4.39s8.18 3.51 12.16 4.42c4.94 1.13 8.31-.4 8.49-3.15s-3.66-3.1-3.66-3.1c-3.264-1.244-6.438-2.71-9.5-4.39-2.223-1.545-4.041-3.603-5.3-6l5.3.73s11.15 8 15.35 10.42 5.12-1.83 5.48-3.11-12.42-14.25-12.42-14.25 12.24 7.86 14.43 9.82 5.49 2.6 6.22 1.33 2.74-1.28 0-6.7-24.67-20-24.67-20l6-1.28 6.58 2.93c.458 2.257 1.392 4.392 2.74 6.26 2.37 3.52 6.58 0 6.58 0l-2.61-13.5-13-8.14s-13.52 1.65-15.53 2.56-4.21 4.74-4.21 4.74l-3.65 1.48c-5.67 1.64-5.48 7.31-7.31 7.49s-55.17-10.22-55.17-10.22l-4.83-1.26c-8 6.07-11.19 16.1-12.6 25 0 0-1.47 4.36 0 6.76z" fill="#ffbe9d"/><g fill="#eb996e"><path d="m271.205 373.38c-.063-.286-.08-.579-.05-.87-.004-.336.027-.671.09-1 .047-.454.134-.902.26-1.34.751-2.525 2.022-4.865 3.73-6.87 1.659-2.016 3.508-3.867 5.52-5.53.798-.727 1.665-1.374 2.59-1.93-.74.766-1.524 1.487-2.35 2.16-1.923 1.723-3.715 3.589-5.36 5.58-1.66 1.962-2.939 4.217-3.77 6.65-.59 1.91-.55 3.16-.66 3.15z"/><path d="m294.304 346.852s-.44.23-1.12.78c-.948.8-1.767 1.741-2.43 2.79-.478.708-.887 1.462-1.22 2.25-.307.926-.502 1.886-.58 2.86-.137 1.131-.542 2.215-1.18 3.16-.724.914-1.319 1.924-1.77 3-.685 1.817-.685 3.822 0 5.64l.07.19-.17.11c-2.318 1.497-3.997 3.803-4.71 6.47-.246 1.051-.396 2.122-.45 3.2-.081-.28-.115-.57-.1-.86-.011-.811.077-1.621.26-2.41.638-2.802 2.337-5.246 4.74-6.82l-.1.3c-.724-1.935-.724-4.066 0-6 .461-1.107 1.081-2.142 1.84-3.07.608-.896.992-1.925 1.12-3 .121-1.906.818-3.73 2-5.23.706-1.063 1.593-1.994 2.62-2.75.277-.209.579-.38.9-.51.089-.046.183-.079.28-.1z"/><path d="m307.148 352.831c-1.279.166-2.58.028-3.796-.403s-2.314-1.142-3.204-2.077c.1-.12 1.44.91 3.37 1.58s3.63.75 3.63.9z"/><path d="m310.565 367.6c-1.931-.542-3.809-1.258-5.61-2.14-1.871-.719-3.678-1.595-5.4-2.62 1.926.556 3.802 1.272 5.61 2.14 1.871.718 3.677 1.595 5.4 2.62z"/><path d="m298.539 374.901c-1.941-.658-3.838-1.44-5.68-2.34 1.044.046 2.066.312 3 .78.997.318 1.912.85 2.68 1.56z"/><path d="m308.732 368.551c-.861.462-1.618 1.095-2.226 1.86-.607.765-1.051 1.647-1.304 2.59-.07 0-.13-.35 0-.91.141-.734.457-1.422.919-2.009.463-.586 1.06-1.053 1.741-1.361.49-.21.85-.23.87-.17z"/><path d="m314.087 360.441c.06.14-.92.64-1.58 1.76-.336.711-.616 1.446-.84 2.2-.142-.413-.179-.854-.109-1.285.069-.431.244-.838.509-1.185.76-1.28 2-1.63 2.02-1.49z"/><path d="m312.574 345.751c-.05 0-.25-.23-.4-.71-.18-.655-.18-1.345 0-2 .174-.646.52-1.234 1-1.7.36-.35.66-.47.69-.42-.477.698-.863 1.454-1.15 2.25-.149.851-.196 1.717-.14 2.58z"/></g><path d="m420.688 350.35s-.67-13.12-14.27-15.84-37.42 8.84-37.42 8.84l-66.74 46.51 2 5.75 67.74-9.44 6.2 2.38 47.58-31.26 44.9-32.46-5-3.91s-12.58 8.67-20.9 12.4-20.35 10.27-24.09 17.03z" fill="#959595"/><path d="m301.227 397.511 56.48-35.09 59.71-9.59s3 4.34 8.07 3.28l49.1-34 .93 2.05-95.22 66.9c-1.399.511-2.91.63-4.371.345-1.461-.286-2.816-.965-3.919-1.965z" fill="#455a64"/><path d="m417.418 352.83c-.136.147-.29.275-.46.38l-1.38 1c-1.2.86-2.93 2.11-5 3.69-4.24 3.15-10 7.64-16.22 12.73s-11.81 9.82-15.81 13.27l-4.77 4.1-1.3 1.1c-.141.14-.299.261-.47.36 0 0 .12-.16.4-.43l1.23-1.18c1.08-1 2.65-2.46 4.63-4.21 3.94-3.52 9.47-8.28 15.72-13.39s12-9.55 16.33-12.63c2.14-1.55 3.91-2.75 5.15-3.56l1.43-.92c.163-.119.337-.223.52-.31z" fill="#263238"/><path d="m416.807 345.53c-5.41-5.81-13.93-7.88-21.85-7.26s-15.43 3.57-22.82 6.5l-69.09 47.29.62 1.78 69.46-47s15.52-5 22.39-5.86c11.48-1.43 21.29 4.55 21.29 4.55z" fill="#101010"/><path d="m427.648 351.75 33.22-22.41s-27.22 14.16-33.22 22.41z" fill="#101010"/><path d="m303.047 392.061c.085-.086.179-.164.28-.23l.86-.61 3.31-2.33 12.24-8.48 40.5-27.81 11.76-8c6.691-3.019 13.753-5.141 21-6.31 5.854-.827 11.823.016 17.22 2.43 2.018.939 3.877 2.187 5.51 3.7 1.221 1.138 2.26 2.457 3.08 3.91.516.911.919 1.882 1.2 2.89.07.33.13.59.18.79.022.089.039.179.05.27-.36-1.349-.891-2.646-1.58-3.86-.84-1.415-1.885-2.699-3.1-3.81-1.637-1.466-3.484-2.68-5.48-3.6-5.345-2.323-11.232-3.113-17-2.28-7.189 1.178-14.195 3.286-20.84 6.27h.05l-11.76 8-40.53 27.71-12.34 8.35-3.36 2.24-.89.58c-.114.072-.234.133-.36.18z" fill="#263238"/><path d="m363.531 356.311c.158-.131.333-.238.52-.32.35-.19.87-.48 1.54-.82 1.35-.7 3.32-1.68 5.8-2.8 6.431-3.014 13.255-5.105 20.27-6.21 7.053-1.065 14.258-.406 21 1.92 2.026.731 3.973 1.665 5.81 2.79.66.38 1.13.75 1.46 1 .175.107.339.231.49.37 0 0-.73-.42-2.05-1.17-1.86-1.045-3.811-1.918-5.83-2.61-6.711-2.202-13.845-2.801-20.83-1.75-6.965 1.101-13.754 3.119-20.19 6-2.49 1.08-4.48 2-5.86 2.65l-1.58.73c-.175.091-.36.165-.55.22z" fill="#263238"/><path d="m468.9 323.42s-.14.13-.43.33l-1.29.86-4.79 3.08c-4.06 2.6-9.65 6.19-15.78 10.23s-11.61 7.75-15.61 10.45l-4.73 3.18-1.3.85c-.145.106-.303.194-.47.26.124-.131.261-.248.41-.35l1.25-.93c1.08-.8 2.66-1.93 4.63-3.32 3.94-2.77 9.42-6.54 15.56-10.58s11.77-7.58 15.87-10.1c2.05-1.26 3.72-2.26 4.88-2.94l1.35-.78c.142-.094.293-.174.45-.24z" fill="#263238"/><path d="m438.68 359.381c-.679 1.633-1.541 3.183-2.571 4.62-1.28 1.52-5.459 3.64-5.789 6.53s.35 9.67-4.17 14.83c-2.914 3.21-6.601 5.62-10.71 7l-17.83-1.74-28.48-11.21c-.637-.161-1.185-.565-1.525-1.127-.341-.561-.447-1.234-.295-1.873.176-.694.556-1.32 1.09-1.798.535-.477 1.2-.784 1.91-.882l.68-.11s-1.64-1.34.71-3.69c2-2 6.27-.87 8.47-.14s15.1 6.12 17.41 6.95c2.05.73 3.63 1.38 3.63 1.38s-16.51-11.14-16.74-12.6c-.27-1.75-.09-2.55 1.6-3.77 2-1.45 5.28.1 8.46 1.44 2.37 1 17.48 8.46 17.48 8.46s.68-.66 0-2-5.7-7.8-6.49-9-1-1.88-.21-2.89c1.1-1.43 4-2.11 6.67.33 1.69 1.56 7.7 5.6 7.7 5.6l27.74-20.24s3.45-.09 2.25 4.72-10.99 11.21-10.99 11.21z" fill="#ffbe9d"/><g fill="#eb996e"><path d="m418 376.251c-1.11-.247-2.144-.757-3.014-1.489-.87-.731-1.552-1.661-1.986-2.711.13-.08.94 1.16 2.32 2.31s2.75 1.74 2.68 1.89z"/><path d="m420.281 364.181c0-.06.37-.17 1-.09.786.114 1.526.442 2.138.948s1.073 1.171 1.332 1.922c.19.58.16 1 .09 1-.419-.934-1.017-1.777-1.76-2.48-.84-.611-1.791-1.053-2.8-1.3z"/><path d="m421.59 369.751c-.15 0-.22-1.49-.81-3.19s-1.42-2.95-1.3-3c.879.748 1.504 1.751 1.79 2.87.448 1.047.559 2.206.32 3.32z"/><path d="m437.998 357.94c0 .05-.35-.15-.71-.63-.457-.638-.742-1.381-.83-2.16-.087-.779.026-1.567.33-2.29.24-.54.51-.81.56-.77-.356.958-.483 1.986-.37 3.002.112 1.016.462 1.991 1.02 2.848z"/><path d="m412.924 383.23c-.642.147-1.308.147-1.95 0-1.554-.275-3.045-.83-4.4-1.64-1.349-.792-2.618-1.713-3.79-2.75-.522-.382-.983-.841-1.37-1.36.576.29 1.113.649 1.6 1.07 1.219.941 2.495 1.806 3.82 2.59 1.312.778 2.73 1.361 4.21 1.73 1.14.24 1.88.28 1.88.36z"/><path d="m417.569 380.371c.14 0 .15 1-.69 1.83s-1.86.79-1.84.65.79-.34 1.47-1 .91-1.5 1.06-1.48z"/><path d="m424.374 375.37c.06 0 .06.27-.13.63-.262.443-.658.793-1.13 1-.468.227-.996.304-1.51.22-.4-.08-.6-.24-.57-.3s.92.08 1.86-.39 1.34-1.21 1.48-1.16z"/><path d="m400.361 386.721c-.05.13-6.68-2.63-14.8-6.18s-14.66-6.54-14.56-6.66 6.69 2.64 14.81 6.19 14.61 6.52 14.55 6.65z"/></g><path d="m536 395c0 .538-105.002 1-234.489 1-129.488 0-234.511-.462-234.511-1 0-.539 104.982-1 234.511-1s234.489.423 234.489 1z" fill="#b2b3b4"/><path d="m79.7231 289.11 21.6999 106.53h188.35c.997 0 1.954-.396 2.659-1.101s1.101-1.662 1.101-2.659c.001-.494-.095-.984-.283-1.442-.189-.457-.465-.873-.815-1.223-.349-.35-.764-.628-1.221-.818-.457-.189-.946-.287-1.441-.287h-37.92l-20.12-99.11c-.186-.925-.686-1.757-1.415-2.356-.728-.6-1.641-.929-2.585-.934l-143.9299-1.54c-.6142-.006-1.222.125-1.779.384-.5569.259-1.049.639-1.4401 1.112-.3911.474-.6714 1.029-.8204 1.625-.1489.596-.1628 1.217-.0405 1.819z" fill="#767676"/><path d="m79.7233 289.111-.06-.32c-.0407-.332-.0407-.668 0-1 .0711-.638.2886-1.25.6355-1.79.347-.539.814-.991 1.3645-1.32.3824-.235.8016-.404 1.24-.5.4889-.082.9849-.112 1.48-.09h3.39l8.48.07 54.4297.51 37.94.39 21.26.21 11.14.12 5.7.06h1.46c.508.057 1.002.202 1.46.43.923.45 1.654 1.216 2.06 2.16.188.466.322.953.4 1.45l.29 1.43c.19 1 .39 1.92.59 2.88.387 1.926.78 3.866 1.18 5.82.794 3.9 1.597 7.85 2.41 11.85 1.627 8 3.294 16.176 5 24.53 3.39 16.7 6.93 34.07 10.56 52l-.25-.2h37.29c.492-.019.984.011 1.47.09 1.001.215 1.882.805 2.46 1.65.586.842.826 1.876.67 2.89-.091.614-.323 1.198-.679 1.707-.356.508-.825.927-1.371 1.223-.549.292-1.158.457-1.78.48h-100.09-88.43-.16v-.16c-6.6397-32.75-11.9997-59.38-15.7697-77.84-1.86-9.22-3.3-16.4-4.28-21.28-.48-2.44-.8466-4.29-1.1-5.55-.25-1.26-.36-1.9-.36-1.9s.15.64.41 1.88.66 3.12 1.16 5.54c1 4.88 2.49 12.05 4.39 21.27 3.78 18.45 9.23 45.07 15.9397 77.8l-.2-.16 88.43-.05h100.02c.538-.022 1.064-.162 1.54-.41.473-.261.881-.626 1.191-1.068s.515-.949.599-1.482c.129-.886-.078-1.789-.58-2.53-.511-.73-1.279-1.24-2.15-1.43-.45-.068-.905-.095-1.36-.08h-37.5v-.2c-3.63-17.91-7.16-35.28-10.54-52-1.7-8.36-3.366-16.54-5-24.54l-2.4-11.85c-.39-1.95-.79-3.89-1.18-5.81-.19-1-.39-1.93-.58-2.88l-.29-1.44c-.075-.464-.195-.92-.36-1.36-.275-.632-.712-1.179-1.267-1.586-.555-.408-1.208-.661-1.893-.734-.44 0-.94 0-1.41 0l-5.7-.07-11.15-.12-21.25-.25-37.95-.45-54.4297-.67-8.47-.11-3.39-.05c-.4881-.03-.978-.003-1.46.08-.4297.088-.8418.247-1.22.47-.5394.315-.9999.749-1.3465 1.269s-.57 1.112-.6535 1.731c-.0397.429-.033.862.02 1.29z" fill="#263238"/><path d="m160.29 344.081c3.436 0 6.22-2.785 6.22-6.22 0-3.436-2.784-6.22-6.22-6.22-3.435 0-6.22 2.784-6.22 6.22 0 3.435 2.785 6.22 6.22 6.22z" fill="#b4b4b4"/><path d="m79.9062 290h.6501 9.22l26.9297.13 88.85.62 12.85.11h3.16c.539-.02 1.078.013 1.61.1.814.166 1.566.553 2.173 1.12.607.566 1.046 1.29 1.267 2.09.24 1 .41 2 .62 3l4.59 23.14c2.91 14.75 5.54 28 7.74 39.19s4 20.17 5.18 26.42c.6 3.11 1.06 5.53 1.38 7.19.15.81.27 1.44.35 1.88s.1.64.1.64-.06-.21-.15-.63-.23-1.06-.4-1.87l-1.48-7.13c-1.26-6.25-3.08-15.26-5.34-26.39s-4.9-24.43-7.85-39.17c-1.47-7.37-3-15.11-4.62-23.13-.21-1-.39-2-.61-3-.264-.95-.869-1.769-1.7-2.3-.412-.264-.87-.447-1.35-.54-.502-.082-1.011-.112-1.52-.09h-3.15l-12.85-.1-88.85-.78-26.9297-.3-7.32-.2h-1.91z" fill="#263238"/><path d="m437.808 87.7924c.47-3.44-4.38-6.26-8-6.56-1.73-.14-3.54.13-5.18-.44-3.57-1.25-5-5.85-8.47-7.32-2.6-1.09-5.59-.12-8.11 1.15s-5 2.87-7.83 3.05c-2.45.15-5.11-.75-7.25.44-1.6.89-2.43 2.73-3.9 3.82-1.533.9464-3.309 1.4259-5.11 1.38-1.792-.0401-3.575.2515-5.26.86-1.63.75-3 2.47-2.64 4.23z" fill="#d7d6d6"/><path d="m171.559 99.624c.38-2.7-3.43-4.92-6.3-5.15-1.366.0555-2.734-.0621-4.07-.35-2.8-1-3.92-4.6-6.66-5.75-2-.86-4.39-.1-6.37.9s-3.94 2.25-6.16 2.39c-1.92.13-4-.59-5.7.35-1.25.71-1.91 2.15-3.07 3-1.198.7476-2.589 1.1267-4 1.09-1.41-.0333-2.814.1973-4.14.68-.653.2563-1.208.7147-1.582 1.3085-.374.5937-.549 1.2915-.498 1.9915z" fill="#d7d6d6"/><path d="m374.808 33.7924c.47-3.44-4.38-6.26-8-6.56-1.73-.14-3.54.13-5.18-.44-3.57-1.25-5-5.85-8.47-7.32-2.6-1.09-5.59-.12-8.11 1.15s-5 2.87-7.83 3.05c-2.45.15-5.11-.75-7.25.44-1.6.89-2.43 2.73-3.9 3.82-1.533.9464-3.309 1.4259-5.11 1.38-1.792-.0401-3.575.2515-5.26.86-1.63.75-3 2.47-2.64 4.23z" fill="#d7d6d6"/><path d="m244.808 45.7924c.47-3.44-4.38-6.26-8-6.56-1.73-.14-3.54.13-5.18-.44-3.57-1.25-5-5.85-8.47-7.32-2.6-1.09-5.59-.12-8.11 1.15s-5 2.87-7.83 3.05c-2.45.15-5.11-.75-7.25.44-1.6.89-2.43 2.73-3.9 3.82-1.533.9464-3.309 1.4259-5.11 1.38-1.792-.0401-3.575.2515-5.26.86-1.63.75-3 2.47-2.64 4.23z" fill="#d7d6d6"/></svg>