<svg fill="none" height="500" viewBox="0 0 500 500" width="500" xmlns="http://www.w3.org/2000/svg" xmlns:xlink="http://www.w3.org/1999/xlink"><clipPath id="a"><path d="m0 0h500v500h-500z"/></clipPath><g clip-path="url(#a)"><path d="m519.28 476.049c0 .14-97.89.26-218.63.26s-218.65-.12-218.65-.26 97.87-.26 218.65-.26 218.63.12 218.63.26z" fill="#aebcc3"/><path d="m303.149 411.77-121.89-.07c-3.486-.001-6.939-.689-10.159-2.025-3.221-1.335-6.147-3.292-8.612-5.758-2.464-2.467-4.419-5.394-5.752-8.616s-2.018-6.674-2.017-10.161l.06-305.59c0-3.4882.688-6.9423 2.023-10.1648 1.336-3.2225 3.293-6.1503 5.761-8.6159 2.467-2.4657 5.396-4.4209 8.62-5.754 3.223-1.3331 6.678-2.0179 10.166-2.0153l121.89.07c7.041.0053 13.791 2.806 18.768 7.7864 4.977 4.9803 7.772 11.733 7.772 18.7736l-.06 305.6c0 3.488-.687 6.941-2.023 10.163s-3.293 6.149-5.761 8.614-5.397 4.419-8.62 5.751c-3.224 1.332-6.678 2.016-10.166 2.012z" fill="#eee"/><path d="m302.836 63.9699h-23.63c-.771.0168-1.531.1855-2.237.4962-.705.3107-1.343.7574-1.876 1.3146-.533.5571-.951 1.2139-1.23 1.9327s-.414 1.4856-.397 2.2565v4.32c.032 1.5561-.554 3.0616-1.63 4.1863s-2.554 1.7769-4.11 1.8137h-46.07c-1.556-.0368-3.034-.689-4.11-1.8137s-1.662-2.6302-1.63-4.1863v-4.37c.032-1.5545-.553-3.0585-1.626-4.1829-1.074-1.1245-2.55-1.7778-4.104-1.8171h-29c-4.93-.0027-9.659 1.9517-13.148 5.4336-3.49 3.482-5.454 8.2068-5.462 13.1364l-.06 298.2901c0 4.931 1.958 9.661 5.444 13.148 3.486 3.488 8.215 5.449 13.146 5.452l121.65.07c4.932 0 9.663-1.958 13.152-5.444 3.49-3.486 5.453-8.214 5.458-13.146l.06-298.2901c0-4.9313-1.958-9.6608-5.444-13.1487s-8.215-5.4487-13.146-5.4513z" fill="#eee"/><path d="m321.426 116.49c0 .14-35.58.26-79.45.26s-79.46-.12-79.46-.26 35.57-.26 79.46-.26 79.45.12 79.45.26z" fill="#e0e0e0"/><path d="m238.699 138.77c0 .72-.54 1.12-1.59 1.12h-2v-4.14h1.86c1 0 1.49.4 1.49 1.07.004.191-.047.379-.146.542s-.243.294-.414.378c.234.047.444.178.591.367s.221.424.209.663zm-3-2.54v1.33h1.21c.6 0 .95-.23.95-.67s-.35-.66-.95-.66zm2.37 2.5c0-.48-.36-.7-1-.7h-1.36v1.38h1.36c.67 0 1.03-.2 1.03-.68z" fill="#263238"/><path d="m242.02 137.999v1.89h-.54v-.41c-.118.151-.271.27-.445.349-.174.078-.365.113-.555.101-.71 0-1.16-.38-1.16-.92s.33-.92 1.26-.92h.9v-.11c0-.48-.28-.76-.84-.76-.363-.006-.717.114-1 .34l-.24-.43c.377-.273.834-.414 1.3-.4.84 0 1.32.41 1.32 1.27zm-.57.93v-.43h-.87c-.57 0-.73.22-.73.48s.27.51.7.51c.19.014.379-.032.541-.133s.287-.25.359-.427z" fill="#263238"/><path d="m243.08 135.5h.56v4.39h-.57z" fill="#263238"/><path d="m247.217 137.999v1.89h-.58v-.41c-.118.151-.27.27-.445.349-.174.078-.364.113-.555.101-.71 0-1.16-.38-1.16-.92s.32-.92 1.26-.92h.9v-.11c0-.48-.28-.76-.84-.76-.362-.003-.715.117-1 .34l-.23-.43c.373-.273.827-.414 1.29-.4.87 0 1.36.41 1.36 1.27zm-.57.93v-.43h-.88c-.56 0-.72.22-.72.48s.26.51.69.51c.19.014.379-.032.541-.133s.287-.25.359-.427z" fill="#263238"/><path d="m251.247 138.09v1.8h-.61v-1.74c0-.61-.31-.91-.84-.91-.134-.01-.269.009-.395.055-.126.047-.24.12-.336.215-.095.095-.168.21-.214.336-.047.126-.066.26-.055.394v1.61h-.57v-3.13h.55v.47c.134-.167.307-.301.504-.388s.411-.125.626-.112c.187-.022.376-.001.553.062s.337.167.468.303c.13.136.226.3.282.48.055.18.068.37.037.555z" fill="#263238"/><path d="m252.04 138.29c-.004-.215.036-.429.118-.628s.204-.379.359-.528.339-.265.541-.34.417-.107.632-.094c.254-.015.508.039.733.157.226.118.415.295.547.513l-.43.27c-.092-.141-.219-.255-.367-.334-.149-.079-.315-.119-.483-.116-.275.026-.53.154-.716.358s-.289.471-.289.747.103.542.289.747c.186.204.441.332.716.358.168.002.334-.038.483-.116.148-.079.275-.194.367-.334l.43.27c-.132.218-.321.397-.546.517s-.479.176-.734.163c-.216.011-.432-.023-.635-.099-.202-.077-.387-.194-.542-.345-.155-.152-.277-.333-.358-.534-.082-.2-.121-.416-.115-.632z" fill="#263238"/><path d="m258.479 138.509h-2.54c.035.271.173.517.385.689.213.171.483.254.755.231.168.007.337-.024.492-.09.156-.065.295-.164.408-.29l.31.37c-.233.234-.528.396-.85.466s-.658.045-.966-.071c-.309-.116-.577-.319-.773-.584-.196-.266-.311-.582-.331-.911-.009-.209.026-.418.102-.613.076-.196.191-.373.338-.523.147-.149.323-.266.518-.344.194-.078.402-.116.612-.11.211-.006.42.032.615.112.196.079.372.198.519.35.147.151.26.331.334.529.073.198.104.409.092.619-.002.057-.009.114-.02.17zm-2.54-.4h2c0-.265-.106-.52-.293-.707-.188-.188-.442-.293-.707-.293s-.52.105-.707.293c-.188.187-.293.442-.293.707z" fill="#263238"/><path d="m221.438 162.591v1.7h-1v-1.7c-1.338-.023-2.632-.487-3.68-1.32l.56-1.18c.882.731 1.977 1.155 3.12 1.21v-3.51c-1.66-.41-3.42-.94-3.42-3 0-1.5 1.08-2.81 3.42-3v-1.73h1v1.71c1.092.028 2.156.35 3.08.93l-.5 1.21c-.775-.495-1.662-.787-2.58-.85v3.53c1.7.43 3.52.93 3.52 3 0 1.5-1.12 2.8-3.52 3zm-1-6.24v-3.27c-1.34.16-1.93.84-1.93 1.65s.87 1.33 1.96 1.62zm3 3.33c0-1-.9-1.35-2-1.65v3.26c1.41-.14 2.03-.79 2.03-1.61z" fill="#263238"/><path d="m233.642 151.881v10.61h-1.5v-9.29h-2.4v-1.32z" fill="#263238"/><path d="m243.416 159.289c0 1.84-1.3 3.31-4 3.31-1.41.033-2.788-.423-3.9-1.29l.7-1.2c.884.758 2.016 1.164 3.18 1.14 1.61 0 2.52-.74 2.52-1.9s-.76-1.94-3.22-1.94h-2.41l.57-5.54h6v1.32h-4.71l-.29 2.91h1.18c3.14.01 4.38 1.32 4.38 3.19z" fill="#263238"/><path d="m246.642 161.529c-.017.377-.106.746-.26 1.09l-.71 2.11h-1l.56-2.26c-.188-.075-.348-.204-.461-.372-.112-.168-.171-.366-.169-.568 0-.265.105-.519.293-.707.187-.187.442-.293.707-.293s.52.106.707.293c.188.188.293.442.293.707z" fill="#263238"/><path d="m255.551 159.29c0 1.84-1.3 3.31-4 3.31-1.416.029-2.798-.434-3.91-1.31l.7-1.2c.884.757 2.016 1.163 3.18 1.14 1.61 0 2.52-.74 2.52-1.9s-.76-1.94-3.21-1.94h-2.41l.56-5.54h6v1.32h-4.71l-.29 2.91h1.18c3.15.03 4.39 1.34 4.39 3.21z" fill="#263238"/><path d="m264.701 157.05c0 3.62-2 5.56-5 5.56-.919.032-1.831-.182-2.64-.62l.57-1.19c.607.351 1.3.525 2 .5 2.15 0 3.52-1.35 3.52-4v-.38c-.355.469-.822.843-1.358 1.088-.536.244-1.124.351-1.712.312-2.1 0-3.62-1.26-3.62-3.21s1.64-3.35 3.75-3.35c2.88 0 4.49 1.91 4.49 5.29zm-1.86-2c0-1.09-.88-2.05-2.53-2.05-.292-.034-.589-.006-.87.083-.281.088-.54.235-.761.43s-.398.435-.52.703-.186.559-.189.854c0 1.24.93 2 2.41 2 .297.034.598.008.884-.077s.553-.227.782-.417c.23-.191.419-.426.556-.692.136-.266.217-.556.238-.854z" fill="#263238"/><path d="m273.766 151.88v1l-4.28 9.58h-1.61l4.2-9.29h-4.85v1.89h-1.46v-3.21z" fill="#263238"/><path d="m288.3 345.809h-1.27v1.25h-.58v-1.25h-1.27v-.52h1.27v-1.26h.58v1.26h1.27z" fill="#000"/><path d="m290.495 343.09v4.88h-.7v-4.28h-1.1v-.6z" fill="#000"/><path d="m291.562 345.529c0-1.59.851-2.5 2-2.5 1.151 0 2 .91 2 2.5s-.849 2.49-2 2.49c-1.149 0-2-.9-2-2.49zm3.291 0c0-1.25-.531-1.88-1.291-1.88-.759 0-1.299.63-1.299 1.88s.53 1.87 1.299 1.87c.77 0 1.291-.62 1.291-1.87z" fill="#000"/><path d="m296.219 345.529c0-1.59.85-2.5 2-2.5s2 .91 2 2.5-.85 2.49-2 2.49-2-.9-2-2.49zm3.28 0c0-1.25-.53-1.88-1.29-1.88s-1.29.63-1.29 1.88.53 1.87 1.29 1.87 1.29-.62 1.29-1.87z" fill="#000"/><path d="m300.867 345.529c0-1.59.85-2.5 2-2.5s2 .91 2 2.5-.85 2.49-2 2.49-2-.9-2-2.49zm3.29 0c0-1.25-.54-1.88-1.29-1.88s-1.3.63-1.3 1.88.53 1.87 1.3 1.87 1.29-.62 1.29-1.87z" fill="#000"/><path d="m182.851 270.789h118.21c5.386 0 10.552 2.14 14.361 5.949s5.949 8.974 5.949 14.361v93.08c0 4.05-1.609 7.934-4.473 10.798-2.864 2.863-6.748 4.472-10.797 4.472h-127.82c-4.178 0-8.184-1.659-11.137-4.613-2.954-2.954-4.613-6.96-4.613-11.137v-92.6c0-2.668.525-5.31 1.547-7.775 1.021-2.464 2.518-4.704 4.405-6.59s4.127-3.382 6.592-4.402c2.466-1.02 5.108-1.544 7.776-1.543z" fill="#ededed"/><path d="m254.24 282.76h-17.74c-.265 0-.519-.106-.707-.293-.187-.188-.293-.442-.293-.707 0-.266.106-.52.293-.707.188-.188.442-.293.707-.293h17.74c.266 0 .52.105.707.293.188.187.293.441.293.707 0 .265-.105.519-.293.707-.187.187-.441.293-.707.293z" fill="#837e7e"/><path d="m230.455 309.289c0 .14-4.72.26-10.54.26s-10.54-.12-10.54-.26 4.72-.26 10.54-.26 10.54.12 10.54.26z" fill="#263238"/><path d="m230.455 320.41c-3.506.264-7.024.351-10.54.26-3.515.091-7.033.004-10.54-.26 0-.14 4.72-.26 10.54-.26s10.54.14 10.54.26z" fill="#e0e0e0"/><path d="m248.985 314.92c0 .15-8.87.26-19.81.26s-19.8-.11-19.8-.26 8.86-.26 19.8-.26 19.81.12 19.81.26z" fill="#e0e0e0"/><path d="m285.109 314.811h1.88v.581h-1.88z" fill="#263238"/><path d="m292.005 315.82h-.92v1.2h-.68v-1.2h-2.71v-.53l2.49-3.19h.76l-2.39 3.08h1.87v-1.06h.66v1.06h.92z" fill="#263238"/><path d="m295.835 315.551c0 .85-.6 1.52-1.85 1.52-.647.016-1.28-.192-1.79-.59l.32-.55c.406.347.926.532 1.46.52.74 0 1.16-.34 1.16-.87s-.35-.89-1.48-.89h-1.11l.26-2.55h2.76v.6h-2.17l-.13 1.34h.54c1.46 0 2.03.61 2.03 1.47z" fill="#263238"/><path d="m296.406 316.579c.002-.092.031-.182.084-.258s.127-.135.213-.169.18-.042.27-.023c.091.02.174.065.238.131.065.066.109.15.126.241.018.091.008.185-.028.27s-.096.158-.173.21c-.077.051-.168.078-.26.078-.063 0-.125-.012-.182-.037-.058-.024-.11-.059-.154-.104s-.078-.098-.101-.156-.035-.12-.033-.183z" fill="#263238"/><path d="m301.639 314.509c.045.326.019.657-.077.972-.097.314-.261.603-.481.847s-.491.437-.794.565-.63.188-.958.176c-.421.016-.839-.081-1.21-.28l.26-.55c.284.166.611.246.94.23 1 0 1.62-.62 1.62-1.84v-.17c-.164.215-.379.386-.625.497-.246.112-.516.161-.785.143-.209.023-.42.001-.62-.063s-.385-.169-.542-.308-.283-.31-.371-.501-.134-.398-.137-.608c.004-.217.054-.431.145-.628.091-.198.221-.374.384-.519.162-.145.353-.254.559-.322.207-.067.425-.091.642-.071 1.31 0 2.05.88 2.05 2.43zm-.86-.92c0-.5-.41-.94-1.17-.94-.132-.009-.265.008-.391.05-.125.042-.241.109-.341.197-.099.087-.181.193-.239.312-.058.12-.092.249-.099.381 0 .58.43.95 1.11.95.137.019.277.008.411-.031.133-.039.257-.105.363-.195.106-.089.193-.2.254-.324.061-.125.096-.261.102-.4z" fill="#263238"/><path d="m302.312 314.58c0-1.59.851-2.5 2-2.5 1.151 0 2 .91 2 2.5s-.849 2.49-2 2.49c-1.149 0-2-.9-2-2.49zm3.28 0c0-1.25-.53-1.88-1.29-1.88s-1.289.63-1.289 1.88.529 1.87 1.289 1.87 1.341-.62 1.341-1.87z" fill="#263238"/><path d="m193.138 320.57c-.675.388-1.398.687-2.15.89-.749.205-1.523.309-2.3.31-.783-.001-1.564-.105-2.32-.31-.749-.201-1.469-.5-2.14-.89-.674-.393-1.296-.87-1.85-1.42-1.101-1.112-1.893-2.492-2.299-4.004-.405-1.511-.409-3.103-.011-4.616.203-.749.502-1.468.89-2.14.39-.677.867-1.299 1.42-1.85.554-.55 1.176-1.027 1.85-1.42.671-.39 1.391-.689 2.14-.89.756-.205 1.537-.31 2.32-.31v-1.75c-.935.002-1.866.123-2.77.36-.904.239-1.772.599-2.58 1.07-.805.467-1.548 1.035-2.21 1.69-.659.661-1.228 1.408-1.69 2.22-.472.804-.832 1.668-1.07 2.57-.48 1.812-.48 3.718 0 5.53.238.901.598 1.766 1.07 2.57.462.812 1.031 1.558 1.69 2.22.665.652 1.407 1.219 2.21 1.69.808.471 1.676.831 2.58 1.07 1.812.48 3.718.48 5.53 0 .902-.238 1.766-.598 2.57-1.07.801-.462 1.537-1.027 2.19-1.68l-1.24-1.24c-.547.543-1.162 1.014-1.83 1.4z" fill="#ff725e"/><path d="m198.997 310.08c-.238-.902-.597-1.766-1.069-2.57-.466-.81-1.034-1.556-1.69-2.22-.662-.66-1.408-1.228-2.22-1.69-.804-.473-1.669-.833-2.57-1.07s-1.83-.357-2.76-.36v1.75c.777 0 1.55.105 2.3.31.752.202 1.474.501 2.149.89 1.358.784 2.487 1.912 3.271 3.27.785 1.351 1.196 2.887 1.19 4.45.003.78-.098 1.557-.3 2.31-.201.753-.5 1.475-.89 2.15-.393.674-.87 1.296-1.42 1.85l1.24 1.24c.656-.664 1.223-1.41 1.689-2.22.472-.804.833-1.669 1.071-2.57.48-1.812.48-3.718 0-5.53z" fill="#c8bdbd"/><path d="m186.966 313.98c-.016.264-.135.51-.332.686-.196.176-.455.268-.718.254-.82 0-1.26-.56-1.26-1.54s.57-1.59 1.41-1.59c.254-.009.506.049.73.17l-.13.25c-.184-.101-.391-.15-.6-.14-.66 0-1.09.42-1.09 1.26-.005.083-.005.167 0 .25.089-.169.225-.309.392-.403s.357-.138.548-.127c.131-.017.265-.006.392.033.128.039.245.105.344.193.1.088.179.197.233.318s.082.253.081.386zm-.31 0c-.001-.097-.022-.192-.062-.28-.041-.087-.099-.166-.172-.229s-.158-.111-.251-.138c-.092-.028-.19-.036-.285-.023-.097-.011-.196-.002-.289.026s-.18.075-.255.137c-.075.063-.136.14-.18.227s-.07.183-.076.28c0 .34.29.66.82.66.091.008.183-.002.27-.031s.167-.075.235-.136c.069-.061.124-.135.163-.218.038-.083.059-.173.062-.265z" fill="#263238"/><path d="m189.431 313.99c0 .52-.36.93-1.12.93-.402.013-.795-.126-1.1-.39l.15-.25c.261.234.601.359.95.35.52 0 .8-.25.8-.63s-.25-.64-1-.64h-.66l.16-1.54h1.69v.28h-1.41l-.11 1h.4c.9-.02 1.25.34 1.25.89z" fill="#263238"/><path d="m189.741 312.629c-.014-.102-.007-.206.021-.305.029-.099.077-.19.143-.269.066-.08.148-.144.24-.19.092-.045.193-.071.296-.076.41 0 .69.33.69.84s-.28.84-.69.84c-.103-.005-.204-.031-.296-.076-.092-.046-.174-.11-.24-.19-.066-.079-.114-.17-.143-.269-.028-.099-.035-.203-.021-.305zm1.17 0c0-.4-.18-.64-.47-.64s-.48.24-.48.64.19.64.48.64.47-.24.47-.64zm1.39-.81h.26l-2.1 3.08h-.26zm-.67 2.26c-.014-.101-.007-.205.021-.303.029-.098.078-.19.144-.268s.147-.142.24-.186c.092-.045.192-.07.295-.073.41 0 .69.33.69.83s-.28.84-.69.84c-.102-.006-.202-.033-.293-.079-.091-.047-.171-.111-.236-.19s-.113-.17-.14-.269c-.028-.098-.035-.201-.021-.302zm1.17 0c0-.39-.18-.64-.47-.64s-.48.24-.48.64.19.64.48.64.47-.24.47-.64z" fill="#263238"/><path d="m230.455 340.289c-3.506.264-7.024.351-10.54.26-3.515.091-7.033.004-10.54-.26 0-.14 4.72-.26 10.54-.26s10.54.07 10.54.26z" fill="#263238"/><path d="m230.455 351.36c-3.506.263-7.024.35-10.54.26-3.515.09-7.033.003-10.54-.26 0-.14 4.72-.26 10.54-.26s10.54.12 10.54.26z" fill="#e0e0e0"/><path d="m248.985 345.869c0 .15-8.87.26-19.81.26s-19.8-.11-19.8-.26 8.86-.26 19.8-.26 19.81.12 19.81.26z" fill="#e0e0e0"/><path d="m288.3 345.809h-1.27v1.25h-.58v-1.25h-1.27v-.52h1.27v-1.26h.58v1.26h1.27z" fill="#263238"/><path d="m290.485 343.09v4.88h-.69v-4.28h-1.1v-.6z" fill="#263238"/><path d="m291.562 345.529c0-1.59.851-2.5 2-2.5 1.151 0 2 .91 2 2.5s-.849 2.49-2 2.49c-1.149 0-2-.9-2-2.49zm3.291 0c0-1.25-.531-1.88-1.291-1.88-.759 0-1.299.63-1.299 1.88s.53 1.87 1.299 1.87c.77 0 1.291-.62 1.291-1.87z" fill="#263238"/><path d="m296.219 345.529c0-1.59.85-2.5 2-2.5s2 .91 2 2.5-.85 2.49-2 2.49-2-.9-2-2.49zm3.28 0c0-1.25-.53-1.88-1.29-1.88s-1.3.63-1.3 1.88.53 1.87 1.3 1.87 1.29-.62 1.29-1.87z" fill="#263238"/><path d="m300.867 345.529c0-1.59.85-2.5 2-2.5s2 .91 2 2.5-.85 2.49-2 2.49-2-.9-2-2.49zm3.28 0c0-1.25-.53-1.88-1.29-1.88s-1.29.63-1.29 1.88.53 1.87 1.29 1.87 1.29-.62 1.29-1.87z" fill="#263238"/><path d="m191.636 351.519c-.675.389-1.398.688-2.15.89-1.512.413-3.108.413-4.62 0-.752-.202-1.475-.501-2.15-.89-.673-.395-1.294-.872-1.85-1.42-.55-.551-1.024-1.174-1.41-1.85-.391-.671-.694-1.391-.9-2.14-.4-1.517-.4-3.113 0-4.63.206-.749.509-1.468.9-2.14.386-.676.86-1.298 1.41-1.85.556-.548 1.177-1.025 1.85-1.42.675-.388 1.398-.688 2.15-.89.753-.206 1.53-.31 2.31-.31v-1.75c-.932.001-1.859.122-2.76.36-.905.236-1.774.596-2.58 1.07-.806.482-1.545 1.067-2.2 1.74-.663.661-1.234 1.408-1.7 2.22-.94 1.621-1.436 3.461-1.436 5.335s.496 3.714 1.436 5.335c.934 1.627 2.283 2.976 3.91 3.91.806.474 1.675.835 2.58 1.07 1.809.48 3.711.48 5.52 0 1.803-.483 3.448-1.431 4.77-2.75l-1.25-1.24c-.55.526-1.165.98-1.83 1.35z" fill="#c8bdbd"/><path d="m197.521 341.029c-.482-1.812-1.434-3.464-2.76-4.79-.662-.654-1.405-1.222-2.21-1.69-.806-.474-1.674-.834-2.58-1.07-.9-.238-1.828-.359-2.76-.36v1.75c.781.001 1.557.105 2.31.31.752.202 1.475.502 2.15.89 1.353.788 2.476 1.915 3.26 3.27.391.672.694 1.391.9 2.14.4 1.517.4 3.113 0 4.63-.206.749-.509 1.469-.9 2.14-.389.677-.867 1.299-1.42 1.85l1.25 1.24c1.322-1.329 2.272-2.981 2.756-4.792s.486-3.717.004-5.528z" fill="#ff725e"/><path d="m230.455 371.19c-3.506.263-7.024.35-10.54.26-3.515.09-7.033.003-10.54-.26 0-.14 4.72-.26 10.54-.26s10.54.12 10.54.26z" fill="#263238"/><path d="m230.455 382.289c-3.506.264-7.024.351-10.54.26-3.515.091-7.033.004-10.54-.26 0-.14 4.72-.26 10.54-.26s10.54.14 10.54.26z" fill="#e0e0e0"/><path d="m248.985 376.821c0 .15-8.87.261-19.81.261s-19.8-.111-19.8-.261 8.86-.26 19.8-.26 19.81.12 19.81.26z" fill="#e0e0e0"/><path d="m285.109 376.721h1.87v.57h-1.87z" fill="#263238"/><path d="m291.14 377.459c0 .84-.6 1.52-1.85 1.52-.648.013-1.28-.199-1.79-.6l.32-.55c.409.351.932.54 1.47.53.74 0 1.15-.35 1.15-.88s-.34-.89-1.47-.89h-1.11l.26-2.55h2.75v.61h-2.17l-.13 1.33h.54c1.46 0 2.03.61 2.03 1.48z" fill="#263238"/><path d="m295.497 377.43c-.003.219-.051.434-.142.632-.09.199-.221.377-.383.522-.163.146-.354.256-.561.324-.207.069-.426.093-.644.072-1.31 0-2.05-.88-2.05-2.44-.045-.325-.019-.657.078-.971.096-.314.26-.603.48-.847s.491-.437.794-.565.63-.189.958-.177c.423-.017.842.083 1.21.29l-.26.54c-.286-.162-.611-.242-.94-.23-1 0-1.62.62-1.62 1.84-.005.06-.005.12 0 .18.162-.215.374-.386.619-.498.244-.112.513-.16.781-.142.209-.025.421-.006.623.056.201.062.387.166.545.305.159.138.286.309.374.5.089.191.136.399.138.609zm-.67 0c0-.57-.44-.94-1.12-.94-.137-.016-.275-.004-.408.035-.132.04-.254.106-.359.195-.106.09-.191.2-.252.324-.06.123-.095.259-.101.396 0 .5.4.94 1.16.94.132.011.264-.004.39-.044.125-.041.241-.105.342-.191.1-.085.183-.19.242-.307.06-.118.096-.246.106-.378z" fill="#263238"/><path d="m296.078 378.48c0-.063.012-.125.036-.182.025-.058.06-.11.105-.154.044-.044.097-.078.156-.101.058-.023.12-.035.183-.033.061-.002.123.01.18.033s.109.058.152.102.076.096.098.154.032.119.03.181c.002.062-.008.124-.03.182-.021.058-.055.111-.098.156s-.094.081-.152.105c-.057.024-.118.037-.18.037-.064.001-.127-.01-.186-.034s-.112-.059-.157-.104-.08-.098-.104-.157c-.023-.059-.035-.122-.033-.185z" fill="#263238"/><path d="m301.309 376.42c.046.324.02.655-.076.969-.096.313-.259.602-.478.846-.219.243-.489.437-.79.565-.302.129-.628.19-.956.18-.425.015-.847-.085-1.22-.29l.27-.54c.286.162.612.242.94.23 1 0 1.62-.62 1.62-1.84v-.18c-.162.216-.377.387-.623.499s-.517.16-.787.141c-.208.022-.42.001-.62-.063s-.384-.169-.541-.309c-.157-.139-.284-.309-.371-.5-.088-.191-.135-.398-.138-.608.004-.217.052-.431.142-.628.09-.198.219-.374.381-.519s.351-.254.558-.322c.206-.068.424-.092.639-.071 1.32 0 2.05.88 2.05 2.44zm-.85-.93c0-.5-.41-.94-1.17-.94-.133-.01-.266.008-.392.05-.127.043-.243.111-.343.199-.099.089-.18.197-.238.317-.057.12-.09.251-.097.384 0 .57.42.94 1.11.94.138.018.278.007.411-.032.134-.039.257-.105.364-.194.106-.09.193-.2.254-.325.061-.124.096-.26.101-.399z" fill="#263238"/><path d="m301.992 376.48c0-1.59.85-2.5 2-2.5s2 .91 2 2.5-.85 2.5-2 2.5-2-.91-2-2.5zm3.28 0c0-1.25-.53-1.88-1.29-1.88s-1.3.63-1.3 1.88.53 1.88 1.3 1.88 1.29-.63 1.29-1.88z" fill="#263238"/><path d="m193.138 382.47c-.675.389-1.398.688-2.15.89-.749.205-1.523.31-2.3.31-.783 0-1.564-.105-2.32-.31-.749-.201-1.469-.5-2.14-.89-.674-.393-1.296-.87-1.85-1.42-.551-.549-1.028-1.168-1.42-1.84-.386-.676-.685-1.398-.89-2.15-.202-.757-.302-1.537-.3-2.32-.002-.776.098-1.55.3-2.3.203-.752.502-1.475.89-2.15.39-.676.867-1.299 1.42-1.85.554-.55 1.176-1.027 1.85-1.42.671-.39 1.391-.689 2.14-.89.757-.202 1.537-.302 2.32-.3v-1.76c-.935.002-1.866.123-2.77.36-.904.24-1.772.599-2.58 1.07-.803.471-1.545 1.038-2.21 1.69-.659.662-1.228 1.408-1.69 2.22-.472.804-.832 1.669-1.07 2.57-.48 1.812-.48 3.718 0 5.53.239.904.599 1.772 1.07 2.58.465.807 1.033 1.55 1.69 2.21.662.655 1.405 1.223 2.21 1.69 1.626.942 3.472 1.435 5.35 1.43.932.003 1.86-.118 2.76-.36 1.799-.486 3.44-1.434 4.76-2.75l-1.24-1.24c-.547.543-1.162 1.014-1.83 1.4z" fill="#ff725e"/><path d="m198.997 371.98c-.238-.901-.597-1.766-1.069-2.57-.926-1.632-2.278-2.984-3.91-3.91-.804-.472-1.669-.832-2.57-1.07-.901-.236-1.83-.357-2.76-.36v1.76c.776-.002 1.55.099 2.3.3.752.203 1.474.502 2.149.89 1.358.785 2.487 1.912 3.271 3.27.388.675.687 1.398.89 2.15.202.75.303 1.524.3 2.3.003.783-.098 1.563-.3 2.32-.205.752-.504 1.474-.89 2.15-.396.67-.873 1.288-1.42 1.84l1.24 1.24c.654-.662 1.221-1.405 1.689-2.21.471-.808.832-1.676 1.071-2.58.48-1.812.48-3.718 0-5.53z" fill="#c8bdbd"/><path d="m186.966 375.88c-.016.264-.135.511-.332.687-.196.176-.455.267-.718.253-.82 0-1.26-.56-1.26-1.54s.57-1.59 1.41-1.59c.254-.009.506.05.73.17l-.13.25c-.184-.101-.391-.149-.6-.14-.66 0-1.09.42-1.09 1.26-.005.084-.005.167 0 .25.089-.169.225-.308.392-.402s.357-.138.548-.128c.131-.017.265-.006.392.033.128.039.245.105.344.193.1.089.179.197.233.318.054.122.082.253.081.386zm-.31 0c-.001-.096-.022-.192-.062-.279-.041-.088-.099-.166-.172-.23-.073-.063-.158-.11-.251-.138-.092-.028-.19-.035-.285-.023-.098-.017-.198-.012-.294.014s-.185.072-.26.136c-.076.064-.137.144-.179.233-.042.09-.064.188-.064.287s.022.197.064.287.103.17.179.234c.075.063.164.11.26.136s.196.03.294.013c.093.012.188.003.278-.025s.173-.075.244-.137.128-.139.167-.224c.039-.086.06-.179.061-.274z" fill="#263238"/><path d="m189.431 375.891c0 .52-.36.93-1.12.93-.402.013-.795-.126-1.1-.39l.15-.25c.261.233.601.359.95.35.52 0 .8-.25.8-.63s-.25-.64-1-.64h-.66l.16-1.54h1.69v.28h-1.41l-.11 1h.4c.9-.02 1.25.35 1.25.89z" fill="#263238"/><path d="m189.741 374.529c-.014-.102-.007-.205.021-.304.029-.099.077-.191.143-.27s.148-.144.24-.189c.092-.046.193-.072.296-.077.41 0 .69.34.69.84s-.28.84-.69.84c-.103-.004-.204-.03-.296-.076s-.174-.11-.24-.189-.114-.171-.143-.27c-.028-.099-.035-.203-.021-.305zm1.17 0c0-.4-.18-.64-.47-.64s-.48.25-.48.64.19.64.48.64.47-.24.47-.64zm1.39-.81h.26l-2.1 3.08h-.26zm-.67 2.26c-.014-.101-.007-.204.021-.303.029-.098.078-.189.144-.268.066-.078.147-.141.24-.186.092-.045.192-.069.295-.073.41 0 .69.33.69.83s-.28.84-.69.84-.69-.33-.69-.84zm1.17 0c0-.39-.18-.63-.47-.63s-.48.23-.48.63.19.64.48.64.47-.24.47-.64z" fill="#263238"/><path d="m268.09 180.381h-39.64c-1.729 0-3.13 1.401-3.13 3.13v11.96c0 1.728 1.401 3.13 3.13 3.13h39.64c1.728 0 3.13-1.402 3.13-3.13v-11.96c0-1.729-1.402-3.13-3.13-3.13z" fill="#ff725e"/><path d="m236.64 192.351v.9h-.51v-.9c-.708-.017-1.393-.262-1.95-.7l.3-.63c.464.39 1.044.615 1.65.64v-1.86c-.88-.22-1.81-.5-1.81-1.59 0-.79.57-1.48 1.81-1.59v-.91h.51v.9c.577.019 1.138.188 1.63.49l-.26.65c-.408-.272-.881-.43-1.37-.46v1.87c.9.22 1.87.49 1.87 1.59.02.8-.58 1.54-1.87 1.6zm-.51-3.31v-1.75c-.71.09-1 .45-1 .88s.44.72 1.02.87zm1.59 1.76c0-.51-.48-.71-1.08-.87v1.72c.77-.07 1.1-.36 1.1-.85z" fill="#fff"/><path d="m245.237 190.64c0 .94-.7 1.71-2.13 1.71-.745.023-1.474-.218-2.06-.68l.37-.63c.472.399 1.073.612 1.69.6.85 0 1.33-.39 1.33-1s-.43-1-1.39-1h-.41v-.56l1.41-1.73h-2.7v-.7h3.71v.55l-1.47 1.81c1.05.12 1.65.76 1.65 1.63z" fill="#fff"/><path d="m247.045 191.78c-.013.2-.061.396-.14.58l-.38 1.12h-.5l.29-1.2c-.1-.038-.187-.107-.246-.197-.059-.089-.089-.196-.084-.303 0-.141.056-.275.155-.375.1-.099.235-.155.375-.155.141 0 .276.056.375.155.099.1.155.234.155.375z" fill="#fff"/><path d="m251.988 189.41c0 1.92-1.08 2.94-2.66 2.94-.485.02-.966-.094-1.39-.33l.3-.62c.328.186.702.277 1.08.26 1.14 0 1.87-.71 1.87-2.12v-.2c-.188.247-.434.444-.717.574-.283.129-.593.186-.903.166-.241.028-.484.005-.715-.068-.231-.072-.444-.193-.625-.353-.182-.16-.327-.357-.427-.578-.1-.22-.152-.459-.153-.701.004-.252.06-.499.165-.727.105-.229.257-.432.445-.599.188-.166.409-.292.648-.368.239-.077.492-.103.742-.076 1.49 0 2.34 1.01 2.34 2.8zm-1-1.07c0-.58-.46-1.08-1.34-1.08-.154-.019-.311-.004-.459.042s-.285.124-.401.227-.209.229-.273.37c-.064.142-.097.295-.097.451 0 .66.48 1.08 1.27 1.08.158.019.319.006.472-.039s.296-.121.418-.223c.123-.102.224-.229.296-.371s.114-.298.124-.457z" fill="#fff"/><path d="m252.758 189.479c0-1.83 1-2.87 2.29-2.87s2.29 1 2.29 2.87-1 2.87-2.29 2.87-2.29-1.06-2.29-2.87zm3.78 0c0-1.44-.61-2.16-1.49-2.16s-1.49.72-1.49 2.16.61 2.16 1.49 2.16 1.49-.72 1.49-2.16z" fill="#fff"/><path d="m262.026 191.591v.7h-4v-.55l2.28-2.2c.6-.58.71-.94.71-1.29 0-.58-.41-.93-1.2-.93-.269-.016-.538.03-.787.136-.248.106-.468.268-.643.474l-.55-.47c.259-.286.578-.51.935-.657.356-.147.74-.213 1.125-.193 1.17 0 1.92.6 1.92 1.56-.009.345-.096.684-.256.991-.159.306-.386.573-.664.779l-1.72 1.65z" fill="#fff"/><path d="m162.547 240.171v-1c17.496-.657 34.415-6.433 48.66-16.61 1.39-1 2.8-2.08 4.16-3.12 6.29-4.78 12.78-9.73 20.57-10.5 5.67-.57 12 1.19 18.81 5.23 2.82 1.67 5.54 3.59 8.17 5.44s5.37 3.78 8.18 5.44c12.91 7.62 36.83 10.23 50.25 7.8l.18 1c-13.58 2.46-37.84-.18-50.94-7.92-2.84-1.68-5.59-3.61-8.24-5.48s-5.33-3.75-8.11-5.4c-6.63-3.92-12.75-5.64-18.2-5.1-7.51.75-13.89 5.61-20.06 10.3-1.37 1.05-2.79 2.13-4.19 3.14-14.416 10.293-31.537 16.128-49.24 16.78z" fill="#ff725e"/><path d="m248.339 214.851c-.681 0-1.346-.202-1.911-.58-.566-.378-1.007-.915-1.267-1.544-.261-.628-.329-1.32-.196-1.987.133-.668.46-1.281.941-1.762s1.094-.809 1.762-.941c.667-.133 1.359-.065 1.987.195.629.261 1.166.702 1.544 1.267.378.566.58 1.231.58 1.912 0 .912-.363 1.787-1.008 2.432s-1.52 1.008-2.432 1.008zm0-5.88c-.483 0-.955.143-1.356.411s-.714.649-.898 1.095c-.185.446-.233.936-.139 1.41.094.473.326.908.667 1.249.342.341.776.574 1.25.668.473.094.964.046 1.41-.139.445-.185.826-.498 1.095-.899.268-.401.411-.873.411-1.355 0-.647-.257-1.268-.715-1.726-.457-.457-1.078-.714-1.725-.714z" fill="#ff725e"/><path d="m248.306 212.879c.812 0 1.47-.658 1.47-1.47 0-.811-.658-1.47-1.47-1.47s-1.47.659-1.47 1.47c0 .812.658 1.47 1.47 1.47z" fill="#ff725e"/><path d="m248.828 248.599c-4.194.051-8.279-1.339-11.57-3.94-1.42-1.15-3-2.59-4.91-4.25-6.64-5.92-15.74-14-24.69-16.59-9.11-2.61-17.51 1-25.63 4.42-6.3 2.69-12.81 5.48-19.52 5.22v-1c6.48.24 12.61-2.38 19.09-5.14 8.28-3.53 16.84-7.18 26.29-4.46 9.17 2.64 18.37 10.82 25.09 16.8 1.86 1.65 3.46 3.08 4.87 4.22 6.67 5.41 17.62 4.73 24.42-1.52 3-2.75 6.6-7.32 10.43-12.15 4.62-5.84 9.4-11.88 13.35-15 10.36-8.14 23.93-7.67 32.91-7.35 1.58 0 3.07.1 4.36.1v1c-1.31 0-2.81-.05-4.39-.11-8.84-.3-22.19-.77-32.26 7.15-3.86 3-8.6 9-13.19 14.82-3.85 4.87-7.49 9.47-10.53 12.27-3.86 3.525-8.893 5.488-14.12 5.51z" fill="#455a64"/><path d="m249.78 203.819 5.37-5.37h-12.22z" fill="#ff725e"/><path d="m292.091 294.151c0 .14-19.81.26-44.24.26s-44.21-.12-44.21-.26 19.81-.26 44.25-.26 44.2.11 44.2.26z" fill="#e0e0e0"/><path d="m186.012 344.601c0 .49-.36.891-1.1.891-.384.011-.759-.113-1.06-.35l.19-.331c.242.208.552.318.87.31.43 0 .68-.199.68-.509s-.22-.511-.71-.511h-.24v-.29l.72-.889h-1.39v-.361h1.91v.28l-.76.94c.59.05.89.38.89.82z" fill="#263238"/><path d="m188.379 344.591c0 .5-.36.901-1.1.901-.383.01-.758-.114-1.06-.35l.19-.331c.244.204.552.314.87.31.44 0 .69-.2.69-.52s-.21-.53-.88-.53h-.66l.16-1.51h1.63v.361h-1.29l-.08.79h.33c.86 0 1.2.359 1.2.879z" fill="#263238"/><path d="m188.635 343.29c0-.48.27-.79.67-.79s.67.31.67.79c.017.098.013.198-.013.294-.026.095-.073.184-.136.26-.064.076-.144.137-.234.179-.09.041-.187.063-.287.063-.099 0-.197-.022-.287-.063-.089-.042-.169-.103-.233-.179s-.11-.165-.136-.26c-.026-.096-.031-.196-.014-.294zm1.08 0c0-.35-.16-.56-.41-.56s-.4.21-.4.56.15.55.4.55.41-.17.41-.55zm1.34-.77h.32l-2 2.9h-.32zm-.59 2.13c.021-.128.079-.248.165-.344.087-.097.2-.167.325-.201.125-.035.257-.033.381.005s.235.111.319.21.138.22.155.349c.018.128-.002.259-.057.377-.054.118-.142.218-.251.287-.11.07-.237.107-.367.107-.093-.004-.185-.026-.27-.066s-.161-.097-.223-.167c-.063-.07-.111-.152-.141-.241s-.042-.182-.036-.276zm1.08 0c0-.34-.16-.55-.41-.55s-.4.2-.4.55.15.55.4.55.41-.17.41-.51z" fill="#263238"/><path d="m322.747 424.289c3.57 9.527 3.209 20.081-1.003 29.342-4.212 9.26-11.93 16.468-21.456 20.038-2.113.795-4.292 1.404-6.51 1.82-7.168 1.305-14.56.539-21.308-2.207s-12.574-7.359-16.793-13.298c-4.22-5.939-6.66-12.958-7.033-20.234s1.337-14.508 4.927-20.847c3.591-6.339 8.914-11.524 15.346-14.945 6.432-3.422 13.707-4.939 20.97-4.374 7.264.566 14.216 3.19 20.041 7.565 5.826 4.376 10.283 10.322 12.85 17.14z" fill="#ff725e"/><path d="m315.32 427.539c2.054 5.413 2.456 11.315 1.155 16.957s-4.247 10.771-8.464 14.738c-4.218 3.967-9.518 6.594-15.229 7.547-5.711.954-11.577.192-16.854-2.19-5.278-2.382-9.73-6.276-12.794-11.189-3.063-4.914-4.6-10.626-4.416-16.413.185-5.787 2.082-11.389 5.452-16.098 3.37-4.708 8.061-8.311 13.48-10.352 7.25-2.739 15.29-2.487 22.354.701s12.573 9.05 15.316 16.299z" fill="#ff725e"/><path d="m314.184 427.538c-.083-.133-.154-.273-.21-.42-.15-.31-.34-.73-.59-1.26-.12-.28-.26-.59-.42-.93-.17-.34-.39-.69-.61-1.08-.481-.903-1.029-1.769-1.64-2.59-1.603-2.311-3.548-4.365-5.77-6.09-5.282-4.192-11.859-6.412-18.601-6.279s-13.227 2.612-18.339 7.009c-1.049.891-2.035 1.853-2.95 2.88-.46.52-.87 1.09-1.31 1.64-.447.551-.855 1.132-1.22 1.74-.773 1.21-1.471 2.465-2.09 3.76-.582 1.347-1.077 2.73-1.48 4.14-.838 2.893-1.203 5.901-1.08 8.91.226 6.245 2.484 12.245 6.43 17.09 1.891 2.345 4.147 4.371 6.68 6 1.232.793 2.515 1.505 3.84 2.13 1.319.574 2.676 1.058 4.06 1.45 2.672.795 5.453 1.166 8.24 1.1 6.739-.079 13.242-2.496 18.398-6.836 5.156-4.341 8.645-10.337 9.872-16.964.533-2.76.645-5.586.33-8.38-.086-1.01-.247-2.013-.48-3-.09-.43-.16-.84-.25-1.2l-.3-1c-.16-.56-.29-1-.39-1.33-.054-.152-.095-.31-.12-.47.07.142.13.289.18.44l.45 1.32.33 1c.1.36.18.77.28 1.2.257 1.002.438 2.021.54 3.05.359 2.819.281 5.675-.23 8.47-.732 4.111-2.328 8.019-4.683 11.467-2.355 3.447-5.414 6.356-8.977 8.533-5.745 3.461-12.483 4.898-19.14 4.08-1.422-.196-2.829-.49-4.21-.88-1.41-.404-2.793-.898-4.14-1.48-1.355-.633-2.665-1.358-3.92-2.17-2.594-1.655-4.901-3.722-6.83-6.12-1.98-2.471-3.571-5.229-4.72-8.18-1.079-2.976-1.702-6.098-1.85-9.26-.119-3.073.256-6.145 1.11-9.1.774-2.868 2.01-5.59 3.66-8.06.375-.615.79-1.207 1.24-1.77.45-.56.88-1.14 1.34-1.67.932-1.043 1.935-2.022 3-2.93 4.017-3.419 8.874-5.705 14.07-6.62 4.116-.71 8.335-.537 12.38.506 4.044 1.043 7.821 2.933 11.08 5.544 2.223 1.767 4.163 3.865 5.75 6.22.602.84 1.137 1.726 1.6 2.65.22.39.43.75.59 1.09s.28.66.4.95l.52 1.29c.073.131.133.268.18.41z" fill="#263238"/><path d="m314.09 427.907c-.16.07-.73-1.09-2-3-1.711-2.716-3.833-5.152-6.29-7.22-1.68-1.408-3.511-2.626-5.46-3.63-2.216-1.132-4.569-1.976-7-2.51-1.317-.292-2.654-.486-4-.58-1.398-.109-2.802-.109-4.2 0-1.445.112-2.879.336-4.29.67-1.453.348-2.877.806-4.26 1.37-1.379.57-2.716 1.239-4 2-1.235.762-2.411 1.614-3.52 2.55-1.077.92-2.08 1.923-3 3-.892 1.009-1.705 2.085-2.43 3.22-1.358 2.103-2.44 4.372-3.22 6.75-.674 2.089-1.117 4.245-1.32 6.43-.283 3.197-.07 6.418.63 9.55.49 2.24.9 3.46.74 3.53s-.81-1.06-1.58-3.3c-1.056-3.185-1.517-6.537-1.36-9.89.101-2.327.48-4.633 1.13-6.87.747-2.573 1.84-5.032 3.25-7.31.755-1.236 1.608-2.41 2.55-3.51.967-1.161 2.027-2.242 3.17-3.23 1.184-1.025 2.448-1.955 3.78-2.78 1.374-.844 2.812-1.579 4.3-2.2 1.492-.602 3.026-1.093 4.59-1.47 1.526-.355 3.077-.586 4.64-.69 1.505-.12 3.016-.12 4.52 0 1.443.122 2.874.356 4.28.7 2.606.618 5.116 1.587 7.46 2.88 2.031 1.139 3.923 2.508 5.64 4.08 2.475 2.276 4.509 4.988 6 8 1.07 2.14 1.37 3.41 1.25 3.46z" fill="#000" opacity=".3"/><path d="m296.046 453.018 1.86 4.75-4.27 1.66-1.81-4.62c-4.29 1.39-8.83 1.66-11.88.76l.3-6.09c3.093.752 6.329.686 9.39-.19l-2.78-7.07c-5.15.7-11 1.2-13.4-4.86-1.76-4.49 0-9.63 6.38-13l-1.85-4.7 4.24-1.67 1.81 4.62c3.099-1.02 6.396-1.291 9.62-.79l-.07 6c-2.449-.377-4.948-.262-7.35.34l2.83 7.2c5.13-.74 10.92-1.2 13.26 4.77 1.77 4.4.05 9.47-6.28 12.89zm-11.59-17.06-2.37-6c-2 1.39-2.45 3-1.9 4.37s2.17 1.77 4.27 1.63zm11.29 7.33c-.58-1.49-2.12-1.81-4.2-1.73l2.3 5.85c1.94-1.28 2.44-2.75 1.9-4.12z" fill="#000" opacity=".3"/><path d="m390.01 366.518h-85.19v15.47h85.19z" fill="#ff725e"/><g fill="#263238"><path d="m313.155 382.098c-.19 0-.35-3.44-.35-7.67s.16-7.68.35-7.68.36 3.44.36 7.68-.16 7.67-.36 7.67z"/><path d="m308.498 382.098c-.19 0-.35-3.44-.35-7.67s.16-7.68.35-7.68.36 3.44.36 7.68-.16 7.67-.36 7.67z"/><path d="m323.399 382.098c-.2 0-.36-3.44-.36-7.67s.16-7.68.36-7.68.35 3.44.35 7.68-.11 7.67-.35 7.67z"/><path d="m318.741 382.098c-.2 0-.35-3.44-.35-7.67s.15-7.68.35-7.68.35 3.44.35 7.68-.15 7.67-.35 7.67z"/><path d="m333.639 382.098c-.19 0-.35-3.44-.35-7.67s.16-7.68.35-7.68.36 3.44.36 7.68-.17 7.67-.36 7.67z"/><path d="m328.977 382.098c-.2 0-.36-3.44-.36-7.67s.16-7.68.36-7.68.35 3.44.35 7.68-.16 7.67-.35 7.67z"/><path d="m343.866 382.098c-.2 0-.35-3.44-.35-7.67s.15-7.68.35-7.68.36 3.44.36 7.68-.16 7.67-.36 7.67z"/><path d="m339.209 382.098c-.19 0-.35-3.44-.35-7.67s.16-7.68.35-7.68.36 3.44.36 7.68-.16 7.67-.36 7.67z"/><path d="m354.11 382.098c-.2 0-.36-3.44-.36-7.67s.16-7.68.36-7.68.35 3.44.35 7.68-.16 7.67-.35 7.67z"/><path d="m349.446 382.098c-.2 0-.36-3.44-.36-7.67s.16-7.68.36-7.68.35 3.44.35 7.68-.16 7.67-.35 7.67z"/><path d="m364.334 382.098c-.19 0-.35-3.44-.35-7.67s.16-7.68.35-7.68.36 3.44.36 7.68-.16 7.67-.36 7.67z"/><path d="m359.639 382.098c-.19 0-.35-3.44-.35-7.67s.16-7.68.35-7.68.36 3.44.36 7.68-.12 7.67-.36 7.67z"/><path d="m374.579 382.098c-.2 0-.36-3.44-.36-7.67s.16-7.68.36-7.68.35 3.44.35 7.68-.16 7.67-.35 7.67z"/><path d="m369.915 382.098c-.2 0-.36-3.44-.36-7.67s.16-7.68.36-7.68.35 3.44.35 7.68-.16 7.67-.35 7.67z"/><path d="m384.811 382.098c-.19 0-.35-3.44-.35-7.67s.16-7.68.35-7.68.36 3.44.36 7.68-.16 7.67-.36 7.67z"/><path d="m380.147 382.098c-.19 0-.35-3.44-.35-7.67s.16-7.68.35-7.68.36 3.44.36 7.68-.16 7.67-.36 7.67z"/><path d="m389.994 366.518c0 .2-19.16.36-42.79.36s-42.79-.16-42.79-.36 19.16-.35 42.79-.35 42.79.12 42.79.35z"/></g><path d="m384.424 382.238h-85.19v15.47h85.19z" fill="#ff725e"/><path d="m307.633 397.809c-.2 0-.36-3.43-.36-7.67s.16-7.67.36-7.67.35 3.43.35 7.67-.21 7.67-.35 7.67z" fill="#263238"/><path d="m302.93 397.809c-.2 0-.36-3.43-.36-7.67s.16-7.67.36-7.67.35 3.43.35 7.67-.16 7.67-.35 7.67z" fill="#263238"/><path d="m317.819 397.809c-.19 0-.35-3.43-.35-7.67s.16-7.67.35-7.67.36 3.43.36 7.67-.16 7.67-.36 7.67z" fill="#263238"/><path d="m313.155 397.809c-.19 0-.35-3.43-.35-7.67s.16-7.67.35-7.67.36 3.43.36 7.67-.16 7.67-.36 7.67z" fill="#263238"/><path d="m328.055 397.809c-.2 0-.36-3.43-.36-7.67s.16-7.67.36-7.67.35 3.43.35 7.67-.16 7.67-.35 7.67z" fill="#263238"/><path d="m323.399 397.809c-.2 0-.36-3.43-.36-7.67s.16-7.67.36-7.67.35 3.43.35 7.67-.11 7.67-.35 7.67z" fill="#263238"/><path d="m338.288 397.809c-.19 0-.35-3.43-.35-7.67s.16-7.67.35-7.67.359 3.43.359 7.67-.159 7.67-.359 7.67z" fill="#263238"/><path d="m333.639 397.809c-.19 0-.35-3.43-.35-7.67s.16-7.67.35-7.67.36 3.43.36 7.67-.17 7.67-.36 7.67z" fill="#263238"/><path d="m348.53 397.809c-.2 0-.35-3.43-.35-7.67s.15-7.67.35-7.67.35 3.43.35 7.67-.15 7.67-.35 7.67z" fill="#263238"/><path d="m343.866 397.809c-.2 0-.35-3.43-.35-7.67s.15-7.67.35-7.67.36 3.43.36 7.67-.16 7.67-.36 7.67z" fill="#263238"/><path d="m358.766 397.809c-.2 0-.36-3.43-.36-7.67s.16-7.67.36-7.67.35 3.43.35 7.67-.16 7.67-.35 7.67z" fill="#263238"/><path d="m354.11 397.809c-.2 0-.36-3.43-.36-7.67s.16-7.67.36-7.67.35 3.43.35 7.67-.16 7.67-.35 7.67z" fill="#263238"/><path d="m368.998 397.809c-.19 0-.35-3.43-.35-7.67s.16-7.67.35-7.67.36 3.43.36 7.67-.16 7.67-.36 7.67z" fill="#263238"/><path d="m364.334 397.809c-.19 0-.35-3.43-.35-7.67s.16-7.67.35-7.67.36 3.43.36 7.67-.16 7.67-.36 7.67z" fill="#263238"/><path d="m379.235 397.809c-.2 0-.36-3.43-.36-7.67s.16-7.67.36-7.67.35 3.43.35 7.67-.16 7.67-.35 7.67z" fill="#263238"/><path d="m374.579 397.809c-.2 0-.36-3.43-.36-7.67s.16-7.67.36-7.67.35 3.43.35 7.67-.16 7.67-.35 7.67z" fill="#263238"/><path d="m384.426 382.288c0 .19-19.16.35-42.79.35s-42.8-.16-42.8-.35 19.16-.36 42.8-.36 42.79.11 42.79.36z" fill="#263238"/><path d="m391.385 397.809h-85.19v15.47h85.19z" fill="#ff725e"/><path d="m314.548 413.389c-.2 0-.36-3.44-.36-7.67s.16-7.68.36-7.68.349 3.44.349 7.68-.159 7.67-.349 7.67z" fill="#263238"/><path d="m309.883 413.389c-.2 0-.36-3.44-.36-7.67s.16-7.68.36-7.68.35 3.44.35 7.68-.15 7.67-.35 7.67z" fill="#263238"/><path d="m324.78 413.389c-.19 0-.35-3.44-.35-7.67s.16-7.68.35-7.68.36 3.44.36 7.68-.16 7.67-.36 7.67z" fill="#263238"/><path d="m320.126 413.389c-.2 0-.36-3.44-.36-7.67s.16-7.68.36-7.68.35 3.44.35 7.68-.16 7.67-.35 7.67z" fill="#263238"/><path d="m335.014 413.389c-.2 0-.35-3.44-.35-7.67s.15-7.68.35-7.68.35 3.44.35 7.68-.15 7.67-.35 7.67z" fill="#263238"/><path d="m330.358 413.389c-.2 0-.35-3.44-.35-7.67s.15-7.68.35-7.68.36 3.44.36 7.68-.16 7.67-.36 7.67z" fill="#263238"/><path d="m345.258 413.389c-.2 0-.36-3.44-.36-7.67s.16-7.68.36-7.68.35 3.44.35 7.68-.16 7.67-.35 7.67z" fill="#263238"/><path d="m340.633 413.389c-.2 0-.36-3.44-.36-7.67s.16-7.68.36-7.68.35 3.44.35 7.68-.2 7.67-.35 7.67z" fill="#263238"/><path d="m355.491 413.389c-.19 0-.35-3.44-.35-7.67s.16-7.68.35-7.68.36 3.44.36 7.68-.16 7.67-.36 7.67z" fill="#263238"/><path d="m350.827 413.389c-.19 0-.35-3.44-.35-7.67s.16-7.68.35-7.68.36 3.44.36 7.68-.16 7.67-.36 7.67z" fill="#263238"/><path d="m365.727 413.389c-.2 0-.36-3.44-.36-7.67s.16-7.68.36-7.68.35 3.44.35 7.68-.16 7.67-.35 7.67z" fill="#263238"/><path d="m361.071 413.389c-.2 0-.36-3.44-.36-7.67s.16-7.68.36-7.68.35 3.44.35 7.68-.16 7.67-.35 7.67z" fill="#263238"/><path d="m375.959 413.389c-.19 0-.35-3.44-.35-7.67s.16-7.68.35-7.68.36 3.44.36 7.68-.16 7.67-.36 7.67z" fill="#263238"/><path d="m371.295 413.389c-.19 0-.35-3.44-.35-7.67s.16-7.68.35-7.68.36 3.44.36 7.68-.16 7.67-.36 7.67z" fill="#263238"/><path d="m386.196 413.389c-.2 0-.36-3.44-.36-7.67s.16-7.68.36-7.68.35 3.44.35 7.68-.16 7.67-.35 7.67z" fill="#263238"/><path d="m381.54 413.389c-.2 0-.36-3.44-.36-7.67s.16-7.68.36-7.68.35 3.44.35 7.68-.16 7.67-.35 7.67z" fill="#263238"/><path d="m391.384 397.809c0 .2-19.21.36-42.89.36s-42.9-.16-42.9-.36 19.2-.35 42.9-.35 42.89.16 42.89.35z" fill="#263238"/><path d="m384.706 413.158h-85.19v15.47h85.19z" fill="#ff725e"/><path d="m307.866 428.739c-.19 0-.35-3.44-.35-7.68s.16-7.67.35-7.67.36 3.43.36 7.67-.16 7.68-.36 7.68z" fill="#263238"/><path d="m303.209 428.739c-.19 0-.35-3.44-.35-7.68s.16-7.67.35-7.67.36 3.43.36 7.67-.16 7.68-.36 7.68z" fill="#263238"/><path d="m318.11 428.739c-.2 0-.36-3.44-.36-7.68s.16-7.67.36-7.67.35 3.43.35 7.67-.16 7.68-.35 7.68z" fill="#263238"/><path d="m313.446 428.739c-.2 0-.36-3.44-.36-7.68s.16-7.67.36-7.67.35 3.43.35 7.67-.16 7.68-.35 7.68z" fill="#263238"/><path d="m328.334 428.739c-.19 0-.35-3.44-.35-7.68s.16-7.67.35-7.67.36 3.43.36 7.67-.16 7.68-.36 7.68z" fill="#263238"/><path d="m323.639 428.739c-.19 0-.35-3.44-.35-7.68s.16-7.67.35-7.67.36 3.43.36 7.67-.12 7.68-.36 7.68z" fill="#263238"/><path d="m338.579 428.739c-.2 0-.36-3.44-.36-7.68s.16-7.67.36-7.67.35 3.43.35 7.67-.16 7.68-.35 7.68z" fill="#263238"/><path d="m333.915 428.739c-.2 0-.36-3.44-.36-7.68s.16-7.67.36-7.67.35 3.43.35 7.67-.16 7.68-.35 7.68z" fill="#263238"/><path d="m348.811 428.739c-.19 0-.35-3.44-.35-7.68s.16-7.67.35-7.67.36 3.43.36 7.67-.16 7.68-.36 7.68z" fill="#263238"/><path d="m344.147 428.739c-.19 0-.35-3.44-.35-7.68s.16-7.67.35-7.67.36 3.43.36 7.67-.16 7.68-.36 7.68z" fill="#263238"/><path d="m359.048 428.739c-.2 0-.36-3.44-.36-7.68s.16-7.67.36-7.67.349 3.43.349 7.67-.149 7.68-.349 7.68z" fill="#263238"/><path d="m354.389 428.739c-.2 0-.35-3.44-.35-7.68s.15-7.67.35-7.67.35 3.43.35 7.67-.1 7.68-.35 7.68z" fill="#263238"/><path d="m369.28 428.739c-.19 0-.35-3.44-.35-7.68s.16-7.67.35-7.67.36 3.43.36 7.67-.16 7.68-.36 7.68z" fill="#263238"/><path d="m364.633 428.739c-.2 0-.36-3.44-.36-7.68s.16-7.67.36-7.67.35 3.43.35 7.67-.17 7.68-.35 7.68z" fill="#263238"/><path d="m379.514 428.739c-.2 0-.35-3.44-.35-7.68s.15-7.67.35-7.67.36 3.43.36 7.67-.16 7.68-.36 7.68z" fill="#263238"/><path d="m374.858 428.739c-.19 0-.35-3.44-.35-7.68s.16-7.67.35-7.67.36 3.43.36 7.67-.16 7.68-.36 7.68z" fill="#263238"/><path d="m384.705 413.159c0 .2-19.16.35-42.79.35s-42.79-.15-42.79-.35 19.15-.35 42.79-.35 42.79.15 42.79.35z" fill="#263238"/><path d="m393.245 428.848h-85.19v15.47h85.19z" fill="#ff725e"/><path d="m316.407 444.428c-.2 0-.36-3.44-.36-7.68s.16-7.67.36-7.67.35 3.44.35 7.67-.12 7.68-.35 7.68z" fill="#263238"/><path d="m311.751 444.428c-.2 0-.36-3.44-.36-7.68s.16-7.67.36-7.67.35 3.44.35 7.67-.16 7.68-.35 7.68z" fill="#263238"/><path d="m326.639 444.428c-.19 0-.35-3.44-.35-7.68s.16-7.67.35-7.67.36 3.44.36 7.67-.16 7.68-.36 7.68z" fill="#263238"/><path d="m321.975 444.428c-.19 0-.35-3.44-.35-7.68s.16-7.67.35-7.67.36 3.44.36 7.67-.16 7.68-.36 7.68z" fill="#263238"/><path d="m336.873 444.428c-.2 0-.35-3.44-.35-7.68s.15-7.67.35-7.67.35 3.44.35 7.67-.15 7.68-.35 7.68z" fill="#263238"/><path d="m332.217 444.428c-.2 0-.35-3.44-.35-7.68s.15-7.67.35-7.67.35 3.44.35 7.67-.15 7.68-.35 7.68z" fill="#263238"/><path d="m347.118 444.428c-.2 0-.36-3.44-.36-7.68s.16-7.67.36-7.67.35 3.44.35 7.67-.16 7.68-.35 7.68z" fill="#263238"/><path d="m342.454 444.428c-.2 0-.36-3.44-.36-7.68s.16-7.67.36-7.67.35 3.44.35 7.67-.17 7.68-.35 7.68z" fill="#263238"/><path d="m357.35 444.428c-.19 0-.35-3.44-.35-7.68s.16-7.67.35-7.67.36 3.44.36 7.67-.16 7.68-.36 7.68z" fill="#263238"/><path d="m352.686 444.428c-.19 0-.35-3.44-.35-7.68s.16-7.67.35-7.67.36 3.44.36 7.67-.16 7.68-.36 7.68z" fill="#263238"/><path d="m367.633 444.428c-.2 0-.36-3.44-.36-7.68s.16-7.67.36-7.67.35 3.44.35 7.67-.21 7.68-.35 7.68z" fill="#263238"/><path d="m362.93 444.428c-.2 0-.36-3.44-.36-7.68s.16-7.67.36-7.67.35 3.44.35 7.67-.16 7.68-.35 7.68z" fill="#263238"/><path d="m377.819 444.428c-.19 0-.35-3.44-.35-7.68s.16-7.67.35-7.67.36 3.44.36 7.67-.16 7.68-.36 7.68z" fill="#263238"/><path d="m373.155 444.428c-.19 0-.35-3.44-.35-7.68s.16-7.67.35-7.67.36 3.44.36 7.67-.16 7.68-.36 7.68z" fill="#263238"/><path d="m388.055 444.428c-.2 0-.36-3.44-.36-7.68s.16-7.67.36-7.67.35 3.44.35 7.67-.16 7.68-.35 7.68z" fill="#263238"/><path d="m383.399 444.428c-.2 0-.36-3.44-.36-7.68s.16-7.67.36-7.67.35 3.44.35 7.67-.11 7.68-.35 7.68z" fill="#263238"/><path d="m393.244 428.848c0 .2-19.16.36-42.79.36s-42.79-.16-42.79-.36 19.15-.35 42.79-.35 42.79.16 42.79.35z" fill="#263238"/><path d="m387.909 444.498h-85.19v15.47h85.19z" fill="#ff725e"/><path d="m311.071 460.069c-.2 0-.36-3.43-.36-7.67s.16-7.67.36-7.67.35 3.43.35 7.67-.16 7.67-.35 7.67z" fill="#263238"/><path d="m306.407 460.069c-.2 0-.36-3.43-.36-7.67s.16-7.67.36-7.67.35 3.43.35 7.67-.12 7.67-.35 7.67z" fill="#263238"/><path d="m321.295 460.069c-.19 0-.35-3.43-.35-7.67s.16-7.67.35-7.67.36 3.43.36 7.67-.16 7.67-.36 7.67z" fill="#263238"/><path d="m316.639 460.069c-.19 0-.35-3.43-.35-7.67s.16-7.67.35-7.67.36 3.43.36 7.67-.16 7.67-.36 7.67z" fill="#263238"/><path d="m331.54 460.069c-.2 0-.36-3.43-.36-7.67s.16-7.67.36-7.67.35 3.43.35 7.67-.16 7.67-.35 7.67z" fill="#263238"/><path d="m326.876 460.069c-.2 0-.36-3.43-.36-7.67s.16-7.67.36-7.67.35 3.43.35 7.67-.16 7.67-.35 7.67z" fill="#263238"/><path d="m341.764 460.069c-.19 0-.35-3.43-.35-7.67s.16-7.67.35-7.67.36 3.43.36 7.67-.16 7.67-.36 7.67z" fill="#263238"/><path d="m337.108 460.069c-.19 0-.35-3.43-.35-7.67s.16-7.67.35-7.67.36 3.43.36 7.67-.16 7.67-.36 7.67z" fill="#263238"/><path d="m352.008 460.069c-.2 0-.36-3.43-.36-7.67s.16-7.67.36-7.67.35 3.43.35 7.67-.15 7.67-.35 7.67z" fill="#263238"/><path d="m347.35 460.069c-.2 0-.35-3.43-.35-7.67s.15-7.67.35-7.67.35 3.43.35 7.67-.15 7.67-.35 7.67z" fill="#263238"/><path d="m362.251 460.069c-.2 0-.36-3.43-.36-7.67s.16-7.67.36-7.67.35 3.43.35 7.67-.16 7.67-.35 7.67z" fill="#263238"/><path d="m357.633 460.069c-.2 0-.36-3.43-.36-7.67s.16-7.67.36-7.67.35 3.43.35 7.67-.21 7.67-.35 7.67z" fill="#263238"/><path d="m372.475 460.069c-.2 0-.35-3.43-.35-7.67s.15-7.67.35-7.67.36 3.43.36 7.67-.2 7.67-.36 7.67z" fill="#263238"/><path d="m367.819 460.069c-.19 0-.35-3.43-.35-7.67s.16-7.67.35-7.67.36 3.43.36 7.67-.16 7.67-.36 7.67z" fill="#263238"/><path d="m382.719 460.069c-.2 0-.36-3.43-.36-7.67s.16-7.67.36-7.67.35 3.43.35 7.67-.16 7.67-.35 7.67z" fill="#263238"/><path d="m378.055 460.069c-.2 0-.36-3.43-.36-7.67s.16-7.67.36-7.67.35 3.43.35 7.67-.16 7.67-.35 7.67z" fill="#263238"/><path d="m387.907 444.499c0 .19-19.21.35-42.9.35s-42.89-.16-42.89-.35 19.2-.36 42.89-.36 42.9.15 42.9.36z" fill="#263238"/><path d="m381.229 459.838h-85.19v15.47h85.19z" fill="#ff725e"/><path d="m304.383 475.418c-.2 0-.36-3.44-.36-7.67s.16-7.68.36-7.68.35 3.44.35 7.68-.1 7.67-.35 7.67z" fill="#263238"/><path d="m299.725 475.418c-.2 0-.35-3.44-.35-7.67s.15-7.68.35-7.68.35 3.44.35 7.68-.15 7.67-.35 7.67z" fill="#263238"/><path d="m314.639 475.418c-.19 0-.35-3.44-.35-7.67s.16-7.68.35-7.68.36 3.44.36 7.68-.18 7.67-.36 7.67z" fill="#263238"/><path d="m309.969 475.418c-.2 0-.36-3.44-.36-7.67s.16-7.68.36-7.68.35 3.44.35 7.68-.16 7.67-.35 7.67z" fill="#263238"/><path d="m324.858 475.418c-.2 0-.35-3.44-.35-7.67s.15-7.68.35-7.68.36 3.44.36 7.68-.16 7.67-.36 7.67z" fill="#263238"/><path d="m320.194 475.418c-.19 0-.35-3.44-.35-7.67s.16-7.68.35-7.68.36 3.44.36 7.68-.16 7.67-.36 7.67z" fill="#263238"/><path d="m335.094 475.418c-.2 0-.36-3.44-.36-7.67s.16-7.68.36-7.68.35 3.44.35 7.68-.16 7.67-.35 7.67z" fill="#263238"/><path d="m330.437 475.418c-.2 0-.359-3.44-.359-7.67s.159-7.68.359-7.68.35 3.44.35 7.68-.15 7.67-.35 7.67z" fill="#263238"/><path d="m345.327 475.418c-.19 0-.35-3.44-.35-7.67s.16-7.68.35-7.68.36 3.44.36 7.68-.16 7.67-.36 7.67z" fill="#263238"/><path d="m340.639 475.418c-.19 0-.35-3.44-.35-7.67s.16-7.68.35-7.68.36 3.44.36 7.68-.13 7.67-.36 7.67z" fill="#263238"/><path d="m355.571 475.418c-.2 0-.36-3.44-.36-7.67s.16-7.68.36-7.68.35 3.44.35 7.68-.16 7.67-.35 7.67z" fill="#263238"/><path d="m350.907 475.418c-.2 0-.36-3.44-.36-7.67s.16-7.68.36-7.68.35 3.44.35 7.68-.16 7.67-.35 7.67z" fill="#263238"/><path d="m365.795 475.418c-.19 0-.35-3.44-.35-7.67s.16-7.68.35-7.68.36 3.44.36 7.68-.16 7.67-.36 7.67z" fill="#263238"/><path d="m361.139 475.418c-.19 0-.35-3.44-.35-7.67s.16-7.68.35-7.68.36 3.44.36 7.68-.16 7.67-.36 7.67z" fill="#263238"/><path d="m376.04 475.418c-.2 0-.36-3.44-.36-7.67s.16-7.68.36-7.68.35 3.44.35 7.68-.16 7.67-.35 7.67z" fill="#263238"/><path d="m371.376 475.418c-.2 0-.36-3.44-.36-7.67s.16-7.68.36-7.68.35 3.44.35 7.68-.15 7.67-.35 7.67z" fill="#263238"/><path d="m381.228 459.838c0 .2-19.16.36-42.79.36s-42.79-.16-42.79-.36 19.15-.35 42.79-.35 42.79.16 42.79.35z" fill="#263238"/><path d="m306.195 397.809c12.72 3.13 26.28 3.73 39.35 2.87s26.28-2.8 39.38-2.64z" fill="#000" opacity=".3"/><path d="m306.969 382.408c12.72 3.13 26.28 3.74 39.35 2.87s26.27-2.79 39.37-2.64z" fill="#000" opacity=".3"/><path d="m311.086 413.289c12.73 3.12 26.28 3.73 39.36 2.86s26.27-2.79 39.37-2.63z" fill="#000" opacity=".3"/><path d="m307.75 428.758c12.73 3.13 26.28 3.73 39.35 2.86s26.28-2.79 39.38-2.63z" fill="#000" opacity=".3"/><path d="m308.766 444.139c12.72 3.13 26.28 3.73 39.35 2.86s26.27-2.79 39.37-2.63z" fill="#000" opacity=".3"/><path d="m304.641 459.818c12.72 3.12 26.27 3.73 39.35 2.86s26.27-2.79 39.37-2.63z" fill="#000" opacity=".3"/><path d="m306.376 377.099c-.2 0-.36-1.89-.36-4.23s.16-4.24.36-4.24.35 1.9.35 4.24-.16 4.23-.35 4.23z" fill="#fff"/><path d="m301.008 393.629c-.2 0-.36-2-.36-4.54s.16-4.55.36-4.55.35 2 .35 4.55-.16 4.54-.35 4.54z" fill="#fff"/><path d="m308.639 409.539c-.19 0-.35-1.8-.35-4s.16-4 .35-4 .36 1.81.36 4-.15 4-.36 4z" fill="#fff"/><path d="m300.795 424.209c-.2 0-.35-1.62-.35-3.61s.15-3.62.35-3.62.35 1.62.35 3.62-.15 3.61-.35 3.61z" fill="#fff"/><path d="m331.998 383.508c0 .2-6.29.35-14.05.35s-14.05-.15-14.05-.35 6.29-.36 14.05-.36 14.05.14 14.05.36z" fill="#fff"/><path d="m341.083 368.627c0 .2-6.34.36-14.15.36s-14.16-.16-14.16-.36 6.34-.35 14.16-.35 14.15.16 14.15.35z" fill="#fff"/><path d="m354.73 368.838c0 .2-2.09.35-4.65.35s-4.65-.15-4.65-.35 2.08-.35 4.65-.35 4.65.15 4.65.35z" fill="#fff"/><path d="m309.267 443.758c-.346-3.936-.346-7.895 0-11.83.347 3.935.347 7.894 0 11.83z" fill="#fff"/><path d="m373.995 427.018c0 .15-15.49.26-34.59.26s-34.6-.11-34.6-.26 15.49-.26 34.6-.26 34.59.12 34.59.26z" fill="#fff"/><path d="m360.157 458.287c0 .15-12.24.26-27.34.26s-27.34-.11-27.34-.26 12.24-.26 27.34-.26 27.34.1 27.34.26z" fill="#fff"/><path d="m297.22 472.288c-.346-2.217-.346-4.474 0-6.69.347 2.216.347 4.473 0 6.69z" fill="#fff"/><path d="m357.489 473.668c0 .15-12.7.26-28.35.26s-28.35-.11-28.35-.26 12.69-.26 28.35-.26 28.35.12 28.35.26z" fill="#fff"/><path d="m296.035 475.287c-.013-.093-.013-.187 0-.28 0-.22 0-.48 0-.81 0-.77 0-1.81 0-3.13 0-2.76-.06-6.65-.09-11.39v-.2h.2 6.08l-.23.23c0-4.65 0-9.89 0-15.45v-.26h5.89l-.26.26c0-5.6 0-10.91 0-15.69l.23.24h-8.23-.2v-.2c0-4.7.07-8.56.09-11.29 0-1.3 0-2.34.05-3.1v-.8c-.034-.007-.064-.027-.084-.055s-.029-.062-.026-.097c.004-.034.02-.066.046-.089s.059-.035.094-.035c.034 0 .067.012.093.035s.042.055.046.089c.004.035-.005.069-.026.097-.02.028-.05.048-.083.055v.8c0 .76 0 1.8.06 3.1 0 2.73.05 6.59.09 11.29l-.21-.2h8.23.24v.24 15.69.26h-5.89l.26-.26v15.45.23h-.23l-6.08-.09.21-.21c0 4.74-.07 8.63-.09 11.39 0 1.32 0 2.36-.06 3.13v.81c-.029.085-.07.166-.12.24z" fill="#263238"/><path d="m388.841 365.188-67.2 1.099c15.184 9.275 32.433 14.635 50.2 15.6-1.23 23.12 9.65 45.19 11.53 68.26.013 1.113.24 2.214.67 3.24.223.508.595.936 1.066 1.229s1.02.436 1.574.411c1.77-.25 2.34-2.49 2.49-4.27 2.391-28.478 2.281-57.111-.33-85.569z" fill="#000" opacity=".3"/><path d="m317.825 175.478c-1.456-1.213-2.538-2.815-3.118-4.619-.581-1.804-.637-3.736-.162-5.571.113-.173.184-.37.207-.575.024-.206-.001-.413-.072-.608-.071-.194-.185-.369-.335-.51-.15-.142-.332-.247-.53-.307-.86-.514-1.607-1.198-2.194-2.009-.588-.811-1.005-1.734-1.226-2.711-.205-.986-.147-2.008.167-2.964.314-.957.875-1.814 1.624-2.486-2.85-1.19-3.861-5.18-2.341-7.88.836-1.307 2.046-2.332 3.473-2.942s3.004-.777 4.527-.478c-.419-.848-.553-1.809-.383-2.74.169-.931.632-1.783 1.323-2.43 1.423-1.256 3.217-2.015 5.11-2.16 2.51-.32 5.481.14 6.791 2.31.22-1.54 1.829-2.5 3.349-2.79 2.062-.316 4.169.138 5.918 1.276 1.748 1.139 3.016 2.881 3.562 4.894 1.286-.955 2.838-1.486 4.44-1.52.8.005 1.576.275 2.207.767s1.082 1.178 1.283 1.953c.74-1.39 2.491-1.88 4.051-1.94 1.137-.099 2.276.149 3.269.71.492.289.882.722 1.119 1.241.236.519.306 1.099.201 1.659 1.055-.301 2.184-.212 3.179.251s1.791 1.268 2.241 2.269c.393 1.026.407 2.158.04 3.193-.366 1.036-1.09 1.907-2.04 2.457.814.517 1.482 1.234 1.941 2.082s.693 1.8.68 2.764c-.013.965-.273 1.91-.754 2.745-.482.836-1.169 1.534-1.997 2.029.224.069.429.187.601.347s.305.356.389.575c.085.218.12.453.101.687-.019.233-.092.459-.211.661-.273.393-.636.716-1.059.94-.422.224-.893.344-1.371.35.2 3.3.39 6.59.59 9.88.238 2.122.143 4.268-.28 6.36-.223 1.042-.687 2.018-1.353 2.849-.667.832-1.519 1.496-2.487 1.941" fill="#263238"/><path d="m317.321 165.968c-.06-8 7.92-16.55 15.88-16.27l25.94 3.07.22 4.29-.72 58.55-24.64 15.09-1.42-24.41s-10.24-1-13.26-14.09c-1.51-6.51-1.94-17.35-2-26.23z" fill="#ffbe9d"/><path d="m320.289 175.968c.026.442.223.856.55 1.155s.757.459 1.2.445c.217.001.433-.041.634-.124.2-.083.383-.206.536-.361.152-.154.273-.338.353-.54.081-.202.121-.418.117-.635-.024-.443-.22-.859-.548-1.159-.327-.299-.759-.458-1.202-.441-.218-.002-.433.041-.634.124s-.383.205-.536.36-.273.339-.354.54c-.081.202-.12.418-.116.636z" fill="#263238"/><path d="m320.048 171.428c.22.21 1.44-.84 3.26-1s3.23.69 3.41.45-.15-.49-.77-.87c-.825-.493-1.783-.717-2.74-.64-.945.05-1.849.4-2.58 1-.53.55-.69.97-.58 1.06z" fill="#263238"/><path d="m337.641 175.968c.026.442.223.856.55 1.155s.758.459 1.2.445c.218.001.433-.041.634-.124s.383-.206.536-.361c.153-.154.273-.338.354-.54s.12-.418.116-.635c-.023-.443-.22-.859-.547-1.159-.327-.299-.759-.458-1.203-.441-.217-.002-.433.041-.634.124-.2.083-.383.205-.536.36-.152.155-.273.339-.353.54-.081.202-.121.418-.117.636z" fill="#263238"/><path d="m337.97 170.887c.22.21 1.44-.83 3.26-1s3.22.7 3.41.46-.15-.49-.77-.88c-.827-.488-1.783-.711-2.74-.64-.944.053-1.848.403-2.58 1-.53.56-.69.97-.58 1.06z" fill="#263238"/><path d="m332.316 184.537c-.983-.232-1.991-.34-3-.32-.47 0-.92-.08-1-.39-.069-.48.004-.97.21-1.41.36-1.16.74-2.38 1.13-3.66 1.56-5.2 2.65-9.47 2.44-9.53s-1.64 4.11-3.2 9.31c-.37 1.29-.73 2.51-1.07 3.68-.245.587-.284 1.239-.11 1.85.078.159.192.299.333.408.14.109.303.185.477.222.263.054.532.071.8.05 1.001.062 2.007-.008 2.99-.21z" fill="#263238"/><path d="m332.578 206.289c6.231-.35 12.242-2.427 17.359-6 0 0-3.819 10.28-17.129 10z" fill="#eb996e"/><path d="m333.396 188.898c.315-.462.744-.836 1.244-1.086.501-.25 1.057-.369 1.616-.344.407.012.808.107 1.178.279.369.171.7.417.972.721.265.288.436.65.489 1.038.054.388-.012.783-.189 1.132-.27.349-.638.609-1.057.746-.419.138-.87.146-1.293.024-.887-.238-1.714-.657-2.43-1.23-.216-.131-.406-.3-.56-.5-.065-.102-.1-.22-.1-.34 0-.121.035-.239.1-.34" fill="#eb996e"/><path d="m337.775 185.428c-.3 0-.17 2-1.76 3.52s-3.72 1.46-3.71 1.74c0 .13.49.36 1.39.32 1.158-.073 2.253-.547 3.1-1.34.813-.773 1.296-1.829 1.35-2.95.02-.83-.24-1.31-.37-1.29z" fill="#263238"/><path d="m336.959 164.388c.21.49 2 .12 4.17.23s3.93.57 4.18.1c.11-.22-.22-.67-.95-1.1-.971-.523-2.049-.817-3.151-.861-1.102-.043-2.2.166-3.209.611-.77.37-1.13.79-1.04 1.02z" fill="#263238"/><path d="m320.351 166.078c.35.4 1.57-.12 3.08-.25s2.81.08 3.07-.38c.12-.22-.11-.62-.7-1-.786-.433-1.686-.616-2.579-.525s-1.738.452-2.421 1.035c-.46.49-.61.93-.45 1.12z" fill="#263238"/><path d="m321.686 150.288c-.32 1.247-.272 2.56.138 3.781s1.164 2.297 2.172 3.099c1.036.759 2.272 1.199 3.555 1.265s2.557-.246 3.665-.895c-.361.491-.53 1.099-.475 1.706.055.608.331 1.175.775 1.594.932.804 2.142 1.21 3.37 1.13 1.284-.02 2.548-.318 3.706-.872 1.159-.554 2.183-1.352 3.004-2.338.199 1.009.634 1.956 1.27 2.765.636.808 1.454 1.455 2.388 1.886s1.956.635 2.984.595 2.031-.324 2.928-.826c-.648.684-1.127 1.511-1.396 2.415s-.322 1.858-.153 2.786c.168.928.553 1.803 1.123 2.554.57.752 1.31 1.358 2.158 1.77s1.781.618 2.724.602 1.869-.254 2.703-.695c.833-.44 1.551-1.071 2.095-1.842.545-.77.9-1.657 1.036-2.59.915-.474 1.709-1.151 2.321-1.979s1.025-1.786 1.209-2.799c.183-1.014.132-2.056-.151-3.046-.282-.99-.788-1.902-1.479-2.666.639-.292 1.19-.747 1.597-1.319.408-.573.657-1.242.723-1.941.125-1.406-.12-2.819-.71-4.1-.6-1.609-1.517-3.081-2.697-4.328s-2.599-2.245-4.173-2.932c-1.588-.65-3.334-.806-5.013-.449-1.678.356-3.21 1.21-4.397 2.449-.215.323-.526.572-.89.71-.51.13-1-.26-1.38-.61-1.73-1.59-3.53-3.31-5.83-3.77-1.397-.244-2.836-.006-4.082.673s-2.225 1.76-2.778 3.067c-1.76-2.61-5.26-4.09-8.21-3s-4.67 5-3.06 7.69" fill="#263238"/><path d="m355.086 171.227c.327 2.687 1.034 5.313 2.1 7.8.45 1.06 1.13 2.21 2.25 2.38.522.031 1.04-.108 1.478-.394.437-.286.771-.705.952-1.196.344-.992.44-2.052.28-3.09-.4-3.688-1.042-7.345-1.92-10.95" fill="#263238"/><path d="m358.125 173.127c.15-.09 6.5-2.81 7.08 3.95s-6.29 6-6.32 5.76-.76-9.71-.76-9.71z" fill="#ffbe9d"/><path d="m360.715 180.098s.13.08.33.15c.291.092.605.071.88-.06.412-.315.732-.734.929-1.214.197-.479.263-1.003.191-1.516-.037-.582-.201-1.148-.48-1.66-.083-.211-.218-.398-.393-.543s-.384-.244-.607-.287c-.138-.022-.279.005-.4.076-.12.071-.212.182-.26.314-.07.19 0 .33-.05.34s-.16-.1-.13-.38c.023-.172.104-.331.23-.45.084-.079.184-.14.292-.18.108-.039.223-.056.338-.05.282.031.552.133.783.298.231.164.416.386.537.642.336.562.532 1.196.57 1.85.085.598-.008 1.209-.268 1.755-.259.546-.674 1.003-1.192 1.315-.176.071-.366.1-.555.084s-.372-.075-.535-.174c-.18-.12-.23-.29-.21-.31z" fill="#eb996e"/><path d="m341.836 157.398-.21.06c-.204.058-.411.104-.62.14-.787.157-1.59.211-2.39.16-.575-.032-1.143-.14-1.69-.32-.704-.22-1.347-.601-1.879-1.111-.533-.51-.94-1.136-1.191-1.83-.315-.834-.315-1.754 0-2.589l.23.18c-1.491 1.218-3.337 1.92-5.26 2-1.053.056-2.108-.083-3.11-.41-.527-.164-1.026-.406-1.48-.72-.473-.331-.844-.788-1.07-1.32-.248-.636-.351-1.319-.3-2 .037-.632.12-1.26.25-1.88.106-.611.302-1.205.58-1.761.133-.286.329-.538.573-.739s.53-.344.837-.42l.09.31c-1.113.422-2.335.456-3.47.099-1.039-.303-1.971-.891-2.69-1.699-.64-.723-1.048-1.623-1.17-2.581-.105-.813-.03-1.638.22-2.419.342-1.108 1.024-2.08 1.95-2.78.326-.251.69-.447 1.08-.58-.346.201-.68.422-1 .66-.872.717-1.51 1.677-1.83 2.759-.222.756-.28 1.552-.17 2.331.127.903.524 1.746 1.14 2.419.687.762 1.574 1.317 2.56 1.601 1.072.328 2.224.286 3.27-.12l.1.31c-.259.071-.5.197-.705.369-.206.173-.371.388-.485.631-.256.53-.438 1.092-.54 1.67-.346 1.186-.346 2.445 0 3.63.23.463.559.869.963 1.19.404.322.874.55 1.377.67.967.317 1.984.452 3 .4 1.858-.071 3.643-.741 5.09-1.91l.47-.39-.24.559c-.29.767-.29 1.615 0 2.381.233.66.614 1.258 1.113 1.748.499.491 1.103.861 1.767 1.082.529.187 1.08.305 1.64.35.787.064 1.579.037 2.36-.08.54-.01.83-.07.84-.05z" fill="#fff"/><path d="m320.8 155.908s-.13.12-.43.24c-.43.168-.889.253-1.35.25-.713.003-1.411-.209-2-.61-.365-.252-.616-.636-.7-1.07-.046-.244-.02-.495.074-.724s.252-.426.456-.566l.15.31h-.12c-.735.26-1.517.356-2.293.282s-1.526-.318-2.197-.712c-.406-.232-.771-.529-1.08-.88-.22-.24-.32-.4-.3-.41.465.405.967.767 1.5 1.08.648.343 1.36.548 2.092.601.732.054 1.467-.046 2.158-.291h.11l1.58-.56-1.43.86c-.142.11-.25.257-.315.424-.066.167-.084.349-.055.526.07.35.27.66.56.87.521.373 1.139.589 1.78.62.611.008 1.221-.073 1.81-.24z" fill="#fff"/><path d="m365.177 181.738c.426.152.815.394 1.14.71.961.793 1.693 1.829 2.12 3 .313.886.425 1.83.326 2.765-.098.934-.405 1.834-.896 2.635-.627.992-1.526 1.783-2.59 2.278-1.064.494-2.248.672-3.41.512-1.206-.157-2.326-.705-3.19-1.56-.799-.774-1.408-1.722-1.78-2.77-.333-.877-.467-1.818-.392-2.753.074-.936.355-1.843.822-2.657.649-1.08 1.647-1.905 2.83-2.34.416-.188.875-.263 1.33-.22 0 .07-.47.11-1.23.47-1.065.492-1.947 1.307-2.52 2.33-.404.765-.636 1.609-.679 2.472-.043.864.103 1.727.429 2.528.326.989.913 1.871 1.7 2.552.787.682 1.745 1.137 2.77 1.318 1.029.135 2.075-.023 3.018-.457.943-.433 1.744-1.124 2.312-1.993.46-.723.756-1.538.868-2.388.113-.85.038-1.714-.218-2.532-.369-1.119-1.004-2.131-1.85-2.95-.54-.64-.94-.9-.91-.95z" fill="#455a64"/><path d="m327.347 179.808c-.018-.643-.078-1.284-.18-1.92-.202-1.064-.624-2.074-1.24-2.965s-1.411-1.644-2.335-2.209-1.957-.93-3.03-1.073c-1.074-.142-2.166-.058-3.205.247-1.444.428-2.735 1.261-3.72 2.4-1.061 1.253-1.692 2.813-1.8 4.452-.108 1.638.313 3.267 1.2 4.648.404.66.914 1.248 1.51 1.74.563.487 1.197.885 1.88 1.18 1.183.524 2.478.743 3.768.637 1.289-.107 2.531-.535 3.612-1.247 1.457-.95 2.558-2.357 3.13-4 .19-.615.334-1.243.43-1.88-.007.37-.048.738-.12 1.1-.041.276-.108.547-.2.81-.526 1.72-1.632 3.205-3.13 4.2-1.028.69-2.202 1.132-3.43 1.29-1.42.169-2.858-.042-4.17-.61-.726-.296-1.401-.705-2-1.21-.624-.511-1.158-1.123-1.58-1.81-.924-1.429-1.362-3.119-1.251-4.817.112-1.699.768-3.316 1.871-4.613 1.021-1.21 2.378-2.091 3.9-2.53 1.373-.395 2.828-.413 4.21-.05 1.467.385 2.794 1.183 3.82 2.3 1.027 1.117 1.71 2.506 1.97 4 .046.272.076.545.09.82.014.203.014.407 0 .61.01.167.01.334 0 .5z" fill="#263238"/><path d="m347.635 179.798c-.018-.643-.078-1.285-.18-1.92-.337-1.728-1.246-3.292-2.58-4.44-.911-.789-1.993-1.354-3.16-1.65-1.341-.328-2.743-.3-4.07.08-1.461.435-2.765 1.286-3.75 2.45-1.055 1.256-1.682 2.815-1.79 4.452-.108 1.636.309 3.264 1.19 4.648.822 1.286 2.005 2.301 3.4 2.92 1.181.524 2.475.743 3.763.636 1.288-.106 2.528-.535 3.607-1.246 1.471-.96 2.577-2.386 3.14-4.05.179-.618.322-1.246.43-1.88-.007.369-.048.737-.12 1.1-.045.275-.112.546-.2.81-.53 1.718-1.635 3.201-3.13 4.2-1.106.747-2.383 1.201-3.712 1.32-1.33.119-2.667-.102-3.888-.64-.711-.297-1.369-.705-1.95-1.21-.621-.51-1.155-1.118-1.58-1.8-.923-1.432-1.361-3.123-1.249-4.823.111-1.699.767-3.318 1.869-4.617.509-.623 1.117-1.156 1.8-1.58.641-.439 1.346-.776 2.09-1 1.378-.379 2.832-.379 4.21 0 1.47.38 2.799 1.176 3.826 2.294s1.709 2.509 1.964 4.006c.054.27.088.544.1.82.02.203.02.407 0 .61.003.17-.007.341-.03.51z" fill="#263238"/><path d="m332.33 177.128s-.27-.19-.71-.43c-.581-.311-1.23-.474-1.89-.474-.659 0-1.308.163-1.89.474-.44.25-.67.48-.71.44s.16-.31.6-.62c.592-.394 1.289-.603 2-.6.71-.012 1.407.19 2 .58.44.33.63.62.6.63z" fill="#263238"/><path d="m358.805 173.568c0 .08-2.54.71-5.72 1.42s-5.77 1.21-5.78 1.13c3.788-1.042 7.626-1.893 11.5-2.55z" fill="#263238"/><path d="m318.519 184.978c-.129.02-.261.02-.39 0-.344-.07-.679-.178-1-.32-1.097-.481-2.014-1.297-2.62-2.33-.394-.666-.642-1.408-.726-2.177-.085-.769-.004-1.547.236-2.283.09-.23.15-.36.17-.35s-.14.54-.19 1.41c-.07 1.137.197 2.269.768 3.255s1.421 1.781 2.442 2.285c.78.36 1.33.45 1.31.51z" fill="#fff"/><path d="m334.105 184.028s-.13-.11-.3-.35c-.245-.344-.453-.713-.62-1.1-.564-1.287-.755-2.707-.55-4.097s.798-2.694 1.71-3.763c.271-.325.576-.62.91-.88.115-.105.247-.19.39-.25 0 0-.5.44-1.13 1.26-.843 1.063-1.392 2.33-1.59 3.673-.199 1.343-.04 2.715.46 3.977.37.97.76 1.5.72 1.53z" fill="#fff"/><path d="m336.638 185.659c0 .07-.31 0-.61-.19s-.5-.37-.46-.44.32 0 .61.19.51.37.46.44z" fill="#fff"/><path d="m383.968 328.288c-1.62-8.35-6.8-36.47-6.79-42.15 0-.94 1.46-3.86 1.73-4.76 1.51-5.08 6.77-23.75 5.59-33.59-.95-7.86-7.6-17.93-9.6-23.31-.94-2.53-8.41-5.14-10.91-6.17l-5.3-7.49s1.15 3.48-3.53 6.6c-2.534 1.643-5.526 2.435-8.54 2.26-2.987-.135-5.914-.886-8.596-2.206-2.683-1.32-5.064-3.18-6.994-5.464l-.87.68c-17.12 5.52-16.94 5.55-20.22 6.93-4.24 1.79 9.17 45.21 9.17 45.21s7.92 29.32 3.65 38.41c-2.4 5.11-10.5 13.57-12.55 18.32 0 0-3.56 5-3.63 6.24s21.06 10.37 37.77 11.29c30.88 1.71 39.62-10.8 39.62-10.8z" fill="#f5f5f5"/><path d="m377.571 275.118c.02-.512.087-1.021.2-1.52.18-1 .38-2.37.57-4.11.231-2.039.354-4.088.37-6.14.007-2.509-.126-5.016-.4-7.51-.308-2.494-.758-4.968-1.35-7.41-.49-1.992-1.08-3.958-1.77-5.89-.59-1.65-1.11-3-1.5-3.87-.226-.456-.41-.931-.55-1.42.283.424.528.872.73 1.34.45.87 1 2.18 1.67 3.82.741 1.933 1.372 3.906 1.89 5.91 1.26 4.898 1.852 9.943 1.76 15-.042 2.064-.202 4.124-.48 6.17-.175 1.382-.422 2.754-.74 4.11-.093.516-.227 1.025-.4 1.52z" fill="#263238"/><path d="m358.688 210.777.049-3.83 4.491 7.33 9.16 3.37c2.87 3.32 12.2 40.65 10.31 46.82l-3.25 36.51 9.28 13.95-16.66 1.78s-3.57-3.53-2.68-12.88c2.26-23.68-.081-50.69-.421-56.67-.51-9.01-10.279-36.38-10.279-36.38z" fill="#ff725e"/><path d="m363.227 214.289s15 4.91 17 7.74c5.36 7.69 37.6 60.34 21.77 76-10.37 10.28-24.92-11.42-24.92-11.42z" fill="#ff725e"/><path d="m400.058 277.138c-.463-.043-.921-.123-1.371-.24l-3.75-.81c-3.18-.67-7.64-1.61-12.75-2.38l.271-.16c-.5 1.27-1 2.59-1.53 3.93-1.32 3.33-2.56 6.48-3.65 9.25v-.23l5.65 7.05 1.569 2c.199.232.373.483.521.75-.232-.201-.446-.422-.641-.66-.43-.51-.999-1.15-1.669-1.94l-5.791-6.93-.089-.1v-.13l3.609-9.25c.53-1.34 1-2.66 1.54-3.93l.081-.19h.199c5.14.8 9.591 1.81 12.761 2.57 1.58.38 2.839.71 3.709.95.455.113.9.264 1.331.45z" fill="#263238"/><path d="m384.635 272.929c.001-.564.051-1.126.15-1.68.14-1.17.33-2.7.56-4.56.685-4.99.849-10.037.49-15.06-.518-4.996-1.941-9.855-4.2-14.34-.84-1.74-1.61-3.11-2.14-4-.303-.473-.571-.968-.8-1.48.105.099.196.214.27.34.17.23.41.58.7 1 .833 1.293 1.601 2.628 2.3 4 2.379 4.507 3.857 9.436 4.35 14.51.374 5.061.156 10.149-.65 15.16-.27 1.92-.53 3.47-.72 4.54-.067.529-.171 1.054-.31 1.57z" fill="#263238"/><path d="m371.077 266.668c-.028-.203-.028-.408 0-.61 0-.45.07-1 .12-1.72.14-1.56.33-3.7.57-6.32s.56-5.86.9-9.37c.17-1.76.36-3.61.55-5.53.12-.959.171-1.925.15-2.89-.006-.969-.279-1.917-.79-2.74-.271-.461-.657-.845-1.119-1.114-.462-.27-.986-.417-1.521-.426l-.95.06.79-.53 4-2.67-.08.34-7.71-13.24c-.92-1.61-1.65-2.91-2.2-3.86l-.57-1c-.067-.118-.124-.242-.17-.37.101.096.185.207.25.33l.64 1c.57.94 1.35 2.22 2.32 3.79 2 3.31 4.72 7.87 7.87 13.14l.12.2-.19.14-3.94 2.68-.16-.47c.627-.001 1.242.161 1.788.469.545.309 1 .753 1.322 1.291.561.901.862 1.939.87 3 .02 1.002-.034 2.005-.16 3-.21 1.91-.4 3.76-.58 5.52-.38 3.51-.73 6.67-1 9.36s-.55 4.74-.73 6.3c-.09.7-.16 1.27-.22 1.71-.04.181-.097.358-.17.53z" fill="#263238"/><path d="m451.637 404.059 10 21.69s25.09-3.32 27.34.51l-41 21.38-17-33.15z" fill="#455a64"/><path d="m448.28 430.388c-.338.325-.544.762-.579 1.229s.104.93.389 1.301c.312.35.746.567 1.213.606s.931-.102 1.297-.396c.359-.343.577-.808.612-1.303s-.115-.986-.422-1.377c-.363-.332-.841-.511-1.334-.498s-.961.217-1.306.568" fill="#e0e0e0"/><path d="m447.981 447.638-1.34-2.64 40.24-20c.481.042.948.181 1.372.41.425.229.799.542 1.098.92z" fill="#263238"/><path d="m462.111 425.688c.1.21-.87.82-1.54 2s-.77 2.29-1 2.3-.52-1.31.31-2.7 2.18-1.81 2.23-1.6z" fill="#263238"/><path d="m467.395 425.289c.14.18-.56 1-.82 2.18s0 2.22-.2 2.32-.92-1-.57-2.49 1.48-2.21 1.59-2.01z" fill="#263238"/><path d="m472.523 429.288c-.16.14-1-.73-1-2.11s.68-2.31.85-2.18-.11 1-.06 2.15.4 1.98.21 2.14z" fill="#263238"/><path d="m459.248 420.967c0 .23-1.07.42-2.18 1.08s-1.82 1.48-2 1.36.3-1.28 1.61-2 2.59-.65 2.57-.44z" fill="#263238"/><path d="m457.636 415.999c.05.09-.69.62-2.09 1.05-.818.252-1.665.4-2.52.44-.506.035-1.014.035-1.52 0-.3-.015-.594-.083-.87-.2-.202-.075-.374-.212-.491-.393-.117-.18-.173-.393-.159-.607.032-.194.108-.377.222-.537.115-.16.265-.291.438-.383.263-.139.546-.237.84-.29.499-.117 1.008-.187 1.52-.21.866-.047 1.734.048 2.57.28 1.42.41 2.13 1 2.08 1.07s-.85-.28-2.21-.52c-.789-.138-1.593-.172-2.39-.1-.469.04-.934.117-1.39.23-.5.11-.87.3-.89.55s0 .13.17.21c.206.072.421.116.64.13.472.047.945.071 1.42.07.809-.012 1.615-.095 2.41-.25.726-.232 1.468-.413 2.22-.54z" fill="#263238"/><path d="m412.571 438.917-1.27 23.87s23.73 8.81 23.93 13.24l-46.27-.3.45-37.28z" fill="#455a64"/><path d="m397.31 460.618c-.453.129-.843.421-1.094.82-.251.398-.346.876-.266 1.34.112.455.394.85.789 1.103.394.253.87.345 1.331.257.481-.134.895-.443 1.159-.867.265-.424.362-.931.271-1.423-.168-.463-.509-.843-.95-1.061-.442-.218-.951-.257-1.42-.109" fill="#e0e0e0"/><path d="m388.961 475.729v-3l44.9 1.2c.406.262.753.603 1.022 1.004.268.401.451.852.538 1.326z" fill="#263238"/><path d="m411.715 462.948c0 .23-1.15.31-2.29 1s-1.74 1.67-2 1.57.15-1.4 1.54-2.24 2.81-.54 2.75-.33z" fill="#263238"/><path d="m416.64 465.058c.05.22-.949.59-1.739 1.54s-1.001 2-1.261 2-.35-1.31.66-2.47 2.34-1.29 2.34-1.07z" fill="#263238"/><path d="m419.27 470.968c-.21.05-.51-1.1.1-2.34s1.68-1.72 1.78-1.52-.58.84-1.07 1.87-.58 1.97-.81 1.99z" fill="#263238"/><path d="m411.405 457.439c-.1.2-1.14-.13-2.43-.06s-2.31.45-2.42.25.86-1 2.38-1 2.58.66 2.47.81z" fill="#263238"/><path d="m412.329 452.288c-.77.198-1.579.18-2.34-.05-.844-.159-1.664-.424-2.44-.79-.459-.218-.903-.465-1.33-.74-.259-.148-.492-.337-.69-.56-.148-.165-.237-.374-.253-.595-.017-.221.041-.441.163-.625.117-.155.268-.281.441-.367.174-.087.365-.133.559-.133.299.001.595.048.88.14.496.126.978.3 1.44.52.781.368 1.5.858 2.13 1.45 1.07 1 1.43 1.88 1.35 1.93s-.62-.65-1.71-1.5c-.635-.492-1.331-.898-2.07-1.21-.429-.187-.874-.335-1.33-.44-.5-.14-.92-.15-1.05.07s-.05.12.05.26c.147.163.319.301.51.41.394.269.805.512 1.23.73.716.373 1.466.677 2.24.91.752.146 1.494.343 2.22.59z" fill="#263238"/><path d="m393.715 342.107s12.7 0 19.56 10.17c4 6 2.62 16.65 2.7 24.71.11 11-2.54 77.81-2.54 77.81l-26 .44-5.44-69.67.32-12.88-51.89-4.22s-4.72-15.72 6.9-28.13c1.5-1.6 56.39 1.77 56.39 1.77z" fill="#263238"/><path d="m306.796 325.588s-8.09 18.7 2.84 34.7c7.22 10.55 21.06 8.13 21.06 8.13l18.38-23-14.67-22.92z" fill="#263238"/><path d="m330.688 368.388c.108-.069.221-.129.339-.18l1-.48 4-1.81 14.75-6.57 21.891-9.68 12.94-5.7c1.13-.48 2.22-1 3.43-1.45 1.2-.421 2.435-.736 3.69-.94 2.567-.384 5.176-.407 7.75-.07 2.58.309 5.093 1.024 7.449 2.12 1.164.539 2.246 1.243 3.211 2.09.933.854 1.725 1.849 2.349 2.95 1.224 2.126 1.965 4.495 2.171 6.94.099 1.21 0 2.36 0 3.52v3.42c-.1 9-.2 17.12-.27 23.94s-.18 12.3-.23 16.14c0 1.88-.07 3.35-.09 4.38v1.15c.013.126.013.253 0 .38-.016-.13-.016-.261 0-.39 0-.28 0-.66 0-1.14 0-1 0-2.5 0-4.38 0-3.84 0-9.35.07-16.14s.1-14.94.16-23.94v-3.42c0-1.15.06-2.33 0-3.48-.206-2.369-.931-4.663-2.121-6.72-.596-1.057-1.358-2.009-2.259-2.82-.921-.817-1.96-1.491-3.081-2-2.308-1.073-4.771-1.772-7.299-2.07-2.524-.331-5.083-.31-7.6.06-1.224.202-2.43.51-3.601.92-1.16.39-2.28 1-3.399 1.43l-12.951 5.67-21.939 9.58-14.801 6.42c-1.74.73-3.09 1.31-4 1.72l-1.059.43c-.159.066-.328.106-.5.12z" fill="#455a64"/><path d="m332.633 207.838-4.49 4.82-16.68 5.3c.563 12.24 1.882 24.433 3.95 36.51 3.67 20.56 5.64 41.52 5.74 41.85.81-1.53-8.38 11.09-13.45 23.48-4 9.74-6.18 30.06-6.18 30.06l42 12.86 7.11-76.08-1.86-35.19z" fill="#ff725e"/><path d="m314.023 306.777c.59 1.29 2.39 1.74 3.78 1.5 9.95-1.73 24.62-9.24 32.29-15.81.07-.33.55-6.199.55-6.199v-3z" fill="#000" opacity=".3"/><path d="m311.496 217.959c-2.431 1.078-4.588 2.691-6.309 4.718-1.721 2.028-2.962 4.418-3.631 6.992 0 0-1.78 5.5-3.1 11.66-3.22 15-10.15 43.06-10.43 50.5-.5 13.47 9.63 17.29 15.1 18.47s43.51-19.61 43.51-19.61l-6.31-18.94-24.8 6.4s5.3-17.3 6.83-24.38-10.86-35.81-10.86-35.81z" fill="#ff725e"/><path d="m307.428 309.528.199-.1.59-.24c.52-.21 1.281-.51 2.271-.93 2-.82 4.83-2.06 8.34-3.72 7-3.31 16.689-8.29 27.649-14.08l-.12.31c-1-3.11-2.12-6.34-3.22-9.65s-2.1-6.28-3.1-9.29l.31.16-25.93 7c-2.332.247-4.579 1.02-6.57 2.26-1.518.915-2.933 1.991-4.22 3.21-.817.775-1.585 1.6-2.299 2.47l-.55.69c-.12.15-.191.23-.2.22.817-1.291 1.791-2.477 2.899-3.53 1.277-1.262 2.693-2.376 4.22-3.32 2.015-1.3 4.306-2.112 6.69-2.37l25.9-7.16.231-.06.079.23 3.1 9.29c1.1 3.3 2.18 6.53 3.21 9.65l.07.2-.19.1c-11 5.77-20.67 10.7-27.75 13.93-3.54 1.62-6.41 2.82-8.41 3.59-1 .39-1.78.67-2.31.85l-.609.2c-.2.08-.27.1-.28.09z" fill="#263238"/><path d="m323.255 250.389c.14 0-1.48 6.29-3.63 14s-4 13.85-4.14 13.81 1.49-6.28 3.64-13.95 4-13.9 4.13-13.86z" fill="#263238"/><path d="m348.785 270.288c-.131-.197-.239-.409-.32-.63-.207-.46-.477-1.07-.81-1.83-.71-1.59-1.73-3.9-3-6.72-3.436-7.348-7.241-14.517-11.4-21.48l-1.15-1.9-.16-.26.28-.11 4.73-2-.07.43c-1.53-1.255-3.325-2.145-5.25-2.6h-.17v-.17c-.29-2.812-.781-5.599-1.47-8.34-.59-2.48-1.09-4.68-1.38-6.52-.243-1.432-.387-2.879-.43-4.33 0-.51 0-.9 0-1.16-.017-.133-.017-.268 0-.4.063.514.1 1.031.11 1.55.1 1.439.287 2.872.56 4.29.33 1.82.86 4 1.48 6.48.736 2.752 1.257 5.557 1.56 8.39l-.18-.21c2.006.466 3.876 1.394 5.46 2.71l.32.27-.39.16-4.72 2 .12-.38 1.16 1.91c4.177 6.97 7.943 14.179 11.28 21.59 1.28 2.84 2.26 5.17 2.9 6.79.3.77.54 1.4.73 1.87.085.194.155.394.21.6z" fill="#263238"/><path d="m314.338 322.457c-.105.189-.232.363-.38.52-.29.36-.65.83-1.11 1.4l-4.1 5-.11-.3 19.94 3.75-.26.1.31-.44 5.57-7.74.17.39-14.35-1.85-4.16-.58-1.12-.17-.4-.09c.123-.015.247-.015.37 0l1.09.09 4.15.44 14.48 1.67.41.05-.24.34-5.54 7.75-.32.44-.1.14h-.16l-19.91-3.9-.31-.06.21-.24 4.28-5c.48-.54.87-1 1.17-1.32s.41-.41.42-.39z" fill="#263238"/><path d="m321.641 235.289c-.09 0-.25-1-.78-2.44-.692-1.927-1.706-3.723-3-5.31-1.305-1.583-2.866-2.935-4.62-4-1.35-.81-2.27-1.16-2.24-1.25.235.016.465.074.68.17.601.203 1.183.457 1.74.76 3.751 2.012 6.552 5.428 7.79 9.5.192.606.326 1.229.4 1.86.03.46.03.71.03.71z" fill="#263238"/><path d="m311.164 329.769-1.32 2.58 18.71 4.02 4.68-9.83-4.71 6.56z" fill="#000" opacity=".3"/><path d="m381.79 272.888c-.47-2.102-.541-4.272-.21-6.4.257-1.274.301-2.582.13-3.87-.24-1.28-1.42-2.62-2.71-2.51l-1.93 9.32z" fill="#ffbe9d"/><path d="m380.884 251.008-6.84 33-16.2-1 4.8-32.6c.062-.417.272-.798.592-1.073.319-.275.727-.427 1.148-.427h14.79c.259.001.515.059.749.171.234.111.44.273.603.474.164.201.281.436.343.687.062.252.067.514.015.768z" fill="#263238"/><path d="m362.641 259.569c.111-.326.194-.661.25-1l.54-2.67c.22-1.15.48-2.48.77-4 .027-.183.067-.363.12-.54.057-.158.154-.299.28-.41.13-.119.288-.202.46-.24.193-.021.387-.021.58 0h2.56c3.5 0 6.68 0 9-.09l2.73-.07c.335 0 .669-.024 1-.07-.33-.059-.665-.079-1-.06h-2.72c-2.29 0-5.47 0-9 0h-2.57c-.216-.02-.434-.02-.65 0-.224.047-.431.155-.6.31-.167.149-.295.338-.37.55-.059.193-.103.39-.13.59-.26 1.48-.49 2.83-.69 4s-.33 2-.44 2.68c-.069.336-.11.677-.12 1.02z" fill="#455a64"/><path d="m371.331 252.378c.073-.194.217-.352.403-.442.187-.089.401-.103.597-.038.147.039.28.121.381.234.101.114.167.255.189.406.011.164-.025.328-.103.473-.077.144-.194.265-.337.347-.144.079-.308.114-.472.099-.164-.014-.32-.076-.448-.179-.128-.107-.217-.253-.255-.415-.038-.163-.022-.333.045-.485z" fill="#fafafa"/><path d="m371.777 262.288c.37.1 8.95 4.52 8.95 4.52l4.47 4.72c.508 1.09.796 2.269.848 3.47.051 1.201-.135 2.401-.548 3.53-1.31 4.26-3.44 5.75-8.37 7l-9.32-1.47-4.7-3.86c-.454-.372-.787-.873-.954-1.436-.168-.563-.163-1.164.014-1.724l.07-.19-.54-.89c-.163-.275-.243-.592-.229-.912s.122-.628.309-.888c.256-.344.637-.573 1.06-.636.424-.064.855.042 1.2.296l5.31 3.88 3.65.48.55-1.2-5.35-2.78-6.81-5.26c-.214-.165-.392-.373-.524-.609-.132-.237-.214-.497-.242-.767-.029-.269-.002-.541.079-.8.08-.258.212-.498.387-.704.305-.359.727-.6 1.192-.678.465-.079.942.009 1.348.248l6.32 3.72 6.6 2.91-1-2.62-7.76-5.74s-.65-2.76 3.99-1.61z" fill="#ffbe9d"/><path d="m370.961 257.797s-1.79-1-4.76.21-6.75 3.08-6.75 3.08l-5.68 1.63.67-1.41s5.61.57 5.34-3.51l-3.38.15-2.91-1.5-5.71 5.57-2.14 7.86-5 3.05 4.45 13.71 8-5 11.13-.22 4.08-3.29.45-4.19 4-4.06s.51-2-1.33-2.24-6.27 4.21-6.27 4.21l-4.44.11s-.77-.7-.14-1.1 13.72-6.82 14.3-8.27 1.17-2.38-.13-2.79c-1.164-.17-2.352-.053-3.46.34 0 0 .67-2.02-.32-2.34z" fill="#ffbe9d"/><path d="m360.125 265.837c1.996-.796 3.946-1.704 5.84-2.72 1.944-.9 3.84-1.901 5.68-3-1.99.805-3.936 1.712-5.83 2.72-3.18 1.57-5.73 2.92-5.69 3z" fill="#eb996e"/><path d="m357.484 276.287c.214.096.439.167.67.21.44.12 1.07.28 1.86.42.937.168 1.889.231 2.84.19 1.177-.062 2.327-.379 3.37-.93 1.852-1.034 3.459-2.457 4.71-4.17.49-.64.87-1.17 1.12-1.54.152-.18.277-.383.37-.6 0 0-.65.76-1.68 2-1.281 1.626-2.867 2.984-4.67 4-1.005.527-2.108.84-3.24.92-.929.056-1.86.016-2.78-.12-1.58-.21-2.56-.38-2.57-.38z" fill="#eb996e"/><path d="m225.322 84.2891v9.4h-1.677l-3.996-5.916h-.066v5.916h-1.942v-9.4h1.704l3.964 5.9119h.08v-5.9119zm4.706 9.538c-.708 0-1.318-.1471-1.828-.4411-.509-.296-.9-.7159-1.176-1.2569-.274-.546-.412-1.1891-.412-1.9331 0-.725.138-1.3619.412-1.9099.276-.547.662-.974 1.162-1.28.501-.306 1.09-.4581 1.766-.4581.455 0 .877.0751 1.269.2241.394.147.739.369 1.031.666.297.296.526.67.69 1.12.166.446.247.969.247 1.57v.537h-5.815v-1.212h4.018c0-.282-.06-.531-.179-.748-.121-.218-.286-.388-.499-.51-.209-.126-.453-.188-.731-.188-.289 0-.546.069-.771.207-.22.134-.394.316-.52.546-.125.226-.189.478-.193.757v1.152c0 .349.063.65.188.904.129.254.31.45.543.587.233.138.51.207.83.207.212 0 .406-.03.582-.091.177-.062.328-.153.453-.277.126-.122.222-.271.287-.448l1.767.118c-.09.435-.273.8149-.551 1.1389-.276.321-.631.5721-1.068.7531-.433.177-.934.266-1.502.266zm5.88-7.188 1.265 2.465 1.296-2.465h1.959l-1.995 3.525 2.049 3.525h-1.95l-1.359-2.4371-1.336 2.4371h-1.973l2.044-3.525-1.972-3.525zm9.318 0v1.469h-4.148v-1.469zm-3.206-1.689h1.91v6.572c0 .181.027.322.081.423.054.098.128.167.223.206.099.04.213.06.341.06.09 0 .179-.007.27-.022.09-.019.158-.033.206-.043l.3 1.456c-.095.031-.23.066-.404.106-.173.042-.383.068-.631.077-.46.019-.864-.0441-1.211-.1881-.344-.144-.612-.3669-.802-.6689-.192-.303-.286-.687-.283-1.148zm7.058.978v-1.639h7.541v1.639h-2.811v7.761h-1.919v-7.761zm12.227 4.7589v-4.0479h1.91v7.05h-1.833v-1.281h-.073c-.155.414-.413.745-.776.997-.358.25-.796.376-1.313.376-.46 0-.865-.107-1.215-.321-.349-.215-.624-.519-.821-.914-.194-.395-.293-.867-.295-1.418v-4.489h1.91v4.14c.002.417.111.746.327.987.215.242.504.363.866.363.229 0 .445-.0541.645-.1611.2-.111.361-.273.484-.487.126-.214.187-.478.184-.794zm7.101-4.0479v1.469h-4.147v-1.469zm-3.206-1.689h1.91v6.572c0 .181.027.322.081.423.054.098.128.167.225.206.098.04.211.06.339.06.091 0 .181-.007.27-.022.09-.019.158-.033.207-.043l.299 1.456c-.095.031-.229.066-.403.106-.173.042-.384.068-.632.077-.46.019-.864-.0441-1.211-.1881-.343-.144-.611-.3669-.802-.6689-.192-.303-.286-.687-.283-1.148zm7.487 8.877c-.695 0-1.298-.152-1.806-.455-.505-.306-.895-.7311-1.17-1.2751-.275-.549-.413-1.1829-.413-1.9059 0-.727.138-1.364.413-1.909.275-.548.665-.973 1.17-1.276.508-.306 1.111-.4581 1.806-.4581.697 0 1.299.1521 1.804.4581.507.303.898.728 1.174 1.276.275.545.412 1.182.412 1.909 0 .723-.137 1.3569-.412 1.9059-.276.544-.667.9691-1.174 1.2751-.505.303-1.107.455-1.804.455zm.01-1.5151c.316 0 .582-.092.794-.275.211-.187.372-.441.48-.763.11-.32.165-.6859.165-1.0959s-.055-.775-.165-1.097c-.108-.321-.269-.575-.48-.762-.212-.186-.478-.28-.794-.28-.321 0-.589.094-.807.28-.215.187-.378.441-.489.762-.108.322-.161.687-.161 1.097s.053.7759.161 1.0959c.111.322.274.576.489.763.218.183.486.275.807.275zm4.622 1.3771v-7.05h1.852v1.23h.072c.126-.438.336-.768.632-.991.296-.227.637-.34 1.023-.34.095 0 .198.006.309.019.111.012.207.028.291.05v1.735c-.089-.027-.213-.052-.372-.073-.158-.022-.303-.033-.435-.033-.281 0-.532.063-.753.189-.218.122-.391.294-.52.514-.126.221-.188.4739-.188.7609v3.9891z" fill="#3c3636"/></g></svg>