<svg fill="none" height="584" viewBox="0 0 1000 584" width="1000" xmlns="http://www.w3.org/2000/svg" xmlns:xlink="http://www.w3.org/1999/xlink"><filter id="a" color-interpolation-filters="sRGB" filterUnits="userSpaceOnUse" height="13.7888" width="93.0287" x="289.681" y="129.693"><feFlood flood-opacity="0" result="BackgroundImageFix"/><feColorMatrix in="SourceAlpha" result="hardAlpha" type="matrix" values="0 0 0 0 0 0 0 0 0 0 0 0 0 0 0 0 0 0 127 0"/><feOffset/><feGaussianBlur stdDeviation=".00435955"/><feComposite in2="hardAlpha" operator="out"/><feColorMatrix type="matrix" values="0 0 0 0 0.54902 0 0 0 0 0.313726 0 0 0 0 0 0 0 0 1 0"/><feBlend in2="BackgroundImageFix" mode="normal" result="effect1_dropShadow_5625_2"/><feColorMatrix in="SourceAlpha" result="hardAlpha" type="matrix" values="0 0 0 0 0 0 0 0 0 0 0 0 0 0 0 0 0 0 127 0"/><feOffset/><feGaussianBlur stdDeviation=".00435955"/><feComposite in2="hardAlpha" operator="out"/><feColorMatrix type="matrix" values="0 0 0 0 0.54902 0 0 0 0 0.313726 0 0 0 0 0 0 0 0 1 0"/><feBlend in2="effect1_dropShadow_5625_2" mode="normal" result="effect2_dropShadow_5625_2"/><feBlend in="SourceGraphic" in2="effect2_dropShadow_5625_2" mode="normal" result="shape"/></filter><clipPath id="b"><path d="m292.427 217.382h523.146v213.618h-523.146z"/></clipPath><clipPath id="c"><path d="m308.175 378.303h40v40h-40z"/></clipPath><clipPath id="d"><path d="m25 258.104h33.3962v27.7189h-33.3962z"/></clipPath><mask id="e" fill="#fff"><path d="m356.076 217.382h204.517v65.393h-204.517z" fill="#fff"/></mask><mask id="f" fill="#fff"><path d="m356.077 291.494h215.517v65.393h-215.517z" fill="#fff"/></mask><mask id="g" height="39" maskUnits="userSpaceOnUse" width="39" x="309" y="380"><path d="m328.175 418.105c10.42 0 18.866-8.446 18.866-18.866s-8.446-18.867-18.866-18.867-18.867 8.447-18.867 18.867 8.447 18.866 18.867 18.866z" fill="#d9d9d9"/></mask><mask id="h" height="13" maskUnits="userSpaceOnUse" width="23" x="317" y="407"><path d="m339.774 419.606h-22.596c.383-1.308 1.996-4.016 5.17-5.075 4.309-1.436 4.213-5.17 4.117-6.797h4.022c-.096 1.627-.192 5.361 4.117 6.797 3.174 1.059 4.787 3.767 5.17 5.075z" fill="#fff" stroke="#000" stroke-linecap="round" stroke-width=".191489"/></mask><mask id="i" fill="#fff"><path d="m356.076 365.607h278.517v65.393h-278.517z" fill="#fff"/></mask><mask id="j" fill="#fff"><path d="m227.034 117.984h653.932v35.749h-653.932z" fill="#fff"/></mask><mask id="k" fill="#fff"><path d="m227.034 117.984h217.977v34.877h-217.977z" fill="#fff"/></mask><mask id="l" fill="#fff"><path d="m445.011 117.984h217.978v34.877h-217.978z" fill="#fff"/></mask><mask id="m" fill="#fff"><path d="m662.989 117.984h217.977v34.877h-217.977z" fill="#fff"/></mask><mask id="n" fill="#fff"><path d="m0 0h85v584h-85z" fill="#fff"/></mask><mask id="o" height="40" maskUnits="userSpaceOnUse" width="40" x="308" y="230"><path d="m347.828 230.198h-39.655v39.655h39.655z" fill="#fff"/></mask><mask id="p" height="40" maskUnits="userSpaceOnUse" width="40" x="308" y="230"><path d="m328 269.853c10.951 0 19.828-8.877 19.828-19.827 0-10.951-8.877-19.828-19.828-19.828-10.95 0-19.827 8.877-19.827 19.828 0 10.95 8.877 19.827 19.827 19.827z" fill="#fff"/></mask><mask id="q" height="40" maskUnits="userSpaceOnUse" width="40" x="308" y="304"><path d="m347.828 304.147h-39.656v39.655h39.656z" fill="#fff"/></mask><mask id="r" height="40" maskUnits="userSpaceOnUse" width="40" x="308" y="304"><path d="m328 343.802c10.95 0 19.828-8.877 19.828-19.828 0-10.95-8.878-19.827-19.828-19.827-10.951 0-19.828 8.877-19.828 19.827 0 10.951 8.877 19.828 19.828 19.828z" fill="#d9d9d9"/></mask><path d="m0 0h1000v584h-1000z" fill="#fff"/><g clip-path="url(#b)"><rect fill="#babab9" fill-opacity=".11" height="65.3933" rx="32.6966" width="523.146" x="292.427" y="217.382"/><path d="m356.076 282.775h4.36v-65.393h-4.36-4.359v65.393z" fill="#fff" mask="url(#e)"/><path d="m384.042 234.282v1.095h-2.177v7.086h-1.342v-7.086h-2.19v-1.095zm4.172 8.287c-.612 0-1.165-.138-1.659-.412-.495-.283-.883-.675-1.166-1.177-.282-.51-.423-1.099-.423-1.766 0-.659.145-1.244.435-1.754s.687-.902 1.189-1.177 1.063-.412 1.683-.412 1.181.137 1.683.412c.503.275.899.667 1.189 1.177.291.51.436 1.095.436 1.754s-.149 1.244-.447 1.754c-.299.51-.707.906-1.225 1.189-.51.274-1.075.412-1.695.412zm0-1.166c.346 0 .667-.082.966-.247.306-.165.553-.412.741-.741.188-.33.283-.73.283-1.201s-.091-.867-.271-1.189c-.181-.329-.42-.577-.718-.741-.298-.165-.62-.248-.965-.248-.346 0-.667.083-.966.248-.29.164-.521.412-.694.741-.173.322-.259.718-.259 1.189 0 .698.177 1.24.53 1.624.361.377.812.565 1.353.565zm4.246-2.213c0-.651.133-1.228.4-1.73.275-.502.644-.89 1.107-1.165.471-.283.992-.424 1.565-.424.424 0 .84.094 1.248.283.416.18.745.423.989.729v-3.131h1.353v8.711h-1.353v-.977c-.22.314-.526.573-.918.777-.385.204-.828.306-1.331.306-.565 0-1.082-.142-1.553-.424-.463-.29-.832-.691-1.107-1.201-.267-.518-.4-1.102-.4-1.754zm5.309.024c0-.447-.095-.836-.283-1.165-.18-.33-.42-.581-.718-.754-.298-.172-.62-.259-.965-.259s-.667.087-.965.259c-.298.165-.542.412-.73.742-.181.322-.271.706-.271 1.153 0 .448.09.84.271 1.178.188.337.432.596.73.776.306.173.627.259.965.259.345 0 .667-.086.965-.259.298-.172.538-.423.718-.753.188-.337.283-.73.283-1.177zm2.668-.024c0-.651.134-1.228.401-1.73.274-.502.643-.89 1.106-1.165.471-.283.989-.424 1.554-.424.51 0 .953.102 1.33.306.385.196.691.444.918.742v-.942h1.354v6.486h-1.354v-.965c-.227.306-.537.561-.93.765-.392.204-.839.306-1.342.306-.557 0-1.067-.142-1.53-.424-.463-.29-.832-.691-1.106-1.201-.267-.518-.401-1.102-.401-1.754zm5.309.024c0-.447-.094-.836-.282-1.165-.181-.33-.42-.581-.718-.754-.299-.172-.62-.259-.966-.259-.345 0-.667.087-.965.259-.298.165-.541.412-.73.742-.18.322-.27.706-.27 1.153 0 .448.09.84.27 1.178.189.337.432.596.73.776.306.173.628.259.965.259.346 0 .667-.086.966-.259.298-.172.537-.423.718-.753.188-.337.282-.73.282-1.177zm8.955-3.237-3.979 9.534h-1.389l1.318-3.154-2.554-6.38h1.495l1.825 4.944 1.895-4.944z" fill="#4c5357"/><path d="m384.278 262.492c0 .392-.098.761-.294 1.106-.189.346-.471.636-.848.871-.369.236-.808.377-1.318.424v.954h-.765v-.954c-.738-.071-1.334-.302-1.789-.694-.455-.393-.683-.911-.683-1.554h1.436c.024.306.122.561.294.765.173.196.42.322.742.377v-2.59c-.526-.133-.954-.267-1.283-.4-.33-.141-.612-.361-.848-.659-.227-.299-.341-.707-.341-1.224 0-.652.228-1.189.683-1.613.455-.432 1.051-.683 1.789-.753v-.954h.765v.954c.691.062 1.244.282 1.66.659.423.369.663.879.718 1.53h-1.436c-.024-.243-.118-.459-.283-.647-.165-.197-.384-.33-.659-.401v2.543c.526.125.953.259 1.283.4.33.133.608.349.836.647.227.291.341.695.341 1.213zm-4.332-3.649c0 .322.095.573.283.753.196.181.471.326.824.436v-2.378c-.338.039-.608.161-.812.365-.196.204-.295.479-.295.824zm1.872 4.944c.345-.055.616-.193.812-.412.196-.228.294-.499.294-.813 0-.313-.098-.557-.294-.729-.188-.181-.459-.326-.812-.436zm5.16-.789c.754-.651 1.346-1.185 1.778-1.601.439-.424.804-.863 1.094-1.318.291-.455.436-.91.436-1.366 0-.47-.114-.839-.342-1.106-.219-.267-.569-.4-1.047-.4-.463 0-.824.149-1.083.447-.251.29-.385.683-.4 1.177h-1.295c.023-.894.29-1.577.8-2.048.518-.479 1.173-.718 1.966-.718.855 0 1.522.235 2.001.706.487.471.73 1.099.73 1.884 0 .565-.145 1.11-.436 1.636-.282.518-.624.985-1.024 1.4-.392.408-.894.883-1.506 1.425l-.53.471h3.731v1.118h-5.72v-.977zm10.666-4.767c-.086-.361-.243-.632-.471-.812-.227-.181-.545-.271-.953-.271-.62 0-1.083.239-1.389.718-.306.471-.467 1.255-.483 2.354.204-.345.503-.612.895-.8.392-.189.816-.283 1.271-.283.518 0 .973.114 1.366.342.4.219.71.541.93.965.227.423.341.93.341 1.518 0 .549-.11 1.04-.33 1.471-.212.432-.529.773-.953 1.025-.424.243-.934.364-1.53.364-.809 0-1.444-.176-1.907-.529-.455-.361-.777-.867-.965-1.519-.181-.651-.271-1.463-.271-2.436 0-2.872 1.012-4.308 3.037-4.308.784 0 1.4.212 1.848.635.455.424.722.946.8 1.566zm-1.424 2.036c-.479 0-.887.145-1.224.436-.33.282-.495.694-.495 1.236 0 .541.153.973.46 1.294.313.314.749.471 1.306.471.494 0 .883-.153 1.165-.459.291-.306.436-.714.436-1.224 0-.534-.141-.957-.424-1.271-.275-.322-.683-.483-1.224-.483zm9.8-2.99-3.272 7.545h-1.354l3.308-7.403h-4.355v-1.142h5.673z" fill="#b06c43"/><rect fill="#babab9" fill-opacity=".11" height="65.3933" rx="32.6966" width="523.146" x="292.427" y="291.494"/><path d="m356.077 356.887h4.359v-65.393h-4.359-4.36v65.393z" fill="#fff" mask="url(#f)"/><path d="m379.322 314.751c.754-.652 1.346-1.185 1.778-1.601.439-.424.804-.863 1.094-1.319.291-.455.436-.91.436-1.365 0-.471-.114-.84-.341-1.106-.22-.267-.569-.401-1.048-.401-.463 0-.824.149-1.083.448-.251.29-.384.682-.4 1.177h-1.295c.024-.895.29-1.578.8-2.048.518-.479 1.174-.718 1.966-.718.856 0 1.523.235 2.001.706.487.471.73 1.098.73 1.883 0 .565-.145 1.111-.436 1.636-.282.518-.623.985-1.024 1.401-.392.408-.894.883-1.506 1.424l-.53.471h3.731v1.118h-5.72v-.977zm11.585-5.603h-3.944v2.342c.165-.22.408-.404.73-.553.33-.149.679-.224 1.048-.224.659 0 1.192.141 1.601.424.415.282.71.64.882 1.071.181.432.271.887.271 1.366 0 .58-.114 1.098-.341 1.553-.22.448-.554.801-1.001 1.06-.439.259-.981.388-1.624.388-.856 0-1.542-.212-2.06-.636-.518-.423-.828-.984-.93-1.683h1.307c.086.369.278.663.576.883.299.212.671.318 1.119.318.557 0 .973-.169 1.247-.506.283-.338.424-.785.424-1.342 0-.565-.141-.997-.424-1.295-.282-.306-.698-.459-1.247-.459-.385 0-.711.098-.977.294-.259.189-.448.448-.565.777h-1.272v-4.955h5.18zm13.835-.754v8.181h-1.342v-5.603l-2.495 5.603h-.93l-2.507-5.603v5.603h-1.342v-8.181h1.448l2.872 6.415 2.86-6.415zm1.317 4.909c0-.652.133-1.228.4-1.731.275-.502.643-.89 1.106-1.165.471-.282.989-.424 1.554-.424.51 0 .954.102 1.33.306.385.197.691.444.918.742v-.942h1.354v6.486h-1.354v-.965c-.227.306-.537.561-.93.765-.392.204-.839.306-1.341.306-.558 0-1.068-.141-1.531-.424-.463-.29-.831-.69-1.106-1.2-.267-.518-.4-1.103-.4-1.754zm5.308.023c0-.447-.094-.835-.282-1.165-.181-.33-.42-.581-.718-.753-.298-.173-.62-.259-.965-.259-.346 0-.667.086-.966.259-.298.164-.541.412-.729.741-.181.322-.271.707-.271 1.154s.09.839.271 1.177c.188.337.431.596.729.777.306.172.628.259.966.259.345 0 .667-.087.965-.259.298-.173.537-.424.718-.754.188-.337.282-.729.282-1.177zm8.955-3.237-3.979 9.535h-1.389l1.319-3.155-2.555-6.38h1.495l1.825 4.944 1.895-4.944z" fill="#4c5357"/><path d="m384.278 336.604c0 .392-.098.761-.294 1.106-.188.346-.471.636-.847.871-.369.236-.809.377-1.319.424v.954h-.765v-.954c-.738-.07-1.334-.302-1.789-.694-.455-.393-.683-.911-.683-1.554h1.436c.024.306.122.561.295.765.172.196.419.322.741.377v-2.59c-.526-.133-.953-.267-1.283-.4-.329-.141-.612-.361-.847-.659-.228-.298-.342-.706-.342-1.224 0-.652.228-1.189.683-1.613.455-.432 1.051-.683 1.789-.753v-.954h.765v.954c.691.062 1.244.282 1.66.659.424.369.663.879.718 1.53h-1.436c-.024-.243-.118-.459-.283-.647-.164-.196-.384-.33-.659-.401v2.543c.526.126.954.259 1.283.4.33.134.608.349.836.648.228.29.341.694.341 1.212zm-4.331-3.649c0 .322.094.573.282.753.196.181.471.326.824.436v-2.378c-.337.039-.608.161-.812.365-.196.204-.294.479-.294.824zm1.871 4.944c.345-.055.616-.193.812-.412.197-.228.295-.499.295-.812 0-.314-.098-.558-.295-.73-.188-.181-.459-.326-.812-.436zm9.951-6.392h-3.943v2.343c.165-.22.408-.405.73-.554.329-.149.678-.223 1.047-.223.659 0 1.193.141 1.601.423.416.283.71.64.883 1.072.18.431.271.886.271 1.365 0 .581-.114 1.099-.342 1.554-.219.447-.553.8-1 1.059-.44.259-.981.389-1.625.389-.855 0-1.542-.212-2.059-.636-.518-.424-.828-.985-.93-1.683h1.306c.087.369.279.663.577.883.298.211.671.317 1.118.317.557 0 .973-.168 1.248-.506.282-.337.424-.785.424-1.342 0-.565-.142-.996-.424-1.294-.283-.306-.698-.46-1.248-.46-.384 0-.71.099-.977.295-.259.188-.447.447-.565.777h-1.271v-4.956h5.179zm1.986 3.025c0-1.357.227-2.417.682-3.178.463-.769 1.256-1.153 2.378-1.153s1.911.384 2.366 1.153c.463.761.694 1.821.694 3.178 0 1.374-.231 2.449-.694 3.225-.455.77-1.244 1.154-2.366 1.154s-1.915-.384-2.378-1.154c-.455-.776-.682-1.851-.682-3.225zm4.802 0c0-.635-.043-1.173-.129-1.612-.079-.44-.244-.797-.495-1.071-.251-.283-.624-.424-1.118-.424s-.867.141-1.118.424c-.251.274-.42.631-.506 1.071-.079.439-.118.977-.118 1.612 0 .659.039 1.213.118 1.66.078.447.243.808.494 1.083.259.275.636.412 1.13.412s.867-.137 1.118-.412c.259-.275.428-.636.506-1.083.079-.447.118-1.001.118-1.66z" fill="#b06c43"/><rect fill="#babab9" fill-opacity=".11" height="65.3933" rx="32.6966" width="523.146" x="292.427" y="365.607"/><path d="m328.175 418.105c10.42 0 18.866-8.446 18.866-18.866s-8.446-18.867-18.866-18.867-18.867 8.447-18.867 18.867 8.447 18.866 18.867 18.866z" fill="#fff"/><g clip-path="url(#c)"><g mask="url(#g)"><path d="m339.774 419.606h-22.596c.383-1.308 1.996-4.016 5.17-5.075 4.309-1.436 4.213-5.17 4.117-6.797h4.022c-.096 1.627-.192 5.361 4.117 6.797 3.174 1.059 4.787 3.767 5.17 5.075z" fill="#003" stroke="#000" stroke-linecap="round" stroke-width=".191489"/><path d="m338.72 398.064c-.842.536-1.819 2.329-2.202 3.159-3.159 1.436-10.474 3.926-15.223.479-5.936-4.309-3.447-8.138-3.638-8.33-.153-.153-.894.766-1.245 1.245-.287-1.436 1.149-2.202 1.053-2.394-.076-.153-.989-.383-1.436-.479.287-.478 2.202-.383 2.202-.478 0-.077-1.021-.415-1.532-.575.383 0 1.181-.255 1.532-.383-.23-.306-1.564-.83-2.202-1.053 1.992.153 5.298-1.851 6.702-2.872 1.149-.67 3.983-2.049 6.128-2.202 2.144-.154 4.021 1.404 4.691 2.202 0-.38.377-.917.57-1.144-.097.13-.281 1.332-.187 1.144.073-.145.696-.566.951-.761.049-.063.085-.101.102-.101.023 0-.02.039-.102.101-.17.221-.49.75-.664 1.048 1.456.077 2.649 1.245 3.064 1.819.16.798.785 2.662 2.011 3.734 1.532 1.341.479 5.17-.575 5.841z" fill="#ba773d"/><path d="m325.33 412.521.001.001c1.269-1.658 1.199-3.695 1.134-4.788h4.022c-.065 1.093-.134 3.13 1.134 4.788l.001-.001c.124.164.267.329.419.484-1.631 1.804-5.888 1.814-7.265.133.208-.198.392-.404.554-.617z" fill="#ffdac6"/><path d="m324.776 413.138c-.012-.015.011.014 0 0 1.377 1.681 5.633 1.671 7.265-.133-.152-.155-.295-.32-.42-.484-1.039 1.34-5.443 1.34-6.291 0-.162.213-.346.419-.554.617zm7.265-.133c-1.702-1.726-1.625-4.07-1.554-5.271h-4.022c.073 1.233.153 3.668-1.689 5.404" stroke="#000" stroke-linecap="round" stroke-width=".191489"/><g mask="url(#h)"><path d="m317.656 415.968h20.968m.288 1.436h-22.5m.478 1.532h24.607" stroke="#fff" stroke-linecap="round" stroke-width=".191489"/></g><path d="m334.987 404.862c-1.149 3.523-4.5 4.308-6.319 4.308h-.329c-1.819 0-5.17-.785-6.319-4.308-3.447-.001-4.692-5.841-1.341-3.734l.425.287v-6.128c.153-2.221 2.617-3.798 3.83-4.309 0 .46-.447 1.022-.671 1.245 3.524-.23 5.681-2.074 6.32-2.968-.077.46-.735 1.404-1.054 1.819.613-.153 1.724-.957 2.202-1.34 0 .766-.702 1.723-1.053 2.106.919-.153 1.979-1.276 2.394-1.819h.096c.032.734-.096 2.011.861 2.681.579.405 1.022 2.776 1.341 3.734.095-.479.127-.862.191-1.149.536.383.734 4.054.766 5.841 3.351-2.107 2.107 3.733-1.34 3.734z" fill="#ffdac6"/><path d="m336.327 401.128c3.351-2.107 2.107 3.733-1.34 3.734-1.149 3.523-4.5 4.308-6.319 4.308h-.329c-1.819 0-5.17-.785-6.319-4.308-3.447-.001-4.692-5.841-1.341-3.734l.425.286" stroke="#000" stroke-linecap="round" stroke-width=".191489"/><path d="m326.561 403.617c.606.67 2.221 1.608 3.83 0" stroke="#000" stroke-linecap="round" stroke-width=".191489"/><path d="m324.359 399.978c.37 0 .67-.3.67-.67s-.3-.671-.67-.671-.67.301-.67.671.3.67.67.67z" fill="#000"/><path d="m332.593 399.978c.37 0 .67-.3.67-.67s-.3-.671-.67-.671-.67.301-.67.671.3.67.67.67z" fill="#000"/><g stroke="#000" stroke-width=".191489"><path d="m328.669 398.351c.798 1.276 1.953 3.81.192 3.734-.327 0-.66-.007-.831-.096" stroke-linecap="round"/><path d="m322.67 396.953c.029.315.599.092.881-.059.24-.092.877-.292 1.506-.351.439-.041.627-.127.693-.198.038-.041-.003-.093-.055-.112-1.437-.544-3.061.335-3.025.72z" fill="#000"/><path d="m334.665 397.208c-.042.313-.603.067-.878-.096-.236-.102-.865-.327-1.491-.412-.437-.059-.621-.152-.684-.226-.036-.043.006-.092.059-.11 1.459-.484 3.046.46 2.994.844z" fill="#000"/><path d="m337.189 402.168c-.352-.096-1.054.769-1.245 1.467" stroke-linecap="round"/><path d="m319.859 402.168c.351-.096 1.053.769 1.245 1.467" stroke-linecap="round"/></g></g></g><path d="m356.076 431h4.36v-65.393h-4.36-4.359v65.393z" fill="#fff" mask="url(#i)"/><path d="m380.028 386.203c-.816-.408-1.224-1.051-1.224-1.93 0-.424.106-.813.318-1.166s.53-.631.953-.835c.424-.212.942-.318 1.554-.318.604 0 1.118.106 1.542.318.432.204.753.482.965.835s.318.742.318 1.166c0 .439-.114.828-.341 1.165-.22.33-.514.585-.883.765.447.165.8.436 1.059.812.259.369.389.805.389 1.307 0 .51-.13.961-.389 1.353-.259.393-.62.695-1.083.907s-.988.318-1.577.318c-.588 0-1.114-.106-1.577-.318-.455-.212-.812-.514-1.071-.907-.259-.392-.389-.843-.389-1.353s.13-.95.389-1.319c.259-.368.608-.635 1.047-.8zm3.143-1.766c0-.439-.137-.776-.412-1.012-.275-.235-.651-.353-1.13-.353-.471 0-.843.118-1.118.353-.275.236-.412.577-.412 1.024 0 .393.141.714.424.965.29.244.659.365 1.106.365s.816-.125 1.107-.376c.29-.251.435-.573.435-.966zm-1.542 2.355c-.518 0-.942.129-1.271.388-.322.251-.483.616-.483 1.095 0 .447.157.812.471 1.094.314.275.742.412 1.283.412.534 0 .954-.141 1.26-.423.314-.283.47-.644.47-1.083 0-.471-.16-.836-.482-1.095-.314-.259-.73-.388-1.248-.388zm12.624 2.224h-3.425l-.589 1.672h-1.401l2.931-8.193h1.554l2.931 8.193h-1.413zm-.377-1.094-1.33-3.802-1.342 3.802zm4.994-2.767c.228-.298.538-.549.93-.753s.836-.306 1.33-.306c.565 0 1.079.141 1.542.424.471.275.84.663 1.107 1.165.266.502.4 1.079.4 1.73 0 .652-.134 1.236-.4 1.754-.267.51-.636.911-1.107 1.201-.463.282-.977.424-1.542.424-.494 0-.934-.098-1.318-.295-.385-.204-.699-.455-.942-.753v4.026h-1.342v-9.57h1.342zm3.943 2.26c0-.447-.094-.831-.282-1.153-.181-.33-.424-.577-.73-.742-.298-.172-.62-.259-.965-.259-.338 0-.659.087-.965.259-.299.173-.542.424-.73.754-.181.329-.271.718-.271 1.165s.09.84.271 1.177c.188.33.431.581.73.753.306.173.627.259.965.259.345 0 .667-.086.965-.259.306-.18.549-.439.73-.776.188-.338.282-.73.282-1.178zm4.035-2.271c.196-.33.455-.585.776-.765.33-.189.718-.283 1.166-.283v1.389h-.342c-.525 0-.926.133-1.2.4-.267.267-.4.73-.4 1.389v3.414h-1.342v-6.486h1.342z" fill="#4c5357"/><path d="m384.278 410.717c0 .392-.098.761-.294 1.106-.189.345-.471.636-.848.871-.369.236-.808.377-1.318.424v.953h-.765v-.953c-.738-.071-1.334-.302-1.789-.695-.455-.392-.683-.91-.683-1.553h1.436c.024.306.122.561.294.765.173.196.42.322.742.376v-2.589c-.526-.134-.954-.267-1.283-.4-.33-.142-.612-.361-.848-.659-.227-.299-.341-.707-.341-1.225 0-.651.228-1.188.683-1.612.455-.432 1.051-.683 1.789-.754v-.953h.765v.953c.691.063 1.244.283 1.66.66.423.368.663.878.718 1.53h-1.436c-.024-.243-.118-.459-.283-.648-.165-.196-.384-.329-.659-.4v2.543c.526.125.953.259 1.283.4.33.133.608.349.836.647.227.291.341.695.341 1.213zm-4.332-3.649c0 .321.095.573.283.753.196.181.471.326.824.436v-2.378c-.338.039-.608.161-.812.365-.196.204-.295.478-.295.824zm1.872 4.943c.345-.054.616-.192.812-.412.196-.227.294-.498.294-.812s-.098-.557-.294-.729c-.188-.181-.459-.326-.812-.436zm4.242-6.32v-1.225h2.448v8.581h-1.353v-7.356zm5.033 5.532c.754-.651 1.346-1.185 1.778-1.601.439-.424.804-.863 1.094-1.318.291-.455.436-.911.436-1.366 0-.471-.114-.839-.341-1.106-.22-.267-.569-.4-1.048-.4-.463 0-.824.149-1.083.447-.251.29-.384.683-.4 1.177h-1.295c.024-.895.29-1.577.8-2.048.518-.479 1.174-.718 1.966-.718.856 0 1.523.235 2.001.706.487.471.73 1.099.73 1.883 0 .565-.145 1.111-.435 1.637-.283.517-.624.984-1.025 1.4-.392.408-.894.883-1.506 1.425l-.53.47h3.731v1.119h-5.72v-.977zm6.052-2.578c0-1.358.228-2.417.683-3.178.463-.769 1.256-1.154 2.378-1.154s1.91.385 2.366 1.154c.463.761.694 1.82.694 3.178 0 1.373-.231 2.448-.694 3.225-.456.769-1.244 1.154-2.366 1.154s-1.915-.385-2.378-1.154c-.455-.777-.683-1.852-.683-3.225zm4.803 0c0-.636-.043-1.173-.13-1.613-.078-.439-.243-.796-.494-1.071-.251-.282-.624-.423-1.118-.423-.495 0-.867.141-1.119.423-.251.275-.419.632-.506 1.071-.078.44-.117.977-.117 1.613 0 .659.039 1.212.117 1.66.079.447.244.808.495 1.083.259.274.635.412 1.13.412.494 0 .867-.138 1.118-.412.259-.275.428-.636.506-1.083.079-.448.118-1.001.118-1.66z" fill="#b06c43"/></g><path d="m227.034 43h653.933v174.382h-653.933z" fill="#fff"/><path d="m514.747 70.5023h-7.366v-.8344c.748-.3453 1.515-.5755 2.302-.6906v-17.0624c-.384-.0767-.767-.1726-1.151-.2877-.384-.1343-.767-.2781-1.151-.4316v-.8344h7.366v.8344c-.345.1535-.719.2973-1.122.4316-.403.1151-.796.211-1.18.2877v17.0624c.403.0768.806.1727 1.209.2878.402.1151.767.2493 1.093.4028zm17.971 0h-6.187v-.7193c.518-.2686 1.084-.4987 1.698-.6906v-6.8192c0-1.4578-.211-2.6087-.633-3.4527s-1.189-1.266-2.302-1.266c-.479 0-.93.0863-1.352.2589-.403.1726-.767.4124-1.094.7193-.307.2878-.575.6235-.805 1.0071-.23.3645-.413.7481-.547 1.1509v8.4017c.595.1151 1.17.3453 1.726.6906v.7193h-6.215v-.7193c.48-.2494 1.113-.4796 1.9-.6906v-11.3078l-1.9-.2301v-.7481c.499-.211 1.075-.4029 1.727-.5755s1.333-.3261 2.043-.4604h.719v3.2226h.029c.403-.8824.978-1.6401 1.726-2.2731.768-.633 1.688-.9495 2.762-.9495.768 0 1.449.0959 2.043.2878.614.1726 1.122.4891 1.525.9495.403.4603.71 1.0838.921 1.8702.211.7673.317 1.7456.317 2.9349v7.2795c.767.1343 1.4.3645 1.899.6906zm12.768-2.0141c-.346.6714-.912 1.2372-1.698 1.6976-.767.4412-1.669.6618-2.705.6618-1.131 0-2.119-.1726-2.963-.5179-.825-.3645-1.516-.8728-2.072-1.525-.556-.6714-.978-1.4674-1.266-2.3882-.269-.9399-.403-1.9757-.403-3.1074 0-2.4362.595-4.2968 1.784-5.582 1.189-1.3044 2.81-1.9566 4.863-1.9566.94 0 1.774.0863 2.503.259.748.1534 1.381.3644 1.899.633-.057.633-.163 1.3427-.316 2.1292-.154.7865-.346 1.4386-.576 1.9566h-.777l-1.208-3.424c-.135-.0959-.288-.1631-.461-.2014-.172-.0576-.46-.0864-.863-.0864-1.304 0-2.311.4796-3.021 1.4387-.71.9399-1.065 2.5416-1.065 4.8051 0 .7289.096 1.4386.288 2.1292.211.6905.518 1.314.921 1.8702.422.5371.94.9687 1.554 1.2948.633.3261 1.362.4892 2.186.4892.672 0 1.257-.0959 1.756-.2878.498-.1918.92-.422 1.266-.6905zm2.296-5.1791c0-1.2085.154-2.2731.461-3.1938.326-.94.786-1.7264 1.381-2.3594.594-.6522 1.304-1.1414 2.129-1.4675.844-.3452 1.774-.5179 2.791-.5179 1.189 0 2.215.1823 3.079.5467.863.3645 1.563.8824 2.1 1.5538.556.6521.959 1.4386 1.209 2.3593.268.9208.402 1.947.402 3.0788 0 2.4169-.613 4.2776-1.841 5.5819-1.228 1.3044-2.877 1.9566-4.949 1.9566-1.151 0-2.148-.1726-2.992-.5179-.844-.3645-1.545-.8728-2.101-1.525-.556-.6714-.978-1.4674-1.266-2.3882-.268-.9399-.403-1.9757-.403-3.1074zm2.762 0c0 .8632.077 1.6784.231 2.4457.172.7672.431 1.4386.777 2.0141.364.5563.834.9974 1.409 1.3235.576.3261 1.266.4892 2.072.4892 1.036 0 1.88-.5083 2.532-1.525.671-1.0166 1.007-2.5992 1.007-4.7475 0-.8824-.086-1.6976-.259-2.4457-.153-.7673-.403-1.4291-.748-1.9854-.345-.5754-.786-1.0262-1.323-1.3523-.538-.3261-1.18-.4892-1.928-.4892-1.132 0-2.043.5084-2.734 1.525-.69 1.0167-1.036 2.5992-1.036 4.7476zm27.73 7.1932h-6.157v-.7193c.191-.1151.422-.2302.69-.3453.288-.1343.624-.2493 1.007-.3453v-6.6465c0-.7673-.038-1.4579-.115-2.0717-.057-.6138-.182-1.1221-.374-1.525-.173-.422-.432-.7385-.777-.9495-.345-.2302-.796-.3452-1.352-.3452-.422 0-.815.0863-1.18.2589-.345.1726-.662.4028-.949.6906-.269.2877-.509.6138-.72.9782-.191.3645-.345.7481-.46 1.151v8.4592c.307.096.595.2015.863.3165.288.096.566.2206.835.3741v.7193h-6.187v-.7193c.269-.1343.566-.259.892-.3741.326-.115.662-.2205 1.007-.3165v-11.3078l-1.899-.2301v-.7481c.614-.2686 1.238-.4796 1.871-.6331.652-.1726 1.285-.3069 1.899-.4028h.719v3.2514h.029c.307-.9016.825-1.6689 1.553-2.3019.749-.633 1.669-.9495 2.763-.9495.46 0 .901.048 1.323.1439s.815.2781 1.18.5467c.364.2493.671.6042.921 1.0646.249.4603.431 1.055.546 1.7839.346-1.055.902-1.9086 1.669-2.5608s1.727-.9783 2.878-.9783c.709 0 1.323.0959 1.841.2878.537.1726.978.4891 1.324.9495.345.4603.594 1.0838.748 1.8702.172.7865.259 1.7839.259 2.9924v7.222c.652.1151 1.285.3453 1.899.6906v.7193h-6.187v-.7193c.576-.3069 1.142-.5371 1.698-.6906v-7.1644c0-.6906-.038-1.3044-.115-1.8415-.058-.5371-.182-.9879-.374-1.3524-.192-.3836-.46-.6713-.806-.8631-.345-.211-.805-.3165-1.381-.3165-.921 0-1.64.3165-2.158.9495-.499.633-.863 1.4386-1.093 2.4169v8.1715c.671.1919 1.295.422 1.87.6906zm21.904-2.0141c-.153.3261-.393.633-.719.9207-.326.2878-.7.5371-1.122.7481s-.882.3741-1.381.4892c-.499.1343-1.007.2014-1.525.2014-1.132 0-2.129-.1726-2.993-.5179-.863-.3645-1.582-.8728-2.158-1.525-.575-.6714-1.016-1.4674-1.323-2.3882-.288-.9207-.432-1.9565-.432-3.1074 0-2.4553.566-4.3256 1.698-5.6108s2.733-1.9278 4.805-1.9278c.671 0 1.333.0959 1.985.2878.653.1726 1.228.4699 1.727.8919.518.422.93.9879 1.237 1.6976.326.6906.489 1.5538.489 2.5896 0 .3261-.019.6618-.057 1.0071-.02.3261-.068.6809-.144 1.0646h-8.977c0 .8056.095 1.5633.287 2.273.211.6906.518 1.2948.921 1.8127s.911.9304 1.525 1.2373c.614.2877 1.333.4316 2.158.4316.671 0 1.352-.0959 2.043-.2878.69-.1918 1.208-.4411 1.554-.7481zm-5.265-11.4517c-1.093 0-1.928.3741-2.503 1.1222-.576.7289-.921 2.0237-1.036 3.8843h6.33c.019-.1726.029-.3356.029-.4891.019-.1726.028-.3357.028-.4891 0-1.2277-.23-2.206-.69-2.9349s-1.18-1.0934-2.158-1.0934z" fill="#000"/><path d="m880.966 153.733v-.872h-653.932v.872.871h653.932z" fill="#f0d1bd" mask="url(#j)"/><path d="m445.011 152.861v-.872h-217.977v.872.872h217.977z" fill="#fff" mask="url(#k)"/><g filter="url(#a)"><path d="m292.622 130.567c1.027 0 1.915.193 2.662.581.757.378 1.334.923 1.73 1.635.406.712.608 1.55.608 2.514s-.202 1.802-.608 2.514c-.396.702-.973 1.243-1.73 1.621-.747.37-1.635.554-2.662.554h-2.933v-9.419zm0 8.406c1.216 0 2.144-.32 2.784-.96.64-.648.96-1.554.96-2.716 0-1.171-.325-2.086-.973-2.744-.64-.657-1.564-.986-2.771-.986h-1.703v7.406zm6.163-2.717c0-.756.153-1.419.46-1.986.306-.577.725-1.023 1.256-1.338.541-.316 1.14-.473 1.798-.473.649 0 1.212.139 1.689.419.478.279.834.63 1.068 1.054v-1.352h1.243v7.406h-1.243v-1.378c-.243.432-.608.793-1.095 1.081-.477.279-1.036.419-1.676.419-.657 0-1.252-.162-1.784-.486-.531-.325-.95-.78-1.256-1.365-.307-.586-.46-1.253-.46-2.001zm6.271.014c0-.559-.113-1.045-.338-1.46-.225-.414-.532-.729-.919-.946-.378-.225-.797-.338-1.257-.338-.459 0-.878.109-1.257.325-.378.216-.68.531-.905.946-.225.414-.338.901-.338 1.459 0 .568.113 1.064.338 1.487.225.414.527.734.905.96.379.216.798.324 1.257.324.46 0 .879-.108 1.257-.324.387-.226.694-.546.919-.96.225-.423.338-.914.338-1.473zm3.957-4.892c-.235 0-.433-.081-.595-.244-.162-.162-.243-.36-.243-.594 0-.235.081-.433.243-.595s.36-.243.595-.243c.225 0 .414.081.567.243.163.162.244.36.244.595 0 .234-.081.432-.244.594-.153.163-.342.244-.567.244zm.594 1.202v7.406h-1.229v-7.406zm3.326-2.594v10h-1.23v-10zm8.475 2.594-4.46 10.893h-1.27l1.46-3.568-2.987-7.325h1.365l2.324 6.001 2.298-6.001zm5.475-1.202c-.235 0-.433-.081-.595-.244-.162-.162-.243-.36-.243-.594 0-.235.081-.433.243-.595s.36-.243.595-.243c.225 0 .414.081.567.243.162.162.244.36.244.595 0 .234-.082.432-.244.594-.153.163-.342.244-.567.244zm.594 1.202v7.406h-1.23v-7.406zm5.705-.135c.901 0 1.63.275 2.189.825.559.54.838 1.324.838 2.351v4.365h-1.216v-4.189c0-.739-.185-1.302-.554-1.689-.37-.397-.874-.595-1.514-.595-.649 0-1.167.203-1.554.608-.379.406-.568.996-.568 1.771v4.094h-1.23v-7.406h1.23v1.055c.243-.379.572-.672.987-.879.423-.207.887-.311 1.392-.311zm4.576 3.825c0-.766.154-1.433.46-2 .306-.577.73-1.023 1.27-1.338.55-.316 1.176-.473 1.879-.473.91 0 1.658.221 2.243.662.595.442.987 1.054 1.176 1.838h-1.324c-.127-.45-.374-.806-.744-1.068-.36-.261-.811-.392-1.351-.392-.703 0-1.271.244-1.703.73-.433.478-.649 1.158-.649 2.041 0 .892.216 1.581.649 2.068.432.486 1 .729 1.703.729.54 0 .991-.126 1.351-.378.361-.252.608-.613.744-1.081h1.324c-.198.757-.595 1.365-1.189 1.824-.595.451-1.338.676-2.23.676-.703 0-1.329-.158-1.879-.473-.54-.315-.964-.761-1.27-1.338-.306-.576-.46-1.252-.46-2.027zm11.899 3.838c-.694 0-1.324-.158-1.892-.473-.559-.315-1-.761-1.325-1.338-.315-.586-.473-1.261-.473-2.027 0-.757.163-1.424.487-2 .333-.586.784-1.032 1.351-1.338.568-.316 1.203-.473 1.906-.473s1.338.157 1.906.473c.567.306 1.013.748 1.338 1.324.333.577.5 1.248.5 2.014s-.172 1.441-.514 2.027c-.333.577-.788 1.023-1.365 1.338s-1.216.473-1.919.473zm0-1.081c.441 0 .856-.104 1.243-.311.388-.207.699-.518.933-.932.243-.415.365-.919.365-1.514s-.117-1.099-.352-1.514c-.234-.414-.54-.72-.919-.919-.378-.207-.788-.311-1.229-.311-.451 0-.865.104-1.244.311-.369.199-.667.505-.892.919-.225.415-.338.919-.338 1.514 0 .604.108 1.113.325 1.527.225.415.522.725.892.933.369.198.774.297 1.216.297zm14.321-6.582c.576 0 1.09.122 1.54.365.451.234.807.59 1.068 1.068.261.477.392 1.058.392 1.743v4.365h-1.216v-4.189c0-.739-.185-1.302-.554-1.689-.361-.397-.852-.595-1.474-.595-.639 0-1.148.207-1.527.622-.378.405-.567.995-.567 1.77v4.081h-1.217v-4.189c0-.739-.184-1.302-.554-1.689-.36-.397-.851-.595-1.473-.595-.64 0-1.149.207-1.527.622-.378.405-.568.995-.568 1.77v4.081h-1.229v-7.406h1.229v1.068c.244-.387.568-.685.973-.892.415-.207.87-.311 1.365-.311.622 0 1.172.14 1.649.419.478.28.834.689 1.068 1.23.207-.522.549-.928 1.027-1.216.477-.289 1.009-.433 1.595-.433zm11.775 3.555c0 .234-.014.482-.041.743h-5.919c.045.73.292 1.302.743 1.716.459.406 1.014.608 1.662.608.532 0 .973-.121 1.325-.364.36-.253.612-.586.757-1.001h1.324c-.198.712-.595 1.293-1.189 1.744-.595.441-1.334.662-2.217.662-.702 0-1.333-.158-1.892-.473-.549-.315-.982-.761-1.297-1.338-.316-.586-.473-1.261-.473-2.027s.153-1.437.459-2.014c.307-.576.735-1.018 1.284-1.324.559-.316 1.198-.473 1.919-.473.703 0 1.325.153 1.865.459.541.307.955.73 1.244 1.271.297.531.446 1.135.446 1.811zm-1.271-.257c0-.469-.103-.87-.311-1.203-.207-.342-.491-.599-.851-.77-.351-.18-.743-.271-1.176-.271-.621 0-1.153.199-1.595.595-.432.397-.68.946-.743 1.649zm5.516 4.365c-.568 0-1.077-.095-1.527-.284-.451-.198-.807-.468-1.068-.811-.261-.351-.405-.752-.432-1.202h1.27c.036.369.207.671.513.905.316.234.726.351 1.23.351.469 0 .838-.103 1.108-.31.271-.208.406-.469.406-.784 0-.325-.144-.563-.433-.717-.288-.162-.734-.319-1.338-.473-.549-.144-1-.288-1.351-.432-.342-.153-.64-.374-.892-.662-.243-.298-.365-.685-.365-1.162 0-.379.113-.726.338-1.041s.545-.563.96-.743c.414-.19.887-.284 1.419-.284.819 0 1.482.207 1.986.621.505.415.775.983.811 1.703h-1.23c-.027-.387-.184-.698-.473-.932-.279-.234-.657-.352-1.135-.352-.441 0-.793.095-1.054.284s-.392.437-.392.744c0 .243.077.446.23.608.162.153.36.279.594.378.244.09.577.194 1 .311.532.144.965.288 1.298.432.333.136.617.343.851.622.244.279.37.644.379 1.095 0 .405-.113.77-.338 1.094-.225.325-.545.582-.96.771-.405.18-.874.27-1.405.27z" fill="#8c5000"/></g><path d="m662.989 152.861v-.872h-217.978v.872.872h217.978z" fill="#fff" mask="url(#l)"/><path d="m512.062 130.567-2.73 9.419h-1.378l-2.19-7.581-2.27 7.581-1.365.014-2.635-9.433h1.31l2.055 7.987 2.27-7.987h1.379l2.162 7.96 2.068-7.96zm8.103 5.433c0 .234-.013.482-.04.743h-5.92c.045.73.293 1.302.744 1.716.459.406 1.013.608 1.662.608.532 0 .973-.121 1.324-.364.361-.253.613-.586.757-1.001h1.325c-.199.712-.595 1.293-1.19 1.744-.594.441-1.333.662-2.216.662-.703 0-1.333-.158-1.892-.473-.55-.315-.982-.761-1.298-1.338-.315-.586-.473-1.261-.473-2.027s.154-1.437.46-2.014c.306-.576.734-1.018 1.284-1.324.558-.316 1.198-.473 1.919-.473.703 0 1.324.153 1.865.459.541.307.955.73 1.243 1.271.298.531.446 1.135.446 1.811zm-1.27-.257c0-.469-.104-.87-.311-1.203-.207-.342-.491-.599-.851-.77-.352-.18-.744-.271-1.176-.271-.622 0-1.153.199-1.595.595-.432.397-.68.946-.743 1.649zm9.651.257c0 .234-.014.482-.041.743h-5.919c.045.73.293 1.302.743 1.716.46.406 1.014.608 1.663.608.531 0 .973-.121 1.324-.364.36-.253.613-.586.757-1.001h1.324c-.198.712-.594 1.293-1.189 1.744-.595.441-1.333.662-2.216.662-.703 0-1.334-.158-1.892-.473-.55-.315-.983-.761-1.298-1.338-.315-.586-.473-1.261-.473-2.027s.153-1.437.46-2.014c.306-.576.734-1.018 1.284-1.324.558-.316 1.198-.473 1.919-.473.702 0 1.324.153 1.865.459.54.307.955.73 1.243 1.271.297.531.446 1.135.446 1.811zm-1.27-.257c0-.469-.104-.87-.311-1.203-.208-.342-.491-.599-.852-.77-.351-.18-.743-.271-1.175-.271-.622 0-1.154.199-1.595.595-.433.397-.68.946-.744 1.649zm7.029 4.243-2.906-3.27v3.27h-1.23v-10h1.23v5.878l2.852-3.284h1.716l-3.487 3.69 3.501 3.716zm4.049-10v10h-1.229v-10zm8.475 2.594-4.46 10.893h-1.27l1.46-3.568-2.987-7.325h1.365l2.324 6.001 2.298-6.001zm5.475-1.202c-.234 0-.433-.081-.595-.244-.162-.162-.243-.36-.243-.594 0-.235.081-.433.243-.595s.361-.243.595-.243c.225 0 .414.081.567.243.163.162.244.36.244.595 0 .234-.081.432-.244.594-.153.163-.342.244-.567.244zm.594 1.202v7.406h-1.229v-7.406zm5.705-.135c.901 0 1.631.275 2.189.825.559.54.838 1.324.838 2.351v4.365h-1.216v-4.189c0-.739-.185-1.302-.554-1.689-.37-.397-.874-.595-1.514-.595-.649 0-1.167.203-1.554.608-.379.406-.568.996-.568 1.771v4.094h-1.23v-7.406h1.23v1.055c.244-.379.572-.672.987-.879.423-.207.887-.311 1.392-.311zm4.577 3.825c0-.766.153-1.433.459-2 .306-.577.73-1.023 1.27-1.338.55-.316 1.176-.473 1.879-.473.91 0 1.658.221 2.243.662.595.442.987 1.054 1.176 1.838h-1.324c-.126-.45-.374-.806-.744-1.068-.36-.261-.81-.392-1.351-.392-.703 0-1.27.244-1.703.73-.432.478-.649 1.158-.649 2.041 0 .892.217 1.581.649 2.068.433.486 1 .729 1.703.729.541 0 .991-.126 1.351-.378.361-.252.609-.613.744-1.081h1.324c-.198.757-.595 1.365-1.189 1.824-.595.451-1.338.676-2.23.676-.703 0-1.329-.158-1.879-.473-.54-.315-.964-.761-1.27-1.338-.306-.576-.459-1.252-.459-2.027zm11.898 3.838c-.694 0-1.324-.158-1.892-.473-.559-.315-1-.761-1.324-1.338-.316-.586-.473-1.261-.473-2.027 0-.757.162-1.424.486-2 .333-.586.784-1.032 1.352-1.338.567-.316 1.202-.473 1.905-.473s1.338.157 1.906.473c.567.306 1.013.748 1.338 1.324.333.577.5 1.248.5 2.014s-.171 1.441-.514 2.027c-.333.577-.788 1.023-1.365 1.338-.576.315-1.216.473-1.919.473zm0-1.081c.442 0 .856-.104 1.243-.311.388-.207.699-.518.933-.932.243-.415.365-.919.365-1.514s-.117-1.099-.352-1.514c-.234-.414-.54-.72-.919-.919-.378-.207-.788-.311-1.229-.311-.451 0-.865.104-1.244.311-.369.199-.666.505-.892.919-.225.415-.338.919-.338 1.514 0 .604.109 1.113.325 1.527.225.415.522.725.892.933.369.198.775.297 1.216.297zm14.321-6.582c.576 0 1.09.122 1.54.365.451.234.807.59 1.068 1.068.261.477.392 1.058.392 1.743v4.365h-1.216v-4.189c0-.739-.185-1.302-.554-1.689-.361-.397-.852-.595-1.473-.595-.64 0-1.149.207-1.528.622-.378.405-.567.995-.567 1.77v4.081h-1.217v-4.189c0-.739-.184-1.302-.554-1.689-.36-.397-.851-.595-1.473-.595-.639 0-1.148.207-1.527.622-.378.405-.567.995-.567 1.77v4.081h-1.23v-7.406h1.23v1.068c.243-.387.567-.685.973-.892.414-.207.869-.311 1.365-.311.621 0 1.171.14 1.648.419.478.28.834.689 1.068 1.23.207-.522.55-.928 1.027-1.216.478-.289 1.009-.433 1.595-.433zm11.775 3.555c0 .234-.014.482-.041.743h-5.919c.045.73.293 1.302.743 1.716.46.406 1.014.608 1.662.608.532 0 .973-.121 1.325-.364.36-.253.612-.586.757-1.001h1.324c-.198.712-.595 1.293-1.189 1.744-.595.441-1.334.662-2.217.662-.702 0-1.333-.158-1.892-.473-.549-.315-.982-.761-1.297-1.338-.315-.586-.473-1.261-.473-2.027s.153-1.437.459-2.014c.307-.576.735-1.018 1.284-1.324.559-.316 1.199-.473 1.919-.473.703 0 1.325.153 1.865.459.541.307.955.73 1.244 1.271.297.531.446 1.135.446 1.811zm-1.271-.257c0-.469-.103-.87-.31-1.203-.208-.342-.492-.599-.852-.77-.351-.18-.743-.271-1.176-.271-.621 0-1.153.199-1.594.595-.433.397-.681.946-.744 1.649zm5.516 4.365c-.568 0-1.077-.095-1.527-.284-.451-.198-.807-.468-1.068-.811-.261-.351-.405-.752-.432-1.202h1.27c.036.369.207.671.514.905.315.234.725.351 1.229.351.469 0 .838-.103 1.109-.31.27-.208.405-.469.405-.784 0-.325-.144-.563-.432-.717-.289-.162-.735-.319-1.338-.473-.55-.144-1-.288-1.352-.432-.342-.153-.64-.374-.892-.662-.243-.298-.365-.685-.365-1.162 0-.379.113-.726.338-1.041s.545-.563.96-.743c.414-.19.887-.284 1.419-.284.82 0 1.482.207 1.986.621.505.415.775.983.811 1.703h-1.23c-.027-.387-.184-.698-.473-.932-.279-.234-.657-.352-1.135-.352-.441 0-.793.095-1.054.284s-.392.437-.392.744c0 .243.077.446.23.608.162.153.36.279.595.378.243.09.576.194 1 .311.531.144.964.288 1.297.432.333.136.617.343.851.622.244.279.37.644.379 1.095 0 .405-.113.77-.338 1.094-.225.325-.545.582-.96.771-.405.18-.874.27-1.405.27z" fill="#272828"/><path d="m880.966 152.861v-.872h-217.977v.872.872h217.977z" fill="#fff" mask="url(#m)"/><path d="m724.958 130.634v9.352h-1.23v-6.973l-3.108 6.973h-.865l-3.122-6.987v6.987h-1.23v-9.352h1.324l3.46 7.731 3.46-7.731zm5.315 9.474c-.693 0-1.324-.158-1.892-.473-.558-.315-1-.761-1.324-1.338-.315-.586-.473-1.261-.473-2.027 0-.757.162-1.424.486-2 .334-.586.784-1.032 1.352-1.338.568-.316 1.203-.473 1.905-.473.703 0 1.338.157 1.906.473.568.306 1.014.748 1.338 1.324.333.577.5 1.248.5 2.014s-.171 1.441-.514 2.027c-.333.577-.788 1.023-1.365 1.338-.576.315-1.216.473-1.919.473zm0-1.081c.442 0 .856-.104 1.244-.311.387-.207.698-.518.932-.932.244-.415.365-.919.365-1.514s-.117-1.099-.351-1.514c-.234-.414-.541-.72-.919-.919-.379-.207-.789-.311-1.23-.311-.451 0-.865.104-1.243.311-.37.199-.667.505-.892.919-.226.415-.338.919-.338 1.514 0 .604.108 1.113.324 1.527.225.415.523.725.892.933.369.198.775.297 1.216.297zm9.023-6.582c.901 0 1.631.275 2.19.825.558.54.838 1.324.838 2.351v4.365h-1.217v-4.189c0-.739-.184-1.302-.554-1.689-.369-.397-.874-.595-1.513-.595-.649 0-1.167.203-1.555.608-.378.406-.567.996-.567 1.771v4.094h-1.23v-7.406h1.23v1.055c.243-.379.572-.672.986-.879.424-.207.888-.311 1.392-.311zm6.537 1.149v4.365c0 .361.076.617.229.771.154.144.419.216.798.216h.905v1.04h-1.108c-.685 0-1.198-.157-1.541-.473-.342-.315-.513-.833-.513-1.554v-4.365h-.96v-1.014h.96v-1.865h1.23v1.865h1.932v1.014zm7.098-1.149c.559 0 1.064.122 1.514.365.451.234.802.59 1.054 1.068.261.477.392 1.058.392 1.743v4.365h-1.216v-4.189c0-.739-.185-1.302-.554-1.689-.37-.397-.874-.595-1.514-.595-.649 0-1.167.203-1.554.608-.379.406-.568.996-.568 1.771v4.094h-1.23v-10h1.23v3.649c.244-.379.577-.672 1-.879.433-.207.915-.311 1.446-.311zm6.199-2.459v10h-1.23v-10zm8.475 2.594-4.46 10.893h-1.27l1.459-3.568-2.987-7.325h1.365l2.325 6.001 2.297-6.001zm5.474-1.202c-.234 0-.432-.081-.594-.244-.163-.162-.244-.36-.244-.594 0-.235.081-.433.244-.595.162-.162.36-.243.594-.243.225 0 .415.081.568.243.162.162.243.36.243.595 0 .234-.081.432-.243.594-.153.163-.343.244-.568.244zm.595 1.202v7.406h-1.23v-7.406zm5.704-.135c.901 0 1.631.275 2.19.825.558.54.838 1.324.838 2.351v4.365h-1.217v-4.189c0-.739-.184-1.302-.554-1.689-.369-.397-.874-.595-1.513-.595-.649 0-1.167.203-1.555.608-.378.406-.567.996-.567 1.771v4.094h-1.23v-7.406h1.23v1.055c.243-.379.572-.672.986-.879.424-.207.888-.311 1.392-.311zm4.577 3.825c0-.766.153-1.433.46-2 .306-.577.729-1.023 1.27-1.338.549-.316 1.176-.473 1.878-.473.91 0 1.658.221 2.244.662.594.442.986 1.054 1.176 1.838h-1.325c-.126-.45-.374-.806-.743-1.068-.361-.261-.811-.392-1.352-.392-.702 0-1.27.244-1.702.73-.433.478-.649 1.158-.649 2.041 0 .892.216 1.581.649 2.068.432.486 1 .729 1.702.729.541 0 .991-.126 1.352-.378.36-.252.608-.613.743-1.081h1.325c-.199.757-.595 1.365-1.19 1.824-.594.451-1.338.676-2.23.676-.702 0-1.329-.158-1.878-.473-.541-.315-.964-.761-1.27-1.338-.307-.576-.46-1.252-.46-2.027zm11.899 3.838c-.694 0-1.325-.158-1.892-.473-.559-.315-1.001-.761-1.325-1.338-.315-.586-.473-1.261-.473-2.027 0-.757.162-1.424.487-2 .333-.586.783-1.032 1.351-1.338.568-.316 1.203-.473 1.906-.473.702 0 1.338.157 1.905.473.568.306 1.014.748 1.338 1.324.334.577.5 1.248.5 2.014s-.171 1.441-.513 2.027c-.334.577-.789 1.023-1.365 1.338-.577.315-1.217.473-1.919.473zm0-1.081c.441 0 .856-.104 1.243-.311s.698-.518.932-.932c.244-.415.365-.919.365-1.514s-.117-1.099-.351-1.514c-.234-.414-.541-.72-.919-.919-.378-.207-.788-.311-1.23-.311-.45 0-.865.104-1.243.311-.37.199-.667.505-.892.919-.225.415-.338.919-.338 1.514 0 .604.108 1.113.324 1.527.226.415.523.725.892.933.37.198.775.297 1.217.297zm14.32-6.582c.577 0 1.09.122 1.541.365.45.234.806.59 1.068 1.068.261.477.392 1.058.392 1.743v4.365h-1.217v-4.189c0-.739-.184-1.302-.554-1.689-.36-.397-.851-.595-1.473-.595-.64 0-1.149.207-1.527.622-.379.405-.568.995-.568 1.77v4.081h-1.216v-4.189c0-.739-.185-1.302-.554-1.689-.361-.397-.852-.595-1.473-.595-.64 0-1.149.207-1.527.622-.379.405-.568.995-.568 1.77v4.081h-1.23v-7.406h1.23v1.068c.243-.387.568-.685.973-.892.415-.207.87-.311 1.365-.311.622 0 1.171.14 1.649.419.477.28.833.689 1.067 1.23.208-.522.55-.928 1.028-1.216.477-.289 1.009-.433 1.594-.433zm11.775 3.555c0 .234-.013.482-.04.743h-5.92c.045.73.293 1.302.744 1.716.459.406 1.013.608 1.662.608.531 0 .973-.121 1.324-.364.361-.253.613-.586.757-1.001h1.325c-.199.712-.595 1.293-1.19 1.744-.594.441-1.333.662-2.216.662-.703 0-1.334-.158-1.892-.473-.55-.315-.982-.761-1.298-1.338-.315-.586-.473-1.261-.473-2.027s.154-1.437.46-2.014c.306-.576.734-1.018 1.284-1.324.558-.316 1.198-.473 1.919-.473.703 0 1.324.153 1.865.459.54.307.955.73 1.243 1.271.298.531.446 1.135.446 1.811zm-1.27-.257c0-.469-.104-.87-.311-1.203-.207-.342-.491-.599-.851-.77-.352-.18-.744-.271-1.176-.271-.622 0-1.153.199-1.595.595-.432.397-.68.946-.743 1.649zm5.515 4.365c-.567 0-1.076-.095-1.527-.284-.45-.198-.806-.468-1.067-.811-.262-.351-.406-.752-.433-1.202h1.27c.037.369.208.671.514.905.315.234.725.351 1.23.351.468 0 .838-.103 1.108-.31.27-.208.406-.469.406-.784 0-.325-.145-.563-.433-.717-.288-.162-.734-.319-1.338-.473-.549-.144-1-.288-1.351-.432-.343-.153-.64-.374-.892-.662-.244-.298-.365-.685-.365-1.162 0-.379.112-.726.338-1.041.225-.315.545-.563.959-.743.415-.19.888-.284 1.419-.284.82 0 1.482.207 1.987.621.504.415.775.983.811 1.703h-1.23c-.027-.387-.185-.698-.473-.932-.279-.234-.658-.352-1.135-.352-.442 0-.793.095-1.054.284-.262.189-.392.437-.392.744 0 .243.076.446.229.608.163.153.361.279.595.378.243.09.577.194 1 .311.532.144.964.288 1.297.432.334.136.618.343.852.622.243.279.369.644.378 1.095 0 .405-.112.77-.338 1.094-.225.325-.545.582-.959.771-.406.18-.874.27-1.406.27z" fill="#272828"/><path d="m227.034 152.861h217.978v.87191h-217.978z" fill="#dc7878"/><path d="m0 0h85v584h-85z" fill="#fff"/><path d="m85 0h-1v584h1 1v-584z" fill="#cfcfcf" mask="url(#n)"/><path d="m30 75h5.502v-14.747l11.3834 14.747h7.1146l-18.498-24h-5.502z" fill="#000"/><path d="m54 51v13.5904l-11.4783-13.5904z" fill="#000"/><path d="m0 243h84v57h-84z" fill="#ebf4fd"/><path d="m41.2622 215.043h4.0103m0 0h8.0207c.7383 0 1.3368-.599 1.3368-1.337v-13.814c0-.738-.5985-1.336-1.3368-1.336h-16.487c-.7383 0-1.3367.598-1.3367 1.336v3.565m9.803 11.586v3.119" stroke="#000" stroke-linecap="round" stroke-width="1.11398"/><path d="m45.273 221.616c.9229 0 1.671-.748 1.671-1.671s-.7481-1.671-1.671-1.671c-.9228 0-1.6709.748-1.6709 1.671s.7481 1.671 1.6709 1.671z" stroke="#000" stroke-width="1.11398"/><path d="m33.2411 210.098c1.6981 0 3.0745-1.377 3.0745-3.075s-1.3764-3.074-3.0745-3.074c-1.6982 0-3.0746 1.376-3.0746 3.074s1.3764 3.075 3.0746 3.075z" fill="#000" stroke="#000" stroke-width="1.11398"/><path d="m37.6978 213.26 4.3579-4.358c.4233-.423 1.1095-.423 1.5328 0 .4336.434.4215 1.141-.0267 1.559l-5.864 5.473" fill="#000"/><path d="m31.0135 221.392c0 .554-.4487 1.003-1.0026 1.003s-1.0026-.449-1.0026-1.003v-6.572c0-1.723 1.3965-3.119 3.1191-3.119h4.0104c.8613 0 1.5596.698 1.5596 1.559l4.3579-4.358c.4233-.423 1.1095-.423 1.5328 0 .4336.434.4215 1.141-.0267 1.559l-5.864 5.473v1.559h-6.6839z" fill="#000"/><path d="m37.6978 213.26 4.3579-4.358c.4233-.423 1.1095-.423 1.5328 0 .4336.434.4215 1.141-.0267 1.559l-5.864 5.473v1.559" stroke="#000" stroke-linecap="round" stroke-width="1.11398"/><path d="m31.0135 221.392c0 .554-.4487 1.003-1.0026 1.003s-1.0026-.449-1.0026-1.003v-6.572c0-1.723 1.3965-3.119 3.1191-3.119h4.0104c.8613 0 1.5596.698 1.5596 1.559l4.3579-4.358c.4233-.423 1.1095-.423 1.5328 0 .4336.434.4215 1.141-.0267 1.559l-5.864 5.473v1.559h-6.6839z" stroke="#000" stroke-linecap="round" stroke-width="1.11398"/><path d="m51.9485 332.757c0-.368-.1318-.744-.3576-1.112.0018-.004.0018-.004.0036-.006-1.8587 1.765-5.5561 2.968-9.819 2.968-4.2501 0-7.9386-1.196-9.8027-2.952 0 .004.0018.004.0037.006-.2205.365-.374.733-.374 1.096 0 2.188 4.178 4.624 10.173 4.624 5.9951 0 10.173-2.436 10.173-4.624z" fill="#fff"/><path d="m41.9668 322.616-7.845 1.722 1.3394 6.506 12.8199.956 2.4875-5.357z" fill="#fff"/><path d="m51.9485 338.085c0-.369-.1318-.744-.3576-1.113.0018-.003.0018-.003.0036-.005-1.8587 1.765-5.5561 2.967-9.819 2.967-4.2501 0-7.9386-1.195-9.8027-2.951 0 .004.0018.004.0037.005-.2205.365-.374.734-.374 1.097 0 2.187 4.178 4.624 10.173 4.624 5.9951 0 10.173-2.437 10.173-4.624z" fill="#fff"/><path clip-rule="evenodd" d="m51.9485 327.208c0-.607-.3233-1.235-.9175-1.824-1.5444-1.528-4.9276-2.8-9.2555-2.8-5.995 0-10.173 2.437-10.173 4.624 0 2.188 4.178 4.624 10.173 4.624 5.9951 0 10.173-2.436 10.173-4.624zm-6.5785 2.283c.728-.325 1.3132-.733 1.3132-1.221 0-.031.0004-.063.0009-.094.0038-.279.0072-.526-.3097-.74-.354-.238-.8255-.425-1.418-.56-.5906-.134-1.407-.278-2.4475-.43-.9465-.141-1.566-.256-1.8532-.35-.2891-.094-.4335-.23-.4335-.405 0-.173.1498-.321.4497-.443.298-.121.6954-.182 1.1904-.182.9861 0 1.7123.271 2.1837.815l1.9725-.396c-.049-.067-.0937-.132-.1366-.194-.461-.67-.7222-1.049-4.1064-1.135-1.8496.072-2.6823.272-3.2857.599-.6033.329-1.1253.697-1.1253 1.109 0 .311.0615.586.3992.82.3377.235.7243.419 1.2662.548.5418.132 1.268.263 2.2308.397 1.0711.152 1.7502.276 2.0609.374.3107.099.4588.246.4588.437 0 .184-.1589.342-.4696.473-.3107.13-.8002.195-1.4595.195-1.4107 0-2.2434-.305-2.4927-.915l-2.2759.283c.5474.97.9935 1.503 4.6928 1.597v-.004c1.8496-.057 2.8666-.249 3.5945-.578z" fill="#fff" fill-rule="evenodd"/><path clip-rule="evenodd" d="m52.2254 330.911c.4118-.581.6485-1.203.6485-1.853v-1.85c0-3.063-4.9709-5.549-11.0978-5.549-6.1288 0-11.0979 2.486-11.0979 5.549v1.85c0 .65.2349 1.272.6466 1.851-.0018 0-.0018-.001-.0018-.001-.4099.578-.6448 1.199-.6448 1.849v1.85c0 .65.2349 1.273.6485 1.853-.0019 0-.0037-.002-.0037-.003-.4099.578-.6448 1.199-.6448 1.849v1.85c0 .65.2349 1.273.6485 1.853-.0006 0-.0016-.001-.0016-.001l.6457.744s-.0007-.002-.001-.002c1.8622 1.757 5.5524 2.955 9.8063 2.955 4.2718 0 7.9765-1.21 9.8298-2.981l.6177-.713c.4136-.582.6503-1.203.6503-1.855v-1.85c0-.65-.2348-1.271-.6448-1.849l-.0055.005c.4136-.58.6503-1.205.6503-1.855v-1.85c0-.65-.2348-1.271-.6448-1.849zm-.634 6.282c.2258.369.3576.745.3576 1.113 0 2.188-4.1779 4.624-10.1729 4.624-5.9951 0-10.173-2.436-10.173-4.624 0-.363.1535-.731.3739-1.096-.0036-.002-.0055-.006-.0072-.009 1.8622 1.757 5.5524 2.955 9.8063 2.955 4.2646 0 7.9657-1.207 9.8225-2.973-.0018.003-.0036.007-.0072.01zm0-5.548c.2258.368.3576.744.3576 1.112 0 2.188-4.1779 4.624-10.1729 4.624-5.9951 0-10.173-2.436-10.173-4.624 0-.363.1535-.731.3739-1.096l-.0014-.001c-.0013-.001-.0023-.002-.0023-.005 1.8641 1.756 5.5526 2.952 9.8028 2.952 4.2628 0 7.9603-1.203 9.8189-2.968-.0018.002-.0018.002-.0036.006zm-.56-6.261c.5943.589.9176 1.217.9176 1.824 0 2.188-4.1779 4.624-10.1729 4.624-5.9951 0-10.173-2.436-10.173-4.624 0-2.187 4.1779-4.624 10.173-4.624 4.3278 0 7.711 1.272 9.2553 2.8z" fill="#000" fill-rule="evenodd"/><path d="m46.6837 328.27c0 .488-.5852.896-1.3132 1.221-.7279.329-1.7449.52-3.5945.578v.004c-3.6993-.094-4.1455-.627-4.6927-1.597l2.2758-.283c.2493.61 1.082.915 2.4927.915.6593 0 1.1488-.065 1.4595-.195.3107-.132.4696-.289.4696-.473 0-.192-.1481-.338-.4588-.437-.3107-.098-.9898-.222-2.0609-.374-.9628-.134-1.689-.266-2.2308-.397-.5419-.129-.9285-.313-1.2662-.548s-.3992-.509-.3992-.82c0-.412.522-.78 1.1253-1.109.6034-.327 1.4361-.527 3.2858-.599 3.3841.085 3.6452.465 4.1063 1.134.0429.063.0876.128.1366.195l-1.9724.396c-.4715-.544-1.1977-.815-2.1838-.815-.495 0-.8924.061-1.1904.182-.2999.121-.4497.269-.4497.443 0 .175.1445.31.4335.404.2872.094.9067.21 1.8532.351 1.0405.152 1.8569.296 2.4475.43.5925.135 1.0639.321 1.418.56.3169.214.3135.461.3097.74-.0005.031-.0009.062-.0009.094z" fill="#000"/><path d="m41.7759 323.477h-.0957v.096 1.505 1.207 1.38 1.437.963.462.096h.0957.3528.0957v-.096-.46-.958-1.391-1.372-1.28-.908-.585-.096h-.0957z" fill="#000" stroke="#000" stroke-width=".191342"/><path d="m38.14 463.379.6906.251c.3208.116.5627.385.6455.716l.5131 2.054c.1409.443.5629.737 1.0282.715l1.4935-.072c.5041-.024.9159-.411.9716-.913l.2008-1.809c.0308-.278.1732-.529.3909-.698.076-.059.1678-.092.2613-.115l.7795-.19c.2612-.063.5367-.022.7677.115l1.6184.963c.4004.238.9108.176 1.2436-.149l1.0683-1.046c.3606-.354.4112-.916.1195-1.328l-1.0525-1.486c-.1501-.212-.2129-.47-.1808-.723.0169-.133.091-.25.1794-.352l.4534-.52c.1292-.149.2983-.257.4872-.312l1.9208-.56c.4472-.13.7508-.545.7396-1.01l-.0359-1.495c-.0122-.505-.389-.926-.8892-.993l-1.8041-.244c-.2771-.038-.5247-.186-.6885-.408-.0571-.077-.088-.17-.1085-.264l-.1709-.784c-.0572-.262-.0093-.537.1335-.765l1.0007-1.594c.2476-.395.1987-.907-.1191-1.247l-1.0202-1.093c-.3444-.369-.9058-.433-1.3245-.152l-1.5103 1.017c-.233.157-.5181.21-.7888.152-.0917-.019-.1744-.067-.2506-.121l-.7605-.546c-.1799-.129-.3132-.313-.3802-.523l-.5936-1.87c-.1409-.444-.563-.737-1.0282-.715l-1.4935.072c-.5041.024-.9159.411-.9716.913l-.2008 1.809c-.0308.278-.1732.529-.3909.698-.076.059-.1679.092-.2613.115l-.7795.19c-.2612.063-.5368.022-.7678-.116l-1.6183-.962c-.4004-.238-.9108-.177-1.2436.149l-1.0683 1.046c-.3606.353-.4113.916-.1195 1.328l1.0525 1.486c.1501.211.2129.47.1808.723-.0169.133-.091.25-.1794.352l-.4534.52c-.1292.149-.2983.257-.4872.312l-1.9209.559c-.4471.131-.7507.546-.7395 1.011l.0359 1.495c.0121.505.389.926.8891.993l1.8042.244c.2771.038.5247.186.6884.408.0572.077.0881.17.1086.264l.1708.784c.0573.262.0094.537-.1334.764l-1.0008 1.595c-.2475.395-.1986.907.1192 1.247l1.0202 1.093c.3444.369.9058.433 1.3245.151l1.5103-1.016c.2724-.183.616-.226.9245-.113z" stroke="#000" stroke-width="1.54069"/><path d="m41.6164 458.771c1.4182 0 2.5678-1.15 2.5678-2.568s-1.1496-2.568-2.5678-2.568-2.5678 1.15-2.5678 2.568 1.1496 2.568 2.5678 2.568z" fill="#000" stroke="#000" stroke-width=".71899"/><path d="m41.5654 460.979c2.6094 0 4.7248-2.115 4.7248-4.725 0-2.609-2.1154-4.724-4.7248-4.724-2.6095 0-4.7248 2.115-4.7248 4.724 0 2.61 2.1153 4.725 4.7248 4.725z" stroke="#000" stroke-width=".616277"/><g fill="#000"><path d="m41.5319 406.272c3.2313 0 5.8697-4.778 5.8697-11.182 0-6.439-2.6268-11.216-5.8697-11.216s-5.8697 4.777-5.8697 11.216c0 6.404 2.6385 11.182 5.8697 11.182zm0-20.992c2.2782 0 4.3122 4.533 4.3122 9.81 0 5.184-2.034 9.764-4.3122 9.764-2.2781 0-4.3122-4.58-4.3122-9.764 0-5.277 2.0341-9.81 4.3122-9.81zm-.7555-1.244v22.015h1.5227v-22.015zm.7555 15.401c-3.5799 0-6.7531.942-8.3803 2.441l1.174.965c1.5342-1.221 4.0332-1.883 7.2063-1.883 3.1732 0 5.6721.662 7.2064 1.883l1.1739-.965c-1.6272-1.499-4.8003-2.441-8.3803-2.441zm10.7282-5.137h-21.4564v1.522h21.4564zm-10.7282-3.545c3.58 0 6.7531-.942 8.3803-2.441l-1.1739-.965c-1.5343 1.209-4.0332 1.883-7.2064 1.883-3.1731 0-5.6721-.674-7.2063-1.883l-1.174.965c1.6272 1.499 4.8004 2.441 8.3803 2.441zm0 16.167c6.4858 0 11.8557-5.381 11.8557-11.855 0-6.486-5.3816-11.856-11.8673-11.856-6.4741 0-11.844 5.37-11.844 11.856 0 6.474 5.3815 11.855 11.8556 11.855zm0-1.58c-5.614 0-10.2749-4.661-10.2749-10.275s4.6493-10.275 10.2633-10.275 10.2865 4.661 10.2865 10.275-4.6609 10.275-10.2749 10.275z"/><path clip-rule="evenodd" d="m34.6348 147.958c-.2341 2.622.4948 8.142 5.0102 10.52.6421.339 1.373.45 2.0987.45h.2139c1.0129 0 2.03-.233 2.8106-.878 2.0379-1.685 4.588-5.093 4.2939-10.092l-.297-4.604c-.0021-.033.0171-.063.0475-.075l3.9885-1.567c.0622-.025.0639-.112.0027-.139l-10.7746-4.723c-.0194-.009-.0414-.008-.0607 0l-10.6446 4.731c-.058.026-.0599.108-.0031.136l1.3604.68 2.0609 1.031c.0263.013.0425.04.0415.069zm5.4669 9.399c-3.4505-1.771-4.699-5.605-4.5729-7.638.0032-.052.0595-.083.1068-.059l.6879.344c.0514.026.1114-.013.1087-.071l-.1385-2.909c-.0027-.055.052-.095.103-.074 1.4968.616 4.5462 1.792 5.6021 1.909 1.0523.117 3.8953-1.178 5.2949-1.894.0515-.026.112.013.1094.071l-.1377 3.028c-.0028.061.0654.1.1167.066l.672-.447c.0482-.032.1131.001.1156.059.161 3.727-2.2285 6.092-3.9581 7.306-.6878.483-1.5262.678-2.3666.678-.6021 0-1.2076-.094-1.7433-.369z" fill-rule="evenodd"/><path d="m33.1788 142.697c.0018-.03-.0145-.058-.0415-.071l-.4564-.229c.0556.891-.167 3.29-.167 4.091-.1329 1.063-.2918 3.982-.1245 5.72-.0711-.844.1352.019.1419-.051.1692-1.79.7797-4.635.6505-5.669-.1312-1.049-.0584-2.882-.003-3.791z"/><path d="m29.824 161.056c1.2876-1.052 4.3299-2.412 5.8004-3.004.0362-.015.0763.001.0921.037.4045.92.1063 2.646 5.9821 2.793 4.681.117 5.8498-1.75 5.8625-2.773.0005-.044.0368-.081.081-.078 2.7371.149 5.0474 2.005 5.9726 3.03.0429.048.0081.122-.056.122h-23.687c-.0688 0-.101-.083-.0477-.127z" stroke="#000" stroke-width=".300566"/><g clip-path="url(#d)"><path d="m48.7095 260.114h-4.0302l-.1639-.736c-.0563-.257-.2841-.439-.5469-.439h-4.5398c-.2628 0-.4898.182-.5469.439l-.163.736h-4.0311c-1.4746 0-2.6735 1.199-2.6735 2.674v19.345c0 1.475 1.1989 2.674 2.6735 2.674h14.0219c1.4745 0 2.6744-1.199 2.6744-2.674v-19.345c-.0001-1.475-1.1999-2.674-2.6745-2.674zm.9268 22.019c0 .511-.4156.926-.9268.926h-14.0219c-.5103 0-.9259-.415-.9259-.926v-19.345c0-.511.4156-.927.9259-.927h3.6428l-.093.419c-.0375.165.0035.34.1093.472.1066.133.2679.21.4377.21h5.8291c.1698 0 .3311-.077.4369-.21.1067-.133.1476-.306.1101-.472l-.093-.419h3.642c.5112 0 .9268.416.9268.927z"/><path d="m38.6358 270.256h1.8552l-.441-.301c-.6222-.425-.7821-1.274-.3571-1.896.4244-.622 1.2737-.782 1.8959-.357l.0727.05v-.521c0-.337-.2738-.611-.6109-.611h-2.4148c-.3371 0-.6109.274-.6109.611v2.414c0 .337.2738.611.6109.611z"/><path d="m44.3156 266.905-2.1384 2.025-.9739-.665c-.3097-.212-.7348-.132-.9479.179-.2125.311-.1326.735.1792.948l1.4276.975c.1166.08.2505.119.3844.119.1699 0 .3383-.064.469-.187l2.538-2.403c.2738-.259.2851-.691.0266-.964-.2598-.274-.6908-.285-.9646-.027z"/><path d="m38.6358 274.942h1.8558l-.4416-.301c-.6222-.425-.7821-1.274-.3571-1.896.4244-.622 1.2737-.783 1.8959-.357l.0727.049v-.52c0-.338-.2738-.612-.6109-.612h-2.4148c-.3371 0-.6109.274-.6109.612v2.414c0 .337.2738.611.6109.611z"/><path d="m44.3156 271.591-2.1384 2.025-.9739-.665c-.3097-.213-.7348-.133-.9479.179-.2125.311-.1326.735.1792.948l1.4276.975c.1166.08.2505.118.3844.118.1699 0 .3383-.063.469-.186l2.538-2.403c.2738-.259.2851-.69.0266-.964-.2598-.274-.6908-.285-.9646-.027z"/><path d="m41.0506 275.992h-2.4148c-.3371 0-.6109.274-.6109.611v2.414c0 .337.2738.611.6109.611h2.4148c.3371 0 .6109-.274.6109-.611v-2.414c0-.337-.2738-.611-.6109-.611z"/></g></g><path d="m328 269.853c10.951 0 19.828-8.877 19.828-19.827 0-10.951-8.877-19.828-19.828-19.828-10.95 0-19.827 8.877-19.827 19.828 0 10.95 8.877 19.827 19.827 19.827z" fill="#fff"/><g mask="url(#o)"><g mask="url(#p)"><path d="m333.364 237.609c6.321-.222 4.105 10.207 1.962 13.84v.759l-14.384.763c-7.088-13.731.651-15.584 3.159-15.693 1.852-3.487 5.558-1.526 9.263.331z" fill="#253b5a" stroke="#253b5a" stroke-linecap="round" stroke-width=".217961"/><path d="m324.322 262.451s-.165.24-.425.452c-.215.176-.457.357-.728.547-.056.039-.116.073-.179.101-.111.049-.22.099-.327.148-.588.273-1.112.547-1.579.819-1.13.659-1.929 1.308-2.498 1.906-1.062 1.116-1.326 2.051-1.456 2.535h20.79c-.139-.518-.432-1.554-1.693-2.774-.548-.53-1.28-1.095-2.261-1.667-.468-.272-.991-.546-1.579-.819-.107-.049-.216-.099-.327-.148-.063-.028-.123-.062-.179-.101-.144-.101-.28-.199-.408-.296-.113-.085-.219-.168-.32-.251-.067-.054-.142-.11-.216-.165l-.015-.012c-.126-.094-.251-.187-.342-.275-1.482-1.427-1.156-2.502-1.238-4.392h-3.634c-.082 1.89.096 2.965-1.386 4.392z" fill="#ffd5be"/><path d="m323.897 262.903c-.215.176-.457.357-.728.547-.056.039-.116.073-.179.101-.111.049-.22.099-.327.148-.588.273-1.112.547-1.579.819-1.13.659-1.929 1.308-2.498 1.906-1.062 1.116-1.326 2.051-1.456 2.535h20.79c-.139-.518-.432-1.554-1.693-2.774-.548-.53-1.28-1.095-2.261-1.667-.468-.272-.991-.546-1.579-.819-.107-.049-.216-.099-.327-.148-.063-.028-.123-.062-.179-.101-.144-.101-.28-.199-.408-.296-.113-.085-.219-.168-.32-.251-.067-.054-.142-.11-.216-.165l-.015-.012c-.126-.094-.251-.187-.342-.275-1.482-1.427-1.156-2.502-1.238-4.392h-3.634c-.082 1.89.096 2.965-1.386 4.392 0 0-.165.24-.425.452z" stroke="#000" stroke-linecap="round" stroke-width=".201852"/><path d="m324.322 262.451s-.165.241-.425.452c-.215.176-.457.358-.728.547-.056.039-.116.073-.179.101-.111.049-.22.099-.327.148-.588.273-1.112.547-1.579.819-1.13.659-1.929 1.309-2.498 1.906-1.062 1.116-1.326 2.845-1.456 3.328h20.79c-.139-.518-.432-2.347-1.693-3.567-.548-.53-1.28-1.095-2.261-1.667-.468-.272-.991-.546-1.579-.819-.107-.049-.216-.099-.327-.148-.063-.028-.123-.062-.179-.101-.144-.101-.28-.199-.408-.296-.113-.085-.219-.168-.32-.251-.067-.054-.142-.11-.216-.165l-.015-.011c-.126-.094-.251-.188-.342-.276l-1.884.755-1.417.236-.708-.236h-.708l-.472-.236-.449-.067-.259-.169z" fill="#235819"/><path clip-rule="evenodd" d="m331.153 262.903c-2.689 1.728-5.632 1.401-7.256 0-.215.176-.457.357-.728.547-.056.039-.116.073-.179.101-.111.049-.22.099-.327.148v6.45h9.724v-6.45c-.107-.049-.216-.099-.327-.148-.063-.028-.123-.062-.179-.101-.144-.101-.28-.199-.408-.296-.113-.085-.219-.168-.32-.251z" fill="#88c57e" fill-rule="evenodd"/><path d="m323.897 262.903c.26-.212.425-.452.425-.452 1.482-1.427 1.304-2.502 1.386-4.392m-1.386 4.392c1.312 1.046 4.068 1.296 6.258 0m-7.917 1.248c-.588.273-1.112.547-1.579.819-1.13.659-1.929 1.308-2.498 1.906m2.498-1.906-1.23 2.184 1.962.653-2.071 2.794m0 0h-1.159l-1.456-1.19c.13-.484.394-1.419 1.456-2.535m0 0v3.725m1.159 0h2.918m0-6.45c.107-.049.216-.099.327-.148.063-.028.123-.062.179-.101.271-.19.513-.371.728-.547m-1.234.796v6.45m1.234-7.246c1.624 1.401 4.567 1.728 7.256 0m0 0c.101.083.207.166.32.251.128.097.264.195.408.296.056.039.116.073.179.101.111.049.22.099.327.148m-1.465-.973.015.012c.074.055.149.111.216.165m-.231-.177c-.126-.094-.251-.187-.342-.275-1.482-1.427-1.156-2.502-1.238-4.392m4.624 6.459c.981.572 1.713 1.137 2.261 1.667m-2.261-1.667 1.145 2.184-1.743.762 2.07 2.685m-1.472-5.631c-.468-.272-.991-.546-1.579-.819m3.051 6.45h.789l1.693-1.19c-.139-.518-.432-1.554-1.693-2.774m0 0v3.964m-.789 0h-3.051m0-6.45v6.45m-1.45-7.411c-.005-.004-.01-.008-.015-.012m1.465 7.423h-9.724" stroke="#000" stroke-linecap="round" stroke-width=".201852"/><path d="m321.112 255.201c2.221 3.33 3.533 3.835 6.46 3.936 3.716.163 5.447-2.425 6.355-3.936 4.643-1.31 2.22-5.251 1.312-3.838l-.459.41c-.436-4.577 1.483-9.612-4.359-10.135 0 .29.393.98 1.962 1.416-1.017.146-3.422.109-4.904-1.198 0 .327.436 1.111 2.179 1.634-1.344.182-4.097-.218-4.359-3.269-4.043.842-4.221 1.237-4.817 10.918-.024.39-.51.557-.765.262l-.119-.137c-2.223-.102-1.012 3.733 1.514 3.937z" fill="#ffd5be" stroke="#000" stroke-linecap="round" stroke-width=".201852"/><path d="m331.357 250.519c.39 0 .706-.317.706-.707s-.316-.706-.706-.706-.707.316-.707.706.317.707.707.707z" fill="#000"/><path d="m323.685 250.519c.39 0 .706-.317.706-.707s-.316-.706-.706-.706-.707.316-.707.706.317.707.707.707z" fill="#000"/><g stroke="#000"><path d="m322.127 246.748c.517-.382 1.737-.69 2.476-.833.052-.01.056-.081.005-.095-1.605-.462-2.341.288-2.573.87-.019.049.049.09.092.058z" fill="#000" stroke-linecap="round" stroke-width=".201852"/><path d="m332.914 246.748c-.517-.382-1.738-.69-2.477-.833-.051-.01-.055-.081-.005-.095 1.606-.462 2.342.288 2.573.87.02.049-.049.09-.091.058z" fill="#000" stroke-linecap="round" stroke-width=".201852"/><path d="m329.238 254.052c-.437.471-1.736 1.13-3.431 0" stroke-linecap="round" stroke-width=".201852"/><path d="m319.145 252.538c.303.201.747.403.908 1.211" stroke-linecap="round" stroke-width=".201852"/><path d="m327.422 247.492c.387 2.755.605 3.627 1.259 4.717-.436.436-1.417.763-2.071.218" stroke-linecap="round" stroke-width=".201852"/><path d="m336.101 252.437c-.303.202-.848.605-1.009 1.413" stroke-linecap="round" stroke-width=".201852"/><path d="m331.637 246.761c1.673 0 3.034 1.314 3.034 2.942s-1.361 2.942-3.034 2.943c-1.634 0-2.971-1.256-3.031-2.834h-2.038c-.059 1.578-1.396 2.833-3.03 2.834-1.673 0-3.034-1.315-3.034-2.943s1.362-2.942 3.034-2.942c1.635 0 2.971 1.256 3.03 2.833h2.038c.06-1.577 1.397-2.833 3.031-2.833z" stroke-width=".217961"/></g></g></g><path d="m328 343.802c10.95 0 19.828-8.877 19.828-19.828 0-10.95-8.878-19.827-19.828-19.827-10.951 0-19.828 8.877-19.828 19.827 0 10.951 8.877 19.828 19.828 19.828z" fill="#fff"/><g mask="url(#q)"><g mask="url(#r)"><path d="m328.064 343.8h7.214v-2.781c0-.234-.19-.424-.425-.424h-13.79l-.531 3.205z" fill="#ffd5be"/><path d="m336.143 338.685c-.659-.512-1.439-.961-2.35-1.273-1.287-.44-2.167-1.188-2.754-2.015h-5.949c-.588.827-1.467 1.575-2.754 2.015-.716.245-1.351.575-1.909.953l1.909.85c2.864 1.38 13.048 1.167 13.807-.53z" fill="#ffd5be"/><path d="m329.974 331.896h-1.91-1.909c.042.829-.181 2.255-1.065 3.501h5.949c-.885-1.246-1.108-2.672-1.065-3.501z" fill="#ffd5be"/><path d="m339.103 343.8c-.279-.913-1.286-3.814-2.96-5.115-.759 1.697-10.943 1.91-13.807.531l-1.91-.851c-1.959 1.327-2.985 4.444-3.288 5.435h3.395l.53-3.205h13.791c.234 0 .424.19.424.424v2.781z" fill="#ffd5be"/><path d="m336.143 338.685c1.674 1.301 2.681 4.202 2.96 5.115h-3.825m-14.745 0h-3.395c.303-.991 1.329-4.108 3.288-5.435.559-.378 1.194-.708 1.91-.953 1.287-.44 2.166-1.188 2.754-2.015.884-1.246 1.107-2.672 1.065-3.501h1.909 1.91c-.043.829.18 2.255 1.065 3.501.587.827 1.467 1.575 2.754 2.015.911.312 1.691.761 2.35 1.273m0 0c-.759 1.697-10.943 1.91-13.807.531l-1.91-.851m14.852 5.435h-7.214-7.531m14.745 0v-2.781c0-.234-.19-.424-.424-.424h-13.791l-.53 3.205m10.506-8.403h-5.949" stroke="#000" stroke-width=".212163"/><path d="m328.064 343.802h7.214l-.001-2.783c0-.234-.19-.424-.424-.424h-13.791l-.53 3.207z" fill="#d9d9d9"/><path d="m336.142 338.685c1.674 1.301 2.57 4.204 2.849 5.117h-3.713m.864-5.117c-.659-.512-1.439-.961-2.35-1.273-1.287-.44-2.167-1.188-2.754-2.015m5.104 3.288c-.759 1.697-10.943 1.91-13.807.531l-1.91-.851m14.853 5.437h-7.214-7.531m14.745 0-.001-2.783c0-.235-.19-.424-.424-.424h-13.791l-.529 3.207m0 0h-3.395c.303-.991 1.328-4.11 3.287-5.437.559-.378 1.194-.708 1.91-.953 1.287-.44 2.166-1.188 2.754-2.015.884-1.246 1.107-2.672 1.065-3.501h1.909 1.91c-.043.829.18 2.255 1.065 3.501m0 0h-5.949" stroke="#000" stroke-width=".212163"/><path d="m339.102 343.802c-.279-.913-1.285-3.816-2.96-5.117-.759 1.697-10.943 1.91-13.807.531l-1.909-.851c-1.96 1.327-3.228 4.446-3.53 5.437h3.636l.53-3.207h13.791c.234 0 .424.19.424.424v2.783z" fill="#929292"/><path d="m336.142 338.685c1.675 1.301 2.681 4.204 2.96 5.117h-3.825m-14.745 0h-3.636c.302-.991 1.57-4.11 3.53-5.437.559-.378 1.193-.708 1.909-.953 1.287-.44 2.166-1.188 2.754-2.015.884-1.246 1.108-2.672 1.065-3.501h1.91 1.909c-.042.829.181 2.255 1.065 3.501.588.827 1.467 1.575 2.754 2.015.911.312 1.691.761 2.35 1.273m0 0c-.759 1.697-10.943 1.91-13.807.531l-1.909-.851m14.851 5.437h-7.213-7.532m14.745 0v-2.783c0-.234-.19-.424-.424-.424h-13.791l-.53 3.207m10.506-8.405h-5.949" stroke="#000" stroke-width=".212163"/><path clip-rule="evenodd" d="m334.325 337.615.088 3.175c.01.358-.278.654-.637.654h-.406c-.352 0-.637-.285-.637-.637v-3.873c.32.184.67.345 1.062.479.185.063.356.128.53.202zm-.743 3.192c.176 0 .318-.142.318-.318s-.142-.318-.318-.318-.318.142-.318.318.142.318.318.318z" fill="#929292" fill-rule="evenodd"/><path d="m333.9 340.489c0 .176-.142.318-.318.318s-.318-.142-.318-.318.142-.318.318-.318.318.142.318.318z" fill="#929292"/><path clip-rule="evenodd" d="m334.325 337.615.088 3.175c.01.358-.278.654-.637.654h-.406c-.352 0-.637-.285-.637-.637v-3.873c.32.184.67.345 1.062.479.185.063.356.128.53.202zm-.743 3.192c.176 0 .318-.142.318-.318s-.142-.318-.318-.318-.318.142-.318.318.142.318.318.318z" fill-rule="evenodd" stroke="#000" stroke-width=".212163"/><path d="m333.9 340.489c0 .176-.142.318-.318.318s-.318-.142-.318-.318.142-.318.318-.318.318.142.318.318z" stroke="#000" stroke-width=".212163"/><path clip-rule="evenodd" d="m323.611 337.615.087 3.175c.01.358-.277.654-.636.654h-.406c-.352 0-.637-.285-.637-.637v-3.873c.32.184.67.345 1.062.479.184.063.356.128.53.202zm-.743 3.192c.176 0 .318-.142.318-.318s-.142-.318-.318-.318-.318.142-.318.318.142.318.318.318z" fill="#929292" fill-rule="evenodd"/><path d="m323.186 340.489c0 .176-.142.318-.318.318s-.318-.142-.318-.318.142-.318.318-.318.318.142.318.318z" fill="#929292"/><path clip-rule="evenodd" d="m323.611 337.615.087 3.175c.01.358-.277.654-.636.654h-.406c-.352 0-.637-.285-.637-.637v-3.873c.32.184.67.345 1.062.479.184.063.356.128.53.202zm-.743 3.192c.176 0 .318-.142.318-.318s-.142-.318-.318-.318-.318.142-.318.318.142.318.318.318z" fill-rule="evenodd" stroke="#000" stroke-width=".212163"/><path d="m323.186 340.489c0 .176-.142.318-.318.318s-.318-.142-.318-.318.142-.318.318-.318.318.142.318.318z" stroke="#000" stroke-width=".212163"/><path d="m338.546 322.774c0 4.403-3.449 6.708-5.186 7.315-.008.003-.016.004-.024.003-2.756-.425-8.391-.952-8.984.319-.594 1.273-.389 2.723-.212 3.289.926 4.127-1.345 7.133-2.624 8.145-.017.014-.042.014-.061.002-4.322-2.766-2.342-6.235-.762-7.676.026-.024.02-.067-.01-.086-3.35-2.084-1.848-4.53-.627-5.541.027-.022.026-.063-.001-.084-3.335-2.651-2.914-8.629-2.282-11.305.001-.003.001-.006.001-.009.342-6.53 5.942-7.845 10.694-7.844 10.495.405 10.078 7.956 10.078 13.472z" fill="#614270"/><path d="m328.062 336.564c.293 0 .53-.237.53-.53s-.237-.531-.53-.531-.531.238-.531.531.238.53.531.53z" fill="#000"/><path d="m328.277 332.427c3.055 0 5.41-2.333 6.364-4.349 1.273 0 3.777-1.803 2.759-3.925-.955-.849-2.122.848-2.122.848s1.485-2.121.53-4.986c-2.192-1.308-6.768-4.752-7.531-8.062l-.107-.212-.187.212c-.764 3.31-5.339 6.754-7.532 8.062-.94 2.822.487 4.923.53 4.985-.038-.054-1.182-1.682-2.121-.847-1.018 2.122 1.485 3.925 2.758 3.925.955 2.016 3.31 4.349 6.365 4.349z" fill="#ffd5be"/><g stroke="#000" stroke-width=".212163"><path d="m320.981 325c-.038-.054-1.182-1.682-2.121-.847-1.018 2.122 1.485 3.925 2.758 3.925.955 2.016 3.31 4.349 6.365 4.349h.294c3.055 0 5.41-2.333 6.364-4.349 1.273 0 3.777-1.803 2.759-3.925-.955-.849-2.122.848-2.122.848s1.485-2.121.53-4.986c-2.192-1.308-6.768-4.752-7.531-8.062l-.107-.212-.187.212c-.764 3.31-5.339 6.754-7.532 8.062-.94 2.822.487 4.923.53 4.985zm0 0c0 .001.001.001.001.001"/><path d="m336.448 325.319c-.354.318-1.061 1.103-1.061 1.697" stroke-linecap="round"/><path d="m319.684 325.319c.354.318 1.061 1.103 1.061 1.697" stroke-linecap="round"/><path d="m329.87 326.909h-3.713c.177.248.806.743 1.91.743 1.103 0 1.662-.495 1.803-.743z" fill="#000" stroke-linecap="round"/><path d="m327.642 322.561v.849c1.06 0 2.312 1.018.53 2.122" stroke-linecap="round"/></g><path d="m332.094 323.409c.41 0 .742-.332.742-.742s-.332-.743-.742-.743-.743.333-.743.743.333.742.743.742z" fill="#000"/><path d="m324.034 323.409c.41 0 .742-.332.742-.742s-.332-.743-.742-.743c-.411 0-.743.333-.743.743s.332.742.743.742z" fill="#000"/><path d="m331.254 320.239c1.05-.038 1.869.355 2.309.678.048.035.118-.021.086-.071-.629-.981-1.725-.925-2.417-.701-.058.019-.038.096.022.094z" fill="#000" stroke="#000" stroke-linecap="round" stroke-width=".212163"/><path d="m324.771 320.239c-1.05-.038-1.87.355-2.31.678-.048.035-.117-.021-.085-.071.629-.981 1.724-.925 2.417-.701.057.019.038.096-.022.094z" fill="#000" stroke="#000" stroke-linecap="round" stroke-width=".212163"/></g></g></svg>